G04 #@! TF.GenerationSoftware,KiCad,Pcbnew,5.0.1-33cea8e~66~ubuntu18.04.1*
G04 #@! TF.CreationDate,2018-11-27T01:50:38+00:00*
G04 #@! TF.ProjectId,proto_switch_sensor_r1_panel,70726F746F5F7377697463685F73656E,1*
G04 #@! TF.SameCoordinates,Original*
G04 #@! TF.FileFunction,Paste,Top*
G04 #@! TF.FilePolarity,Positive*
%FSLAX46Y46*%
G04 Gerber Fmt 4.6, Leading zero omitted, Abs format (unit mm)*
G04 Created by KiCad (PCBNEW 5.0.1-33cea8e~66~ubuntu18.04.1) date Tue 27 Nov 2018 01:50:38 GMT*
%MOMM*%
%LPD*%
G01*
G04 APERTURE LIST*
%ADD10R,3.000000X1.000000*%
%ADD11R,3.800000X1.800000*%
%ADD12R,0.950000X1.000000*%
%ADD13R,1.000000X0.950000*%
%ADD14R,0.620000X0.620000*%
%ADD15R,1.400000X0.800000*%
%ADD16C,0.400000*%
%ADD17R,1.000000X0.800000*%
%ADD18R,0.640000X1.910000*%
%ADD19R,1.000000X1.400000*%
%ADD20R,0.600000X1.000000*%
%ADD21R,0.200000X0.700000*%
%ADD22R,0.800000X1.200000*%
%ADD23R,0.300000X0.700000*%
%ADD24R,1.000000X1.000000*%
%ADD25R,0.480000X0.230000*%
%ADD26R,0.230000X0.480000*%
%ADD27R,0.300000X0.250000*%
%ADD28R,2.500000X1.700000*%
%ADD29R,1.150000X1.450000*%
%ADD30R,1.150000X1.800000*%
%ADD31R,0.700000X0.200000*%
%ADD32R,1.450000X3.890000*%
%ADD33R,1.100000X0.600000*%
%ADD34R,0.300000X0.850000*%
%ADD35R,0.250000X0.300000*%
G04 APERTURE END LIST*
D10*
G04 #@! TO.C,J202*
X89350000Y-136750000D03*
X89350000Y-134750000D03*
X89350000Y-132750000D03*
X89350000Y-130750000D03*
D11*
X84750000Y-139100000D03*
X84750000Y-128400000D03*
G04 #@! TD*
D12*
G04 #@! TO.C,C224*
X137100000Y-125300000D03*
X135500000Y-125300000D03*
G04 #@! TD*
D13*
G04 #@! TO.C,C223*
X112100000Y-133300000D03*
X112100000Y-131700000D03*
G04 #@! TD*
D14*
G04 #@! TO.C,R302*
X175900000Y-122650000D03*
X175900000Y-123550000D03*
G04 #@! TD*
G04 #@! TO.C,R403*
X92450000Y-143100000D03*
X93350000Y-143100000D03*
G04 #@! TD*
D15*
G04 #@! TO.C,D303*
X189850000Y-147330000D03*
X189850000Y-149870000D03*
X184150000Y-149870000D03*
X184150000Y-147330000D03*
G04 #@! TD*
G04 #@! TO.C,D302*
X189850000Y-141930000D03*
X189850000Y-144470000D03*
X184150000Y-144470000D03*
X184150000Y-141930000D03*
G04 #@! TD*
D14*
G04 #@! TO.C,C201*
X131000000Y-122000000D03*
X131000000Y-121100000D03*
G04 #@! TD*
D16*
G04 #@! TO.C,IC202*
X125500000Y-122400000D03*
X124700000Y-122400000D03*
X123900000Y-122400000D03*
X123100000Y-122400000D03*
X122300000Y-122400000D03*
X121500000Y-122400000D03*
X120700000Y-122400000D03*
X119900000Y-122400000D03*
X119100000Y-122400000D03*
X118300000Y-122400000D03*
X117500000Y-122400000D03*
X125500000Y-123200000D03*
X124700000Y-123200000D03*
X123900000Y-123200000D03*
X123100000Y-123200000D03*
X122300000Y-123200000D03*
X121500000Y-123200000D03*
X120700000Y-123200000D03*
X119900000Y-123200000D03*
X119100000Y-123200000D03*
X118300000Y-123200000D03*
X117500000Y-123200000D03*
X125500000Y-124000000D03*
X124700000Y-124000000D03*
X123900000Y-124000000D03*
X123100000Y-124000000D03*
X122300000Y-124000000D03*
X121500000Y-124000000D03*
X120700000Y-124000000D03*
X119900000Y-124000000D03*
X119100000Y-124000000D03*
X118300000Y-124000000D03*
X117500000Y-124000000D03*
X125500000Y-124800000D03*
X124700000Y-124800000D03*
X123900000Y-124800000D03*
X123100000Y-124800000D03*
X122300000Y-124800000D03*
X121500000Y-124800000D03*
X120700000Y-124800000D03*
X119900000Y-124800000D03*
X119100000Y-124800000D03*
X118300000Y-124800000D03*
X117500000Y-124800000D03*
X125500000Y-125600000D03*
X124700000Y-125600000D03*
X123900000Y-125600000D03*
X123100000Y-125600000D03*
X122300000Y-125600000D03*
X121500000Y-125600000D03*
X120700000Y-125600000D03*
X119900000Y-125600000D03*
X119100000Y-125600000D03*
X118300000Y-125600000D03*
X117500000Y-125600000D03*
X125500000Y-126400000D03*
X124700000Y-126400000D03*
X123900000Y-126400000D03*
X123100000Y-126400000D03*
X122300000Y-126400000D03*
X121500000Y-126400000D03*
X120700000Y-126400000D03*
X119900000Y-126400000D03*
X119100000Y-126400000D03*
X118300000Y-126400000D03*
X117500000Y-126400000D03*
X125500000Y-127200000D03*
X124700000Y-127200000D03*
X123900000Y-127200000D03*
X123100000Y-127200000D03*
X122300000Y-127200000D03*
X121500000Y-127200000D03*
X120700000Y-127200000D03*
X119900000Y-127200000D03*
X119100000Y-127200000D03*
X118300000Y-127200000D03*
X117500000Y-127200000D03*
X125500000Y-128000000D03*
X124700000Y-128000000D03*
X123900000Y-128000000D03*
X123100000Y-128000000D03*
X122300000Y-128000000D03*
X121500000Y-128000000D03*
X120700000Y-128000000D03*
X119900000Y-128000000D03*
X119100000Y-128000000D03*
X118300000Y-128000000D03*
X117500000Y-128000000D03*
X125500000Y-128800000D03*
X124700000Y-128800000D03*
X123900000Y-128800000D03*
X123100000Y-128800000D03*
X122300000Y-128800000D03*
X121500000Y-128800000D03*
X120700000Y-128800000D03*
X119900000Y-128800000D03*
X119100000Y-128800000D03*
X118300000Y-128800000D03*
X117500000Y-128800000D03*
X125500000Y-129600000D03*
X124700000Y-129600000D03*
X123900000Y-129600000D03*
X123100000Y-129600000D03*
X122300000Y-129600000D03*
X121500000Y-129600000D03*
X120700000Y-129600000D03*
X119900000Y-129600000D03*
X119100000Y-129600000D03*
X118300000Y-129600000D03*
X117500000Y-129600000D03*
X125500000Y-130400000D03*
X124700000Y-130400000D03*
X123900000Y-130400000D03*
X123100000Y-130400000D03*
X122300000Y-130400000D03*
X121500000Y-130400000D03*
X120700000Y-130400000D03*
X119900000Y-130400000D03*
X119100000Y-130400000D03*
X118300000Y-130400000D03*
X117500000Y-130400000D03*
G04 #@! TD*
D17*
G04 #@! TO.C,Y301*
X181400000Y-122250000D03*
X181400000Y-123950000D03*
X179800000Y-123950000D03*
X179800000Y-122250000D03*
G04 #@! TD*
G04 #@! TO.C,Y201*
X115700000Y-122050000D03*
X115700000Y-123750000D03*
X114100000Y-123750000D03*
X114100000Y-122050000D03*
G04 #@! TD*
D14*
G04 #@! TO.C,C314*
X178300000Y-123550000D03*
X178300000Y-122650000D03*
G04 #@! TD*
G04 #@! TO.C,R503*
X89200000Y-125750000D03*
X89200000Y-126650000D03*
G04 #@! TD*
D12*
G04 #@! TO.C,D501*
X92200000Y-126000000D03*
X90600000Y-126000000D03*
G04 #@! TD*
D13*
G04 #@! TO.C,C505*
X88400000Y-147100000D03*
X88400000Y-148700000D03*
G04 #@! TD*
D14*
G04 #@! TO.C,C306*
X168300000Y-128150000D03*
X168300000Y-127250000D03*
G04 #@! TD*
G04 #@! TO.C,C304*
X174700000Y-122650000D03*
X174700000Y-123550000D03*
G04 #@! TD*
G04 #@! TO.C,C302*
X170100000Y-130250000D03*
X170100000Y-129350000D03*
G04 #@! TD*
G04 #@! TO.C,R318*
X131250000Y-133000000D03*
X130350000Y-133000000D03*
G04 #@! TD*
G04 #@! TO.C,R213*
X93000000Y-138050000D03*
X93000000Y-138950000D03*
G04 #@! TD*
G04 #@! TO.C,R212*
X93000000Y-130300000D03*
X93000000Y-131200000D03*
G04 #@! TD*
G04 #@! TO.C,D205*
X91750000Y-130300000D03*
X91750000Y-131200000D03*
G04 #@! TD*
G04 #@! TO.C,D204*
X91750000Y-138950000D03*
X91750000Y-138050000D03*
G04 #@! TD*
D18*
G04 #@! TO.C,T301*
X177445000Y-141885000D03*
X176175000Y-141885000D03*
X174905000Y-141885000D03*
X173635000Y-141885000D03*
X172365000Y-141885000D03*
X171095000Y-141885000D03*
X169825000Y-141885000D03*
X168555000Y-141885000D03*
X168555000Y-133115000D03*
X169825000Y-133115000D03*
X171095000Y-133115000D03*
X172365000Y-133115000D03*
X173635000Y-133115000D03*
X174905000Y-133115000D03*
X176175000Y-133115000D03*
X177445000Y-133115000D03*
G04 #@! TD*
D19*
G04 #@! TO.C,SW201*
X111000000Y-120500000D03*
X104000000Y-120500000D03*
G04 #@! TD*
D14*
G04 #@! TO.C,R502*
X163850000Y-140200000D03*
X164750000Y-140200000D03*
G04 #@! TD*
G04 #@! TO.C,R501*
X163850000Y-139000000D03*
X164750000Y-139000000D03*
G04 #@! TD*
G04 #@! TO.C,R424*
X126150000Y-135400000D03*
X127050000Y-135400000D03*
G04 #@! TD*
G04 #@! TO.C,R423*
X125500000Y-132050000D03*
X125500000Y-132950000D03*
G04 #@! TD*
G04 #@! TO.C,R422*
X124450000Y-134200000D03*
X125350000Y-134200000D03*
G04 #@! TD*
G04 #@! TO.C,R421*
X137950000Y-143100000D03*
X138850000Y-143100000D03*
G04 #@! TD*
G04 #@! TO.C,R420*
X124300000Y-132050000D03*
X124300000Y-132950000D03*
G04 #@! TD*
G04 #@! TO.C,R419*
X151150000Y-143100000D03*
X152050000Y-143100000D03*
G04 #@! TD*
G04 #@! TO.C,R418*
X122850000Y-135400000D03*
X123750000Y-135400000D03*
G04 #@! TD*
G04 #@! TO.C,R417*
X122300000Y-132050000D03*
X122300000Y-132950000D03*
G04 #@! TD*
G04 #@! TO.C,R416*
X121250000Y-134200000D03*
X122150000Y-134200000D03*
G04 #@! TD*
G04 #@! TO.C,R415*
X122250000Y-143100000D03*
X123150000Y-143100000D03*
G04 #@! TD*
G04 #@! TO.C,R414*
X121100000Y-132050000D03*
X121100000Y-132950000D03*
G04 #@! TD*
G04 #@! TO.C,R413*
X136750000Y-143100000D03*
X135850000Y-143100000D03*
G04 #@! TD*
G04 #@! TO.C,R412*
X119650000Y-135400000D03*
X120550000Y-135400000D03*
G04 #@! TD*
G04 #@! TO.C,R411*
X119100000Y-132050000D03*
X119100000Y-132950000D03*
G04 #@! TD*
G04 #@! TO.C,R410*
X118050000Y-134200000D03*
X118950000Y-134200000D03*
G04 #@! TD*
G04 #@! TO.C,R409*
X106450000Y-143100000D03*
X107350000Y-143100000D03*
G04 #@! TD*
G04 #@! TO.C,R408*
X117900000Y-132050000D03*
X117900000Y-132950000D03*
G04 #@! TD*
G04 #@! TO.C,R407*
X121050000Y-143100000D03*
X120150000Y-143100000D03*
G04 #@! TD*
G04 #@! TO.C,R406*
X116450000Y-135400000D03*
X117350000Y-135400000D03*
G04 #@! TD*
G04 #@! TO.C,R405*
X115900000Y-132050000D03*
X115900000Y-132950000D03*
G04 #@! TD*
G04 #@! TO.C,R404*
X114850000Y-134200000D03*
X115750000Y-134200000D03*
G04 #@! TD*
G04 #@! TO.C,R402*
X114700000Y-132050000D03*
X114700000Y-132950000D03*
G04 #@! TD*
G04 #@! TO.C,R401*
X105250000Y-143100000D03*
X104350000Y-143100000D03*
G04 #@! TD*
G04 #@! TO.C,R317*
X184600000Y-130250000D03*
X184600000Y-129350000D03*
G04 #@! TD*
G04 #@! TO.C,R316*
X187450000Y-133700000D03*
X186550000Y-133700000D03*
G04 #@! TD*
D12*
G04 #@! TO.C,R315*
X157200000Y-146500000D03*
X158800000Y-146500000D03*
G04 #@! TD*
G04 #@! TO.C,R314*
X157200000Y-148600000D03*
X158800000Y-148600000D03*
G04 #@! TD*
G04 #@! TO.C,R313*
X157200000Y-157800000D03*
X158800000Y-157800000D03*
G04 #@! TD*
G04 #@! TO.C,R312*
X157200000Y-155700000D03*
X158800000Y-155700000D03*
G04 #@! TD*
D14*
G04 #@! TO.C,R311*
X167100000Y-127250000D03*
X167100000Y-128150000D03*
G04 #@! TD*
G04 #@! TO.C,R310*
X178650000Y-129100000D03*
X179550000Y-129100000D03*
G04 #@! TD*
G04 #@! TO.C,R309*
X178650000Y-127500000D03*
X179550000Y-127500000D03*
G04 #@! TD*
G04 #@! TO.C,R308*
X178650000Y-126300000D03*
X179550000Y-126300000D03*
G04 #@! TD*
G04 #@! TO.C,R307*
X130350000Y-131600000D03*
X131250000Y-131600000D03*
G04 #@! TD*
G04 #@! TO.C,R306*
X130350000Y-130400000D03*
X131250000Y-130400000D03*
G04 #@! TD*
G04 #@! TO.C,R305*
X130350000Y-129200000D03*
X131250000Y-129200000D03*
G04 #@! TD*
G04 #@! TO.C,R304*
X172300000Y-122650000D03*
X172300000Y-123550000D03*
G04 #@! TD*
G04 #@! TO.C,R303*
X173500000Y-122650000D03*
X173500000Y-123550000D03*
G04 #@! TD*
G04 #@! TO.C,R301*
X177100000Y-122650000D03*
X177100000Y-123550000D03*
G04 #@! TD*
G04 #@! TO.C,R211*
X127350000Y-119600000D03*
X126450000Y-119600000D03*
G04 #@! TD*
G04 #@! TO.C,R210*
X89200000Y-119450000D03*
X89200000Y-120350000D03*
G04 #@! TD*
G04 #@! TO.C,R209*
X89200000Y-124550000D03*
X89200000Y-123650000D03*
G04 #@! TD*
G04 #@! TO.C,R208*
X89200000Y-122450000D03*
X89200000Y-121550000D03*
G04 #@! TD*
G04 #@! TO.C,R207*
X88000000Y-119450000D03*
X88000000Y-120350000D03*
G04 #@! TD*
G04 #@! TO.C,R206*
X112700000Y-120350000D03*
X112700000Y-121250000D03*
G04 #@! TD*
G04 #@! TO.C,R205*
X111300000Y-124750000D03*
X111300000Y-125650000D03*
G04 #@! TD*
G04 #@! TO.C,R204*
X128300000Y-125450000D03*
X128300000Y-124550000D03*
G04 #@! TD*
G04 #@! TO.C,R202*
X131000000Y-119900000D03*
X131000000Y-119000000D03*
G04 #@! TD*
G04 #@! TO.C,R201*
X128550000Y-119600000D03*
X129450000Y-119600000D03*
G04 #@! TD*
D13*
G04 #@! TO.C,L302*
X184500000Y-136200000D03*
X184500000Y-134600000D03*
G04 #@! TD*
G04 #@! TO.C,L301*
X169600000Y-119200000D03*
X169600000Y-120800000D03*
G04 #@! TD*
D20*
G04 #@! TO.C,IC502*
X107700000Y-124950000D03*
X108650000Y-127250000D03*
X106750000Y-127250000D03*
G04 #@! TD*
D21*
G04 #@! TO.C,IC408*
X144600000Y-142075000D03*
X145100000Y-142075000D03*
X145600000Y-142075000D03*
X146100000Y-142075000D03*
X146600000Y-142075000D03*
X146600000Y-143125000D03*
X146100000Y-143125000D03*
X145600000Y-143125000D03*
X145100000Y-143125000D03*
X144600000Y-143125000D03*
G04 #@! TD*
G04 #@! TO.C,IC406*
X125200000Y-142075000D03*
X125700000Y-142075000D03*
X126200000Y-142075000D03*
X126700000Y-142075000D03*
X127200000Y-142075000D03*
X127200000Y-143125000D03*
X126700000Y-143125000D03*
X126200000Y-143125000D03*
X125700000Y-143125000D03*
X125200000Y-143125000D03*
G04 #@! TD*
G04 #@! TO.C,IC404*
X115800000Y-142075000D03*
X116300000Y-142075000D03*
X116800000Y-142075000D03*
X117300000Y-142075000D03*
X117800000Y-142075000D03*
X117800000Y-143125000D03*
X117300000Y-143125000D03*
X116800000Y-143125000D03*
X116300000Y-143125000D03*
X115800000Y-143125000D03*
G04 #@! TD*
G04 #@! TO.C,IC402*
X97400000Y-142075000D03*
X97900000Y-142075000D03*
X98400000Y-142075000D03*
X98900000Y-142075000D03*
X99400000Y-142075000D03*
X99400000Y-143125000D03*
X98900000Y-143125000D03*
X98400000Y-143125000D03*
X97900000Y-143125000D03*
X97400000Y-143125000D03*
G04 #@! TD*
D22*
G04 #@! TO.C,IC303*
X187600000Y-131000000D03*
X186400000Y-131000000D03*
D23*
X186000000Y-129525000D03*
X186500000Y-129525000D03*
X187000000Y-129525000D03*
X187500000Y-129525000D03*
X188000000Y-129525000D03*
X188000000Y-132475000D03*
X187500000Y-132475000D03*
X187000000Y-132475000D03*
X186500000Y-132475000D03*
X186000000Y-132475000D03*
G04 #@! TD*
D24*
G04 #@! TO.C,IC301*
X174600000Y-126900000D03*
X173400000Y-126900000D03*
X174600000Y-128100000D03*
X173400000Y-128100000D03*
D25*
X172140000Y-128750000D03*
X172140000Y-128250000D03*
X172140000Y-127750000D03*
X172140000Y-127250000D03*
X172140000Y-126750000D03*
X172140000Y-126250000D03*
D26*
X172750000Y-125640000D03*
X173250000Y-125640000D03*
X173750000Y-125640000D03*
X174250000Y-125640000D03*
X174750000Y-125640000D03*
X175250000Y-125640000D03*
D25*
X175860000Y-126250000D03*
X175860000Y-126750000D03*
X175860000Y-127250000D03*
X175860000Y-127750000D03*
X175860000Y-128250000D03*
X175860000Y-128750000D03*
D26*
X175250000Y-129360000D03*
X174750000Y-129360000D03*
X174250000Y-129360000D03*
X173750000Y-129360000D03*
X173250000Y-129360000D03*
X172750000Y-129360000D03*
G04 #@! TD*
D27*
G04 #@! TO.C,IC201*
X129925000Y-121350000D03*
X129925000Y-121850000D03*
X129925000Y-122350000D03*
X129925000Y-122850000D03*
X127475000Y-122850000D03*
X127475000Y-122350000D03*
X127475000Y-121850000D03*
X127475000Y-121350000D03*
G04 #@! TD*
D28*
G04 #@! TO.C,D301*
X189000000Y-138700000D03*
X185000000Y-138700000D03*
G04 #@! TD*
D12*
G04 #@! TO.C,D203*
X92200000Y-120000000D03*
X90600000Y-120000000D03*
G04 #@! TD*
G04 #@! TO.C,D202*
X92200000Y-124000000D03*
X90600000Y-124000000D03*
G04 #@! TD*
G04 #@! TO.C,D201*
X92200000Y-122000000D03*
X90600000Y-122000000D03*
G04 #@! TD*
D14*
G04 #@! TO.C,C504*
X110100000Y-127750000D03*
X110100000Y-126850000D03*
G04 #@! TD*
G04 #@! TO.C,C503*
X104450000Y-124700000D03*
X105350000Y-124700000D03*
G04 #@! TD*
D13*
G04 #@! TO.C,C502*
X142900000Y-135600000D03*
X142900000Y-137200000D03*
G04 #@! TD*
G04 #@! TO.C,C501*
X143000000Y-120200000D03*
X143000000Y-121800000D03*
G04 #@! TD*
D29*
G04 #@! TO.C,C313*
X187900000Y-135900000D03*
X186100000Y-135900000D03*
G04 #@! TD*
G04 #@! TO.C,C312*
X160400000Y-146500000D03*
X162200000Y-146500000D03*
G04 #@! TD*
G04 #@! TO.C,C311*
X160400000Y-148600000D03*
X162200000Y-148600000D03*
G04 #@! TD*
G04 #@! TO.C,C310*
X160400000Y-157800000D03*
X162200000Y-157800000D03*
G04 #@! TD*
G04 #@! TO.C,C309*
X160400000Y-155700000D03*
X162200000Y-155700000D03*
G04 #@! TD*
D13*
G04 #@! TO.C,C308*
X180400000Y-132700000D03*
X180400000Y-134300000D03*
G04 #@! TD*
G04 #@! TO.C,C307*
X167200000Y-129500000D03*
X167200000Y-131100000D03*
G04 #@! TD*
G04 #@! TO.C,C305*
X168700000Y-131100000D03*
X168700000Y-129500000D03*
G04 #@! TD*
D30*
G04 #@! TO.C,C303*
X176000000Y-119600000D03*
X179000000Y-119600000D03*
G04 #@! TD*
G04 #@! TO.C,C301*
X174200000Y-119600000D03*
X171200000Y-119600000D03*
G04 #@! TD*
D14*
G04 #@! TO.C,C222*
X115900000Y-125950000D03*
X115900000Y-125050000D03*
G04 #@! TD*
D12*
G04 #@! TO.C,C221*
X112900000Y-125200000D03*
X114500000Y-125200000D03*
G04 #@! TD*
D14*
G04 #@! TO.C,C220*
X112700000Y-123350000D03*
X112700000Y-122450000D03*
G04 #@! TD*
G04 #@! TO.C,C219*
X127100000Y-125450000D03*
X127100000Y-124550000D03*
G04 #@! TD*
D12*
G04 #@! TO.C,C218*
X129650000Y-125300000D03*
X131250000Y-125300000D03*
G04 #@! TD*
D14*
G04 #@! TO.C,C217*
X143000000Y-124050000D03*
X143000000Y-123150000D03*
G04 #@! TD*
G04 #@! TO.C,C216*
X118050000Y-120800000D03*
X118950000Y-120800000D03*
G04 #@! TD*
G04 #@! TO.C,C215*
X123150000Y-120800000D03*
X122250000Y-120800000D03*
G04 #@! TD*
G04 #@! TO.C,C214*
X112500000Y-127750000D03*
X112500000Y-126850000D03*
G04 #@! TD*
G04 #@! TO.C,C213*
X128300000Y-135150000D03*
X128300000Y-134250000D03*
G04 #@! TD*
G04 #@! TO.C,C212*
X115450000Y-120800000D03*
X114550000Y-120800000D03*
G04 #@! TD*
G04 #@! TO.C,C211*
X129500000Y-135150000D03*
X129500000Y-134250000D03*
G04 #@! TD*
G04 #@! TO.C,C210*
X113500000Y-132950000D03*
X113500000Y-132050000D03*
G04 #@! TD*
G04 #@! TO.C,C209*
X111300000Y-127750000D03*
X111300000Y-126850000D03*
G04 #@! TD*
G04 #@! TO.C,C208*
X121050000Y-120800000D03*
X120150000Y-120800000D03*
G04 #@! TD*
G04 #@! TO.C,C207*
X125250000Y-120800000D03*
X124350000Y-120800000D03*
G04 #@! TD*
G04 #@! TO.C,C206*
X113750000Y-127800000D03*
X114650000Y-127800000D03*
G04 #@! TD*
G04 #@! TO.C,C205*
X113750000Y-126600000D03*
X114650000Y-126600000D03*
G04 #@! TD*
G04 #@! TO.C,C204*
X133500000Y-125300000D03*
X132600000Y-125300000D03*
G04 #@! TD*
G04 #@! TO.C,C203*
X110100000Y-124750000D03*
X110100000Y-125650000D03*
G04 #@! TD*
G04 #@! TO.C,C202*
X128300000Y-133050000D03*
X128300000Y-132150000D03*
G04 #@! TD*
D13*
G04 #@! TO.C,C15*
X102150000Y-102950000D03*
X102150000Y-101350000D03*
G04 #@! TD*
D17*
G04 #@! TO.C,Y1*
X108250000Y-101850000D03*
X108250000Y-103550000D03*
X106650000Y-103550000D03*
X106650000Y-101850000D03*
G04 #@! TD*
D31*
G04 #@! TO.C,IC7*
X97525000Y-109550000D03*
X97525000Y-110050000D03*
X97525000Y-110550000D03*
X97525000Y-111050000D03*
X97525000Y-111550000D03*
X96475000Y-111550000D03*
X96475000Y-111050000D03*
X96475000Y-110550000D03*
X96475000Y-110050000D03*
X96475000Y-109550000D03*
G04 #@! TD*
D14*
G04 #@! TO.C,R1*
X96350000Y-113600000D03*
X96350000Y-112700000D03*
G04 #@! TD*
D19*
G04 #@! TO.C,SW3*
X132700000Y-113600000D03*
X139700000Y-113600000D03*
G04 #@! TD*
G04 #@! TO.C,SW2*
X132700000Y-98400000D03*
X139700000Y-98400000D03*
G04 #@! TD*
D14*
G04 #@! TO.C,R21*
X132550000Y-110800000D03*
X133450000Y-110800000D03*
G04 #@! TD*
G04 #@! TO.C,R20*
X132550000Y-101200000D03*
X133450000Y-101200000D03*
G04 #@! TD*
G04 #@! TO.C,C30*
X110250000Y-96700000D03*
X111150000Y-96700000D03*
G04 #@! TD*
G04 #@! TO.C,C29*
X109800000Y-112650000D03*
X109800000Y-111750000D03*
G04 #@! TD*
G04 #@! TO.C,C24*
X108600000Y-112650000D03*
X108600000Y-111750000D03*
G04 #@! TD*
D13*
G04 #@! TO.C,D2*
X106100000Y-99500000D03*
X106100000Y-97900000D03*
G04 #@! TD*
D32*
G04 #@! TO.C,L1*
X101075000Y-98400000D03*
X98125000Y-98400000D03*
G04 #@! TD*
D19*
G04 #@! TO.C,SW1*
X123000000Y-113600000D03*
X130000000Y-113600000D03*
G04 #@! TD*
D14*
G04 #@! TO.C,R19*
X134400000Y-105550000D03*
X134400000Y-106450000D03*
G04 #@! TD*
G04 #@! TO.C,R11*
X111150000Y-97900000D03*
X110250000Y-97900000D03*
G04 #@! TD*
D33*
G04 #@! TO.C,IC6*
X130400000Y-106950000D03*
X130400000Y-106000000D03*
X130400000Y-105050000D03*
X133000000Y-105050000D03*
X133000000Y-106000000D03*
X133000000Y-106950000D03*
G04 #@! TD*
D20*
G04 #@! TO.C,IC3*
X99200000Y-104850000D03*
X100150000Y-107150000D03*
X98250000Y-107150000D03*
G04 #@! TD*
D34*
G04 #@! TO.C,IC2*
X99350000Y-101350000D03*
X99850000Y-101350000D03*
X100350000Y-101350000D03*
X100850000Y-101350000D03*
X100850000Y-103250000D03*
X100350000Y-103250000D03*
X99850000Y-103250000D03*
X99350000Y-103250000D03*
G04 #@! TD*
D14*
G04 #@! TO.C,D4*
X134400000Y-108550000D03*
X134400000Y-107650000D03*
G04 #@! TD*
D13*
G04 #@! TO.C,D3*
X108900000Y-99500000D03*
X108900000Y-97900000D03*
G04 #@! TD*
G04 #@! TO.C,D1*
X103300000Y-99500000D03*
X103300000Y-97900000D03*
G04 #@! TD*
D14*
G04 #@! TO.C,C27*
X134400000Y-103450000D03*
X134400000Y-104350000D03*
G04 #@! TD*
G04 #@! TO.C,C25*
X132250000Y-108500000D03*
X133150000Y-108500000D03*
G04 #@! TD*
G04 #@! TO.C,C22*
X102150000Y-106400000D03*
X102150000Y-107300000D03*
G04 #@! TD*
G04 #@! TO.C,C21*
X96500000Y-105450000D03*
X96500000Y-104550000D03*
G04 #@! TD*
G04 #@! TO.C,C18*
X102150000Y-104300000D03*
X102150000Y-105200000D03*
G04 #@! TD*
D13*
G04 #@! TO.C,C16*
X96500000Y-101500000D03*
X96500000Y-103100000D03*
G04 #@! TD*
D14*
G04 #@! TO.C,R15*
X116850000Y-96750000D03*
X117750000Y-96750000D03*
G04 #@! TD*
G04 #@! TO.C,R17*
X114450000Y-96700000D03*
X115350000Y-96700000D03*
G04 #@! TD*
G04 #@! TO.C,R14*
X115350000Y-97900000D03*
X114450000Y-97900000D03*
G04 #@! TD*
G04 #@! TO.C,R10*
X107500000Y-99150000D03*
X107500000Y-98250000D03*
G04 #@! TD*
G04 #@! TO.C,R9*
X104700000Y-99150000D03*
X104700000Y-98250000D03*
G04 #@! TD*
G04 #@! TO.C,R18*
X120600000Y-96650000D03*
X120600000Y-97550000D03*
G04 #@! TD*
G04 #@! TO.C,C26*
X129850000Y-102600000D03*
X128950000Y-102600000D03*
G04 #@! TD*
D35*
G04 #@! TO.C,IC5*
X118250000Y-100225000D03*
X117750000Y-100225000D03*
X117250000Y-100225000D03*
X116750000Y-100225000D03*
X116750000Y-97775000D03*
X117250000Y-97775000D03*
X117750000Y-97775000D03*
X118250000Y-97775000D03*
G04 #@! TD*
D14*
G04 #@! TO.C,C28*
X105300000Y-103150000D03*
X105300000Y-102250000D03*
G04 #@! TD*
D13*
G04 #@! TO.C,C17*
X98000000Y-101500000D03*
X98000000Y-103100000D03*
G04 #@! TD*
D14*
G04 #@! TO.C,C23*
X119400000Y-98750000D03*
X119400000Y-99650000D03*
G04 #@! TD*
G04 #@! TO.C,C12*
X110250000Y-100300000D03*
X111150000Y-100300000D03*
G04 #@! TD*
G04 #@! TO.C,C11*
X113850000Y-114100000D03*
X114750000Y-114100000D03*
G04 #@! TD*
G04 #@! TO.C,C10*
X120250000Y-111700000D03*
X119350000Y-111700000D03*
G04 #@! TD*
G04 #@! TO.C,C4*
X113850000Y-111700000D03*
X114750000Y-111700000D03*
G04 #@! TD*
G04 #@! TO.C,C9*
X115350000Y-99100000D03*
X114450000Y-99100000D03*
G04 #@! TD*
G04 #@! TO.C,C3*
X112350000Y-100300000D03*
X113250000Y-100300000D03*
G04 #@! TD*
G04 #@! TO.C,C8*
X110250000Y-99100000D03*
X111150000Y-99100000D03*
G04 #@! TD*
G04 #@! TO.C,C6*
X115350000Y-100300000D03*
X114450000Y-100300000D03*
G04 #@! TD*
G04 #@! TO.C,C2*
X112350000Y-99100000D03*
X113250000Y-99100000D03*
G04 #@! TD*
G04 #@! TO.C,C7*
X120250000Y-112900000D03*
X119350000Y-112900000D03*
G04 #@! TD*
G04 #@! TO.C,C5*
X113850000Y-115300000D03*
X114750000Y-115300000D03*
G04 #@! TD*
G04 #@! TO.C,C1*
X113850000Y-112900000D03*
X114750000Y-112900000D03*
G04 #@! TD*
G04 #@! TO.C,R13*
X112350000Y-97900000D03*
X113250000Y-97900000D03*
G04 #@! TD*
G04 #@! TO.C,R12*
X120600000Y-99650000D03*
X120600000Y-98750000D03*
G04 #@! TD*
G04 #@! TO.C,R16*
X119400000Y-97550000D03*
X119400000Y-96650000D03*
G04 #@! TD*
G04 #@! TO.C,R8*
X105300000Y-105850000D03*
X105300000Y-106750000D03*
G04 #@! TD*
G04 #@! TO.C,R7*
X116550000Y-114500000D03*
X117450000Y-114500000D03*
G04 #@! TD*
G04 #@! TO.C,C20*
X108300000Y-106750000D03*
X108300000Y-105850000D03*
G04 #@! TD*
G04 #@! TO.C,C14*
X117450000Y-111700000D03*
X116550000Y-111700000D03*
G04 #@! TD*
D13*
G04 #@! TO.C,C19*
X106800000Y-107100000D03*
X106800000Y-105500000D03*
G04 #@! TD*
D12*
G04 #@! TO.C,C13*
X117800000Y-113100000D03*
X116200000Y-113100000D03*
G04 #@! TD*
D14*
G04 #@! TO.C,R4*
X112200000Y-111750000D03*
X112200000Y-112650000D03*
G04 #@! TD*
G04 #@! TO.C,R6*
X111000000Y-111750000D03*
X111000000Y-112650000D03*
G04 #@! TD*
G04 #@! TO.C,R3*
X96400000Y-98350000D03*
X96400000Y-99250000D03*
G04 #@! TD*
G04 #@! TO.C,R5*
X111150000Y-114000000D03*
X112050000Y-114000000D03*
G04 #@! TD*
G04 #@! TO.C,R2*
X108200000Y-109350000D03*
X108200000Y-110250000D03*
G04 #@! TD*
D16*
G04 #@! TO.C,IC4*
X118000000Y-102000000D03*
X117200000Y-102000000D03*
X116400000Y-102000000D03*
X115600000Y-102000000D03*
X114800000Y-102000000D03*
X114000000Y-102000000D03*
X113200000Y-102000000D03*
X112400000Y-102000000D03*
X111600000Y-102000000D03*
X110800000Y-102000000D03*
X110000000Y-102000000D03*
X118000000Y-102800000D03*
X117200000Y-102800000D03*
X116400000Y-102800000D03*
X115600000Y-102800000D03*
X114800000Y-102800000D03*
X114000000Y-102800000D03*
X113200000Y-102800000D03*
X112400000Y-102800000D03*
X111600000Y-102800000D03*
X110800000Y-102800000D03*
X110000000Y-102800000D03*
X118000000Y-103600000D03*
X117200000Y-103600000D03*
X116400000Y-103600000D03*
X115600000Y-103600000D03*
X114800000Y-103600000D03*
X114000000Y-103600000D03*
X113200000Y-103600000D03*
X112400000Y-103600000D03*
X111600000Y-103600000D03*
X110800000Y-103600000D03*
X110000000Y-103600000D03*
X118000000Y-104400000D03*
X117200000Y-104400000D03*
X116400000Y-104400000D03*
X115600000Y-104400000D03*
X114800000Y-104400000D03*
X114000000Y-104400000D03*
X113200000Y-104400000D03*
X112400000Y-104400000D03*
X111600000Y-104400000D03*
X110800000Y-104400000D03*
X110000000Y-104400000D03*
X118000000Y-105200000D03*
X117200000Y-105200000D03*
X116400000Y-105200000D03*
X115600000Y-105200000D03*
X114800000Y-105200000D03*
X114000000Y-105200000D03*
X113200000Y-105200000D03*
X112400000Y-105200000D03*
X111600000Y-105200000D03*
X110800000Y-105200000D03*
X110000000Y-105200000D03*
X118000000Y-106000000D03*
X117200000Y-106000000D03*
X116400000Y-106000000D03*
X115600000Y-106000000D03*
X114800000Y-106000000D03*
X114000000Y-106000000D03*
X113200000Y-106000000D03*
X112400000Y-106000000D03*
X111600000Y-106000000D03*
X110800000Y-106000000D03*
X110000000Y-106000000D03*
X118000000Y-106800000D03*
X117200000Y-106800000D03*
X116400000Y-106800000D03*
X115600000Y-106800000D03*
X114800000Y-106800000D03*
X114000000Y-106800000D03*
X113200000Y-106800000D03*
X112400000Y-106800000D03*
X111600000Y-106800000D03*
X110800000Y-106800000D03*
X110000000Y-106800000D03*
X118000000Y-107600000D03*
X117200000Y-107600000D03*
X116400000Y-107600000D03*
X115600000Y-107600000D03*
X114800000Y-107600000D03*
X114000000Y-107600000D03*
X113200000Y-107600000D03*
X112400000Y-107600000D03*
X111600000Y-107600000D03*
X110800000Y-107600000D03*
X110000000Y-107600000D03*
X118000000Y-108400000D03*
X117200000Y-108400000D03*
X116400000Y-108400000D03*
X115600000Y-108400000D03*
X114800000Y-108400000D03*
X114000000Y-108400000D03*
X113200000Y-108400000D03*
X112400000Y-108400000D03*
X111600000Y-108400000D03*
X110800000Y-108400000D03*
X110000000Y-108400000D03*
X118000000Y-109200000D03*
X117200000Y-109200000D03*
X116400000Y-109200000D03*
X115600000Y-109200000D03*
X114800000Y-109200000D03*
X114000000Y-109200000D03*
X113200000Y-109200000D03*
X112400000Y-109200000D03*
X111600000Y-109200000D03*
X110800000Y-109200000D03*
X110000000Y-109200000D03*
X118000000Y-110000000D03*
X117200000Y-110000000D03*
X116400000Y-110000000D03*
X115600000Y-110000000D03*
X114800000Y-110000000D03*
X114000000Y-110000000D03*
X113200000Y-110000000D03*
X112400000Y-110000000D03*
X111600000Y-110000000D03*
X110800000Y-110000000D03*
X110000000Y-110000000D03*
G04 #@! TD*
M02*
