G04 #@! TF.GenerationSoftware,KiCad,Pcbnew,5.0.1-33cea8e~66~ubuntu18.04.1*
G04 #@! TF.CreationDate,2018-11-27T01:50:38+00:00*
G04 #@! TF.ProjectId,proto_switch_sensor_r1_panel,70726F746F5F7377697463685F73656E,1*
G04 #@! TF.SameCoordinates,Original*
G04 #@! TF.FileFunction,Legend,Top*
G04 #@! TF.FilePolarity,Positive*
%FSLAX46Y46*%
G04 Gerber Fmt 4.6, Leading zero omitted, Abs format (unit mm)*
G04 Created by KiCad (PCBNEW 5.0.1-33cea8e~66~ubuntu18.04.1) date Tue 27 Nov 2018 01:50:38 GMT*
%MOMM*%
%LPD*%
G01*
G04 APERTURE LIST*
%ADD10C,0.150000*%
%ADD11R,3.040000X1.040000*%
%ADD12R,3.840000X1.840000*%
%ADD13R,0.990000X1.040000*%
%ADD14R,1.040000X0.990000*%
%ADD15R,0.660000X0.660000*%
%ADD16R,1.440000X0.840000*%
%ADD17C,0.440000*%
%ADD18C,1.440000*%
%ADD19C,3.291200*%
%ADD20C,2.580000*%
%ADD21R,1.040000X0.840000*%
%ADD22C,1.040000*%
%ADD23C,0.640000*%
%ADD24C,6.300000*%
%ADD25R,0.680000X1.950000*%
%ADD26R,1.040000X1.440000*%
%ADD27R,1.940000X1.940000*%
%ADD28C,1.056000*%
%ADD29C,1.540000*%
%ADD30C,0.100000*%
%ADD31R,0.640000X1.040000*%
%ADD32R,0.240000X0.740000*%
%ADD33R,2.352000X1.582000*%
%ADD34R,0.340000X0.740000*%
%ADD35R,1.000000X1.000000*%
%ADD36R,0.520000X0.270000*%
%ADD37R,0.270000X0.520000*%
%ADD38R,0.340000X0.290000*%
%ADD39R,2.540000X1.740000*%
%ADD40R,1.190000X1.490000*%
%ADD41R,1.190000X1.840000*%
%ADD42R,0.740000X0.240000*%
%ADD43C,0.827000*%
%ADD44R,1.490000X3.930000*%
%ADD45R,1.140000X0.640000*%
%ADD46R,0.340000X0.890000*%
%ADD47R,0.290000X0.340000*%
%ADD48C,3.240000*%
%ADD49C,2.040000*%
G04 APERTURE END LIST*
D10*
X80887976Y-141122619D02*
X80935595Y-141075000D01*
X81030833Y-141027380D01*
X81268928Y-141027380D01*
X81364166Y-141075000D01*
X81411785Y-141122619D01*
X81459404Y-141217857D01*
X81459404Y-141313095D01*
X81411785Y-141455952D01*
X80840357Y-142027380D01*
X81459404Y-142027380D01*
X82078452Y-141027380D02*
X82173690Y-141027380D01*
X82268928Y-141075000D01*
X82316547Y-141122619D01*
X82364166Y-141217857D01*
X82411785Y-141408333D01*
X82411785Y-141646428D01*
X82364166Y-141836904D01*
X82316547Y-141932142D01*
X82268928Y-141979761D01*
X82173690Y-142027380D01*
X82078452Y-142027380D01*
X81983214Y-141979761D01*
X81935595Y-141932142D01*
X81887976Y-141836904D01*
X81840357Y-141646428D01*
X81840357Y-141408333D01*
X81887976Y-141217857D01*
X81935595Y-141122619D01*
X81983214Y-141075000D01*
X82078452Y-141027380D01*
X83364166Y-142027380D02*
X82792738Y-142027380D01*
X83078452Y-142027380D02*
X83078452Y-141027380D01*
X82983214Y-141170238D01*
X82887976Y-141265476D01*
X82792738Y-141313095D01*
X83935595Y-141455952D02*
X83840357Y-141408333D01*
X83792738Y-141360714D01*
X83745119Y-141265476D01*
X83745119Y-141217857D01*
X83792738Y-141122619D01*
X83840357Y-141075000D01*
X83935595Y-141027380D01*
X84126071Y-141027380D01*
X84221309Y-141075000D01*
X84268928Y-141122619D01*
X84316547Y-141217857D01*
X84316547Y-141265476D01*
X84268928Y-141360714D01*
X84221309Y-141408333D01*
X84126071Y-141455952D01*
X83935595Y-141455952D01*
X83840357Y-141503571D01*
X83792738Y-141551190D01*
X83745119Y-141646428D01*
X83745119Y-141836904D01*
X83792738Y-141932142D01*
X83840357Y-141979761D01*
X83935595Y-142027380D01*
X84126071Y-142027380D01*
X84221309Y-141979761D01*
X84268928Y-141932142D01*
X84316547Y-141836904D01*
X84316547Y-141646428D01*
X84268928Y-141551190D01*
X84221309Y-141503571D01*
X84126071Y-141455952D01*
X84745119Y-141646428D02*
X85507023Y-141646428D01*
X86507023Y-142027380D02*
X85935595Y-142027380D01*
X86221309Y-142027380D02*
X86221309Y-141027380D01*
X86126071Y-141170238D01*
X86030833Y-141265476D01*
X85935595Y-141313095D01*
X87459404Y-142027380D02*
X86887976Y-142027380D01*
X87173690Y-142027380D02*
X87173690Y-141027380D01*
X87078452Y-141170238D01*
X86983214Y-141265476D01*
X86887976Y-141313095D01*
X87887976Y-141646428D02*
X88649880Y-141646428D01*
X89078452Y-141122619D02*
X89126071Y-141075000D01*
X89221309Y-141027380D01*
X89459404Y-141027380D01*
X89554642Y-141075000D01*
X89602261Y-141122619D01*
X89649880Y-141217857D01*
X89649880Y-141313095D01*
X89602261Y-141455952D01*
X89030833Y-142027380D01*
X89649880Y-142027380D01*
X90554642Y-141027380D02*
X90078452Y-141027380D01*
X90030833Y-141503571D01*
X90078452Y-141455952D01*
X90173690Y-141408333D01*
X90411785Y-141408333D01*
X90507023Y-141455952D01*
X90554642Y-141503571D01*
X90602261Y-141598809D01*
X90602261Y-141836904D01*
X90554642Y-141932142D01*
X90507023Y-141979761D01*
X90411785Y-142027380D01*
X90173690Y-142027380D01*
X90078452Y-141979761D01*
X90030833Y-141932142D01*
X80935595Y-143677380D02*
X80935595Y-143010714D01*
X80935595Y-143201190D02*
X80983214Y-143105952D01*
X81030833Y-143058333D01*
X81126071Y-143010714D01*
X81221309Y-143010714D01*
X82078452Y-143677380D02*
X81507023Y-143677380D01*
X81792738Y-143677380D02*
X81792738Y-142677380D01*
X81697500Y-142820238D01*
X81602261Y-142915476D01*
X81507023Y-142963095D01*
X83221309Y-143391666D02*
X83697500Y-143391666D01*
X83126071Y-143677380D02*
X83459404Y-142677380D01*
X83792738Y-143677380D01*
X84649880Y-142725000D02*
X84554642Y-142677380D01*
X84411785Y-142677380D01*
X84268928Y-142725000D01*
X84173690Y-142820238D01*
X84126071Y-142915476D01*
X84078452Y-143105952D01*
X84078452Y-143248809D01*
X84126071Y-143439285D01*
X84173690Y-143534523D01*
X84268928Y-143629761D01*
X84411785Y-143677380D01*
X84507023Y-143677380D01*
X84649880Y-143629761D01*
X84697500Y-143582142D01*
X84697500Y-143248809D01*
X84507023Y-143248809D01*
X105757142Y-123842857D02*
X105357142Y-123271428D01*
X105071428Y-123842857D02*
X105071428Y-122642857D01*
X105528571Y-122642857D01*
X105642857Y-122700000D01*
X105700000Y-122757142D01*
X105757142Y-122871428D01*
X105757142Y-123042857D01*
X105700000Y-123157142D01*
X105642857Y-123214285D01*
X105528571Y-123271428D01*
X105071428Y-123271428D01*
X106271428Y-123214285D02*
X106671428Y-123214285D01*
X106842857Y-123842857D02*
X106271428Y-123842857D01*
X106271428Y-122642857D01*
X106842857Y-122642857D01*
X107300000Y-123785714D02*
X107471428Y-123842857D01*
X107757142Y-123842857D01*
X107871428Y-123785714D01*
X107928571Y-123728571D01*
X107985714Y-123614285D01*
X107985714Y-123500000D01*
X107928571Y-123385714D01*
X107871428Y-123328571D01*
X107757142Y-123271428D01*
X107528571Y-123214285D01*
X107414285Y-123157142D01*
X107357142Y-123100000D01*
X107300000Y-122985714D01*
X107300000Y-122871428D01*
X107357142Y-122757142D01*
X107414285Y-122700000D01*
X107528571Y-122642857D01*
X107814285Y-122642857D01*
X107985714Y-122700000D01*
X108500000Y-123214285D02*
X108900000Y-123214285D01*
X109071428Y-123842857D02*
X108500000Y-123842857D01*
X108500000Y-122642857D01*
X109071428Y-122642857D01*
X109414285Y-122642857D02*
X110100000Y-122642857D01*
X109757142Y-123842857D02*
X109757142Y-122642857D01*
X147583214Y-143342857D02*
X147583214Y-142142857D01*
X148040357Y-142142857D01*
X148154642Y-142200000D01*
X148211785Y-142257142D01*
X148268928Y-142371428D01*
X148268928Y-142542857D01*
X148211785Y-142657142D01*
X148154642Y-142714285D01*
X148040357Y-142771428D01*
X147583214Y-142771428D01*
X149297500Y-142542857D02*
X149297500Y-143342857D01*
X149011785Y-142085714D02*
X148726071Y-142942857D01*
X149468928Y-142942857D01*
X131383214Y-143342857D02*
X131383214Y-142142857D01*
X131840357Y-142142857D01*
X131954642Y-142200000D01*
X132011785Y-142257142D01*
X132068928Y-142371428D01*
X132068928Y-142542857D01*
X132011785Y-142657142D01*
X131954642Y-142714285D01*
X131840357Y-142771428D01*
X131383214Y-142771428D01*
X132468928Y-142142857D02*
X133211785Y-142142857D01*
X132811785Y-142600000D01*
X132983214Y-142600000D01*
X133097500Y-142657142D01*
X133154642Y-142714285D01*
X133211785Y-142828571D01*
X133211785Y-143114285D01*
X133154642Y-143228571D01*
X133097500Y-143285714D01*
X132983214Y-143342857D01*
X132640357Y-143342857D01*
X132526071Y-143285714D01*
X132468928Y-143228571D01*
X109783214Y-143342857D02*
X109783214Y-142142857D01*
X110240357Y-142142857D01*
X110354642Y-142200000D01*
X110411785Y-142257142D01*
X110468928Y-142371428D01*
X110468928Y-142542857D01*
X110411785Y-142657142D01*
X110354642Y-142714285D01*
X110240357Y-142771428D01*
X109783214Y-142771428D01*
X110926071Y-142257142D02*
X110983214Y-142200000D01*
X111097500Y-142142857D01*
X111383214Y-142142857D01*
X111497500Y-142200000D01*
X111554642Y-142257142D01*
X111611785Y-142371428D01*
X111611785Y-142485714D01*
X111554642Y-142657142D01*
X110868928Y-143342857D01*
X111611785Y-143342857D01*
X94583214Y-143342857D02*
X94583214Y-142142857D01*
X95040357Y-142142857D01*
X95154642Y-142200000D01*
X95211785Y-142257142D01*
X95268928Y-142371428D01*
X95268928Y-142542857D01*
X95211785Y-142657142D01*
X95154642Y-142714285D01*
X95040357Y-142771428D01*
X94583214Y-142771428D01*
X96411785Y-143342857D02*
X95726071Y-143342857D01*
X96068928Y-143342857D02*
X96068928Y-142142857D01*
X95954642Y-142314285D01*
X95840357Y-142428571D01*
X95726071Y-142485714D01*
X182985714Y-132333333D02*
X183652380Y-132333333D01*
X182604761Y-132571428D02*
X183319047Y-132809523D01*
X183319047Y-132190476D01*
X183080952Y-131666666D02*
X183033333Y-131761904D01*
X182985714Y-131809523D01*
X182890476Y-131857142D01*
X182842857Y-131857142D01*
X182747619Y-131809523D01*
X182700000Y-131761904D01*
X182652380Y-131666666D01*
X182652380Y-131476190D01*
X182700000Y-131380952D01*
X182747619Y-131333333D01*
X182842857Y-131285714D01*
X182890476Y-131285714D01*
X182985714Y-131333333D01*
X183033333Y-131380952D01*
X183080952Y-131476190D01*
X183080952Y-131666666D01*
X183128571Y-131761904D01*
X183176190Y-131809523D01*
X183271428Y-131857142D01*
X183461904Y-131857142D01*
X183557142Y-131809523D01*
X183604761Y-131761904D01*
X183652380Y-131666666D01*
X183652380Y-131476190D01*
X183604761Y-131380952D01*
X183557142Y-131333333D01*
X183461904Y-131285714D01*
X183271428Y-131285714D01*
X183176190Y-131333333D01*
X183128571Y-131380952D01*
X183080952Y-131476190D01*
X182652380Y-131000000D02*
X183652380Y-130666666D01*
X182652380Y-130333333D01*
X183271428Y-130000000D02*
X183271428Y-129238095D01*
X181535714Y-137083333D02*
X182202380Y-137083333D01*
X181154761Y-137321428D02*
X181869047Y-137559523D01*
X181869047Y-136940476D01*
X181630952Y-136416666D02*
X181583333Y-136511904D01*
X181535714Y-136559523D01*
X181440476Y-136607142D01*
X181392857Y-136607142D01*
X181297619Y-136559523D01*
X181250000Y-136511904D01*
X181202380Y-136416666D01*
X181202380Y-136226190D01*
X181250000Y-136130952D01*
X181297619Y-136083333D01*
X181392857Y-136035714D01*
X181440476Y-136035714D01*
X181535714Y-136083333D01*
X181583333Y-136130952D01*
X181630952Y-136226190D01*
X181630952Y-136416666D01*
X181678571Y-136511904D01*
X181726190Y-136559523D01*
X181821428Y-136607142D01*
X182011904Y-136607142D01*
X182107142Y-136559523D01*
X182154761Y-136511904D01*
X182202380Y-136416666D01*
X182202380Y-136226190D01*
X182154761Y-136130952D01*
X182107142Y-136083333D01*
X182011904Y-136035714D01*
X181821428Y-136035714D01*
X181726190Y-136083333D01*
X181678571Y-136130952D01*
X181630952Y-136226190D01*
X181202380Y-135750000D02*
X182202380Y-135416666D01*
X181202380Y-135083333D01*
X181821428Y-134750000D02*
X181821428Y-133988095D01*
X182202380Y-134369047D02*
X181440476Y-134369047D01*
X103697738Y-127852380D02*
X103126309Y-127852380D01*
X103412023Y-127852380D02*
X103412023Y-126852380D01*
X103316785Y-126995238D01*
X103221547Y-127090476D01*
X103126309Y-127138095D01*
X104031071Y-127185714D02*
X104269166Y-127852380D01*
X104507261Y-127185714D01*
X104840595Y-126947619D02*
X104888214Y-126900000D01*
X104983452Y-126852380D01*
X105221547Y-126852380D01*
X105316785Y-126900000D01*
X105364404Y-126947619D01*
X105412023Y-127042857D01*
X105412023Y-127138095D01*
X105364404Y-127280952D01*
X104792976Y-127852380D01*
X105412023Y-127852380D01*
X84859404Y-150000000D02*
X84764166Y-149952380D01*
X84621309Y-149952380D01*
X84478452Y-150000000D01*
X84383214Y-150095238D01*
X84335595Y-150190476D01*
X84287976Y-150380952D01*
X84287976Y-150523809D01*
X84335595Y-150714285D01*
X84383214Y-150809523D01*
X84478452Y-150904761D01*
X84621309Y-150952380D01*
X84716547Y-150952380D01*
X84859404Y-150904761D01*
X84907023Y-150857142D01*
X84907023Y-150523809D01*
X84716547Y-150523809D01*
X85335595Y-150952380D02*
X85335595Y-149952380D01*
X85907023Y-150952380D01*
X85907023Y-149952380D01*
X86383214Y-150952380D02*
X86383214Y-149952380D01*
X86621309Y-149952380D01*
X86764166Y-150000000D01*
X86859404Y-150095238D01*
X86907023Y-150190476D01*
X86954642Y-150380952D01*
X86954642Y-150523809D01*
X86907023Y-150714285D01*
X86859404Y-150809523D01*
X86764166Y-150904761D01*
X86621309Y-150952380D01*
X86383214Y-150952380D01*
X83787976Y-147047619D02*
X83835595Y-147000000D01*
X83930833Y-146952380D01*
X84168928Y-146952380D01*
X84264166Y-147000000D01*
X84311785Y-147047619D01*
X84359404Y-147142857D01*
X84359404Y-147238095D01*
X84311785Y-147380952D01*
X83740357Y-147952380D01*
X84359404Y-147952380D01*
X85216547Y-147285714D02*
X85216547Y-147952380D01*
X84978452Y-146904761D02*
X84740357Y-147619047D01*
X85359404Y-147619047D01*
X85597500Y-146952380D02*
X85930833Y-147952380D01*
X86264166Y-146952380D01*
X83740357Y-144952380D02*
X84359404Y-144952380D01*
X84026071Y-145333333D01*
X84168928Y-145333333D01*
X84264166Y-145380952D01*
X84311785Y-145428571D01*
X84359404Y-145523809D01*
X84359404Y-145761904D01*
X84311785Y-145857142D01*
X84264166Y-145904761D01*
X84168928Y-145952380D01*
X83883214Y-145952380D01*
X83787976Y-145904761D01*
X83740357Y-145857142D01*
X84692738Y-145285714D02*
X84930833Y-145952380D01*
X85168928Y-145285714D01*
X85454642Y-144952380D02*
X86073690Y-144952380D01*
X85740357Y-145333333D01*
X85883214Y-145333333D01*
X85978452Y-145380952D01*
X86026071Y-145428571D01*
X86073690Y-145523809D01*
X86073690Y-145761904D01*
X86026071Y-145857142D01*
X85978452Y-145904761D01*
X85883214Y-145952380D01*
X85597500Y-145952380D01*
X85502261Y-145904761D01*
X85454642Y-145857142D01*
X92068928Y-133342857D02*
X91668928Y-132771428D01*
X91383214Y-133342857D02*
X91383214Y-132142857D01*
X91840357Y-132142857D01*
X91954642Y-132200000D01*
X92011785Y-132257142D01*
X92068928Y-132371428D01*
X92068928Y-132542857D01*
X92011785Y-132657142D01*
X91954642Y-132714285D01*
X91840357Y-132771428D01*
X91383214Y-132771428D01*
X92468928Y-133342857D02*
X93097500Y-132542857D01*
X92468928Y-132542857D02*
X93097500Y-133342857D01*
X91211785Y-134092857D02*
X91897500Y-134092857D01*
X91554642Y-135292857D02*
X91554642Y-134092857D01*
X92183214Y-135292857D02*
X92811785Y-134492857D01*
X92183214Y-134492857D02*
X92811785Y-135292857D01*
X91611785Y-136042857D02*
X91726071Y-136042857D01*
X91840357Y-136100000D01*
X91897500Y-136157142D01*
X91954642Y-136271428D01*
X92011785Y-136500000D01*
X92011785Y-136785714D01*
X91954642Y-137014285D01*
X91897500Y-137128571D01*
X91840357Y-137185714D01*
X91726071Y-137242857D01*
X91611785Y-137242857D01*
X91497500Y-137185714D01*
X91440357Y-137128571D01*
X91383214Y-137014285D01*
X91326071Y-136785714D01*
X91326071Y-136500000D01*
X91383214Y-136271428D01*
X91440357Y-136157142D01*
X91497500Y-136100000D01*
X91611785Y-136042857D01*
X92354642Y-136042857D02*
X92754642Y-137242857D01*
X93154642Y-136042857D01*
X82883214Y-125842857D02*
X82883214Y-126814285D01*
X82940357Y-126928571D01*
X82997500Y-126985714D01*
X83111785Y-127042857D01*
X83340357Y-127042857D01*
X83454642Y-126985714D01*
X83511785Y-126928571D01*
X83568928Y-126814285D01*
X83568928Y-125842857D01*
X84083214Y-126700000D02*
X84654642Y-126700000D01*
X83968928Y-127042857D02*
X84368928Y-125842857D01*
X84768928Y-127042857D01*
X85854642Y-127042857D02*
X85454642Y-126471428D01*
X85168928Y-127042857D02*
X85168928Y-125842857D01*
X85626071Y-125842857D01*
X85740357Y-125900000D01*
X85797500Y-125957142D01*
X85854642Y-126071428D01*
X85854642Y-126242857D01*
X85797500Y-126357142D01*
X85740357Y-126414285D01*
X85626071Y-126471428D01*
X85168928Y-126471428D01*
X86197500Y-125842857D02*
X86883214Y-125842857D01*
X86540357Y-127042857D02*
X86540357Y-125842857D01*
X94383214Y-126542857D02*
X94383214Y-125342857D01*
X94840357Y-125342857D01*
X94954642Y-125400000D01*
X95011785Y-125457142D01*
X95068928Y-125571428D01*
X95068928Y-125742857D01*
X95011785Y-125857142D01*
X94954642Y-125914285D01*
X94840357Y-125971428D01*
X94383214Y-125971428D01*
X95811785Y-125342857D02*
X96040357Y-125342857D01*
X96154642Y-125400000D01*
X96268928Y-125514285D01*
X96326071Y-125742857D01*
X96326071Y-126142857D01*
X96268928Y-126371428D01*
X96154642Y-126485714D01*
X96040357Y-126542857D01*
X95811785Y-126542857D01*
X95697500Y-126485714D01*
X95583214Y-126371428D01*
X95526071Y-126142857D01*
X95526071Y-125742857D01*
X95583214Y-125514285D01*
X95697500Y-125400000D01*
X95811785Y-125342857D01*
X96726071Y-125342857D02*
X97011785Y-126542857D01*
X97240357Y-125685714D01*
X97468928Y-126542857D01*
X97754642Y-125342857D01*
X98211785Y-125914285D02*
X98611785Y-125914285D01*
X98783214Y-126542857D02*
X98211785Y-126542857D01*
X98211785Y-125342857D01*
X98783214Y-125342857D01*
X99983214Y-126542857D02*
X99583214Y-125971428D01*
X99297500Y-126542857D02*
X99297500Y-125342857D01*
X99754642Y-125342857D01*
X99868928Y-125400000D01*
X99926071Y-125457142D01*
X99983214Y-125571428D01*
X99983214Y-125742857D01*
X99926071Y-125857142D01*
X99868928Y-125914285D01*
X99754642Y-125971428D01*
X99297500Y-125971428D01*
X94954642Y-124542857D02*
X94383214Y-124542857D01*
X94383214Y-123342857D01*
X95354642Y-123914285D02*
X95754642Y-123914285D01*
X95926071Y-124542857D02*
X95354642Y-124542857D01*
X95354642Y-123342857D01*
X95926071Y-123342857D01*
X96440357Y-124542857D02*
X96440357Y-123342857D01*
X96726071Y-123342857D01*
X96897500Y-123400000D01*
X97011785Y-123514285D01*
X97068928Y-123628571D01*
X97126071Y-123857142D01*
X97126071Y-124028571D01*
X97068928Y-124257142D01*
X97011785Y-124371428D01*
X96897500Y-124485714D01*
X96726071Y-124542857D01*
X96440357Y-124542857D01*
X97583214Y-123457142D02*
X97640357Y-123400000D01*
X97754642Y-123342857D01*
X98040357Y-123342857D01*
X98154642Y-123400000D01*
X98211785Y-123457142D01*
X98268928Y-123571428D01*
X98268928Y-123685714D01*
X98211785Y-123857142D01*
X97526071Y-124542857D01*
X98268928Y-124542857D01*
X94954642Y-122542857D02*
X94383214Y-122542857D01*
X94383214Y-121342857D01*
X95354642Y-121914285D02*
X95754642Y-121914285D01*
X95926071Y-122542857D02*
X95354642Y-122542857D01*
X95354642Y-121342857D01*
X95926071Y-121342857D01*
X96440357Y-122542857D02*
X96440357Y-121342857D01*
X96726071Y-121342857D01*
X96897500Y-121400000D01*
X97011785Y-121514285D01*
X97068928Y-121628571D01*
X97126071Y-121857142D01*
X97126071Y-122028571D01*
X97068928Y-122257142D01*
X97011785Y-122371428D01*
X96897500Y-122485714D01*
X96726071Y-122542857D01*
X96440357Y-122542857D01*
X98268928Y-122542857D02*
X97583214Y-122542857D01*
X97926071Y-122542857D02*
X97926071Y-121342857D01*
X97811785Y-121514285D01*
X97697500Y-121628571D01*
X97583214Y-121685714D01*
X94383214Y-120542857D02*
X94383214Y-119342857D01*
X94668928Y-119342857D01*
X94840357Y-119400000D01*
X94954642Y-119514285D01*
X95011785Y-119628571D01*
X95068928Y-119857142D01*
X95068928Y-120028571D01*
X95011785Y-120257142D01*
X94954642Y-120371428D01*
X94840357Y-120485714D01*
X94668928Y-120542857D01*
X94383214Y-120542857D01*
X95811785Y-119342857D02*
X96040357Y-119342857D01*
X96154642Y-119400000D01*
X96268928Y-119514285D01*
X96326071Y-119742857D01*
X96326071Y-120142857D01*
X96268928Y-120371428D01*
X96154642Y-120485714D01*
X96040357Y-120542857D01*
X95811785Y-120542857D01*
X95697500Y-120485714D01*
X95583214Y-120371428D01*
X95526071Y-120142857D01*
X95526071Y-119742857D01*
X95583214Y-119514285D01*
X95697500Y-119400000D01*
X95811785Y-119342857D01*
X96840357Y-120542857D02*
X96840357Y-119342857D01*
X97526071Y-120542857D01*
X97526071Y-119342857D01*
X98097500Y-119914285D02*
X98497500Y-119914285D01*
X98668928Y-120542857D02*
X98097500Y-120542857D01*
X98097500Y-119342857D01*
X98668928Y-119342857D01*
X147690476Y-99547619D02*
X147595238Y-99547619D01*
X147500000Y-99500000D01*
X147452380Y-99452380D01*
X147404761Y-99357142D01*
X147357142Y-99166666D01*
X147357142Y-98928571D01*
X147404761Y-98738095D01*
X147452380Y-98642857D01*
X147500000Y-98595238D01*
X147595238Y-98547619D01*
X147690476Y-98547619D01*
X147785714Y-98595238D01*
X147833333Y-98642857D01*
X147880952Y-98738095D01*
X147928571Y-98928571D01*
X147928571Y-99166666D01*
X147880952Y-99357142D01*
X147833333Y-99452380D01*
X147785714Y-99500000D01*
X147690476Y-99547619D01*
X146928571Y-98928571D02*
X146166666Y-98928571D01*
X145785714Y-99547619D02*
X145166666Y-99547619D01*
X145500000Y-99166666D01*
X145357142Y-99166666D01*
X145261904Y-99119047D01*
X145214285Y-99071428D01*
X145166666Y-98976190D01*
X145166666Y-98738095D01*
X145214285Y-98642857D01*
X145261904Y-98595238D01*
X145357142Y-98547619D01*
X145642857Y-98547619D01*
X145738095Y-98595238D01*
X145785714Y-98642857D01*
X144880952Y-99547619D02*
X144547619Y-98547619D01*
X144214285Y-99547619D01*
X143976190Y-99547619D02*
X143357142Y-99547619D01*
X143690476Y-99166666D01*
X143547619Y-99166666D01*
X143452380Y-99119047D01*
X143404761Y-99071428D01*
X143357142Y-98976190D01*
X143357142Y-98738095D01*
X143404761Y-98642857D01*
X143452380Y-98595238D01*
X143547619Y-98547619D01*
X143833333Y-98547619D01*
X143928571Y-98595238D01*
X143976190Y-98642857D01*
X142166666Y-98547619D02*
X142166666Y-99547619D01*
X141690476Y-98547619D02*
X141690476Y-99547619D01*
X141119047Y-98547619D01*
X141119047Y-99547619D01*
X104252380Y-112040595D02*
X104252380Y-112612023D01*
X104252380Y-112326309D02*
X103252380Y-112326309D01*
X103395238Y-112421547D01*
X103490476Y-112516785D01*
X103538095Y-112612023D01*
X103252380Y-111754880D02*
X104252380Y-111421547D01*
X103252380Y-111088214D01*
X103347619Y-110802500D02*
X103300000Y-110754880D01*
X103252380Y-110659642D01*
X103252380Y-110421547D01*
X103300000Y-110326309D01*
X103347619Y-110278690D01*
X103442857Y-110231071D01*
X103538095Y-110231071D01*
X103680952Y-110278690D01*
X104252380Y-110850119D01*
X104252380Y-110231071D01*
X101752380Y-112659642D02*
X101752380Y-112040595D01*
X102133333Y-112373928D01*
X102133333Y-112231071D01*
X102180952Y-112135833D01*
X102228571Y-112088214D01*
X102323809Y-112040595D01*
X102561904Y-112040595D01*
X102657142Y-112088214D01*
X102704761Y-112135833D01*
X102752380Y-112231071D01*
X102752380Y-112516785D01*
X102704761Y-112612023D01*
X102657142Y-112659642D01*
X101752380Y-111754880D02*
X102752380Y-111421547D01*
X101752380Y-111088214D01*
X101752380Y-110850119D02*
X101752380Y-110231071D01*
X102133333Y-110564404D01*
X102133333Y-110421547D01*
X102180952Y-110326309D01*
X102228571Y-110278690D01*
X102323809Y-110231071D01*
X102561904Y-110231071D01*
X102657142Y-110278690D01*
X102704761Y-110326309D01*
X102752380Y-110421547D01*
X102752380Y-110707261D01*
X102704761Y-110802500D01*
X102657142Y-110850119D01*
X100252380Y-112707261D02*
X101252380Y-112373928D01*
X100252380Y-112040595D01*
X101252380Y-111707261D02*
X100252380Y-111707261D01*
X101252380Y-111231071D02*
X100252380Y-111231071D01*
X101252380Y-110659642D01*
X100252380Y-110659642D01*
X98500000Y-112040595D02*
X98452380Y-112135833D01*
X98452380Y-112278690D01*
X98500000Y-112421547D01*
X98595238Y-112516785D01*
X98690476Y-112564404D01*
X98880952Y-112612023D01*
X99023809Y-112612023D01*
X99214285Y-112564404D01*
X99309523Y-112516785D01*
X99404761Y-112421547D01*
X99452380Y-112278690D01*
X99452380Y-112183452D01*
X99404761Y-112040595D01*
X99357142Y-111992976D01*
X99023809Y-111992976D01*
X99023809Y-112183452D01*
X99452380Y-111564404D02*
X98452380Y-111564404D01*
X99452380Y-110992976D01*
X98452380Y-110992976D01*
X99452380Y-110516785D02*
X98452380Y-110516785D01*
X98452380Y-110278690D01*
X98500000Y-110135833D01*
X98595238Y-110040595D01*
X98690476Y-109992976D01*
X98880952Y-109945357D01*
X99023809Y-109945357D01*
X99214285Y-109992976D01*
X99309523Y-110040595D01*
X99404761Y-110135833D01*
X99452380Y-110278690D01*
X99452380Y-110516785D01*
X109352380Y-96961904D02*
X108352380Y-96961904D01*
X108352380Y-96723809D01*
X108400000Y-96580952D01*
X108495238Y-96485714D01*
X108590476Y-96438095D01*
X108780952Y-96390476D01*
X108923809Y-96390476D01*
X109114285Y-96438095D01*
X109209523Y-96485714D01*
X109304761Y-96580952D01*
X109352380Y-96723809D01*
X109352380Y-96961904D01*
X105885714Y-96509523D02*
X106552380Y-96509523D01*
X105504761Y-96747619D02*
X106219047Y-96985714D01*
X106219047Y-96366666D01*
X102752380Y-96933333D02*
X102752380Y-96314285D01*
X103133333Y-96647619D01*
X103133333Y-96504761D01*
X103180952Y-96409523D01*
X103228571Y-96361904D01*
X103323809Y-96314285D01*
X103561904Y-96314285D01*
X103657142Y-96361904D01*
X103704761Y-96409523D01*
X103752380Y-96504761D01*
X103752380Y-96790476D01*
X103704761Y-96885714D01*
X103657142Y-96933333D01*
X127952380Y-110447619D02*
X128285714Y-110923809D01*
X128523809Y-110447619D02*
X128523809Y-111447619D01*
X128142857Y-111447619D01*
X128047619Y-111400000D01*
X128000000Y-111352380D01*
X127952380Y-111257142D01*
X127952380Y-111114285D01*
X128000000Y-111019047D01*
X128047619Y-110971428D01*
X128142857Y-110923809D01*
X128523809Y-110923809D01*
X127523809Y-110971428D02*
X127190476Y-110971428D01*
X127047619Y-110447619D02*
X127523809Y-110447619D01*
X127523809Y-111447619D01*
X127047619Y-111447619D01*
X126666666Y-110495238D02*
X126523809Y-110447619D01*
X126285714Y-110447619D01*
X126190476Y-110495238D01*
X126142857Y-110542857D01*
X126095238Y-110638095D01*
X126095238Y-110733333D01*
X126142857Y-110828571D01*
X126190476Y-110876190D01*
X126285714Y-110923809D01*
X126476190Y-110971428D01*
X126571428Y-111019047D01*
X126619047Y-111066666D01*
X126666666Y-111161904D01*
X126666666Y-111257142D01*
X126619047Y-111352380D01*
X126571428Y-111400000D01*
X126476190Y-111447619D01*
X126238095Y-111447619D01*
X126095238Y-111400000D01*
X125666666Y-110971428D02*
X125333333Y-110971428D01*
X125190476Y-110447619D02*
X125666666Y-110447619D01*
X125666666Y-111447619D01*
X125190476Y-111447619D01*
X124904761Y-111447619D02*
X124333333Y-111447619D01*
X124619047Y-110447619D02*
X124619047Y-111447619D01*
X137233333Y-100695238D02*
X137090476Y-100647619D01*
X136852380Y-100647619D01*
X136757142Y-100695238D01*
X136709523Y-100742857D01*
X136661904Y-100838095D01*
X136661904Y-100933333D01*
X136709523Y-101028571D01*
X136757142Y-101076190D01*
X136852380Y-101123809D01*
X137042857Y-101171428D01*
X137138095Y-101219047D01*
X137185714Y-101266666D01*
X137233333Y-101361904D01*
X137233333Y-101457142D01*
X137185714Y-101552380D01*
X137138095Y-101600000D01*
X137042857Y-101647619D01*
X136804761Y-101647619D01*
X136661904Y-101600000D01*
X136328571Y-101647619D02*
X136090476Y-100647619D01*
X135900000Y-101361904D01*
X135709523Y-100647619D01*
X135471428Y-101647619D01*
X135138095Y-101552380D02*
X135090476Y-101600000D01*
X134995238Y-101647619D01*
X134757142Y-101647619D01*
X134661904Y-101600000D01*
X134614285Y-101552380D01*
X134566666Y-101457142D01*
X134566666Y-101361904D01*
X134614285Y-101219047D01*
X135185714Y-100647619D01*
X134566666Y-100647619D01*
X137233333Y-110495238D02*
X137090476Y-110447619D01*
X136852380Y-110447619D01*
X136757142Y-110495238D01*
X136709523Y-110542857D01*
X136661904Y-110638095D01*
X136661904Y-110733333D01*
X136709523Y-110828571D01*
X136757142Y-110876190D01*
X136852380Y-110923809D01*
X137042857Y-110971428D01*
X137138095Y-111019047D01*
X137185714Y-111066666D01*
X137233333Y-111161904D01*
X137233333Y-111257142D01*
X137185714Y-111352380D01*
X137138095Y-111400000D01*
X137042857Y-111447619D01*
X136804761Y-111447619D01*
X136661904Y-111400000D01*
X136328571Y-111447619D02*
X136090476Y-110447619D01*
X135900000Y-111161904D01*
X135709523Y-110447619D01*
X135471428Y-111447619D01*
X134566666Y-110447619D02*
X135138095Y-110447619D01*
X134852380Y-110447619D02*
X134852380Y-111447619D01*
X134947619Y-111304761D01*
X135042857Y-111209523D01*
X135138095Y-111161904D01*
X144607142Y-113347619D02*
X144607142Y-114014285D01*
X144607142Y-113823809D02*
X144559523Y-113919047D01*
X144511904Y-113966666D01*
X144416666Y-114014285D01*
X144321428Y-114014285D01*
X143464285Y-113347619D02*
X144035714Y-113347619D01*
X143750000Y-113347619D02*
X143750000Y-114347619D01*
X143845238Y-114204761D01*
X143940476Y-114109523D01*
X144035714Y-114061904D01*
X142321428Y-113633333D02*
X141845238Y-113633333D01*
X142416666Y-113347619D02*
X142083333Y-114347619D01*
X141750000Y-113347619D01*
X140892857Y-114300000D02*
X140988095Y-114347619D01*
X141130952Y-114347619D01*
X141273809Y-114300000D01*
X141369047Y-114204761D01*
X141416666Y-114109523D01*
X141464285Y-113919047D01*
X141464285Y-113776190D01*
X141416666Y-113585714D01*
X141369047Y-113490476D01*
X141273809Y-113395238D01*
X141130952Y-113347619D01*
X141035714Y-113347619D01*
X140892857Y-113395238D01*
X140845238Y-113442857D01*
X140845238Y-113776190D01*
X141035714Y-113776190D01*
X149457142Y-115552380D02*
X149409523Y-115600000D01*
X149314285Y-115647619D01*
X149076190Y-115647619D01*
X148980952Y-115600000D01*
X148933333Y-115552380D01*
X148885714Y-115457142D01*
X148885714Y-115361904D01*
X148933333Y-115219047D01*
X149504761Y-114647619D01*
X148885714Y-114647619D01*
X148266666Y-115647619D02*
X148171428Y-115647619D01*
X148076190Y-115600000D01*
X148028571Y-115552380D01*
X147980952Y-115457142D01*
X147933333Y-115266666D01*
X147933333Y-115028571D01*
X147980952Y-114838095D01*
X148028571Y-114742857D01*
X148076190Y-114695238D01*
X148171428Y-114647619D01*
X148266666Y-114647619D01*
X148361904Y-114695238D01*
X148409523Y-114742857D01*
X148457142Y-114838095D01*
X148504761Y-115028571D01*
X148504761Y-115266666D01*
X148457142Y-115457142D01*
X148409523Y-115552380D01*
X148361904Y-115600000D01*
X148266666Y-115647619D01*
X146980952Y-114647619D02*
X147552380Y-114647619D01*
X147266666Y-114647619D02*
X147266666Y-115647619D01*
X147361904Y-115504761D01*
X147457142Y-115409523D01*
X147552380Y-115361904D01*
X146409523Y-115219047D02*
X146504761Y-115266666D01*
X146552380Y-115314285D01*
X146600000Y-115409523D01*
X146600000Y-115457142D01*
X146552380Y-115552380D01*
X146504761Y-115600000D01*
X146409523Y-115647619D01*
X146219047Y-115647619D01*
X146123809Y-115600000D01*
X146076190Y-115552380D01*
X146028571Y-115457142D01*
X146028571Y-115409523D01*
X146076190Y-115314285D01*
X146123809Y-115266666D01*
X146219047Y-115219047D01*
X146409523Y-115219047D01*
X146504761Y-115171428D01*
X146552380Y-115123809D01*
X146600000Y-115028571D01*
X146600000Y-114838095D01*
X146552380Y-114742857D01*
X146504761Y-114695238D01*
X146409523Y-114647619D01*
X146219047Y-114647619D01*
X146123809Y-114695238D01*
X146076190Y-114742857D01*
X146028571Y-114838095D01*
X146028571Y-115028571D01*
X146076190Y-115123809D01*
X146123809Y-115171428D01*
X146219047Y-115219047D01*
X145600000Y-115028571D02*
X144838095Y-115028571D01*
X143838095Y-114647619D02*
X144409523Y-114647619D01*
X144123809Y-114647619D02*
X144123809Y-115647619D01*
X144219047Y-115504761D01*
X144314285Y-115409523D01*
X144409523Y-115361904D01*
X142885714Y-114647619D02*
X143457142Y-114647619D01*
X143171428Y-114647619D02*
X143171428Y-115647619D01*
X143266666Y-115504761D01*
X143361904Y-115409523D01*
X143457142Y-115361904D01*
X142457142Y-115028571D02*
X141695238Y-115028571D01*
X141266666Y-115552380D02*
X141219047Y-115600000D01*
X141123809Y-115647619D01*
X140885714Y-115647619D01*
X140790476Y-115600000D01*
X140742857Y-115552380D01*
X140695238Y-115457142D01*
X140695238Y-115361904D01*
X140742857Y-115219047D01*
X141314285Y-114647619D01*
X140695238Y-114647619D01*
X140361904Y-115647619D02*
X139742857Y-115647619D01*
X140076190Y-115266666D01*
X139933333Y-115266666D01*
X139838095Y-115219047D01*
X139790476Y-115171428D01*
X139742857Y-115076190D01*
X139742857Y-114838095D01*
X139790476Y-114742857D01*
X139838095Y-114695238D01*
X139933333Y-114647619D01*
X140219047Y-114647619D01*
X140314285Y-114695238D01*
X140361904Y-114742857D01*
G04 #@! TO.C,J202*
X88950000Y-139750000D02*
X88950000Y-137950000D01*
X88950000Y-139750000D02*
X86800000Y-139750000D01*
X88950000Y-127750000D02*
X88950000Y-129550000D01*
X88950000Y-127750000D02*
X86800000Y-127750000D01*
X80050000Y-139750000D02*
X82700000Y-139750000D01*
X80050000Y-127750000D02*
X82700000Y-127750000D01*
X80050000Y-130750000D02*
X80050000Y-127750000D01*
X81450000Y-130750000D02*
X80050000Y-130750000D01*
X81450000Y-136750000D02*
X81450000Y-130750000D01*
X80050000Y-136750000D02*
X81450000Y-136750000D01*
X80050000Y-139750000D02*
X80050000Y-136750000D01*
G04 #@! TO.C,C224*
X136175000Y-125625000D02*
X136175000Y-124975000D01*
X136425000Y-125625000D02*
X136175000Y-125625000D01*
X136425000Y-124975000D02*
X136425000Y-125625000D01*
X136175000Y-124975000D02*
X136425000Y-124975000D01*
G04 #@! TO.C,C223*
X111775000Y-132375000D02*
X112425000Y-132375000D01*
X111775000Y-132625000D02*
X111775000Y-132375000D01*
X112425000Y-132625000D02*
X111775000Y-132625000D01*
X112425000Y-132375000D02*
X112425000Y-132625000D01*
G04 #@! TO.C,D303*
X185350000Y-147930000D02*
X185950000Y-147330000D01*
X185350000Y-149870000D02*
X185350000Y-147930000D01*
X188650000Y-149870000D02*
X185350000Y-149870000D01*
X188650000Y-147330000D02*
X188650000Y-149870000D01*
X185950000Y-147330000D02*
X188650000Y-147330000D01*
G04 #@! TO.C,D302*
X185350000Y-142530000D02*
X185950000Y-141930000D01*
X185350000Y-144470000D02*
X185350000Y-142530000D01*
X188650000Y-144470000D02*
X185350000Y-144470000D01*
X188650000Y-141930000D02*
X188650000Y-144470000D01*
X185950000Y-141930000D02*
X188650000Y-141930000D01*
G04 #@! TO.C,IC202*
X117100000Y-130900000D02*
G75*
G03X117100000Y-130900000I-100000J0D01*
G01*
X118000000Y-131050000D02*
X119100000Y-131050000D01*
X116850000Y-129900000D02*
X118000000Y-131050000D01*
X116850000Y-128800000D02*
X116850000Y-129900000D01*
X126150000Y-131050000D02*
X123900000Y-131050000D01*
X126150000Y-128800000D02*
X126150000Y-131050000D01*
X116850000Y-121750000D02*
X119100000Y-121750000D01*
X116850000Y-124000000D02*
X116850000Y-121750000D01*
X126150000Y-121750000D02*
X123900000Y-121750000D01*
X126150000Y-124000000D02*
X126150000Y-121750000D01*
X116850000Y-121750000D02*
X119100000Y-121750000D01*
X116850000Y-124000000D02*
X116850000Y-121750000D01*
X116850000Y-121750000D02*
X119100000Y-121750000D01*
X116850000Y-124000000D02*
X116850000Y-121750000D01*
G04 #@! TO.C,J302*
X181200000Y-144400000D02*
X165000000Y-144400000D01*
X181200000Y-149700000D02*
X181200000Y-144400000D01*
X181200000Y-159800000D02*
X181200000Y-152500000D01*
X165000000Y-159800000D02*
X181200000Y-159800000D01*
X165000000Y-152500000D02*
X165000000Y-159800000D01*
X165000000Y-144400000D02*
X165000000Y-149700000D01*
G04 #@! TO.C,Y301*
X180200000Y-121850000D02*
G75*
G03X179600000Y-121850000I-300000J0D01*
G01*
X179600000Y-124350000D02*
X181600000Y-124350000D01*
X180200000Y-121850000D02*
X181600000Y-121850000D01*
G04 #@! TO.C,Y201*
X114500000Y-121650000D02*
G75*
G03X113900000Y-121650000I-300000J0D01*
G01*
X113900000Y-124150000D02*
X115900000Y-124150000D01*
X114500000Y-121650000D02*
X115900000Y-121650000D01*
G04 #@! TO.C,D501*
X91525000Y-125675000D02*
X91525000Y-126325000D01*
X91275000Y-126000000D02*
X91525000Y-126325000D01*
X91275000Y-126000000D02*
X91525000Y-125675000D01*
G04 #@! TO.C,C505*
X88725000Y-148025000D02*
X88075000Y-148025000D01*
X88725000Y-147775000D02*
X88725000Y-148025000D01*
X88075000Y-147775000D02*
X88725000Y-147775000D01*
X88075000Y-148025000D02*
X88075000Y-147775000D01*
G04 #@! TO.C,J401*
X128000000Y-144400000D02*
X115000000Y-144400000D01*
X112250000Y-144400000D02*
X89778000Y-144400000D01*
X153250000Y-159800000D02*
X153250000Y-152500000D01*
X153250000Y-144400000D02*
X153250000Y-149750000D01*
X153250000Y-144400000D02*
X130750000Y-144400000D01*
X89778000Y-159800000D02*
X153250000Y-159800000D01*
X89778000Y-152500000D02*
X89778000Y-159800000D01*
X89778000Y-144400000D02*
X89778000Y-149700000D01*
G04 #@! TO.C,T301*
X176845000Y-134570000D02*
X177445000Y-135170000D01*
X168555000Y-134570000D02*
X176845000Y-134570000D01*
X168555000Y-140430000D02*
X168555000Y-134570000D01*
X177445000Y-140430000D02*
X168555000Y-140430000D01*
X177445000Y-135170000D02*
X177445000Y-140430000D01*
G04 #@! TO.C,SW201*
X104700000Y-122325000D02*
X104700000Y-118675000D01*
X110300000Y-122325000D02*
X104700000Y-122325000D01*
X110300000Y-118675000D02*
X110300000Y-122325000D01*
X104700000Y-118675000D02*
X110300000Y-118675000D01*
G04 #@! TO.C,R315*
X158125000Y-146175000D02*
X158125000Y-146825000D01*
X157875000Y-146175000D02*
X158125000Y-146175000D01*
X157875000Y-146825000D02*
X157875000Y-146175000D01*
X158125000Y-146825000D02*
X157875000Y-146825000D01*
G04 #@! TO.C,R314*
X158125000Y-148275000D02*
X158125000Y-148925000D01*
X157875000Y-148275000D02*
X158125000Y-148275000D01*
X157875000Y-148925000D02*
X157875000Y-148275000D01*
X158125000Y-148925000D02*
X157875000Y-148925000D01*
G04 #@! TO.C,R313*
X158125000Y-157475000D02*
X158125000Y-158125000D01*
X157875000Y-157475000D02*
X158125000Y-157475000D01*
X157875000Y-158125000D02*
X157875000Y-157475000D01*
X158125000Y-158125000D02*
X157875000Y-158125000D01*
G04 #@! TO.C,R312*
X158125000Y-155375000D02*
X158125000Y-156025000D01*
X157875000Y-155375000D02*
X158125000Y-155375000D01*
X157875000Y-156025000D02*
X157875000Y-155375000D01*
X158125000Y-156025000D02*
X157875000Y-156025000D01*
G04 #@! TO.C,L302*
X184175000Y-135275000D02*
X184825000Y-135275000D01*
X184175000Y-135525000D02*
X184175000Y-135275000D01*
X184825000Y-135525000D02*
X184175000Y-135525000D01*
X184825000Y-135275000D02*
X184825000Y-135525000D01*
G04 #@! TO.C,L301*
X169925000Y-120125000D02*
X169275000Y-120125000D01*
X169925000Y-119875000D02*
X169925000Y-120125000D01*
X169275000Y-119875000D02*
X169925000Y-119875000D01*
X169275000Y-120125000D02*
X169275000Y-119875000D01*
G04 #@! TO.C,J501*
X81230000Y-151770000D02*
X81230000Y-149230000D01*
X83770000Y-151770000D02*
X81230000Y-151770000D01*
X83770000Y-149230000D02*
X83770000Y-151770000D01*
X81230000Y-149230000D02*
X83770000Y-149230000D01*
G04 #@! TO.C,J201*
X140125000Y-123079500D02*
X136950000Y-123079500D01*
X140125000Y-119650500D02*
X140125000Y-123079500D01*
X133775000Y-119650500D02*
X140125000Y-119650500D01*
X133775000Y-123079500D02*
X133775000Y-119650500D01*
X136950000Y-123079500D02*
X133775000Y-123079500D01*
X134410000Y-123905000D02*
X134410000Y-123079500D01*
X139490000Y-123905000D02*
X134410000Y-123905000D01*
X139490000Y-123079500D02*
X139490000Y-123905000D01*
X138029500Y-118825000D02*
X138029500Y-119650500D01*
X139490000Y-118825000D02*
X138029500Y-118825000D01*
X139490000Y-119650500D02*
X139490000Y-118825000D01*
X135870500Y-118825000D02*
X135870500Y-119650500D01*
X134410000Y-118825000D02*
X135870500Y-118825000D01*
X134410000Y-119650500D02*
X134410000Y-118825000D01*
G04 #@! TO.C,IC503*
X144600000Y-137450000D02*
X144600000Y-128550000D01*
X165400000Y-137450000D02*
X165400000Y-128550000D01*
X165800000Y-137450000D02*
X144200000Y-137450000D01*
X165800000Y-128550000D02*
X165800000Y-137450000D01*
X144200000Y-128550000D02*
X165800000Y-128550000D01*
X144200000Y-137450000D02*
X144200000Y-128550000D01*
G04 #@! TO.C,IC502*
X107050000Y-126250000D02*
X106750000Y-125950000D01*
X108650000Y-126250000D02*
X107050000Y-126250000D01*
X108650000Y-125950000D02*
X108650000Y-126250000D01*
X106750000Y-125950000D02*
X108650000Y-125950000D01*
X106750000Y-125950000D02*
X106750000Y-125950000D01*
G04 #@! TO.C,IC501*
X144600000Y-127450000D02*
X144600000Y-118550000D01*
X165400000Y-127450000D02*
X165400000Y-118550000D01*
X165800000Y-127450000D02*
X144200000Y-127450000D01*
X165800000Y-118550000D02*
X165800000Y-127450000D01*
X144200000Y-118550000D02*
X165800000Y-118550000D01*
X144200000Y-127450000D02*
X144200000Y-118550000D01*
G04 #@! TO.C,IC408*
X144300000Y-142675000D02*
G75*
G03X144300000Y-143275000I0J-300000D01*
G01*
X146900000Y-143275000D02*
X146900000Y-141925000D01*
X144300000Y-142675000D02*
X144300000Y-141925000D01*
G04 #@! TO.C,IC406*
X124900000Y-142675000D02*
G75*
G03X124900000Y-143275000I0J-300000D01*
G01*
X127500000Y-143275000D02*
X127500000Y-141925000D01*
X124900000Y-142675000D02*
X124900000Y-141925000D01*
G04 #@! TO.C,IC404*
X115500000Y-142675000D02*
G75*
G03X115500000Y-143275000I0J-300000D01*
G01*
X118100000Y-143275000D02*
X118100000Y-141925000D01*
X115500000Y-142675000D02*
X115500000Y-141925000D01*
G04 #@! TO.C,IC402*
X97100000Y-142675000D02*
G75*
G03X97100000Y-143275000I0J-300000D01*
G01*
X99700000Y-143275000D02*
X99700000Y-141925000D01*
X97100000Y-142675000D02*
X97100000Y-141925000D01*
G04 #@! TO.C,IC303*
X185500000Y-131900000D02*
G75*
G03X185500000Y-132500000I0J-300000D01*
G01*
X188500000Y-132500000D02*
X188500000Y-129500000D01*
X185500000Y-131900000D02*
X185500000Y-129500000D01*
G04 #@! TO.C,IC301*
X176000000Y-129500000D02*
X175650000Y-129500000D01*
X176000000Y-129150000D02*
X176000000Y-129500000D01*
X176000000Y-125500000D02*
X175650000Y-125500000D01*
X176000000Y-125850000D02*
X176000000Y-125500000D01*
X172000000Y-125500000D02*
X172350000Y-125500000D01*
X172000000Y-125850000D02*
X172000000Y-125500000D01*
X172350000Y-129500000D02*
X172000000Y-129150000D01*
G04 #@! TO.C,IC201*
X128125000Y-121950000D02*
X128725000Y-121350000D01*
X128125000Y-122850000D02*
X128125000Y-121950000D01*
X129275000Y-122850000D02*
X128125000Y-122850000D01*
X129275000Y-121350000D02*
X129275000Y-122850000D01*
X128725000Y-121350000D02*
X129275000Y-121350000D01*
G04 #@! TO.C,D301*
X187550000Y-137315000D02*
X187550000Y-140085000D01*
X186450000Y-138700000D02*
X187550000Y-140085000D01*
X186450000Y-138700000D02*
X187550000Y-137315000D01*
G04 #@! TO.C,D203*
X91525000Y-119675000D02*
X91525000Y-120325000D01*
X91275000Y-120000000D02*
X91525000Y-120325000D01*
X91275000Y-120000000D02*
X91525000Y-119675000D01*
G04 #@! TO.C,D202*
X91525000Y-123675000D02*
X91525000Y-124325000D01*
X91275000Y-124000000D02*
X91525000Y-124325000D01*
X91275000Y-124000000D02*
X91525000Y-123675000D01*
G04 #@! TO.C,D201*
X91525000Y-121675000D02*
X91525000Y-122325000D01*
X91275000Y-122000000D02*
X91525000Y-122325000D01*
X91275000Y-122000000D02*
X91525000Y-121675000D01*
G04 #@! TO.C,C502*
X143225000Y-136525000D02*
X142575000Y-136525000D01*
X143225000Y-136275000D02*
X143225000Y-136525000D01*
X142575000Y-136275000D02*
X143225000Y-136275000D01*
X142575000Y-136525000D02*
X142575000Y-136275000D01*
G04 #@! TO.C,C501*
X143325000Y-121125000D02*
X142675000Y-121125000D01*
X143325000Y-120875000D02*
X143325000Y-121125000D01*
X142675000Y-120875000D02*
X143325000Y-120875000D01*
X142675000Y-121125000D02*
X142675000Y-120875000D01*
G04 #@! TO.C,C313*
X186875000Y-136450000D02*
X186875000Y-135350000D01*
X187125000Y-136450000D02*
X186875000Y-136450000D01*
X187125000Y-135350000D02*
X187125000Y-136450000D01*
X186875000Y-135350000D02*
X187125000Y-135350000D01*
G04 #@! TO.C,C312*
X161425000Y-145950000D02*
X161425000Y-147050000D01*
X161175000Y-145950000D02*
X161425000Y-145950000D01*
X161175000Y-147050000D02*
X161175000Y-145950000D01*
X161425000Y-147050000D02*
X161175000Y-147050000D01*
G04 #@! TO.C,C311*
X161425000Y-148050000D02*
X161425000Y-149150000D01*
X161175000Y-148050000D02*
X161425000Y-148050000D01*
X161175000Y-149150000D02*
X161175000Y-148050000D01*
X161425000Y-149150000D02*
X161175000Y-149150000D01*
G04 #@! TO.C,C310*
X161425000Y-157250000D02*
X161425000Y-158350000D01*
X161175000Y-157250000D02*
X161425000Y-157250000D01*
X161175000Y-158350000D02*
X161175000Y-157250000D01*
X161425000Y-158350000D02*
X161175000Y-158350000D01*
G04 #@! TO.C,C309*
X161425000Y-155150000D02*
X161425000Y-156250000D01*
X161175000Y-155150000D02*
X161425000Y-155150000D01*
X161175000Y-156250000D02*
X161175000Y-155150000D01*
X161425000Y-156250000D02*
X161175000Y-156250000D01*
G04 #@! TO.C,C308*
X180725000Y-133625000D02*
X180075000Y-133625000D01*
X180725000Y-133375000D02*
X180725000Y-133625000D01*
X180075000Y-133375000D02*
X180725000Y-133375000D01*
X180075000Y-133625000D02*
X180075000Y-133375000D01*
G04 #@! TO.C,C307*
X167525000Y-130425000D02*
X166875000Y-130425000D01*
X167525000Y-130175000D02*
X167525000Y-130425000D01*
X166875000Y-130175000D02*
X167525000Y-130175000D01*
X166875000Y-130425000D02*
X166875000Y-130175000D01*
G04 #@! TO.C,C305*
X168375000Y-130175000D02*
X169025000Y-130175000D01*
X168375000Y-130425000D02*
X168375000Y-130175000D01*
X169025000Y-130425000D02*
X168375000Y-130425000D01*
X169025000Y-130175000D02*
X169025000Y-130425000D01*
G04 #@! TO.C,C303*
X178225000Y-118875000D02*
X178225000Y-120325000D01*
X176775000Y-118875000D02*
X178225000Y-118875000D01*
X176775000Y-120325000D02*
X176775000Y-118875000D01*
X178225000Y-120325000D02*
X176775000Y-120325000D01*
G04 #@! TO.C,C301*
X171975000Y-120325000D02*
X171975000Y-118875000D01*
X173425000Y-120325000D02*
X171975000Y-120325000D01*
X173425000Y-118875000D02*
X173425000Y-120325000D01*
X171975000Y-118875000D02*
X173425000Y-118875000D01*
G04 #@! TO.C,C221*
X113825000Y-124875000D02*
X113825000Y-125525000D01*
X113575000Y-124875000D02*
X113825000Y-124875000D01*
X113575000Y-125525000D02*
X113575000Y-124875000D01*
X113825000Y-125525000D02*
X113575000Y-125525000D01*
G04 #@! TO.C,C218*
X130575000Y-124975000D02*
X130575000Y-125625000D01*
X130325000Y-124975000D02*
X130575000Y-124975000D01*
X130325000Y-125625000D02*
X130325000Y-124975000D01*
X130575000Y-125625000D02*
X130325000Y-125625000D01*
G04 #@! TO.C,C15*
X101825000Y-102025000D02*
X102475000Y-102025000D01*
X101825000Y-102275000D02*
X101825000Y-102025000D01*
X102475000Y-102275000D02*
X101825000Y-102275000D01*
X102475000Y-102025000D02*
X102475000Y-102275000D01*
G04 #@! TO.C,IC1*
X95100000Y-114100000D02*
X95100000Y-97900000D01*
X89800000Y-114100000D02*
X95100000Y-114100000D01*
X79700000Y-114100000D02*
X87000000Y-114100000D01*
X79700000Y-97900000D02*
X79700000Y-114100000D01*
X87000000Y-97900000D02*
X79700000Y-97900000D01*
X95100000Y-97900000D02*
X89800000Y-97900000D01*
G04 #@! TO.C,Y1*
X107050000Y-101450000D02*
G75*
G03X106450000Y-101450000I-300000J0D01*
G01*
X106450000Y-103950000D02*
X108450000Y-103950000D01*
X107050000Y-101450000D02*
X108450000Y-101450000D01*
G04 #@! TO.C,IC7*
X96925000Y-109250000D02*
G75*
G03X96325000Y-109250000I-300000J0D01*
G01*
X96325000Y-111850000D02*
X97675000Y-111850000D01*
X96925000Y-109250000D02*
X97675000Y-109250000D01*
G04 #@! TO.C,J3*
X99770000Y-115720000D02*
X97230000Y-115720000D01*
X99770000Y-113180000D02*
X99770000Y-115720000D01*
X97230000Y-113180000D02*
X99770000Y-113180000D01*
X97230000Y-115720000D02*
X97230000Y-113180000D01*
G04 #@! TO.C,SW3*
X139000000Y-111775000D02*
X139000000Y-115425000D01*
X133400000Y-111775000D02*
X139000000Y-111775000D01*
X133400000Y-115425000D02*
X133400000Y-111775000D01*
X139000000Y-115425000D02*
X133400000Y-115425000D01*
G04 #@! TO.C,SW2*
X139000000Y-96575000D02*
X139000000Y-100225000D01*
X133400000Y-96575000D02*
X139000000Y-96575000D01*
X133400000Y-100225000D02*
X133400000Y-96575000D01*
X139000000Y-100225000D02*
X133400000Y-100225000D01*
G04 #@! TO.C,D2*
X106425000Y-98825000D02*
X105775000Y-98825000D01*
X106100000Y-98575000D02*
X105775000Y-98825000D01*
X106100000Y-98575000D02*
X106425000Y-98825000D01*
G04 #@! TO.C,L1*
X99050000Y-100275000D02*
X99050000Y-96525000D01*
X100150000Y-100275000D02*
X99050000Y-100275000D01*
X100150000Y-96525000D02*
X100150000Y-100275000D01*
X99050000Y-96525000D02*
X100150000Y-96525000D01*
G04 #@! TO.C,SW1*
X129300000Y-111775000D02*
X129300000Y-115425000D01*
X123700000Y-111775000D02*
X129300000Y-111775000D01*
X123700000Y-115425000D02*
X123700000Y-111775000D01*
X129300000Y-115425000D02*
X123700000Y-115425000D01*
G04 #@! TO.C,J1*
X129675000Y-100614500D02*
X126500000Y-100614500D01*
X129675000Y-97185500D02*
X129675000Y-100614500D01*
X123325000Y-97185500D02*
X129675000Y-97185500D01*
X123325000Y-100614500D02*
X123325000Y-97185500D01*
X126500000Y-100614500D02*
X123325000Y-100614500D01*
X123960000Y-101440000D02*
X123960000Y-100614500D01*
X129040000Y-101440000D02*
X123960000Y-101440000D01*
X129040000Y-100614500D02*
X129040000Y-101440000D01*
X127579500Y-96360000D02*
X127579500Y-97185500D01*
X129040000Y-96360000D02*
X127579500Y-96360000D01*
X129040000Y-97185500D02*
X129040000Y-96360000D01*
X125420500Y-96360000D02*
X125420500Y-97185500D01*
X123960000Y-96360000D02*
X125420500Y-96360000D01*
X123960000Y-97185500D02*
X123960000Y-96360000D01*
G04 #@! TO.C,IC6*
X131950000Y-106450000D02*
X131450000Y-106950000D01*
X131950000Y-105050000D02*
X131950000Y-106450000D01*
X131450000Y-105050000D02*
X131950000Y-105050000D01*
X131450000Y-106950000D02*
X131450000Y-105050000D01*
X131450000Y-106950000D02*
X131450000Y-106950000D01*
G04 #@! TO.C,IC3*
X98550000Y-106150000D02*
X98250000Y-105850000D01*
X100150000Y-106150000D02*
X98550000Y-106150000D01*
X100150000Y-105850000D02*
X100150000Y-106150000D01*
X98250000Y-105850000D02*
X100150000Y-105850000D01*
X98250000Y-105850000D02*
X98250000Y-105850000D01*
G04 #@! TO.C,IC2*
X99400000Y-102325000D02*
X99350000Y-102275000D01*
X100850000Y-102325000D02*
X99400000Y-102325000D01*
X100850000Y-102275000D02*
X100850000Y-102325000D01*
X99350000Y-102275000D02*
X100850000Y-102275000D01*
X99350000Y-102275000D02*
X99350000Y-102275000D01*
G04 #@! TO.C,D3*
X109225000Y-98825000D02*
X108575000Y-98825000D01*
X108900000Y-98575000D02*
X108575000Y-98825000D01*
X108900000Y-98575000D02*
X109225000Y-98825000D01*
G04 #@! TO.C,D1*
X103625000Y-98825000D02*
X102975000Y-98825000D01*
X103300000Y-98575000D02*
X102975000Y-98825000D01*
X103300000Y-98575000D02*
X103625000Y-98825000D01*
G04 #@! TO.C,C16*
X96825000Y-102425000D02*
X96175000Y-102425000D01*
X96825000Y-102175000D02*
X96825000Y-102425000D01*
X96175000Y-102175000D02*
X96825000Y-102175000D01*
X96175000Y-102425000D02*
X96175000Y-102175000D01*
G04 #@! TO.C,IC5*
X117650000Y-98425000D02*
X118250000Y-99025000D01*
X116750000Y-98425000D02*
X117650000Y-98425000D01*
X116750000Y-99575000D02*
X116750000Y-98425000D01*
X118250000Y-99575000D02*
X116750000Y-99575000D01*
X118250000Y-99025000D02*
X118250000Y-99575000D01*
G04 #@! TO.C,C17*
X98325000Y-102425000D02*
X97675000Y-102425000D01*
X98325000Y-102175000D02*
X98325000Y-102425000D01*
X97675000Y-102175000D02*
X98325000Y-102175000D01*
X97675000Y-102425000D02*
X97675000Y-102175000D01*
G04 #@! TO.C,C19*
X106475000Y-106175000D02*
X107125000Y-106175000D01*
X106475000Y-106425000D02*
X106475000Y-106175000D01*
X107125000Y-106425000D02*
X106475000Y-106425000D01*
X107125000Y-106175000D02*
X107125000Y-106425000D01*
G04 #@! TO.C,C13*
X116875000Y-113425000D02*
X116875000Y-112775000D01*
X117125000Y-113425000D02*
X116875000Y-113425000D01*
X117125000Y-112775000D02*
X117125000Y-113425000D01*
X116875000Y-112775000D02*
X117125000Y-112775000D01*
G04 #@! TO.C,P1*
X144900000Y-110999999D02*
G75*
G02X139100001Y-110999999I-2900000J4999999D01*
G01*
X137000001Y-108900000D02*
G75*
G02X137000001Y-103100001I4999999J2900000D01*
G01*
X139100000Y-101000001D02*
G75*
G02X144899999Y-101000001I2900000J-4999999D01*
G01*
X148500000Y-101300000D02*
X148500000Y-110700000D01*
X149200000Y-100300000D02*
X149200000Y-111700000D01*
X149800000Y-100300000D02*
X149300000Y-111700000D01*
X150300000Y-100300000D02*
X149800000Y-111700000D01*
X150800000Y-100300000D02*
X150300000Y-111700000D01*
X151300000Y-100300000D02*
X150800000Y-111700000D01*
X151800000Y-100400000D02*
X151300000Y-111700000D01*
X152300000Y-100300000D02*
X151800000Y-111700000D01*
X153800000Y-100300000D02*
X153300000Y-111700000D01*
X152800000Y-100300000D02*
X152300000Y-111700000D01*
X153300000Y-100300000D02*
X152800000Y-111700000D01*
X148500000Y-110700000D02*
X146300000Y-110700000D01*
X148500000Y-113300000D02*
X148500000Y-110700000D01*
X149200000Y-113300000D02*
X148500000Y-113300000D01*
X149200000Y-111700000D02*
X149200000Y-113300000D01*
X153800000Y-111700000D02*
X149200000Y-111700000D01*
X153800000Y-110700000D02*
X153800000Y-111700000D01*
X164600000Y-110700000D02*
X153800000Y-110700000D01*
X164600000Y-101300000D02*
X164600000Y-110700000D01*
X146300000Y-101300000D02*
X146300000Y-101300000D01*
X148500000Y-101300000D02*
X146300000Y-101300000D01*
X148500000Y-98700000D02*
X148500000Y-101300000D01*
X149200000Y-98700000D02*
X148500000Y-98700000D01*
X149200000Y-100300000D02*
X149200000Y-98700000D01*
X153800000Y-100300000D02*
X149200000Y-100300000D01*
X153800000Y-101300000D02*
X153800000Y-100300000D01*
X164600000Y-101300000D02*
X153800000Y-101300000D01*
G04 #@! TO.C,IC4*
X109600000Y-110500000D02*
G75*
G03X109600000Y-110500000I-100000J0D01*
G01*
X110500000Y-110650000D02*
X111600000Y-110650000D01*
X109350000Y-109500000D02*
X110500000Y-110650000D01*
X109350000Y-108400000D02*
X109350000Y-109500000D01*
X118650000Y-110650000D02*
X116400000Y-110650000D01*
X118650000Y-108400000D02*
X118650000Y-110650000D01*
X109350000Y-101350000D02*
X111600000Y-101350000D01*
X109350000Y-103600000D02*
X109350000Y-101350000D01*
X118650000Y-101350000D02*
X116400000Y-101350000D01*
X118650000Y-103600000D02*
X118650000Y-101350000D01*
X109350000Y-101350000D02*
X111600000Y-101350000D01*
X109350000Y-103600000D02*
X109350000Y-101350000D01*
X109350000Y-101350000D02*
X111600000Y-101350000D01*
X109350000Y-103600000D02*
X109350000Y-101350000D01*
G04 #@! TD*
%LPC*%
D11*
G04 #@! TO.C,J202*
X89350000Y-136750000D03*
X89350000Y-134750000D03*
X89350000Y-132750000D03*
X89350000Y-130750000D03*
D12*
X84750000Y-139100000D03*
X84750000Y-128400000D03*
G04 #@! TD*
D13*
G04 #@! TO.C,C224*
X137100000Y-125300000D03*
X135500000Y-125300000D03*
G04 #@! TD*
D14*
G04 #@! TO.C,C223*
X112100000Y-133300000D03*
X112100000Y-131700000D03*
G04 #@! TD*
D15*
G04 #@! TO.C,R302*
X175900000Y-122650000D03*
X175900000Y-123550000D03*
G04 #@! TD*
G04 #@! TO.C,R403*
X92450000Y-143100000D03*
X93350000Y-143100000D03*
G04 #@! TD*
D16*
G04 #@! TO.C,D303*
X189850000Y-147330000D03*
X189850000Y-149870000D03*
X184150000Y-149870000D03*
X184150000Y-147330000D03*
G04 #@! TD*
G04 #@! TO.C,D302*
X189850000Y-141930000D03*
X189850000Y-144470000D03*
X184150000Y-144470000D03*
X184150000Y-141930000D03*
G04 #@! TD*
D15*
G04 #@! TO.C,C201*
X131000000Y-122000000D03*
X131000000Y-121100000D03*
G04 #@! TD*
D17*
G04 #@! TO.C,IC202*
X125500000Y-122400000D03*
X124700000Y-122400000D03*
X123900000Y-122400000D03*
X123100000Y-122400000D03*
X122300000Y-122400000D03*
X121500000Y-122400000D03*
X120700000Y-122400000D03*
X119900000Y-122400000D03*
X119100000Y-122400000D03*
X118300000Y-122400000D03*
X117500000Y-122400000D03*
X125500000Y-123200000D03*
X124700000Y-123200000D03*
X123900000Y-123200000D03*
X123100000Y-123200000D03*
X122300000Y-123200000D03*
X121500000Y-123200000D03*
X120700000Y-123200000D03*
X119900000Y-123200000D03*
X119100000Y-123200000D03*
X118300000Y-123200000D03*
X117500000Y-123200000D03*
X125500000Y-124000000D03*
X124700000Y-124000000D03*
X123900000Y-124000000D03*
X123100000Y-124000000D03*
X122300000Y-124000000D03*
X121500000Y-124000000D03*
X120700000Y-124000000D03*
X119900000Y-124000000D03*
X119100000Y-124000000D03*
X118300000Y-124000000D03*
X117500000Y-124000000D03*
X125500000Y-124800000D03*
X124700000Y-124800000D03*
X123900000Y-124800000D03*
X123100000Y-124800000D03*
X122300000Y-124800000D03*
X121500000Y-124800000D03*
X120700000Y-124800000D03*
X119900000Y-124800000D03*
X119100000Y-124800000D03*
X118300000Y-124800000D03*
X117500000Y-124800000D03*
X125500000Y-125600000D03*
X124700000Y-125600000D03*
X123900000Y-125600000D03*
X123100000Y-125600000D03*
X122300000Y-125600000D03*
X121500000Y-125600000D03*
X120700000Y-125600000D03*
X119900000Y-125600000D03*
X119100000Y-125600000D03*
X118300000Y-125600000D03*
X117500000Y-125600000D03*
X125500000Y-126400000D03*
X124700000Y-126400000D03*
X123900000Y-126400000D03*
X123100000Y-126400000D03*
X122300000Y-126400000D03*
X121500000Y-126400000D03*
X120700000Y-126400000D03*
X119900000Y-126400000D03*
X119100000Y-126400000D03*
X118300000Y-126400000D03*
X117500000Y-126400000D03*
X125500000Y-127200000D03*
X124700000Y-127200000D03*
X123900000Y-127200000D03*
X123100000Y-127200000D03*
X122300000Y-127200000D03*
X121500000Y-127200000D03*
X120700000Y-127200000D03*
X119900000Y-127200000D03*
X119100000Y-127200000D03*
X118300000Y-127200000D03*
X117500000Y-127200000D03*
X125500000Y-128000000D03*
X124700000Y-128000000D03*
X123900000Y-128000000D03*
X123100000Y-128000000D03*
X122300000Y-128000000D03*
X121500000Y-128000000D03*
X120700000Y-128000000D03*
X119900000Y-128000000D03*
X119100000Y-128000000D03*
X118300000Y-128000000D03*
X117500000Y-128000000D03*
X125500000Y-128800000D03*
X124700000Y-128800000D03*
X123900000Y-128800000D03*
X123100000Y-128800000D03*
X122300000Y-128800000D03*
X121500000Y-128800000D03*
X120700000Y-128800000D03*
X119900000Y-128800000D03*
X119100000Y-128800000D03*
X118300000Y-128800000D03*
X117500000Y-128800000D03*
X125500000Y-129600000D03*
X124700000Y-129600000D03*
X123900000Y-129600000D03*
X123100000Y-129600000D03*
X122300000Y-129600000D03*
X121500000Y-129600000D03*
X120700000Y-129600000D03*
X119900000Y-129600000D03*
X119100000Y-129600000D03*
X118300000Y-129600000D03*
X117500000Y-129600000D03*
X125500000Y-130400000D03*
X124700000Y-130400000D03*
X123900000Y-130400000D03*
X123100000Y-130400000D03*
X122300000Y-130400000D03*
X121500000Y-130400000D03*
X120700000Y-130400000D03*
X119900000Y-130400000D03*
X119100000Y-130400000D03*
X118300000Y-130400000D03*
X117500000Y-130400000D03*
G04 #@! TD*
D18*
G04 #@! TO.C,J302*
X169544000Y-150182000D03*
X171576000Y-150182000D03*
X173608000Y-150182000D03*
X175640000Y-150182000D03*
X170560000Y-151960000D03*
X172592000Y-151960000D03*
X174624000Y-151960000D03*
X176656000Y-151960000D03*
X166242000Y-145356000D03*
X179958000Y-145356000D03*
X168528000Y-145356000D03*
X177672000Y-145356000D03*
D19*
X166750000Y-154500000D03*
X179450000Y-154500000D03*
D20*
X164972000Y-151071000D03*
X181228000Y-151071000D03*
G04 #@! TD*
D21*
G04 #@! TO.C,Y301*
X181400000Y-122250000D03*
X181400000Y-123950000D03*
X179800000Y-123950000D03*
X179800000Y-122250000D03*
G04 #@! TD*
G04 #@! TO.C,Y201*
X115700000Y-122050000D03*
X115700000Y-123750000D03*
X114100000Y-123750000D03*
X114100000Y-122050000D03*
G04 #@! TD*
D15*
G04 #@! TO.C,C314*
X178300000Y-123550000D03*
X178300000Y-122650000D03*
G04 #@! TD*
G04 #@! TO.C,R503*
X89200000Y-125750000D03*
X89200000Y-126650000D03*
G04 #@! TD*
D13*
G04 #@! TO.C,D501*
X92200000Y-126000000D03*
X90600000Y-126000000D03*
G04 #@! TD*
D14*
G04 #@! TO.C,C505*
X88400000Y-147100000D03*
X88400000Y-148700000D03*
G04 #@! TD*
D20*
G04 #@! TO.C,J401*
X129378000Y-144340000D03*
X113628000Y-144340000D03*
D19*
X151468000Y-154500000D03*
D20*
X153250000Y-151071000D03*
D18*
X146652000Y-151960000D03*
X130902000Y-151960000D03*
X115152000Y-151960000D03*
X138270000Y-145356000D03*
X122520000Y-145356000D03*
X106770000Y-145356000D03*
X140556000Y-145356000D03*
X124806000Y-145356000D03*
X109056000Y-145356000D03*
X149700000Y-145356000D03*
X133950000Y-145356000D03*
X118200000Y-145356000D03*
X142588000Y-151960000D03*
X126838000Y-151960000D03*
X111088000Y-151960000D03*
X144620000Y-151960000D03*
X128870000Y-151960000D03*
X113120000Y-151960000D03*
X151986000Y-145356000D03*
X136236000Y-145356000D03*
X120486000Y-145356000D03*
X141572000Y-150182000D03*
X125822000Y-150182000D03*
X110072000Y-150182000D03*
X143604000Y-150182000D03*
X127854000Y-150182000D03*
X112104000Y-150182000D03*
X148684000Y-151960000D03*
X132934000Y-151960000D03*
X117184000Y-151960000D03*
X145636000Y-150182000D03*
X129886000Y-150182000D03*
X114136000Y-150182000D03*
X147668000Y-150182000D03*
X131918000Y-150182000D03*
X116168000Y-150182000D03*
X94322000Y-150182000D03*
X96354000Y-150182000D03*
X98386000Y-150182000D03*
X100418000Y-150182000D03*
X95338000Y-151960000D03*
X97370000Y-151960000D03*
X99402000Y-151960000D03*
X101434000Y-151960000D03*
X91020000Y-145356000D03*
X104736000Y-145356000D03*
X93306000Y-145356000D03*
X102450000Y-145356000D03*
D19*
X91528000Y-154500000D03*
D20*
X89750000Y-151071000D03*
G04 #@! TD*
D15*
G04 #@! TO.C,C306*
X168300000Y-128150000D03*
X168300000Y-127250000D03*
G04 #@! TD*
G04 #@! TO.C,C304*
X174700000Y-122650000D03*
X174700000Y-123550000D03*
G04 #@! TD*
G04 #@! TO.C,C302*
X170100000Y-130250000D03*
X170100000Y-129350000D03*
G04 #@! TD*
G04 #@! TO.C,R318*
X131250000Y-133000000D03*
X130350000Y-133000000D03*
G04 #@! TD*
D22*
G04 #@! TO.C,TP505*
X183000000Y-135700000D03*
G04 #@! TD*
G04 #@! TO.C,TP504*
X184500000Y-131600000D03*
G04 #@! TD*
D15*
G04 #@! TO.C,R213*
X93000000Y-138050000D03*
X93000000Y-138950000D03*
G04 #@! TD*
G04 #@! TO.C,R212*
X93000000Y-130300000D03*
X93000000Y-131200000D03*
G04 #@! TD*
G04 #@! TO.C,D205*
X91750000Y-130300000D03*
X91750000Y-131200000D03*
G04 #@! TD*
G04 #@! TO.C,D204*
X91750000Y-138950000D03*
X91750000Y-138050000D03*
G04 #@! TD*
D23*
G04 #@! TO.C,X104*
X85800000Y-157800000D03*
X82200000Y-157800000D03*
X85800000Y-154200000D03*
X82200000Y-154200000D03*
X81500000Y-156000000D03*
X84000000Y-158500000D03*
X86500000Y-156000000D03*
X84000000Y-153500000D03*
D24*
X84000000Y-156000000D03*
G04 #@! TD*
D23*
G04 #@! TO.C,X103*
X189800000Y-157800000D03*
X186200000Y-157800000D03*
X189800000Y-154200000D03*
X186200000Y-154200000D03*
X185500000Y-156000000D03*
X188000000Y-158500000D03*
X190500000Y-156000000D03*
X188000000Y-153500000D03*
D24*
X188000000Y-156000000D03*
G04 #@! TD*
D23*
G04 #@! TO.C,X102*
X189800000Y-123800000D03*
X186200000Y-123800000D03*
X189800000Y-120200000D03*
X186200000Y-120200000D03*
X185500000Y-122000000D03*
X188000000Y-124500000D03*
X190500000Y-122000000D03*
X188000000Y-119500000D03*
D24*
X188000000Y-122000000D03*
G04 #@! TD*
D23*
G04 #@! TO.C,X101*
X85800000Y-123800000D03*
X82200000Y-123800000D03*
X85800000Y-120200000D03*
X82200000Y-120200000D03*
X81500000Y-122000000D03*
X84000000Y-124500000D03*
X86500000Y-122000000D03*
X84000000Y-119500000D03*
D24*
X84000000Y-122000000D03*
G04 #@! TD*
D22*
G04 #@! TO.C,TP503*
X105200000Y-126100000D03*
G04 #@! TD*
G04 #@! TO.C,TP502*
X82000000Y-147500000D03*
G04 #@! TD*
G04 #@! TO.C,TP501*
X82000000Y-145500000D03*
G04 #@! TD*
D25*
G04 #@! TO.C,T301*
X177445000Y-141885000D03*
X176175000Y-141885000D03*
X174905000Y-141885000D03*
X173635000Y-141885000D03*
X172365000Y-141885000D03*
X171095000Y-141885000D03*
X169825000Y-141885000D03*
X168555000Y-141885000D03*
X168555000Y-133115000D03*
X169825000Y-133115000D03*
X171095000Y-133115000D03*
X172365000Y-133115000D03*
X173635000Y-133115000D03*
X174905000Y-133115000D03*
X176175000Y-133115000D03*
X177445000Y-133115000D03*
G04 #@! TD*
D26*
G04 #@! TO.C,SW201*
X111000000Y-120500000D03*
X104000000Y-120500000D03*
G04 #@! TD*
D15*
G04 #@! TO.C,R502*
X163850000Y-140200000D03*
X164750000Y-140200000D03*
G04 #@! TD*
G04 #@! TO.C,R501*
X163850000Y-139000000D03*
X164750000Y-139000000D03*
G04 #@! TD*
G04 #@! TO.C,R424*
X126150000Y-135400000D03*
X127050000Y-135400000D03*
G04 #@! TD*
G04 #@! TO.C,R423*
X125500000Y-132050000D03*
X125500000Y-132950000D03*
G04 #@! TD*
G04 #@! TO.C,R422*
X124450000Y-134200000D03*
X125350000Y-134200000D03*
G04 #@! TD*
G04 #@! TO.C,R421*
X137950000Y-143100000D03*
X138850000Y-143100000D03*
G04 #@! TD*
G04 #@! TO.C,R420*
X124300000Y-132050000D03*
X124300000Y-132950000D03*
G04 #@! TD*
G04 #@! TO.C,R419*
X151150000Y-143100000D03*
X152050000Y-143100000D03*
G04 #@! TD*
G04 #@! TO.C,R418*
X122850000Y-135400000D03*
X123750000Y-135400000D03*
G04 #@! TD*
G04 #@! TO.C,R417*
X122300000Y-132050000D03*
X122300000Y-132950000D03*
G04 #@! TD*
G04 #@! TO.C,R416*
X121250000Y-134200000D03*
X122150000Y-134200000D03*
G04 #@! TD*
G04 #@! TO.C,R415*
X122250000Y-143100000D03*
X123150000Y-143100000D03*
G04 #@! TD*
G04 #@! TO.C,R414*
X121100000Y-132050000D03*
X121100000Y-132950000D03*
G04 #@! TD*
G04 #@! TO.C,R413*
X136750000Y-143100000D03*
X135850000Y-143100000D03*
G04 #@! TD*
G04 #@! TO.C,R412*
X119650000Y-135400000D03*
X120550000Y-135400000D03*
G04 #@! TD*
G04 #@! TO.C,R411*
X119100000Y-132050000D03*
X119100000Y-132950000D03*
G04 #@! TD*
G04 #@! TO.C,R410*
X118050000Y-134200000D03*
X118950000Y-134200000D03*
G04 #@! TD*
G04 #@! TO.C,R409*
X106450000Y-143100000D03*
X107350000Y-143100000D03*
G04 #@! TD*
G04 #@! TO.C,R408*
X117900000Y-132050000D03*
X117900000Y-132950000D03*
G04 #@! TD*
G04 #@! TO.C,R407*
X121050000Y-143100000D03*
X120150000Y-143100000D03*
G04 #@! TD*
G04 #@! TO.C,R406*
X116450000Y-135400000D03*
X117350000Y-135400000D03*
G04 #@! TD*
G04 #@! TO.C,R405*
X115900000Y-132050000D03*
X115900000Y-132950000D03*
G04 #@! TD*
G04 #@! TO.C,R404*
X114850000Y-134200000D03*
X115750000Y-134200000D03*
G04 #@! TD*
G04 #@! TO.C,R402*
X114700000Y-132050000D03*
X114700000Y-132950000D03*
G04 #@! TD*
G04 #@! TO.C,R401*
X105250000Y-143100000D03*
X104350000Y-143100000D03*
G04 #@! TD*
G04 #@! TO.C,R317*
X184600000Y-130250000D03*
X184600000Y-129350000D03*
G04 #@! TD*
G04 #@! TO.C,R316*
X187450000Y-133700000D03*
X186550000Y-133700000D03*
G04 #@! TD*
D13*
G04 #@! TO.C,R315*
X157200000Y-146500000D03*
X158800000Y-146500000D03*
G04 #@! TD*
G04 #@! TO.C,R314*
X157200000Y-148600000D03*
X158800000Y-148600000D03*
G04 #@! TD*
G04 #@! TO.C,R313*
X157200000Y-157800000D03*
X158800000Y-157800000D03*
G04 #@! TD*
G04 #@! TO.C,R312*
X157200000Y-155700000D03*
X158800000Y-155700000D03*
G04 #@! TD*
D15*
G04 #@! TO.C,R311*
X167100000Y-127250000D03*
X167100000Y-128150000D03*
G04 #@! TD*
G04 #@! TO.C,R310*
X178650000Y-129100000D03*
X179550000Y-129100000D03*
G04 #@! TD*
G04 #@! TO.C,R309*
X178650000Y-127500000D03*
X179550000Y-127500000D03*
G04 #@! TD*
G04 #@! TO.C,R308*
X178650000Y-126300000D03*
X179550000Y-126300000D03*
G04 #@! TD*
G04 #@! TO.C,R307*
X130350000Y-131600000D03*
X131250000Y-131600000D03*
G04 #@! TD*
G04 #@! TO.C,R306*
X130350000Y-130400000D03*
X131250000Y-130400000D03*
G04 #@! TD*
G04 #@! TO.C,R305*
X130350000Y-129200000D03*
X131250000Y-129200000D03*
G04 #@! TD*
G04 #@! TO.C,R304*
X172300000Y-122650000D03*
X172300000Y-123550000D03*
G04 #@! TD*
G04 #@! TO.C,R303*
X173500000Y-122650000D03*
X173500000Y-123550000D03*
G04 #@! TD*
G04 #@! TO.C,R301*
X177100000Y-122650000D03*
X177100000Y-123550000D03*
G04 #@! TD*
G04 #@! TO.C,R211*
X127350000Y-119600000D03*
X126450000Y-119600000D03*
G04 #@! TD*
G04 #@! TO.C,R210*
X89200000Y-119450000D03*
X89200000Y-120350000D03*
G04 #@! TD*
G04 #@! TO.C,R209*
X89200000Y-124550000D03*
X89200000Y-123650000D03*
G04 #@! TD*
G04 #@! TO.C,R208*
X89200000Y-122450000D03*
X89200000Y-121550000D03*
G04 #@! TD*
G04 #@! TO.C,R207*
X88000000Y-119450000D03*
X88000000Y-120350000D03*
G04 #@! TD*
G04 #@! TO.C,R206*
X112700000Y-120350000D03*
X112700000Y-121250000D03*
G04 #@! TD*
G04 #@! TO.C,R205*
X111300000Y-124750000D03*
X111300000Y-125650000D03*
G04 #@! TD*
G04 #@! TO.C,R204*
X128300000Y-125450000D03*
X128300000Y-124550000D03*
G04 #@! TD*
G04 #@! TO.C,R202*
X131000000Y-119900000D03*
X131000000Y-119000000D03*
G04 #@! TD*
G04 #@! TO.C,R201*
X128550000Y-119600000D03*
X129450000Y-119600000D03*
G04 #@! TD*
D14*
G04 #@! TO.C,L302*
X184500000Y-136200000D03*
X184500000Y-134600000D03*
G04 #@! TD*
G04 #@! TO.C,L301*
X169600000Y-119200000D03*
X169600000Y-120800000D03*
G04 #@! TD*
D27*
G04 #@! TO.C,J501*
X82500000Y-150500000D03*
G04 #@! TD*
D28*
G04 #@! TO.C,J201*
X134410000Y-122000000D03*
X134410000Y-120730000D03*
X135680000Y-122000000D03*
X135680000Y-120730000D03*
X136950000Y-122000000D03*
X136950000Y-120730000D03*
X138220000Y-122000000D03*
X138220000Y-120730000D03*
X139490000Y-122000000D03*
X139490000Y-120730000D03*
G04 #@! TD*
D29*
G04 #@! TO.C,IC503*
X146110000Y-131750000D03*
X148650000Y-131750000D03*
X151190000Y-131750000D03*
X153730000Y-131750000D03*
X158810000Y-131750000D03*
X161350000Y-131750000D03*
D30*
G36*
X164312737Y-130981854D02*
X164350110Y-130987398D01*
X164386760Y-130996578D01*
X164422333Y-131009306D01*
X164456488Y-131025460D01*
X164488895Y-131044884D01*
X164519241Y-131067391D01*
X164547236Y-131092764D01*
X164572609Y-131120759D01*
X164595116Y-131151105D01*
X164614540Y-131183512D01*
X164630694Y-131217667D01*
X164643422Y-131253240D01*
X164652602Y-131289890D01*
X164658146Y-131327263D01*
X164660000Y-131365000D01*
X164660000Y-132135000D01*
X164658146Y-132172737D01*
X164652602Y-132210110D01*
X164643422Y-132246760D01*
X164630694Y-132282333D01*
X164614540Y-132316488D01*
X164595116Y-132348895D01*
X164572609Y-132379241D01*
X164547236Y-132407236D01*
X164519241Y-132432609D01*
X164488895Y-132455116D01*
X164456488Y-132474540D01*
X164422333Y-132490694D01*
X164386760Y-132503422D01*
X164350110Y-132512602D01*
X164312737Y-132518146D01*
X164275000Y-132520000D01*
X163505000Y-132520000D01*
X163467263Y-132518146D01*
X163429890Y-132512602D01*
X163393240Y-132503422D01*
X163357667Y-132490694D01*
X163323512Y-132474540D01*
X163291105Y-132455116D01*
X163260759Y-132432609D01*
X163232764Y-132407236D01*
X163207391Y-132379241D01*
X163184884Y-132348895D01*
X163165460Y-132316488D01*
X163149306Y-132282333D01*
X163136578Y-132246760D01*
X163127398Y-132210110D01*
X163121854Y-132172737D01*
X163120000Y-132135000D01*
X163120000Y-131365000D01*
X163121854Y-131327263D01*
X163127398Y-131289890D01*
X163136578Y-131253240D01*
X163149306Y-131217667D01*
X163165460Y-131183512D01*
X163184884Y-131151105D01*
X163207391Y-131120759D01*
X163232764Y-131092764D01*
X163260759Y-131067391D01*
X163291105Y-131044884D01*
X163323512Y-131025460D01*
X163357667Y-131009306D01*
X163393240Y-130996578D01*
X163429890Y-130987398D01*
X163467263Y-130981854D01*
X163505000Y-130980000D01*
X164275000Y-130980000D01*
X164312737Y-130981854D01*
X164312737Y-130981854D01*
G37*
D29*
X163890000Y-131750000D03*
G04 #@! TD*
D31*
G04 #@! TO.C,IC502*
X107700000Y-124950000D03*
X108650000Y-127250000D03*
X106750000Y-127250000D03*
G04 #@! TD*
D29*
G04 #@! TO.C,IC501*
X146110000Y-121750000D03*
X148650000Y-121750000D03*
X151190000Y-121750000D03*
X153730000Y-121750000D03*
X158810000Y-121750000D03*
X161350000Y-121750000D03*
D30*
G36*
X164312737Y-120981854D02*
X164350110Y-120987398D01*
X164386760Y-120996578D01*
X164422333Y-121009306D01*
X164456488Y-121025460D01*
X164488895Y-121044884D01*
X164519241Y-121067391D01*
X164547236Y-121092764D01*
X164572609Y-121120759D01*
X164595116Y-121151105D01*
X164614540Y-121183512D01*
X164630694Y-121217667D01*
X164643422Y-121253240D01*
X164652602Y-121289890D01*
X164658146Y-121327263D01*
X164660000Y-121365000D01*
X164660000Y-122135000D01*
X164658146Y-122172737D01*
X164652602Y-122210110D01*
X164643422Y-122246760D01*
X164630694Y-122282333D01*
X164614540Y-122316488D01*
X164595116Y-122348895D01*
X164572609Y-122379241D01*
X164547236Y-122407236D01*
X164519241Y-122432609D01*
X164488895Y-122455116D01*
X164456488Y-122474540D01*
X164422333Y-122490694D01*
X164386760Y-122503422D01*
X164350110Y-122512602D01*
X164312737Y-122518146D01*
X164275000Y-122520000D01*
X163505000Y-122520000D01*
X163467263Y-122518146D01*
X163429890Y-122512602D01*
X163393240Y-122503422D01*
X163357667Y-122490694D01*
X163323512Y-122474540D01*
X163291105Y-122455116D01*
X163260759Y-122432609D01*
X163232764Y-122407236D01*
X163207391Y-122379241D01*
X163184884Y-122348895D01*
X163165460Y-122316488D01*
X163149306Y-122282333D01*
X163136578Y-122246760D01*
X163127398Y-122210110D01*
X163121854Y-122172737D01*
X163120000Y-122135000D01*
X163120000Y-121365000D01*
X163121854Y-121327263D01*
X163127398Y-121289890D01*
X163136578Y-121253240D01*
X163149306Y-121217667D01*
X163165460Y-121183512D01*
X163184884Y-121151105D01*
X163207391Y-121120759D01*
X163232764Y-121092764D01*
X163260759Y-121067391D01*
X163291105Y-121044884D01*
X163323512Y-121025460D01*
X163357667Y-121009306D01*
X163393240Y-120996578D01*
X163429890Y-120987398D01*
X163467263Y-120981854D01*
X163505000Y-120980000D01*
X164275000Y-120980000D01*
X164312737Y-120981854D01*
X164312737Y-120981854D01*
G37*
D29*
X163890000Y-121750000D03*
G04 #@! TD*
D32*
G04 #@! TO.C,IC408*
X144600000Y-142075000D03*
X145100000Y-142075000D03*
X145600000Y-142075000D03*
X146100000Y-142075000D03*
X146600000Y-142075000D03*
X146600000Y-143125000D03*
X146100000Y-143125000D03*
X145600000Y-143125000D03*
X145100000Y-143125000D03*
X144600000Y-143125000D03*
G04 #@! TD*
G04 #@! TO.C,IC406*
X125200000Y-142075000D03*
X125700000Y-142075000D03*
X126200000Y-142075000D03*
X126700000Y-142075000D03*
X127200000Y-142075000D03*
X127200000Y-143125000D03*
X126700000Y-143125000D03*
X126200000Y-143125000D03*
X125700000Y-143125000D03*
X125200000Y-143125000D03*
G04 #@! TD*
G04 #@! TO.C,IC404*
X115800000Y-142075000D03*
X116300000Y-142075000D03*
X116800000Y-142075000D03*
X117300000Y-142075000D03*
X117800000Y-142075000D03*
X117800000Y-143125000D03*
X117300000Y-143125000D03*
X116800000Y-143125000D03*
X116300000Y-143125000D03*
X115800000Y-143125000D03*
G04 #@! TD*
G04 #@! TO.C,IC402*
X97400000Y-142075000D03*
X97900000Y-142075000D03*
X98400000Y-142075000D03*
X98900000Y-142075000D03*
X99400000Y-142075000D03*
X99400000Y-143125000D03*
X98900000Y-143125000D03*
X98400000Y-143125000D03*
X97900000Y-143125000D03*
X97400000Y-143125000D03*
G04 #@! TD*
D33*
G04 #@! TO.C,IC303*
X187000000Y-131000000D03*
D34*
X186000000Y-129525000D03*
X186500000Y-129525000D03*
X187000000Y-129525000D03*
X187500000Y-129525000D03*
X188000000Y-129525000D03*
X188000000Y-132475000D03*
X187500000Y-132475000D03*
X187000000Y-132475000D03*
X186500000Y-132475000D03*
X186000000Y-132475000D03*
G04 #@! TD*
D35*
G04 #@! TO.C,IC301*
X174600000Y-126900000D03*
X173400000Y-126900000D03*
X174600000Y-128100000D03*
X173400000Y-128100000D03*
D36*
X172140000Y-128750000D03*
X172140000Y-128250000D03*
X172140000Y-127750000D03*
X172140000Y-127250000D03*
X172140000Y-126750000D03*
X172140000Y-126250000D03*
D37*
X172750000Y-125640000D03*
X173250000Y-125640000D03*
X173750000Y-125640000D03*
X174250000Y-125640000D03*
X174750000Y-125640000D03*
X175250000Y-125640000D03*
D36*
X175860000Y-126250000D03*
X175860000Y-126750000D03*
X175860000Y-127250000D03*
X175860000Y-127750000D03*
X175860000Y-128250000D03*
X175860000Y-128750000D03*
D37*
X175250000Y-129360000D03*
X174750000Y-129360000D03*
X174250000Y-129360000D03*
X173750000Y-129360000D03*
X173250000Y-129360000D03*
X172750000Y-129360000D03*
G04 #@! TD*
D38*
G04 #@! TO.C,IC201*
X129925000Y-121350000D03*
X129925000Y-121850000D03*
X129925000Y-122350000D03*
X129925000Y-122850000D03*
X127475000Y-122850000D03*
X127475000Y-122350000D03*
X127475000Y-121850000D03*
X127475000Y-121350000D03*
G04 #@! TD*
D39*
G04 #@! TO.C,D301*
X189000000Y-138700000D03*
X185000000Y-138700000D03*
G04 #@! TD*
D13*
G04 #@! TO.C,D203*
X92200000Y-120000000D03*
X90600000Y-120000000D03*
G04 #@! TD*
G04 #@! TO.C,D202*
X92200000Y-124000000D03*
X90600000Y-124000000D03*
G04 #@! TD*
G04 #@! TO.C,D201*
X92200000Y-122000000D03*
X90600000Y-122000000D03*
G04 #@! TD*
D15*
G04 #@! TO.C,C504*
X110100000Y-127750000D03*
X110100000Y-126850000D03*
G04 #@! TD*
G04 #@! TO.C,C503*
X104450000Y-124700000D03*
X105350000Y-124700000D03*
G04 #@! TD*
D14*
G04 #@! TO.C,C502*
X142900000Y-135600000D03*
X142900000Y-137200000D03*
G04 #@! TD*
G04 #@! TO.C,C501*
X143000000Y-120200000D03*
X143000000Y-121800000D03*
G04 #@! TD*
D40*
G04 #@! TO.C,C313*
X187900000Y-135900000D03*
X186100000Y-135900000D03*
G04 #@! TD*
G04 #@! TO.C,C312*
X160400000Y-146500000D03*
X162200000Y-146500000D03*
G04 #@! TD*
G04 #@! TO.C,C311*
X160400000Y-148600000D03*
X162200000Y-148600000D03*
G04 #@! TD*
G04 #@! TO.C,C310*
X160400000Y-157800000D03*
X162200000Y-157800000D03*
G04 #@! TD*
G04 #@! TO.C,C309*
X160400000Y-155700000D03*
X162200000Y-155700000D03*
G04 #@! TD*
D14*
G04 #@! TO.C,C308*
X180400000Y-132700000D03*
X180400000Y-134300000D03*
G04 #@! TD*
G04 #@! TO.C,C307*
X167200000Y-129500000D03*
X167200000Y-131100000D03*
G04 #@! TD*
G04 #@! TO.C,C305*
X168700000Y-131100000D03*
X168700000Y-129500000D03*
G04 #@! TD*
D41*
G04 #@! TO.C,C303*
X176000000Y-119600000D03*
X179000000Y-119600000D03*
G04 #@! TD*
G04 #@! TO.C,C301*
X174200000Y-119600000D03*
X171200000Y-119600000D03*
G04 #@! TD*
D15*
G04 #@! TO.C,C222*
X115900000Y-125950000D03*
X115900000Y-125050000D03*
G04 #@! TD*
D13*
G04 #@! TO.C,C221*
X112900000Y-125200000D03*
X114500000Y-125200000D03*
G04 #@! TD*
D15*
G04 #@! TO.C,C220*
X112700000Y-123350000D03*
X112700000Y-122450000D03*
G04 #@! TD*
G04 #@! TO.C,C219*
X127100000Y-125450000D03*
X127100000Y-124550000D03*
G04 #@! TD*
D13*
G04 #@! TO.C,C218*
X129650000Y-125300000D03*
X131250000Y-125300000D03*
G04 #@! TD*
D15*
G04 #@! TO.C,C217*
X143000000Y-124050000D03*
X143000000Y-123150000D03*
G04 #@! TD*
G04 #@! TO.C,C216*
X118050000Y-120800000D03*
X118950000Y-120800000D03*
G04 #@! TD*
G04 #@! TO.C,C215*
X123150000Y-120800000D03*
X122250000Y-120800000D03*
G04 #@! TD*
G04 #@! TO.C,C214*
X112500000Y-127750000D03*
X112500000Y-126850000D03*
G04 #@! TD*
G04 #@! TO.C,C213*
X128300000Y-135150000D03*
X128300000Y-134250000D03*
G04 #@! TD*
G04 #@! TO.C,C212*
X115450000Y-120800000D03*
X114550000Y-120800000D03*
G04 #@! TD*
G04 #@! TO.C,C211*
X129500000Y-135150000D03*
X129500000Y-134250000D03*
G04 #@! TD*
G04 #@! TO.C,C210*
X113500000Y-132950000D03*
X113500000Y-132050000D03*
G04 #@! TD*
G04 #@! TO.C,C209*
X111300000Y-127750000D03*
X111300000Y-126850000D03*
G04 #@! TD*
G04 #@! TO.C,C208*
X121050000Y-120800000D03*
X120150000Y-120800000D03*
G04 #@! TD*
G04 #@! TO.C,C207*
X125250000Y-120800000D03*
X124350000Y-120800000D03*
G04 #@! TD*
G04 #@! TO.C,C206*
X113750000Y-127800000D03*
X114650000Y-127800000D03*
G04 #@! TD*
G04 #@! TO.C,C205*
X113750000Y-126600000D03*
X114650000Y-126600000D03*
G04 #@! TD*
G04 #@! TO.C,C204*
X133500000Y-125300000D03*
X132600000Y-125300000D03*
G04 #@! TD*
G04 #@! TO.C,C203*
X110100000Y-124750000D03*
X110100000Y-125650000D03*
G04 #@! TD*
G04 #@! TO.C,C202*
X128300000Y-133050000D03*
X128300000Y-132150000D03*
G04 #@! TD*
D14*
G04 #@! TO.C,C15*
X102150000Y-102950000D03*
X102150000Y-101350000D03*
G04 #@! TD*
D18*
G04 #@! TO.C,IC1*
X89318000Y-102444000D03*
X89318000Y-104476000D03*
X89318000Y-106508000D03*
X89318000Y-108540000D03*
X87540000Y-103460000D03*
X87540000Y-105492000D03*
X87540000Y-107524000D03*
X87540000Y-109556000D03*
X94144000Y-99142000D03*
X94144000Y-112858000D03*
X94144000Y-101428000D03*
X94144000Y-110572000D03*
D19*
X85000000Y-99650000D03*
X85000000Y-112350000D03*
D20*
X88429000Y-97872000D03*
X88429000Y-114128000D03*
G04 #@! TD*
D21*
G04 #@! TO.C,Y1*
X108250000Y-101850000D03*
X108250000Y-103550000D03*
X106650000Y-103550000D03*
X106650000Y-101850000D03*
G04 #@! TD*
D42*
G04 #@! TO.C,IC7*
X97525000Y-109550000D03*
X97525000Y-110050000D03*
X97525000Y-110550000D03*
X97525000Y-111050000D03*
X97525000Y-111550000D03*
X96475000Y-111550000D03*
X96475000Y-111050000D03*
X96475000Y-110550000D03*
X96475000Y-110050000D03*
X96475000Y-109550000D03*
G04 #@! TD*
D15*
G04 #@! TO.C,R1*
X96350000Y-113600000D03*
X96350000Y-112700000D03*
G04 #@! TD*
D22*
G04 #@! TO.C,TP3*
X102300000Y-114450000D03*
G04 #@! TD*
G04 #@! TO.C,TP2*
X103800000Y-114450000D03*
G04 #@! TD*
G04 #@! TO.C,TP1*
X100800000Y-114450000D03*
G04 #@! TD*
D27*
G04 #@! TO.C,J3*
X98500000Y-114450000D03*
G04 #@! TD*
D43*
G04 #@! TO.C,J2*
X125970000Y-103360000D03*
X125970000Y-104630000D03*
X124700000Y-103360000D03*
X124700000Y-104630000D03*
X123430000Y-103360000D03*
X123430000Y-104630000D03*
D22*
X127240000Y-103995000D03*
X122160000Y-102979000D03*
X122160000Y-105011000D03*
G04 #@! TD*
D26*
G04 #@! TO.C,SW3*
X132700000Y-113600000D03*
X139700000Y-113600000D03*
G04 #@! TD*
G04 #@! TO.C,SW2*
X132700000Y-98400000D03*
X139700000Y-98400000D03*
G04 #@! TD*
D15*
G04 #@! TO.C,R21*
X132550000Y-110800000D03*
X133450000Y-110800000D03*
G04 #@! TD*
G04 #@! TO.C,R20*
X132550000Y-101200000D03*
X133450000Y-101200000D03*
G04 #@! TD*
G04 #@! TO.C,C30*
X110250000Y-96700000D03*
X111150000Y-96700000D03*
G04 #@! TD*
G04 #@! TO.C,C29*
X109800000Y-112650000D03*
X109800000Y-111750000D03*
G04 #@! TD*
G04 #@! TO.C,C24*
X108600000Y-112650000D03*
X108600000Y-111750000D03*
G04 #@! TD*
D14*
G04 #@! TO.C,D2*
X106100000Y-99500000D03*
X106100000Y-97900000D03*
G04 #@! TD*
D44*
G04 #@! TO.C,L1*
X101075000Y-98400000D03*
X98125000Y-98400000D03*
G04 #@! TD*
D26*
G04 #@! TO.C,SW1*
X123000000Y-113600000D03*
X130000000Y-113600000D03*
G04 #@! TD*
D15*
G04 #@! TO.C,R19*
X134400000Y-105550000D03*
X134400000Y-106450000D03*
G04 #@! TD*
G04 #@! TO.C,R11*
X111150000Y-97900000D03*
X110250000Y-97900000D03*
G04 #@! TD*
D28*
G04 #@! TO.C,J1*
X123960000Y-99535000D03*
X123960000Y-98265000D03*
X125230000Y-99535000D03*
X125230000Y-98265000D03*
X126500000Y-99535000D03*
X126500000Y-98265000D03*
X127770000Y-99535000D03*
X127770000Y-98265000D03*
X129040000Y-99535000D03*
X129040000Y-98265000D03*
G04 #@! TD*
D45*
G04 #@! TO.C,IC6*
X130400000Y-106950000D03*
X130400000Y-106000000D03*
X130400000Y-105050000D03*
X133000000Y-105050000D03*
X133000000Y-106000000D03*
X133000000Y-106950000D03*
G04 #@! TD*
D31*
G04 #@! TO.C,IC3*
X99200000Y-104850000D03*
X100150000Y-107150000D03*
X98250000Y-107150000D03*
G04 #@! TD*
D46*
G04 #@! TO.C,IC2*
X99350000Y-101350000D03*
X99850000Y-101350000D03*
X100350000Y-101350000D03*
X100850000Y-101350000D03*
X100850000Y-103250000D03*
X100350000Y-103250000D03*
X99850000Y-103250000D03*
X99350000Y-103250000D03*
G04 #@! TD*
D15*
G04 #@! TO.C,D4*
X134400000Y-108550000D03*
X134400000Y-107650000D03*
G04 #@! TD*
D14*
G04 #@! TO.C,D3*
X108900000Y-99500000D03*
X108900000Y-97900000D03*
G04 #@! TD*
G04 #@! TO.C,D1*
X103300000Y-99500000D03*
X103300000Y-97900000D03*
G04 #@! TD*
D15*
G04 #@! TO.C,C27*
X134400000Y-103450000D03*
X134400000Y-104350000D03*
G04 #@! TD*
G04 #@! TO.C,C25*
X132250000Y-108500000D03*
X133150000Y-108500000D03*
G04 #@! TD*
G04 #@! TO.C,C22*
X102150000Y-106400000D03*
X102150000Y-107300000D03*
G04 #@! TD*
G04 #@! TO.C,C21*
X96500000Y-105450000D03*
X96500000Y-104550000D03*
G04 #@! TD*
G04 #@! TO.C,C18*
X102150000Y-104300000D03*
X102150000Y-105200000D03*
G04 #@! TD*
D14*
G04 #@! TO.C,C16*
X96500000Y-101500000D03*
X96500000Y-103100000D03*
G04 #@! TD*
D15*
G04 #@! TO.C,R15*
X116850000Y-96750000D03*
X117750000Y-96750000D03*
G04 #@! TD*
G04 #@! TO.C,R17*
X114450000Y-96700000D03*
X115350000Y-96700000D03*
G04 #@! TD*
G04 #@! TO.C,R14*
X115350000Y-97900000D03*
X114450000Y-97900000D03*
G04 #@! TD*
G04 #@! TO.C,R10*
X107500000Y-99150000D03*
X107500000Y-98250000D03*
G04 #@! TD*
G04 #@! TO.C,R9*
X104700000Y-99150000D03*
X104700000Y-98250000D03*
G04 #@! TD*
G04 #@! TO.C,R18*
X120600000Y-96650000D03*
X120600000Y-97550000D03*
G04 #@! TD*
G04 #@! TO.C,C26*
X129850000Y-102600000D03*
X128950000Y-102600000D03*
G04 #@! TD*
D47*
G04 #@! TO.C,IC5*
X118250000Y-100225000D03*
X117750000Y-100225000D03*
X117250000Y-100225000D03*
X116750000Y-100225000D03*
X116750000Y-97775000D03*
X117250000Y-97775000D03*
X117750000Y-97775000D03*
X118250000Y-97775000D03*
G04 #@! TD*
D15*
G04 #@! TO.C,C28*
X105300000Y-103150000D03*
X105300000Y-102250000D03*
G04 #@! TD*
D14*
G04 #@! TO.C,C17*
X98000000Y-101500000D03*
X98000000Y-103100000D03*
G04 #@! TD*
D15*
G04 #@! TO.C,C23*
X119400000Y-98750000D03*
X119400000Y-99650000D03*
G04 #@! TD*
G04 #@! TO.C,C12*
X110250000Y-100300000D03*
X111150000Y-100300000D03*
G04 #@! TD*
G04 #@! TO.C,C11*
X113850000Y-114100000D03*
X114750000Y-114100000D03*
G04 #@! TD*
G04 #@! TO.C,C10*
X120250000Y-111700000D03*
X119350000Y-111700000D03*
G04 #@! TD*
G04 #@! TO.C,C4*
X113850000Y-111700000D03*
X114750000Y-111700000D03*
G04 #@! TD*
G04 #@! TO.C,C9*
X115350000Y-99100000D03*
X114450000Y-99100000D03*
G04 #@! TD*
G04 #@! TO.C,C3*
X112350000Y-100300000D03*
X113250000Y-100300000D03*
G04 #@! TD*
G04 #@! TO.C,C8*
X110250000Y-99100000D03*
X111150000Y-99100000D03*
G04 #@! TD*
G04 #@! TO.C,C6*
X115350000Y-100300000D03*
X114450000Y-100300000D03*
G04 #@! TD*
G04 #@! TO.C,C2*
X112350000Y-99100000D03*
X113250000Y-99100000D03*
G04 #@! TD*
G04 #@! TO.C,C7*
X120250000Y-112900000D03*
X119350000Y-112900000D03*
G04 #@! TD*
G04 #@! TO.C,C5*
X113850000Y-115300000D03*
X114750000Y-115300000D03*
G04 #@! TD*
G04 #@! TO.C,C1*
X113850000Y-112900000D03*
X114750000Y-112900000D03*
G04 #@! TD*
G04 #@! TO.C,R13*
X112350000Y-97900000D03*
X113250000Y-97900000D03*
G04 #@! TD*
G04 #@! TO.C,R12*
X120600000Y-99650000D03*
X120600000Y-98750000D03*
G04 #@! TD*
G04 #@! TO.C,R16*
X119400000Y-97550000D03*
X119400000Y-96650000D03*
G04 #@! TD*
G04 #@! TO.C,R8*
X105300000Y-105850000D03*
X105300000Y-106750000D03*
G04 #@! TD*
G04 #@! TO.C,R7*
X116550000Y-114500000D03*
X117450000Y-114500000D03*
G04 #@! TD*
G04 #@! TO.C,C20*
X108300000Y-106750000D03*
X108300000Y-105850000D03*
G04 #@! TD*
G04 #@! TO.C,C14*
X117450000Y-111700000D03*
X116550000Y-111700000D03*
G04 #@! TD*
D14*
G04 #@! TO.C,C19*
X106800000Y-107100000D03*
X106800000Y-105500000D03*
G04 #@! TD*
D13*
G04 #@! TO.C,C13*
X117800000Y-113100000D03*
X116200000Y-113100000D03*
G04 #@! TD*
D15*
G04 #@! TO.C,R4*
X112200000Y-111750000D03*
X112200000Y-112650000D03*
G04 #@! TD*
G04 #@! TO.C,R6*
X111000000Y-111750000D03*
X111000000Y-112650000D03*
G04 #@! TD*
G04 #@! TO.C,R3*
X96400000Y-98350000D03*
X96400000Y-99250000D03*
G04 #@! TD*
G04 #@! TO.C,R5*
X111150000Y-114000000D03*
X112050000Y-114000000D03*
G04 #@! TD*
G04 #@! TO.C,R2*
X108200000Y-109350000D03*
X108200000Y-110250000D03*
G04 #@! TD*
D48*
G04 #@! TO.C,P1*
X138700000Y-109300000D03*
X138700000Y-102700000D03*
X145300000Y-109300000D03*
D49*
X142000000Y-106000000D03*
D48*
X145300000Y-102700000D03*
G04 #@! TD*
D17*
G04 #@! TO.C,IC4*
X118000000Y-102000000D03*
X117200000Y-102000000D03*
X116400000Y-102000000D03*
X115600000Y-102000000D03*
X114800000Y-102000000D03*
X114000000Y-102000000D03*
X113200000Y-102000000D03*
X112400000Y-102000000D03*
X111600000Y-102000000D03*
X110800000Y-102000000D03*
X110000000Y-102000000D03*
X118000000Y-102800000D03*
X117200000Y-102800000D03*
X116400000Y-102800000D03*
X115600000Y-102800000D03*
X114800000Y-102800000D03*
X114000000Y-102800000D03*
X113200000Y-102800000D03*
X112400000Y-102800000D03*
X111600000Y-102800000D03*
X110800000Y-102800000D03*
X110000000Y-102800000D03*
X118000000Y-103600000D03*
X117200000Y-103600000D03*
X116400000Y-103600000D03*
X115600000Y-103600000D03*
X114800000Y-103600000D03*
X114000000Y-103600000D03*
X113200000Y-103600000D03*
X112400000Y-103600000D03*
X111600000Y-103600000D03*
X110800000Y-103600000D03*
X110000000Y-103600000D03*
X118000000Y-104400000D03*
X117200000Y-104400000D03*
X116400000Y-104400000D03*
X115600000Y-104400000D03*
X114800000Y-104400000D03*
X114000000Y-104400000D03*
X113200000Y-104400000D03*
X112400000Y-104400000D03*
X111600000Y-104400000D03*
X110800000Y-104400000D03*
X110000000Y-104400000D03*
X118000000Y-105200000D03*
X117200000Y-105200000D03*
X116400000Y-105200000D03*
X115600000Y-105200000D03*
X114800000Y-105200000D03*
X114000000Y-105200000D03*
X113200000Y-105200000D03*
X112400000Y-105200000D03*
X111600000Y-105200000D03*
X110800000Y-105200000D03*
X110000000Y-105200000D03*
X118000000Y-106000000D03*
X117200000Y-106000000D03*
X116400000Y-106000000D03*
X115600000Y-106000000D03*
X114800000Y-106000000D03*
X114000000Y-106000000D03*
X113200000Y-106000000D03*
X112400000Y-106000000D03*
X111600000Y-106000000D03*
X110800000Y-106000000D03*
X110000000Y-106000000D03*
X118000000Y-106800000D03*
X117200000Y-106800000D03*
X116400000Y-106800000D03*
X115600000Y-106800000D03*
X114800000Y-106800000D03*
X114000000Y-106800000D03*
X113200000Y-106800000D03*
X112400000Y-106800000D03*
X111600000Y-106800000D03*
X110800000Y-106800000D03*
X110000000Y-106800000D03*
X118000000Y-107600000D03*
X117200000Y-107600000D03*
X116400000Y-107600000D03*
X115600000Y-107600000D03*
X114800000Y-107600000D03*
X114000000Y-107600000D03*
X113200000Y-107600000D03*
X112400000Y-107600000D03*
X111600000Y-107600000D03*
X110800000Y-107600000D03*
X110000000Y-107600000D03*
X118000000Y-108400000D03*
X117200000Y-108400000D03*
X116400000Y-108400000D03*
X115600000Y-108400000D03*
X114800000Y-108400000D03*
X114000000Y-108400000D03*
X113200000Y-108400000D03*
X112400000Y-108400000D03*
X111600000Y-108400000D03*
X110800000Y-108400000D03*
X110000000Y-108400000D03*
X118000000Y-109200000D03*
X117200000Y-109200000D03*
X116400000Y-109200000D03*
X115600000Y-109200000D03*
X114800000Y-109200000D03*
X114000000Y-109200000D03*
X113200000Y-109200000D03*
X112400000Y-109200000D03*
X111600000Y-109200000D03*
X110800000Y-109200000D03*
X110000000Y-109200000D03*
X118000000Y-110000000D03*
X117200000Y-110000000D03*
X116400000Y-110000000D03*
X115600000Y-110000000D03*
X114800000Y-110000000D03*
X114000000Y-110000000D03*
X113200000Y-110000000D03*
X112400000Y-110000000D03*
X111600000Y-110000000D03*
X110800000Y-110000000D03*
X110000000Y-110000000D03*
G04 #@! TD*
M02*
