G04 #@! TF.GenerationSoftware,KiCad,Pcbnew,5.0.1-33cea8e~66~ubuntu18.04.1*
G04 #@! TF.CreationDate,2018-11-27T01:50:38+00:00*
G04 #@! TF.ProjectId,proto_switch_sensor_r1_panel,70726F746F5F7377697463685F73656E,1*
G04 #@! TF.SameCoordinates,Original*
G04 #@! TF.FileFunction,Soldermask,Bot*
G04 #@! TF.FilePolarity,Negative*
%FSLAX46Y46*%
G04 Gerber Fmt 4.6, Leading zero omitted, Abs format (unit mm)*
G04 Created by KiCad (PCBNEW 5.0.1-33cea8e~66~ubuntu18.04.1) date Tue 27 Nov 2018 01:50:38 GMT*
%MOMM*%
%LPD*%
G01*
G04 APERTURE LIST*
%ADD10C,0.100000*%
G04 APERTURE END LIST*
D10*
G36*
X188396849Y-152867226D02*
X188918821Y-152971052D01*
X189492085Y-153208506D01*
X190008008Y-153553235D01*
X190446765Y-153991992D01*
X190791494Y-154507915D01*
X191028948Y-155081179D01*
X191150000Y-155689752D01*
X191150000Y-156310248D01*
X191028948Y-156918821D01*
X190791494Y-157492085D01*
X190446765Y-158008008D01*
X190008008Y-158446765D01*
X189492085Y-158791494D01*
X188918821Y-159028948D01*
X188396849Y-159132774D01*
X188310249Y-159150000D01*
X187689751Y-159150000D01*
X187603151Y-159132774D01*
X187081179Y-159028948D01*
X186507915Y-158791494D01*
X185991992Y-158446765D01*
X185553235Y-158008008D01*
X185208506Y-157492085D01*
X184971052Y-156918821D01*
X184850000Y-156310248D01*
X184850000Y-155689752D01*
X184971052Y-155081179D01*
X185208506Y-154507915D01*
X185553235Y-153991992D01*
X185991992Y-153553235D01*
X186507915Y-153208506D01*
X187081179Y-152971052D01*
X187603151Y-152867226D01*
X187689751Y-152850000D01*
X188310249Y-152850000D01*
X188396849Y-152867226D01*
X188396849Y-152867226D01*
G37*
G36*
X84396849Y-152867226D02*
X84918821Y-152971052D01*
X85492085Y-153208506D01*
X86008008Y-153553235D01*
X86446765Y-153991992D01*
X86791494Y-154507915D01*
X87028948Y-155081179D01*
X87150000Y-155689752D01*
X87150000Y-156310248D01*
X87028948Y-156918821D01*
X86791494Y-157492085D01*
X86446765Y-158008008D01*
X86008008Y-158446765D01*
X85492085Y-158791494D01*
X84918821Y-159028948D01*
X84396849Y-159132774D01*
X84310249Y-159150000D01*
X83689751Y-159150000D01*
X83603151Y-159132774D01*
X83081179Y-159028948D01*
X82507915Y-158791494D01*
X81991992Y-158446765D01*
X81553235Y-158008008D01*
X81208506Y-157492085D01*
X80971052Y-156918821D01*
X80850000Y-156310248D01*
X80850000Y-155689752D01*
X80971052Y-155081179D01*
X81208506Y-154507915D01*
X81553235Y-153991992D01*
X81991992Y-153553235D01*
X82507915Y-153208506D01*
X83081179Y-152971052D01*
X83603151Y-152867226D01*
X83689751Y-152850000D01*
X84310249Y-152850000D01*
X84396849Y-152867226D01*
X84396849Y-152867226D01*
G37*
G36*
X92008001Y-152917639D02*
X92008003Y-152917640D01*
X92008004Y-152917640D01*
X92118631Y-152963463D01*
X92307485Y-153041689D01*
X92577012Y-153221781D01*
X92806219Y-153450988D01*
X92986311Y-153720515D01*
X93110361Y-154019999D01*
X93173600Y-154337921D01*
X93173600Y-154662079D01*
X93110361Y-154980001D01*
X92986311Y-155279485D01*
X92806219Y-155549012D01*
X92577012Y-155778219D01*
X92307485Y-155958311D01*
X92130750Y-156031517D01*
X92008004Y-156082360D01*
X92008003Y-156082360D01*
X92008001Y-156082361D01*
X91690079Y-156145600D01*
X91365921Y-156145600D01*
X91047999Y-156082361D01*
X91047997Y-156082360D01*
X91047996Y-156082360D01*
X90925250Y-156031517D01*
X90748515Y-155958311D01*
X90478988Y-155778219D01*
X90249781Y-155549012D01*
X90069689Y-155279485D01*
X89945639Y-154980001D01*
X89882400Y-154662079D01*
X89882400Y-154337921D01*
X89945639Y-154019999D01*
X90069689Y-153720515D01*
X90249781Y-153450988D01*
X90478988Y-153221781D01*
X90748515Y-153041689D01*
X90937369Y-152963463D01*
X91047996Y-152917640D01*
X91047997Y-152917640D01*
X91047999Y-152917639D01*
X91365921Y-152854400D01*
X91690079Y-152854400D01*
X92008001Y-152917639D01*
X92008001Y-152917639D01*
G37*
G36*
X151948001Y-152917639D02*
X151948003Y-152917640D01*
X151948004Y-152917640D01*
X152058631Y-152963463D01*
X152247485Y-153041689D01*
X152517012Y-153221781D01*
X152746219Y-153450988D01*
X152926311Y-153720515D01*
X153050361Y-154019999D01*
X153113600Y-154337921D01*
X153113600Y-154662079D01*
X153050361Y-154980001D01*
X152926311Y-155279485D01*
X152746219Y-155549012D01*
X152517012Y-155778219D01*
X152247485Y-155958311D01*
X152070750Y-156031517D01*
X151948004Y-156082360D01*
X151948003Y-156082360D01*
X151948001Y-156082361D01*
X151630079Y-156145600D01*
X151305921Y-156145600D01*
X150987999Y-156082361D01*
X150987997Y-156082360D01*
X150987996Y-156082360D01*
X150865250Y-156031517D01*
X150688515Y-155958311D01*
X150418988Y-155778219D01*
X150189781Y-155549012D01*
X150009689Y-155279485D01*
X149885639Y-154980001D01*
X149822400Y-154662079D01*
X149822400Y-154337921D01*
X149885639Y-154019999D01*
X150009689Y-153720515D01*
X150189781Y-153450988D01*
X150418988Y-153221781D01*
X150688515Y-153041689D01*
X150877369Y-152963463D01*
X150987996Y-152917640D01*
X150987997Y-152917640D01*
X150987999Y-152917639D01*
X151305921Y-152854400D01*
X151630079Y-152854400D01*
X151948001Y-152917639D01*
X151948001Y-152917639D01*
G37*
G36*
X167230001Y-152917639D02*
X167230003Y-152917640D01*
X167230004Y-152917640D01*
X167340631Y-152963463D01*
X167529485Y-153041689D01*
X167799012Y-153221781D01*
X168028219Y-153450988D01*
X168208311Y-153720515D01*
X168332361Y-154019999D01*
X168395600Y-154337921D01*
X168395600Y-154662079D01*
X168332361Y-154980001D01*
X168208311Y-155279485D01*
X168028219Y-155549012D01*
X167799012Y-155778219D01*
X167529485Y-155958311D01*
X167352750Y-156031517D01*
X167230004Y-156082360D01*
X167230003Y-156082360D01*
X167230001Y-156082361D01*
X166912079Y-156145600D01*
X166587921Y-156145600D01*
X166269999Y-156082361D01*
X166269997Y-156082360D01*
X166269996Y-156082360D01*
X166147250Y-156031517D01*
X165970515Y-155958311D01*
X165700988Y-155778219D01*
X165471781Y-155549012D01*
X165291689Y-155279485D01*
X165167639Y-154980001D01*
X165104400Y-154662079D01*
X165104400Y-154337921D01*
X165167639Y-154019999D01*
X165291689Y-153720515D01*
X165471781Y-153450988D01*
X165700988Y-153221781D01*
X165970515Y-153041689D01*
X166159369Y-152963463D01*
X166269996Y-152917640D01*
X166269997Y-152917640D01*
X166269999Y-152917639D01*
X166587921Y-152854400D01*
X166912079Y-152854400D01*
X167230001Y-152917639D01*
X167230001Y-152917639D01*
G37*
G36*
X179930001Y-152917639D02*
X179930003Y-152917640D01*
X179930004Y-152917640D01*
X180040631Y-152963463D01*
X180229485Y-153041689D01*
X180499012Y-153221781D01*
X180728219Y-153450988D01*
X180908311Y-153720515D01*
X181032361Y-154019999D01*
X181095600Y-154337921D01*
X181095600Y-154662079D01*
X181032361Y-154980001D01*
X180908311Y-155279485D01*
X180728219Y-155549012D01*
X180499012Y-155778219D01*
X180229485Y-155958311D01*
X180052750Y-156031517D01*
X179930004Y-156082360D01*
X179930003Y-156082360D01*
X179930001Y-156082361D01*
X179612079Y-156145600D01*
X179287921Y-156145600D01*
X178969999Y-156082361D01*
X178969997Y-156082360D01*
X178969996Y-156082360D01*
X178847250Y-156031517D01*
X178670515Y-155958311D01*
X178400988Y-155778219D01*
X178171781Y-155549012D01*
X177991689Y-155279485D01*
X177867639Y-154980001D01*
X177804400Y-154662079D01*
X177804400Y-154337921D01*
X177867639Y-154019999D01*
X177991689Y-153720515D01*
X178171781Y-153450988D01*
X178400988Y-153221781D01*
X178670515Y-153041689D01*
X178859369Y-152963463D01*
X178969996Y-152917640D01*
X178969997Y-152917640D01*
X178969999Y-152917639D01*
X179287921Y-152854400D01*
X179612079Y-152854400D01*
X179930001Y-152917639D01*
X179930001Y-152917639D01*
G37*
G36*
X176866015Y-151267668D02*
X176997049Y-151321944D01*
X177114975Y-151400740D01*
X177215260Y-151501025D01*
X177294056Y-151618951D01*
X177348332Y-151749985D01*
X177376000Y-151889085D01*
X177376000Y-152030915D01*
X177348332Y-152170015D01*
X177294056Y-152301049D01*
X177215260Y-152418975D01*
X177114975Y-152519260D01*
X176997049Y-152598056D01*
X176866015Y-152652332D01*
X176726915Y-152680000D01*
X176585085Y-152680000D01*
X176445985Y-152652332D01*
X176314951Y-152598056D01*
X176197025Y-152519260D01*
X176096740Y-152418975D01*
X176017944Y-152301049D01*
X175963668Y-152170015D01*
X175936000Y-152030915D01*
X175936000Y-151889085D01*
X175963668Y-151749985D01*
X176017944Y-151618951D01*
X176096740Y-151501025D01*
X176197025Y-151400740D01*
X176314951Y-151321944D01*
X176445985Y-151267668D01*
X176585085Y-151240000D01*
X176726915Y-151240000D01*
X176866015Y-151267668D01*
X176866015Y-151267668D01*
G37*
G36*
X101644015Y-151267668D02*
X101775049Y-151321944D01*
X101892975Y-151400740D01*
X101993260Y-151501025D01*
X102072056Y-151618951D01*
X102126332Y-151749985D01*
X102154000Y-151889085D01*
X102154000Y-152030915D01*
X102126332Y-152170015D01*
X102072056Y-152301049D01*
X101993260Y-152418975D01*
X101892975Y-152519260D01*
X101775049Y-152598056D01*
X101644015Y-152652332D01*
X101504915Y-152680000D01*
X101363085Y-152680000D01*
X101223985Y-152652332D01*
X101092951Y-152598056D01*
X100975025Y-152519260D01*
X100874740Y-152418975D01*
X100795944Y-152301049D01*
X100741668Y-152170015D01*
X100714000Y-152030915D01*
X100714000Y-151889085D01*
X100741668Y-151749985D01*
X100795944Y-151618951D01*
X100874740Y-151501025D01*
X100975025Y-151400740D01*
X101092951Y-151321944D01*
X101223985Y-151267668D01*
X101363085Y-151240000D01*
X101504915Y-151240000D01*
X101644015Y-151267668D01*
X101644015Y-151267668D01*
G37*
G36*
X99612015Y-151267668D02*
X99743049Y-151321944D01*
X99860975Y-151400740D01*
X99961260Y-151501025D01*
X100040056Y-151618951D01*
X100094332Y-151749985D01*
X100122000Y-151889085D01*
X100122000Y-152030915D01*
X100094332Y-152170015D01*
X100040056Y-152301049D01*
X99961260Y-152418975D01*
X99860975Y-152519260D01*
X99743049Y-152598056D01*
X99612015Y-152652332D01*
X99472915Y-152680000D01*
X99331085Y-152680000D01*
X99191985Y-152652332D01*
X99060951Y-152598056D01*
X98943025Y-152519260D01*
X98842740Y-152418975D01*
X98763944Y-152301049D01*
X98709668Y-152170015D01*
X98682000Y-152030915D01*
X98682000Y-151889085D01*
X98709668Y-151749985D01*
X98763944Y-151618951D01*
X98842740Y-151501025D01*
X98943025Y-151400740D01*
X99060951Y-151321944D01*
X99191985Y-151267668D01*
X99331085Y-151240000D01*
X99472915Y-151240000D01*
X99612015Y-151267668D01*
X99612015Y-151267668D01*
G37*
G36*
X97580015Y-151267668D02*
X97711049Y-151321944D01*
X97828975Y-151400740D01*
X97929260Y-151501025D01*
X98008056Y-151618951D01*
X98062332Y-151749985D01*
X98090000Y-151889085D01*
X98090000Y-152030915D01*
X98062332Y-152170015D01*
X98008056Y-152301049D01*
X97929260Y-152418975D01*
X97828975Y-152519260D01*
X97711049Y-152598056D01*
X97580015Y-152652332D01*
X97440915Y-152680000D01*
X97299085Y-152680000D01*
X97159985Y-152652332D01*
X97028951Y-152598056D01*
X96911025Y-152519260D01*
X96810740Y-152418975D01*
X96731944Y-152301049D01*
X96677668Y-152170015D01*
X96650000Y-152030915D01*
X96650000Y-151889085D01*
X96677668Y-151749985D01*
X96731944Y-151618951D01*
X96810740Y-151501025D01*
X96911025Y-151400740D01*
X97028951Y-151321944D01*
X97159985Y-151267668D01*
X97299085Y-151240000D01*
X97440915Y-151240000D01*
X97580015Y-151267668D01*
X97580015Y-151267668D01*
G37*
G36*
X95548015Y-151267668D02*
X95679049Y-151321944D01*
X95796975Y-151400740D01*
X95897260Y-151501025D01*
X95976056Y-151618951D01*
X96030332Y-151749985D01*
X96058000Y-151889085D01*
X96058000Y-152030915D01*
X96030332Y-152170015D01*
X95976056Y-152301049D01*
X95897260Y-152418975D01*
X95796975Y-152519260D01*
X95679049Y-152598056D01*
X95548015Y-152652332D01*
X95408915Y-152680000D01*
X95267085Y-152680000D01*
X95127985Y-152652332D01*
X94996951Y-152598056D01*
X94879025Y-152519260D01*
X94778740Y-152418975D01*
X94699944Y-152301049D01*
X94645668Y-152170015D01*
X94618000Y-152030915D01*
X94618000Y-151889085D01*
X94645668Y-151749985D01*
X94699944Y-151618951D01*
X94778740Y-151501025D01*
X94879025Y-151400740D01*
X94996951Y-151321944D01*
X95127985Y-151267668D01*
X95267085Y-151240000D01*
X95408915Y-151240000D01*
X95548015Y-151267668D01*
X95548015Y-151267668D01*
G37*
G36*
X117394015Y-151267668D02*
X117525049Y-151321944D01*
X117642975Y-151400740D01*
X117743260Y-151501025D01*
X117822056Y-151618951D01*
X117876332Y-151749985D01*
X117904000Y-151889085D01*
X117904000Y-152030915D01*
X117876332Y-152170015D01*
X117822056Y-152301049D01*
X117743260Y-152418975D01*
X117642975Y-152519260D01*
X117525049Y-152598056D01*
X117394015Y-152652332D01*
X117254915Y-152680000D01*
X117113085Y-152680000D01*
X116973985Y-152652332D01*
X116842951Y-152598056D01*
X116725025Y-152519260D01*
X116624740Y-152418975D01*
X116545944Y-152301049D01*
X116491668Y-152170015D01*
X116464000Y-152030915D01*
X116464000Y-151889085D01*
X116491668Y-151749985D01*
X116545944Y-151618951D01*
X116624740Y-151501025D01*
X116725025Y-151400740D01*
X116842951Y-151321944D01*
X116973985Y-151267668D01*
X117113085Y-151240000D01*
X117254915Y-151240000D01*
X117394015Y-151267668D01*
X117394015Y-151267668D01*
G37*
G36*
X133144015Y-151267668D02*
X133275049Y-151321944D01*
X133392975Y-151400740D01*
X133493260Y-151501025D01*
X133572056Y-151618951D01*
X133626332Y-151749985D01*
X133654000Y-151889085D01*
X133654000Y-152030915D01*
X133626332Y-152170015D01*
X133572056Y-152301049D01*
X133493260Y-152418975D01*
X133392975Y-152519260D01*
X133275049Y-152598056D01*
X133144015Y-152652332D01*
X133004915Y-152680000D01*
X132863085Y-152680000D01*
X132723985Y-152652332D01*
X132592951Y-152598056D01*
X132475025Y-152519260D01*
X132374740Y-152418975D01*
X132295944Y-152301049D01*
X132241668Y-152170015D01*
X132214000Y-152030915D01*
X132214000Y-151889085D01*
X132241668Y-151749985D01*
X132295944Y-151618951D01*
X132374740Y-151501025D01*
X132475025Y-151400740D01*
X132592951Y-151321944D01*
X132723985Y-151267668D01*
X132863085Y-151240000D01*
X133004915Y-151240000D01*
X133144015Y-151267668D01*
X133144015Y-151267668D01*
G37*
G36*
X148894015Y-151267668D02*
X149025049Y-151321944D01*
X149142975Y-151400740D01*
X149243260Y-151501025D01*
X149322056Y-151618951D01*
X149376332Y-151749985D01*
X149404000Y-151889085D01*
X149404000Y-152030915D01*
X149376332Y-152170015D01*
X149322056Y-152301049D01*
X149243260Y-152418975D01*
X149142975Y-152519260D01*
X149025049Y-152598056D01*
X148894015Y-152652332D01*
X148754915Y-152680000D01*
X148613085Y-152680000D01*
X148473985Y-152652332D01*
X148342951Y-152598056D01*
X148225025Y-152519260D01*
X148124740Y-152418975D01*
X148045944Y-152301049D01*
X147991668Y-152170015D01*
X147964000Y-152030915D01*
X147964000Y-151889085D01*
X147991668Y-151749985D01*
X148045944Y-151618951D01*
X148124740Y-151501025D01*
X148225025Y-151400740D01*
X148342951Y-151321944D01*
X148473985Y-151267668D01*
X148613085Y-151240000D01*
X148754915Y-151240000D01*
X148894015Y-151267668D01*
X148894015Y-151267668D01*
G37*
G36*
X172802015Y-151267668D02*
X172933049Y-151321944D01*
X173050975Y-151400740D01*
X173151260Y-151501025D01*
X173230056Y-151618951D01*
X173284332Y-151749985D01*
X173312000Y-151889085D01*
X173312000Y-152030915D01*
X173284332Y-152170015D01*
X173230056Y-152301049D01*
X173151260Y-152418975D01*
X173050975Y-152519260D01*
X172933049Y-152598056D01*
X172802015Y-152652332D01*
X172662915Y-152680000D01*
X172521085Y-152680000D01*
X172381985Y-152652332D01*
X172250951Y-152598056D01*
X172133025Y-152519260D01*
X172032740Y-152418975D01*
X171953944Y-152301049D01*
X171899668Y-152170015D01*
X171872000Y-152030915D01*
X171872000Y-151889085D01*
X171899668Y-151749985D01*
X171953944Y-151618951D01*
X172032740Y-151501025D01*
X172133025Y-151400740D01*
X172250951Y-151321944D01*
X172381985Y-151267668D01*
X172521085Y-151240000D01*
X172662915Y-151240000D01*
X172802015Y-151267668D01*
X172802015Y-151267668D01*
G37*
G36*
X174834015Y-151267668D02*
X174965049Y-151321944D01*
X175082975Y-151400740D01*
X175183260Y-151501025D01*
X175262056Y-151618951D01*
X175316332Y-151749985D01*
X175344000Y-151889085D01*
X175344000Y-152030915D01*
X175316332Y-152170015D01*
X175262056Y-152301049D01*
X175183260Y-152418975D01*
X175082975Y-152519260D01*
X174965049Y-152598056D01*
X174834015Y-152652332D01*
X174694915Y-152680000D01*
X174553085Y-152680000D01*
X174413985Y-152652332D01*
X174282951Y-152598056D01*
X174165025Y-152519260D01*
X174064740Y-152418975D01*
X173985944Y-152301049D01*
X173931668Y-152170015D01*
X173904000Y-152030915D01*
X173904000Y-151889085D01*
X173931668Y-151749985D01*
X173985944Y-151618951D01*
X174064740Y-151501025D01*
X174165025Y-151400740D01*
X174282951Y-151321944D01*
X174413985Y-151267668D01*
X174553085Y-151240000D01*
X174694915Y-151240000D01*
X174834015Y-151267668D01*
X174834015Y-151267668D01*
G37*
G36*
X146862015Y-151267668D02*
X146993049Y-151321944D01*
X147110975Y-151400740D01*
X147211260Y-151501025D01*
X147290056Y-151618951D01*
X147344332Y-151749985D01*
X147372000Y-151889085D01*
X147372000Y-152030915D01*
X147344332Y-152170015D01*
X147290056Y-152301049D01*
X147211260Y-152418975D01*
X147110975Y-152519260D01*
X146993049Y-152598056D01*
X146862015Y-152652332D01*
X146722915Y-152680000D01*
X146581085Y-152680000D01*
X146441985Y-152652332D01*
X146310951Y-152598056D01*
X146193025Y-152519260D01*
X146092740Y-152418975D01*
X146013944Y-152301049D01*
X145959668Y-152170015D01*
X145932000Y-152030915D01*
X145932000Y-151889085D01*
X145959668Y-151749985D01*
X146013944Y-151618951D01*
X146092740Y-151501025D01*
X146193025Y-151400740D01*
X146310951Y-151321944D01*
X146441985Y-151267668D01*
X146581085Y-151240000D01*
X146722915Y-151240000D01*
X146862015Y-151267668D01*
X146862015Y-151267668D01*
G37*
G36*
X170770015Y-151267668D02*
X170901049Y-151321944D01*
X171018975Y-151400740D01*
X171119260Y-151501025D01*
X171198056Y-151618951D01*
X171252332Y-151749985D01*
X171280000Y-151889085D01*
X171280000Y-152030915D01*
X171252332Y-152170015D01*
X171198056Y-152301049D01*
X171119260Y-152418975D01*
X171018975Y-152519260D01*
X170901049Y-152598056D01*
X170770015Y-152652332D01*
X170630915Y-152680000D01*
X170489085Y-152680000D01*
X170349985Y-152652332D01*
X170218951Y-152598056D01*
X170101025Y-152519260D01*
X170000740Y-152418975D01*
X169921944Y-152301049D01*
X169867668Y-152170015D01*
X169840000Y-152030915D01*
X169840000Y-151889085D01*
X169867668Y-151749985D01*
X169921944Y-151618951D01*
X170000740Y-151501025D01*
X170101025Y-151400740D01*
X170218951Y-151321944D01*
X170349985Y-151267668D01*
X170489085Y-151240000D01*
X170630915Y-151240000D01*
X170770015Y-151267668D01*
X170770015Y-151267668D01*
G37*
G36*
X129080015Y-151267668D02*
X129211049Y-151321944D01*
X129328975Y-151400740D01*
X129429260Y-151501025D01*
X129508056Y-151618951D01*
X129562332Y-151749985D01*
X129590000Y-151889085D01*
X129590000Y-152030915D01*
X129562332Y-152170015D01*
X129508056Y-152301049D01*
X129429260Y-152418975D01*
X129328975Y-152519260D01*
X129211049Y-152598056D01*
X129080015Y-152652332D01*
X128940915Y-152680000D01*
X128799085Y-152680000D01*
X128659985Y-152652332D01*
X128528951Y-152598056D01*
X128411025Y-152519260D01*
X128310740Y-152418975D01*
X128231944Y-152301049D01*
X128177668Y-152170015D01*
X128150000Y-152030915D01*
X128150000Y-151889085D01*
X128177668Y-151749985D01*
X128231944Y-151618951D01*
X128310740Y-151501025D01*
X128411025Y-151400740D01*
X128528951Y-151321944D01*
X128659985Y-151267668D01*
X128799085Y-151240000D01*
X128940915Y-151240000D01*
X129080015Y-151267668D01*
X129080015Y-151267668D01*
G37*
G36*
X144830015Y-151267668D02*
X144961049Y-151321944D01*
X145078975Y-151400740D01*
X145179260Y-151501025D01*
X145258056Y-151618951D01*
X145312332Y-151749985D01*
X145340000Y-151889085D01*
X145340000Y-152030915D01*
X145312332Y-152170015D01*
X145258056Y-152301049D01*
X145179260Y-152418975D01*
X145078975Y-152519260D01*
X144961049Y-152598056D01*
X144830015Y-152652332D01*
X144690915Y-152680000D01*
X144549085Y-152680000D01*
X144409985Y-152652332D01*
X144278951Y-152598056D01*
X144161025Y-152519260D01*
X144060740Y-152418975D01*
X143981944Y-152301049D01*
X143927668Y-152170015D01*
X143900000Y-152030915D01*
X143900000Y-151889085D01*
X143927668Y-151749985D01*
X143981944Y-151618951D01*
X144060740Y-151501025D01*
X144161025Y-151400740D01*
X144278951Y-151321944D01*
X144409985Y-151267668D01*
X144549085Y-151240000D01*
X144690915Y-151240000D01*
X144830015Y-151267668D01*
X144830015Y-151267668D01*
G37*
G36*
X111298015Y-151267668D02*
X111429049Y-151321944D01*
X111546975Y-151400740D01*
X111647260Y-151501025D01*
X111726056Y-151618951D01*
X111780332Y-151749985D01*
X111808000Y-151889085D01*
X111808000Y-152030915D01*
X111780332Y-152170015D01*
X111726056Y-152301049D01*
X111647260Y-152418975D01*
X111546975Y-152519260D01*
X111429049Y-152598056D01*
X111298015Y-152652332D01*
X111158915Y-152680000D01*
X111017085Y-152680000D01*
X110877985Y-152652332D01*
X110746951Y-152598056D01*
X110629025Y-152519260D01*
X110528740Y-152418975D01*
X110449944Y-152301049D01*
X110395668Y-152170015D01*
X110368000Y-152030915D01*
X110368000Y-151889085D01*
X110395668Y-151749985D01*
X110449944Y-151618951D01*
X110528740Y-151501025D01*
X110629025Y-151400740D01*
X110746951Y-151321944D01*
X110877985Y-151267668D01*
X111017085Y-151240000D01*
X111158915Y-151240000D01*
X111298015Y-151267668D01*
X111298015Y-151267668D01*
G37*
G36*
X127048015Y-151267668D02*
X127179049Y-151321944D01*
X127296975Y-151400740D01*
X127397260Y-151501025D01*
X127476056Y-151618951D01*
X127530332Y-151749985D01*
X127558000Y-151889085D01*
X127558000Y-152030915D01*
X127530332Y-152170015D01*
X127476056Y-152301049D01*
X127397260Y-152418975D01*
X127296975Y-152519260D01*
X127179049Y-152598056D01*
X127048015Y-152652332D01*
X126908915Y-152680000D01*
X126767085Y-152680000D01*
X126627985Y-152652332D01*
X126496951Y-152598056D01*
X126379025Y-152519260D01*
X126278740Y-152418975D01*
X126199944Y-152301049D01*
X126145668Y-152170015D01*
X126118000Y-152030915D01*
X126118000Y-151889085D01*
X126145668Y-151749985D01*
X126199944Y-151618951D01*
X126278740Y-151501025D01*
X126379025Y-151400740D01*
X126496951Y-151321944D01*
X126627985Y-151267668D01*
X126767085Y-151240000D01*
X126908915Y-151240000D01*
X127048015Y-151267668D01*
X127048015Y-151267668D01*
G37*
G36*
X142798015Y-151267668D02*
X142929049Y-151321944D01*
X143046975Y-151400740D01*
X143147260Y-151501025D01*
X143226056Y-151618951D01*
X143280332Y-151749985D01*
X143308000Y-151889085D01*
X143308000Y-152030915D01*
X143280332Y-152170015D01*
X143226056Y-152301049D01*
X143147260Y-152418975D01*
X143046975Y-152519260D01*
X142929049Y-152598056D01*
X142798015Y-152652332D01*
X142658915Y-152680000D01*
X142517085Y-152680000D01*
X142377985Y-152652332D01*
X142246951Y-152598056D01*
X142129025Y-152519260D01*
X142028740Y-152418975D01*
X141949944Y-152301049D01*
X141895668Y-152170015D01*
X141868000Y-152030915D01*
X141868000Y-151889085D01*
X141895668Y-151749985D01*
X141949944Y-151618951D01*
X142028740Y-151501025D01*
X142129025Y-151400740D01*
X142246951Y-151321944D01*
X142377985Y-151267668D01*
X142517085Y-151240000D01*
X142658915Y-151240000D01*
X142798015Y-151267668D01*
X142798015Y-151267668D01*
G37*
G36*
X115362015Y-151267668D02*
X115493049Y-151321944D01*
X115610975Y-151400740D01*
X115711260Y-151501025D01*
X115790056Y-151618951D01*
X115844332Y-151749985D01*
X115872000Y-151889085D01*
X115872000Y-152030915D01*
X115844332Y-152170015D01*
X115790056Y-152301049D01*
X115711260Y-152418975D01*
X115610975Y-152519260D01*
X115493049Y-152598056D01*
X115362015Y-152652332D01*
X115222915Y-152680000D01*
X115081085Y-152680000D01*
X114941985Y-152652332D01*
X114810951Y-152598056D01*
X114693025Y-152519260D01*
X114592740Y-152418975D01*
X114513944Y-152301049D01*
X114459668Y-152170015D01*
X114432000Y-152030915D01*
X114432000Y-151889085D01*
X114459668Y-151749985D01*
X114513944Y-151618951D01*
X114592740Y-151501025D01*
X114693025Y-151400740D01*
X114810951Y-151321944D01*
X114941985Y-151267668D01*
X115081085Y-151240000D01*
X115222915Y-151240000D01*
X115362015Y-151267668D01*
X115362015Y-151267668D01*
G37*
G36*
X113330015Y-151267668D02*
X113461049Y-151321944D01*
X113578975Y-151400740D01*
X113679260Y-151501025D01*
X113758056Y-151618951D01*
X113812332Y-151749985D01*
X113840000Y-151889085D01*
X113840000Y-152030915D01*
X113812332Y-152170015D01*
X113758056Y-152301049D01*
X113679260Y-152418975D01*
X113578975Y-152519260D01*
X113461049Y-152598056D01*
X113330015Y-152652332D01*
X113190915Y-152680000D01*
X113049085Y-152680000D01*
X112909985Y-152652332D01*
X112778951Y-152598056D01*
X112661025Y-152519260D01*
X112560740Y-152418975D01*
X112481944Y-152301049D01*
X112427668Y-152170015D01*
X112400000Y-152030915D01*
X112400000Y-151889085D01*
X112427668Y-151749985D01*
X112481944Y-151618951D01*
X112560740Y-151501025D01*
X112661025Y-151400740D01*
X112778951Y-151321944D01*
X112909985Y-151267668D01*
X113049085Y-151240000D01*
X113190915Y-151240000D01*
X113330015Y-151267668D01*
X113330015Y-151267668D01*
G37*
G36*
X131112015Y-151267668D02*
X131243049Y-151321944D01*
X131360975Y-151400740D01*
X131461260Y-151501025D01*
X131540056Y-151618951D01*
X131594332Y-151749985D01*
X131622000Y-151889085D01*
X131622000Y-152030915D01*
X131594332Y-152170015D01*
X131540056Y-152301049D01*
X131461260Y-152418975D01*
X131360975Y-152519260D01*
X131243049Y-152598056D01*
X131112015Y-152652332D01*
X130972915Y-152680000D01*
X130831085Y-152680000D01*
X130691985Y-152652332D01*
X130560951Y-152598056D01*
X130443025Y-152519260D01*
X130342740Y-152418975D01*
X130263944Y-152301049D01*
X130209668Y-152170015D01*
X130182000Y-152030915D01*
X130182000Y-151889085D01*
X130209668Y-151749985D01*
X130263944Y-151618951D01*
X130342740Y-151501025D01*
X130443025Y-151400740D01*
X130560951Y-151321944D01*
X130691985Y-151267668D01*
X130831085Y-151240000D01*
X130972915Y-151240000D01*
X131112015Y-151267668D01*
X131112015Y-151267668D01*
G37*
G36*
X153626277Y-149830573D02*
X153861045Y-149927817D01*
X154072330Y-150068993D01*
X154252007Y-150248670D01*
X154393183Y-150459955D01*
X154490427Y-150694723D01*
X154540000Y-150943945D01*
X154540000Y-151198055D01*
X154490427Y-151447277D01*
X154393183Y-151682045D01*
X154252007Y-151893330D01*
X154072330Y-152073007D01*
X153861045Y-152214183D01*
X153626277Y-152311427D01*
X153377055Y-152361000D01*
X153122945Y-152361000D01*
X152873723Y-152311427D01*
X152638955Y-152214183D01*
X152427670Y-152073007D01*
X152247993Y-151893330D01*
X152106817Y-151682045D01*
X152009573Y-151447277D01*
X151960000Y-151198055D01*
X151960000Y-150943945D01*
X152009573Y-150694723D01*
X152106817Y-150459955D01*
X152247993Y-150248670D01*
X152427670Y-150068993D01*
X152638955Y-149927817D01*
X152873723Y-149830573D01*
X153122945Y-149781000D01*
X153377055Y-149781000D01*
X153626277Y-149830573D01*
X153626277Y-149830573D01*
G37*
G36*
X181604277Y-149830573D02*
X181839045Y-149927817D01*
X182050330Y-150068993D01*
X182230007Y-150248670D01*
X182371183Y-150459955D01*
X182468427Y-150694723D01*
X182518000Y-150943945D01*
X182518000Y-151198055D01*
X182468427Y-151447277D01*
X182371183Y-151682045D01*
X182230007Y-151893330D01*
X182050330Y-152073007D01*
X181839045Y-152214183D01*
X181604277Y-152311427D01*
X181355055Y-152361000D01*
X181100945Y-152361000D01*
X180851723Y-152311427D01*
X180616955Y-152214183D01*
X180405670Y-152073007D01*
X180225993Y-151893330D01*
X180084817Y-151682045D01*
X179987573Y-151447277D01*
X179938000Y-151198055D01*
X179938000Y-150943945D01*
X179987573Y-150694723D01*
X180084817Y-150459955D01*
X180225993Y-150248670D01*
X180405670Y-150068993D01*
X180616955Y-149927817D01*
X180851723Y-149830573D01*
X181100945Y-149781000D01*
X181355055Y-149781000D01*
X181604277Y-149830573D01*
X181604277Y-149830573D01*
G37*
G36*
X165348277Y-149830573D02*
X165583045Y-149927817D01*
X165794330Y-150068993D01*
X165974007Y-150248670D01*
X166115183Y-150459955D01*
X166212427Y-150694723D01*
X166262000Y-150943945D01*
X166262000Y-151198055D01*
X166212427Y-151447277D01*
X166115183Y-151682045D01*
X165974007Y-151893330D01*
X165794330Y-152073007D01*
X165583045Y-152214183D01*
X165348277Y-152311427D01*
X165099055Y-152361000D01*
X164844945Y-152361000D01*
X164595723Y-152311427D01*
X164360955Y-152214183D01*
X164149670Y-152073007D01*
X163969993Y-151893330D01*
X163828817Y-151682045D01*
X163731573Y-151447277D01*
X163682000Y-151198055D01*
X163682000Y-150943945D01*
X163731573Y-150694723D01*
X163828817Y-150459955D01*
X163969993Y-150248670D01*
X164149670Y-150068993D01*
X164360955Y-149927817D01*
X164595723Y-149830573D01*
X164844945Y-149781000D01*
X165099055Y-149781000D01*
X165348277Y-149830573D01*
X165348277Y-149830573D01*
G37*
G36*
X90126277Y-149830573D02*
X90361045Y-149927817D01*
X90572330Y-150068993D01*
X90752007Y-150248670D01*
X90893183Y-150459955D01*
X90990427Y-150694723D01*
X91040000Y-150943945D01*
X91040000Y-151198055D01*
X90990427Y-151447277D01*
X90893183Y-151682045D01*
X90752007Y-151893330D01*
X90572330Y-152073007D01*
X90361045Y-152214183D01*
X90126277Y-152311427D01*
X89877055Y-152361000D01*
X89622945Y-152361000D01*
X89373723Y-152311427D01*
X89138955Y-152214183D01*
X88927670Y-152073007D01*
X88747993Y-151893330D01*
X88606817Y-151682045D01*
X88509573Y-151447277D01*
X88460000Y-151198055D01*
X88460000Y-150943945D01*
X88509573Y-150694723D01*
X88606817Y-150459955D01*
X88747993Y-150248670D01*
X88927670Y-150068993D01*
X89138955Y-149927817D01*
X89373723Y-149830573D01*
X89622945Y-149781000D01*
X89877055Y-149781000D01*
X90126277Y-149830573D01*
X90126277Y-149830573D01*
G37*
G36*
X83470000Y-151470000D02*
X81530000Y-151470000D01*
X81530000Y-149530000D01*
X83470000Y-149530000D01*
X83470000Y-151470000D01*
X83470000Y-151470000D01*
G37*
G36*
X130096015Y-149489668D02*
X130227049Y-149543944D01*
X130344975Y-149622740D01*
X130445260Y-149723025D01*
X130524056Y-149840951D01*
X130578332Y-149971985D01*
X130606000Y-150111085D01*
X130606000Y-150252915D01*
X130578332Y-150392015D01*
X130524056Y-150523049D01*
X130445260Y-150640975D01*
X130344975Y-150741260D01*
X130227049Y-150820056D01*
X130096015Y-150874332D01*
X129956915Y-150902000D01*
X129815085Y-150902000D01*
X129675985Y-150874332D01*
X129544951Y-150820056D01*
X129427025Y-150741260D01*
X129326740Y-150640975D01*
X129247944Y-150523049D01*
X129193668Y-150392015D01*
X129166000Y-150252915D01*
X129166000Y-150111085D01*
X129193668Y-149971985D01*
X129247944Y-149840951D01*
X129326740Y-149723025D01*
X129427025Y-149622740D01*
X129544951Y-149543944D01*
X129675985Y-149489668D01*
X129815085Y-149462000D01*
X129956915Y-149462000D01*
X130096015Y-149489668D01*
X130096015Y-149489668D01*
G37*
G36*
X132128015Y-149489668D02*
X132259049Y-149543944D01*
X132376975Y-149622740D01*
X132477260Y-149723025D01*
X132556056Y-149840951D01*
X132610332Y-149971985D01*
X132638000Y-150111085D01*
X132638000Y-150252915D01*
X132610332Y-150392015D01*
X132556056Y-150523049D01*
X132477260Y-150640975D01*
X132376975Y-150741260D01*
X132259049Y-150820056D01*
X132128015Y-150874332D01*
X131988915Y-150902000D01*
X131847085Y-150902000D01*
X131707985Y-150874332D01*
X131576951Y-150820056D01*
X131459025Y-150741260D01*
X131358740Y-150640975D01*
X131279944Y-150523049D01*
X131225668Y-150392015D01*
X131198000Y-150252915D01*
X131198000Y-150111085D01*
X131225668Y-149971985D01*
X131279944Y-149840951D01*
X131358740Y-149723025D01*
X131459025Y-149622740D01*
X131576951Y-149543944D01*
X131707985Y-149489668D01*
X131847085Y-149462000D01*
X131988915Y-149462000D01*
X132128015Y-149489668D01*
X132128015Y-149489668D01*
G37*
G36*
X147878015Y-149489668D02*
X148009049Y-149543944D01*
X148126975Y-149622740D01*
X148227260Y-149723025D01*
X148306056Y-149840951D01*
X148360332Y-149971985D01*
X148388000Y-150111085D01*
X148388000Y-150252915D01*
X148360332Y-150392015D01*
X148306056Y-150523049D01*
X148227260Y-150640975D01*
X148126975Y-150741260D01*
X148009049Y-150820056D01*
X147878015Y-150874332D01*
X147738915Y-150902000D01*
X147597085Y-150902000D01*
X147457985Y-150874332D01*
X147326951Y-150820056D01*
X147209025Y-150741260D01*
X147108740Y-150640975D01*
X147029944Y-150523049D01*
X146975668Y-150392015D01*
X146948000Y-150252915D01*
X146948000Y-150111085D01*
X146975668Y-149971985D01*
X147029944Y-149840951D01*
X147108740Y-149723025D01*
X147209025Y-149622740D01*
X147326951Y-149543944D01*
X147457985Y-149489668D01*
X147597085Y-149462000D01*
X147738915Y-149462000D01*
X147878015Y-149489668D01*
X147878015Y-149489668D01*
G37*
G36*
X169754015Y-149489668D02*
X169885049Y-149543944D01*
X170002975Y-149622740D01*
X170103260Y-149723025D01*
X170182056Y-149840951D01*
X170236332Y-149971985D01*
X170264000Y-150111085D01*
X170264000Y-150252915D01*
X170236332Y-150392015D01*
X170182056Y-150523049D01*
X170103260Y-150640975D01*
X170002975Y-150741260D01*
X169885049Y-150820056D01*
X169754015Y-150874332D01*
X169614915Y-150902000D01*
X169473085Y-150902000D01*
X169333985Y-150874332D01*
X169202951Y-150820056D01*
X169085025Y-150741260D01*
X168984740Y-150640975D01*
X168905944Y-150523049D01*
X168851668Y-150392015D01*
X168824000Y-150252915D01*
X168824000Y-150111085D01*
X168851668Y-149971985D01*
X168905944Y-149840951D01*
X168984740Y-149723025D01*
X169085025Y-149622740D01*
X169202951Y-149543944D01*
X169333985Y-149489668D01*
X169473085Y-149462000D01*
X169614915Y-149462000D01*
X169754015Y-149489668D01*
X169754015Y-149489668D01*
G37*
G36*
X173818015Y-149489668D02*
X173949049Y-149543944D01*
X174066975Y-149622740D01*
X174167260Y-149723025D01*
X174246056Y-149840951D01*
X174300332Y-149971985D01*
X174328000Y-150111085D01*
X174328000Y-150252915D01*
X174300332Y-150392015D01*
X174246056Y-150523049D01*
X174167260Y-150640975D01*
X174066975Y-150741260D01*
X173949049Y-150820056D01*
X173818015Y-150874332D01*
X173678915Y-150902000D01*
X173537085Y-150902000D01*
X173397985Y-150874332D01*
X173266951Y-150820056D01*
X173149025Y-150741260D01*
X173048740Y-150640975D01*
X172969944Y-150523049D01*
X172915668Y-150392015D01*
X172888000Y-150252915D01*
X172888000Y-150111085D01*
X172915668Y-149971985D01*
X172969944Y-149840951D01*
X173048740Y-149723025D01*
X173149025Y-149622740D01*
X173266951Y-149543944D01*
X173397985Y-149489668D01*
X173537085Y-149462000D01*
X173678915Y-149462000D01*
X173818015Y-149489668D01*
X173818015Y-149489668D01*
G37*
G36*
X175850015Y-149489668D02*
X175981049Y-149543944D01*
X176098975Y-149622740D01*
X176199260Y-149723025D01*
X176278056Y-149840951D01*
X176332332Y-149971985D01*
X176360000Y-150111085D01*
X176360000Y-150252915D01*
X176332332Y-150392015D01*
X176278056Y-150523049D01*
X176199260Y-150640975D01*
X176098975Y-150741260D01*
X175981049Y-150820056D01*
X175850015Y-150874332D01*
X175710915Y-150902000D01*
X175569085Y-150902000D01*
X175429985Y-150874332D01*
X175298951Y-150820056D01*
X175181025Y-150741260D01*
X175080740Y-150640975D01*
X175001944Y-150523049D01*
X174947668Y-150392015D01*
X174920000Y-150252915D01*
X174920000Y-150111085D01*
X174947668Y-149971985D01*
X175001944Y-149840951D01*
X175080740Y-149723025D01*
X175181025Y-149622740D01*
X175298951Y-149543944D01*
X175429985Y-149489668D01*
X175569085Y-149462000D01*
X175710915Y-149462000D01*
X175850015Y-149489668D01*
X175850015Y-149489668D01*
G37*
G36*
X114346015Y-149489668D02*
X114477049Y-149543944D01*
X114594975Y-149622740D01*
X114695260Y-149723025D01*
X114774056Y-149840951D01*
X114828332Y-149971985D01*
X114856000Y-150111085D01*
X114856000Y-150252915D01*
X114828332Y-150392015D01*
X114774056Y-150523049D01*
X114695260Y-150640975D01*
X114594975Y-150741260D01*
X114477049Y-150820056D01*
X114346015Y-150874332D01*
X114206915Y-150902000D01*
X114065085Y-150902000D01*
X113925985Y-150874332D01*
X113794951Y-150820056D01*
X113677025Y-150741260D01*
X113576740Y-150640975D01*
X113497944Y-150523049D01*
X113443668Y-150392015D01*
X113416000Y-150252915D01*
X113416000Y-150111085D01*
X113443668Y-149971985D01*
X113497944Y-149840951D01*
X113576740Y-149723025D01*
X113677025Y-149622740D01*
X113794951Y-149543944D01*
X113925985Y-149489668D01*
X114065085Y-149462000D01*
X114206915Y-149462000D01*
X114346015Y-149489668D01*
X114346015Y-149489668D01*
G37*
G36*
X94532015Y-149489668D02*
X94663049Y-149543944D01*
X94780975Y-149622740D01*
X94881260Y-149723025D01*
X94960056Y-149840951D01*
X95014332Y-149971985D01*
X95042000Y-150111085D01*
X95042000Y-150252915D01*
X95014332Y-150392015D01*
X94960056Y-150523049D01*
X94881260Y-150640975D01*
X94780975Y-150741260D01*
X94663049Y-150820056D01*
X94532015Y-150874332D01*
X94392915Y-150902000D01*
X94251085Y-150902000D01*
X94111985Y-150874332D01*
X93980951Y-150820056D01*
X93863025Y-150741260D01*
X93762740Y-150640975D01*
X93683944Y-150523049D01*
X93629668Y-150392015D01*
X93602000Y-150252915D01*
X93602000Y-150111085D01*
X93629668Y-149971985D01*
X93683944Y-149840951D01*
X93762740Y-149723025D01*
X93863025Y-149622740D01*
X93980951Y-149543944D01*
X94111985Y-149489668D01*
X94251085Y-149462000D01*
X94392915Y-149462000D01*
X94532015Y-149489668D01*
X94532015Y-149489668D01*
G37*
G36*
X96564015Y-149489668D02*
X96695049Y-149543944D01*
X96812975Y-149622740D01*
X96913260Y-149723025D01*
X96992056Y-149840951D01*
X97046332Y-149971985D01*
X97074000Y-150111085D01*
X97074000Y-150252915D01*
X97046332Y-150392015D01*
X96992056Y-150523049D01*
X96913260Y-150640975D01*
X96812975Y-150741260D01*
X96695049Y-150820056D01*
X96564015Y-150874332D01*
X96424915Y-150902000D01*
X96283085Y-150902000D01*
X96143985Y-150874332D01*
X96012951Y-150820056D01*
X95895025Y-150741260D01*
X95794740Y-150640975D01*
X95715944Y-150523049D01*
X95661668Y-150392015D01*
X95634000Y-150252915D01*
X95634000Y-150111085D01*
X95661668Y-149971985D01*
X95715944Y-149840951D01*
X95794740Y-149723025D01*
X95895025Y-149622740D01*
X96012951Y-149543944D01*
X96143985Y-149489668D01*
X96283085Y-149462000D01*
X96424915Y-149462000D01*
X96564015Y-149489668D01*
X96564015Y-149489668D01*
G37*
G36*
X98596015Y-149489668D02*
X98727049Y-149543944D01*
X98844975Y-149622740D01*
X98945260Y-149723025D01*
X99024056Y-149840951D01*
X99078332Y-149971985D01*
X99106000Y-150111085D01*
X99106000Y-150252915D01*
X99078332Y-150392015D01*
X99024056Y-150523049D01*
X98945260Y-150640975D01*
X98844975Y-150741260D01*
X98727049Y-150820056D01*
X98596015Y-150874332D01*
X98456915Y-150902000D01*
X98315085Y-150902000D01*
X98175985Y-150874332D01*
X98044951Y-150820056D01*
X97927025Y-150741260D01*
X97826740Y-150640975D01*
X97747944Y-150523049D01*
X97693668Y-150392015D01*
X97666000Y-150252915D01*
X97666000Y-150111085D01*
X97693668Y-149971985D01*
X97747944Y-149840951D01*
X97826740Y-149723025D01*
X97927025Y-149622740D01*
X98044951Y-149543944D01*
X98175985Y-149489668D01*
X98315085Y-149462000D01*
X98456915Y-149462000D01*
X98596015Y-149489668D01*
X98596015Y-149489668D01*
G37*
G36*
X171786015Y-149489668D02*
X171917049Y-149543944D01*
X172034975Y-149622740D01*
X172135260Y-149723025D01*
X172214056Y-149840951D01*
X172268332Y-149971985D01*
X172296000Y-150111085D01*
X172296000Y-150252915D01*
X172268332Y-150392015D01*
X172214056Y-150523049D01*
X172135260Y-150640975D01*
X172034975Y-150741260D01*
X171917049Y-150820056D01*
X171786015Y-150874332D01*
X171646915Y-150902000D01*
X171505085Y-150902000D01*
X171365985Y-150874332D01*
X171234951Y-150820056D01*
X171117025Y-150741260D01*
X171016740Y-150640975D01*
X170937944Y-150523049D01*
X170883668Y-150392015D01*
X170856000Y-150252915D01*
X170856000Y-150111085D01*
X170883668Y-149971985D01*
X170937944Y-149840951D01*
X171016740Y-149723025D01*
X171117025Y-149622740D01*
X171234951Y-149543944D01*
X171365985Y-149489668D01*
X171505085Y-149462000D01*
X171646915Y-149462000D01*
X171786015Y-149489668D01*
X171786015Y-149489668D01*
G37*
G36*
X141782015Y-149489668D02*
X141913049Y-149543944D01*
X142030975Y-149622740D01*
X142131260Y-149723025D01*
X142210056Y-149840951D01*
X142264332Y-149971985D01*
X142292000Y-150111085D01*
X142292000Y-150252915D01*
X142264332Y-150392015D01*
X142210056Y-150523049D01*
X142131260Y-150640975D01*
X142030975Y-150741260D01*
X141913049Y-150820056D01*
X141782015Y-150874332D01*
X141642915Y-150902000D01*
X141501085Y-150902000D01*
X141361985Y-150874332D01*
X141230951Y-150820056D01*
X141113025Y-150741260D01*
X141012740Y-150640975D01*
X140933944Y-150523049D01*
X140879668Y-150392015D01*
X140852000Y-150252915D01*
X140852000Y-150111085D01*
X140879668Y-149971985D01*
X140933944Y-149840951D01*
X141012740Y-149723025D01*
X141113025Y-149622740D01*
X141230951Y-149543944D01*
X141361985Y-149489668D01*
X141501085Y-149462000D01*
X141642915Y-149462000D01*
X141782015Y-149489668D01*
X141782015Y-149489668D01*
G37*
G36*
X110282015Y-149489668D02*
X110413049Y-149543944D01*
X110530975Y-149622740D01*
X110631260Y-149723025D01*
X110710056Y-149840951D01*
X110764332Y-149971985D01*
X110792000Y-150111085D01*
X110792000Y-150252915D01*
X110764332Y-150392015D01*
X110710056Y-150523049D01*
X110631260Y-150640975D01*
X110530975Y-150741260D01*
X110413049Y-150820056D01*
X110282015Y-150874332D01*
X110142915Y-150902000D01*
X110001085Y-150902000D01*
X109861985Y-150874332D01*
X109730951Y-150820056D01*
X109613025Y-150741260D01*
X109512740Y-150640975D01*
X109433944Y-150523049D01*
X109379668Y-150392015D01*
X109352000Y-150252915D01*
X109352000Y-150111085D01*
X109379668Y-149971985D01*
X109433944Y-149840951D01*
X109512740Y-149723025D01*
X109613025Y-149622740D01*
X109730951Y-149543944D01*
X109861985Y-149489668D01*
X110001085Y-149462000D01*
X110142915Y-149462000D01*
X110282015Y-149489668D01*
X110282015Y-149489668D01*
G37*
G36*
X143814015Y-149489668D02*
X143945049Y-149543944D01*
X144062975Y-149622740D01*
X144163260Y-149723025D01*
X144242056Y-149840951D01*
X144296332Y-149971985D01*
X144324000Y-150111085D01*
X144324000Y-150252915D01*
X144296332Y-150392015D01*
X144242056Y-150523049D01*
X144163260Y-150640975D01*
X144062975Y-150741260D01*
X143945049Y-150820056D01*
X143814015Y-150874332D01*
X143674915Y-150902000D01*
X143533085Y-150902000D01*
X143393985Y-150874332D01*
X143262951Y-150820056D01*
X143145025Y-150741260D01*
X143044740Y-150640975D01*
X142965944Y-150523049D01*
X142911668Y-150392015D01*
X142884000Y-150252915D01*
X142884000Y-150111085D01*
X142911668Y-149971985D01*
X142965944Y-149840951D01*
X143044740Y-149723025D01*
X143145025Y-149622740D01*
X143262951Y-149543944D01*
X143393985Y-149489668D01*
X143533085Y-149462000D01*
X143674915Y-149462000D01*
X143814015Y-149489668D01*
X143814015Y-149489668D01*
G37*
G36*
X128064015Y-149489668D02*
X128195049Y-149543944D01*
X128312975Y-149622740D01*
X128413260Y-149723025D01*
X128492056Y-149840951D01*
X128546332Y-149971985D01*
X128574000Y-150111085D01*
X128574000Y-150252915D01*
X128546332Y-150392015D01*
X128492056Y-150523049D01*
X128413260Y-150640975D01*
X128312975Y-150741260D01*
X128195049Y-150820056D01*
X128064015Y-150874332D01*
X127924915Y-150902000D01*
X127783085Y-150902000D01*
X127643985Y-150874332D01*
X127512951Y-150820056D01*
X127395025Y-150741260D01*
X127294740Y-150640975D01*
X127215944Y-150523049D01*
X127161668Y-150392015D01*
X127134000Y-150252915D01*
X127134000Y-150111085D01*
X127161668Y-149971985D01*
X127215944Y-149840951D01*
X127294740Y-149723025D01*
X127395025Y-149622740D01*
X127512951Y-149543944D01*
X127643985Y-149489668D01*
X127783085Y-149462000D01*
X127924915Y-149462000D01*
X128064015Y-149489668D01*
X128064015Y-149489668D01*
G37*
G36*
X116378015Y-149489668D02*
X116509049Y-149543944D01*
X116626975Y-149622740D01*
X116727260Y-149723025D01*
X116806056Y-149840951D01*
X116860332Y-149971985D01*
X116888000Y-150111085D01*
X116888000Y-150252915D01*
X116860332Y-150392015D01*
X116806056Y-150523049D01*
X116727260Y-150640975D01*
X116626975Y-150741260D01*
X116509049Y-150820056D01*
X116378015Y-150874332D01*
X116238915Y-150902000D01*
X116097085Y-150902000D01*
X115957985Y-150874332D01*
X115826951Y-150820056D01*
X115709025Y-150741260D01*
X115608740Y-150640975D01*
X115529944Y-150523049D01*
X115475668Y-150392015D01*
X115448000Y-150252915D01*
X115448000Y-150111085D01*
X115475668Y-149971985D01*
X115529944Y-149840951D01*
X115608740Y-149723025D01*
X115709025Y-149622740D01*
X115826951Y-149543944D01*
X115957985Y-149489668D01*
X116097085Y-149462000D01*
X116238915Y-149462000D01*
X116378015Y-149489668D01*
X116378015Y-149489668D01*
G37*
G36*
X126032015Y-149489668D02*
X126163049Y-149543944D01*
X126280975Y-149622740D01*
X126381260Y-149723025D01*
X126460056Y-149840951D01*
X126514332Y-149971985D01*
X126542000Y-150111085D01*
X126542000Y-150252915D01*
X126514332Y-150392015D01*
X126460056Y-150523049D01*
X126381260Y-150640975D01*
X126280975Y-150741260D01*
X126163049Y-150820056D01*
X126032015Y-150874332D01*
X125892915Y-150902000D01*
X125751085Y-150902000D01*
X125611985Y-150874332D01*
X125480951Y-150820056D01*
X125363025Y-150741260D01*
X125262740Y-150640975D01*
X125183944Y-150523049D01*
X125129668Y-150392015D01*
X125102000Y-150252915D01*
X125102000Y-150111085D01*
X125129668Y-149971985D01*
X125183944Y-149840951D01*
X125262740Y-149723025D01*
X125363025Y-149622740D01*
X125480951Y-149543944D01*
X125611985Y-149489668D01*
X125751085Y-149462000D01*
X125892915Y-149462000D01*
X126032015Y-149489668D01*
X126032015Y-149489668D01*
G37*
G36*
X145846015Y-149489668D02*
X145977049Y-149543944D01*
X146094975Y-149622740D01*
X146195260Y-149723025D01*
X146274056Y-149840951D01*
X146328332Y-149971985D01*
X146356000Y-150111085D01*
X146356000Y-150252915D01*
X146328332Y-150392015D01*
X146274056Y-150523049D01*
X146195260Y-150640975D01*
X146094975Y-150741260D01*
X145977049Y-150820056D01*
X145846015Y-150874332D01*
X145706915Y-150902000D01*
X145565085Y-150902000D01*
X145425985Y-150874332D01*
X145294951Y-150820056D01*
X145177025Y-150741260D01*
X145076740Y-150640975D01*
X144997944Y-150523049D01*
X144943668Y-150392015D01*
X144916000Y-150252915D01*
X144916000Y-150111085D01*
X144943668Y-149971985D01*
X144997944Y-149840951D01*
X145076740Y-149723025D01*
X145177025Y-149622740D01*
X145294951Y-149543944D01*
X145425985Y-149489668D01*
X145565085Y-149462000D01*
X145706915Y-149462000D01*
X145846015Y-149489668D01*
X145846015Y-149489668D01*
G37*
G36*
X112314015Y-149489668D02*
X112445049Y-149543944D01*
X112562975Y-149622740D01*
X112663260Y-149723025D01*
X112742056Y-149840951D01*
X112796332Y-149971985D01*
X112824000Y-150111085D01*
X112824000Y-150252915D01*
X112796332Y-150392015D01*
X112742056Y-150523049D01*
X112663260Y-150640975D01*
X112562975Y-150741260D01*
X112445049Y-150820056D01*
X112314015Y-150874332D01*
X112174915Y-150902000D01*
X112033085Y-150902000D01*
X111893985Y-150874332D01*
X111762951Y-150820056D01*
X111645025Y-150741260D01*
X111544740Y-150640975D01*
X111465944Y-150523049D01*
X111411668Y-150392015D01*
X111384000Y-150252915D01*
X111384000Y-150111085D01*
X111411668Y-149971985D01*
X111465944Y-149840951D01*
X111544740Y-149723025D01*
X111645025Y-149622740D01*
X111762951Y-149543944D01*
X111893985Y-149489668D01*
X112033085Y-149462000D01*
X112174915Y-149462000D01*
X112314015Y-149489668D01*
X112314015Y-149489668D01*
G37*
G36*
X100628015Y-149489668D02*
X100759049Y-149543944D01*
X100876975Y-149622740D01*
X100977260Y-149723025D01*
X101056056Y-149840951D01*
X101110332Y-149971985D01*
X101138000Y-150111085D01*
X101138000Y-150252915D01*
X101110332Y-150392015D01*
X101056056Y-150523049D01*
X100977260Y-150640975D01*
X100876975Y-150741260D01*
X100759049Y-150820056D01*
X100628015Y-150874332D01*
X100488915Y-150902000D01*
X100347085Y-150902000D01*
X100207985Y-150874332D01*
X100076951Y-150820056D01*
X99959025Y-150741260D01*
X99858740Y-150640975D01*
X99779944Y-150523049D01*
X99725668Y-150392015D01*
X99698000Y-150252915D01*
X99698000Y-150111085D01*
X99725668Y-149971985D01*
X99779944Y-149840951D01*
X99858740Y-149723025D01*
X99959025Y-149622740D01*
X100076951Y-149543944D01*
X100207985Y-149489668D01*
X100347085Y-149462000D01*
X100488915Y-149462000D01*
X100628015Y-149489668D01*
X100628015Y-149489668D01*
G37*
G36*
X136446015Y-144663668D02*
X136577049Y-144717944D01*
X136694975Y-144796740D01*
X136795260Y-144897025D01*
X136874056Y-145014951D01*
X136928332Y-145145985D01*
X136956000Y-145285085D01*
X136956000Y-145426915D01*
X136928332Y-145566015D01*
X136874056Y-145697049D01*
X136795260Y-145814975D01*
X136694975Y-145915260D01*
X136577049Y-145994056D01*
X136446015Y-146048332D01*
X136306915Y-146076000D01*
X136165085Y-146076000D01*
X136025985Y-146048332D01*
X135894951Y-145994056D01*
X135777025Y-145915260D01*
X135676740Y-145814975D01*
X135597944Y-145697049D01*
X135543668Y-145566015D01*
X135516000Y-145426915D01*
X135516000Y-145285085D01*
X135543668Y-145145985D01*
X135597944Y-145014951D01*
X135676740Y-144897025D01*
X135777025Y-144796740D01*
X135894951Y-144717944D01*
X136025985Y-144663668D01*
X136165085Y-144636000D01*
X136306915Y-144636000D01*
X136446015Y-144663668D01*
X136446015Y-144663668D01*
G37*
G36*
X91230015Y-144663668D02*
X91361049Y-144717944D01*
X91478975Y-144796740D01*
X91579260Y-144897025D01*
X91658056Y-145014951D01*
X91712332Y-145145985D01*
X91740000Y-145285085D01*
X91740000Y-145426915D01*
X91712332Y-145566015D01*
X91658056Y-145697049D01*
X91579260Y-145814975D01*
X91478975Y-145915260D01*
X91361049Y-145994056D01*
X91230015Y-146048332D01*
X91090915Y-146076000D01*
X90949085Y-146076000D01*
X90809985Y-146048332D01*
X90678951Y-145994056D01*
X90561025Y-145915260D01*
X90460740Y-145814975D01*
X90381944Y-145697049D01*
X90327668Y-145566015D01*
X90300000Y-145426915D01*
X90300000Y-145285085D01*
X90327668Y-145145985D01*
X90381944Y-145014951D01*
X90460740Y-144897025D01*
X90561025Y-144796740D01*
X90678951Y-144717944D01*
X90809985Y-144663668D01*
X90949085Y-144636000D01*
X91090915Y-144636000D01*
X91230015Y-144663668D01*
X91230015Y-144663668D01*
G37*
G36*
X104946015Y-144663668D02*
X105077049Y-144717944D01*
X105194975Y-144796740D01*
X105295260Y-144897025D01*
X105374056Y-145014951D01*
X105428332Y-145145985D01*
X105456000Y-145285085D01*
X105456000Y-145426915D01*
X105428332Y-145566015D01*
X105374056Y-145697049D01*
X105295260Y-145814975D01*
X105194975Y-145915260D01*
X105077049Y-145994056D01*
X104946015Y-146048332D01*
X104806915Y-146076000D01*
X104665085Y-146076000D01*
X104525985Y-146048332D01*
X104394951Y-145994056D01*
X104277025Y-145915260D01*
X104176740Y-145814975D01*
X104097944Y-145697049D01*
X104043668Y-145566015D01*
X104016000Y-145426915D01*
X104016000Y-145285085D01*
X104043668Y-145145985D01*
X104097944Y-145014951D01*
X104176740Y-144897025D01*
X104277025Y-144796740D01*
X104394951Y-144717944D01*
X104525985Y-144663668D01*
X104665085Y-144636000D01*
X104806915Y-144636000D01*
X104946015Y-144663668D01*
X104946015Y-144663668D01*
G37*
G36*
X93516015Y-144663668D02*
X93647049Y-144717944D01*
X93764975Y-144796740D01*
X93865260Y-144897025D01*
X93944056Y-145014951D01*
X93998332Y-145145985D01*
X94026000Y-145285085D01*
X94026000Y-145426915D01*
X93998332Y-145566015D01*
X93944056Y-145697049D01*
X93865260Y-145814975D01*
X93764975Y-145915260D01*
X93647049Y-145994056D01*
X93516015Y-146048332D01*
X93376915Y-146076000D01*
X93235085Y-146076000D01*
X93095985Y-146048332D01*
X92964951Y-145994056D01*
X92847025Y-145915260D01*
X92746740Y-145814975D01*
X92667944Y-145697049D01*
X92613668Y-145566015D01*
X92586000Y-145426915D01*
X92586000Y-145285085D01*
X92613668Y-145145985D01*
X92667944Y-145014951D01*
X92746740Y-144897025D01*
X92847025Y-144796740D01*
X92964951Y-144717944D01*
X93095985Y-144663668D01*
X93235085Y-144636000D01*
X93376915Y-144636000D01*
X93516015Y-144663668D01*
X93516015Y-144663668D01*
G37*
G36*
X102660015Y-144663668D02*
X102791049Y-144717944D01*
X102908975Y-144796740D01*
X103009260Y-144897025D01*
X103088056Y-145014951D01*
X103142332Y-145145985D01*
X103170000Y-145285085D01*
X103170000Y-145426915D01*
X103142332Y-145566015D01*
X103088056Y-145697049D01*
X103009260Y-145814975D01*
X102908975Y-145915260D01*
X102791049Y-145994056D01*
X102660015Y-146048332D01*
X102520915Y-146076000D01*
X102379085Y-146076000D01*
X102239985Y-146048332D01*
X102108951Y-145994056D01*
X101991025Y-145915260D01*
X101890740Y-145814975D01*
X101811944Y-145697049D01*
X101757668Y-145566015D01*
X101730000Y-145426915D01*
X101730000Y-145285085D01*
X101757668Y-145145985D01*
X101811944Y-145014951D01*
X101890740Y-144897025D01*
X101991025Y-144796740D01*
X102108951Y-144717944D01*
X102239985Y-144663668D01*
X102379085Y-144636000D01*
X102520915Y-144636000D01*
X102660015Y-144663668D01*
X102660015Y-144663668D01*
G37*
G36*
X134160015Y-144663668D02*
X134291049Y-144717944D01*
X134408975Y-144796740D01*
X134509260Y-144897025D01*
X134588056Y-145014951D01*
X134642332Y-145145985D01*
X134670000Y-145285085D01*
X134670000Y-145426915D01*
X134642332Y-145566015D01*
X134588056Y-145697049D01*
X134509260Y-145814975D01*
X134408975Y-145915260D01*
X134291049Y-145994056D01*
X134160015Y-146048332D01*
X134020915Y-146076000D01*
X133879085Y-146076000D01*
X133739985Y-146048332D01*
X133608951Y-145994056D01*
X133491025Y-145915260D01*
X133390740Y-145814975D01*
X133311944Y-145697049D01*
X133257668Y-145566015D01*
X133230000Y-145426915D01*
X133230000Y-145285085D01*
X133257668Y-145145985D01*
X133311944Y-145014951D01*
X133390740Y-144897025D01*
X133491025Y-144796740D01*
X133608951Y-144717944D01*
X133739985Y-144663668D01*
X133879085Y-144636000D01*
X134020915Y-144636000D01*
X134160015Y-144663668D01*
X134160015Y-144663668D01*
G37*
G36*
X109266015Y-144663668D02*
X109397049Y-144717944D01*
X109514975Y-144796740D01*
X109615260Y-144897025D01*
X109694056Y-145014951D01*
X109748332Y-145145985D01*
X109776000Y-145285085D01*
X109776000Y-145426915D01*
X109748332Y-145566015D01*
X109694056Y-145697049D01*
X109615260Y-145814975D01*
X109514975Y-145915260D01*
X109397049Y-145994056D01*
X109266015Y-146048332D01*
X109126915Y-146076000D01*
X108985085Y-146076000D01*
X108845985Y-146048332D01*
X108714951Y-145994056D01*
X108597025Y-145915260D01*
X108496740Y-145814975D01*
X108417944Y-145697049D01*
X108363668Y-145566015D01*
X108336000Y-145426915D01*
X108336000Y-145285085D01*
X108363668Y-145145985D01*
X108417944Y-145014951D01*
X108496740Y-144897025D01*
X108597025Y-144796740D01*
X108714951Y-144717944D01*
X108845985Y-144663668D01*
X108985085Y-144636000D01*
X109126915Y-144636000D01*
X109266015Y-144663668D01*
X109266015Y-144663668D01*
G37*
G36*
X125016015Y-144663668D02*
X125147049Y-144717944D01*
X125264975Y-144796740D01*
X125365260Y-144897025D01*
X125444056Y-145014951D01*
X125498332Y-145145985D01*
X125526000Y-145285085D01*
X125526000Y-145426915D01*
X125498332Y-145566015D01*
X125444056Y-145697049D01*
X125365260Y-145814975D01*
X125264975Y-145915260D01*
X125147049Y-145994056D01*
X125016015Y-146048332D01*
X124876915Y-146076000D01*
X124735085Y-146076000D01*
X124595985Y-146048332D01*
X124464951Y-145994056D01*
X124347025Y-145915260D01*
X124246740Y-145814975D01*
X124167944Y-145697049D01*
X124113668Y-145566015D01*
X124086000Y-145426915D01*
X124086000Y-145285085D01*
X124113668Y-145145985D01*
X124167944Y-145014951D01*
X124246740Y-144897025D01*
X124347025Y-144796740D01*
X124464951Y-144717944D01*
X124595985Y-144663668D01*
X124735085Y-144636000D01*
X124876915Y-144636000D01*
X125016015Y-144663668D01*
X125016015Y-144663668D01*
G37*
G36*
X106980015Y-144663668D02*
X107111049Y-144717944D01*
X107228975Y-144796740D01*
X107329260Y-144897025D01*
X107408056Y-145014951D01*
X107462332Y-145145985D01*
X107490000Y-145285085D01*
X107490000Y-145426915D01*
X107462332Y-145566015D01*
X107408056Y-145697049D01*
X107329260Y-145814975D01*
X107228975Y-145915260D01*
X107111049Y-145994056D01*
X106980015Y-146048332D01*
X106840915Y-146076000D01*
X106699085Y-146076000D01*
X106559985Y-146048332D01*
X106428951Y-145994056D01*
X106311025Y-145915260D01*
X106210740Y-145814975D01*
X106131944Y-145697049D01*
X106077668Y-145566015D01*
X106050000Y-145426915D01*
X106050000Y-145285085D01*
X106077668Y-145145985D01*
X106131944Y-145014951D01*
X106210740Y-144897025D01*
X106311025Y-144796740D01*
X106428951Y-144717944D01*
X106559985Y-144663668D01*
X106699085Y-144636000D01*
X106840915Y-144636000D01*
X106980015Y-144663668D01*
X106980015Y-144663668D01*
G37*
G36*
X138480015Y-144663668D02*
X138611049Y-144717944D01*
X138728975Y-144796740D01*
X138829260Y-144897025D01*
X138908056Y-145014951D01*
X138962332Y-145145985D01*
X138990000Y-145285085D01*
X138990000Y-145426915D01*
X138962332Y-145566015D01*
X138908056Y-145697049D01*
X138829260Y-145814975D01*
X138728975Y-145915260D01*
X138611049Y-145994056D01*
X138480015Y-146048332D01*
X138340915Y-146076000D01*
X138199085Y-146076000D01*
X138059985Y-146048332D01*
X137928951Y-145994056D01*
X137811025Y-145915260D01*
X137710740Y-145814975D01*
X137631944Y-145697049D01*
X137577668Y-145566015D01*
X137550000Y-145426915D01*
X137550000Y-145285085D01*
X137577668Y-145145985D01*
X137631944Y-145014951D01*
X137710740Y-144897025D01*
X137811025Y-144796740D01*
X137928951Y-144717944D01*
X138059985Y-144663668D01*
X138199085Y-144636000D01*
X138340915Y-144636000D01*
X138480015Y-144663668D01*
X138480015Y-144663668D01*
G37*
G36*
X122730015Y-144663668D02*
X122861049Y-144717944D01*
X122978975Y-144796740D01*
X123079260Y-144897025D01*
X123158056Y-145014951D01*
X123212332Y-145145985D01*
X123240000Y-145285085D01*
X123240000Y-145426915D01*
X123212332Y-145566015D01*
X123158056Y-145697049D01*
X123079260Y-145814975D01*
X122978975Y-145915260D01*
X122861049Y-145994056D01*
X122730015Y-146048332D01*
X122590915Y-146076000D01*
X122449085Y-146076000D01*
X122309985Y-146048332D01*
X122178951Y-145994056D01*
X122061025Y-145915260D01*
X121960740Y-145814975D01*
X121881944Y-145697049D01*
X121827668Y-145566015D01*
X121800000Y-145426915D01*
X121800000Y-145285085D01*
X121827668Y-145145985D01*
X121881944Y-145014951D01*
X121960740Y-144897025D01*
X122061025Y-144796740D01*
X122178951Y-144717944D01*
X122309985Y-144663668D01*
X122449085Y-144636000D01*
X122590915Y-144636000D01*
X122730015Y-144663668D01*
X122730015Y-144663668D01*
G37*
G36*
X118410015Y-144663668D02*
X118541049Y-144717944D01*
X118658975Y-144796740D01*
X118759260Y-144897025D01*
X118838056Y-145014951D01*
X118892332Y-145145985D01*
X118920000Y-145285085D01*
X118920000Y-145426915D01*
X118892332Y-145566015D01*
X118838056Y-145697049D01*
X118759260Y-145814975D01*
X118658975Y-145915260D01*
X118541049Y-145994056D01*
X118410015Y-146048332D01*
X118270915Y-146076000D01*
X118129085Y-146076000D01*
X117989985Y-146048332D01*
X117858951Y-145994056D01*
X117741025Y-145915260D01*
X117640740Y-145814975D01*
X117561944Y-145697049D01*
X117507668Y-145566015D01*
X117480000Y-145426915D01*
X117480000Y-145285085D01*
X117507668Y-145145985D01*
X117561944Y-145014951D01*
X117640740Y-144897025D01*
X117741025Y-144796740D01*
X117858951Y-144717944D01*
X117989985Y-144663668D01*
X118129085Y-144636000D01*
X118270915Y-144636000D01*
X118410015Y-144663668D01*
X118410015Y-144663668D01*
G37*
G36*
X180168015Y-144663668D02*
X180299049Y-144717944D01*
X180416975Y-144796740D01*
X180517260Y-144897025D01*
X180596056Y-145014951D01*
X180650332Y-145145985D01*
X180678000Y-145285085D01*
X180678000Y-145426915D01*
X180650332Y-145566015D01*
X180596056Y-145697049D01*
X180517260Y-145814975D01*
X180416975Y-145915260D01*
X180299049Y-145994056D01*
X180168015Y-146048332D01*
X180028915Y-146076000D01*
X179887085Y-146076000D01*
X179747985Y-146048332D01*
X179616951Y-145994056D01*
X179499025Y-145915260D01*
X179398740Y-145814975D01*
X179319944Y-145697049D01*
X179265668Y-145566015D01*
X179238000Y-145426915D01*
X179238000Y-145285085D01*
X179265668Y-145145985D01*
X179319944Y-145014951D01*
X179398740Y-144897025D01*
X179499025Y-144796740D01*
X179616951Y-144717944D01*
X179747985Y-144663668D01*
X179887085Y-144636000D01*
X180028915Y-144636000D01*
X180168015Y-144663668D01*
X180168015Y-144663668D01*
G37*
G36*
X149910015Y-144663668D02*
X150041049Y-144717944D01*
X150158975Y-144796740D01*
X150259260Y-144897025D01*
X150338056Y-145014951D01*
X150392332Y-145145985D01*
X150420000Y-145285085D01*
X150420000Y-145426915D01*
X150392332Y-145566015D01*
X150338056Y-145697049D01*
X150259260Y-145814975D01*
X150158975Y-145915260D01*
X150041049Y-145994056D01*
X149910015Y-146048332D01*
X149770915Y-146076000D01*
X149629085Y-146076000D01*
X149489985Y-146048332D01*
X149358951Y-145994056D01*
X149241025Y-145915260D01*
X149140740Y-145814975D01*
X149061944Y-145697049D01*
X149007668Y-145566015D01*
X148980000Y-145426915D01*
X148980000Y-145285085D01*
X149007668Y-145145985D01*
X149061944Y-145014951D01*
X149140740Y-144897025D01*
X149241025Y-144796740D01*
X149358951Y-144717944D01*
X149489985Y-144663668D01*
X149629085Y-144636000D01*
X149770915Y-144636000D01*
X149910015Y-144663668D01*
X149910015Y-144663668D01*
G37*
G36*
X152196015Y-144663668D02*
X152327049Y-144717944D01*
X152444975Y-144796740D01*
X152545260Y-144897025D01*
X152624056Y-145014951D01*
X152678332Y-145145985D01*
X152706000Y-145285085D01*
X152706000Y-145426915D01*
X152678332Y-145566015D01*
X152624056Y-145697049D01*
X152545260Y-145814975D01*
X152444975Y-145915260D01*
X152327049Y-145994056D01*
X152196015Y-146048332D01*
X152056915Y-146076000D01*
X151915085Y-146076000D01*
X151775985Y-146048332D01*
X151644951Y-145994056D01*
X151527025Y-145915260D01*
X151426740Y-145814975D01*
X151347944Y-145697049D01*
X151293668Y-145566015D01*
X151266000Y-145426915D01*
X151266000Y-145285085D01*
X151293668Y-145145985D01*
X151347944Y-145014951D01*
X151426740Y-144897025D01*
X151527025Y-144796740D01*
X151644951Y-144717944D01*
X151775985Y-144663668D01*
X151915085Y-144636000D01*
X152056915Y-144636000D01*
X152196015Y-144663668D01*
X152196015Y-144663668D01*
G37*
G36*
X166452015Y-144663668D02*
X166583049Y-144717944D01*
X166700975Y-144796740D01*
X166801260Y-144897025D01*
X166880056Y-145014951D01*
X166934332Y-145145985D01*
X166962000Y-145285085D01*
X166962000Y-145426915D01*
X166934332Y-145566015D01*
X166880056Y-145697049D01*
X166801260Y-145814975D01*
X166700975Y-145915260D01*
X166583049Y-145994056D01*
X166452015Y-146048332D01*
X166312915Y-146076000D01*
X166171085Y-146076000D01*
X166031985Y-146048332D01*
X165900951Y-145994056D01*
X165783025Y-145915260D01*
X165682740Y-145814975D01*
X165603944Y-145697049D01*
X165549668Y-145566015D01*
X165522000Y-145426915D01*
X165522000Y-145285085D01*
X165549668Y-145145985D01*
X165603944Y-145014951D01*
X165682740Y-144897025D01*
X165783025Y-144796740D01*
X165900951Y-144717944D01*
X166031985Y-144663668D01*
X166171085Y-144636000D01*
X166312915Y-144636000D01*
X166452015Y-144663668D01*
X166452015Y-144663668D01*
G37*
G36*
X140766015Y-144663668D02*
X140897049Y-144717944D01*
X141014975Y-144796740D01*
X141115260Y-144897025D01*
X141194056Y-145014951D01*
X141248332Y-145145985D01*
X141276000Y-145285085D01*
X141276000Y-145426915D01*
X141248332Y-145566015D01*
X141194056Y-145697049D01*
X141115260Y-145814975D01*
X141014975Y-145915260D01*
X140897049Y-145994056D01*
X140766015Y-146048332D01*
X140626915Y-146076000D01*
X140485085Y-146076000D01*
X140345985Y-146048332D01*
X140214951Y-145994056D01*
X140097025Y-145915260D01*
X139996740Y-145814975D01*
X139917944Y-145697049D01*
X139863668Y-145566015D01*
X139836000Y-145426915D01*
X139836000Y-145285085D01*
X139863668Y-145145985D01*
X139917944Y-145014951D01*
X139996740Y-144897025D01*
X140097025Y-144796740D01*
X140214951Y-144717944D01*
X140345985Y-144663668D01*
X140485085Y-144636000D01*
X140626915Y-144636000D01*
X140766015Y-144663668D01*
X140766015Y-144663668D01*
G37*
G36*
X177882015Y-144663668D02*
X178013049Y-144717944D01*
X178130975Y-144796740D01*
X178231260Y-144897025D01*
X178310056Y-145014951D01*
X178364332Y-145145985D01*
X178392000Y-145285085D01*
X178392000Y-145426915D01*
X178364332Y-145566015D01*
X178310056Y-145697049D01*
X178231260Y-145814975D01*
X178130975Y-145915260D01*
X178013049Y-145994056D01*
X177882015Y-146048332D01*
X177742915Y-146076000D01*
X177601085Y-146076000D01*
X177461985Y-146048332D01*
X177330951Y-145994056D01*
X177213025Y-145915260D01*
X177112740Y-145814975D01*
X177033944Y-145697049D01*
X176979668Y-145566015D01*
X176952000Y-145426915D01*
X176952000Y-145285085D01*
X176979668Y-145145985D01*
X177033944Y-145014951D01*
X177112740Y-144897025D01*
X177213025Y-144796740D01*
X177330951Y-144717944D01*
X177461985Y-144663668D01*
X177601085Y-144636000D01*
X177742915Y-144636000D01*
X177882015Y-144663668D01*
X177882015Y-144663668D01*
G37*
G36*
X168738015Y-144663668D02*
X168869049Y-144717944D01*
X168986975Y-144796740D01*
X169087260Y-144897025D01*
X169166056Y-145014951D01*
X169220332Y-145145985D01*
X169248000Y-145285085D01*
X169248000Y-145426915D01*
X169220332Y-145566015D01*
X169166056Y-145697049D01*
X169087260Y-145814975D01*
X168986975Y-145915260D01*
X168869049Y-145994056D01*
X168738015Y-146048332D01*
X168598915Y-146076000D01*
X168457085Y-146076000D01*
X168317985Y-146048332D01*
X168186951Y-145994056D01*
X168069025Y-145915260D01*
X167968740Y-145814975D01*
X167889944Y-145697049D01*
X167835668Y-145566015D01*
X167808000Y-145426915D01*
X167808000Y-145285085D01*
X167835668Y-145145985D01*
X167889944Y-145014951D01*
X167968740Y-144897025D01*
X168069025Y-144796740D01*
X168186951Y-144717944D01*
X168317985Y-144663668D01*
X168457085Y-144636000D01*
X168598915Y-144636000D01*
X168738015Y-144663668D01*
X168738015Y-144663668D01*
G37*
G36*
X120696015Y-144663668D02*
X120827049Y-144717944D01*
X120944975Y-144796740D01*
X121045260Y-144897025D01*
X121124056Y-145014951D01*
X121178332Y-145145985D01*
X121206000Y-145285085D01*
X121206000Y-145426915D01*
X121178332Y-145566015D01*
X121124056Y-145697049D01*
X121045260Y-145814975D01*
X120944975Y-145915260D01*
X120827049Y-145994056D01*
X120696015Y-146048332D01*
X120556915Y-146076000D01*
X120415085Y-146076000D01*
X120275985Y-146048332D01*
X120144951Y-145994056D01*
X120027025Y-145915260D01*
X119926740Y-145814975D01*
X119847944Y-145697049D01*
X119793668Y-145566015D01*
X119766000Y-145426915D01*
X119766000Y-145285085D01*
X119793668Y-145145985D01*
X119847944Y-145014951D01*
X119926740Y-144897025D01*
X120027025Y-144796740D01*
X120144951Y-144717944D01*
X120275985Y-144663668D01*
X120415085Y-144636000D01*
X120556915Y-144636000D01*
X120696015Y-144663668D01*
X120696015Y-144663668D01*
G37*
G36*
X114004277Y-143099573D02*
X114239045Y-143196817D01*
X114450330Y-143337993D01*
X114630007Y-143517670D01*
X114771183Y-143728955D01*
X114868427Y-143963723D01*
X114918000Y-144212945D01*
X114918000Y-144467055D01*
X114868427Y-144716277D01*
X114771183Y-144951045D01*
X114630007Y-145162330D01*
X114450330Y-145342007D01*
X114239045Y-145483183D01*
X114004277Y-145580427D01*
X113755055Y-145630000D01*
X113500945Y-145630000D01*
X113251723Y-145580427D01*
X113016955Y-145483183D01*
X112805670Y-145342007D01*
X112625993Y-145162330D01*
X112484817Y-144951045D01*
X112387573Y-144716277D01*
X112338000Y-144467055D01*
X112338000Y-144212945D01*
X112387573Y-143963723D01*
X112484817Y-143728955D01*
X112625993Y-143517670D01*
X112805670Y-143337993D01*
X113016955Y-143196817D01*
X113251723Y-143099573D01*
X113500945Y-143050000D01*
X113755055Y-143050000D01*
X114004277Y-143099573D01*
X114004277Y-143099573D01*
G37*
G36*
X129754277Y-143099573D02*
X129989045Y-143196817D01*
X130200330Y-143337993D01*
X130380007Y-143517670D01*
X130521183Y-143728955D01*
X130618427Y-143963723D01*
X130668000Y-144212945D01*
X130668000Y-144467055D01*
X130618427Y-144716277D01*
X130521183Y-144951045D01*
X130380007Y-145162330D01*
X130200330Y-145342007D01*
X129989045Y-145483183D01*
X129754277Y-145580427D01*
X129505055Y-145630000D01*
X129250945Y-145630000D01*
X129001723Y-145580427D01*
X128766955Y-145483183D01*
X128555670Y-145342007D01*
X128375993Y-145162330D01*
X128234817Y-144951045D01*
X128137573Y-144716277D01*
X128088000Y-144467055D01*
X128088000Y-144212945D01*
X128137573Y-143963723D01*
X128234817Y-143728955D01*
X128375993Y-143517670D01*
X128555670Y-143337993D01*
X128766955Y-143196817D01*
X129001723Y-143099573D01*
X129250945Y-143050000D01*
X129505055Y-143050000D01*
X129754277Y-143099573D01*
X129754277Y-143099573D01*
G37*
G36*
X159034601Y-131009590D02*
X159174731Y-131067634D01*
X159300850Y-131151904D01*
X159408096Y-131259150D01*
X159492366Y-131385269D01*
X159550410Y-131525399D01*
X159580000Y-131674160D01*
X159580000Y-131825840D01*
X159550410Y-131974601D01*
X159492366Y-132114731D01*
X159408096Y-132240850D01*
X159300850Y-132348096D01*
X159174731Y-132432366D01*
X159034601Y-132490410D01*
X158885840Y-132520000D01*
X158734160Y-132520000D01*
X158585399Y-132490410D01*
X158445269Y-132432366D01*
X158319150Y-132348096D01*
X158211904Y-132240850D01*
X158127634Y-132114731D01*
X158069590Y-131974601D01*
X158040000Y-131825840D01*
X158040000Y-131674160D01*
X158069590Y-131525399D01*
X158127634Y-131385269D01*
X158211904Y-131259150D01*
X158319150Y-131151904D01*
X158445269Y-131067634D01*
X158585399Y-131009590D01*
X158734160Y-130980000D01*
X158885840Y-130980000D01*
X159034601Y-131009590D01*
X159034601Y-131009590D01*
G37*
G36*
X164400297Y-130986790D02*
X164460688Y-131005109D01*
X164516332Y-131034851D01*
X164565114Y-131074886D01*
X164605149Y-131123668D01*
X164634891Y-131179312D01*
X164653210Y-131239703D01*
X164660000Y-131308641D01*
X164660000Y-132191359D01*
X164653210Y-132260297D01*
X164634891Y-132320688D01*
X164605149Y-132376332D01*
X164565114Y-132425114D01*
X164516332Y-132465149D01*
X164460688Y-132494891D01*
X164400297Y-132513210D01*
X164331359Y-132520000D01*
X163448641Y-132520000D01*
X163379703Y-132513210D01*
X163319312Y-132494891D01*
X163263668Y-132465149D01*
X163214886Y-132425114D01*
X163174851Y-132376332D01*
X163145109Y-132320688D01*
X163126790Y-132260297D01*
X163120000Y-132191359D01*
X163120000Y-131308641D01*
X163126790Y-131239703D01*
X163145109Y-131179312D01*
X163174851Y-131123668D01*
X163214886Y-131074886D01*
X163263668Y-131034851D01*
X163319312Y-131005109D01*
X163379703Y-130986790D01*
X163448641Y-130980000D01*
X164331359Y-130980000D01*
X164400297Y-130986790D01*
X164400297Y-130986790D01*
G37*
G36*
X161574601Y-131009590D02*
X161714731Y-131067634D01*
X161840850Y-131151904D01*
X161948096Y-131259150D01*
X162032366Y-131385269D01*
X162090410Y-131525399D01*
X162120000Y-131674160D01*
X162120000Y-131825840D01*
X162090410Y-131974601D01*
X162032366Y-132114731D01*
X161948096Y-132240850D01*
X161840850Y-132348096D01*
X161714731Y-132432366D01*
X161574601Y-132490410D01*
X161425840Y-132520000D01*
X161274160Y-132520000D01*
X161125399Y-132490410D01*
X160985269Y-132432366D01*
X160859150Y-132348096D01*
X160751904Y-132240850D01*
X160667634Y-132114731D01*
X160609590Y-131974601D01*
X160580000Y-131825840D01*
X160580000Y-131674160D01*
X160609590Y-131525399D01*
X160667634Y-131385269D01*
X160751904Y-131259150D01*
X160859150Y-131151904D01*
X160985269Y-131067634D01*
X161125399Y-131009590D01*
X161274160Y-130980000D01*
X161425840Y-130980000D01*
X161574601Y-131009590D01*
X161574601Y-131009590D01*
G37*
G36*
X153954601Y-131009590D02*
X154094731Y-131067634D01*
X154220850Y-131151904D01*
X154328096Y-131259150D01*
X154412366Y-131385269D01*
X154470410Y-131525399D01*
X154500000Y-131674160D01*
X154500000Y-131825840D01*
X154470410Y-131974601D01*
X154412366Y-132114731D01*
X154328096Y-132240850D01*
X154220850Y-132348096D01*
X154094731Y-132432366D01*
X153954601Y-132490410D01*
X153805840Y-132520000D01*
X153654160Y-132520000D01*
X153505399Y-132490410D01*
X153365269Y-132432366D01*
X153239150Y-132348096D01*
X153131904Y-132240850D01*
X153047634Y-132114731D01*
X152989590Y-131974601D01*
X152960000Y-131825840D01*
X152960000Y-131674160D01*
X152989590Y-131525399D01*
X153047634Y-131385269D01*
X153131904Y-131259150D01*
X153239150Y-131151904D01*
X153365269Y-131067634D01*
X153505399Y-131009590D01*
X153654160Y-130980000D01*
X153805840Y-130980000D01*
X153954601Y-131009590D01*
X153954601Y-131009590D01*
G37*
G36*
X151414601Y-131009590D02*
X151554731Y-131067634D01*
X151680850Y-131151904D01*
X151788096Y-131259150D01*
X151872366Y-131385269D01*
X151930410Y-131525399D01*
X151960000Y-131674160D01*
X151960000Y-131825840D01*
X151930410Y-131974601D01*
X151872366Y-132114731D01*
X151788096Y-132240850D01*
X151680850Y-132348096D01*
X151554731Y-132432366D01*
X151414601Y-132490410D01*
X151265840Y-132520000D01*
X151114160Y-132520000D01*
X150965399Y-132490410D01*
X150825269Y-132432366D01*
X150699150Y-132348096D01*
X150591904Y-132240850D01*
X150507634Y-132114731D01*
X150449590Y-131974601D01*
X150420000Y-131825840D01*
X150420000Y-131674160D01*
X150449590Y-131525399D01*
X150507634Y-131385269D01*
X150591904Y-131259150D01*
X150699150Y-131151904D01*
X150825269Y-131067634D01*
X150965399Y-131009590D01*
X151114160Y-130980000D01*
X151265840Y-130980000D01*
X151414601Y-131009590D01*
X151414601Y-131009590D01*
G37*
G36*
X148874601Y-131009590D02*
X149014731Y-131067634D01*
X149140850Y-131151904D01*
X149248096Y-131259150D01*
X149332366Y-131385269D01*
X149390410Y-131525399D01*
X149420000Y-131674160D01*
X149420000Y-131825840D01*
X149390410Y-131974601D01*
X149332366Y-132114731D01*
X149248096Y-132240850D01*
X149140850Y-132348096D01*
X149014731Y-132432366D01*
X148874601Y-132490410D01*
X148725840Y-132520000D01*
X148574160Y-132520000D01*
X148425399Y-132490410D01*
X148285269Y-132432366D01*
X148159150Y-132348096D01*
X148051904Y-132240850D01*
X147967634Y-132114731D01*
X147909590Y-131974601D01*
X147880000Y-131825840D01*
X147880000Y-131674160D01*
X147909590Y-131525399D01*
X147967634Y-131385269D01*
X148051904Y-131259150D01*
X148159150Y-131151904D01*
X148285269Y-131067634D01*
X148425399Y-131009590D01*
X148574160Y-130980000D01*
X148725840Y-130980000D01*
X148874601Y-131009590D01*
X148874601Y-131009590D01*
G37*
G36*
X146334601Y-131009590D02*
X146474731Y-131067634D01*
X146600850Y-131151904D01*
X146708096Y-131259150D01*
X146792366Y-131385269D01*
X146850410Y-131525399D01*
X146880000Y-131674160D01*
X146880000Y-131825840D01*
X146850410Y-131974601D01*
X146792366Y-132114731D01*
X146708096Y-132240850D01*
X146600850Y-132348096D01*
X146474731Y-132432366D01*
X146334601Y-132490410D01*
X146185840Y-132520000D01*
X146034160Y-132520000D01*
X145885399Y-132490410D01*
X145745269Y-132432366D01*
X145619150Y-132348096D01*
X145511904Y-132240850D01*
X145427634Y-132114731D01*
X145369590Y-131974601D01*
X145340000Y-131825840D01*
X145340000Y-131674160D01*
X145369590Y-131525399D01*
X145427634Y-131385269D01*
X145511904Y-131259150D01*
X145619150Y-131151904D01*
X145745269Y-131067634D01*
X145885399Y-131009590D01*
X146034160Y-130980000D01*
X146185840Y-130980000D01*
X146334601Y-131009590D01*
X146334601Y-131009590D01*
G37*
G36*
X188396849Y-118867226D02*
X188918821Y-118971052D01*
X189492085Y-119208506D01*
X190008008Y-119553235D01*
X190446765Y-119991992D01*
X190791494Y-120507915D01*
X191028948Y-121081179D01*
X191118640Y-121532093D01*
X191150000Y-121689751D01*
X191150000Y-122310249D01*
X191144762Y-122336581D01*
X191028948Y-122918821D01*
X190791494Y-123492085D01*
X190446765Y-124008008D01*
X190008008Y-124446765D01*
X189492085Y-124791494D01*
X188918821Y-125028948D01*
X188396849Y-125132774D01*
X188310249Y-125150000D01*
X187689751Y-125150000D01*
X187603151Y-125132774D01*
X187081179Y-125028948D01*
X186507915Y-124791494D01*
X185991992Y-124446765D01*
X185553235Y-124008008D01*
X185208506Y-123492085D01*
X184971052Y-122918821D01*
X184855238Y-122336581D01*
X184850000Y-122310249D01*
X184850000Y-121689751D01*
X184881360Y-121532093D01*
X184971052Y-121081179D01*
X185208506Y-120507915D01*
X185553235Y-119991992D01*
X185991992Y-119553235D01*
X186507915Y-119208506D01*
X187081179Y-118971052D01*
X187603151Y-118867226D01*
X187689751Y-118850000D01*
X188310249Y-118850000D01*
X188396849Y-118867226D01*
X188396849Y-118867226D01*
G37*
G36*
X84396849Y-118867226D02*
X84918821Y-118971052D01*
X85492085Y-119208506D01*
X86008008Y-119553235D01*
X86446765Y-119991992D01*
X86791494Y-120507915D01*
X87028948Y-121081179D01*
X87118640Y-121532093D01*
X87150000Y-121689751D01*
X87150000Y-122310249D01*
X87144762Y-122336581D01*
X87028948Y-122918821D01*
X86791494Y-123492085D01*
X86446765Y-124008008D01*
X86008008Y-124446765D01*
X85492085Y-124791494D01*
X84918821Y-125028948D01*
X84396849Y-125132774D01*
X84310249Y-125150000D01*
X83689751Y-125150000D01*
X83603151Y-125132774D01*
X83081179Y-125028948D01*
X82507915Y-124791494D01*
X81991992Y-124446765D01*
X81553235Y-124008008D01*
X81208506Y-123492085D01*
X80971052Y-122918821D01*
X80855238Y-122336581D01*
X80850000Y-122310249D01*
X80850000Y-121689751D01*
X80881360Y-121532093D01*
X80971052Y-121081179D01*
X81208506Y-120507915D01*
X81553235Y-119991992D01*
X81991992Y-119553235D01*
X82507915Y-119208506D01*
X83081179Y-118971052D01*
X83603151Y-118867226D01*
X83689751Y-118850000D01*
X84310249Y-118850000D01*
X84396849Y-118867226D01*
X84396849Y-118867226D01*
G37*
G36*
X134564010Y-120222290D02*
X134564013Y-120222291D01*
X134564012Y-120222291D01*
X134660102Y-120262092D01*
X134746581Y-120319875D01*
X134820125Y-120393419D01*
X134877908Y-120479898D01*
X134894518Y-120520000D01*
X134917710Y-120575991D01*
X134922402Y-120599577D01*
X134929515Y-120623026D01*
X134941066Y-120644637D01*
X134956612Y-120663579D01*
X134975554Y-120679125D01*
X134997165Y-120690676D01*
X135020614Y-120697789D01*
X135045000Y-120700191D01*
X135069386Y-120697789D01*
X135092835Y-120690676D01*
X135114446Y-120679125D01*
X135133388Y-120663579D01*
X135148934Y-120644637D01*
X135160485Y-120623026D01*
X135167598Y-120599577D01*
X135172290Y-120575991D01*
X135195482Y-120520000D01*
X135212092Y-120479898D01*
X135269875Y-120393419D01*
X135343419Y-120319875D01*
X135429898Y-120262092D01*
X135525988Y-120222291D01*
X135525987Y-120222291D01*
X135525990Y-120222290D01*
X135627995Y-120202000D01*
X135732005Y-120202000D01*
X135834010Y-120222290D01*
X135834013Y-120222291D01*
X135834012Y-120222291D01*
X135930102Y-120262092D01*
X136016581Y-120319875D01*
X136090125Y-120393419D01*
X136147908Y-120479898D01*
X136164518Y-120520000D01*
X136187710Y-120575991D01*
X136192402Y-120599577D01*
X136199515Y-120623026D01*
X136211066Y-120644637D01*
X136226612Y-120663579D01*
X136245554Y-120679125D01*
X136267165Y-120690676D01*
X136290614Y-120697789D01*
X136315000Y-120700191D01*
X136339386Y-120697789D01*
X136362835Y-120690676D01*
X136384446Y-120679125D01*
X136403388Y-120663579D01*
X136418934Y-120644637D01*
X136430485Y-120623026D01*
X136437598Y-120599577D01*
X136442290Y-120575991D01*
X136465482Y-120520000D01*
X136482092Y-120479898D01*
X136539875Y-120393419D01*
X136613419Y-120319875D01*
X136699898Y-120262092D01*
X136795988Y-120222291D01*
X136795987Y-120222291D01*
X136795990Y-120222290D01*
X136897995Y-120202000D01*
X137002005Y-120202000D01*
X137104010Y-120222290D01*
X137104013Y-120222291D01*
X137104012Y-120222291D01*
X137200102Y-120262092D01*
X137286581Y-120319875D01*
X137360125Y-120393419D01*
X137417908Y-120479898D01*
X137434518Y-120520000D01*
X137457710Y-120575991D01*
X137462402Y-120599577D01*
X137469515Y-120623026D01*
X137481066Y-120644637D01*
X137496612Y-120663579D01*
X137515554Y-120679125D01*
X137537165Y-120690676D01*
X137560614Y-120697789D01*
X137585000Y-120700191D01*
X137609386Y-120697789D01*
X137632835Y-120690676D01*
X137654446Y-120679125D01*
X137673388Y-120663579D01*
X137688934Y-120644637D01*
X137700485Y-120623026D01*
X137707598Y-120599577D01*
X137712290Y-120575991D01*
X137735482Y-120520000D01*
X137752092Y-120479898D01*
X137809875Y-120393419D01*
X137883419Y-120319875D01*
X137969898Y-120262092D01*
X138065988Y-120222291D01*
X138065987Y-120222291D01*
X138065990Y-120222290D01*
X138167995Y-120202000D01*
X138272005Y-120202000D01*
X138374010Y-120222290D01*
X138374013Y-120222291D01*
X138374012Y-120222291D01*
X138470102Y-120262092D01*
X138556581Y-120319875D01*
X138630125Y-120393419D01*
X138687908Y-120479898D01*
X138704518Y-120520000D01*
X138727710Y-120575991D01*
X138732402Y-120599577D01*
X138739515Y-120623026D01*
X138751066Y-120644637D01*
X138766612Y-120663579D01*
X138785554Y-120679125D01*
X138807165Y-120690676D01*
X138830614Y-120697789D01*
X138855000Y-120700191D01*
X138879386Y-120697789D01*
X138902835Y-120690676D01*
X138924446Y-120679125D01*
X138943388Y-120663579D01*
X138958934Y-120644637D01*
X138970485Y-120623026D01*
X138977598Y-120599577D01*
X138982290Y-120575991D01*
X139005482Y-120520000D01*
X139022092Y-120479898D01*
X139079875Y-120393419D01*
X139153419Y-120319875D01*
X139239898Y-120262092D01*
X139335988Y-120222291D01*
X139335987Y-120222291D01*
X139335990Y-120222290D01*
X139437995Y-120202000D01*
X139542005Y-120202000D01*
X139644010Y-120222290D01*
X139644013Y-120222291D01*
X139644012Y-120222291D01*
X139740102Y-120262092D01*
X139826581Y-120319875D01*
X139900125Y-120393419D01*
X139957908Y-120479898D01*
X139974518Y-120520000D01*
X139997710Y-120575990D01*
X140018000Y-120677995D01*
X140018000Y-120782005D01*
X139997710Y-120884010D01*
X139997709Y-120884012D01*
X139957908Y-120980102D01*
X139900125Y-121066581D01*
X139826581Y-121140125D01*
X139740102Y-121197908D01*
X139644012Y-121237709D01*
X139644011Y-121237709D01*
X139644009Y-121237710D01*
X139620423Y-121242402D01*
X139596974Y-121249515D01*
X139575363Y-121261066D01*
X139556421Y-121276612D01*
X139540875Y-121295554D01*
X139529324Y-121317165D01*
X139522211Y-121340614D01*
X139519809Y-121365000D01*
X139522211Y-121389386D01*
X139529324Y-121412835D01*
X139540875Y-121434446D01*
X139556421Y-121453388D01*
X139575363Y-121468934D01*
X139596974Y-121480485D01*
X139620423Y-121487598D01*
X139644009Y-121492290D01*
X139644011Y-121492291D01*
X139644012Y-121492291D01*
X139740102Y-121532092D01*
X139826581Y-121589875D01*
X139900125Y-121663419D01*
X139957908Y-121749898D01*
X139988692Y-121824220D01*
X139997710Y-121845990D01*
X140018000Y-121947995D01*
X140018000Y-122052005D01*
X139997710Y-122154010D01*
X139997709Y-122154012D01*
X139957908Y-122250102D01*
X139900125Y-122336581D01*
X139826581Y-122410125D01*
X139740102Y-122467908D01*
X139674958Y-122494891D01*
X139644010Y-122507710D01*
X139542005Y-122528000D01*
X139437995Y-122528000D01*
X139335990Y-122507710D01*
X139305042Y-122494891D01*
X139239898Y-122467908D01*
X139153419Y-122410125D01*
X139079875Y-122336581D01*
X139022092Y-122250102D01*
X138982291Y-122154012D01*
X138982291Y-122154011D01*
X138982290Y-122154009D01*
X138977598Y-122130423D01*
X138970485Y-122106974D01*
X138958934Y-122085363D01*
X138943388Y-122066421D01*
X138924446Y-122050875D01*
X138902835Y-122039324D01*
X138879386Y-122032211D01*
X138855000Y-122029809D01*
X138830614Y-122032211D01*
X138807165Y-122039324D01*
X138785554Y-122050875D01*
X138766612Y-122066421D01*
X138751066Y-122085363D01*
X138739515Y-122106974D01*
X138732402Y-122130423D01*
X138727710Y-122154009D01*
X138727709Y-122154011D01*
X138727709Y-122154012D01*
X138687908Y-122250102D01*
X138630125Y-122336581D01*
X138556581Y-122410125D01*
X138470102Y-122467908D01*
X138404958Y-122494891D01*
X138374010Y-122507710D01*
X138272005Y-122528000D01*
X138167995Y-122528000D01*
X138065990Y-122507710D01*
X138035042Y-122494891D01*
X137969898Y-122467908D01*
X137883419Y-122410125D01*
X137809875Y-122336581D01*
X137752092Y-122250102D01*
X137712291Y-122154012D01*
X137712291Y-122154011D01*
X137712290Y-122154009D01*
X137707598Y-122130423D01*
X137700485Y-122106974D01*
X137688934Y-122085363D01*
X137673388Y-122066421D01*
X137654446Y-122050875D01*
X137632835Y-122039324D01*
X137609386Y-122032211D01*
X137585000Y-122029809D01*
X137560614Y-122032211D01*
X137537165Y-122039324D01*
X137515554Y-122050875D01*
X137496612Y-122066421D01*
X137481066Y-122085363D01*
X137469515Y-122106974D01*
X137462402Y-122130423D01*
X137457710Y-122154009D01*
X137457709Y-122154011D01*
X137457709Y-122154012D01*
X137417908Y-122250102D01*
X137360125Y-122336581D01*
X137286581Y-122410125D01*
X137200102Y-122467908D01*
X137134958Y-122494891D01*
X137104010Y-122507710D01*
X137002005Y-122528000D01*
X136897995Y-122528000D01*
X136795990Y-122507710D01*
X136765042Y-122494891D01*
X136699898Y-122467908D01*
X136613419Y-122410125D01*
X136539875Y-122336581D01*
X136482092Y-122250102D01*
X136442291Y-122154012D01*
X136442291Y-122154011D01*
X136442290Y-122154009D01*
X136437598Y-122130423D01*
X136430485Y-122106974D01*
X136418934Y-122085363D01*
X136403388Y-122066421D01*
X136384446Y-122050875D01*
X136362835Y-122039324D01*
X136339386Y-122032211D01*
X136315000Y-122029809D01*
X136290614Y-122032211D01*
X136267165Y-122039324D01*
X136245554Y-122050875D01*
X136226612Y-122066421D01*
X136211066Y-122085363D01*
X136199515Y-122106974D01*
X136192402Y-122130423D01*
X136187710Y-122154009D01*
X136187709Y-122154011D01*
X136187709Y-122154012D01*
X136147908Y-122250102D01*
X136090125Y-122336581D01*
X136016581Y-122410125D01*
X135930102Y-122467908D01*
X135864958Y-122494891D01*
X135834010Y-122507710D01*
X135732005Y-122528000D01*
X135627995Y-122528000D01*
X135525990Y-122507710D01*
X135495042Y-122494891D01*
X135429898Y-122467908D01*
X135343419Y-122410125D01*
X135269875Y-122336581D01*
X135212092Y-122250102D01*
X135172291Y-122154012D01*
X135172291Y-122154011D01*
X135172290Y-122154009D01*
X135167598Y-122130423D01*
X135160485Y-122106974D01*
X135148934Y-122085363D01*
X135133388Y-122066421D01*
X135114446Y-122050875D01*
X135092835Y-122039324D01*
X135069386Y-122032211D01*
X135045000Y-122029809D01*
X135020614Y-122032211D01*
X134997165Y-122039324D01*
X134975554Y-122050875D01*
X134956612Y-122066421D01*
X134941066Y-122085363D01*
X134929515Y-122106974D01*
X134922402Y-122130423D01*
X134917710Y-122154009D01*
X134917709Y-122154011D01*
X134917709Y-122154012D01*
X134877908Y-122250102D01*
X134820125Y-122336581D01*
X134746581Y-122410125D01*
X134660102Y-122467908D01*
X134594958Y-122494891D01*
X134564010Y-122507710D01*
X134462005Y-122528000D01*
X134357995Y-122528000D01*
X134255990Y-122507710D01*
X134225042Y-122494891D01*
X134159898Y-122467908D01*
X134073419Y-122410125D01*
X133999875Y-122336581D01*
X133942092Y-122250102D01*
X133902291Y-122154012D01*
X133902290Y-122154010D01*
X133882000Y-122052005D01*
X133882000Y-121947995D01*
X133902290Y-121845990D01*
X133911308Y-121824220D01*
X133942092Y-121749898D01*
X133999875Y-121663419D01*
X134073419Y-121589875D01*
X134159898Y-121532092D01*
X134255988Y-121492291D01*
X134255989Y-121492291D01*
X134255991Y-121492290D01*
X134279577Y-121487598D01*
X134303026Y-121480485D01*
X134324637Y-121468934D01*
X134343579Y-121453388D01*
X134359125Y-121434446D01*
X134370676Y-121412835D01*
X134377789Y-121389386D01*
X134380191Y-121365000D01*
X134439809Y-121365000D01*
X134442211Y-121389386D01*
X134449324Y-121412835D01*
X134460875Y-121434446D01*
X134476421Y-121453388D01*
X134495363Y-121468934D01*
X134516974Y-121480485D01*
X134540423Y-121487598D01*
X134564009Y-121492290D01*
X134564011Y-121492291D01*
X134564012Y-121492291D01*
X134660102Y-121532092D01*
X134746581Y-121589875D01*
X134820125Y-121663419D01*
X134877908Y-121749898D01*
X134917709Y-121845988D01*
X134917710Y-121845991D01*
X134922402Y-121869577D01*
X134929515Y-121893026D01*
X134941066Y-121914637D01*
X134956612Y-121933579D01*
X134975554Y-121949125D01*
X134997165Y-121960676D01*
X135020614Y-121967789D01*
X135045000Y-121970191D01*
X135069386Y-121967789D01*
X135092835Y-121960676D01*
X135114446Y-121949125D01*
X135133388Y-121933579D01*
X135148934Y-121914637D01*
X135160485Y-121893026D01*
X135167598Y-121869577D01*
X135172290Y-121845991D01*
X135172291Y-121845988D01*
X135212092Y-121749898D01*
X135269875Y-121663419D01*
X135343419Y-121589875D01*
X135429898Y-121532092D01*
X135525988Y-121492291D01*
X135525989Y-121492291D01*
X135525991Y-121492290D01*
X135549577Y-121487598D01*
X135573026Y-121480485D01*
X135594637Y-121468934D01*
X135613579Y-121453388D01*
X135629125Y-121434446D01*
X135640676Y-121412835D01*
X135647789Y-121389386D01*
X135650191Y-121365000D01*
X135709809Y-121365000D01*
X135712211Y-121389386D01*
X135719324Y-121412835D01*
X135730875Y-121434446D01*
X135746421Y-121453388D01*
X135765363Y-121468934D01*
X135786974Y-121480485D01*
X135810423Y-121487598D01*
X135834009Y-121492290D01*
X135834011Y-121492291D01*
X135834012Y-121492291D01*
X135930102Y-121532092D01*
X136016581Y-121589875D01*
X136090125Y-121663419D01*
X136147908Y-121749898D01*
X136187709Y-121845988D01*
X136187710Y-121845991D01*
X136192402Y-121869577D01*
X136199515Y-121893026D01*
X136211066Y-121914637D01*
X136226612Y-121933579D01*
X136245554Y-121949125D01*
X136267165Y-121960676D01*
X136290614Y-121967789D01*
X136315000Y-121970191D01*
X136339386Y-121967789D01*
X136362835Y-121960676D01*
X136384446Y-121949125D01*
X136403388Y-121933579D01*
X136418934Y-121914637D01*
X136430485Y-121893026D01*
X136437598Y-121869577D01*
X136442290Y-121845991D01*
X136442291Y-121845988D01*
X136482092Y-121749898D01*
X136539875Y-121663419D01*
X136613419Y-121589875D01*
X136699898Y-121532092D01*
X136795988Y-121492291D01*
X136795989Y-121492291D01*
X136795991Y-121492290D01*
X136819577Y-121487598D01*
X136843026Y-121480485D01*
X136864637Y-121468934D01*
X136883579Y-121453388D01*
X136899125Y-121434446D01*
X136910676Y-121412835D01*
X136917789Y-121389386D01*
X136920191Y-121365000D01*
X136979809Y-121365000D01*
X136982211Y-121389386D01*
X136989324Y-121412835D01*
X137000875Y-121434446D01*
X137016421Y-121453388D01*
X137035363Y-121468934D01*
X137056974Y-121480485D01*
X137080423Y-121487598D01*
X137104009Y-121492290D01*
X137104011Y-121492291D01*
X137104012Y-121492291D01*
X137200102Y-121532092D01*
X137286581Y-121589875D01*
X137360125Y-121663419D01*
X137417908Y-121749898D01*
X137457709Y-121845988D01*
X137457710Y-121845991D01*
X137462402Y-121869577D01*
X137469515Y-121893026D01*
X137481066Y-121914637D01*
X137496612Y-121933579D01*
X137515554Y-121949125D01*
X137537165Y-121960676D01*
X137560614Y-121967789D01*
X137585000Y-121970191D01*
X137609386Y-121967789D01*
X137632835Y-121960676D01*
X137654446Y-121949125D01*
X137673388Y-121933579D01*
X137688934Y-121914637D01*
X137700485Y-121893026D01*
X137707598Y-121869577D01*
X137712290Y-121845991D01*
X137712291Y-121845988D01*
X137752092Y-121749898D01*
X137809875Y-121663419D01*
X137883419Y-121589875D01*
X137969898Y-121532092D01*
X138065988Y-121492291D01*
X138065989Y-121492291D01*
X138065991Y-121492290D01*
X138089577Y-121487598D01*
X138113026Y-121480485D01*
X138134637Y-121468934D01*
X138153579Y-121453388D01*
X138169125Y-121434446D01*
X138180676Y-121412835D01*
X138187789Y-121389386D01*
X138190191Y-121365000D01*
X138249809Y-121365000D01*
X138252211Y-121389386D01*
X138259324Y-121412835D01*
X138270875Y-121434446D01*
X138286421Y-121453388D01*
X138305363Y-121468934D01*
X138326974Y-121480485D01*
X138350423Y-121487598D01*
X138374009Y-121492290D01*
X138374011Y-121492291D01*
X138374012Y-121492291D01*
X138470102Y-121532092D01*
X138556581Y-121589875D01*
X138630125Y-121663419D01*
X138687908Y-121749898D01*
X138727709Y-121845988D01*
X138727710Y-121845991D01*
X138732402Y-121869577D01*
X138739515Y-121893026D01*
X138751066Y-121914637D01*
X138766612Y-121933579D01*
X138785554Y-121949125D01*
X138807165Y-121960676D01*
X138830614Y-121967789D01*
X138855000Y-121970191D01*
X138879386Y-121967789D01*
X138902835Y-121960676D01*
X138924446Y-121949125D01*
X138943388Y-121933579D01*
X138958934Y-121914637D01*
X138970485Y-121893026D01*
X138977598Y-121869577D01*
X138982290Y-121845991D01*
X138982291Y-121845988D01*
X139022092Y-121749898D01*
X139079875Y-121663419D01*
X139153419Y-121589875D01*
X139239898Y-121532092D01*
X139335988Y-121492291D01*
X139335989Y-121492291D01*
X139335991Y-121492290D01*
X139359577Y-121487598D01*
X139383026Y-121480485D01*
X139404637Y-121468934D01*
X139423579Y-121453388D01*
X139439125Y-121434446D01*
X139450676Y-121412835D01*
X139457789Y-121389386D01*
X139460191Y-121365000D01*
X139457789Y-121340614D01*
X139450676Y-121317165D01*
X139439125Y-121295554D01*
X139423579Y-121276612D01*
X139404637Y-121261066D01*
X139383026Y-121249515D01*
X139359577Y-121242402D01*
X139335991Y-121237710D01*
X139335989Y-121237709D01*
X139335988Y-121237709D01*
X139239898Y-121197908D01*
X139153419Y-121140125D01*
X139079875Y-121066581D01*
X139022092Y-120980102D01*
X138982291Y-120884012D01*
X138982291Y-120884011D01*
X138982290Y-120884009D01*
X138977598Y-120860423D01*
X138970485Y-120836974D01*
X138958934Y-120815363D01*
X138943388Y-120796421D01*
X138924446Y-120780875D01*
X138902835Y-120769324D01*
X138879386Y-120762211D01*
X138855000Y-120759809D01*
X138830614Y-120762211D01*
X138807165Y-120769324D01*
X138785554Y-120780875D01*
X138766612Y-120796421D01*
X138751066Y-120815363D01*
X138739515Y-120836974D01*
X138732402Y-120860423D01*
X138727710Y-120884009D01*
X138727709Y-120884011D01*
X138727709Y-120884012D01*
X138687908Y-120980102D01*
X138630125Y-121066581D01*
X138556581Y-121140125D01*
X138470102Y-121197908D01*
X138374012Y-121237709D01*
X138374011Y-121237709D01*
X138374009Y-121237710D01*
X138350423Y-121242402D01*
X138326974Y-121249515D01*
X138305363Y-121261066D01*
X138286421Y-121276612D01*
X138270875Y-121295554D01*
X138259324Y-121317165D01*
X138252211Y-121340614D01*
X138249809Y-121365000D01*
X138190191Y-121365000D01*
X138187789Y-121340614D01*
X138180676Y-121317165D01*
X138169125Y-121295554D01*
X138153579Y-121276612D01*
X138134637Y-121261066D01*
X138113026Y-121249515D01*
X138089577Y-121242402D01*
X138065991Y-121237710D01*
X138065989Y-121237709D01*
X138065988Y-121237709D01*
X137969898Y-121197908D01*
X137883419Y-121140125D01*
X137809875Y-121066581D01*
X137752092Y-120980102D01*
X137712291Y-120884012D01*
X137712291Y-120884011D01*
X137712290Y-120884009D01*
X137707598Y-120860423D01*
X137700485Y-120836974D01*
X137688934Y-120815363D01*
X137673388Y-120796421D01*
X137654446Y-120780875D01*
X137632835Y-120769324D01*
X137609386Y-120762211D01*
X137585000Y-120759809D01*
X137560614Y-120762211D01*
X137537165Y-120769324D01*
X137515554Y-120780875D01*
X137496612Y-120796421D01*
X137481066Y-120815363D01*
X137469515Y-120836974D01*
X137462402Y-120860423D01*
X137457710Y-120884009D01*
X137457709Y-120884011D01*
X137457709Y-120884012D01*
X137417908Y-120980102D01*
X137360125Y-121066581D01*
X137286581Y-121140125D01*
X137200102Y-121197908D01*
X137104012Y-121237709D01*
X137104011Y-121237709D01*
X137104009Y-121237710D01*
X137080423Y-121242402D01*
X137056974Y-121249515D01*
X137035363Y-121261066D01*
X137016421Y-121276612D01*
X137000875Y-121295554D01*
X136989324Y-121317165D01*
X136982211Y-121340614D01*
X136979809Y-121365000D01*
X136920191Y-121365000D01*
X136917789Y-121340614D01*
X136910676Y-121317165D01*
X136899125Y-121295554D01*
X136883579Y-121276612D01*
X136864637Y-121261066D01*
X136843026Y-121249515D01*
X136819577Y-121242402D01*
X136795991Y-121237710D01*
X136795989Y-121237709D01*
X136795988Y-121237709D01*
X136699898Y-121197908D01*
X136613419Y-121140125D01*
X136539875Y-121066581D01*
X136482092Y-120980102D01*
X136442291Y-120884012D01*
X136442291Y-120884011D01*
X136442290Y-120884009D01*
X136437598Y-120860423D01*
X136430485Y-120836974D01*
X136418934Y-120815363D01*
X136403388Y-120796421D01*
X136384446Y-120780875D01*
X136362835Y-120769324D01*
X136339386Y-120762211D01*
X136315000Y-120759809D01*
X136290614Y-120762211D01*
X136267165Y-120769324D01*
X136245554Y-120780875D01*
X136226612Y-120796421D01*
X136211066Y-120815363D01*
X136199515Y-120836974D01*
X136192402Y-120860423D01*
X136187710Y-120884009D01*
X136187709Y-120884011D01*
X136187709Y-120884012D01*
X136147908Y-120980102D01*
X136090125Y-121066581D01*
X136016581Y-121140125D01*
X135930102Y-121197908D01*
X135834012Y-121237709D01*
X135834011Y-121237709D01*
X135834009Y-121237710D01*
X135810423Y-121242402D01*
X135786974Y-121249515D01*
X135765363Y-121261066D01*
X135746421Y-121276612D01*
X135730875Y-121295554D01*
X135719324Y-121317165D01*
X135712211Y-121340614D01*
X135709809Y-121365000D01*
X135650191Y-121365000D01*
X135647789Y-121340614D01*
X135640676Y-121317165D01*
X135629125Y-121295554D01*
X135613579Y-121276612D01*
X135594637Y-121261066D01*
X135573026Y-121249515D01*
X135549577Y-121242402D01*
X135525991Y-121237710D01*
X135525989Y-121237709D01*
X135525988Y-121237709D01*
X135429898Y-121197908D01*
X135343419Y-121140125D01*
X135269875Y-121066581D01*
X135212092Y-120980102D01*
X135172291Y-120884012D01*
X135172291Y-120884011D01*
X135172290Y-120884009D01*
X135167598Y-120860423D01*
X135160485Y-120836974D01*
X135148934Y-120815363D01*
X135133388Y-120796421D01*
X135114446Y-120780875D01*
X135092835Y-120769324D01*
X135069386Y-120762211D01*
X135045000Y-120759809D01*
X135020614Y-120762211D01*
X134997165Y-120769324D01*
X134975554Y-120780875D01*
X134956612Y-120796421D01*
X134941066Y-120815363D01*
X134929515Y-120836974D01*
X134922402Y-120860423D01*
X134917710Y-120884009D01*
X134917709Y-120884011D01*
X134917709Y-120884012D01*
X134877908Y-120980102D01*
X134820125Y-121066581D01*
X134746581Y-121140125D01*
X134660102Y-121197908D01*
X134564012Y-121237709D01*
X134564011Y-121237709D01*
X134564009Y-121237710D01*
X134540423Y-121242402D01*
X134516974Y-121249515D01*
X134495363Y-121261066D01*
X134476421Y-121276612D01*
X134460875Y-121295554D01*
X134449324Y-121317165D01*
X134442211Y-121340614D01*
X134439809Y-121365000D01*
X134380191Y-121365000D01*
X134377789Y-121340614D01*
X134370676Y-121317165D01*
X134359125Y-121295554D01*
X134343579Y-121276612D01*
X134324637Y-121261066D01*
X134303026Y-121249515D01*
X134279577Y-121242402D01*
X134255991Y-121237710D01*
X134255989Y-121237709D01*
X134255988Y-121237709D01*
X134159898Y-121197908D01*
X134073419Y-121140125D01*
X133999875Y-121066581D01*
X133942092Y-120980102D01*
X133902291Y-120884012D01*
X133902290Y-120884010D01*
X133882000Y-120782005D01*
X133882000Y-120677995D01*
X133902290Y-120575990D01*
X133925482Y-120520000D01*
X133942092Y-120479898D01*
X133999875Y-120393419D01*
X134073419Y-120319875D01*
X134159898Y-120262092D01*
X134255988Y-120222291D01*
X134255987Y-120222291D01*
X134255990Y-120222290D01*
X134357995Y-120202000D01*
X134462005Y-120202000D01*
X134564010Y-120222290D01*
X134564010Y-120222290D01*
G37*
G36*
X161574601Y-121009590D02*
X161714731Y-121067634D01*
X161840850Y-121151904D01*
X161948096Y-121259150D01*
X162032366Y-121385269D01*
X162090410Y-121525399D01*
X162120000Y-121674160D01*
X162120000Y-121825840D01*
X162090410Y-121974601D01*
X162032366Y-122114731D01*
X161948096Y-122240850D01*
X161840850Y-122348096D01*
X161714731Y-122432366D01*
X161574601Y-122490410D01*
X161425840Y-122520000D01*
X161274160Y-122520000D01*
X161125399Y-122490410D01*
X160985269Y-122432366D01*
X160859150Y-122348096D01*
X160751904Y-122240850D01*
X160667634Y-122114731D01*
X160609590Y-121974601D01*
X160580000Y-121825840D01*
X160580000Y-121674160D01*
X160609590Y-121525399D01*
X160667634Y-121385269D01*
X160751904Y-121259150D01*
X160859150Y-121151904D01*
X160985269Y-121067634D01*
X161125399Y-121009590D01*
X161274160Y-120980000D01*
X161425840Y-120980000D01*
X161574601Y-121009590D01*
X161574601Y-121009590D01*
G37*
G36*
X146334601Y-121009590D02*
X146474731Y-121067634D01*
X146600850Y-121151904D01*
X146708096Y-121259150D01*
X146792366Y-121385269D01*
X146850410Y-121525399D01*
X146880000Y-121674160D01*
X146880000Y-121825840D01*
X146850410Y-121974601D01*
X146792366Y-122114731D01*
X146708096Y-122240850D01*
X146600850Y-122348096D01*
X146474731Y-122432366D01*
X146334601Y-122490410D01*
X146185840Y-122520000D01*
X146034160Y-122520000D01*
X145885399Y-122490410D01*
X145745269Y-122432366D01*
X145619150Y-122348096D01*
X145511904Y-122240850D01*
X145427634Y-122114731D01*
X145369590Y-121974601D01*
X145340000Y-121825840D01*
X145340000Y-121674160D01*
X145369590Y-121525399D01*
X145427634Y-121385269D01*
X145511904Y-121259150D01*
X145619150Y-121151904D01*
X145745269Y-121067634D01*
X145885399Y-121009590D01*
X146034160Y-120980000D01*
X146185840Y-120980000D01*
X146334601Y-121009590D01*
X146334601Y-121009590D01*
G37*
G36*
X148874601Y-121009590D02*
X149014731Y-121067634D01*
X149140850Y-121151904D01*
X149248096Y-121259150D01*
X149332366Y-121385269D01*
X149390410Y-121525399D01*
X149420000Y-121674160D01*
X149420000Y-121825840D01*
X149390410Y-121974601D01*
X149332366Y-122114731D01*
X149248096Y-122240850D01*
X149140850Y-122348096D01*
X149014731Y-122432366D01*
X148874601Y-122490410D01*
X148725840Y-122520000D01*
X148574160Y-122520000D01*
X148425399Y-122490410D01*
X148285269Y-122432366D01*
X148159150Y-122348096D01*
X148051904Y-122240850D01*
X147967634Y-122114731D01*
X147909590Y-121974601D01*
X147880000Y-121825840D01*
X147880000Y-121674160D01*
X147909590Y-121525399D01*
X147967634Y-121385269D01*
X148051904Y-121259150D01*
X148159150Y-121151904D01*
X148285269Y-121067634D01*
X148425399Y-121009590D01*
X148574160Y-120980000D01*
X148725840Y-120980000D01*
X148874601Y-121009590D01*
X148874601Y-121009590D01*
G37*
G36*
X151414601Y-121009590D02*
X151554731Y-121067634D01*
X151680850Y-121151904D01*
X151788096Y-121259150D01*
X151872366Y-121385269D01*
X151930410Y-121525399D01*
X151960000Y-121674160D01*
X151960000Y-121825840D01*
X151930410Y-121974601D01*
X151872366Y-122114731D01*
X151788096Y-122240850D01*
X151680850Y-122348096D01*
X151554731Y-122432366D01*
X151414601Y-122490410D01*
X151265840Y-122520000D01*
X151114160Y-122520000D01*
X150965399Y-122490410D01*
X150825269Y-122432366D01*
X150699150Y-122348096D01*
X150591904Y-122240850D01*
X150507634Y-122114731D01*
X150449590Y-121974601D01*
X150420000Y-121825840D01*
X150420000Y-121674160D01*
X150449590Y-121525399D01*
X150507634Y-121385269D01*
X150591904Y-121259150D01*
X150699150Y-121151904D01*
X150825269Y-121067634D01*
X150965399Y-121009590D01*
X151114160Y-120980000D01*
X151265840Y-120980000D01*
X151414601Y-121009590D01*
X151414601Y-121009590D01*
G37*
G36*
X153954601Y-121009590D02*
X154094731Y-121067634D01*
X154220850Y-121151904D01*
X154328096Y-121259150D01*
X154412366Y-121385269D01*
X154470410Y-121525399D01*
X154500000Y-121674160D01*
X154500000Y-121825840D01*
X154470410Y-121974601D01*
X154412366Y-122114731D01*
X154328096Y-122240850D01*
X154220850Y-122348096D01*
X154094731Y-122432366D01*
X153954601Y-122490410D01*
X153805840Y-122520000D01*
X153654160Y-122520000D01*
X153505399Y-122490410D01*
X153365269Y-122432366D01*
X153239150Y-122348096D01*
X153131904Y-122240850D01*
X153047634Y-122114731D01*
X152989590Y-121974601D01*
X152960000Y-121825840D01*
X152960000Y-121674160D01*
X152989590Y-121525399D01*
X153047634Y-121385269D01*
X153131904Y-121259150D01*
X153239150Y-121151904D01*
X153365269Y-121067634D01*
X153505399Y-121009590D01*
X153654160Y-120980000D01*
X153805840Y-120980000D01*
X153954601Y-121009590D01*
X153954601Y-121009590D01*
G37*
G36*
X164400297Y-120986790D02*
X164460688Y-121005109D01*
X164516332Y-121034851D01*
X164565114Y-121074886D01*
X164605149Y-121123668D01*
X164634891Y-121179312D01*
X164653210Y-121239703D01*
X164660000Y-121308641D01*
X164660000Y-122191359D01*
X164653210Y-122260297D01*
X164634891Y-122320688D01*
X164605149Y-122376332D01*
X164565114Y-122425114D01*
X164516332Y-122465149D01*
X164460688Y-122494891D01*
X164400297Y-122513210D01*
X164331359Y-122520000D01*
X163448641Y-122520000D01*
X163379703Y-122513210D01*
X163319312Y-122494891D01*
X163263668Y-122465149D01*
X163214886Y-122425114D01*
X163174851Y-122376332D01*
X163145109Y-122320688D01*
X163126790Y-122260297D01*
X163120000Y-122191359D01*
X163120000Y-121308641D01*
X163126790Y-121239703D01*
X163145109Y-121179312D01*
X163174851Y-121123668D01*
X163214886Y-121074886D01*
X163263668Y-121034851D01*
X163319312Y-121005109D01*
X163379703Y-120986790D01*
X163448641Y-120980000D01*
X164331359Y-120980000D01*
X164400297Y-120986790D01*
X164400297Y-120986790D01*
G37*
G36*
X159034601Y-121009590D02*
X159174731Y-121067634D01*
X159300850Y-121151904D01*
X159408096Y-121259150D01*
X159492366Y-121385269D01*
X159550410Y-121525399D01*
X159580000Y-121674160D01*
X159580000Y-121825840D01*
X159550410Y-121974601D01*
X159492366Y-122114731D01*
X159408096Y-122240850D01*
X159300850Y-122348096D01*
X159174731Y-122432366D01*
X159034601Y-122490410D01*
X158885840Y-122520000D01*
X158734160Y-122520000D01*
X158585399Y-122490410D01*
X158445269Y-122432366D01*
X158319150Y-122348096D01*
X158211904Y-122240850D01*
X158127634Y-122114731D01*
X158069590Y-121974601D01*
X158040000Y-121825840D01*
X158040000Y-121674160D01*
X158069590Y-121525399D01*
X158127634Y-121385269D01*
X158211904Y-121259150D01*
X158319150Y-121151904D01*
X158445269Y-121067634D01*
X158585399Y-121009590D01*
X158734160Y-120980000D01*
X158885840Y-120980000D01*
X159034601Y-121009590D01*
X159034601Y-121009590D01*
G37*
G36*
X99470000Y-115420000D02*
X97530000Y-115420000D01*
X97530000Y-113480000D01*
X99470000Y-113480000D01*
X99470000Y-115420000D01*
X99470000Y-115420000D01*
G37*
G36*
X88805277Y-112887573D02*
X89040045Y-112984817D01*
X89251330Y-113125993D01*
X89431007Y-113305670D01*
X89572183Y-113516955D01*
X89669427Y-113751723D01*
X89719000Y-114000945D01*
X89719000Y-114255055D01*
X89669427Y-114504277D01*
X89572183Y-114739045D01*
X89431007Y-114950330D01*
X89251330Y-115130007D01*
X89040045Y-115271183D01*
X88805277Y-115368427D01*
X88556055Y-115418000D01*
X88301945Y-115418000D01*
X88052723Y-115368427D01*
X87817955Y-115271183D01*
X87606670Y-115130007D01*
X87426993Y-114950330D01*
X87285817Y-114739045D01*
X87188573Y-114504277D01*
X87139000Y-114255055D01*
X87139000Y-114000945D01*
X87188573Y-113751723D01*
X87285817Y-113516955D01*
X87426993Y-113305670D01*
X87606670Y-113125993D01*
X87817955Y-112984817D01*
X88052723Y-112887573D01*
X88301945Y-112838000D01*
X88556055Y-112838000D01*
X88805277Y-112887573D01*
X88805277Y-112887573D01*
G37*
G36*
X85480001Y-110767639D02*
X85480003Y-110767640D01*
X85480004Y-110767640D01*
X85590631Y-110813463D01*
X85779485Y-110891689D01*
X86049012Y-111071781D01*
X86278219Y-111300988D01*
X86458311Y-111570515D01*
X86582361Y-111869999D01*
X86645600Y-112187921D01*
X86645600Y-112512079D01*
X86582361Y-112830001D01*
X86458311Y-113129485D01*
X86278219Y-113399012D01*
X86049012Y-113628219D01*
X85779485Y-113808311D01*
X85590631Y-113886537D01*
X85480004Y-113932360D01*
X85480003Y-113932360D01*
X85480001Y-113932361D01*
X85162079Y-113995600D01*
X84837921Y-113995600D01*
X84519999Y-113932361D01*
X84519997Y-113932360D01*
X84519996Y-113932360D01*
X84409369Y-113886537D01*
X84220515Y-113808311D01*
X83950988Y-113628219D01*
X83721781Y-113399012D01*
X83541689Y-113129485D01*
X83417639Y-112830001D01*
X83354400Y-112512079D01*
X83354400Y-112187921D01*
X83417639Y-111869999D01*
X83541689Y-111570515D01*
X83721781Y-111300988D01*
X83950988Y-111071781D01*
X84220515Y-110891689D01*
X84409369Y-110813463D01*
X84519996Y-110767640D01*
X84519997Y-110767640D01*
X84519999Y-110767639D01*
X84837921Y-110704400D01*
X85162079Y-110704400D01*
X85480001Y-110767639D01*
X85480001Y-110767639D01*
G37*
G36*
X94354015Y-112165668D02*
X94485049Y-112219944D01*
X94602975Y-112298740D01*
X94703260Y-112399025D01*
X94782056Y-112516951D01*
X94836332Y-112647985D01*
X94864000Y-112787085D01*
X94864000Y-112928915D01*
X94836332Y-113068015D01*
X94782056Y-113199049D01*
X94703260Y-113316975D01*
X94602975Y-113417260D01*
X94485049Y-113496056D01*
X94354015Y-113550332D01*
X94214915Y-113578000D01*
X94073085Y-113578000D01*
X93933985Y-113550332D01*
X93802951Y-113496056D01*
X93685025Y-113417260D01*
X93584740Y-113316975D01*
X93505944Y-113199049D01*
X93451668Y-113068015D01*
X93424000Y-112928915D01*
X93424000Y-112787085D01*
X93451668Y-112647985D01*
X93505944Y-112516951D01*
X93584740Y-112399025D01*
X93685025Y-112298740D01*
X93802951Y-112219944D01*
X93933985Y-112165668D01*
X94073085Y-112138000D01*
X94214915Y-112138000D01*
X94354015Y-112165668D01*
X94354015Y-112165668D01*
G37*
G36*
X94354015Y-109879668D02*
X94485049Y-109933944D01*
X94602975Y-110012740D01*
X94703260Y-110113025D01*
X94782056Y-110230951D01*
X94836332Y-110361985D01*
X94864000Y-110501085D01*
X94864000Y-110642915D01*
X94836332Y-110782015D01*
X94782056Y-110913049D01*
X94703260Y-111030975D01*
X94602975Y-111131260D01*
X94485049Y-111210056D01*
X94354015Y-111264332D01*
X94214915Y-111292000D01*
X94073085Y-111292000D01*
X93933985Y-111264332D01*
X93802951Y-111210056D01*
X93685025Y-111131260D01*
X93584740Y-111030975D01*
X93505944Y-110913049D01*
X93451668Y-110782015D01*
X93424000Y-110642915D01*
X93424000Y-110501085D01*
X93451668Y-110361985D01*
X93505944Y-110230951D01*
X93584740Y-110113025D01*
X93685025Y-110012740D01*
X93802951Y-109933944D01*
X93933985Y-109879668D01*
X94073085Y-109852000D01*
X94214915Y-109852000D01*
X94354015Y-109879668D01*
X94354015Y-109879668D01*
G37*
G36*
X139131106Y-107734015D02*
X139172536Y-107742256D01*
X139467358Y-107864375D01*
X139641510Y-107980740D01*
X139732692Y-108041666D01*
X139958334Y-108267308D01*
X139958336Y-108267311D01*
X140000214Y-108329985D01*
X140135626Y-108532644D01*
X140257744Y-108827464D01*
X140320000Y-109140443D01*
X140320000Y-109459557D01*
X140257744Y-109772536D01*
X140135626Y-110067356D01*
X139958334Y-110332692D01*
X139732692Y-110558334D01*
X139732689Y-110558336D01*
X139467358Y-110735625D01*
X139467357Y-110735626D01*
X139467356Y-110735626D01*
X139172536Y-110857744D01*
X138859557Y-110920000D01*
X138540443Y-110920000D01*
X138227464Y-110857744D01*
X137932644Y-110735626D01*
X137932643Y-110735626D01*
X137932642Y-110735625D01*
X137667311Y-110558336D01*
X137667308Y-110558334D01*
X137441666Y-110332692D01*
X137264374Y-110067356D01*
X137142256Y-109772536D01*
X137080000Y-109459557D01*
X137080000Y-109140443D01*
X137142256Y-108827464D01*
X137264374Y-108532644D01*
X137399787Y-108329985D01*
X137441664Y-108267311D01*
X137441666Y-108267308D01*
X137667308Y-108041666D01*
X137758490Y-107980740D01*
X137932642Y-107864375D01*
X138227464Y-107742256D01*
X138268894Y-107734015D01*
X138540443Y-107680000D01*
X138859557Y-107680000D01*
X139131106Y-107734015D01*
X139131106Y-107734015D01*
G37*
G36*
X145731106Y-107734015D02*
X145772536Y-107742256D01*
X146067358Y-107864375D01*
X146241510Y-107980740D01*
X146332692Y-108041666D01*
X146558334Y-108267308D01*
X146558336Y-108267311D01*
X146600214Y-108329985D01*
X146735626Y-108532644D01*
X146857744Y-108827464D01*
X146920000Y-109140443D01*
X146920000Y-109459557D01*
X146857744Y-109772536D01*
X146735626Y-110067356D01*
X146558334Y-110332692D01*
X146332692Y-110558334D01*
X146332689Y-110558336D01*
X146067358Y-110735625D01*
X146067357Y-110735626D01*
X146067356Y-110735626D01*
X145772536Y-110857744D01*
X145459557Y-110920000D01*
X145140443Y-110920000D01*
X144827464Y-110857744D01*
X144532644Y-110735626D01*
X144532643Y-110735626D01*
X144532642Y-110735625D01*
X144267311Y-110558336D01*
X144267308Y-110558334D01*
X144041666Y-110332692D01*
X143864374Y-110067356D01*
X143742256Y-109772536D01*
X143680000Y-109459557D01*
X143680000Y-109140443D01*
X143742256Y-108827464D01*
X143864374Y-108532644D01*
X143999787Y-108329985D01*
X144041664Y-108267311D01*
X144041666Y-108267308D01*
X144267308Y-108041666D01*
X144358490Y-107980740D01*
X144532642Y-107864375D01*
X144827464Y-107742256D01*
X144868894Y-107734015D01*
X145140443Y-107680000D01*
X145459557Y-107680000D01*
X145731106Y-107734015D01*
X145731106Y-107734015D01*
G37*
G36*
X87750015Y-108863668D02*
X87881049Y-108917944D01*
X87998975Y-108996740D01*
X88099260Y-109097025D01*
X88178056Y-109214951D01*
X88232332Y-109345985D01*
X88260000Y-109485085D01*
X88260000Y-109626915D01*
X88232332Y-109766015D01*
X88178056Y-109897049D01*
X88099260Y-110014975D01*
X87998975Y-110115260D01*
X87881049Y-110194056D01*
X87750015Y-110248332D01*
X87610915Y-110276000D01*
X87469085Y-110276000D01*
X87329985Y-110248332D01*
X87198951Y-110194056D01*
X87081025Y-110115260D01*
X86980740Y-110014975D01*
X86901944Y-109897049D01*
X86847668Y-109766015D01*
X86820000Y-109626915D01*
X86820000Y-109485085D01*
X86847668Y-109345985D01*
X86901944Y-109214951D01*
X86980740Y-109097025D01*
X87081025Y-108996740D01*
X87198951Y-108917944D01*
X87329985Y-108863668D01*
X87469085Y-108836000D01*
X87610915Y-108836000D01*
X87750015Y-108863668D01*
X87750015Y-108863668D01*
G37*
G36*
X89528015Y-107847668D02*
X89659049Y-107901944D01*
X89776975Y-107980740D01*
X89877260Y-108081025D01*
X89956056Y-108198951D01*
X90010332Y-108329985D01*
X90038000Y-108469085D01*
X90038000Y-108610915D01*
X90010332Y-108750015D01*
X89956056Y-108881049D01*
X89877260Y-108998975D01*
X89776975Y-109099260D01*
X89659049Y-109178056D01*
X89528015Y-109232332D01*
X89388915Y-109260000D01*
X89247085Y-109260000D01*
X89107985Y-109232332D01*
X88976951Y-109178056D01*
X88859025Y-109099260D01*
X88758740Y-108998975D01*
X88679944Y-108881049D01*
X88625668Y-108750015D01*
X88598000Y-108610915D01*
X88598000Y-108469085D01*
X88625668Y-108329985D01*
X88679944Y-108198951D01*
X88758740Y-108081025D01*
X88859025Y-107980740D01*
X88976951Y-107901944D01*
X89107985Y-107847668D01*
X89247085Y-107820000D01*
X89388915Y-107820000D01*
X89528015Y-107847668D01*
X89528015Y-107847668D01*
G37*
G36*
X87750015Y-106831668D02*
X87881049Y-106885944D01*
X87998975Y-106964740D01*
X88099260Y-107065025D01*
X88178056Y-107182951D01*
X88232332Y-107313985D01*
X88260000Y-107453085D01*
X88260000Y-107594915D01*
X88232332Y-107734015D01*
X88178056Y-107865049D01*
X88099260Y-107982975D01*
X87998975Y-108083260D01*
X87881049Y-108162056D01*
X87750015Y-108216332D01*
X87610915Y-108244000D01*
X87469085Y-108244000D01*
X87329985Y-108216332D01*
X87198951Y-108162056D01*
X87081025Y-108083260D01*
X86980740Y-107982975D01*
X86901944Y-107865049D01*
X86847668Y-107734015D01*
X86820000Y-107594915D01*
X86820000Y-107453085D01*
X86847668Y-107313985D01*
X86901944Y-107182951D01*
X86980740Y-107065025D01*
X87081025Y-106964740D01*
X87198951Y-106885944D01*
X87329985Y-106831668D01*
X87469085Y-106804000D01*
X87610915Y-106804000D01*
X87750015Y-106831668D01*
X87750015Y-106831668D01*
G37*
G36*
X89528015Y-105815668D02*
X89659049Y-105869944D01*
X89776975Y-105948740D01*
X89877260Y-106049025D01*
X89956056Y-106166951D01*
X90010332Y-106297985D01*
X90038000Y-106437085D01*
X90038000Y-106578915D01*
X90010332Y-106718015D01*
X89956056Y-106849049D01*
X89877260Y-106966975D01*
X89776975Y-107067260D01*
X89659049Y-107146056D01*
X89528015Y-107200332D01*
X89388915Y-107228000D01*
X89247085Y-107228000D01*
X89107985Y-107200332D01*
X88976951Y-107146056D01*
X88859025Y-107067260D01*
X88758740Y-106966975D01*
X88679944Y-106849049D01*
X88625668Y-106718015D01*
X88598000Y-106578915D01*
X88598000Y-106437085D01*
X88625668Y-106297985D01*
X88679944Y-106166951D01*
X88758740Y-106049025D01*
X88859025Y-105948740D01*
X88976951Y-105869944D01*
X89107985Y-105815668D01*
X89247085Y-105788000D01*
X89388915Y-105788000D01*
X89528015Y-105815668D01*
X89528015Y-105815668D01*
G37*
G36*
X142297523Y-105019198D02*
X142483152Y-105096088D01*
X142650213Y-105207715D01*
X142792285Y-105349787D01*
X142903912Y-105516848D01*
X142980802Y-105702477D01*
X143020000Y-105899538D01*
X143020000Y-106100462D01*
X142980802Y-106297523D01*
X142903912Y-106483152D01*
X142792285Y-106650213D01*
X142650213Y-106792285D01*
X142483152Y-106903912D01*
X142297523Y-106980802D01*
X142100462Y-107020000D01*
X141899538Y-107020000D01*
X141702477Y-106980802D01*
X141516848Y-106903912D01*
X141349787Y-106792285D01*
X141207715Y-106650213D01*
X141096088Y-106483152D01*
X141019198Y-106297523D01*
X140980000Y-106100462D01*
X140980000Y-105899538D01*
X141019198Y-105702477D01*
X141096088Y-105516848D01*
X141207715Y-105349787D01*
X141349787Y-105207715D01*
X141516848Y-105096088D01*
X141702477Y-105019198D01*
X141899538Y-104980000D01*
X142100462Y-104980000D01*
X142297523Y-105019198D01*
X142297523Y-105019198D01*
G37*
G36*
X87750015Y-104799668D02*
X87881049Y-104853944D01*
X87998975Y-104932740D01*
X88099260Y-105033025D01*
X88178056Y-105150951D01*
X88232332Y-105281985D01*
X88260000Y-105421085D01*
X88260000Y-105562915D01*
X88232332Y-105702015D01*
X88178056Y-105833049D01*
X88099260Y-105950975D01*
X87998975Y-106051260D01*
X87881049Y-106130056D01*
X87750015Y-106184332D01*
X87610915Y-106212000D01*
X87469085Y-106212000D01*
X87329985Y-106184332D01*
X87198951Y-106130056D01*
X87081025Y-106051260D01*
X86980740Y-105950975D01*
X86901944Y-105833049D01*
X86847668Y-105702015D01*
X86820000Y-105562915D01*
X86820000Y-105421085D01*
X86847668Y-105281985D01*
X86901944Y-105150951D01*
X86980740Y-105033025D01*
X87081025Y-104932740D01*
X87198951Y-104853944D01*
X87329985Y-104799668D01*
X87469085Y-104772000D01*
X87610915Y-104772000D01*
X87750015Y-104799668D01*
X87750015Y-104799668D01*
G37*
G36*
X122311679Y-104510983D02*
X122406311Y-104550181D01*
X122491483Y-104607091D01*
X122563909Y-104679517D01*
X122620819Y-104764689D01*
X122660017Y-104859321D01*
X122680000Y-104959783D01*
X122680000Y-105062217D01*
X122660017Y-105162679D01*
X122620819Y-105257311D01*
X122563909Y-105342483D01*
X122491483Y-105414909D01*
X122406311Y-105471819D01*
X122311679Y-105511017D01*
X122211217Y-105531000D01*
X122108783Y-105531000D01*
X122008321Y-105511017D01*
X121913689Y-105471819D01*
X121828517Y-105414909D01*
X121756091Y-105342483D01*
X121699181Y-105257311D01*
X121659983Y-105162679D01*
X121640000Y-105062217D01*
X121640000Y-104959783D01*
X121659983Y-104859321D01*
X121699181Y-104764689D01*
X121756091Y-104679517D01*
X121828517Y-104607091D01*
X121913689Y-104550181D01*
X122008321Y-104510983D01*
X122108783Y-104491000D01*
X122211217Y-104491000D01*
X122311679Y-104510983D01*
X122311679Y-104510983D01*
G37*
G36*
X89528015Y-103783668D02*
X89659049Y-103837944D01*
X89776975Y-103916740D01*
X89877260Y-104017025D01*
X89956056Y-104134951D01*
X90010332Y-104265985D01*
X90038000Y-104405085D01*
X90038000Y-104546915D01*
X90010332Y-104686015D01*
X89956056Y-104817049D01*
X89877260Y-104934975D01*
X89776975Y-105035260D01*
X89659049Y-105114056D01*
X89528015Y-105168332D01*
X89388915Y-105196000D01*
X89247085Y-105196000D01*
X89107985Y-105168332D01*
X88976951Y-105114056D01*
X88859025Y-105035260D01*
X88758740Y-104934975D01*
X88679944Y-104817049D01*
X88625668Y-104686015D01*
X88598000Y-104546915D01*
X88598000Y-104405085D01*
X88625668Y-104265985D01*
X88679944Y-104134951D01*
X88758740Y-104017025D01*
X88859025Y-103916740D01*
X88976951Y-103837944D01*
X89107985Y-103783668D01*
X89247085Y-103756000D01*
X89388915Y-103756000D01*
X89528015Y-103783668D01*
X89528015Y-103783668D01*
G37*
G36*
X127391679Y-103494983D02*
X127486311Y-103534181D01*
X127571483Y-103591091D01*
X127643909Y-103663517D01*
X127700819Y-103748689D01*
X127740017Y-103843321D01*
X127760000Y-103943783D01*
X127760000Y-104046217D01*
X127740017Y-104146679D01*
X127700819Y-104241311D01*
X127643909Y-104326483D01*
X127571483Y-104398909D01*
X127486311Y-104455819D01*
X127391679Y-104495017D01*
X127291217Y-104515000D01*
X127188783Y-104515000D01*
X127088321Y-104495017D01*
X126993689Y-104455819D01*
X126908517Y-104398909D01*
X126836091Y-104326483D01*
X126779181Y-104241311D01*
X126739983Y-104146679D01*
X126720000Y-104046217D01*
X126720000Y-103943783D01*
X126739983Y-103843321D01*
X126779181Y-103748689D01*
X126836091Y-103663517D01*
X126908517Y-103591091D01*
X126993689Y-103534181D01*
X127088321Y-103494983D01*
X127188783Y-103475000D01*
X127291217Y-103475000D01*
X127391679Y-103494983D01*
X127391679Y-103494983D01*
G37*
G36*
X145772536Y-101142256D02*
X145990070Y-101232361D01*
X146067358Y-101264375D01*
X146114089Y-101295600D01*
X146332692Y-101441666D01*
X146558334Y-101667308D01*
X146735626Y-101932644D01*
X146857744Y-102227464D01*
X146920000Y-102540443D01*
X146920000Y-102859557D01*
X146857744Y-103172536D01*
X146747033Y-103439818D01*
X146735625Y-103467358D01*
X146600213Y-103670016D01*
X146558334Y-103732692D01*
X146332692Y-103958334D01*
X146332689Y-103958336D01*
X146067358Y-104135625D01*
X146067357Y-104135626D01*
X146067356Y-104135626D01*
X145772536Y-104257744D01*
X145459557Y-104320000D01*
X145140443Y-104320000D01*
X144827464Y-104257744D01*
X144532644Y-104135626D01*
X144532643Y-104135626D01*
X144532642Y-104135625D01*
X144267311Y-103958336D01*
X144267308Y-103958334D01*
X144041666Y-103732692D01*
X143999787Y-103670016D01*
X143864375Y-103467358D01*
X143852968Y-103439818D01*
X143742256Y-103172536D01*
X143680000Y-102859557D01*
X143680000Y-102540443D01*
X143742256Y-102227464D01*
X143864374Y-101932644D01*
X144041666Y-101667308D01*
X144267308Y-101441666D01*
X144485911Y-101295600D01*
X144532642Y-101264375D01*
X144609931Y-101232361D01*
X144827464Y-101142256D01*
X145140443Y-101080000D01*
X145459557Y-101080000D01*
X145772536Y-101142256D01*
X145772536Y-101142256D01*
G37*
G36*
X139172536Y-101142256D02*
X139390070Y-101232361D01*
X139467358Y-101264375D01*
X139514089Y-101295600D01*
X139732692Y-101441666D01*
X139958334Y-101667308D01*
X140135626Y-101932644D01*
X140257744Y-102227464D01*
X140320000Y-102540443D01*
X140320000Y-102859557D01*
X140257744Y-103172536D01*
X140147033Y-103439818D01*
X140135625Y-103467358D01*
X140000213Y-103670016D01*
X139958334Y-103732692D01*
X139732692Y-103958334D01*
X139732689Y-103958336D01*
X139467358Y-104135625D01*
X139467357Y-104135626D01*
X139467356Y-104135626D01*
X139172536Y-104257744D01*
X138859557Y-104320000D01*
X138540443Y-104320000D01*
X138227464Y-104257744D01*
X137932644Y-104135626D01*
X137932643Y-104135626D01*
X137932642Y-104135625D01*
X137667311Y-103958336D01*
X137667308Y-103958334D01*
X137441666Y-103732692D01*
X137399787Y-103670016D01*
X137264375Y-103467358D01*
X137252968Y-103439818D01*
X137142256Y-103172536D01*
X137080000Y-102859557D01*
X137080000Y-102540443D01*
X137142256Y-102227464D01*
X137264374Y-101932644D01*
X137441666Y-101667308D01*
X137667308Y-101441666D01*
X137885911Y-101295600D01*
X137932642Y-101264375D01*
X138009931Y-101232361D01*
X138227464Y-101142256D01*
X138540443Y-101080000D01*
X138859557Y-101080000D01*
X139172536Y-101142256D01*
X139172536Y-101142256D01*
G37*
G36*
X87750015Y-102767668D02*
X87881049Y-102821944D01*
X87998975Y-102900740D01*
X88099260Y-103001025D01*
X88178056Y-103118951D01*
X88232332Y-103249985D01*
X88260000Y-103389085D01*
X88260000Y-103530915D01*
X88232332Y-103670015D01*
X88178056Y-103801049D01*
X88099260Y-103918975D01*
X87998975Y-104019260D01*
X87881049Y-104098056D01*
X87750015Y-104152332D01*
X87610915Y-104180000D01*
X87469085Y-104180000D01*
X87329985Y-104152332D01*
X87198951Y-104098056D01*
X87081025Y-104019260D01*
X86980740Y-103918975D01*
X86901944Y-103801049D01*
X86847668Y-103670015D01*
X86820000Y-103530915D01*
X86820000Y-103389085D01*
X86847668Y-103249985D01*
X86901944Y-103118951D01*
X86980740Y-103001025D01*
X87081025Y-102900740D01*
X87198951Y-102821944D01*
X87329985Y-102767668D01*
X87469085Y-102740000D01*
X87610915Y-102740000D01*
X87750015Y-102767668D01*
X87750015Y-102767668D01*
G37*
G36*
X122311679Y-102478983D02*
X122406311Y-102518181D01*
X122491483Y-102575091D01*
X122563909Y-102647517D01*
X122620819Y-102732689D01*
X122660017Y-102827321D01*
X122680000Y-102927783D01*
X122680000Y-103030217D01*
X122660017Y-103130679D01*
X122620819Y-103225311D01*
X122563909Y-103310483D01*
X122491483Y-103382909D01*
X122406311Y-103439819D01*
X122311679Y-103479017D01*
X122211217Y-103499000D01*
X122108783Y-103499000D01*
X122008321Y-103479017D01*
X121913689Y-103439819D01*
X121828517Y-103382909D01*
X121756091Y-103310483D01*
X121699181Y-103225311D01*
X121659983Y-103130679D01*
X121640000Y-103030217D01*
X121640000Y-102927783D01*
X121659983Y-102827321D01*
X121699181Y-102732689D01*
X121756091Y-102647517D01*
X121828517Y-102575091D01*
X121913689Y-102518181D01*
X122008321Y-102478983D01*
X122108783Y-102459000D01*
X122211217Y-102459000D01*
X122311679Y-102478983D01*
X122311679Y-102478983D01*
G37*
G36*
X89528015Y-101751668D02*
X89659049Y-101805944D01*
X89776975Y-101884740D01*
X89877260Y-101985025D01*
X89956056Y-102102951D01*
X90010332Y-102233985D01*
X90038000Y-102373085D01*
X90038000Y-102514915D01*
X90010332Y-102654015D01*
X89956056Y-102785049D01*
X89877260Y-102902975D01*
X89776975Y-103003260D01*
X89659049Y-103082056D01*
X89528015Y-103136332D01*
X89388915Y-103164000D01*
X89247085Y-103164000D01*
X89107985Y-103136332D01*
X88976951Y-103082056D01*
X88859025Y-103003260D01*
X88758740Y-102902975D01*
X88679944Y-102785049D01*
X88625668Y-102654015D01*
X88598000Y-102514915D01*
X88598000Y-102373085D01*
X88625668Y-102233985D01*
X88679944Y-102102951D01*
X88758740Y-101985025D01*
X88859025Y-101884740D01*
X88976951Y-101805944D01*
X89107985Y-101751668D01*
X89247085Y-101724000D01*
X89388915Y-101724000D01*
X89528015Y-101751668D01*
X89528015Y-101751668D01*
G37*
G36*
X94354015Y-100735668D02*
X94485049Y-100789944D01*
X94602975Y-100868740D01*
X94703260Y-100969025D01*
X94782056Y-101086951D01*
X94836332Y-101217985D01*
X94864000Y-101357085D01*
X94864000Y-101498915D01*
X94836332Y-101638015D01*
X94782056Y-101769049D01*
X94703260Y-101886975D01*
X94602975Y-101987260D01*
X94485049Y-102066056D01*
X94354015Y-102120332D01*
X94214915Y-102148000D01*
X94073085Y-102148000D01*
X93933985Y-102120332D01*
X93802951Y-102066056D01*
X93685025Y-101987260D01*
X93584740Y-101886975D01*
X93505944Y-101769049D01*
X93451668Y-101638015D01*
X93424000Y-101498915D01*
X93424000Y-101357085D01*
X93451668Y-101217985D01*
X93505944Y-101086951D01*
X93584740Y-100969025D01*
X93685025Y-100868740D01*
X93802951Y-100789944D01*
X93933985Y-100735668D01*
X94073085Y-100708000D01*
X94214915Y-100708000D01*
X94354015Y-100735668D01*
X94354015Y-100735668D01*
G37*
G36*
X85480001Y-98067639D02*
X85480003Y-98067640D01*
X85480004Y-98067640D01*
X85584655Y-98110988D01*
X85779485Y-98191689D01*
X86049012Y-98371781D01*
X86278219Y-98600988D01*
X86458311Y-98870515D01*
X86582361Y-99169999D01*
X86645600Y-99487921D01*
X86645600Y-99812079D01*
X86582361Y-100130001D01*
X86458311Y-100429485D01*
X86278219Y-100699012D01*
X86049012Y-100928219D01*
X85779485Y-101108311D01*
X85697534Y-101142256D01*
X85480004Y-101232360D01*
X85480003Y-101232360D01*
X85480001Y-101232361D01*
X85162079Y-101295600D01*
X84837921Y-101295600D01*
X84519999Y-101232361D01*
X84519997Y-101232360D01*
X84519996Y-101232360D01*
X84302466Y-101142256D01*
X84220515Y-101108311D01*
X83950988Y-100928219D01*
X83721781Y-100699012D01*
X83541689Y-100429485D01*
X83417639Y-100130001D01*
X83354400Y-99812079D01*
X83354400Y-99487921D01*
X83417639Y-99169999D01*
X83541689Y-98870515D01*
X83721781Y-98600988D01*
X83950988Y-98371781D01*
X84220515Y-98191689D01*
X84415345Y-98110988D01*
X84519996Y-98067640D01*
X84519997Y-98067640D01*
X84519999Y-98067639D01*
X84837921Y-98004400D01*
X85162079Y-98004400D01*
X85480001Y-98067639D01*
X85480001Y-98067639D01*
G37*
G36*
X124114010Y-97757290D02*
X124114013Y-97757291D01*
X124114012Y-97757291D01*
X124210102Y-97797092D01*
X124296581Y-97854875D01*
X124370125Y-97928419D01*
X124427908Y-98014898D01*
X124449754Y-98067640D01*
X124467710Y-98110991D01*
X124472402Y-98134577D01*
X124479515Y-98158026D01*
X124491066Y-98179637D01*
X124506612Y-98198579D01*
X124525554Y-98214125D01*
X124547165Y-98225676D01*
X124570614Y-98232789D01*
X124595000Y-98235191D01*
X124619386Y-98232789D01*
X124642835Y-98225676D01*
X124664446Y-98214125D01*
X124683388Y-98198579D01*
X124698934Y-98179637D01*
X124710485Y-98158026D01*
X124717598Y-98134577D01*
X124722290Y-98110991D01*
X124740246Y-98067640D01*
X124762092Y-98014898D01*
X124819875Y-97928419D01*
X124893419Y-97854875D01*
X124979898Y-97797092D01*
X125075988Y-97757291D01*
X125075987Y-97757291D01*
X125075990Y-97757290D01*
X125177995Y-97737000D01*
X125282005Y-97737000D01*
X125384010Y-97757290D01*
X125384013Y-97757291D01*
X125384012Y-97757291D01*
X125480102Y-97797092D01*
X125566581Y-97854875D01*
X125640125Y-97928419D01*
X125697908Y-98014898D01*
X125719754Y-98067640D01*
X125737710Y-98110991D01*
X125742402Y-98134577D01*
X125749515Y-98158026D01*
X125761066Y-98179637D01*
X125776612Y-98198579D01*
X125795554Y-98214125D01*
X125817165Y-98225676D01*
X125840614Y-98232789D01*
X125865000Y-98235191D01*
X125889386Y-98232789D01*
X125912835Y-98225676D01*
X125934446Y-98214125D01*
X125953388Y-98198579D01*
X125968934Y-98179637D01*
X125980485Y-98158026D01*
X125987598Y-98134577D01*
X125992290Y-98110991D01*
X126010246Y-98067640D01*
X126032092Y-98014898D01*
X126089875Y-97928419D01*
X126163419Y-97854875D01*
X126249898Y-97797092D01*
X126345988Y-97757291D01*
X126345987Y-97757291D01*
X126345990Y-97757290D01*
X126447995Y-97737000D01*
X126552005Y-97737000D01*
X126654010Y-97757290D01*
X126654013Y-97757291D01*
X126654012Y-97757291D01*
X126750102Y-97797092D01*
X126836581Y-97854875D01*
X126910125Y-97928419D01*
X126967908Y-98014898D01*
X126989754Y-98067640D01*
X127007710Y-98110991D01*
X127012402Y-98134577D01*
X127019515Y-98158026D01*
X127031066Y-98179637D01*
X127046612Y-98198579D01*
X127065554Y-98214125D01*
X127087165Y-98225676D01*
X127110614Y-98232789D01*
X127135000Y-98235191D01*
X127159386Y-98232789D01*
X127182835Y-98225676D01*
X127204446Y-98214125D01*
X127223388Y-98198579D01*
X127238934Y-98179637D01*
X127250485Y-98158026D01*
X127257598Y-98134577D01*
X127262290Y-98110991D01*
X127280246Y-98067640D01*
X127302092Y-98014898D01*
X127359875Y-97928419D01*
X127433419Y-97854875D01*
X127519898Y-97797092D01*
X127615988Y-97757291D01*
X127615987Y-97757291D01*
X127615990Y-97757290D01*
X127717995Y-97737000D01*
X127822005Y-97737000D01*
X127924010Y-97757290D01*
X127924013Y-97757291D01*
X127924012Y-97757291D01*
X128020102Y-97797092D01*
X128106581Y-97854875D01*
X128180125Y-97928419D01*
X128237908Y-98014898D01*
X128259754Y-98067640D01*
X128277710Y-98110991D01*
X128282402Y-98134577D01*
X128289515Y-98158026D01*
X128301066Y-98179637D01*
X128316612Y-98198579D01*
X128335554Y-98214125D01*
X128357165Y-98225676D01*
X128380614Y-98232789D01*
X128405000Y-98235191D01*
X128429386Y-98232789D01*
X128452835Y-98225676D01*
X128474446Y-98214125D01*
X128493388Y-98198579D01*
X128508934Y-98179637D01*
X128520485Y-98158026D01*
X128527598Y-98134577D01*
X128532290Y-98110991D01*
X128550246Y-98067640D01*
X128572092Y-98014898D01*
X128629875Y-97928419D01*
X128703419Y-97854875D01*
X128789898Y-97797092D01*
X128885988Y-97757291D01*
X128885987Y-97757291D01*
X128885990Y-97757290D01*
X128987995Y-97737000D01*
X129092005Y-97737000D01*
X129194010Y-97757290D01*
X129194013Y-97757291D01*
X129194012Y-97757291D01*
X129290102Y-97797092D01*
X129376581Y-97854875D01*
X129450125Y-97928419D01*
X129507908Y-98014898D01*
X129529754Y-98067640D01*
X129547710Y-98110990D01*
X129568000Y-98212995D01*
X129568000Y-98317005D01*
X129547710Y-98419010D01*
X129538692Y-98440780D01*
X129507908Y-98515102D01*
X129450125Y-98601581D01*
X129376581Y-98675125D01*
X129290102Y-98732908D01*
X129194012Y-98772709D01*
X129194011Y-98772709D01*
X129194009Y-98772710D01*
X129170423Y-98777402D01*
X129146974Y-98784515D01*
X129125363Y-98796066D01*
X129106421Y-98811612D01*
X129090875Y-98830554D01*
X129079324Y-98852165D01*
X129072211Y-98875614D01*
X129069809Y-98900000D01*
X129072211Y-98924386D01*
X129079324Y-98947835D01*
X129090875Y-98969446D01*
X129106421Y-98988388D01*
X129125363Y-99003934D01*
X129146974Y-99015485D01*
X129170423Y-99022598D01*
X129194009Y-99027290D01*
X129194011Y-99027291D01*
X129194012Y-99027291D01*
X129290102Y-99067092D01*
X129376581Y-99124875D01*
X129450125Y-99198419D01*
X129507908Y-99284898D01*
X129535708Y-99352015D01*
X129547710Y-99380990D01*
X129568000Y-99482995D01*
X129568000Y-99587005D01*
X129547710Y-99689010D01*
X129547709Y-99689012D01*
X129507908Y-99785102D01*
X129450125Y-99871581D01*
X129376581Y-99945125D01*
X129290102Y-100002908D01*
X129215780Y-100033692D01*
X129194010Y-100042710D01*
X129092005Y-100063000D01*
X128987995Y-100063000D01*
X128885990Y-100042710D01*
X128864220Y-100033692D01*
X128789898Y-100002908D01*
X128703419Y-99945125D01*
X128629875Y-99871581D01*
X128572092Y-99785102D01*
X128532291Y-99689012D01*
X128532291Y-99689011D01*
X128532290Y-99689009D01*
X128527598Y-99665423D01*
X128520485Y-99641974D01*
X128508934Y-99620363D01*
X128493388Y-99601421D01*
X128474446Y-99585875D01*
X128452835Y-99574324D01*
X128429386Y-99567211D01*
X128405000Y-99564809D01*
X128380614Y-99567211D01*
X128357165Y-99574324D01*
X128335554Y-99585875D01*
X128316612Y-99601421D01*
X128301066Y-99620363D01*
X128289515Y-99641974D01*
X128282402Y-99665423D01*
X128277710Y-99689009D01*
X128277709Y-99689011D01*
X128277709Y-99689012D01*
X128237908Y-99785102D01*
X128180125Y-99871581D01*
X128106581Y-99945125D01*
X128020102Y-100002908D01*
X127945780Y-100033692D01*
X127924010Y-100042710D01*
X127822005Y-100063000D01*
X127717995Y-100063000D01*
X127615990Y-100042710D01*
X127594220Y-100033692D01*
X127519898Y-100002908D01*
X127433419Y-99945125D01*
X127359875Y-99871581D01*
X127302092Y-99785102D01*
X127262291Y-99689012D01*
X127262291Y-99689011D01*
X127262290Y-99689009D01*
X127257598Y-99665423D01*
X127250485Y-99641974D01*
X127238934Y-99620363D01*
X127223388Y-99601421D01*
X127204446Y-99585875D01*
X127182835Y-99574324D01*
X127159386Y-99567211D01*
X127135000Y-99564809D01*
X127110614Y-99567211D01*
X127087165Y-99574324D01*
X127065554Y-99585875D01*
X127046612Y-99601421D01*
X127031066Y-99620363D01*
X127019515Y-99641974D01*
X127012402Y-99665423D01*
X127007710Y-99689009D01*
X127007709Y-99689011D01*
X127007709Y-99689012D01*
X126967908Y-99785102D01*
X126910125Y-99871581D01*
X126836581Y-99945125D01*
X126750102Y-100002908D01*
X126675780Y-100033692D01*
X126654010Y-100042710D01*
X126552005Y-100063000D01*
X126447995Y-100063000D01*
X126345990Y-100042710D01*
X126324220Y-100033692D01*
X126249898Y-100002908D01*
X126163419Y-99945125D01*
X126089875Y-99871581D01*
X126032092Y-99785102D01*
X125992291Y-99689012D01*
X125992291Y-99689011D01*
X125992290Y-99689009D01*
X125987598Y-99665423D01*
X125980485Y-99641974D01*
X125968934Y-99620363D01*
X125953388Y-99601421D01*
X125934446Y-99585875D01*
X125912835Y-99574324D01*
X125889386Y-99567211D01*
X125865000Y-99564809D01*
X125840614Y-99567211D01*
X125817165Y-99574324D01*
X125795554Y-99585875D01*
X125776612Y-99601421D01*
X125761066Y-99620363D01*
X125749515Y-99641974D01*
X125742402Y-99665423D01*
X125737710Y-99689009D01*
X125737709Y-99689011D01*
X125737709Y-99689012D01*
X125697908Y-99785102D01*
X125640125Y-99871581D01*
X125566581Y-99945125D01*
X125480102Y-100002908D01*
X125405780Y-100033692D01*
X125384010Y-100042710D01*
X125282005Y-100063000D01*
X125177995Y-100063000D01*
X125075990Y-100042710D01*
X125054220Y-100033692D01*
X124979898Y-100002908D01*
X124893419Y-99945125D01*
X124819875Y-99871581D01*
X124762092Y-99785102D01*
X124722291Y-99689012D01*
X124722291Y-99689011D01*
X124722290Y-99689009D01*
X124717598Y-99665423D01*
X124710485Y-99641974D01*
X124698934Y-99620363D01*
X124683388Y-99601421D01*
X124664446Y-99585875D01*
X124642835Y-99574324D01*
X124619386Y-99567211D01*
X124595000Y-99564809D01*
X124570614Y-99567211D01*
X124547165Y-99574324D01*
X124525554Y-99585875D01*
X124506612Y-99601421D01*
X124491066Y-99620363D01*
X124479515Y-99641974D01*
X124472402Y-99665423D01*
X124467710Y-99689009D01*
X124467709Y-99689011D01*
X124467709Y-99689012D01*
X124427908Y-99785102D01*
X124370125Y-99871581D01*
X124296581Y-99945125D01*
X124210102Y-100002908D01*
X124135780Y-100033692D01*
X124114010Y-100042710D01*
X124012005Y-100063000D01*
X123907995Y-100063000D01*
X123805990Y-100042710D01*
X123784220Y-100033692D01*
X123709898Y-100002908D01*
X123623419Y-99945125D01*
X123549875Y-99871581D01*
X123492092Y-99785102D01*
X123452291Y-99689012D01*
X123452290Y-99689010D01*
X123432000Y-99587005D01*
X123432000Y-99482995D01*
X123452290Y-99380990D01*
X123464292Y-99352015D01*
X123492092Y-99284898D01*
X123549875Y-99198419D01*
X123623419Y-99124875D01*
X123709898Y-99067092D01*
X123805988Y-99027291D01*
X123805989Y-99027291D01*
X123805991Y-99027290D01*
X123829577Y-99022598D01*
X123853026Y-99015485D01*
X123874637Y-99003934D01*
X123893579Y-98988388D01*
X123909125Y-98969446D01*
X123920676Y-98947835D01*
X123927789Y-98924386D01*
X123930191Y-98900000D01*
X123989809Y-98900000D01*
X123992211Y-98924386D01*
X123999324Y-98947835D01*
X124010875Y-98969446D01*
X124026421Y-98988388D01*
X124045363Y-99003934D01*
X124066974Y-99015485D01*
X124090423Y-99022598D01*
X124114009Y-99027290D01*
X124114011Y-99027291D01*
X124114012Y-99027291D01*
X124210102Y-99067092D01*
X124296581Y-99124875D01*
X124370125Y-99198419D01*
X124427908Y-99284898D01*
X124467709Y-99380988D01*
X124467710Y-99380991D01*
X124472402Y-99404577D01*
X124479515Y-99428026D01*
X124491066Y-99449637D01*
X124506612Y-99468579D01*
X124525554Y-99484125D01*
X124547165Y-99495676D01*
X124570614Y-99502789D01*
X124595000Y-99505191D01*
X124619386Y-99502789D01*
X124642835Y-99495676D01*
X124664446Y-99484125D01*
X124683388Y-99468579D01*
X124698934Y-99449637D01*
X124710485Y-99428026D01*
X124717598Y-99404577D01*
X124722290Y-99380991D01*
X124722291Y-99380988D01*
X124762092Y-99284898D01*
X124819875Y-99198419D01*
X124893419Y-99124875D01*
X124979898Y-99067092D01*
X125075988Y-99027291D01*
X125075989Y-99027291D01*
X125075991Y-99027290D01*
X125099577Y-99022598D01*
X125123026Y-99015485D01*
X125144637Y-99003934D01*
X125163579Y-98988388D01*
X125179125Y-98969446D01*
X125190676Y-98947835D01*
X125197789Y-98924386D01*
X125200191Y-98900000D01*
X125259809Y-98900000D01*
X125262211Y-98924386D01*
X125269324Y-98947835D01*
X125280875Y-98969446D01*
X125296421Y-98988388D01*
X125315363Y-99003934D01*
X125336974Y-99015485D01*
X125360423Y-99022598D01*
X125384009Y-99027290D01*
X125384011Y-99027291D01*
X125384012Y-99027291D01*
X125480102Y-99067092D01*
X125566581Y-99124875D01*
X125640125Y-99198419D01*
X125697908Y-99284898D01*
X125737709Y-99380988D01*
X125737710Y-99380991D01*
X125742402Y-99404577D01*
X125749515Y-99428026D01*
X125761066Y-99449637D01*
X125776612Y-99468579D01*
X125795554Y-99484125D01*
X125817165Y-99495676D01*
X125840614Y-99502789D01*
X125865000Y-99505191D01*
X125889386Y-99502789D01*
X125912835Y-99495676D01*
X125934446Y-99484125D01*
X125953388Y-99468579D01*
X125968934Y-99449637D01*
X125980485Y-99428026D01*
X125987598Y-99404577D01*
X125992290Y-99380991D01*
X125992291Y-99380988D01*
X126032092Y-99284898D01*
X126089875Y-99198419D01*
X126163419Y-99124875D01*
X126249898Y-99067092D01*
X126345988Y-99027291D01*
X126345989Y-99027291D01*
X126345991Y-99027290D01*
X126369577Y-99022598D01*
X126393026Y-99015485D01*
X126414637Y-99003934D01*
X126433579Y-98988388D01*
X126449125Y-98969446D01*
X126460676Y-98947835D01*
X126467789Y-98924386D01*
X126470191Y-98900000D01*
X126529809Y-98900000D01*
X126532211Y-98924386D01*
X126539324Y-98947835D01*
X126550875Y-98969446D01*
X126566421Y-98988388D01*
X126585363Y-99003934D01*
X126606974Y-99015485D01*
X126630423Y-99022598D01*
X126654009Y-99027290D01*
X126654011Y-99027291D01*
X126654012Y-99027291D01*
X126750102Y-99067092D01*
X126836581Y-99124875D01*
X126910125Y-99198419D01*
X126967908Y-99284898D01*
X127007709Y-99380988D01*
X127007710Y-99380991D01*
X127012402Y-99404577D01*
X127019515Y-99428026D01*
X127031066Y-99449637D01*
X127046612Y-99468579D01*
X127065554Y-99484125D01*
X127087165Y-99495676D01*
X127110614Y-99502789D01*
X127135000Y-99505191D01*
X127159386Y-99502789D01*
X127182835Y-99495676D01*
X127204446Y-99484125D01*
X127223388Y-99468579D01*
X127238934Y-99449637D01*
X127250485Y-99428026D01*
X127257598Y-99404577D01*
X127262290Y-99380991D01*
X127262291Y-99380988D01*
X127302092Y-99284898D01*
X127359875Y-99198419D01*
X127433419Y-99124875D01*
X127519898Y-99067092D01*
X127615988Y-99027291D01*
X127615989Y-99027291D01*
X127615991Y-99027290D01*
X127639577Y-99022598D01*
X127663026Y-99015485D01*
X127684637Y-99003934D01*
X127703579Y-98988388D01*
X127719125Y-98969446D01*
X127730676Y-98947835D01*
X127737789Y-98924386D01*
X127740191Y-98900000D01*
X127799809Y-98900000D01*
X127802211Y-98924386D01*
X127809324Y-98947835D01*
X127820875Y-98969446D01*
X127836421Y-98988388D01*
X127855363Y-99003934D01*
X127876974Y-99015485D01*
X127900423Y-99022598D01*
X127924009Y-99027290D01*
X127924011Y-99027291D01*
X127924012Y-99027291D01*
X128020102Y-99067092D01*
X128106581Y-99124875D01*
X128180125Y-99198419D01*
X128237908Y-99284898D01*
X128277709Y-99380988D01*
X128277710Y-99380991D01*
X128282402Y-99404577D01*
X128289515Y-99428026D01*
X128301066Y-99449637D01*
X128316612Y-99468579D01*
X128335554Y-99484125D01*
X128357165Y-99495676D01*
X128380614Y-99502789D01*
X128405000Y-99505191D01*
X128429386Y-99502789D01*
X128452835Y-99495676D01*
X128474446Y-99484125D01*
X128493388Y-99468579D01*
X128508934Y-99449637D01*
X128520485Y-99428026D01*
X128527598Y-99404577D01*
X128532290Y-99380991D01*
X128532291Y-99380988D01*
X128572092Y-99284898D01*
X128629875Y-99198419D01*
X128703419Y-99124875D01*
X128789898Y-99067092D01*
X128885988Y-99027291D01*
X128885989Y-99027291D01*
X128885991Y-99027290D01*
X128909577Y-99022598D01*
X128933026Y-99015485D01*
X128954637Y-99003934D01*
X128973579Y-98988388D01*
X128989125Y-98969446D01*
X129000676Y-98947835D01*
X129007789Y-98924386D01*
X129010191Y-98900000D01*
X129007789Y-98875614D01*
X129000676Y-98852165D01*
X128989125Y-98830554D01*
X128973579Y-98811612D01*
X128954637Y-98796066D01*
X128933026Y-98784515D01*
X128909577Y-98777402D01*
X128885991Y-98772710D01*
X128885989Y-98772709D01*
X128885988Y-98772709D01*
X128789898Y-98732908D01*
X128703419Y-98675125D01*
X128629875Y-98601581D01*
X128572092Y-98515102D01*
X128532291Y-98419012D01*
X128532291Y-98419011D01*
X128532290Y-98419009D01*
X128527598Y-98395423D01*
X128520485Y-98371974D01*
X128508934Y-98350363D01*
X128493388Y-98331421D01*
X128474446Y-98315875D01*
X128452835Y-98304324D01*
X128429386Y-98297211D01*
X128405000Y-98294809D01*
X128380614Y-98297211D01*
X128357165Y-98304324D01*
X128335554Y-98315875D01*
X128316612Y-98331421D01*
X128301066Y-98350363D01*
X128289515Y-98371974D01*
X128282402Y-98395423D01*
X128277710Y-98419009D01*
X128277709Y-98419011D01*
X128277709Y-98419012D01*
X128237908Y-98515102D01*
X128180125Y-98601581D01*
X128106581Y-98675125D01*
X128020102Y-98732908D01*
X127924012Y-98772709D01*
X127924011Y-98772709D01*
X127924009Y-98772710D01*
X127900423Y-98777402D01*
X127876974Y-98784515D01*
X127855363Y-98796066D01*
X127836421Y-98811612D01*
X127820875Y-98830554D01*
X127809324Y-98852165D01*
X127802211Y-98875614D01*
X127799809Y-98900000D01*
X127740191Y-98900000D01*
X127737789Y-98875614D01*
X127730676Y-98852165D01*
X127719125Y-98830554D01*
X127703579Y-98811612D01*
X127684637Y-98796066D01*
X127663026Y-98784515D01*
X127639577Y-98777402D01*
X127615991Y-98772710D01*
X127615989Y-98772709D01*
X127615988Y-98772709D01*
X127519898Y-98732908D01*
X127433419Y-98675125D01*
X127359875Y-98601581D01*
X127302092Y-98515102D01*
X127262291Y-98419012D01*
X127262291Y-98419011D01*
X127262290Y-98419009D01*
X127257598Y-98395423D01*
X127250485Y-98371974D01*
X127238934Y-98350363D01*
X127223388Y-98331421D01*
X127204446Y-98315875D01*
X127182835Y-98304324D01*
X127159386Y-98297211D01*
X127135000Y-98294809D01*
X127110614Y-98297211D01*
X127087165Y-98304324D01*
X127065554Y-98315875D01*
X127046612Y-98331421D01*
X127031066Y-98350363D01*
X127019515Y-98371974D01*
X127012402Y-98395423D01*
X127007710Y-98419009D01*
X127007709Y-98419011D01*
X127007709Y-98419012D01*
X126967908Y-98515102D01*
X126910125Y-98601581D01*
X126836581Y-98675125D01*
X126750102Y-98732908D01*
X126654012Y-98772709D01*
X126654011Y-98772709D01*
X126654009Y-98772710D01*
X126630423Y-98777402D01*
X126606974Y-98784515D01*
X126585363Y-98796066D01*
X126566421Y-98811612D01*
X126550875Y-98830554D01*
X126539324Y-98852165D01*
X126532211Y-98875614D01*
X126529809Y-98900000D01*
X126470191Y-98900000D01*
X126467789Y-98875614D01*
X126460676Y-98852165D01*
X126449125Y-98830554D01*
X126433579Y-98811612D01*
X126414637Y-98796066D01*
X126393026Y-98784515D01*
X126369577Y-98777402D01*
X126345991Y-98772710D01*
X126345989Y-98772709D01*
X126345988Y-98772709D01*
X126249898Y-98732908D01*
X126163419Y-98675125D01*
X126089875Y-98601581D01*
X126032092Y-98515102D01*
X125992291Y-98419012D01*
X125992291Y-98419011D01*
X125992290Y-98419009D01*
X125987598Y-98395423D01*
X125980485Y-98371974D01*
X125968934Y-98350363D01*
X125953388Y-98331421D01*
X125934446Y-98315875D01*
X125912835Y-98304324D01*
X125889386Y-98297211D01*
X125865000Y-98294809D01*
X125840614Y-98297211D01*
X125817165Y-98304324D01*
X125795554Y-98315875D01*
X125776612Y-98331421D01*
X125761066Y-98350363D01*
X125749515Y-98371974D01*
X125742402Y-98395423D01*
X125737710Y-98419009D01*
X125737709Y-98419011D01*
X125737709Y-98419012D01*
X125697908Y-98515102D01*
X125640125Y-98601581D01*
X125566581Y-98675125D01*
X125480102Y-98732908D01*
X125384012Y-98772709D01*
X125384011Y-98772709D01*
X125384009Y-98772710D01*
X125360423Y-98777402D01*
X125336974Y-98784515D01*
X125315363Y-98796066D01*
X125296421Y-98811612D01*
X125280875Y-98830554D01*
X125269324Y-98852165D01*
X125262211Y-98875614D01*
X125259809Y-98900000D01*
X125200191Y-98900000D01*
X125197789Y-98875614D01*
X125190676Y-98852165D01*
X125179125Y-98830554D01*
X125163579Y-98811612D01*
X125144637Y-98796066D01*
X125123026Y-98784515D01*
X125099577Y-98777402D01*
X125075991Y-98772710D01*
X125075989Y-98772709D01*
X125075988Y-98772709D01*
X124979898Y-98732908D01*
X124893419Y-98675125D01*
X124819875Y-98601581D01*
X124762092Y-98515102D01*
X124722291Y-98419012D01*
X124722291Y-98419011D01*
X124722290Y-98419009D01*
X124717598Y-98395423D01*
X124710485Y-98371974D01*
X124698934Y-98350363D01*
X124683388Y-98331421D01*
X124664446Y-98315875D01*
X124642835Y-98304324D01*
X124619386Y-98297211D01*
X124595000Y-98294809D01*
X124570614Y-98297211D01*
X124547165Y-98304324D01*
X124525554Y-98315875D01*
X124506612Y-98331421D01*
X124491066Y-98350363D01*
X124479515Y-98371974D01*
X124472402Y-98395423D01*
X124467710Y-98419009D01*
X124467709Y-98419011D01*
X124467709Y-98419012D01*
X124427908Y-98515102D01*
X124370125Y-98601581D01*
X124296581Y-98675125D01*
X124210102Y-98732908D01*
X124114012Y-98772709D01*
X124114011Y-98772709D01*
X124114009Y-98772710D01*
X124090423Y-98777402D01*
X124066974Y-98784515D01*
X124045363Y-98796066D01*
X124026421Y-98811612D01*
X124010875Y-98830554D01*
X123999324Y-98852165D01*
X123992211Y-98875614D01*
X123989809Y-98900000D01*
X123930191Y-98900000D01*
X123927789Y-98875614D01*
X123920676Y-98852165D01*
X123909125Y-98830554D01*
X123893579Y-98811612D01*
X123874637Y-98796066D01*
X123853026Y-98784515D01*
X123829577Y-98777402D01*
X123805991Y-98772710D01*
X123805989Y-98772709D01*
X123805988Y-98772709D01*
X123709898Y-98732908D01*
X123623419Y-98675125D01*
X123549875Y-98601581D01*
X123492092Y-98515102D01*
X123461308Y-98440780D01*
X123452290Y-98419010D01*
X123432000Y-98317005D01*
X123432000Y-98212995D01*
X123452290Y-98110990D01*
X123470246Y-98067640D01*
X123492092Y-98014898D01*
X123549875Y-97928419D01*
X123623419Y-97854875D01*
X123709898Y-97797092D01*
X123805988Y-97757291D01*
X123805987Y-97757291D01*
X123805990Y-97757290D01*
X123907995Y-97737000D01*
X124012005Y-97737000D01*
X124114010Y-97757290D01*
X124114010Y-97757290D01*
G37*
G36*
X94354015Y-98449668D02*
X94485049Y-98503944D01*
X94602975Y-98582740D01*
X94703260Y-98683025D01*
X94782056Y-98800951D01*
X94836332Y-98931985D01*
X94864000Y-99071085D01*
X94864000Y-99212915D01*
X94836332Y-99352015D01*
X94782056Y-99483049D01*
X94703260Y-99600975D01*
X94602975Y-99701260D01*
X94485049Y-99780056D01*
X94354015Y-99834332D01*
X94214915Y-99862000D01*
X94073085Y-99862000D01*
X93933985Y-99834332D01*
X93802951Y-99780056D01*
X93685025Y-99701260D01*
X93584740Y-99600975D01*
X93505944Y-99483049D01*
X93451668Y-99352015D01*
X93424000Y-99212915D01*
X93424000Y-99071085D01*
X93451668Y-98931985D01*
X93505944Y-98800951D01*
X93584740Y-98683025D01*
X93685025Y-98582740D01*
X93802951Y-98503944D01*
X93933985Y-98449668D01*
X94073085Y-98422000D01*
X94214915Y-98422000D01*
X94354015Y-98449668D01*
X94354015Y-98449668D01*
G37*
G36*
X88805277Y-96631573D02*
X89040045Y-96728817D01*
X89251330Y-96869993D01*
X89431007Y-97049670D01*
X89572183Y-97260955D01*
X89669427Y-97495723D01*
X89719000Y-97744945D01*
X89719000Y-97999055D01*
X89669427Y-98248277D01*
X89572183Y-98483045D01*
X89431007Y-98694330D01*
X89251330Y-98874007D01*
X89040045Y-99015183D01*
X88805277Y-99112427D01*
X88556055Y-99162000D01*
X88301945Y-99162000D01*
X88052723Y-99112427D01*
X87817955Y-99015183D01*
X87606670Y-98874007D01*
X87426993Y-98694330D01*
X87285817Y-98483045D01*
X87188573Y-98248277D01*
X87139000Y-97999055D01*
X87139000Y-97744945D01*
X87188573Y-97495723D01*
X87285817Y-97260955D01*
X87426993Y-97049670D01*
X87606670Y-96869993D01*
X87817955Y-96728817D01*
X88052723Y-96631573D01*
X88301945Y-96582000D01*
X88556055Y-96582000D01*
X88805277Y-96631573D01*
X88805277Y-96631573D01*
G37*
M02*
