M48
;DRILL file {KiCad 5.0.1-33cea8e~66~ubuntu18.04.1} date Tue 27 Nov 2018 01:50:51 GMT
;FORMAT={-:-/ absolute / inch / decimal}
FMAT,2
INCH,TZ
T1C0.0100
T2C0.0118
T3C0.0138
T4C0.0157
T5C0.0197
T6C0.0250
T7C0.0315
T8C0.0354
T9C0.0394
T10C0.0472
T11C0.0620
T12C0.0866
T13C0.0236
T14C0.0394
T15C0.1280
T16C0.1299
%
G90
G05
M72
T1
X4.378Y-4.063
X4.4094Y-4.1575
X4.4094Y-4.252
X4.4409Y-4.0945
X4.4724Y-4.126
X4.4724Y-4.1575
X4.4724Y-4.189
X4.4724Y-4.252
X4.5039Y-4.1575
X4.5039Y-4.189
X4.5039Y-4.252
X4.5354Y-4.189
X4.5394Y-4.0276
X4.5669Y-4.126
X4.5669Y-4.1575
X4.5669Y-4.252
X4.5728Y-3.8307
X4.6339Y-3.8701
X4.6358Y-3.9744
X4.6594Y-4.0344
X4.6732Y-5.0551
X4.6732Y-5.0866
X4.7047Y-4.8661
X4.7047Y-5.0551
X4.7047Y-5.0866
X4.7205Y-5.1909
X4.7362Y-4.9291
X4.7362Y-4.9606
X4.7362Y-5.0236
X4.7362Y-5.0866
X4.7362Y-5.1181
X4.7382Y-5.1732
X4.7677Y-4.9606
X4.7677Y-4.9921
X4.7677Y-5.0236
X4.7677Y-5.0551
X4.7677Y-5.0866
X4.7972Y-4.9272
X4.7992Y-4.8976
X4.7992Y-4.9606
X4.7992Y-4.9921
X4.7992Y-5.0236
X4.7992Y-5.0866
X4.8307Y-4.9291
X4.8307Y-4.9606
X4.8307Y-4.9921
X4.8307Y-5.0236
X4.8307Y-5.0866
X4.8622Y-5.1181
X4.8937Y-4.8661
X4.8937Y-5.0551
X4.8937Y-5.0866
X4.8957Y-4.8327
X4.9252Y-4.8976
X4.9646Y-4.815
X4.9862Y-4.7382
X4.9862Y-5.0925
X4.9941Y-5.1457
X5.0118Y-5.126
X5.0197Y-5.1693
X5.0453Y-4.7736
X5.0453Y-4.7992
X5.0512Y-5.1772
X5.0512Y-5.3504
X5.065Y-4.8307
X5.0827Y-5.2402
X5.0984Y-5.3504
X5.1201Y-4.685
X5.1496Y-4.8307
T2
X3.2677Y-5.7283
X3.3957Y-4.2717
X3.435Y-3.9272
X3.4449Y-4.4193
X3.4646Y-4.7717
X3.4783Y-4.8209
X3.4783Y-4.9272
X3.4941Y-4.3602
X3.5039Y-3.937
X3.5827Y-3.8189
X3.5827Y-4.5276
X3.6102Y-5.0984
X3.6102Y-5.5039
X3.6122Y-3.9469
X3.6122Y-4.1142
X3.6398Y-5.5886
X3.6693Y-4.7244
X3.6693Y-4.9606
X3.6811Y-4.0453
X3.7205Y-3.8189
X3.7205Y-4.5276
X3.7323Y-4.2756
X3.7618Y-4.3524
X3.7677Y-4.1142
X3.7933Y-4.5039
X3.7953Y-3.8386
X3.7992Y-4.185
X3.8386Y-4.2165
X3.8386Y-4.439
X3.8681Y-4.3524
X3.874Y-5.5591
X3.874Y-5.6693
X3.9213Y-3.9291
X3.9272Y-4.439
X3.9685Y-4.4685
X4.0276Y-4.4685
X4.0354Y-4.4291
X4.0531Y-4.1063
X4.0531Y-4.189
X4.0551Y-4.7441
X4.0591Y-4.0531
X4.0856Y-4.189
X4.0866Y-4.4685
X4.0945Y-3.8091
X4.0965Y-4.0276
X4.1102Y-4.189
X4.1122Y-4.878
X4.122Y-3.937
X4.1339Y-4.4488
X4.1339Y-4.5276
X4.1476Y-4.878
X4.1496Y-3.9882
X4.1516Y-4.0925
X4.1614Y-5.0098
X4.1654Y-5.6063
X4.1772Y-3.9606
X4.2126Y-4.5276
X4.2224Y-3.8091
X4.2323Y-3.937
X4.2441Y-4.3976
X4.2441Y-4.4331
X4.2992Y-4.0157
X4.2992Y-4.0472
X4.3071Y-3.8071
X4.311Y-5.0394
X4.3346Y-4.878
X4.3386Y-3.9803
X4.3386Y-4.374
X4.378Y-3.9803
X4.4035Y-4.8209
X4.4035Y-4.8583
X4.4094Y-3.8071
X4.4094Y-4.9724
X4.4213Y-3.9803
X4.4488Y-4.5394
X4.4528Y-3.9803
X4.4528Y-5.0394
X4.4567Y-3.8228
X4.4705Y-4.7382
X4.4764Y-3.7992
X4.5079Y-3.9843
X4.5098Y-4.7244
X4.5197Y-4.3622
X4.5394Y-3.9843
X4.5472Y-4.4921
X4.5472Y-5.0315
X4.5512Y-4.5394
X4.5748Y-3.8976
X4.5787Y-4.7559
X4.5945Y-3.8701
X4.5984Y-5.5591
X4.5984Y-5.6654
X4.6358Y-4.6831
X4.6476Y-4.7894
X4.6496Y-3.9134
X4.6496Y-4.7205
X4.6614Y-4.4961
X4.6693Y-3.8091
X4.6693Y-3.8898
X4.6772Y-3.9606
X4.6831Y-4.7894
X4.6988Y-4.3642
X4.7008Y-4.4764
X4.7165Y-4.0354
X4.7244Y-4.0039
X4.7303Y-4.7894
X4.7343Y-4.3642
X4.7362Y-4.4764
X4.7441Y-4.0748
X4.7441Y-4.1929
X4.7638Y-4.5276
X4.7657Y-4.7894
X4.7795Y-3.8031
X4.7835Y-3.8858
X4.7835Y-3.9961
X4.7874Y-5.6063
X4.8031Y-4.1929
X4.813Y-4.7894
X4.8425Y-3.8189
X4.8425Y-4.4154
X4.8425Y-4.5276
X4.8484Y-4.7894
X4.8583Y-4.0118
X4.872Y-4.1929
X4.8819Y-3.9646
X4.8858Y-3.9969
X4.8858Y-4.7165
X4.9213Y-3.8189
X4.9213Y-4.3701
X4.9213Y-4.5276
X4.9213Y-4.6949
X4.9488Y-4.7087
X4.9646Y-4.7559
X4.9685Y-5.5591
X4.9685Y-5.6654
X5.Y-3.8189
X5.Y-4.0295
X5.Y-4.3701
X5.Y-4.5276
X5.0394Y-5.5472
X5.0748Y-4.0709
X5.0787Y-3.8189
X5.0787Y-4.2913
X5.0787Y-4.3701
X5.0787Y-4.5276
X5.1201Y-4.7441
X5.1457Y-4.0394
X5.1575Y-3.8189
X5.1575Y-4.252
X5.1575Y-4.3701
X5.1575Y-4.5276
X5.1594Y-4.8957
X5.189Y-4.7677
X5.189Y-4.8031
X5.2087Y-4.3031
X5.2362Y-3.8189
X5.2362Y-4.0945
X5.2362Y-4.5276
X5.2441Y-4.3031
X5.2559Y-4.8996
X5.2913Y-3.9843
X5.2913Y-4.3622
X5.2953Y-4.9331
X5.315Y-3.8189
X5.315Y-4.5276
X5.3406Y-4.8839
X5.3937Y-3.8189
X5.3937Y-4.5276
X5.4055Y-5.6063
X5.437Y-4.9331
X5.4724Y-3.8189
X5.4724Y-4.5276
X5.5512Y-3.8189
X5.5512Y-4.5276
X5.6299Y-3.8189
X5.6299Y-4.5276
X5.6299Y-4.6969
X5.6299Y-4.9134
X5.7087Y-3.8189
X5.7087Y-4.5276
X5.7323Y-5.5591
X5.7323Y-5.6693
X5.7874Y-3.8189
X5.7874Y-4.5276
X5.8661Y-3.8189
X5.8661Y-3.8976
X5.8661Y-3.9764
X5.8661Y-4.0551
X5.8661Y-4.1339
X5.8661Y-4.2126
X5.8661Y-4.2913
X5.8661Y-4.3701
X5.8661Y-4.4488
X5.8661Y-4.5276
X5.9173Y-5.6339
X6.1457Y-5.1575
X6.3031Y-5.1654
X6.6732Y-4.815
X6.6732Y-5.063
X6.6969Y-5.1614
X6.7441Y-4.9449
X6.7441Y-5.0315
X6.7677Y-4.9213
X6.878Y-4.7992
X6.8799Y-4.8976
X6.9724Y-4.9882
X7.Y-4.9724
X7.Y-5.1339
X7.0197Y-4.8976
X7.0787Y-4.9134
X7.1024Y-4.9724
X7.1024Y-5.0197
X7.1102Y-5.0827
X7.2008Y-5.4724
X7.3425Y-5.0591
T3
X6.8268Y-4.9961
X6.8268Y-5.0433
X6.874Y-4.9961
X6.874Y-5.0433
T4
X3.189Y-5.
X3.189Y-5.1969
X3.189Y-5.3937
X3.189Y-5.5906
X3.4252Y-4.685
X3.4646Y-6.2598
X3.5236Y-5.7913
X3.6614Y-6.2598
X3.7362Y-4.0591
X3.748Y-4.748
X3.7953Y-5.5276
X3.7992Y-3.9488
X3.8189Y-5.1575
X3.8583Y-6.2598
X3.8976Y-5.4173
X3.9567Y-5.5709
X4.0157Y-5.1575
X4.0551Y-6.0039
X4.0551Y-6.2598
X4.0748Y-4.0079
X4.1102Y-5.4173
X4.2126Y-5.1575
X4.252Y-6.2598
X4.3071Y-4.748
X4.3228Y-5.4173
X4.4134Y-5.1417
X4.4134Y-5.315
X4.4488Y-6.2598
X4.4882Y-5.3346
X4.5236Y-5.5354
X4.6457Y-6.2598
X4.6772Y-6.
X4.7638Y-5.4331
X4.8425Y-6.2598
X4.8937Y-5.5591
X5.0394Y-6.2598
X5.1339Y-5.4213
X5.2362Y-4.685
X5.2362Y-6.2598
X5.2953Y-5.1772
X5.2953Y-6.0039
X5.4331Y-4.685
X5.4331Y-6.2598
X5.5709Y-5.4213
X5.6299Y-6.2598
X5.6496Y-5.563
X5.7402Y-5.4488
X5.8268Y-4.685
X5.8268Y-6.2598
X6.0236Y-6.2598
X6.4449Y-5.7677
X6.4449Y-5.8504
X6.5394Y-5.0984
X6.6339Y-4.7717
X6.685Y-5.6417
X6.8937Y-4.7087
X6.937Y-5.6417
X7.0945Y-4.7087
X7.1024Y-5.1772
X7.189Y-5.5866
X7.189Y-5.689
X7.189Y-5.7992
X7.2047Y-4.7244
X7.2165Y-5.185
X7.2165Y-5.2992
X7.2402Y-5.9488
X7.4843Y-5.6299
X7.4843Y-5.7598
T5
X3.3268Y-4.6063
X3.3665Y-4.6063
X4.1535Y-4.6063
X4.1933Y-4.6063
X4.9016Y-4.6063
X4.9413Y-4.6063
X5.7283Y-4.6063
X5.7681Y-4.6063
T6
X4.8803Y-3.8687
X4.8803Y-3.9187
X4.9303Y-3.8687
X4.9303Y-3.9187
X4.9803Y-3.8687
X4.9803Y-3.9187
X5.0303Y-3.8687
X5.0303Y-3.9187
X5.0803Y-3.8687
X5.0803Y-3.9187
X5.2917Y-4.7531
X5.2917Y-4.8031
X5.3417Y-4.7531
X5.3417Y-4.8031
X5.3917Y-4.7531
X5.3917Y-4.8031
X5.4417Y-4.7531
X5.4417Y-4.8031
X5.4917Y-4.7531
X5.4917Y-4.8031
T7
X5.7524Y-4.7933
X5.8524Y-4.7933
X5.9524Y-4.7933
X6.0524Y-4.7933
X6.2524Y-4.7933
X6.3524Y-4.7933
X6.4524Y-4.7933
X5.7524Y-5.187
X5.8524Y-5.187
X5.9524Y-5.187
X6.0524Y-5.187
X6.2524Y-5.187
X6.3524Y-5.187
X6.4524Y-5.187
T8
X3.4465Y-4.0732
X3.4465Y-4.1532
X3.4465Y-4.2332
X3.4465Y-4.3132
X3.5165Y-4.0332
X3.5165Y-4.1132
X3.5165Y-4.1932
X3.5165Y-4.2732
X3.7065Y-3.9032
X3.7065Y-3.9932
X3.7065Y-4.3532
X3.7065Y-4.4432
X3.5835Y-5.7227
X3.6735Y-5.7227
X3.7135Y-5.9127
X3.7535Y-5.9827
X3.7935Y-5.9127
X3.8335Y-5.9827
X3.8735Y-5.9127
X3.9135Y-5.9827
X3.9535Y-5.9127
X3.9935Y-5.9827
X4.0335Y-5.7227
X4.1235Y-5.7227
X4.2035Y-5.7227
X4.2935Y-5.7227
X4.3335Y-5.9127
X4.3735Y-5.9827
X4.4135Y-5.9127
X4.4535Y-5.9827
X4.4935Y-5.9127
X4.5335Y-5.9827
X4.5735Y-5.9127
X4.6135Y-5.9827
X4.6535Y-5.7227
X4.7435Y-5.7227
X4.8236Y-5.7227
X4.9136Y-5.7227
X4.9536Y-5.9127
X4.9936Y-5.9827
X5.0336Y-5.9127
X5.0736Y-5.9827
X5.1136Y-5.9127
X5.1536Y-5.9827
X5.1936Y-5.9127
X5.2336Y-5.9827
X5.2736Y-5.7227
X5.3636Y-5.7227
X5.4437Y-5.7227
X5.5337Y-5.7227
X5.5737Y-5.9127
X5.6137Y-5.9827
X5.6537Y-5.9127
X5.6937Y-5.9827
X5.7337Y-5.9127
X5.7737Y-5.9827
X5.8137Y-5.9127
X5.8537Y-5.9827
X5.8937Y-5.7227
X5.9837Y-5.7227
X6.545Y-5.7227
X6.635Y-5.7227
X6.675Y-5.9127
X6.715Y-5.9827
X6.755Y-5.9127
X6.795Y-5.9827
X6.835Y-5.9127
X6.875Y-5.9827
X6.915Y-5.9127
X6.955Y-5.9827
X6.995Y-5.7227
X7.085Y-5.7227
T9
X3.878Y-4.5059
X3.248Y-5.9252
T10
X5.5906Y-4.1732
T11
X3.4815Y-3.8532
X3.4815Y-4.4932
X3.5335Y-5.9477
X4.4735Y-5.6827
X5.0936Y-5.6827
X6.0335Y-5.9477
X6.495Y-5.9477
X7.135Y-5.9477
T12
X5.4606Y-4.0433
X5.4606Y-4.3031
X5.7205Y-4.0433
X5.7205Y-4.3031
T13
X3.2087Y-6.1417
X3.2362Y-6.0709
X3.2362Y-6.2126
X3.3071Y-6.0433
X3.3071Y-6.2402
X3.378Y-6.0709
X3.378Y-6.2126
X3.4055Y-6.1417
X3.2087Y-4.8031
X3.2362Y-4.7323
X3.2362Y-4.874
X3.3071Y-4.7047
X3.3071Y-4.9016
X3.378Y-4.7323
X3.378Y-4.874
X3.4055Y-4.8031
X7.3031Y-6.1417
X7.3307Y-6.0709
X7.3307Y-6.2126
X7.4016Y-6.0433
X7.4016Y-6.2402
X7.4724Y-6.0709
X7.4724Y-6.2126
X7.5Y-6.1417
X7.3031Y-4.8031
X7.3307Y-4.7323
X7.3307Y-4.874
X7.4016Y-4.7047
X7.4016Y-4.9016
X7.4724Y-4.7323
X7.4724Y-4.874
X7.5Y-4.8031
T14
X4.8094Y-4.0543
X4.8094Y-4.1343
X5.0094Y-4.0943
T15
X3.3465Y-3.9232
X3.3465Y-4.4232
X3.6035Y-6.0827
X5.9633Y-6.0827
X6.565Y-6.0827
X7.065Y-6.0827
T16
X3.3071Y-6.1417
X3.3071Y-4.8031
X7.4016Y-6.1417
X7.4016Y-4.8031
T0
M30
