G04 #@! TF.GenerationSoftware,KiCad,Pcbnew,5.0.1-33cea8e~66~ubuntu18.04.1*
G04 #@! TF.CreationDate,2018-11-27T01:50:38+00:00*
G04 #@! TF.ProjectId,proto_switch_sensor_r1_panel,70726F746F5F7377697463685F73656E,1*
G04 #@! TF.SameCoordinates,Original*
G04 #@! TF.FileFunction,Legend,Bot*
G04 #@! TF.FilePolarity,Positive*
%FSLAX46Y46*%
G04 Gerber Fmt 4.6, Leading zero omitted, Abs format (unit mm)*
G04 Created by KiCad (PCBNEW 5.0.1-33cea8e~66~ubuntu18.04.1) date Tue 27 Nov 2018 01:50:38 GMT*
%MOMM*%
%LPD*%
G01*
G04 APERTURE LIST*
%ADD10C,0.150000*%
%ADD11C,1.440000*%
%ADD12C,3.291200*%
%ADD13C,2.580000*%
%ADD14C,0.640000*%
%ADD15C,6.300000*%
%ADD16R,1.940000X1.940000*%
%ADD17C,1.056000*%
%ADD18C,1.540000*%
%ADD19C,0.100000*%
%ADD20C,1.040000*%
%ADD21C,3.240000*%
%ADD22C,2.040000*%
G04 APERTURE END LIST*
D10*
X80960714Y-100190476D02*
X81627380Y-100190476D01*
X80579761Y-99952380D02*
X81294047Y-99714285D01*
X81294047Y-100333333D01*
X81532142Y-100714285D02*
X81579761Y-100761904D01*
X81627380Y-100714285D01*
X81579761Y-100666666D01*
X81532142Y-100714285D01*
X81627380Y-100714285D01*
X80627380Y-101666666D02*
X80627380Y-101190476D01*
X81103571Y-101142857D01*
X81055952Y-101190476D01*
X81008333Y-101285714D01*
X81008333Y-101523809D01*
X81055952Y-101619047D01*
X81103571Y-101666666D01*
X81198809Y-101714285D01*
X81436904Y-101714285D01*
X81532142Y-101666666D01*
X81579761Y-101619047D01*
X81627380Y-101523809D01*
X81627380Y-101285714D01*
X81579761Y-101190476D01*
X81532142Y-101142857D01*
X81246428Y-102904761D02*
X81246428Y-103666666D01*
X81436904Y-103476190D02*
X81246428Y-103666666D01*
X81055952Y-103476190D01*
X80627380Y-105333333D02*
X80627380Y-105142857D01*
X80675000Y-105047619D01*
X80722619Y-105000000D01*
X80865476Y-104904761D01*
X81055952Y-104857142D01*
X81436904Y-104857142D01*
X81532142Y-104904761D01*
X81579761Y-104952380D01*
X81627380Y-105047619D01*
X81627380Y-105238095D01*
X81579761Y-105333333D01*
X81532142Y-105380952D01*
X81436904Y-105428571D01*
X81198809Y-105428571D01*
X81103571Y-105380952D01*
X81055952Y-105333333D01*
X81008333Y-105238095D01*
X81008333Y-105047619D01*
X81055952Y-104952380D01*
X81103571Y-104904761D01*
X81198809Y-104857142D01*
X80627380Y-106047619D02*
X80627380Y-106142857D01*
X80675000Y-106238095D01*
X80722619Y-106285714D01*
X80817857Y-106333333D01*
X81008333Y-106380952D01*
X81246428Y-106380952D01*
X81436904Y-106333333D01*
X81532142Y-106285714D01*
X81579761Y-106238095D01*
X81627380Y-106142857D01*
X81627380Y-106047619D01*
X81579761Y-105952380D01*
X81532142Y-105904761D01*
X81436904Y-105857142D01*
X81246428Y-105809523D01*
X81008333Y-105809523D01*
X80817857Y-105857142D01*
X80722619Y-105904761D01*
X80675000Y-105952380D01*
X80627380Y-106047619D01*
X80627380Y-107428571D02*
X81627380Y-107761904D01*
X80627380Y-108095238D01*
X81627380Y-108428571D02*
X80627380Y-108428571D01*
X80627380Y-108666666D01*
X80675000Y-108809523D01*
X80770238Y-108904761D01*
X80865476Y-108952380D01*
X81055952Y-109000000D01*
X81198809Y-109000000D01*
X81389285Y-108952380D01*
X81484523Y-108904761D01*
X81579761Y-108809523D01*
X81627380Y-108666666D01*
X81627380Y-108428571D01*
X81532142Y-110000000D02*
X81579761Y-109952380D01*
X81627380Y-109809523D01*
X81627380Y-109714285D01*
X81579761Y-109571428D01*
X81484523Y-109476190D01*
X81389285Y-109428571D01*
X81198809Y-109380952D01*
X81055952Y-109380952D01*
X80865476Y-109428571D01*
X80770238Y-109476190D01*
X80675000Y-109571428D01*
X80627380Y-109714285D01*
X80627380Y-109809523D01*
X80675000Y-109952380D01*
X80722619Y-110000000D01*
X81627380Y-111190476D02*
X80627380Y-111190476D01*
X81627380Y-111666666D02*
X80627380Y-111666666D01*
X81627380Y-112238095D01*
X80627380Y-112238095D01*
X82610714Y-100619047D02*
X83277380Y-100619047D01*
X82229761Y-100380952D02*
X82944047Y-100142857D01*
X82944047Y-100761904D01*
X82229761Y-101857142D02*
X83515476Y-101000000D01*
X82277380Y-102666666D02*
X82277380Y-102190476D01*
X82753571Y-102142857D01*
X82705952Y-102190476D01*
X82658333Y-102285714D01*
X82658333Y-102523809D01*
X82705952Y-102619047D01*
X82753571Y-102666666D01*
X82848809Y-102714285D01*
X83086904Y-102714285D01*
X83182142Y-102666666D01*
X83229761Y-102619047D01*
X83277380Y-102523809D01*
X83277380Y-102285714D01*
X83229761Y-102190476D01*
X83182142Y-102142857D01*
X83182142Y-103142857D02*
X83229761Y-103190476D01*
X83277380Y-103142857D01*
X83229761Y-103095238D01*
X83182142Y-103142857D01*
X83277380Y-103142857D01*
X82658333Y-103142857D02*
X82705952Y-103190476D01*
X82753571Y-103142857D01*
X82705952Y-103095238D01*
X82658333Y-103142857D01*
X82753571Y-103142857D01*
X82896428Y-104380952D02*
X82896428Y-105142857D01*
X83277380Y-104761904D02*
X82515476Y-104761904D01*
X83229761Y-105666666D02*
X83277380Y-105666666D01*
X83372619Y-105619047D01*
X83420238Y-105571428D01*
X82277380Y-106761904D02*
X82277380Y-107428571D01*
X83277380Y-107000000D01*
X82229761Y-108523809D02*
X83515476Y-107666666D01*
X82705952Y-109000000D02*
X82658333Y-108904761D01*
X82610714Y-108857142D01*
X82515476Y-108809523D01*
X82467857Y-108809523D01*
X82372619Y-108857142D01*
X82325000Y-108904761D01*
X82277380Y-109000000D01*
X82277380Y-109190476D01*
X82325000Y-109285714D01*
X82372619Y-109333333D01*
X82467857Y-109380952D01*
X82515476Y-109380952D01*
X82610714Y-109333333D01*
X82658333Y-109285714D01*
X82705952Y-109190476D01*
X82705952Y-109000000D01*
X82753571Y-108904761D01*
X82801190Y-108857142D01*
X82896428Y-108809523D01*
X83086904Y-108809523D01*
X83182142Y-108857142D01*
X83229761Y-108904761D01*
X83277380Y-109000000D01*
X83277380Y-109190476D01*
X83229761Y-109285714D01*
X83182142Y-109333333D01*
X83086904Y-109380952D01*
X82896428Y-109380952D01*
X82801190Y-109333333D01*
X82753571Y-109285714D01*
X82705952Y-109190476D01*
X83182142Y-109809523D02*
X83229761Y-109857142D01*
X83277380Y-109809523D01*
X83229761Y-109761904D01*
X83182142Y-109809523D01*
X83277380Y-109809523D01*
X82658333Y-109809523D02*
X82705952Y-109857142D01*
X82753571Y-109809523D01*
X82705952Y-109761904D01*
X82658333Y-109809523D01*
X82753571Y-109809523D01*
X82896428Y-111047619D02*
X82896428Y-111809523D01*
%LPC*%
D11*
G04 #@! TO.C,J302*
X169544000Y-150182000D03*
X171576000Y-150182000D03*
X173608000Y-150182000D03*
X175640000Y-150182000D03*
X170560000Y-151960000D03*
X172592000Y-151960000D03*
X174624000Y-151960000D03*
X176656000Y-151960000D03*
X166242000Y-145356000D03*
X179958000Y-145356000D03*
X168528000Y-145356000D03*
X177672000Y-145356000D03*
D12*
X166750000Y-154500000D03*
X179450000Y-154500000D03*
D13*
X164972000Y-151071000D03*
X181228000Y-151071000D03*
G04 #@! TD*
G04 #@! TO.C,J401*
X129378000Y-144340000D03*
X113628000Y-144340000D03*
D12*
X151468000Y-154500000D03*
D13*
X153250000Y-151071000D03*
D11*
X146652000Y-151960000D03*
X130902000Y-151960000D03*
X115152000Y-151960000D03*
X138270000Y-145356000D03*
X122520000Y-145356000D03*
X106770000Y-145356000D03*
X140556000Y-145356000D03*
X124806000Y-145356000D03*
X109056000Y-145356000D03*
X149700000Y-145356000D03*
X133950000Y-145356000D03*
X118200000Y-145356000D03*
X142588000Y-151960000D03*
X126838000Y-151960000D03*
X111088000Y-151960000D03*
X144620000Y-151960000D03*
X128870000Y-151960000D03*
X113120000Y-151960000D03*
X151986000Y-145356000D03*
X136236000Y-145356000D03*
X120486000Y-145356000D03*
X141572000Y-150182000D03*
X125822000Y-150182000D03*
X110072000Y-150182000D03*
X143604000Y-150182000D03*
X127854000Y-150182000D03*
X112104000Y-150182000D03*
X148684000Y-151960000D03*
X132934000Y-151960000D03*
X117184000Y-151960000D03*
X145636000Y-150182000D03*
X129886000Y-150182000D03*
X114136000Y-150182000D03*
X147668000Y-150182000D03*
X131918000Y-150182000D03*
X116168000Y-150182000D03*
X94322000Y-150182000D03*
X96354000Y-150182000D03*
X98386000Y-150182000D03*
X100418000Y-150182000D03*
X95338000Y-151960000D03*
X97370000Y-151960000D03*
X99402000Y-151960000D03*
X101434000Y-151960000D03*
X91020000Y-145356000D03*
X104736000Y-145356000D03*
X93306000Y-145356000D03*
X102450000Y-145356000D03*
D12*
X91528000Y-154500000D03*
D13*
X89750000Y-151071000D03*
G04 #@! TD*
D14*
G04 #@! TO.C,X104*
X85800000Y-157800000D03*
X82200000Y-157800000D03*
X85800000Y-154200000D03*
X82200000Y-154200000D03*
X81500000Y-156000000D03*
X84000000Y-158500000D03*
X86500000Y-156000000D03*
X84000000Y-153500000D03*
D15*
X84000000Y-156000000D03*
G04 #@! TD*
D14*
G04 #@! TO.C,X103*
X189800000Y-157800000D03*
X186200000Y-157800000D03*
X189800000Y-154200000D03*
X186200000Y-154200000D03*
X185500000Y-156000000D03*
X188000000Y-158500000D03*
X190500000Y-156000000D03*
X188000000Y-153500000D03*
D15*
X188000000Y-156000000D03*
G04 #@! TD*
D14*
G04 #@! TO.C,X102*
X189800000Y-123800000D03*
X186200000Y-123800000D03*
X189800000Y-120200000D03*
X186200000Y-120200000D03*
X185500000Y-122000000D03*
X188000000Y-124500000D03*
X190500000Y-122000000D03*
X188000000Y-119500000D03*
D15*
X188000000Y-122000000D03*
G04 #@! TD*
D14*
G04 #@! TO.C,X101*
X85800000Y-123800000D03*
X82200000Y-123800000D03*
X85800000Y-120200000D03*
X82200000Y-120200000D03*
X81500000Y-122000000D03*
X84000000Y-124500000D03*
X86500000Y-122000000D03*
X84000000Y-119500000D03*
D15*
X84000000Y-122000000D03*
G04 #@! TD*
D16*
G04 #@! TO.C,J501*
X82500000Y-150500000D03*
G04 #@! TD*
D17*
G04 #@! TO.C,J201*
X134410000Y-122000000D03*
X134410000Y-120730000D03*
X135680000Y-122000000D03*
X135680000Y-120730000D03*
X136950000Y-122000000D03*
X136950000Y-120730000D03*
X138220000Y-122000000D03*
X138220000Y-120730000D03*
X139490000Y-122000000D03*
X139490000Y-120730000D03*
G04 #@! TD*
D18*
G04 #@! TO.C,IC503*
X146110000Y-131750000D03*
X148650000Y-131750000D03*
X151190000Y-131750000D03*
X153730000Y-131750000D03*
X158810000Y-131750000D03*
X161350000Y-131750000D03*
D19*
G36*
X164312737Y-130981854D02*
X164350110Y-130987398D01*
X164386760Y-130996578D01*
X164422333Y-131009306D01*
X164456488Y-131025460D01*
X164488895Y-131044884D01*
X164519241Y-131067391D01*
X164547236Y-131092764D01*
X164572609Y-131120759D01*
X164595116Y-131151105D01*
X164614540Y-131183512D01*
X164630694Y-131217667D01*
X164643422Y-131253240D01*
X164652602Y-131289890D01*
X164658146Y-131327263D01*
X164660000Y-131365000D01*
X164660000Y-132135000D01*
X164658146Y-132172737D01*
X164652602Y-132210110D01*
X164643422Y-132246760D01*
X164630694Y-132282333D01*
X164614540Y-132316488D01*
X164595116Y-132348895D01*
X164572609Y-132379241D01*
X164547236Y-132407236D01*
X164519241Y-132432609D01*
X164488895Y-132455116D01*
X164456488Y-132474540D01*
X164422333Y-132490694D01*
X164386760Y-132503422D01*
X164350110Y-132512602D01*
X164312737Y-132518146D01*
X164275000Y-132520000D01*
X163505000Y-132520000D01*
X163467263Y-132518146D01*
X163429890Y-132512602D01*
X163393240Y-132503422D01*
X163357667Y-132490694D01*
X163323512Y-132474540D01*
X163291105Y-132455116D01*
X163260759Y-132432609D01*
X163232764Y-132407236D01*
X163207391Y-132379241D01*
X163184884Y-132348895D01*
X163165460Y-132316488D01*
X163149306Y-132282333D01*
X163136578Y-132246760D01*
X163127398Y-132210110D01*
X163121854Y-132172737D01*
X163120000Y-132135000D01*
X163120000Y-131365000D01*
X163121854Y-131327263D01*
X163127398Y-131289890D01*
X163136578Y-131253240D01*
X163149306Y-131217667D01*
X163165460Y-131183512D01*
X163184884Y-131151105D01*
X163207391Y-131120759D01*
X163232764Y-131092764D01*
X163260759Y-131067391D01*
X163291105Y-131044884D01*
X163323512Y-131025460D01*
X163357667Y-131009306D01*
X163393240Y-130996578D01*
X163429890Y-130987398D01*
X163467263Y-130981854D01*
X163505000Y-130980000D01*
X164275000Y-130980000D01*
X164312737Y-130981854D01*
X164312737Y-130981854D01*
G37*
D18*
X163890000Y-131750000D03*
G04 #@! TD*
G04 #@! TO.C,IC501*
X146110000Y-121750000D03*
X148650000Y-121750000D03*
X151190000Y-121750000D03*
X153730000Y-121750000D03*
X158810000Y-121750000D03*
X161350000Y-121750000D03*
D19*
G36*
X164312737Y-120981854D02*
X164350110Y-120987398D01*
X164386760Y-120996578D01*
X164422333Y-121009306D01*
X164456488Y-121025460D01*
X164488895Y-121044884D01*
X164519241Y-121067391D01*
X164547236Y-121092764D01*
X164572609Y-121120759D01*
X164595116Y-121151105D01*
X164614540Y-121183512D01*
X164630694Y-121217667D01*
X164643422Y-121253240D01*
X164652602Y-121289890D01*
X164658146Y-121327263D01*
X164660000Y-121365000D01*
X164660000Y-122135000D01*
X164658146Y-122172737D01*
X164652602Y-122210110D01*
X164643422Y-122246760D01*
X164630694Y-122282333D01*
X164614540Y-122316488D01*
X164595116Y-122348895D01*
X164572609Y-122379241D01*
X164547236Y-122407236D01*
X164519241Y-122432609D01*
X164488895Y-122455116D01*
X164456488Y-122474540D01*
X164422333Y-122490694D01*
X164386760Y-122503422D01*
X164350110Y-122512602D01*
X164312737Y-122518146D01*
X164275000Y-122520000D01*
X163505000Y-122520000D01*
X163467263Y-122518146D01*
X163429890Y-122512602D01*
X163393240Y-122503422D01*
X163357667Y-122490694D01*
X163323512Y-122474540D01*
X163291105Y-122455116D01*
X163260759Y-122432609D01*
X163232764Y-122407236D01*
X163207391Y-122379241D01*
X163184884Y-122348895D01*
X163165460Y-122316488D01*
X163149306Y-122282333D01*
X163136578Y-122246760D01*
X163127398Y-122210110D01*
X163121854Y-122172737D01*
X163120000Y-122135000D01*
X163120000Y-121365000D01*
X163121854Y-121327263D01*
X163127398Y-121289890D01*
X163136578Y-121253240D01*
X163149306Y-121217667D01*
X163165460Y-121183512D01*
X163184884Y-121151105D01*
X163207391Y-121120759D01*
X163232764Y-121092764D01*
X163260759Y-121067391D01*
X163291105Y-121044884D01*
X163323512Y-121025460D01*
X163357667Y-121009306D01*
X163393240Y-120996578D01*
X163429890Y-120987398D01*
X163467263Y-120981854D01*
X163505000Y-120980000D01*
X164275000Y-120980000D01*
X164312737Y-120981854D01*
X164312737Y-120981854D01*
G37*
D18*
X163890000Y-121750000D03*
G04 #@! TD*
D11*
G04 #@! TO.C,IC1*
X89318000Y-102444000D03*
X89318000Y-104476000D03*
X89318000Y-106508000D03*
X89318000Y-108540000D03*
X87540000Y-103460000D03*
X87540000Y-105492000D03*
X87540000Y-107524000D03*
X87540000Y-109556000D03*
X94144000Y-99142000D03*
X94144000Y-112858000D03*
X94144000Y-101428000D03*
X94144000Y-110572000D03*
D12*
X85000000Y-99650000D03*
X85000000Y-112350000D03*
D13*
X88429000Y-97872000D03*
X88429000Y-114128000D03*
G04 #@! TD*
D16*
G04 #@! TO.C,J3*
X98500000Y-114450000D03*
G04 #@! TD*
D20*
G04 #@! TO.C,J2*
X127240000Y-103995000D03*
X122160000Y-102979000D03*
X122160000Y-105011000D03*
G04 #@! TD*
D17*
G04 #@! TO.C,J1*
X123960000Y-99535000D03*
X123960000Y-98265000D03*
X125230000Y-99535000D03*
X125230000Y-98265000D03*
X126500000Y-99535000D03*
X126500000Y-98265000D03*
X127770000Y-99535000D03*
X127770000Y-98265000D03*
X129040000Y-99535000D03*
X129040000Y-98265000D03*
G04 #@! TD*
D21*
G04 #@! TO.C,P1*
X138700000Y-109300000D03*
X138700000Y-102700000D03*
X145300000Y-109300000D03*
D22*
X142000000Y-106000000D03*
D21*
X145300000Y-102700000D03*
G04 #@! TD*
M02*
