G04 #@! TF.GenerationSoftware,KiCad,Pcbnew,5.0.1-33cea8e~66~ubuntu18.04.1*
G04 #@! TF.CreationDate,2018-11-27T01:50:38+00:00*
G04 #@! TF.ProjectId,proto_switch_sensor_r1_panel,70726F746F5F7377697463685F73656E,1*
G04 #@! TF.SameCoordinates,Original*
G04 #@! TF.FileFunction,Copper,L4,Bot,Signal*
G04 #@! TF.FilePolarity,Positive*
%FSLAX46Y46*%
G04 Gerber Fmt 4.6, Leading zero omitted, Abs format (unit mm)*
G04 Created by KiCad (PCBNEW 5.0.1-33cea8e~66~ubuntu18.04.1) date Tue 27 Nov 2018 01:50:38 GMT*
%MOMM*%
%LPD*%
G01*
G04 APERTURE LIST*
G04 #@! TA.AperFunction,ComponentPad*
%ADD10C,1.400000*%
G04 #@! TD*
G04 #@! TA.AperFunction,ComponentPad*
%ADD11C,2.540000*%
G04 #@! TD*
G04 #@! TA.AperFunction,ComponentPad*
%ADD12R,1.900000X1.900000*%
G04 #@! TD*
G04 #@! TA.AperFunction,ComponentPad*
%ADD13C,1.016000*%
G04 #@! TD*
G04 #@! TA.AperFunction,ComponentPad*
%ADD14C,1.500000*%
G04 #@! TD*
G04 #@! TA.AperFunction,Conductor*
%ADD15C,0.100000*%
G04 #@! TD*
G04 #@! TA.AperFunction,ViaPad*
%ADD16C,0.500000*%
G04 #@! TD*
G04 #@! TA.AperFunction,ComponentPad*
%ADD17C,3.200000*%
G04 #@! TD*
G04 #@! TA.AperFunction,ComponentPad*
%ADD18C,2.000000*%
G04 #@! TD*
G04 #@! TA.AperFunction,ViaPad*
%ADD19C,1.000000*%
G04 #@! TD*
G04 #@! TA.AperFunction,ViaPad*
%ADD20C,0.800000*%
G04 #@! TD*
G04 #@! TA.AperFunction,ViaPad*
%ADD21C,0.600000*%
G04 #@! TD*
G04 #@! TA.AperFunction,ViaPad*
%ADD22C,0.457200*%
G04 #@! TD*
G04 #@! TA.AperFunction,Conductor*
%ADD23C,0.200000*%
G04 #@! TD*
G04 #@! TA.AperFunction,Conductor*
%ADD24C,0.400000*%
G04 #@! TD*
G04 #@! TA.AperFunction,Conductor*
%ADD25C,0.150000*%
G04 #@! TD*
G04 #@! TA.AperFunction,Conductor*
%ADD26C,0.127000*%
G04 #@! TD*
G04 #@! TA.AperFunction,Conductor*
%ADD27C,0.600000*%
G04 #@! TD*
G04 #@! TA.AperFunction,Conductor*
%ADD28C,0.300000*%
G04 #@! TD*
G04 APERTURE END LIST*
D10*
G04 #@! TO.P,J302,8*
G04 #@! TO.N,/Ethernet/VB1*
X169544000Y-150182000D03*
G04 #@! TO.P,J302,6*
G04 #@! TO.N,Net-(J302-Pad6)*
X171576000Y-150182000D03*
G04 #@! TO.P,J302,4*
G04 #@! TO.N,/Ethernet/VB2*
X173608000Y-150182000D03*
G04 #@! TO.P,J302,2*
G04 #@! TO.N,Net-(J302-Pad2)*
X175640000Y-150182000D03*
G04 #@! TO.P,J302,7*
G04 #@! TO.N,/Ethernet/VB1*
X170560000Y-151960000D03*
G04 #@! TO.P,J302,5*
G04 #@! TO.N,/Ethernet/VB2*
X172592000Y-151960000D03*
G04 #@! TO.P,J302,3*
G04 #@! TO.N,Net-(J302-Pad3)*
X174624000Y-151960000D03*
G04 #@! TO.P,J302,1*
G04 #@! TO.N,Net-(J302-Pad1)*
X176656000Y-151960000D03*
G04 #@! TO.P,J302,12*
G04 #@! TO.N,Net-(J302-Pad12)*
X166242000Y-145356000D03*
G04 #@! TO.P,J302,9*
G04 #@! TO.N,/Ethernet/LINK_LED*
X179958000Y-145356000D03*
G04 #@! TO.P,J302,11*
G04 #@! TO.N,GND*
X168528000Y-145356000D03*
G04 #@! TO.P,J302,10*
G04 #@! TO.N,Net-(J302-Pad10)*
X177672000Y-145356000D03*
D11*
G04 #@! TO.P,J302,S1*
G04 #@! TO.N,CHASSIS*
X164972000Y-151071000D03*
G04 #@! TO.P,J302,S2*
G04 #@! TO.N,Net-(J302-PadS2)*
X181228000Y-151071000D03*
G04 #@! TD*
G04 #@! TO.P,J401,S3*
G04 #@! TO.N,Net-(J401-PadS3)*
X129378000Y-144340000D03*
G04 #@! TO.P,J401,S2*
G04 #@! TO.N,Net-(J401-PadS2)*
X113628000Y-144340000D03*
G04 #@! TO.P,J401,S4*
G04 #@! TO.N,CHASSIS*
X153250000Y-151071000D03*
D10*
G04 #@! TO.P,J401,4P3*
G04 #@! TO.N,/TGBe Ports/TX4+*
X146652000Y-151960000D03*
G04 #@! TO.P,J401,3P3*
G04 #@! TO.N,/TGBe Ports/TX3+*
X130902000Y-151960000D03*
G04 #@! TO.P,J401,2P3*
G04 #@! TO.N,/TGBe Ports/TX2+*
X115152000Y-151960000D03*
G04 #@! TO.P,J401,4P12*
G04 #@! TO.N,/TGBe Ports/P4_LED2*
X138270000Y-145356000D03*
G04 #@! TO.P,J401,3P12*
G04 #@! TO.N,/TGBe Ports/P3_LED2*
X122520000Y-145356000D03*
G04 #@! TO.P,J401,2P12*
G04 #@! TO.N,/TGBe Ports/P2_LED2*
X106770000Y-145356000D03*
G04 #@! TO.P,J401,4P11*
G04 #@! TO.N,Net-(J401-Pad4P11)*
X140556000Y-145356000D03*
G04 #@! TO.P,J401,3P11*
G04 #@! TO.N,Net-(J401-Pad3P11)*
X124806000Y-145356000D03*
G04 #@! TO.P,J401,2P11*
G04 #@! TO.N,Net-(J401-Pad2P11)*
X109056000Y-145356000D03*
G04 #@! TO.P,J401,4P10*
G04 #@! TO.N,/TGBe Ports/P4_LED1*
X149700000Y-145356000D03*
G04 #@! TO.P,J401,3P10*
G04 #@! TO.N,/TGBe Ports/P3_LED1*
X133950000Y-145356000D03*
G04 #@! TO.P,J401,2P10*
G04 #@! TO.N,/TGBe Ports/P2_LED1*
X118200000Y-145356000D03*
G04 #@! TO.P,J401,4P7*
G04 #@! TO.N,GND*
X142588000Y-151960000D03*
G04 #@! TO.P,J401,3P7*
X126838000Y-151960000D03*
G04 #@! TO.P,J401,2P7*
X111088000Y-151960000D03*
G04 #@! TO.P,J401,4P5*
G04 #@! TO.N,24v*
X144620000Y-151960000D03*
G04 #@! TO.P,J401,3P5*
X128870000Y-151960000D03*
G04 #@! TO.P,J401,2P5*
X113120000Y-151960000D03*
G04 #@! TO.P,J401,4P9*
G04 #@! TO.N,Net-(J401-Pad4P9)*
X151986000Y-145356000D03*
G04 #@! TO.P,J401,3P9*
G04 #@! TO.N,Net-(J401-Pad3P9)*
X136236000Y-145356000D03*
G04 #@! TO.P,J401,2P9*
G04 #@! TO.N,Net-(J401-Pad2P9)*
X120486000Y-145356000D03*
G04 #@! TO.P,J401,4P8*
G04 #@! TO.N,GND*
X141572000Y-150182000D03*
G04 #@! TO.P,J401,3P8*
X125822000Y-150182000D03*
G04 #@! TO.P,J401,2P8*
X110072000Y-150182000D03*
G04 #@! TO.P,J401,4P6*
G04 #@! TO.N,/TGBe Ports/TX4-*
X143604000Y-150182000D03*
G04 #@! TO.P,J401,3P6*
G04 #@! TO.N,/TGBe Ports/TX3-*
X127854000Y-150182000D03*
G04 #@! TO.P,J401,2P6*
G04 #@! TO.N,/TGBe Ports/TX2-*
X112104000Y-150182000D03*
G04 #@! TO.P,J401,4P1*
G04 #@! TO.N,/TGBe Ports/RX4+*
X148684000Y-151960000D03*
G04 #@! TO.P,J401,3P1*
G04 #@! TO.N,/TGBe Ports/RX3+*
X132934000Y-151960000D03*
G04 #@! TO.P,J401,2P1*
G04 #@! TO.N,/TGBe Ports/RX2+*
X117184000Y-151960000D03*
G04 #@! TO.P,J401,4P4*
G04 #@! TO.N,24v*
X145636000Y-150182000D03*
G04 #@! TO.P,J401,3P4*
X129886000Y-150182000D03*
G04 #@! TO.P,J401,2P4*
X114136000Y-150182000D03*
G04 #@! TO.P,J401,4P2*
G04 #@! TO.N,/TGBe Ports/RX4-*
X147668000Y-150182000D03*
G04 #@! TO.P,J401,3P2*
G04 #@! TO.N,/TGBe Ports/RX3-*
X131918000Y-150182000D03*
G04 #@! TO.P,J401,2P2*
G04 #@! TO.N,/TGBe Ports/RX2-*
X116168000Y-150182000D03*
G04 #@! TO.P,J401,1P8*
G04 #@! TO.N,GND*
X94322000Y-150182000D03*
G04 #@! TO.P,J401,1P6*
G04 #@! TO.N,/TGBe Ports/TX1-*
X96354000Y-150182000D03*
G04 #@! TO.P,J401,1P4*
G04 #@! TO.N,24v*
X98386000Y-150182000D03*
G04 #@! TO.P,J401,1P2*
G04 #@! TO.N,/TGBe Ports/RX1-*
X100418000Y-150182000D03*
G04 #@! TO.P,J401,1P7*
G04 #@! TO.N,GND*
X95338000Y-151960000D03*
G04 #@! TO.P,J401,1P5*
G04 #@! TO.N,24v*
X97370000Y-151960000D03*
G04 #@! TO.P,J401,1P3*
G04 #@! TO.N,/TGBe Ports/TX1+*
X99402000Y-151960000D03*
G04 #@! TO.P,J401,1P1*
G04 #@! TO.N,/TGBe Ports/RX1+*
X101434000Y-151960000D03*
G04 #@! TO.P,J401,1P12*
G04 #@! TO.N,/TGBe Ports/P1_LED2*
X91020000Y-145356000D03*
G04 #@! TO.P,J401,1P9*
G04 #@! TO.N,Net-(J401-Pad1P9)*
X104736000Y-145356000D03*
G04 #@! TO.P,J401,1P11*
G04 #@! TO.N,Net-(J401-Pad1P11)*
X93306000Y-145356000D03*
G04 #@! TO.P,J401,1P10*
G04 #@! TO.N,/TGBe Ports/P1_LED1*
X102450000Y-145356000D03*
D11*
G04 #@! TO.P,J401,S1*
G04 #@! TO.N,Net-(J401-PadS1)*
X89750000Y-151071000D03*
G04 #@! TD*
D12*
G04 #@! TO.P,J501,1*
G04 #@! TO.N,GND*
X82500000Y-150500000D03*
G04 #@! TD*
D13*
G04 #@! TO.P,J201,10*
G04 #@! TO.N,/iCE40/FLASH_SDO*
X134410000Y-122000000D03*
G04 #@! TO.P,J201,9*
G04 #@! TO.N,GND*
X134410000Y-120730000D03*
G04 #@! TO.P,J201,8*
G04 #@! TO.N,/iCE40/CRESET_B*
X135680000Y-122000000D03*
G04 #@! TO.P,J201,7*
G04 #@! TO.N,Net-(J201-Pad7)*
X135680000Y-120730000D03*
G04 #@! TO.P,J201,6*
G04 #@! TO.N,/iCE40/FLASH_SS*
X136950000Y-122000000D03*
G04 #@! TO.P,J201,5*
G04 #@! TO.N,GND*
X136950000Y-120730000D03*
G04 #@! TO.P,J201,4*
G04 #@! TO.N,/iCE40/FLASH_SCK*
X138220000Y-122000000D03*
G04 #@! TO.P,J201,3*
G04 #@! TO.N,GND*
X138220000Y-120730000D03*
G04 #@! TO.P,J201,2*
G04 #@! TO.N,/iCE40/FLASH_SDI*
X139490000Y-122000000D03*
G04 #@! TO.P,J201,1*
G04 #@! TO.N,3v3*
X139490000Y-120730000D03*
G04 #@! TD*
D14*
G04 #@! TO.P,IC503,8*
G04 #@! TO.N,Net-(IC503-Pad8)*
X146110000Y-131750000D03*
G04 #@! TO.P,IC503,7*
G04 #@! TO.N,GND*
X148650000Y-131750000D03*
G04 #@! TO.P,IC503,6*
G04 #@! TO.N,24v*
X151190000Y-131750000D03*
G04 #@! TO.P,IC503,5*
G04 #@! TO.N,Net-(IC503-Pad5)*
X153730000Y-131750000D03*
G04 #@! TO.P,IC503,3*
G04 #@! TO.N,Net-(IC503-Pad3)*
X158810000Y-131750000D03*
G04 #@! TO.P,IC503,2*
G04 #@! TO.N,/Ethernet/48VDC*
X161350000Y-131750000D03*
D15*
G04 #@! TD*
G04 #@! TO.N,/Ethernet/0VDC*
G04 #@! TO.C,IC503*
G36*
X164301756Y-131001806D02*
X164338159Y-131007206D01*
X164373857Y-131016147D01*
X164408506Y-131028545D01*
X164441774Y-131044280D01*
X164473339Y-131063199D01*
X164502897Y-131085121D01*
X164530165Y-131109835D01*
X164554879Y-131137103D01*
X164576801Y-131166661D01*
X164595720Y-131198226D01*
X164611455Y-131231494D01*
X164623853Y-131266143D01*
X164632794Y-131301841D01*
X164638194Y-131338244D01*
X164640000Y-131375000D01*
X164640000Y-132125000D01*
X164638194Y-132161756D01*
X164632794Y-132198159D01*
X164623853Y-132233857D01*
X164611455Y-132268506D01*
X164595720Y-132301774D01*
X164576801Y-132333339D01*
X164554879Y-132362897D01*
X164530165Y-132390165D01*
X164502897Y-132414879D01*
X164473339Y-132436801D01*
X164441774Y-132455720D01*
X164408506Y-132471455D01*
X164373857Y-132483853D01*
X164338159Y-132492794D01*
X164301756Y-132498194D01*
X164265000Y-132500000D01*
X163515000Y-132500000D01*
X163478244Y-132498194D01*
X163441841Y-132492794D01*
X163406143Y-132483853D01*
X163371494Y-132471455D01*
X163338226Y-132455720D01*
X163306661Y-132436801D01*
X163277103Y-132414879D01*
X163249835Y-132390165D01*
X163225121Y-132362897D01*
X163203199Y-132333339D01*
X163184280Y-132301774D01*
X163168545Y-132268506D01*
X163156147Y-132233857D01*
X163147206Y-132198159D01*
X163141806Y-132161756D01*
X163140000Y-132125000D01*
X163140000Y-131375000D01*
X163141806Y-131338244D01*
X163147206Y-131301841D01*
X163156147Y-131266143D01*
X163168545Y-131231494D01*
X163184280Y-131198226D01*
X163203199Y-131166661D01*
X163225121Y-131137103D01*
X163249835Y-131109835D01*
X163277103Y-131085121D01*
X163306661Y-131063199D01*
X163338226Y-131044280D01*
X163371494Y-131028545D01*
X163406143Y-131016147D01*
X163441841Y-131007206D01*
X163478244Y-131001806D01*
X163515000Y-131000000D01*
X164265000Y-131000000D01*
X164301756Y-131001806D01*
X164301756Y-131001806D01*
G37*
D14*
G04 #@! TO.P,IC503,1*
G04 #@! TO.N,/Ethernet/0VDC*
X163890000Y-131750000D03*
G04 #@! TD*
G04 #@! TO.P,IC501,8*
G04 #@! TO.N,Net-(IC501-Pad8)*
X146110000Y-121750000D03*
G04 #@! TO.P,IC501,7*
G04 #@! TO.N,GND*
X148650000Y-121750000D03*
G04 #@! TO.P,IC501,6*
G04 #@! TO.N,3v3*
X151190000Y-121750000D03*
G04 #@! TO.P,IC501,5*
G04 #@! TO.N,Net-(IC501-Pad5)*
X153730000Y-121750000D03*
G04 #@! TO.P,IC501,3*
G04 #@! TO.N,Net-(IC501-Pad3)*
X158810000Y-121750000D03*
G04 #@! TO.P,IC501,2*
G04 #@! TO.N,/Ethernet/48VDC*
X161350000Y-121750000D03*
D15*
G04 #@! TD*
G04 #@! TO.N,/Ethernet/0VDC*
G04 #@! TO.C,IC501*
G36*
X164301756Y-121001806D02*
X164338159Y-121007206D01*
X164373857Y-121016147D01*
X164408506Y-121028545D01*
X164441774Y-121044280D01*
X164473339Y-121063199D01*
X164502897Y-121085121D01*
X164530165Y-121109835D01*
X164554879Y-121137103D01*
X164576801Y-121166661D01*
X164595720Y-121198226D01*
X164611455Y-121231494D01*
X164623853Y-121266143D01*
X164632794Y-121301841D01*
X164638194Y-121338244D01*
X164640000Y-121375000D01*
X164640000Y-122125000D01*
X164638194Y-122161756D01*
X164632794Y-122198159D01*
X164623853Y-122233857D01*
X164611455Y-122268506D01*
X164595720Y-122301774D01*
X164576801Y-122333339D01*
X164554879Y-122362897D01*
X164530165Y-122390165D01*
X164502897Y-122414879D01*
X164473339Y-122436801D01*
X164441774Y-122455720D01*
X164408506Y-122471455D01*
X164373857Y-122483853D01*
X164338159Y-122492794D01*
X164301756Y-122498194D01*
X164265000Y-122500000D01*
X163515000Y-122500000D01*
X163478244Y-122498194D01*
X163441841Y-122492794D01*
X163406143Y-122483853D01*
X163371494Y-122471455D01*
X163338226Y-122455720D01*
X163306661Y-122436801D01*
X163277103Y-122414879D01*
X163249835Y-122390165D01*
X163225121Y-122362897D01*
X163203199Y-122333339D01*
X163184280Y-122301774D01*
X163168545Y-122268506D01*
X163156147Y-122233857D01*
X163147206Y-122198159D01*
X163141806Y-122161756D01*
X163140000Y-122125000D01*
X163140000Y-121375000D01*
X163141806Y-121338244D01*
X163147206Y-121301841D01*
X163156147Y-121266143D01*
X163168545Y-121231494D01*
X163184280Y-121198226D01*
X163203199Y-121166661D01*
X163225121Y-121137103D01*
X163249835Y-121109835D01*
X163277103Y-121085121D01*
X163306661Y-121063199D01*
X163338226Y-121044280D01*
X163371494Y-121028545D01*
X163406143Y-121016147D01*
X163441841Y-121007206D01*
X163478244Y-121001806D01*
X163515000Y-121000000D01*
X164265000Y-121000000D01*
X164301756Y-121001806D01*
X164301756Y-121001806D01*
G37*
D14*
G04 #@! TO.P,IC501,1*
G04 #@! TO.N,/Ethernet/0VDC*
X163890000Y-121750000D03*
G04 #@! TD*
D16*
G04 #@! TO.N,GND*
G04 #@! TO.C,IC301*
X174600000Y-126900000D03*
X173400000Y-126900000D03*
X174600000Y-128100000D03*
X173400000Y-128100000D03*
G04 #@! TD*
D10*
G04 #@! TO.P,IC1,8*
G04 #@! TO.N,GND*
X89318000Y-102444000D03*
G04 #@! TO.P,IC1,6*
G04 #@! TO.N,/RX-*
X89318000Y-104476000D03*
G04 #@! TO.P,IC1,4*
G04 #@! TO.N,/PWRIN*
X89318000Y-106508000D03*
G04 #@! TO.P,IC1,2*
G04 #@! TO.N,/TX-*
X89318000Y-108540000D03*
G04 #@! TO.P,IC1,7*
G04 #@! TO.N,GND*
X87540000Y-103460000D03*
G04 #@! TO.P,IC1,5*
G04 #@! TO.N,/PWRIN*
X87540000Y-105492000D03*
G04 #@! TO.P,IC1,3*
G04 #@! TO.N,/RX+*
X87540000Y-107524000D03*
G04 #@! TO.P,IC1,1*
G04 #@! TO.N,/TX+*
X87540000Y-109556000D03*
G04 #@! TO.P,IC1,12*
G04 #@! TO.N,/LED2*
X94144000Y-99142000D03*
G04 #@! TO.P,IC1,9*
G04 #@! TO.N,Net-(IC1-Pad9)*
X94144000Y-112858000D03*
G04 #@! TO.P,IC1,11*
G04 #@! TO.N,Net-(IC1-Pad11)*
X94144000Y-101428000D03*
G04 #@! TO.P,IC1,10*
G04 #@! TO.N,/LED1*
X94144000Y-110572000D03*
D11*
G04 #@! TO.P,IC1,S1*
G04 #@! TO.N,Net-(IC1-PadS1)*
X88429000Y-97872000D03*
G04 #@! TO.P,IC1,S2*
G04 #@! TO.N,Net-(IC1-PadS2)*
X88429000Y-114128000D03*
G04 #@! TD*
D12*
G04 #@! TO.P,J3,1*
G04 #@! TO.N,GND*
X98500000Y-114450000D03*
G04 #@! TD*
D13*
G04 #@! TO.P,J1,10*
G04 #@! TO.N,/FLASH_SDO*
X123960000Y-99535000D03*
G04 #@! TO.P,J1,9*
G04 #@! TO.N,GND*
X123960000Y-98265000D03*
G04 #@! TO.P,J1,8*
G04 #@! TO.N,/CRESET_B*
X125230000Y-99535000D03*
G04 #@! TO.P,J1,7*
G04 #@! TO.N,Net-(J1-Pad7)*
X125230000Y-98265000D03*
G04 #@! TO.P,J1,6*
G04 #@! TO.N,/FLASH_SS*
X126500000Y-99535000D03*
G04 #@! TO.P,J1,5*
G04 #@! TO.N,GND*
X126500000Y-98265000D03*
G04 #@! TO.P,J1,4*
G04 #@! TO.N,/FLASH_SCK*
X127770000Y-99535000D03*
G04 #@! TO.P,J1,3*
G04 #@! TO.N,GND*
X127770000Y-98265000D03*
G04 #@! TO.P,J1,2*
G04 #@! TO.N,/FLASH_SDI*
X129040000Y-99535000D03*
G04 #@! TO.P,J1,1*
G04 #@! TO.N,3v3*
X129040000Y-98265000D03*
G04 #@! TD*
D17*
G04 #@! TO.P,P1,2*
G04 #@! TO.N,GND*
X138700000Y-109300000D03*
X138700000Y-102700000D03*
X145300000Y-109300000D03*
D18*
G04 #@! TO.P,P1,1*
G04 #@! TO.N,Net-(D4-Pad1)*
X142000000Y-106000000D03*
D17*
G04 #@! TO.P,P1,2*
G04 #@! TO.N,GND*
X145300000Y-102700000D03*
G04 #@! TD*
D19*
G04 #@! TO.N,*
X84500000Y-117000000D03*
X85510000Y-117000000D03*
X125510000Y-117000000D03*
X124500000Y-117000000D03*
X146510000Y-117000000D03*
X145500000Y-117000000D03*
X106510000Y-117000000D03*
X105500000Y-117000000D03*
D20*
G04 #@! TO.N,GND*
X166100000Y-129500000D03*
D21*
X170100000Y-131100000D03*
X180400000Y-127500000D03*
D20*
X175100000Y-119600000D03*
X180400000Y-131500000D03*
X89500000Y-147100000D03*
D21*
X105800000Y-142400000D03*
X121600000Y-142400000D03*
X137300000Y-142400000D03*
X150300000Y-143100000D03*
X98400000Y-144000000D03*
X98400000Y-141200000D03*
X116800000Y-143900000D03*
X116800000Y-141200000D03*
X126200000Y-143900000D03*
X126200000Y-141200000D03*
X145600000Y-144000000D03*
X145600000Y-141200000D03*
D22*
X121100000Y-126000000D03*
X121100000Y-126800000D03*
X121900000Y-126800000D03*
X122700000Y-126800000D03*
X121900000Y-126000000D03*
D21*
X88350000Y-122450000D03*
X88350000Y-125150000D03*
X110100000Y-123900000D03*
X105700000Y-127250000D03*
X116300000Y-120800000D03*
X118050000Y-121650000D03*
X121050000Y-121650000D03*
X123150000Y-121650000D03*
X109500000Y-128000000D03*
X113100000Y-128000000D03*
X111850000Y-123400000D03*
D22*
X129100000Y-133100000D03*
X128300000Y-135900000D03*
X129500000Y-135900000D03*
D21*
X104450000Y-123900000D03*
X103000000Y-120500000D03*
X143000000Y-119300000D03*
X143000000Y-124800000D03*
X126100000Y-120800000D03*
X131800000Y-122000000D03*
D22*
X128650000Y-122700000D03*
D21*
X133500000Y-124450000D03*
D20*
X81000000Y-127000000D03*
X88000000Y-159000000D03*
X93000000Y-159000000D03*
X98000000Y-159000000D03*
X103000000Y-159000000D03*
X108000000Y-159000000D03*
X113000000Y-159000000D03*
X118000000Y-159000000D03*
X123000000Y-159000000D03*
X128000000Y-159000000D03*
X133000000Y-159000000D03*
X138000000Y-159000000D03*
X143000000Y-159000000D03*
X148000000Y-159000000D03*
X153000000Y-159000000D03*
X87000000Y-119000000D03*
X133000000Y-119000000D03*
X138000000Y-119000000D03*
X148000000Y-119000000D03*
X183000000Y-120000000D03*
X114000000Y-135500000D03*
X107000000Y-131000000D03*
X102000000Y-131000000D03*
X97000000Y-131000000D03*
X100500000Y-141500000D03*
X121000000Y-138000000D03*
X114900000Y-140600000D03*
X103000000Y-152500000D03*
X118800000Y-152400000D03*
X134500000Y-152500000D03*
X143500000Y-141300000D03*
X145800000Y-138400000D03*
X141500000Y-137700000D03*
X130400000Y-137700000D03*
X134500000Y-131500000D03*
X81000000Y-132000000D03*
X81000000Y-137000000D03*
X81000000Y-142000000D03*
X95200000Y-120600000D03*
X109400000Y-120600000D03*
X99000000Y-137600000D03*
X104400000Y-137600000D03*
X109800000Y-137600000D03*
X96400000Y-140400000D03*
D21*
X92450000Y-141950000D03*
X174700000Y-121900000D03*
X179800000Y-124800000D03*
X178300000Y-124400000D03*
X128000000Y-140900000D03*
D20*
X124300000Y-141200000D03*
D21*
X138100000Y-125300000D03*
D20*
X112100000Y-135000000D03*
D21*
X156100000Y-131000000D03*
X91700000Y-129500000D03*
X91700000Y-139800000D03*
D20*
X96500000Y-100300000D03*
D21*
X96400000Y-97500000D03*
X96500000Y-106300000D03*
X99600000Y-99800000D03*
X112300000Y-101100000D03*
X110200000Y-101100000D03*
X115300000Y-101200000D03*
X104700000Y-100000000D03*
X107500000Y-100000000D03*
X107800000Y-112600000D03*
X113000000Y-115300000D03*
X120300000Y-113700000D03*
X130700000Y-102600000D03*
X132300000Y-109300000D03*
D22*
X114400000Y-106400000D03*
X114400000Y-105600000D03*
X113600000Y-105600000D03*
X113600000Y-106400000D03*
D21*
X109400000Y-96700000D03*
X121400000Y-96600000D03*
X118600000Y-98800000D03*
X123400000Y-101900000D03*
X116700000Y-98300000D03*
X113700000Y-96500000D03*
X120250000Y-110850000D03*
X149000000Y-115000000D03*
X147000000Y-115000000D03*
X145000000Y-115000000D03*
X143000000Y-115000000D03*
X141000000Y-115000000D03*
X137000000Y-115000000D03*
X135000000Y-115000000D03*
X133000000Y-115000000D03*
X131000000Y-115000000D03*
X149000000Y-113000000D03*
X149000000Y-111000000D03*
X149000000Y-109000000D03*
X149000000Y-107000000D03*
X149000000Y-105000000D03*
X149000000Y-103000000D03*
X149000000Y-101000000D03*
X149000000Y-99000000D03*
X149000000Y-97000000D03*
X147000000Y-97000000D03*
X145000000Y-97000000D03*
X143000000Y-97000000D03*
X141000000Y-97000000D03*
X139000000Y-97000000D03*
X137000000Y-97000000D03*
X135000000Y-97000000D03*
X133000000Y-97000000D03*
X131000000Y-97000000D03*
X129000000Y-97000000D03*
X127000000Y-97000000D03*
X125000000Y-97000000D03*
X123000000Y-97000000D03*
X129000000Y-115000000D03*
X127000000Y-115000000D03*
X125000000Y-115000000D03*
X123000000Y-115000000D03*
X121000000Y-115000000D03*
X125000000Y-111000000D03*
X127000000Y-111000000D03*
X129000000Y-109000000D03*
X131000000Y-108000000D03*
X133000000Y-104000000D03*
X121500000Y-101500000D03*
X104000000Y-96750000D03*
X107250000Y-96750000D03*
D22*
X115200000Y-106400000D03*
D21*
X97500000Y-107100000D03*
X139000000Y-115000000D03*
X98250000Y-110550000D03*
X95550000Y-110550000D03*
X96350000Y-114400000D03*
X107000000Y-115000000D03*
X105000000Y-115000000D03*
X105000000Y-113000000D03*
X102500000Y-112500000D03*
X99750000Y-112750000D03*
X97500000Y-112750000D03*
X94500000Y-115000000D03*
X91000000Y-115000000D03*
X88750000Y-110750000D03*
X86250000Y-108500000D03*
X87500000Y-112250000D03*
X91750000Y-104500000D03*
X93500000Y-102750000D03*
X91750000Y-100250000D03*
X94500000Y-97000000D03*
X91000000Y-97000000D03*
X87250000Y-99750000D03*
X89000000Y-100000000D03*
X120500000Y-106500000D03*
X120500000Y-103500000D03*
X122000000Y-106500000D03*
X123750000Y-106500000D03*
X129000000Y-111000000D03*
X131000000Y-111000000D03*
X102950000Y-106400000D03*
X102950000Y-104300000D03*
X103100000Y-102950000D03*
X105450000Y-103950000D03*
G04 #@! TO.N,3v3*
X180400000Y-126300000D03*
D20*
X180200000Y-119600000D03*
X168500000Y-121200000D03*
D21*
X83000000Y-145500000D03*
D22*
X121900000Y-127600000D03*
X122700000Y-126000000D03*
X121100000Y-127600000D03*
X121850000Y-125150000D03*
X119500000Y-123600000D03*
X120300000Y-126000000D03*
D21*
X88000000Y-121200000D03*
X93200000Y-120000000D03*
X93200000Y-126000000D03*
X111850000Y-122450000D03*
X118950000Y-121650000D03*
X122250000Y-121650000D03*
X112000000Y-126300000D03*
D22*
X127500000Y-131300000D03*
D21*
X105350000Y-123900000D03*
X114550000Y-120000000D03*
D22*
X126100000Y-122300000D03*
D21*
X131800000Y-121100000D03*
X125700000Y-119600000D03*
D22*
X130050000Y-119000000D03*
D21*
X174750000Y-124400000D03*
X134500000Y-125300000D03*
D20*
X112100000Y-130600000D03*
D21*
X180600000Y-129100000D03*
X95700000Y-104500000D03*
X115600000Y-115300000D03*
X119400000Y-113700000D03*
X133200000Y-109300000D03*
X114500000Y-101200000D03*
X121500000Y-98700000D03*
X128900000Y-103400000D03*
X118600000Y-96750000D03*
X113200000Y-97100000D03*
X119350000Y-110850000D03*
X127000000Y-102350000D03*
D22*
X116000000Y-105600000D03*
X114400000Y-108000000D03*
X113600000Y-108000000D03*
X112000000Y-105600000D03*
X113600000Y-104800000D03*
X111200000Y-103200000D03*
D21*
X111200000Y-101100000D03*
X115500000Y-114100000D03*
X134400000Y-101200000D03*
X134400000Y-110800000D03*
X102300000Y-113500000D03*
D20*
X103500000Y-101800000D03*
D21*
X104050000Y-102300000D03*
D22*
G04 #@! TO.N,1v2*
X122700000Y-127600000D03*
X120300000Y-127600000D03*
X120300000Y-125200000D03*
X122700000Y-125200000D03*
D21*
X120150000Y-121650000D03*
X115500000Y-127800000D03*
D22*
X128300000Y-131500000D03*
D21*
X124100000Y-119800000D03*
X131050000Y-124350000D03*
X107800000Y-111700000D03*
X104400000Y-106400000D03*
X118400000Y-114200000D03*
X113100000Y-101100000D03*
X112000000Y-96700000D03*
D22*
X112000000Y-108000000D03*
X116000000Y-108000000D03*
X116000000Y-104800000D03*
X112800000Y-104000000D03*
D21*
X110200000Y-111100000D03*
X114800000Y-110800000D03*
X103775000Y-106400000D03*
X103800000Y-113500000D03*
G04 #@! TO.N,Net-(C301-Pad1)*
X169500000Y-128600000D03*
X169500000Y-122300000D03*
D20*
G04 #@! TO.N,/Ethernet/VB1*
X183900000Y-151100000D03*
G04 #@! TO.N,/Ethernet/VB2*
X182600000Y-147300000D03*
G04 #@! TO.N,/Ethernet/VA1*
X176200000Y-143300000D03*
X163700000Y-148600000D03*
X182600000Y-144500000D03*
G04 #@! TO.N,/Ethernet/VA2*
X169800000Y-143300000D03*
X163700000Y-146500000D03*
X182600000Y-141900000D03*
G04 #@! TO.N,Net-(C313-Pad2)*
X190100000Y-146300000D03*
X190100000Y-143000000D03*
D22*
G04 #@! TO.N,/iCE40/FLASH_IO2*
X124350000Y-122750000D03*
D21*
X130050000Y-120500000D03*
D22*
G04 #@! TO.N,/iCE40/FLASH_SDO*
X124300000Y-123600000D03*
X128150000Y-121900000D03*
G04 #@! TO.N,/iCE40/FLASH_SS*
X128150000Y-121250000D03*
X130800000Y-122700000D03*
X126650000Y-120350000D03*
D21*
G04 #@! TO.N,/iCE40/CRESET_B*
X113550000Y-120350000D03*
X117750000Y-118950000D03*
D22*
X125100000Y-124400000D03*
D21*
X135650000Y-124050000D03*
X125000000Y-119250000D03*
D22*
G04 #@! TO.N,/iCE40/CDONE*
X121900000Y-124400000D03*
D21*
X118100000Y-119900000D03*
D22*
G04 #@! TO.N,/TGBe Ports/P3_LED1*
X121900000Y-129200000D03*
G04 #@! TO.N,/TGBe Ports/P1_LED1*
X118700000Y-128400000D03*
G04 #@! TO.N,/TGBe Ports/P3_LED2*
X121100000Y-129200000D03*
G04 #@! TO.N,/TGBe Ports/P2_LED2*
X118700000Y-129200000D03*
G04 #@! TO.N,/TGBe Ports/P1_LED2*
X119500000Y-128400000D03*
G04 #@! TO.N,/TGBe Ports/P4_LED1*
X121100000Y-128400000D03*
G04 #@! TO.N,/TGBe Ports/P4_LED2*
X122700000Y-129200000D03*
G04 #@! TO.N,/TGBe Ports/P2_LED1*
X119500000Y-129200000D03*
G04 #@! TO.N,/TGBe Ports/RD2+*
X120300000Y-130000000D03*
X120350000Y-131400000D03*
G04 #@! TO.N,/TGBe Ports/RD2-*
X120300000Y-129200000D03*
X119900000Y-131850000D03*
G04 #@! TO.N,/iCE40/PHY_~RST*
X124300000Y-129200000D03*
X127300000Y-130200000D03*
G04 #@! TO.N,/iCE40/ETH_LED*
X126850000Y-130700000D03*
X123500000Y-130000000D03*
D21*
G04 #@! TO.N,/Ethernet/MDC*
X177100000Y-126700000D03*
X171300000Y-125600000D03*
G04 #@! TO.N,/Ethernet/MDIO*
X177800000Y-126300000D03*
X171900000Y-125000000D03*
G04 #@! TO.N,/Power/48VPG*
X186500000Y-128500000D03*
X182900000Y-139000000D03*
D20*
G04 #@! TO.N,/Ethernet/0VDC*
X183300000Y-131700000D03*
D21*
G04 #@! TO.N,Net-(IC501-Pad3)*
X160100000Y-131200000D03*
D20*
G04 #@! TO.N,/Ethernet/48VDC*
X183300000Y-134600000D03*
D22*
G04 #@! TO.N,/Ethernet/TXD0*
X126650000Y-129350000D03*
X124300000Y-128400000D03*
D21*
G04 #@! TO.N,Net-(J302-Pad10)*
X177800000Y-130400000D03*
G04 #@! TO.N,/Ethernet/LINK_LED*
X171300000Y-127800000D03*
G04 #@! TO.N,/LED1*
X94800000Y-108600000D03*
D20*
G04 #@! TO.N,/PWRIN*
X94900000Y-103100000D03*
D21*
X100800000Y-113500000D03*
D22*
G04 #@! TO.N,/FLASH_SDO*
X117700000Y-98300000D03*
D21*
G04 #@! TO.N,/FLASH_SS*
X118800000Y-100600000D03*
X118100000Y-99400000D03*
X124100000Y-101520000D03*
D22*
G04 #@! TO.N,/FLASH_SCK*
X118350000Y-102475000D03*
D21*
X119800000Y-102500000D03*
D22*
G04 #@! TO.N,/FLASH_IO3*
X117750000Y-100950000D03*
X116150000Y-97300000D03*
D21*
G04 #@! TO.N,/FLASH_IO2*
X116200000Y-99000000D03*
D22*
X115300000Y-102300000D03*
D21*
G04 #@! TO.N,/LED3*
X109200000Y-102800000D03*
X105400000Y-101300000D03*
G04 #@! TO.N,/LED4*
X109200000Y-102000000D03*
X106100000Y-100600000D03*
G04 #@! TO.N,/CRESET_B*
X124000000Y-100700000D03*
X123000000Y-112150000D03*
X120000000Y-101700000D03*
G04 #@! TD*
D23*
G04 #@! TO.N,1v2*
X120150000Y-125050000D02*
X120300000Y-125200000D01*
D24*
X123300000Y-125800000D02*
X122700000Y-125200000D01*
X120150000Y-121650000D02*
X120150000Y-122400000D01*
X120150000Y-124700000D02*
X120150000Y-125050000D01*
X120150000Y-124700000D02*
X120150000Y-124950000D01*
X120150000Y-122400000D02*
X120150000Y-124700000D01*
X128300000Y-131500000D02*
X128300000Y-130000000D01*
X123300000Y-125800000D02*
X123300000Y-127600000D01*
X125900000Y-127600000D02*
X123300000Y-127600000D01*
X123300000Y-127600000D02*
X122700000Y-127600000D01*
X126100000Y-127800000D02*
X125900000Y-127600000D01*
X120100000Y-127400000D02*
X120300000Y-127600000D01*
X115500000Y-127800000D02*
X115900000Y-127400000D01*
X119700000Y-127400000D02*
X119700000Y-125700000D01*
X119700000Y-127400000D02*
X120100000Y-127400000D01*
X115900000Y-127400000D02*
X119700000Y-127400000D01*
X120200000Y-125200000D02*
X120300000Y-125200000D01*
X120150000Y-125250000D02*
X120000000Y-125400000D01*
X120150000Y-124700000D02*
X120150000Y-125250000D01*
X119700000Y-125700000D02*
X120000000Y-125400000D01*
X120000000Y-125400000D02*
X120200000Y-125200000D01*
X128300000Y-130000000D02*
X126100000Y-127800000D01*
X122700000Y-125200000D02*
X122700000Y-123050000D01*
X124100000Y-121650000D02*
X124100000Y-119800000D01*
X122700000Y-123050000D02*
X124100000Y-121650000D01*
X129150000Y-124350000D02*
X125900000Y-127600000D01*
X129150000Y-124350000D02*
X131050000Y-124350000D01*
X112600000Y-111700000D02*
X113500000Y-110800000D01*
X113500000Y-110800000D02*
X114400000Y-110800000D01*
X117900000Y-110800000D02*
X118400000Y-111300000D01*
X118400000Y-111300000D02*
X118400000Y-114200000D01*
X108300000Y-97400000D02*
X111600000Y-97400000D01*
X113100000Y-98900000D02*
X113100000Y-101100000D01*
X111600000Y-97400000D02*
X113100000Y-98900000D01*
X112000000Y-97000000D02*
X111600000Y-97400000D01*
X112000000Y-96700000D02*
X112000000Y-97000000D01*
X113100000Y-103700000D02*
X112800000Y-104000000D01*
X113100000Y-101100000D02*
X113100000Y-103700000D01*
X116000000Y-108000000D02*
X116000000Y-110800000D01*
X116000000Y-110800000D02*
X117900000Y-110800000D01*
X112000000Y-108000000D02*
X112000000Y-111700000D01*
X112000000Y-111700000D02*
X112600000Y-111700000D01*
X114900000Y-103700000D02*
X116000000Y-104800000D01*
X113100000Y-103700000D02*
X114900000Y-103700000D01*
X110200000Y-111100000D02*
X110200000Y-111700000D01*
X107800000Y-111700000D02*
X110200000Y-111700000D01*
X110200000Y-111700000D02*
X112000000Y-111700000D01*
X114400000Y-110800000D02*
X114800000Y-110800000D01*
X114800000Y-110800000D02*
X116000000Y-110800000D01*
X103775000Y-106400000D02*
X104400000Y-106400000D01*
X105600000Y-111700000D02*
X107800000Y-111700000D01*
X104400000Y-106400000D02*
X104400000Y-110500000D01*
D23*
X103800000Y-112300000D02*
X105000000Y-111100000D01*
X103800000Y-113500000D02*
X103800000Y-112300000D01*
D24*
X104400000Y-110500000D02*
X105000000Y-111100000D01*
X105000000Y-111100000D02*
X105600000Y-111700000D01*
X108300000Y-97400000D02*
X104750000Y-100950000D01*
X104750000Y-106050000D02*
X104400000Y-106400000D01*
X104750000Y-100950000D02*
X104750000Y-106050000D01*
D25*
G04 #@! TO.N,/iCE40/FLASH_IO2*
X124350000Y-122750000D02*
X125450000Y-121650000D01*
X125450000Y-121650000D02*
X125450000Y-120650000D01*
X125450000Y-120650000D02*
X126350000Y-119750000D01*
X126350000Y-119750000D02*
X129300000Y-119750000D01*
X129300000Y-119750000D02*
X130050000Y-120500000D01*
G04 #@! TO.N,/iCE40/FLASH_SDO*
X124300000Y-123600000D02*
X127300000Y-123600000D01*
X128150000Y-122750000D02*
X128150000Y-121900000D01*
X128250000Y-122000000D02*
X128150000Y-121900000D01*
X128150000Y-122750000D02*
X128150000Y-123600000D01*
X132460000Y-123600000D02*
X128150000Y-123600000D01*
X128150000Y-123600000D02*
X127300000Y-123600000D01*
X134410000Y-122000000D02*
X134410000Y-123140000D01*
X133950000Y-123600000D02*
X132460000Y-123600000D01*
X134410000Y-123140000D02*
X133950000Y-123600000D01*
G04 #@! TO.N,/iCE40/FLASH_SS*
X129600000Y-122700000D02*
X130800000Y-122700000D01*
X128150000Y-121250000D02*
X129600000Y-122700000D01*
D23*
X128150000Y-121250000D02*
X127250000Y-120350000D01*
X127250000Y-120350000D02*
X126650000Y-120350000D01*
D25*
G04 #@! TO.N,/iCE40/CRESET_B*
X113550000Y-120350000D02*
X113550000Y-119800000D01*
X113550000Y-119800000D02*
X114400000Y-118950000D01*
X114400000Y-118950000D02*
X117750000Y-118950000D01*
D26*
X123200000Y-123200000D02*
X123450000Y-122950000D01*
X123200000Y-124150000D02*
X123200000Y-123200000D01*
X125100000Y-124400000D02*
X123450000Y-124400000D01*
X123450000Y-124400000D02*
X123200000Y-124150000D01*
X123450000Y-122950000D02*
X125000000Y-121400000D01*
D25*
X135680000Y-122000000D02*
X135680000Y-123570000D01*
X135680000Y-124020000D02*
X135680000Y-123570000D01*
X135650000Y-124050000D02*
X135680000Y-124020000D01*
X125000000Y-119250000D02*
X125000000Y-121400000D01*
G04 #@! TO.N,/iCE40/CDONE*
X121900000Y-124400000D02*
X121650000Y-124150000D01*
X121650000Y-124150000D02*
X121650000Y-120700000D01*
X120850000Y-119900000D02*
X121650000Y-120700000D01*
X118100000Y-119900000D02*
X120850000Y-119900000D01*
G04 #@! TO.N,/TGBe Ports/P3_LED1*
X121900000Y-129200000D02*
X121900000Y-131800000D01*
X133950000Y-143850000D02*
X133950000Y-145356000D01*
X121900000Y-131800000D02*
X133950000Y-143850000D01*
D23*
G04 #@! TO.N,/TGBe Ports/P1_LED1*
X118700000Y-128400000D02*
X117000000Y-128400000D01*
X102450000Y-142950000D02*
X102450000Y-145356000D01*
X117000000Y-128400000D02*
X102450000Y-142950000D01*
D25*
G04 #@! TO.N,/TGBe Ports/P3_LED2*
X121100000Y-129200000D02*
X121100000Y-131500000D01*
X121100000Y-131500000D02*
X118600000Y-134000000D01*
X118600000Y-134000000D02*
X118600000Y-143500000D01*
X118600000Y-143500000D02*
X119200000Y-144100000D01*
X121264000Y-144100000D02*
X122520000Y-145356000D01*
X119200000Y-144100000D02*
X121264000Y-144100000D01*
D23*
G04 #@! TO.N,/TGBe Ports/P2_LED2*
X106770000Y-139230000D02*
X106770000Y-145356000D01*
X118700000Y-129200000D02*
X116800000Y-129200000D01*
X116800000Y-129200000D02*
X106770000Y-139230000D01*
G04 #@! TO.N,/TGBe Ports/P1_LED2*
X91020000Y-141880000D02*
X91020000Y-145356000D01*
X93900000Y-139000000D02*
X91020000Y-141880000D01*
X105800000Y-139000000D02*
X93900000Y-139000000D01*
X116900000Y-127900000D02*
X105800000Y-139000000D01*
X119500000Y-128400000D02*
X119000000Y-127900000D01*
X119000000Y-127900000D02*
X116900000Y-127900000D01*
D25*
G04 #@! TO.N,/TGBe Ports/P4_LED1*
X147644000Y-143300000D02*
X149700000Y-145356000D01*
X134400000Y-143300000D02*
X147644000Y-143300000D01*
X122700000Y-128400000D02*
X123300000Y-129000000D01*
X123300000Y-129400000D02*
X123000000Y-129700000D01*
X121100000Y-128400000D02*
X122700000Y-128400000D01*
X123000000Y-131900000D02*
X134400000Y-143300000D01*
X123000000Y-129700000D02*
X123000000Y-131900000D01*
X123300000Y-129000000D02*
X123300000Y-129400000D01*
G04 #@! TO.N,/TGBe Ports/P4_LED2*
X122700000Y-129200000D02*
X122500000Y-129400000D01*
X122500000Y-129400000D02*
X122500000Y-131900000D01*
X122500000Y-131900000D02*
X134600000Y-144000000D01*
X136914000Y-144000000D02*
X138270000Y-145356000D01*
X134600000Y-144000000D02*
X136914000Y-144000000D01*
D23*
G04 #@! TO.N,/TGBe Ports/P2_LED1*
X119500000Y-129200000D02*
X118900000Y-129800000D01*
X118200000Y-130500000D02*
X118900000Y-129800000D01*
X118200000Y-145356000D02*
X118200000Y-130500000D01*
D26*
G04 #@! TO.N,/TGBe Ports/RD2+*
X120300000Y-130000000D02*
X120300000Y-131350000D01*
X120300000Y-131350000D02*
X120350000Y-131400000D01*
G04 #@! TO.N,/TGBe Ports/RD2-*
X120300000Y-129200000D02*
X119850000Y-129650000D01*
X119850000Y-129650000D02*
X119850000Y-131800000D01*
X119850000Y-131800000D02*
X119900000Y-131850000D01*
D25*
G04 #@! TO.N,/iCE40/PHY_~RST*
X127300000Y-130200000D02*
X126950000Y-129850000D01*
X124950000Y-129850000D02*
X124300000Y-129200000D01*
X126950000Y-129850000D02*
X124950000Y-129850000D01*
G04 #@! TO.N,/iCE40/ETH_LED*
X126850000Y-130700000D02*
X126350000Y-130200000D01*
X123700000Y-130200000D02*
X123500000Y-130000000D01*
X126350000Y-130200000D02*
X123700000Y-130200000D01*
D23*
G04 #@! TO.N,/Ethernet/MDC*
X177100000Y-126700000D02*
X175800000Y-126700000D01*
X175800000Y-126700000D02*
X174700000Y-125600000D01*
X174700000Y-125600000D02*
X171300000Y-125600000D01*
G04 #@! TO.N,/Ethernet/MDIO*
X177800000Y-126300000D02*
X177600000Y-126100000D01*
X177600000Y-126100000D02*
X175800000Y-126100000D01*
X175800000Y-126100000D02*
X174900000Y-125200000D01*
X174900000Y-125200000D02*
X172100000Y-125200000D01*
X172100000Y-125200000D02*
X171900000Y-125000000D01*
G04 #@! TO.N,/Power/48VPG*
X186500000Y-137900000D02*
X186500000Y-128500000D01*
X185400000Y-139000000D02*
X186500000Y-137900000D01*
X182900000Y-139000000D02*
X185400000Y-139000000D01*
G04 #@! TO.N,Net-(IC501-Pad3)*
X158810000Y-121750000D02*
X158810000Y-129510000D01*
X158810000Y-129510000D02*
X160100000Y-130800000D01*
X160100000Y-131200000D02*
X160100000Y-130800000D01*
D26*
G04 #@! TO.N,/Ethernet/TXD0*
X125700000Y-128400000D02*
X126650000Y-129350000D01*
X124300000Y-128400000D02*
X125700000Y-128400000D01*
D23*
G04 #@! TO.N,Net-(J302-Pad10)*
X177672000Y-145356000D02*
X178500000Y-144528000D01*
X178500000Y-131100000D02*
X177800000Y-130400000D01*
X178500000Y-144528000D02*
X178500000Y-131100000D01*
G04 #@! TO.N,/Ethernet/LINK_LED*
X178900000Y-129800000D02*
X178900000Y-144298000D01*
X178000000Y-128900000D02*
X178900000Y-129800000D01*
X172000000Y-128900000D02*
X178000000Y-128900000D01*
X178900000Y-144298000D02*
X179958000Y-145356000D01*
X171300000Y-127800000D02*
X171300000Y-128200000D01*
X171300000Y-128200000D02*
X172000000Y-128900000D01*
D25*
G04 #@! TO.N,/LED1*
X94144000Y-109256000D02*
X94144000Y-110572000D01*
X94800000Y-108600000D02*
X94144000Y-109256000D01*
D27*
G04 #@! TO.N,/PWRIN*
X88302000Y-105492000D02*
X89318000Y-106508000D01*
X87540000Y-105492000D02*
X88302000Y-105492000D01*
X89318000Y-106508000D02*
X91492000Y-106508000D01*
X93600000Y-104400000D02*
X94900000Y-103100000D01*
D23*
X100800000Y-112000000D02*
X93400000Y-104600000D01*
D27*
X91492000Y-106508000D02*
X93400000Y-104600000D01*
D23*
X100800000Y-113500000D02*
X100800000Y-112000000D01*
D27*
X93400000Y-104600000D02*
X93600000Y-104400000D01*
D26*
G04 #@! TO.N,/FLASH_SDO*
X117700000Y-98300000D02*
X119950000Y-98300000D01*
X121185000Y-99535000D02*
X123960000Y-99535000D01*
X119950000Y-98300000D02*
X121185000Y-99535000D01*
G04 #@! TO.N,/FLASH_SS*
X118800000Y-100600000D02*
X118800000Y-100100000D01*
X118800000Y-100100000D02*
X118100000Y-99400000D01*
D25*
X126500000Y-99535000D02*
X126500000Y-100300000D01*
X126500000Y-100300000D02*
X125400000Y-101400000D01*
X125400000Y-101400000D02*
X123600000Y-101400000D01*
X118800000Y-100600000D02*
X122800000Y-100600000D01*
X123600000Y-101400000D02*
X122800000Y-100600000D01*
X123980000Y-101400000D02*
X124100000Y-101520000D01*
X123600000Y-101400000D02*
X123980000Y-101400000D01*
D26*
G04 #@! TO.N,/FLASH_SCK*
X118375000Y-102500000D02*
X118350000Y-102475000D01*
D25*
X119800000Y-102500000D02*
X118375000Y-102500000D01*
G04 #@! TO.N,/FLASH_IO3*
X116200000Y-97350000D02*
X116150000Y-97300000D01*
X116750000Y-97350000D02*
X116200000Y-97350000D01*
X117250000Y-97850000D02*
X116750000Y-97350000D01*
X117250000Y-99350000D02*
X117250000Y-97850000D01*
X117750000Y-100950000D02*
X117750000Y-99850000D01*
X117750000Y-99850000D02*
X117250000Y-99350000D01*
D26*
G04 #@! TO.N,/FLASH_IO2*
X116200000Y-101400000D02*
X116200000Y-99000000D01*
X115300000Y-102300000D02*
X116200000Y-101400000D01*
D25*
G04 #@! TO.N,/LED3*
X105700000Y-102800000D02*
X109200000Y-102800000D01*
X105700000Y-102800000D02*
X105400000Y-102500000D01*
D26*
X105400000Y-101200000D02*
X105400000Y-101300000D01*
D25*
X105400000Y-102500000D02*
X105400000Y-101300000D01*
G04 #@! TO.N,/LED4*
X106100000Y-101650000D02*
X106100000Y-100600000D01*
X109200000Y-102000000D02*
X106450000Y-102000000D01*
X106450000Y-102000000D02*
X106100000Y-101650000D01*
G04 #@! TO.N,/CRESET_B*
X125230000Y-99535000D02*
X125230000Y-99670000D01*
X125230000Y-99670000D02*
X124200000Y-100700000D01*
X124200000Y-100700000D02*
X124000000Y-100700000D01*
D23*
X123000000Y-112150000D02*
X123000000Y-107500000D01*
X123000000Y-107500000D02*
X123000000Y-102500000D01*
X123000000Y-102500000D02*
X122600000Y-102100000D01*
X122600000Y-102100000D02*
X120400000Y-102100000D01*
X120400000Y-102100000D02*
X120000000Y-101700000D01*
G04 #@! TD*
D28*
G04 #@! TO.N,GND*
G36*
X113087836Y-119236860D02*
X113027306Y-119277305D01*
X112986860Y-119337836D01*
X112986858Y-119337838D01*
X112937950Y-119411033D01*
X112867065Y-119517119D01*
X112825000Y-119728596D01*
X112825000Y-119728600D01*
X112824281Y-119732216D01*
X112744629Y-119811868D01*
X112600000Y-120161033D01*
X112600000Y-120538967D01*
X112744629Y-120888132D01*
X113011868Y-121155371D01*
X113361033Y-121300000D01*
X113738967Y-121300000D01*
X114088132Y-121155371D01*
X114313282Y-120930221D01*
X114361033Y-120950000D01*
X114738967Y-120950000D01*
X115088132Y-120805371D01*
X115355371Y-120538132D01*
X115500000Y-120188967D01*
X115500000Y-119811033D01*
X115443653Y-119675000D01*
X117131497Y-119675000D01*
X117155134Y-119698637D01*
X117150000Y-119711033D01*
X117150000Y-120088967D01*
X117294629Y-120438132D01*
X117561868Y-120705371D01*
X117911033Y-120850000D01*
X118288967Y-120850000D01*
X118638132Y-120705371D01*
X118718503Y-120625000D01*
X120549696Y-120625000D01*
X120925001Y-121000306D01*
X120925001Y-121081498D01*
X120688132Y-120844629D01*
X120338967Y-120700000D01*
X119961033Y-120700000D01*
X119611868Y-120844629D01*
X119550000Y-120906497D01*
X119488132Y-120844629D01*
X119138967Y-120700000D01*
X118761033Y-120700000D01*
X118411868Y-120844629D01*
X118144629Y-121111868D01*
X118000000Y-121461033D01*
X118000000Y-121838967D01*
X118144629Y-122188132D01*
X118411868Y-122455371D01*
X118761033Y-122600000D01*
X119138967Y-122600000D01*
X119300000Y-122533298D01*
X119300000Y-122731853D01*
X119002313Y-122855159D01*
X118755159Y-123102313D01*
X118621400Y-123425236D01*
X118621400Y-123774764D01*
X118755159Y-124097687D01*
X119002313Y-124344841D01*
X119300001Y-124468147D01*
X119300001Y-124616281D01*
X119300000Y-124616286D01*
X119300000Y-124897919D01*
X119158156Y-125039763D01*
X119087185Y-125087184D01*
X119039764Y-125158155D01*
X118899319Y-125368347D01*
X118833348Y-125700000D01*
X118850001Y-125783718D01*
X118850000Y-126550000D01*
X115983713Y-126550000D01*
X115899999Y-126533348D01*
X115816285Y-126550000D01*
X115568347Y-126599318D01*
X115287184Y-126787184D01*
X115239759Y-126858160D01*
X115203292Y-126894628D01*
X114961868Y-126994629D01*
X114694629Y-127261868D01*
X114550000Y-127611033D01*
X114550000Y-127988967D01*
X114694629Y-128338132D01*
X114961868Y-128605371D01*
X115083562Y-128655778D01*
X113150000Y-130589340D01*
X113150000Y-130391142D01*
X112990147Y-130005223D01*
X112694777Y-129709853D01*
X112308858Y-129550000D01*
X111891142Y-129550000D01*
X111505223Y-129709853D01*
X111209853Y-130005223D01*
X111050000Y-130391142D01*
X111050000Y-130808858D01*
X111209853Y-131194777D01*
X111505223Y-131490147D01*
X111891142Y-131650000D01*
X112089340Y-131650000D01*
X105489341Y-138250000D01*
X93973864Y-138250000D01*
X93899999Y-138235307D01*
X93826134Y-138250000D01*
X93607365Y-138293516D01*
X93359280Y-138459280D01*
X93317438Y-138521902D01*
X90541906Y-141297435D01*
X90479280Y-141339280D01*
X90313516Y-141587366D01*
X90292874Y-141691142D01*
X90255307Y-141880000D01*
X90270000Y-141953865D01*
X90270001Y-144205430D01*
X90255286Y-144211525D01*
X89875525Y-144591286D01*
X89670000Y-145087468D01*
X89670000Y-145624532D01*
X89875525Y-146120714D01*
X90255286Y-146500475D01*
X90751468Y-146706000D01*
X91288532Y-146706000D01*
X91784714Y-146500475D01*
X92163000Y-146122189D01*
X92541286Y-146500475D01*
X93037468Y-146706000D01*
X93574532Y-146706000D01*
X94070714Y-146500475D01*
X94450475Y-146120714D01*
X94656000Y-145624532D01*
X94656000Y-145087468D01*
X94450475Y-144591286D01*
X94070714Y-144211525D01*
X93574532Y-144006000D01*
X93037468Y-144006000D01*
X92541286Y-144211525D01*
X92163000Y-144589811D01*
X91784714Y-144211525D01*
X91770000Y-144205430D01*
X91770000Y-142190659D01*
X94210660Y-139750000D01*
X104589341Y-139750000D01*
X101971906Y-142367435D01*
X101909280Y-142409280D01*
X101743516Y-142657366D01*
X101722942Y-142760798D01*
X101685307Y-142950000D01*
X101700000Y-143023865D01*
X101700001Y-144205430D01*
X101685286Y-144211525D01*
X101305525Y-144591286D01*
X101100000Y-145087468D01*
X101100000Y-145624532D01*
X101305525Y-146120714D01*
X101685286Y-146500475D01*
X102181468Y-146706000D01*
X102718532Y-146706000D01*
X103214714Y-146500475D01*
X103593000Y-146122189D01*
X103971286Y-146500475D01*
X104467468Y-146706000D01*
X105004532Y-146706000D01*
X105500714Y-146500475D01*
X105753000Y-146248189D01*
X106005286Y-146500475D01*
X106501468Y-146706000D01*
X107038532Y-146706000D01*
X107534714Y-146500475D01*
X107913000Y-146122189D01*
X108291286Y-146500475D01*
X108787468Y-146706000D01*
X109324532Y-146706000D01*
X109820714Y-146500475D01*
X110200475Y-146120714D01*
X110406000Y-145624532D01*
X110406000Y-145087468D01*
X110200475Y-144591286D01*
X109820714Y-144211525D01*
X109324532Y-144006000D01*
X108787468Y-144006000D01*
X108291286Y-144211525D01*
X107913000Y-144589811D01*
X107534714Y-144211525D01*
X107520000Y-144205430D01*
X107520000Y-143958088D01*
X111708000Y-143958088D01*
X111708000Y-144721912D01*
X112000303Y-145427593D01*
X112540407Y-145967697D01*
X113246088Y-146260000D01*
X114009912Y-146260000D01*
X114715593Y-145967697D01*
X115255697Y-145427593D01*
X115548000Y-144721912D01*
X115548000Y-143958088D01*
X115255697Y-143252407D01*
X114715593Y-142712303D01*
X114009912Y-142420000D01*
X113246088Y-142420000D01*
X112540407Y-142712303D01*
X112000303Y-143252407D01*
X111708000Y-143958088D01*
X107520000Y-143958088D01*
X107520000Y-139540659D01*
X117110660Y-129950000D01*
X117673170Y-129950000D01*
X117659281Y-129959280D01*
X117515300Y-130174764D01*
X117493517Y-130207365D01*
X117435307Y-130500000D01*
X117450001Y-130573870D01*
X117450000Y-144205430D01*
X117435286Y-144211525D01*
X117055525Y-144591286D01*
X116850000Y-145087468D01*
X116850000Y-145624532D01*
X117055525Y-146120714D01*
X117435286Y-146500475D01*
X117931468Y-146706000D01*
X118468532Y-146706000D01*
X118964714Y-146500475D01*
X119343000Y-146122189D01*
X119721286Y-146500475D01*
X120217468Y-146706000D01*
X120754532Y-146706000D01*
X121250714Y-146500475D01*
X121503000Y-146248189D01*
X121755286Y-146500475D01*
X122251468Y-146706000D01*
X122788532Y-146706000D01*
X123284714Y-146500475D01*
X123663000Y-146122189D01*
X124041286Y-146500475D01*
X124537468Y-146706000D01*
X125074532Y-146706000D01*
X125570714Y-146500475D01*
X125950475Y-146120714D01*
X126156000Y-145624532D01*
X126156000Y-145087468D01*
X125950475Y-144591286D01*
X125570714Y-144211525D01*
X125074532Y-144006000D01*
X124537468Y-144006000D01*
X124041286Y-144211525D01*
X123663000Y-144589811D01*
X123284714Y-144211525D01*
X122788532Y-144006000D01*
X122251468Y-144006000D01*
X122211754Y-144022450D01*
X122147392Y-143958088D01*
X127458000Y-143958088D01*
X127458000Y-144721912D01*
X127750303Y-145427593D01*
X128290407Y-145967697D01*
X128996088Y-146260000D01*
X129759912Y-146260000D01*
X130465593Y-145967697D01*
X131005697Y-145427593D01*
X131298000Y-144721912D01*
X131298000Y-143958088D01*
X131005697Y-143252407D01*
X130465593Y-142712303D01*
X129759912Y-142420000D01*
X128996088Y-142420000D01*
X128290407Y-142712303D01*
X127750303Y-143252407D01*
X127458000Y-143958088D01*
X122147392Y-143958088D01*
X121827142Y-143637838D01*
X121786695Y-143577305D01*
X121546881Y-143417065D01*
X121335404Y-143375000D01*
X121335400Y-143375000D01*
X121264000Y-143360798D01*
X121192600Y-143375000D01*
X119500305Y-143375000D01*
X119325000Y-143199696D01*
X119325000Y-134300304D01*
X121347387Y-132277918D01*
X121377306Y-132322695D01*
X121437837Y-132363141D01*
X133225000Y-144150305D01*
X133225000Y-144195075D01*
X133185286Y-144211525D01*
X132805525Y-144591286D01*
X132600000Y-145087468D01*
X132600000Y-145624532D01*
X132805525Y-146120714D01*
X133185286Y-146500475D01*
X133681468Y-146706000D01*
X134218532Y-146706000D01*
X134714714Y-146500475D01*
X135093000Y-146122189D01*
X135471286Y-146500475D01*
X135967468Y-146706000D01*
X136504532Y-146706000D01*
X137000714Y-146500475D01*
X137253000Y-146248189D01*
X137505286Y-146500475D01*
X138001468Y-146706000D01*
X138538532Y-146706000D01*
X139034714Y-146500475D01*
X139413000Y-146122189D01*
X139791286Y-146500475D01*
X140287468Y-146706000D01*
X140824532Y-146706000D01*
X141320714Y-146500475D01*
X141700475Y-146120714D01*
X141906000Y-145624532D01*
X141906000Y-145087468D01*
X141700475Y-144591286D01*
X141320714Y-144211525D01*
X140870402Y-144025000D01*
X147343696Y-144025000D01*
X148366450Y-145047754D01*
X148350000Y-145087468D01*
X148350000Y-145624532D01*
X148555525Y-146120714D01*
X148935286Y-146500475D01*
X149431468Y-146706000D01*
X149968532Y-146706000D01*
X150464714Y-146500475D01*
X150843000Y-146122189D01*
X151221286Y-146500475D01*
X151717468Y-146706000D01*
X152254532Y-146706000D01*
X152750714Y-146500475D01*
X153130475Y-146120714D01*
X153336000Y-145624532D01*
X153336000Y-145087468D01*
X153130475Y-144591286D01*
X152750714Y-144211525D01*
X152254532Y-144006000D01*
X151717468Y-144006000D01*
X151221286Y-144211525D01*
X150843000Y-144589811D01*
X150464714Y-144211525D01*
X149968532Y-144006000D01*
X149431468Y-144006000D01*
X149391754Y-144022450D01*
X148207142Y-142837838D01*
X148166695Y-142777305D01*
X147926881Y-142617065D01*
X147715404Y-142575000D01*
X147715400Y-142575000D01*
X147644000Y-142560798D01*
X147572600Y-142575000D01*
X134700304Y-142575000D01*
X123725000Y-131599696D01*
X123725000Y-130934229D01*
X123771400Y-130925000D01*
X125992208Y-130925000D01*
X126105159Y-131197687D01*
X126352313Y-131444841D01*
X126662168Y-131573187D01*
X126755159Y-131797687D01*
X127002313Y-132044841D01*
X127325236Y-132178600D01*
X127674764Y-132178600D01*
X127718115Y-132160643D01*
X127802313Y-132244841D01*
X128125236Y-132378600D01*
X128474764Y-132378600D01*
X128797687Y-132244841D01*
X129044841Y-131997687D01*
X129178600Y-131674764D01*
X129178600Y-131471523D01*
X144710000Y-131471523D01*
X144710000Y-132028477D01*
X144923137Y-132543037D01*
X145316963Y-132936863D01*
X145831523Y-133150000D01*
X146388477Y-133150000D01*
X146903037Y-132936863D01*
X147127550Y-132712350D01*
X147829071Y-132712350D01*
X147893942Y-132960755D01*
X148414829Y-133157923D01*
X148971519Y-133140748D01*
X149406058Y-132960755D01*
X149470929Y-132712350D01*
X148650000Y-131891421D01*
X147829071Y-132712350D01*
X147127550Y-132712350D01*
X147296863Y-132543037D01*
X147375712Y-132352677D01*
X147439245Y-132506058D01*
X147687650Y-132570929D01*
X148508579Y-131750000D01*
X147687650Y-130929071D01*
X147439245Y-130993942D01*
X147378573Y-131154229D01*
X147296863Y-130956963D01*
X147127550Y-130787650D01*
X147829071Y-130787650D01*
X148650000Y-131608579D01*
X149470929Y-130787650D01*
X149406058Y-130539245D01*
X148885171Y-130342077D01*
X148328481Y-130359252D01*
X147893942Y-130539245D01*
X147829071Y-130787650D01*
X147127550Y-130787650D01*
X146903037Y-130563137D01*
X146388477Y-130350000D01*
X145831523Y-130350000D01*
X145316963Y-130563137D01*
X144923137Y-130956963D01*
X144710000Y-131471523D01*
X129178600Y-131471523D01*
X129178600Y-131325236D01*
X129150000Y-131256189D01*
X129150000Y-130083714D01*
X129166652Y-130000000D01*
X129139234Y-129862162D01*
X129100682Y-129668347D01*
X128912816Y-129387184D01*
X128841845Y-129339763D01*
X127102081Y-127600000D01*
X129502082Y-125200000D01*
X130619612Y-125200000D01*
X130861033Y-125300000D01*
X131238967Y-125300000D01*
X131588132Y-125155371D01*
X131855371Y-124888132D01*
X132000000Y-124538967D01*
X132000000Y-124325000D01*
X133878600Y-124325000D01*
X133950000Y-124339202D01*
X134021400Y-124325000D01*
X134021404Y-124325000D01*
X134232881Y-124282935D01*
X134472695Y-124122695D01*
X134513143Y-124062161D01*
X134700000Y-123875304D01*
X134700000Y-124238967D01*
X134757802Y-124378512D01*
X134688967Y-124350000D01*
X134311033Y-124350000D01*
X133961868Y-124494629D01*
X133694629Y-124761868D01*
X133550000Y-125111033D01*
X133550000Y-125488967D01*
X133694629Y-125838132D01*
X133961868Y-126105371D01*
X134311033Y-126250000D01*
X134688967Y-126250000D01*
X135038132Y-126105371D01*
X135305371Y-125838132D01*
X135450000Y-125488967D01*
X135450000Y-125111033D01*
X135392198Y-124971488D01*
X135461033Y-125000000D01*
X135838967Y-125000000D01*
X136188132Y-124855371D01*
X136455371Y-124588132D01*
X136600000Y-124238967D01*
X136600000Y-123861033D01*
X136455371Y-123511868D01*
X136405000Y-123461497D01*
X136405000Y-123027664D01*
X136719659Y-123158000D01*
X137180341Y-123158000D01*
X137585000Y-122990385D01*
X137989659Y-123158000D01*
X138450341Y-123158000D01*
X138855000Y-122990385D01*
X139259659Y-123158000D01*
X139720341Y-123158000D01*
X140145955Y-122981705D01*
X140471705Y-122655955D01*
X140648000Y-122230341D01*
X140648000Y-121769659D01*
X140524509Y-121471523D01*
X144710000Y-121471523D01*
X144710000Y-122028477D01*
X144923137Y-122543037D01*
X145316963Y-122936863D01*
X145831523Y-123150000D01*
X146388477Y-123150000D01*
X146903037Y-122936863D01*
X147127550Y-122712350D01*
X147829071Y-122712350D01*
X147893942Y-122960755D01*
X148414829Y-123157923D01*
X148971519Y-123140748D01*
X149406058Y-122960755D01*
X149470929Y-122712350D01*
X148650000Y-121891421D01*
X147829071Y-122712350D01*
X147127550Y-122712350D01*
X147296863Y-122543037D01*
X147375712Y-122352677D01*
X147439245Y-122506058D01*
X147687650Y-122570929D01*
X148508579Y-121750000D01*
X148791421Y-121750000D01*
X149612350Y-122570929D01*
X149860755Y-122506058D01*
X149921427Y-122345771D01*
X150003137Y-122543037D01*
X150396963Y-122936863D01*
X150911523Y-123150000D01*
X151468477Y-123150000D01*
X151983037Y-122936863D01*
X152376863Y-122543037D01*
X152460000Y-122342326D01*
X152543137Y-122543037D01*
X152936963Y-122936863D01*
X153451523Y-123150000D01*
X154008477Y-123150000D01*
X154523037Y-122936863D01*
X154916863Y-122543037D01*
X155130000Y-122028477D01*
X155130000Y-121471523D01*
X154916863Y-120956963D01*
X154523037Y-120563137D01*
X154008477Y-120350000D01*
X153451523Y-120350000D01*
X152936963Y-120563137D01*
X152543137Y-120956963D01*
X152460000Y-121157674D01*
X152376863Y-120956963D01*
X151983037Y-120563137D01*
X151468477Y-120350000D01*
X150911523Y-120350000D01*
X150396963Y-120563137D01*
X150003137Y-120956963D01*
X149924288Y-121147323D01*
X149860755Y-120993942D01*
X149612350Y-120929071D01*
X148791421Y-121750000D01*
X148508579Y-121750000D01*
X147687650Y-120929071D01*
X147439245Y-120993942D01*
X147378573Y-121154229D01*
X147296863Y-120956963D01*
X147127550Y-120787650D01*
X147829071Y-120787650D01*
X148650000Y-121608579D01*
X149470929Y-120787650D01*
X149406058Y-120539245D01*
X148885171Y-120342077D01*
X148328481Y-120359252D01*
X147893942Y-120539245D01*
X147829071Y-120787650D01*
X147127550Y-120787650D01*
X146903037Y-120563137D01*
X146388477Y-120350000D01*
X145831523Y-120350000D01*
X145316963Y-120563137D01*
X144923137Y-120956963D01*
X144710000Y-121471523D01*
X140524509Y-121471523D01*
X140480385Y-121365000D01*
X140648000Y-120960341D01*
X140648000Y-120499659D01*
X140471705Y-120074045D01*
X140145955Y-119748295D01*
X139720341Y-119572000D01*
X139259659Y-119572000D01*
X138835071Y-119747870D01*
X138830596Y-119719457D01*
X138397399Y-119562715D01*
X137937195Y-119583682D01*
X137609404Y-119719457D01*
X137585000Y-119874394D01*
X137560596Y-119719457D01*
X137127399Y-119562715D01*
X136667195Y-119583682D01*
X136339404Y-119719457D01*
X136334929Y-119747870D01*
X135910341Y-119572000D01*
X135449659Y-119572000D01*
X135025071Y-119747870D01*
X135020596Y-119719457D01*
X134587399Y-119562715D01*
X134127195Y-119583682D01*
X133799404Y-119719457D01*
X133764225Y-119942803D01*
X134410000Y-120588579D01*
X134424143Y-120574437D01*
X134522000Y-120672294D01*
X134522000Y-120787706D01*
X134467706Y-120842000D01*
X134352294Y-120842000D01*
X134254437Y-120744143D01*
X134268579Y-120730000D01*
X133622803Y-120084225D01*
X133399457Y-120119404D01*
X133242715Y-120552601D01*
X133263682Y-121012805D01*
X133399457Y-121340596D01*
X133427870Y-121345071D01*
X133252000Y-121769659D01*
X133252000Y-122230341D01*
X133428295Y-122655955D01*
X133647340Y-122875000D01*
X131678502Y-122875000D01*
X131678600Y-122874764D01*
X131678600Y-122525236D01*
X131544841Y-122202313D01*
X131297687Y-121955159D01*
X130974764Y-121821400D01*
X130625236Y-121821400D01*
X130302313Y-121955159D01*
X130282472Y-121975000D01*
X129900304Y-121975000D01*
X129028600Y-121103296D01*
X129028600Y-121075236D01*
X128894841Y-120752313D01*
X128647687Y-120505159D01*
X128574877Y-120475000D01*
X128999696Y-120475000D01*
X129100000Y-120575304D01*
X129100000Y-120688967D01*
X129244629Y-121038132D01*
X129511868Y-121305371D01*
X129861033Y-121450000D01*
X130238967Y-121450000D01*
X130588132Y-121305371D01*
X130850000Y-121043503D01*
X130850000Y-121288967D01*
X130994629Y-121638132D01*
X131261868Y-121905371D01*
X131611033Y-122050000D01*
X131988967Y-122050000D01*
X132338132Y-121905371D01*
X132605371Y-121638132D01*
X132750000Y-121288967D01*
X132750000Y-120911033D01*
X132605371Y-120561868D01*
X132338132Y-120294629D01*
X131988967Y-120150000D01*
X131611033Y-120150000D01*
X131261868Y-120294629D01*
X131000000Y-120556497D01*
X131000000Y-120311033D01*
X130855371Y-119961868D01*
X130593016Y-119699513D01*
X130794841Y-119497687D01*
X130928600Y-119174764D01*
X130928600Y-118825236D01*
X130856015Y-118650000D01*
X179749721Y-118650000D01*
X179605223Y-118709853D01*
X179309853Y-119005223D01*
X179150000Y-119391142D01*
X179150000Y-119808858D01*
X179309853Y-120194777D01*
X179605223Y-120490147D01*
X179991142Y-120650000D01*
X180408858Y-120650000D01*
X180794777Y-120490147D01*
X181090147Y-120194777D01*
X181250000Y-119808858D01*
X181250000Y-119391142D01*
X181090147Y-119005223D01*
X180794777Y-118709853D01*
X180650279Y-118650000D01*
X183850000Y-118650000D01*
X183850000Y-125937868D01*
X181315686Y-128472183D01*
X181138132Y-128294629D01*
X180788967Y-128150000D01*
X180411033Y-128150000D01*
X180061868Y-128294629D01*
X179794629Y-128561868D01*
X179650000Y-128911033D01*
X179650000Y-129288967D01*
X179794629Y-129638132D01*
X180061868Y-129905371D01*
X180411033Y-130050000D01*
X180788967Y-130050000D01*
X180850000Y-130024719D01*
X180850000Y-131850000D01*
X179650000Y-131850000D01*
X179650000Y-129873864D01*
X179664693Y-129799999D01*
X179644802Y-129700000D01*
X179606484Y-129507365D01*
X179440720Y-129259280D01*
X179378100Y-129217439D01*
X178582565Y-128421906D01*
X178540720Y-128359280D01*
X178292635Y-128193516D01*
X178073866Y-128150000D01*
X178073865Y-128150000D01*
X178000000Y-128135307D01*
X177926135Y-128150000D01*
X172310660Y-128150000D01*
X172220601Y-128059942D01*
X172250000Y-127988967D01*
X172250000Y-127611033D01*
X172105371Y-127261868D01*
X171838132Y-126994629D01*
X171488967Y-126850000D01*
X171111033Y-126850000D01*
X170761868Y-126994629D01*
X170494629Y-127261868D01*
X170350000Y-127611033D01*
X170350000Y-127988967D01*
X170494629Y-128338132D01*
X170579706Y-128423209D01*
X170593516Y-128492635D01*
X170759280Y-128740720D01*
X170821905Y-128782564D01*
X171417437Y-129378096D01*
X171459280Y-129440720D01*
X171707365Y-129606484D01*
X171926134Y-129650000D01*
X171999999Y-129664693D01*
X172073864Y-129650000D01*
X177206497Y-129650000D01*
X176994629Y-129861868D01*
X176850000Y-130211033D01*
X176850000Y-130588967D01*
X176994629Y-130938132D01*
X177261868Y-131205371D01*
X177611033Y-131350000D01*
X177689340Y-131350000D01*
X177750001Y-131410661D01*
X177750001Y-131850000D01*
X166150000Y-131850000D01*
X166150000Y-128411033D01*
X168550000Y-128411033D01*
X168550000Y-128788967D01*
X168694629Y-129138132D01*
X168961868Y-129405371D01*
X169311033Y-129550000D01*
X169688967Y-129550000D01*
X170038132Y-129405371D01*
X170305371Y-129138132D01*
X170450000Y-128788967D01*
X170450000Y-128411033D01*
X170305371Y-128061868D01*
X170038132Y-127794629D01*
X169688967Y-127650000D01*
X169311033Y-127650000D01*
X168961868Y-127794629D01*
X168694629Y-128061868D01*
X168550000Y-128411033D01*
X166150000Y-128411033D01*
X166150000Y-125411033D01*
X170350000Y-125411033D01*
X170350000Y-125788967D01*
X170494629Y-126138132D01*
X170761868Y-126405371D01*
X171111033Y-126550000D01*
X171488967Y-126550000D01*
X171838132Y-126405371D01*
X171893503Y-126350000D01*
X174389341Y-126350000D01*
X175217437Y-127178097D01*
X175259280Y-127240720D01*
X175507365Y-127406484D01*
X175726134Y-127450000D01*
X175726135Y-127450000D01*
X175800000Y-127464693D01*
X175873865Y-127450000D01*
X176506497Y-127450000D01*
X176561868Y-127505371D01*
X176911033Y-127650000D01*
X177288967Y-127650000D01*
X177638132Y-127505371D01*
X177893503Y-127250000D01*
X177988967Y-127250000D01*
X178338132Y-127105371D01*
X178605371Y-126838132D01*
X178750000Y-126488967D01*
X178750000Y-126111033D01*
X179450000Y-126111033D01*
X179450000Y-126488967D01*
X179594629Y-126838132D01*
X179861868Y-127105371D01*
X180211033Y-127250000D01*
X180588967Y-127250000D01*
X180938132Y-127105371D01*
X181205371Y-126838132D01*
X181350000Y-126488967D01*
X181350000Y-126111033D01*
X181205371Y-125761868D01*
X180938132Y-125494629D01*
X180588967Y-125350000D01*
X180211033Y-125350000D01*
X179861868Y-125494629D01*
X179594629Y-125761868D01*
X179450000Y-126111033D01*
X178750000Y-126111033D01*
X178605371Y-125761868D01*
X178338132Y-125494629D01*
X177988967Y-125350000D01*
X177673865Y-125350000D01*
X177600000Y-125335307D01*
X177526135Y-125350000D01*
X176110660Y-125350000D01*
X175597378Y-124836718D01*
X175700000Y-124588967D01*
X175700000Y-124211033D01*
X175555371Y-123861868D01*
X175288132Y-123594629D01*
X174938967Y-123450000D01*
X174561033Y-123450000D01*
X174211868Y-123594629D01*
X173944629Y-123861868D01*
X173800000Y-124211033D01*
X173800000Y-124450000D01*
X172693503Y-124450000D01*
X172438132Y-124194629D01*
X172088967Y-124050000D01*
X171711033Y-124050000D01*
X171361868Y-124194629D01*
X171094629Y-124461868D01*
X170997166Y-124697166D01*
X170761868Y-124794629D01*
X170494629Y-125061868D01*
X170350000Y-125411033D01*
X166150000Y-125411033D01*
X166150000Y-120991142D01*
X167450000Y-120991142D01*
X167450000Y-121408858D01*
X167609853Y-121794777D01*
X167905223Y-122090147D01*
X168291142Y-122250000D01*
X168550000Y-122250000D01*
X168550000Y-122488967D01*
X168694629Y-122838132D01*
X168961868Y-123105371D01*
X169311033Y-123250000D01*
X169688967Y-123250000D01*
X170038132Y-123105371D01*
X170305371Y-122838132D01*
X170450000Y-122488967D01*
X170450000Y-122111033D01*
X170305371Y-121761868D01*
X170038132Y-121494629D01*
X169688967Y-121350000D01*
X169550000Y-121350000D01*
X169550000Y-120991142D01*
X169390147Y-120605223D01*
X169094777Y-120309853D01*
X168708858Y-120150000D01*
X168291142Y-120150000D01*
X167905223Y-120309853D01*
X167609853Y-120605223D01*
X167450000Y-120991142D01*
X166150000Y-120991142D01*
X166150000Y-120000000D01*
X166138582Y-119942597D01*
X166106066Y-119893934D01*
X166057403Y-119861418D01*
X166000000Y-119850000D01*
X157000000Y-119850000D01*
X156942597Y-119861418D01*
X156893934Y-119893934D01*
X156861418Y-119942597D01*
X156850000Y-120000000D01*
X156850000Y-131850000D01*
X155130000Y-131850000D01*
X155130000Y-131471523D01*
X154916863Y-130956963D01*
X154523037Y-130563137D01*
X154008477Y-130350000D01*
X153451523Y-130350000D01*
X152936963Y-130563137D01*
X152543137Y-130956963D01*
X152460000Y-131157674D01*
X152376863Y-130956963D01*
X151983037Y-130563137D01*
X151468477Y-130350000D01*
X150911523Y-130350000D01*
X150396963Y-130563137D01*
X150003137Y-130956963D01*
X149924288Y-131147323D01*
X149860755Y-130993942D01*
X149612350Y-130929071D01*
X148791421Y-131750000D01*
X149612350Y-132570929D01*
X149860755Y-132506058D01*
X149921427Y-132345771D01*
X150003137Y-132543037D01*
X150396963Y-132936863D01*
X150911523Y-133150000D01*
X151468477Y-133150000D01*
X151983037Y-132936863D01*
X152376863Y-132543037D01*
X152460000Y-132342326D01*
X152543137Y-132543037D01*
X152936963Y-132936863D01*
X153451523Y-133150000D01*
X153850000Y-133150000D01*
X153850000Y-149241335D01*
X153631912Y-149151000D01*
X152868088Y-149151000D01*
X152162407Y-149443303D01*
X151622303Y-149983407D01*
X151330000Y-150689088D01*
X151330000Y-151452912D01*
X151622303Y-152158593D01*
X151688110Y-152224400D01*
X151015355Y-152224400D01*
X150178976Y-152570839D01*
X149538839Y-153210976D01*
X149192400Y-154047355D01*
X149192400Y-154952645D01*
X149538839Y-155789024D01*
X150178976Y-156429161D01*
X151015355Y-156775600D01*
X151920645Y-156775600D01*
X152757024Y-156429161D01*
X153397161Y-155789024D01*
X153743600Y-154952645D01*
X153743600Y-154047355D01*
X153397161Y-153210976D01*
X153177185Y-152991000D01*
X153631912Y-152991000D01*
X153850000Y-152900665D01*
X153850000Y-159350000D01*
X84927669Y-159350000D01*
X85954268Y-158924768D01*
X86228080Y-158650956D01*
X86338132Y-158605371D01*
X86605371Y-158338132D01*
X86650956Y-158228080D01*
X86924768Y-157954268D01*
X87450000Y-156686248D01*
X87450000Y-155313752D01*
X86924768Y-154045732D01*
X86650956Y-153771920D01*
X86605371Y-153661868D01*
X86338132Y-153394629D01*
X86228080Y-153349044D01*
X85954268Y-153075232D01*
X84686248Y-152550000D01*
X83313752Y-152550000D01*
X82045732Y-153075232D01*
X81771920Y-153349044D01*
X81661868Y-153394629D01*
X81394629Y-153661868D01*
X81349044Y-153771920D01*
X81075232Y-154045732D01*
X80650000Y-155072331D01*
X80650000Y-150762500D01*
X80900000Y-150762500D01*
X80900000Y-151579293D01*
X80998957Y-151818195D01*
X81181805Y-152001043D01*
X81420707Y-152100000D01*
X82237500Y-152100000D01*
X82400000Y-151937500D01*
X82400000Y-150600000D01*
X82600000Y-150600000D01*
X82600000Y-151937500D01*
X82762500Y-152100000D01*
X83579293Y-152100000D01*
X83818195Y-152001043D01*
X84001043Y-151818195D01*
X84100000Y-151579293D01*
X84100000Y-150762500D01*
X84026588Y-150689088D01*
X87830000Y-150689088D01*
X87830000Y-151452912D01*
X88122303Y-152158593D01*
X88662407Y-152698697D01*
X89368088Y-152991000D01*
X89818815Y-152991000D01*
X89598839Y-153210976D01*
X89252400Y-154047355D01*
X89252400Y-154952645D01*
X89598839Y-155789024D01*
X90238976Y-156429161D01*
X91075355Y-156775600D01*
X91980645Y-156775600D01*
X92817024Y-156429161D01*
X93457161Y-155789024D01*
X93803600Y-154952645D01*
X93803600Y-154047355D01*
X93457161Y-153210976D01*
X93132369Y-152886184D01*
X94553237Y-152886184D01*
X94611984Y-153129406D01*
X95114761Y-153318225D01*
X95651524Y-153300266D01*
X96064016Y-153129406D01*
X96122763Y-152886184D01*
X95338000Y-152101421D01*
X94553237Y-152886184D01*
X93132369Y-152886184D01*
X92817024Y-152570839D01*
X91980645Y-152224400D01*
X91311890Y-152224400D01*
X91377697Y-152158593D01*
X91670000Y-151452912D01*
X91670000Y-151108184D01*
X93537237Y-151108184D01*
X93595984Y-151351406D01*
X94059169Y-151525356D01*
X93979775Y-151736761D01*
X93997734Y-152273524D01*
X94168594Y-152686016D01*
X94411816Y-152744763D01*
X95196579Y-151960000D01*
X95182437Y-151945858D01*
X95323858Y-151804437D01*
X95338000Y-151818579D01*
X95352143Y-151804437D01*
X95493564Y-151945858D01*
X95479421Y-151960000D01*
X96212366Y-152692945D01*
X96225525Y-152724714D01*
X96605286Y-153104475D01*
X97101468Y-153310000D01*
X97638532Y-153310000D01*
X98134714Y-153104475D01*
X98386000Y-152853189D01*
X98637286Y-153104475D01*
X99133468Y-153310000D01*
X99670532Y-153310000D01*
X100166714Y-153104475D01*
X100418000Y-152853189D01*
X100669286Y-153104475D01*
X101165468Y-153310000D01*
X101702532Y-153310000D01*
X102198714Y-153104475D01*
X102417005Y-152886184D01*
X110303237Y-152886184D01*
X110361984Y-153129406D01*
X110864761Y-153318225D01*
X111401524Y-153300266D01*
X111814016Y-153129406D01*
X111872763Y-152886184D01*
X111088000Y-152101421D01*
X110303237Y-152886184D01*
X102417005Y-152886184D01*
X102578475Y-152724714D01*
X102784000Y-152228532D01*
X102784000Y-151691468D01*
X102578475Y-151195286D01*
X102491373Y-151108184D01*
X109287237Y-151108184D01*
X109345984Y-151351406D01*
X109809169Y-151525356D01*
X109729775Y-151736761D01*
X109747734Y-152273524D01*
X109918594Y-152686016D01*
X110161816Y-152744763D01*
X110946579Y-151960000D01*
X110932437Y-151945858D01*
X111073858Y-151804437D01*
X111088000Y-151818579D01*
X111102143Y-151804437D01*
X111243564Y-151945858D01*
X111229421Y-151960000D01*
X111962366Y-152692945D01*
X111975525Y-152724714D01*
X112355286Y-153104475D01*
X112851468Y-153310000D01*
X113388532Y-153310000D01*
X113884714Y-153104475D01*
X114136000Y-152853189D01*
X114387286Y-153104475D01*
X114883468Y-153310000D01*
X115420532Y-153310000D01*
X115916714Y-153104475D01*
X116168000Y-152853189D01*
X116419286Y-153104475D01*
X116915468Y-153310000D01*
X117452532Y-153310000D01*
X117948714Y-153104475D01*
X118167005Y-152886184D01*
X126053237Y-152886184D01*
X126111984Y-153129406D01*
X126614761Y-153318225D01*
X127151524Y-153300266D01*
X127564016Y-153129406D01*
X127622763Y-152886184D01*
X126838000Y-152101421D01*
X126053237Y-152886184D01*
X118167005Y-152886184D01*
X118328475Y-152724714D01*
X118534000Y-152228532D01*
X118534000Y-151691468D01*
X118328475Y-151195286D01*
X118241373Y-151108184D01*
X125037237Y-151108184D01*
X125095984Y-151351406D01*
X125559169Y-151525356D01*
X125479775Y-151736761D01*
X125497734Y-152273524D01*
X125668594Y-152686016D01*
X125911816Y-152744763D01*
X126696579Y-151960000D01*
X126682437Y-151945858D01*
X126823858Y-151804437D01*
X126838000Y-151818579D01*
X126852143Y-151804437D01*
X126993564Y-151945858D01*
X126979421Y-151960000D01*
X127712366Y-152692945D01*
X127725525Y-152724714D01*
X128105286Y-153104475D01*
X128601468Y-153310000D01*
X129138532Y-153310000D01*
X129634714Y-153104475D01*
X129886000Y-152853189D01*
X130137286Y-153104475D01*
X130633468Y-153310000D01*
X131170532Y-153310000D01*
X131666714Y-153104475D01*
X131918000Y-152853189D01*
X132169286Y-153104475D01*
X132665468Y-153310000D01*
X133202532Y-153310000D01*
X133698714Y-153104475D01*
X133917005Y-152886184D01*
X141803237Y-152886184D01*
X141861984Y-153129406D01*
X142364761Y-153318225D01*
X142901524Y-153300266D01*
X143314016Y-153129406D01*
X143372763Y-152886184D01*
X142588000Y-152101421D01*
X141803237Y-152886184D01*
X133917005Y-152886184D01*
X134078475Y-152724714D01*
X134284000Y-152228532D01*
X134284000Y-151691468D01*
X134078475Y-151195286D01*
X133991373Y-151108184D01*
X140787237Y-151108184D01*
X140845984Y-151351406D01*
X141309169Y-151525356D01*
X141229775Y-151736761D01*
X141247734Y-152273524D01*
X141418594Y-152686016D01*
X141661816Y-152744763D01*
X142446579Y-151960000D01*
X142432437Y-151945858D01*
X142573858Y-151804437D01*
X142588000Y-151818579D01*
X142602143Y-151804437D01*
X142743564Y-151945858D01*
X142729421Y-151960000D01*
X143462366Y-152692945D01*
X143475525Y-152724714D01*
X143855286Y-153104475D01*
X144351468Y-153310000D01*
X144888532Y-153310000D01*
X145384714Y-153104475D01*
X145636000Y-152853189D01*
X145887286Y-153104475D01*
X146383468Y-153310000D01*
X146920532Y-153310000D01*
X147416714Y-153104475D01*
X147668000Y-152853189D01*
X147919286Y-153104475D01*
X148415468Y-153310000D01*
X148952532Y-153310000D01*
X149448714Y-153104475D01*
X149828475Y-152724714D01*
X150034000Y-152228532D01*
X150034000Y-151691468D01*
X149828475Y-151195286D01*
X149448714Y-150815525D01*
X148952532Y-150610000D01*
X148951946Y-150610000D01*
X149018000Y-150450532D01*
X149018000Y-149913468D01*
X148812475Y-149417286D01*
X148432714Y-149037525D01*
X147936532Y-148832000D01*
X147399468Y-148832000D01*
X146903286Y-149037525D01*
X146652000Y-149288811D01*
X146400714Y-149037525D01*
X145904532Y-148832000D01*
X145367468Y-148832000D01*
X144871286Y-149037525D01*
X144620000Y-149288811D01*
X144368714Y-149037525D01*
X143872532Y-148832000D01*
X143335468Y-148832000D01*
X142839286Y-149037525D01*
X142459525Y-149417286D01*
X142446366Y-149449055D01*
X141713421Y-150182000D01*
X141727564Y-150196143D01*
X141586143Y-150337564D01*
X141572000Y-150323421D01*
X140787237Y-151108184D01*
X133991373Y-151108184D01*
X133698714Y-150815525D01*
X133202532Y-150610000D01*
X133201946Y-150610000D01*
X133268000Y-150450532D01*
X133268000Y-149958761D01*
X140213775Y-149958761D01*
X140231734Y-150495524D01*
X140402594Y-150908016D01*
X140645816Y-150966763D01*
X141430579Y-150182000D01*
X140645816Y-149397237D01*
X140402594Y-149455984D01*
X140213775Y-149958761D01*
X133268000Y-149958761D01*
X133268000Y-149913468D01*
X133062475Y-149417286D01*
X132901005Y-149255816D01*
X140787237Y-149255816D01*
X141572000Y-150040579D01*
X142356763Y-149255816D01*
X142298016Y-149012594D01*
X141795239Y-148823775D01*
X141258476Y-148841734D01*
X140845984Y-149012594D01*
X140787237Y-149255816D01*
X132901005Y-149255816D01*
X132682714Y-149037525D01*
X132186532Y-148832000D01*
X131649468Y-148832000D01*
X131153286Y-149037525D01*
X130902000Y-149288811D01*
X130650714Y-149037525D01*
X130154532Y-148832000D01*
X129617468Y-148832000D01*
X129121286Y-149037525D01*
X128870000Y-149288811D01*
X128618714Y-149037525D01*
X128122532Y-148832000D01*
X127585468Y-148832000D01*
X127089286Y-149037525D01*
X126709525Y-149417286D01*
X126696366Y-149449055D01*
X125963421Y-150182000D01*
X125977564Y-150196143D01*
X125836143Y-150337564D01*
X125822000Y-150323421D01*
X125037237Y-151108184D01*
X118241373Y-151108184D01*
X117948714Y-150815525D01*
X117452532Y-150610000D01*
X117451946Y-150610000D01*
X117518000Y-150450532D01*
X117518000Y-149958761D01*
X124463775Y-149958761D01*
X124481734Y-150495524D01*
X124652594Y-150908016D01*
X124895816Y-150966763D01*
X125680579Y-150182000D01*
X124895816Y-149397237D01*
X124652594Y-149455984D01*
X124463775Y-149958761D01*
X117518000Y-149958761D01*
X117518000Y-149913468D01*
X117312475Y-149417286D01*
X117151005Y-149255816D01*
X125037237Y-149255816D01*
X125822000Y-150040579D01*
X126606763Y-149255816D01*
X126548016Y-149012594D01*
X126045239Y-148823775D01*
X125508476Y-148841734D01*
X125095984Y-149012594D01*
X125037237Y-149255816D01*
X117151005Y-149255816D01*
X116932714Y-149037525D01*
X116436532Y-148832000D01*
X115899468Y-148832000D01*
X115403286Y-149037525D01*
X115152000Y-149288811D01*
X114900714Y-149037525D01*
X114404532Y-148832000D01*
X113867468Y-148832000D01*
X113371286Y-149037525D01*
X113120000Y-149288811D01*
X112868714Y-149037525D01*
X112372532Y-148832000D01*
X111835468Y-148832000D01*
X111339286Y-149037525D01*
X110959525Y-149417286D01*
X110946366Y-149449055D01*
X110213421Y-150182000D01*
X110227564Y-150196143D01*
X110086143Y-150337564D01*
X110072000Y-150323421D01*
X109287237Y-151108184D01*
X102491373Y-151108184D01*
X102198714Y-150815525D01*
X101702532Y-150610000D01*
X101701946Y-150610000D01*
X101768000Y-150450532D01*
X101768000Y-149958761D01*
X108713775Y-149958761D01*
X108731734Y-150495524D01*
X108902594Y-150908016D01*
X109145816Y-150966763D01*
X109930579Y-150182000D01*
X109145816Y-149397237D01*
X108902594Y-149455984D01*
X108713775Y-149958761D01*
X101768000Y-149958761D01*
X101768000Y-149913468D01*
X101562475Y-149417286D01*
X101401005Y-149255816D01*
X109287237Y-149255816D01*
X110072000Y-150040579D01*
X110856763Y-149255816D01*
X110798016Y-149012594D01*
X110295239Y-148823775D01*
X109758476Y-148841734D01*
X109345984Y-149012594D01*
X109287237Y-149255816D01*
X101401005Y-149255816D01*
X101182714Y-149037525D01*
X100686532Y-148832000D01*
X100149468Y-148832000D01*
X99653286Y-149037525D01*
X99402000Y-149288811D01*
X99150714Y-149037525D01*
X98654532Y-148832000D01*
X98117468Y-148832000D01*
X97621286Y-149037525D01*
X97370000Y-149288811D01*
X97118714Y-149037525D01*
X96622532Y-148832000D01*
X96085468Y-148832000D01*
X95589286Y-149037525D01*
X95209525Y-149417286D01*
X95196366Y-149449055D01*
X94463421Y-150182000D01*
X94477564Y-150196143D01*
X94336143Y-150337564D01*
X94322000Y-150323421D01*
X93537237Y-151108184D01*
X91670000Y-151108184D01*
X91670000Y-150689088D01*
X91377697Y-149983407D01*
X91353051Y-149958761D01*
X92963775Y-149958761D01*
X92981734Y-150495524D01*
X93152594Y-150908016D01*
X93395816Y-150966763D01*
X94180579Y-150182000D01*
X93395816Y-149397237D01*
X93152594Y-149455984D01*
X92963775Y-149958761D01*
X91353051Y-149958761D01*
X90837593Y-149443303D01*
X90384960Y-149255816D01*
X93537237Y-149255816D01*
X94322000Y-150040579D01*
X95106763Y-149255816D01*
X95048016Y-149012594D01*
X94545239Y-148823775D01*
X94008476Y-148841734D01*
X93595984Y-149012594D01*
X93537237Y-149255816D01*
X90384960Y-149255816D01*
X90131912Y-149151000D01*
X89368088Y-149151000D01*
X88662407Y-149443303D01*
X88122303Y-149983407D01*
X87830000Y-150689088D01*
X84026588Y-150689088D01*
X83937500Y-150600000D01*
X82600000Y-150600000D01*
X82400000Y-150600000D01*
X81062500Y-150600000D01*
X80900000Y-150762500D01*
X80650000Y-150762500D01*
X80650000Y-149420707D01*
X80900000Y-149420707D01*
X80900000Y-150237500D01*
X81062500Y-150400000D01*
X82400000Y-150400000D01*
X82400000Y-149062500D01*
X82600000Y-149062500D01*
X82600000Y-150400000D01*
X83937500Y-150400000D01*
X84100000Y-150237500D01*
X84100000Y-149420707D01*
X84001043Y-149181805D01*
X83818195Y-148998957D01*
X83579293Y-148900000D01*
X82762500Y-148900000D01*
X82600000Y-149062500D01*
X82400000Y-149062500D01*
X82237500Y-148900000D01*
X81420707Y-148900000D01*
X81181805Y-148998957D01*
X80998957Y-149181805D01*
X80900000Y-149420707D01*
X80650000Y-149420707D01*
X80650000Y-145311033D01*
X82050000Y-145311033D01*
X82050000Y-145688967D01*
X82194629Y-146038132D01*
X82461868Y-146305371D01*
X82811033Y-146450000D01*
X83188967Y-146450000D01*
X83538132Y-146305371D01*
X83805371Y-146038132D01*
X83950000Y-145688967D01*
X83950000Y-145311033D01*
X83805371Y-144961868D01*
X83538132Y-144694629D01*
X83188967Y-144550000D01*
X82811033Y-144550000D01*
X82461868Y-144694629D01*
X82194629Y-144961868D01*
X82050000Y-145311033D01*
X80650000Y-145311033D01*
X80650000Y-125811033D01*
X92250000Y-125811033D01*
X92250000Y-126188967D01*
X92394629Y-126538132D01*
X92661868Y-126805371D01*
X93011033Y-126950000D01*
X93388967Y-126950000D01*
X93738132Y-126805371D01*
X94005371Y-126538132D01*
X94150000Y-126188967D01*
X94150000Y-126111033D01*
X111050000Y-126111033D01*
X111050000Y-126488967D01*
X111194629Y-126838132D01*
X111461868Y-127105371D01*
X111811033Y-127250000D01*
X112188967Y-127250000D01*
X112538132Y-127105371D01*
X112805371Y-126838132D01*
X112950000Y-126488967D01*
X112950000Y-126111033D01*
X112805371Y-125761868D01*
X112538132Y-125494629D01*
X112188967Y-125350000D01*
X111811033Y-125350000D01*
X111461868Y-125494629D01*
X111194629Y-125761868D01*
X111050000Y-126111033D01*
X94150000Y-126111033D01*
X94150000Y-125811033D01*
X94005371Y-125461868D01*
X93738132Y-125194629D01*
X93388967Y-125050000D01*
X93011033Y-125050000D01*
X92661868Y-125194629D01*
X92394629Y-125461868D01*
X92250000Y-125811033D01*
X80650000Y-125811033D01*
X80650000Y-122927669D01*
X81075232Y-123954268D01*
X81349044Y-124228080D01*
X81394629Y-124338132D01*
X81661868Y-124605371D01*
X81771920Y-124650956D01*
X82045732Y-124924768D01*
X83313752Y-125450000D01*
X84686248Y-125450000D01*
X85954268Y-124924768D01*
X86228080Y-124650956D01*
X86338132Y-124605371D01*
X86605371Y-124338132D01*
X86650956Y-124228080D01*
X86924768Y-123954268D01*
X87025519Y-123711033D01*
X104400000Y-123711033D01*
X104400000Y-124088967D01*
X104544629Y-124438132D01*
X104811868Y-124705371D01*
X105161033Y-124850000D01*
X105538967Y-124850000D01*
X105888132Y-124705371D01*
X106155371Y-124438132D01*
X106300000Y-124088967D01*
X106300000Y-123711033D01*
X106155371Y-123361868D01*
X105888132Y-123094629D01*
X105538967Y-122950000D01*
X105161033Y-122950000D01*
X104811868Y-123094629D01*
X104544629Y-123361868D01*
X104400000Y-123711033D01*
X87025519Y-123711033D01*
X87450000Y-122686248D01*
X87450000Y-122261033D01*
X110900000Y-122261033D01*
X110900000Y-122638967D01*
X111044629Y-122988132D01*
X111311868Y-123255371D01*
X111661033Y-123400000D01*
X112038967Y-123400000D01*
X112388132Y-123255371D01*
X112655371Y-122988132D01*
X112800000Y-122638967D01*
X112800000Y-122261033D01*
X112655371Y-121911868D01*
X112388132Y-121644629D01*
X112038967Y-121500000D01*
X111661033Y-121500000D01*
X111311868Y-121644629D01*
X111044629Y-121911868D01*
X110900000Y-122261033D01*
X87450000Y-122261033D01*
X87450000Y-121993503D01*
X87461868Y-122005371D01*
X87811033Y-122150000D01*
X88188967Y-122150000D01*
X88538132Y-122005371D01*
X88805371Y-121738132D01*
X88950000Y-121388967D01*
X88950000Y-121011033D01*
X88805371Y-120661868D01*
X88538132Y-120394629D01*
X88188967Y-120250000D01*
X87811033Y-120250000D01*
X87461868Y-120394629D01*
X87194629Y-120661868D01*
X87187305Y-120679550D01*
X86924768Y-120045732D01*
X86690069Y-119811033D01*
X92250000Y-119811033D01*
X92250000Y-120188967D01*
X92394629Y-120538132D01*
X92661868Y-120805371D01*
X93011033Y-120950000D01*
X93388967Y-120950000D01*
X93738132Y-120805371D01*
X94005371Y-120538132D01*
X94150000Y-120188967D01*
X94150000Y-119811033D01*
X94005371Y-119461868D01*
X93738132Y-119194629D01*
X93388967Y-119050000D01*
X93011033Y-119050000D01*
X92661868Y-119194629D01*
X92394629Y-119461868D01*
X92250000Y-119811033D01*
X86690069Y-119811033D01*
X86650956Y-119771920D01*
X86605371Y-119661868D01*
X86338132Y-119394629D01*
X86228080Y-119349044D01*
X85954268Y-119075232D01*
X84927669Y-118650000D01*
X113674695Y-118650000D01*
X113087836Y-119236860D01*
X113087836Y-119236860D01*
G37*
X113087836Y-119236860D02*
X113027306Y-119277305D01*
X112986860Y-119337836D01*
X112986858Y-119337838D01*
X112937950Y-119411033D01*
X112867065Y-119517119D01*
X112825000Y-119728596D01*
X112825000Y-119728600D01*
X112824281Y-119732216D01*
X112744629Y-119811868D01*
X112600000Y-120161033D01*
X112600000Y-120538967D01*
X112744629Y-120888132D01*
X113011868Y-121155371D01*
X113361033Y-121300000D01*
X113738967Y-121300000D01*
X114088132Y-121155371D01*
X114313282Y-120930221D01*
X114361033Y-120950000D01*
X114738967Y-120950000D01*
X115088132Y-120805371D01*
X115355371Y-120538132D01*
X115500000Y-120188967D01*
X115500000Y-119811033D01*
X115443653Y-119675000D01*
X117131497Y-119675000D01*
X117155134Y-119698637D01*
X117150000Y-119711033D01*
X117150000Y-120088967D01*
X117294629Y-120438132D01*
X117561868Y-120705371D01*
X117911033Y-120850000D01*
X118288967Y-120850000D01*
X118638132Y-120705371D01*
X118718503Y-120625000D01*
X120549696Y-120625000D01*
X120925001Y-121000306D01*
X120925001Y-121081498D01*
X120688132Y-120844629D01*
X120338967Y-120700000D01*
X119961033Y-120700000D01*
X119611868Y-120844629D01*
X119550000Y-120906497D01*
X119488132Y-120844629D01*
X119138967Y-120700000D01*
X118761033Y-120700000D01*
X118411868Y-120844629D01*
X118144629Y-121111868D01*
X118000000Y-121461033D01*
X118000000Y-121838967D01*
X118144629Y-122188132D01*
X118411868Y-122455371D01*
X118761033Y-122600000D01*
X119138967Y-122600000D01*
X119300000Y-122533298D01*
X119300000Y-122731853D01*
X119002313Y-122855159D01*
X118755159Y-123102313D01*
X118621400Y-123425236D01*
X118621400Y-123774764D01*
X118755159Y-124097687D01*
X119002313Y-124344841D01*
X119300001Y-124468147D01*
X119300001Y-124616281D01*
X119300000Y-124616286D01*
X119300000Y-124897919D01*
X119158156Y-125039763D01*
X119087185Y-125087184D01*
X119039764Y-125158155D01*
X118899319Y-125368347D01*
X118833348Y-125700000D01*
X118850001Y-125783718D01*
X118850000Y-126550000D01*
X115983713Y-126550000D01*
X115899999Y-126533348D01*
X115816285Y-126550000D01*
X115568347Y-126599318D01*
X115287184Y-126787184D01*
X115239759Y-126858160D01*
X115203292Y-126894628D01*
X114961868Y-126994629D01*
X114694629Y-127261868D01*
X114550000Y-127611033D01*
X114550000Y-127988967D01*
X114694629Y-128338132D01*
X114961868Y-128605371D01*
X115083562Y-128655778D01*
X113150000Y-130589340D01*
X113150000Y-130391142D01*
X112990147Y-130005223D01*
X112694777Y-129709853D01*
X112308858Y-129550000D01*
X111891142Y-129550000D01*
X111505223Y-129709853D01*
X111209853Y-130005223D01*
X111050000Y-130391142D01*
X111050000Y-130808858D01*
X111209853Y-131194777D01*
X111505223Y-131490147D01*
X111891142Y-131650000D01*
X112089340Y-131650000D01*
X105489341Y-138250000D01*
X93973864Y-138250000D01*
X93899999Y-138235307D01*
X93826134Y-138250000D01*
X93607365Y-138293516D01*
X93359280Y-138459280D01*
X93317438Y-138521902D01*
X90541906Y-141297435D01*
X90479280Y-141339280D01*
X90313516Y-141587366D01*
X90292874Y-141691142D01*
X90255307Y-141880000D01*
X90270000Y-141953865D01*
X90270001Y-144205430D01*
X90255286Y-144211525D01*
X89875525Y-144591286D01*
X89670000Y-145087468D01*
X89670000Y-145624532D01*
X89875525Y-146120714D01*
X90255286Y-146500475D01*
X90751468Y-146706000D01*
X91288532Y-146706000D01*
X91784714Y-146500475D01*
X92163000Y-146122189D01*
X92541286Y-146500475D01*
X93037468Y-146706000D01*
X93574532Y-146706000D01*
X94070714Y-146500475D01*
X94450475Y-146120714D01*
X94656000Y-145624532D01*
X94656000Y-145087468D01*
X94450475Y-144591286D01*
X94070714Y-144211525D01*
X93574532Y-144006000D01*
X93037468Y-144006000D01*
X92541286Y-144211525D01*
X92163000Y-144589811D01*
X91784714Y-144211525D01*
X91770000Y-144205430D01*
X91770000Y-142190659D01*
X94210660Y-139750000D01*
X104589341Y-139750000D01*
X101971906Y-142367435D01*
X101909280Y-142409280D01*
X101743516Y-142657366D01*
X101722942Y-142760798D01*
X101685307Y-142950000D01*
X101700000Y-143023865D01*
X101700001Y-144205430D01*
X101685286Y-144211525D01*
X101305525Y-144591286D01*
X101100000Y-145087468D01*
X101100000Y-145624532D01*
X101305525Y-146120714D01*
X101685286Y-146500475D01*
X102181468Y-146706000D01*
X102718532Y-146706000D01*
X103214714Y-146500475D01*
X103593000Y-146122189D01*
X103971286Y-146500475D01*
X104467468Y-146706000D01*
X105004532Y-146706000D01*
X105500714Y-146500475D01*
X105753000Y-146248189D01*
X106005286Y-146500475D01*
X106501468Y-146706000D01*
X107038532Y-146706000D01*
X107534714Y-146500475D01*
X107913000Y-146122189D01*
X108291286Y-146500475D01*
X108787468Y-146706000D01*
X109324532Y-146706000D01*
X109820714Y-146500475D01*
X110200475Y-146120714D01*
X110406000Y-145624532D01*
X110406000Y-145087468D01*
X110200475Y-144591286D01*
X109820714Y-144211525D01*
X109324532Y-144006000D01*
X108787468Y-144006000D01*
X108291286Y-144211525D01*
X107913000Y-144589811D01*
X107534714Y-144211525D01*
X107520000Y-144205430D01*
X107520000Y-143958088D01*
X111708000Y-143958088D01*
X111708000Y-144721912D01*
X112000303Y-145427593D01*
X112540407Y-145967697D01*
X113246088Y-146260000D01*
X114009912Y-146260000D01*
X114715593Y-145967697D01*
X115255697Y-145427593D01*
X115548000Y-144721912D01*
X115548000Y-143958088D01*
X115255697Y-143252407D01*
X114715593Y-142712303D01*
X114009912Y-142420000D01*
X113246088Y-142420000D01*
X112540407Y-142712303D01*
X112000303Y-143252407D01*
X111708000Y-143958088D01*
X107520000Y-143958088D01*
X107520000Y-139540659D01*
X117110660Y-129950000D01*
X117673170Y-129950000D01*
X117659281Y-129959280D01*
X117515300Y-130174764D01*
X117493517Y-130207365D01*
X117435307Y-130500000D01*
X117450001Y-130573870D01*
X117450000Y-144205430D01*
X117435286Y-144211525D01*
X117055525Y-144591286D01*
X116850000Y-145087468D01*
X116850000Y-145624532D01*
X117055525Y-146120714D01*
X117435286Y-146500475D01*
X117931468Y-146706000D01*
X118468532Y-146706000D01*
X118964714Y-146500475D01*
X119343000Y-146122189D01*
X119721286Y-146500475D01*
X120217468Y-146706000D01*
X120754532Y-146706000D01*
X121250714Y-146500475D01*
X121503000Y-146248189D01*
X121755286Y-146500475D01*
X122251468Y-146706000D01*
X122788532Y-146706000D01*
X123284714Y-146500475D01*
X123663000Y-146122189D01*
X124041286Y-146500475D01*
X124537468Y-146706000D01*
X125074532Y-146706000D01*
X125570714Y-146500475D01*
X125950475Y-146120714D01*
X126156000Y-145624532D01*
X126156000Y-145087468D01*
X125950475Y-144591286D01*
X125570714Y-144211525D01*
X125074532Y-144006000D01*
X124537468Y-144006000D01*
X124041286Y-144211525D01*
X123663000Y-144589811D01*
X123284714Y-144211525D01*
X122788532Y-144006000D01*
X122251468Y-144006000D01*
X122211754Y-144022450D01*
X122147392Y-143958088D01*
X127458000Y-143958088D01*
X127458000Y-144721912D01*
X127750303Y-145427593D01*
X128290407Y-145967697D01*
X128996088Y-146260000D01*
X129759912Y-146260000D01*
X130465593Y-145967697D01*
X131005697Y-145427593D01*
X131298000Y-144721912D01*
X131298000Y-143958088D01*
X131005697Y-143252407D01*
X130465593Y-142712303D01*
X129759912Y-142420000D01*
X128996088Y-142420000D01*
X128290407Y-142712303D01*
X127750303Y-143252407D01*
X127458000Y-143958088D01*
X122147392Y-143958088D01*
X121827142Y-143637838D01*
X121786695Y-143577305D01*
X121546881Y-143417065D01*
X121335404Y-143375000D01*
X121335400Y-143375000D01*
X121264000Y-143360798D01*
X121192600Y-143375000D01*
X119500305Y-143375000D01*
X119325000Y-143199696D01*
X119325000Y-134300304D01*
X121347387Y-132277918D01*
X121377306Y-132322695D01*
X121437837Y-132363141D01*
X133225000Y-144150305D01*
X133225000Y-144195075D01*
X133185286Y-144211525D01*
X132805525Y-144591286D01*
X132600000Y-145087468D01*
X132600000Y-145624532D01*
X132805525Y-146120714D01*
X133185286Y-146500475D01*
X133681468Y-146706000D01*
X134218532Y-146706000D01*
X134714714Y-146500475D01*
X135093000Y-146122189D01*
X135471286Y-146500475D01*
X135967468Y-146706000D01*
X136504532Y-146706000D01*
X137000714Y-146500475D01*
X137253000Y-146248189D01*
X137505286Y-146500475D01*
X138001468Y-146706000D01*
X138538532Y-146706000D01*
X139034714Y-146500475D01*
X139413000Y-146122189D01*
X139791286Y-146500475D01*
X140287468Y-146706000D01*
X140824532Y-146706000D01*
X141320714Y-146500475D01*
X141700475Y-146120714D01*
X141906000Y-145624532D01*
X141906000Y-145087468D01*
X141700475Y-144591286D01*
X141320714Y-144211525D01*
X140870402Y-144025000D01*
X147343696Y-144025000D01*
X148366450Y-145047754D01*
X148350000Y-145087468D01*
X148350000Y-145624532D01*
X148555525Y-146120714D01*
X148935286Y-146500475D01*
X149431468Y-146706000D01*
X149968532Y-146706000D01*
X150464714Y-146500475D01*
X150843000Y-146122189D01*
X151221286Y-146500475D01*
X151717468Y-146706000D01*
X152254532Y-146706000D01*
X152750714Y-146500475D01*
X153130475Y-146120714D01*
X153336000Y-145624532D01*
X153336000Y-145087468D01*
X153130475Y-144591286D01*
X152750714Y-144211525D01*
X152254532Y-144006000D01*
X151717468Y-144006000D01*
X151221286Y-144211525D01*
X150843000Y-144589811D01*
X150464714Y-144211525D01*
X149968532Y-144006000D01*
X149431468Y-144006000D01*
X149391754Y-144022450D01*
X148207142Y-142837838D01*
X148166695Y-142777305D01*
X147926881Y-142617065D01*
X147715404Y-142575000D01*
X147715400Y-142575000D01*
X147644000Y-142560798D01*
X147572600Y-142575000D01*
X134700304Y-142575000D01*
X123725000Y-131599696D01*
X123725000Y-130934229D01*
X123771400Y-130925000D01*
X125992208Y-130925000D01*
X126105159Y-131197687D01*
X126352313Y-131444841D01*
X126662168Y-131573187D01*
X126755159Y-131797687D01*
X127002313Y-132044841D01*
X127325236Y-132178600D01*
X127674764Y-132178600D01*
X127718115Y-132160643D01*
X127802313Y-132244841D01*
X128125236Y-132378600D01*
X128474764Y-132378600D01*
X128797687Y-132244841D01*
X129044841Y-131997687D01*
X129178600Y-131674764D01*
X129178600Y-131471523D01*
X144710000Y-131471523D01*
X144710000Y-132028477D01*
X144923137Y-132543037D01*
X145316963Y-132936863D01*
X145831523Y-133150000D01*
X146388477Y-133150000D01*
X146903037Y-132936863D01*
X147127550Y-132712350D01*
X147829071Y-132712350D01*
X147893942Y-132960755D01*
X148414829Y-133157923D01*
X148971519Y-133140748D01*
X149406058Y-132960755D01*
X149470929Y-132712350D01*
X148650000Y-131891421D01*
X147829071Y-132712350D01*
X147127550Y-132712350D01*
X147296863Y-132543037D01*
X147375712Y-132352677D01*
X147439245Y-132506058D01*
X147687650Y-132570929D01*
X148508579Y-131750000D01*
X147687650Y-130929071D01*
X147439245Y-130993942D01*
X147378573Y-131154229D01*
X147296863Y-130956963D01*
X147127550Y-130787650D01*
X147829071Y-130787650D01*
X148650000Y-131608579D01*
X149470929Y-130787650D01*
X149406058Y-130539245D01*
X148885171Y-130342077D01*
X148328481Y-130359252D01*
X147893942Y-130539245D01*
X147829071Y-130787650D01*
X147127550Y-130787650D01*
X146903037Y-130563137D01*
X146388477Y-130350000D01*
X145831523Y-130350000D01*
X145316963Y-130563137D01*
X144923137Y-130956963D01*
X144710000Y-131471523D01*
X129178600Y-131471523D01*
X129178600Y-131325236D01*
X129150000Y-131256189D01*
X129150000Y-130083714D01*
X129166652Y-130000000D01*
X129139234Y-129862162D01*
X129100682Y-129668347D01*
X128912816Y-129387184D01*
X128841845Y-129339763D01*
X127102081Y-127600000D01*
X129502082Y-125200000D01*
X130619612Y-125200000D01*
X130861033Y-125300000D01*
X131238967Y-125300000D01*
X131588132Y-125155371D01*
X131855371Y-124888132D01*
X132000000Y-124538967D01*
X132000000Y-124325000D01*
X133878600Y-124325000D01*
X133950000Y-124339202D01*
X134021400Y-124325000D01*
X134021404Y-124325000D01*
X134232881Y-124282935D01*
X134472695Y-124122695D01*
X134513143Y-124062161D01*
X134700000Y-123875304D01*
X134700000Y-124238967D01*
X134757802Y-124378512D01*
X134688967Y-124350000D01*
X134311033Y-124350000D01*
X133961868Y-124494629D01*
X133694629Y-124761868D01*
X133550000Y-125111033D01*
X133550000Y-125488967D01*
X133694629Y-125838132D01*
X133961868Y-126105371D01*
X134311033Y-126250000D01*
X134688967Y-126250000D01*
X135038132Y-126105371D01*
X135305371Y-125838132D01*
X135450000Y-125488967D01*
X135450000Y-125111033D01*
X135392198Y-124971488D01*
X135461033Y-125000000D01*
X135838967Y-125000000D01*
X136188132Y-124855371D01*
X136455371Y-124588132D01*
X136600000Y-124238967D01*
X136600000Y-123861033D01*
X136455371Y-123511868D01*
X136405000Y-123461497D01*
X136405000Y-123027664D01*
X136719659Y-123158000D01*
X137180341Y-123158000D01*
X137585000Y-122990385D01*
X137989659Y-123158000D01*
X138450341Y-123158000D01*
X138855000Y-122990385D01*
X139259659Y-123158000D01*
X139720341Y-123158000D01*
X140145955Y-122981705D01*
X140471705Y-122655955D01*
X140648000Y-122230341D01*
X140648000Y-121769659D01*
X140524509Y-121471523D01*
X144710000Y-121471523D01*
X144710000Y-122028477D01*
X144923137Y-122543037D01*
X145316963Y-122936863D01*
X145831523Y-123150000D01*
X146388477Y-123150000D01*
X146903037Y-122936863D01*
X147127550Y-122712350D01*
X147829071Y-122712350D01*
X147893942Y-122960755D01*
X148414829Y-123157923D01*
X148971519Y-123140748D01*
X149406058Y-122960755D01*
X149470929Y-122712350D01*
X148650000Y-121891421D01*
X147829071Y-122712350D01*
X147127550Y-122712350D01*
X147296863Y-122543037D01*
X147375712Y-122352677D01*
X147439245Y-122506058D01*
X147687650Y-122570929D01*
X148508579Y-121750000D01*
X148791421Y-121750000D01*
X149612350Y-122570929D01*
X149860755Y-122506058D01*
X149921427Y-122345771D01*
X150003137Y-122543037D01*
X150396963Y-122936863D01*
X150911523Y-123150000D01*
X151468477Y-123150000D01*
X151983037Y-122936863D01*
X152376863Y-122543037D01*
X152460000Y-122342326D01*
X152543137Y-122543037D01*
X152936963Y-122936863D01*
X153451523Y-123150000D01*
X154008477Y-123150000D01*
X154523037Y-122936863D01*
X154916863Y-122543037D01*
X155130000Y-122028477D01*
X155130000Y-121471523D01*
X154916863Y-120956963D01*
X154523037Y-120563137D01*
X154008477Y-120350000D01*
X153451523Y-120350000D01*
X152936963Y-120563137D01*
X152543137Y-120956963D01*
X152460000Y-121157674D01*
X152376863Y-120956963D01*
X151983037Y-120563137D01*
X151468477Y-120350000D01*
X150911523Y-120350000D01*
X150396963Y-120563137D01*
X150003137Y-120956963D01*
X149924288Y-121147323D01*
X149860755Y-120993942D01*
X149612350Y-120929071D01*
X148791421Y-121750000D01*
X148508579Y-121750000D01*
X147687650Y-120929071D01*
X147439245Y-120993942D01*
X147378573Y-121154229D01*
X147296863Y-120956963D01*
X147127550Y-120787650D01*
X147829071Y-120787650D01*
X148650000Y-121608579D01*
X149470929Y-120787650D01*
X149406058Y-120539245D01*
X148885171Y-120342077D01*
X148328481Y-120359252D01*
X147893942Y-120539245D01*
X147829071Y-120787650D01*
X147127550Y-120787650D01*
X146903037Y-120563137D01*
X146388477Y-120350000D01*
X145831523Y-120350000D01*
X145316963Y-120563137D01*
X144923137Y-120956963D01*
X144710000Y-121471523D01*
X140524509Y-121471523D01*
X140480385Y-121365000D01*
X140648000Y-120960341D01*
X140648000Y-120499659D01*
X140471705Y-120074045D01*
X140145955Y-119748295D01*
X139720341Y-119572000D01*
X139259659Y-119572000D01*
X138835071Y-119747870D01*
X138830596Y-119719457D01*
X138397399Y-119562715D01*
X137937195Y-119583682D01*
X137609404Y-119719457D01*
X137585000Y-119874394D01*
X137560596Y-119719457D01*
X137127399Y-119562715D01*
X136667195Y-119583682D01*
X136339404Y-119719457D01*
X136334929Y-119747870D01*
X135910341Y-119572000D01*
X135449659Y-119572000D01*
X135025071Y-119747870D01*
X135020596Y-119719457D01*
X134587399Y-119562715D01*
X134127195Y-119583682D01*
X133799404Y-119719457D01*
X133764225Y-119942803D01*
X134410000Y-120588579D01*
X134424143Y-120574437D01*
X134522000Y-120672294D01*
X134522000Y-120787706D01*
X134467706Y-120842000D01*
X134352294Y-120842000D01*
X134254437Y-120744143D01*
X134268579Y-120730000D01*
X133622803Y-120084225D01*
X133399457Y-120119404D01*
X133242715Y-120552601D01*
X133263682Y-121012805D01*
X133399457Y-121340596D01*
X133427870Y-121345071D01*
X133252000Y-121769659D01*
X133252000Y-122230341D01*
X133428295Y-122655955D01*
X133647340Y-122875000D01*
X131678502Y-122875000D01*
X131678600Y-122874764D01*
X131678600Y-122525236D01*
X131544841Y-122202313D01*
X131297687Y-121955159D01*
X130974764Y-121821400D01*
X130625236Y-121821400D01*
X130302313Y-121955159D01*
X130282472Y-121975000D01*
X129900304Y-121975000D01*
X129028600Y-121103296D01*
X129028600Y-121075236D01*
X128894841Y-120752313D01*
X128647687Y-120505159D01*
X128574877Y-120475000D01*
X128999696Y-120475000D01*
X129100000Y-120575304D01*
X129100000Y-120688967D01*
X129244629Y-121038132D01*
X129511868Y-121305371D01*
X129861033Y-121450000D01*
X130238967Y-121450000D01*
X130588132Y-121305371D01*
X130850000Y-121043503D01*
X130850000Y-121288967D01*
X130994629Y-121638132D01*
X131261868Y-121905371D01*
X131611033Y-122050000D01*
X131988967Y-122050000D01*
X132338132Y-121905371D01*
X132605371Y-121638132D01*
X132750000Y-121288967D01*
X132750000Y-120911033D01*
X132605371Y-120561868D01*
X132338132Y-120294629D01*
X131988967Y-120150000D01*
X131611033Y-120150000D01*
X131261868Y-120294629D01*
X131000000Y-120556497D01*
X131000000Y-120311033D01*
X130855371Y-119961868D01*
X130593016Y-119699513D01*
X130794841Y-119497687D01*
X130928600Y-119174764D01*
X130928600Y-118825236D01*
X130856015Y-118650000D01*
X179749721Y-118650000D01*
X179605223Y-118709853D01*
X179309853Y-119005223D01*
X179150000Y-119391142D01*
X179150000Y-119808858D01*
X179309853Y-120194777D01*
X179605223Y-120490147D01*
X179991142Y-120650000D01*
X180408858Y-120650000D01*
X180794777Y-120490147D01*
X181090147Y-120194777D01*
X181250000Y-119808858D01*
X181250000Y-119391142D01*
X181090147Y-119005223D01*
X180794777Y-118709853D01*
X180650279Y-118650000D01*
X183850000Y-118650000D01*
X183850000Y-125937868D01*
X181315686Y-128472183D01*
X181138132Y-128294629D01*
X180788967Y-128150000D01*
X180411033Y-128150000D01*
X180061868Y-128294629D01*
X179794629Y-128561868D01*
X179650000Y-128911033D01*
X179650000Y-129288967D01*
X179794629Y-129638132D01*
X180061868Y-129905371D01*
X180411033Y-130050000D01*
X180788967Y-130050000D01*
X180850000Y-130024719D01*
X180850000Y-131850000D01*
X179650000Y-131850000D01*
X179650000Y-129873864D01*
X179664693Y-129799999D01*
X179644802Y-129700000D01*
X179606484Y-129507365D01*
X179440720Y-129259280D01*
X179378100Y-129217439D01*
X178582565Y-128421906D01*
X178540720Y-128359280D01*
X178292635Y-128193516D01*
X178073866Y-128150000D01*
X178073865Y-128150000D01*
X178000000Y-128135307D01*
X177926135Y-128150000D01*
X172310660Y-128150000D01*
X172220601Y-128059942D01*
X172250000Y-127988967D01*
X172250000Y-127611033D01*
X172105371Y-127261868D01*
X171838132Y-126994629D01*
X171488967Y-126850000D01*
X171111033Y-126850000D01*
X170761868Y-126994629D01*
X170494629Y-127261868D01*
X170350000Y-127611033D01*
X170350000Y-127988967D01*
X170494629Y-128338132D01*
X170579706Y-128423209D01*
X170593516Y-128492635D01*
X170759280Y-128740720D01*
X170821905Y-128782564D01*
X171417437Y-129378096D01*
X171459280Y-129440720D01*
X171707365Y-129606484D01*
X171926134Y-129650000D01*
X171999999Y-129664693D01*
X172073864Y-129650000D01*
X177206497Y-129650000D01*
X176994629Y-129861868D01*
X176850000Y-130211033D01*
X176850000Y-130588967D01*
X176994629Y-130938132D01*
X177261868Y-131205371D01*
X177611033Y-131350000D01*
X177689340Y-131350000D01*
X177750001Y-131410661D01*
X177750001Y-131850000D01*
X166150000Y-131850000D01*
X166150000Y-128411033D01*
X168550000Y-128411033D01*
X168550000Y-128788967D01*
X168694629Y-129138132D01*
X168961868Y-129405371D01*
X169311033Y-129550000D01*
X169688967Y-129550000D01*
X170038132Y-129405371D01*
X170305371Y-129138132D01*
X170450000Y-128788967D01*
X170450000Y-128411033D01*
X170305371Y-128061868D01*
X170038132Y-127794629D01*
X169688967Y-127650000D01*
X169311033Y-127650000D01*
X168961868Y-127794629D01*
X168694629Y-128061868D01*
X168550000Y-128411033D01*
X166150000Y-128411033D01*
X166150000Y-125411033D01*
X170350000Y-125411033D01*
X170350000Y-125788967D01*
X170494629Y-126138132D01*
X170761868Y-126405371D01*
X171111033Y-126550000D01*
X171488967Y-126550000D01*
X171838132Y-126405371D01*
X171893503Y-126350000D01*
X174389341Y-126350000D01*
X175217437Y-127178097D01*
X175259280Y-127240720D01*
X175507365Y-127406484D01*
X175726134Y-127450000D01*
X175726135Y-127450000D01*
X175800000Y-127464693D01*
X175873865Y-127450000D01*
X176506497Y-127450000D01*
X176561868Y-127505371D01*
X176911033Y-127650000D01*
X177288967Y-127650000D01*
X177638132Y-127505371D01*
X177893503Y-127250000D01*
X177988967Y-127250000D01*
X178338132Y-127105371D01*
X178605371Y-126838132D01*
X178750000Y-126488967D01*
X178750000Y-126111033D01*
X179450000Y-126111033D01*
X179450000Y-126488967D01*
X179594629Y-126838132D01*
X179861868Y-127105371D01*
X180211033Y-127250000D01*
X180588967Y-127250000D01*
X180938132Y-127105371D01*
X181205371Y-126838132D01*
X181350000Y-126488967D01*
X181350000Y-126111033D01*
X181205371Y-125761868D01*
X180938132Y-125494629D01*
X180588967Y-125350000D01*
X180211033Y-125350000D01*
X179861868Y-125494629D01*
X179594629Y-125761868D01*
X179450000Y-126111033D01*
X178750000Y-126111033D01*
X178605371Y-125761868D01*
X178338132Y-125494629D01*
X177988967Y-125350000D01*
X177673865Y-125350000D01*
X177600000Y-125335307D01*
X177526135Y-125350000D01*
X176110660Y-125350000D01*
X175597378Y-124836718D01*
X175700000Y-124588967D01*
X175700000Y-124211033D01*
X175555371Y-123861868D01*
X175288132Y-123594629D01*
X174938967Y-123450000D01*
X174561033Y-123450000D01*
X174211868Y-123594629D01*
X173944629Y-123861868D01*
X173800000Y-124211033D01*
X173800000Y-124450000D01*
X172693503Y-124450000D01*
X172438132Y-124194629D01*
X172088967Y-124050000D01*
X171711033Y-124050000D01*
X171361868Y-124194629D01*
X171094629Y-124461868D01*
X170997166Y-124697166D01*
X170761868Y-124794629D01*
X170494629Y-125061868D01*
X170350000Y-125411033D01*
X166150000Y-125411033D01*
X166150000Y-120991142D01*
X167450000Y-120991142D01*
X167450000Y-121408858D01*
X167609853Y-121794777D01*
X167905223Y-122090147D01*
X168291142Y-122250000D01*
X168550000Y-122250000D01*
X168550000Y-122488967D01*
X168694629Y-122838132D01*
X168961868Y-123105371D01*
X169311033Y-123250000D01*
X169688967Y-123250000D01*
X170038132Y-123105371D01*
X170305371Y-122838132D01*
X170450000Y-122488967D01*
X170450000Y-122111033D01*
X170305371Y-121761868D01*
X170038132Y-121494629D01*
X169688967Y-121350000D01*
X169550000Y-121350000D01*
X169550000Y-120991142D01*
X169390147Y-120605223D01*
X169094777Y-120309853D01*
X168708858Y-120150000D01*
X168291142Y-120150000D01*
X167905223Y-120309853D01*
X167609853Y-120605223D01*
X167450000Y-120991142D01*
X166150000Y-120991142D01*
X166150000Y-120000000D01*
X166138582Y-119942597D01*
X166106066Y-119893934D01*
X166057403Y-119861418D01*
X166000000Y-119850000D01*
X157000000Y-119850000D01*
X156942597Y-119861418D01*
X156893934Y-119893934D01*
X156861418Y-119942597D01*
X156850000Y-120000000D01*
X156850000Y-131850000D01*
X155130000Y-131850000D01*
X155130000Y-131471523D01*
X154916863Y-130956963D01*
X154523037Y-130563137D01*
X154008477Y-130350000D01*
X153451523Y-130350000D01*
X152936963Y-130563137D01*
X152543137Y-130956963D01*
X152460000Y-131157674D01*
X152376863Y-130956963D01*
X151983037Y-130563137D01*
X151468477Y-130350000D01*
X150911523Y-130350000D01*
X150396963Y-130563137D01*
X150003137Y-130956963D01*
X149924288Y-131147323D01*
X149860755Y-130993942D01*
X149612350Y-130929071D01*
X148791421Y-131750000D01*
X149612350Y-132570929D01*
X149860755Y-132506058D01*
X149921427Y-132345771D01*
X150003137Y-132543037D01*
X150396963Y-132936863D01*
X150911523Y-133150000D01*
X151468477Y-133150000D01*
X151983037Y-132936863D01*
X152376863Y-132543037D01*
X152460000Y-132342326D01*
X152543137Y-132543037D01*
X152936963Y-132936863D01*
X153451523Y-133150000D01*
X153850000Y-133150000D01*
X153850000Y-149241335D01*
X153631912Y-149151000D01*
X152868088Y-149151000D01*
X152162407Y-149443303D01*
X151622303Y-149983407D01*
X151330000Y-150689088D01*
X151330000Y-151452912D01*
X151622303Y-152158593D01*
X151688110Y-152224400D01*
X151015355Y-152224400D01*
X150178976Y-152570839D01*
X149538839Y-153210976D01*
X149192400Y-154047355D01*
X149192400Y-154952645D01*
X149538839Y-155789024D01*
X150178976Y-156429161D01*
X151015355Y-156775600D01*
X151920645Y-156775600D01*
X152757024Y-156429161D01*
X153397161Y-155789024D01*
X153743600Y-154952645D01*
X153743600Y-154047355D01*
X153397161Y-153210976D01*
X153177185Y-152991000D01*
X153631912Y-152991000D01*
X153850000Y-152900665D01*
X153850000Y-159350000D01*
X84927669Y-159350000D01*
X85954268Y-158924768D01*
X86228080Y-158650956D01*
X86338132Y-158605371D01*
X86605371Y-158338132D01*
X86650956Y-158228080D01*
X86924768Y-157954268D01*
X87450000Y-156686248D01*
X87450000Y-155313752D01*
X86924768Y-154045732D01*
X86650956Y-153771920D01*
X86605371Y-153661868D01*
X86338132Y-153394629D01*
X86228080Y-153349044D01*
X85954268Y-153075232D01*
X84686248Y-152550000D01*
X83313752Y-152550000D01*
X82045732Y-153075232D01*
X81771920Y-153349044D01*
X81661868Y-153394629D01*
X81394629Y-153661868D01*
X81349044Y-153771920D01*
X81075232Y-154045732D01*
X80650000Y-155072331D01*
X80650000Y-150762500D01*
X80900000Y-150762500D01*
X80900000Y-151579293D01*
X80998957Y-151818195D01*
X81181805Y-152001043D01*
X81420707Y-152100000D01*
X82237500Y-152100000D01*
X82400000Y-151937500D01*
X82400000Y-150600000D01*
X82600000Y-150600000D01*
X82600000Y-151937500D01*
X82762500Y-152100000D01*
X83579293Y-152100000D01*
X83818195Y-152001043D01*
X84001043Y-151818195D01*
X84100000Y-151579293D01*
X84100000Y-150762500D01*
X84026588Y-150689088D01*
X87830000Y-150689088D01*
X87830000Y-151452912D01*
X88122303Y-152158593D01*
X88662407Y-152698697D01*
X89368088Y-152991000D01*
X89818815Y-152991000D01*
X89598839Y-153210976D01*
X89252400Y-154047355D01*
X89252400Y-154952645D01*
X89598839Y-155789024D01*
X90238976Y-156429161D01*
X91075355Y-156775600D01*
X91980645Y-156775600D01*
X92817024Y-156429161D01*
X93457161Y-155789024D01*
X93803600Y-154952645D01*
X93803600Y-154047355D01*
X93457161Y-153210976D01*
X93132369Y-152886184D01*
X94553237Y-152886184D01*
X94611984Y-153129406D01*
X95114761Y-153318225D01*
X95651524Y-153300266D01*
X96064016Y-153129406D01*
X96122763Y-152886184D01*
X95338000Y-152101421D01*
X94553237Y-152886184D01*
X93132369Y-152886184D01*
X92817024Y-152570839D01*
X91980645Y-152224400D01*
X91311890Y-152224400D01*
X91377697Y-152158593D01*
X91670000Y-151452912D01*
X91670000Y-151108184D01*
X93537237Y-151108184D01*
X93595984Y-151351406D01*
X94059169Y-151525356D01*
X93979775Y-151736761D01*
X93997734Y-152273524D01*
X94168594Y-152686016D01*
X94411816Y-152744763D01*
X95196579Y-151960000D01*
X95182437Y-151945858D01*
X95323858Y-151804437D01*
X95338000Y-151818579D01*
X95352143Y-151804437D01*
X95493564Y-151945858D01*
X95479421Y-151960000D01*
X96212366Y-152692945D01*
X96225525Y-152724714D01*
X96605286Y-153104475D01*
X97101468Y-153310000D01*
X97638532Y-153310000D01*
X98134714Y-153104475D01*
X98386000Y-152853189D01*
X98637286Y-153104475D01*
X99133468Y-153310000D01*
X99670532Y-153310000D01*
X100166714Y-153104475D01*
X100418000Y-152853189D01*
X100669286Y-153104475D01*
X101165468Y-153310000D01*
X101702532Y-153310000D01*
X102198714Y-153104475D01*
X102417005Y-152886184D01*
X110303237Y-152886184D01*
X110361984Y-153129406D01*
X110864761Y-153318225D01*
X111401524Y-153300266D01*
X111814016Y-153129406D01*
X111872763Y-152886184D01*
X111088000Y-152101421D01*
X110303237Y-152886184D01*
X102417005Y-152886184D01*
X102578475Y-152724714D01*
X102784000Y-152228532D01*
X102784000Y-151691468D01*
X102578475Y-151195286D01*
X102491373Y-151108184D01*
X109287237Y-151108184D01*
X109345984Y-151351406D01*
X109809169Y-151525356D01*
X109729775Y-151736761D01*
X109747734Y-152273524D01*
X109918594Y-152686016D01*
X110161816Y-152744763D01*
X110946579Y-151960000D01*
X110932437Y-151945858D01*
X111073858Y-151804437D01*
X111088000Y-151818579D01*
X111102143Y-151804437D01*
X111243564Y-151945858D01*
X111229421Y-151960000D01*
X111962366Y-152692945D01*
X111975525Y-152724714D01*
X112355286Y-153104475D01*
X112851468Y-153310000D01*
X113388532Y-153310000D01*
X113884714Y-153104475D01*
X114136000Y-152853189D01*
X114387286Y-153104475D01*
X114883468Y-153310000D01*
X115420532Y-153310000D01*
X115916714Y-153104475D01*
X116168000Y-152853189D01*
X116419286Y-153104475D01*
X116915468Y-153310000D01*
X117452532Y-153310000D01*
X117948714Y-153104475D01*
X118167005Y-152886184D01*
X126053237Y-152886184D01*
X126111984Y-153129406D01*
X126614761Y-153318225D01*
X127151524Y-153300266D01*
X127564016Y-153129406D01*
X127622763Y-152886184D01*
X126838000Y-152101421D01*
X126053237Y-152886184D01*
X118167005Y-152886184D01*
X118328475Y-152724714D01*
X118534000Y-152228532D01*
X118534000Y-151691468D01*
X118328475Y-151195286D01*
X118241373Y-151108184D01*
X125037237Y-151108184D01*
X125095984Y-151351406D01*
X125559169Y-151525356D01*
X125479775Y-151736761D01*
X125497734Y-152273524D01*
X125668594Y-152686016D01*
X125911816Y-152744763D01*
X126696579Y-151960000D01*
X126682437Y-151945858D01*
X126823858Y-151804437D01*
X126838000Y-151818579D01*
X126852143Y-151804437D01*
X126993564Y-151945858D01*
X126979421Y-151960000D01*
X127712366Y-152692945D01*
X127725525Y-152724714D01*
X128105286Y-153104475D01*
X128601468Y-153310000D01*
X129138532Y-153310000D01*
X129634714Y-153104475D01*
X129886000Y-152853189D01*
X130137286Y-153104475D01*
X130633468Y-153310000D01*
X131170532Y-153310000D01*
X131666714Y-153104475D01*
X131918000Y-152853189D01*
X132169286Y-153104475D01*
X132665468Y-153310000D01*
X133202532Y-153310000D01*
X133698714Y-153104475D01*
X133917005Y-152886184D01*
X141803237Y-152886184D01*
X141861984Y-153129406D01*
X142364761Y-153318225D01*
X142901524Y-153300266D01*
X143314016Y-153129406D01*
X143372763Y-152886184D01*
X142588000Y-152101421D01*
X141803237Y-152886184D01*
X133917005Y-152886184D01*
X134078475Y-152724714D01*
X134284000Y-152228532D01*
X134284000Y-151691468D01*
X134078475Y-151195286D01*
X133991373Y-151108184D01*
X140787237Y-151108184D01*
X140845984Y-151351406D01*
X141309169Y-151525356D01*
X141229775Y-151736761D01*
X141247734Y-152273524D01*
X141418594Y-152686016D01*
X141661816Y-152744763D01*
X142446579Y-151960000D01*
X142432437Y-151945858D01*
X142573858Y-151804437D01*
X142588000Y-151818579D01*
X142602143Y-151804437D01*
X142743564Y-151945858D01*
X142729421Y-151960000D01*
X143462366Y-152692945D01*
X143475525Y-152724714D01*
X143855286Y-153104475D01*
X144351468Y-153310000D01*
X144888532Y-153310000D01*
X145384714Y-153104475D01*
X145636000Y-152853189D01*
X145887286Y-153104475D01*
X146383468Y-153310000D01*
X146920532Y-153310000D01*
X147416714Y-153104475D01*
X147668000Y-152853189D01*
X147919286Y-153104475D01*
X148415468Y-153310000D01*
X148952532Y-153310000D01*
X149448714Y-153104475D01*
X149828475Y-152724714D01*
X150034000Y-152228532D01*
X150034000Y-151691468D01*
X149828475Y-151195286D01*
X149448714Y-150815525D01*
X148952532Y-150610000D01*
X148951946Y-150610000D01*
X149018000Y-150450532D01*
X149018000Y-149913468D01*
X148812475Y-149417286D01*
X148432714Y-149037525D01*
X147936532Y-148832000D01*
X147399468Y-148832000D01*
X146903286Y-149037525D01*
X146652000Y-149288811D01*
X146400714Y-149037525D01*
X145904532Y-148832000D01*
X145367468Y-148832000D01*
X144871286Y-149037525D01*
X144620000Y-149288811D01*
X144368714Y-149037525D01*
X143872532Y-148832000D01*
X143335468Y-148832000D01*
X142839286Y-149037525D01*
X142459525Y-149417286D01*
X142446366Y-149449055D01*
X141713421Y-150182000D01*
X141727564Y-150196143D01*
X141586143Y-150337564D01*
X141572000Y-150323421D01*
X140787237Y-151108184D01*
X133991373Y-151108184D01*
X133698714Y-150815525D01*
X133202532Y-150610000D01*
X133201946Y-150610000D01*
X133268000Y-150450532D01*
X133268000Y-149958761D01*
X140213775Y-149958761D01*
X140231734Y-150495524D01*
X140402594Y-150908016D01*
X140645816Y-150966763D01*
X141430579Y-150182000D01*
X140645816Y-149397237D01*
X140402594Y-149455984D01*
X140213775Y-149958761D01*
X133268000Y-149958761D01*
X133268000Y-149913468D01*
X133062475Y-149417286D01*
X132901005Y-149255816D01*
X140787237Y-149255816D01*
X141572000Y-150040579D01*
X142356763Y-149255816D01*
X142298016Y-149012594D01*
X141795239Y-148823775D01*
X141258476Y-148841734D01*
X140845984Y-149012594D01*
X140787237Y-149255816D01*
X132901005Y-149255816D01*
X132682714Y-149037525D01*
X132186532Y-148832000D01*
X131649468Y-148832000D01*
X131153286Y-149037525D01*
X130902000Y-149288811D01*
X130650714Y-149037525D01*
X130154532Y-148832000D01*
X129617468Y-148832000D01*
X129121286Y-149037525D01*
X128870000Y-149288811D01*
X128618714Y-149037525D01*
X128122532Y-148832000D01*
X127585468Y-148832000D01*
X127089286Y-149037525D01*
X126709525Y-149417286D01*
X126696366Y-149449055D01*
X125963421Y-150182000D01*
X125977564Y-150196143D01*
X125836143Y-150337564D01*
X125822000Y-150323421D01*
X125037237Y-151108184D01*
X118241373Y-151108184D01*
X117948714Y-150815525D01*
X117452532Y-150610000D01*
X117451946Y-150610000D01*
X117518000Y-150450532D01*
X117518000Y-149958761D01*
X124463775Y-149958761D01*
X124481734Y-150495524D01*
X124652594Y-150908016D01*
X124895816Y-150966763D01*
X125680579Y-150182000D01*
X124895816Y-149397237D01*
X124652594Y-149455984D01*
X124463775Y-149958761D01*
X117518000Y-149958761D01*
X117518000Y-149913468D01*
X117312475Y-149417286D01*
X117151005Y-149255816D01*
X125037237Y-149255816D01*
X125822000Y-150040579D01*
X126606763Y-149255816D01*
X126548016Y-149012594D01*
X126045239Y-148823775D01*
X125508476Y-148841734D01*
X125095984Y-149012594D01*
X125037237Y-149255816D01*
X117151005Y-149255816D01*
X116932714Y-149037525D01*
X116436532Y-148832000D01*
X115899468Y-148832000D01*
X115403286Y-149037525D01*
X115152000Y-149288811D01*
X114900714Y-149037525D01*
X114404532Y-148832000D01*
X113867468Y-148832000D01*
X113371286Y-149037525D01*
X113120000Y-149288811D01*
X112868714Y-149037525D01*
X112372532Y-148832000D01*
X111835468Y-148832000D01*
X111339286Y-149037525D01*
X110959525Y-149417286D01*
X110946366Y-149449055D01*
X110213421Y-150182000D01*
X110227564Y-150196143D01*
X110086143Y-150337564D01*
X110072000Y-150323421D01*
X109287237Y-151108184D01*
X102491373Y-151108184D01*
X102198714Y-150815525D01*
X101702532Y-150610000D01*
X101701946Y-150610000D01*
X101768000Y-150450532D01*
X101768000Y-149958761D01*
X108713775Y-149958761D01*
X108731734Y-150495524D01*
X108902594Y-150908016D01*
X109145816Y-150966763D01*
X109930579Y-150182000D01*
X109145816Y-149397237D01*
X108902594Y-149455984D01*
X108713775Y-149958761D01*
X101768000Y-149958761D01*
X101768000Y-149913468D01*
X101562475Y-149417286D01*
X101401005Y-149255816D01*
X109287237Y-149255816D01*
X110072000Y-150040579D01*
X110856763Y-149255816D01*
X110798016Y-149012594D01*
X110295239Y-148823775D01*
X109758476Y-148841734D01*
X109345984Y-149012594D01*
X109287237Y-149255816D01*
X101401005Y-149255816D01*
X101182714Y-149037525D01*
X100686532Y-148832000D01*
X100149468Y-148832000D01*
X99653286Y-149037525D01*
X99402000Y-149288811D01*
X99150714Y-149037525D01*
X98654532Y-148832000D01*
X98117468Y-148832000D01*
X97621286Y-149037525D01*
X97370000Y-149288811D01*
X97118714Y-149037525D01*
X96622532Y-148832000D01*
X96085468Y-148832000D01*
X95589286Y-149037525D01*
X95209525Y-149417286D01*
X95196366Y-149449055D01*
X94463421Y-150182000D01*
X94477564Y-150196143D01*
X94336143Y-150337564D01*
X94322000Y-150323421D01*
X93537237Y-151108184D01*
X91670000Y-151108184D01*
X91670000Y-150689088D01*
X91377697Y-149983407D01*
X91353051Y-149958761D01*
X92963775Y-149958761D01*
X92981734Y-150495524D01*
X93152594Y-150908016D01*
X93395816Y-150966763D01*
X94180579Y-150182000D01*
X93395816Y-149397237D01*
X93152594Y-149455984D01*
X92963775Y-149958761D01*
X91353051Y-149958761D01*
X90837593Y-149443303D01*
X90384960Y-149255816D01*
X93537237Y-149255816D01*
X94322000Y-150040579D01*
X95106763Y-149255816D01*
X95048016Y-149012594D01*
X94545239Y-148823775D01*
X94008476Y-148841734D01*
X93595984Y-149012594D01*
X93537237Y-149255816D01*
X90384960Y-149255816D01*
X90131912Y-149151000D01*
X89368088Y-149151000D01*
X88662407Y-149443303D01*
X88122303Y-149983407D01*
X87830000Y-150689088D01*
X84026588Y-150689088D01*
X83937500Y-150600000D01*
X82600000Y-150600000D01*
X82400000Y-150600000D01*
X81062500Y-150600000D01*
X80900000Y-150762500D01*
X80650000Y-150762500D01*
X80650000Y-149420707D01*
X80900000Y-149420707D01*
X80900000Y-150237500D01*
X81062500Y-150400000D01*
X82400000Y-150400000D01*
X82400000Y-149062500D01*
X82600000Y-149062500D01*
X82600000Y-150400000D01*
X83937500Y-150400000D01*
X84100000Y-150237500D01*
X84100000Y-149420707D01*
X84001043Y-149181805D01*
X83818195Y-148998957D01*
X83579293Y-148900000D01*
X82762500Y-148900000D01*
X82600000Y-149062500D01*
X82400000Y-149062500D01*
X82237500Y-148900000D01*
X81420707Y-148900000D01*
X81181805Y-148998957D01*
X80998957Y-149181805D01*
X80900000Y-149420707D01*
X80650000Y-149420707D01*
X80650000Y-145311033D01*
X82050000Y-145311033D01*
X82050000Y-145688967D01*
X82194629Y-146038132D01*
X82461868Y-146305371D01*
X82811033Y-146450000D01*
X83188967Y-146450000D01*
X83538132Y-146305371D01*
X83805371Y-146038132D01*
X83950000Y-145688967D01*
X83950000Y-145311033D01*
X83805371Y-144961868D01*
X83538132Y-144694629D01*
X83188967Y-144550000D01*
X82811033Y-144550000D01*
X82461868Y-144694629D01*
X82194629Y-144961868D01*
X82050000Y-145311033D01*
X80650000Y-145311033D01*
X80650000Y-125811033D01*
X92250000Y-125811033D01*
X92250000Y-126188967D01*
X92394629Y-126538132D01*
X92661868Y-126805371D01*
X93011033Y-126950000D01*
X93388967Y-126950000D01*
X93738132Y-126805371D01*
X94005371Y-126538132D01*
X94150000Y-126188967D01*
X94150000Y-126111033D01*
X111050000Y-126111033D01*
X111050000Y-126488967D01*
X111194629Y-126838132D01*
X111461868Y-127105371D01*
X111811033Y-127250000D01*
X112188967Y-127250000D01*
X112538132Y-127105371D01*
X112805371Y-126838132D01*
X112950000Y-126488967D01*
X112950000Y-126111033D01*
X112805371Y-125761868D01*
X112538132Y-125494629D01*
X112188967Y-125350000D01*
X111811033Y-125350000D01*
X111461868Y-125494629D01*
X111194629Y-125761868D01*
X111050000Y-126111033D01*
X94150000Y-126111033D01*
X94150000Y-125811033D01*
X94005371Y-125461868D01*
X93738132Y-125194629D01*
X93388967Y-125050000D01*
X93011033Y-125050000D01*
X92661868Y-125194629D01*
X92394629Y-125461868D01*
X92250000Y-125811033D01*
X80650000Y-125811033D01*
X80650000Y-122927669D01*
X81075232Y-123954268D01*
X81349044Y-124228080D01*
X81394629Y-124338132D01*
X81661868Y-124605371D01*
X81771920Y-124650956D01*
X82045732Y-124924768D01*
X83313752Y-125450000D01*
X84686248Y-125450000D01*
X85954268Y-124924768D01*
X86228080Y-124650956D01*
X86338132Y-124605371D01*
X86605371Y-124338132D01*
X86650956Y-124228080D01*
X86924768Y-123954268D01*
X87025519Y-123711033D01*
X104400000Y-123711033D01*
X104400000Y-124088967D01*
X104544629Y-124438132D01*
X104811868Y-124705371D01*
X105161033Y-124850000D01*
X105538967Y-124850000D01*
X105888132Y-124705371D01*
X106155371Y-124438132D01*
X106300000Y-124088967D01*
X106300000Y-123711033D01*
X106155371Y-123361868D01*
X105888132Y-123094629D01*
X105538967Y-122950000D01*
X105161033Y-122950000D01*
X104811868Y-123094629D01*
X104544629Y-123361868D01*
X104400000Y-123711033D01*
X87025519Y-123711033D01*
X87450000Y-122686248D01*
X87450000Y-122261033D01*
X110900000Y-122261033D01*
X110900000Y-122638967D01*
X111044629Y-122988132D01*
X111311868Y-123255371D01*
X111661033Y-123400000D01*
X112038967Y-123400000D01*
X112388132Y-123255371D01*
X112655371Y-122988132D01*
X112800000Y-122638967D01*
X112800000Y-122261033D01*
X112655371Y-121911868D01*
X112388132Y-121644629D01*
X112038967Y-121500000D01*
X111661033Y-121500000D01*
X111311868Y-121644629D01*
X111044629Y-121911868D01*
X110900000Y-122261033D01*
X87450000Y-122261033D01*
X87450000Y-121993503D01*
X87461868Y-122005371D01*
X87811033Y-122150000D01*
X88188967Y-122150000D01*
X88538132Y-122005371D01*
X88805371Y-121738132D01*
X88950000Y-121388967D01*
X88950000Y-121011033D01*
X88805371Y-120661868D01*
X88538132Y-120394629D01*
X88188967Y-120250000D01*
X87811033Y-120250000D01*
X87461868Y-120394629D01*
X87194629Y-120661868D01*
X87187305Y-120679550D01*
X86924768Y-120045732D01*
X86690069Y-119811033D01*
X92250000Y-119811033D01*
X92250000Y-120188967D01*
X92394629Y-120538132D01*
X92661868Y-120805371D01*
X93011033Y-120950000D01*
X93388967Y-120950000D01*
X93738132Y-120805371D01*
X94005371Y-120538132D01*
X94150000Y-120188967D01*
X94150000Y-119811033D01*
X94005371Y-119461868D01*
X93738132Y-119194629D01*
X93388967Y-119050000D01*
X93011033Y-119050000D01*
X92661868Y-119194629D01*
X92394629Y-119461868D01*
X92250000Y-119811033D01*
X86690069Y-119811033D01*
X86650956Y-119771920D01*
X86605371Y-119661868D01*
X86338132Y-119394629D01*
X86228080Y-119349044D01*
X85954268Y-119075232D01*
X84927669Y-118650000D01*
X113674695Y-118650000D01*
X113087836Y-119236860D01*
G36*
X106020001Y-144205430D02*
X106005286Y-144211525D01*
X105753000Y-144463811D01*
X105500714Y-144211525D01*
X105004532Y-144006000D01*
X104467468Y-144006000D01*
X103971286Y-144211525D01*
X103593000Y-144589811D01*
X103214714Y-144211525D01*
X103200000Y-144205430D01*
X103200000Y-143260659D01*
X106020000Y-140440659D01*
X106020001Y-144205430D01*
X106020001Y-144205430D01*
G37*
X106020001Y-144205430D02*
X106005286Y-144211525D01*
X105753000Y-144463811D01*
X105500714Y-144211525D01*
X105004532Y-144006000D01*
X104467468Y-144006000D01*
X103971286Y-144211525D01*
X103593000Y-144589811D01*
X103214714Y-144211525D01*
X103200000Y-144205430D01*
X103200000Y-143260659D01*
X106020000Y-140440659D01*
X106020001Y-144205430D01*
G36*
X121105159Y-125647687D02*
X121352313Y-125894841D01*
X121675236Y-126028600D01*
X121821400Y-126028600D01*
X121821400Y-126174764D01*
X121955159Y-126497687D01*
X122202313Y-126744841D01*
X122335479Y-126800000D01*
X122300000Y-126814696D01*
X122074764Y-126721400D01*
X121725236Y-126721400D01*
X121500000Y-126814696D01*
X121274764Y-126721400D01*
X120925236Y-126721400D01*
X120724436Y-126804574D01*
X120712816Y-126787184D01*
X120706175Y-126782747D01*
X120797687Y-126744841D01*
X121044841Y-126497687D01*
X121178600Y-126174764D01*
X121178600Y-125825236D01*
X121085304Y-125600000D01*
X121085355Y-125599877D01*
X121105159Y-125647687D01*
X121105159Y-125647687D01*
G37*
X121105159Y-125647687D02*
X121352313Y-125894841D01*
X121675236Y-126028600D01*
X121821400Y-126028600D01*
X121821400Y-126174764D01*
X121955159Y-126497687D01*
X122202313Y-126744841D01*
X122335479Y-126800000D01*
X122300000Y-126814696D01*
X122074764Y-126721400D01*
X121725236Y-126721400D01*
X121500000Y-126814696D01*
X121274764Y-126721400D01*
X120925236Y-126721400D01*
X120724436Y-126804574D01*
X120712816Y-126787184D01*
X120706175Y-126782747D01*
X120797687Y-126744841D01*
X121044841Y-126497687D01*
X121178600Y-126174764D01*
X121178600Y-125825236D01*
X121085304Y-125600000D01*
X121085355Y-125599877D01*
X121105159Y-125647687D01*
G36*
X124194629Y-118711868D02*
X124137413Y-118850000D01*
X123911033Y-118850000D01*
X123561868Y-118994629D01*
X123294629Y-119261868D01*
X123150000Y-119611033D01*
X123150000Y-119988967D01*
X123250001Y-120230390D01*
X123250000Y-121297918D01*
X123166869Y-121381049D01*
X123055371Y-121111868D01*
X122788132Y-120844629D01*
X122438967Y-120700000D01*
X122389202Y-120700000D01*
X122375000Y-120628600D01*
X122375000Y-120628596D01*
X122332935Y-120417119D01*
X122302386Y-120371400D01*
X122213142Y-120237837D01*
X122213141Y-120237836D01*
X122172695Y-120177305D01*
X122112164Y-120136859D01*
X121413142Y-119437838D01*
X121372695Y-119377305D01*
X121132881Y-119217065D01*
X120921404Y-119175000D01*
X120921400Y-119175000D01*
X120850000Y-119160798D01*
X120778600Y-119175000D01*
X118718503Y-119175000D01*
X118694866Y-119151363D01*
X118700000Y-119138967D01*
X118700000Y-118761033D01*
X118654009Y-118650000D01*
X124256497Y-118650000D01*
X124194629Y-118711868D01*
X124194629Y-118711868D01*
G37*
X124194629Y-118711868D02*
X124137413Y-118850000D01*
X123911033Y-118850000D01*
X123561868Y-118994629D01*
X123294629Y-119261868D01*
X123150000Y-119611033D01*
X123150000Y-119988967D01*
X123250001Y-120230390D01*
X123250000Y-121297918D01*
X123166869Y-121381049D01*
X123055371Y-121111868D01*
X122788132Y-120844629D01*
X122438967Y-120700000D01*
X122389202Y-120700000D01*
X122375000Y-120628600D01*
X122375000Y-120628596D01*
X122332935Y-120417119D01*
X122302386Y-120371400D01*
X122213142Y-120237837D01*
X122213141Y-120237836D01*
X122172695Y-120177305D01*
X122112164Y-120136859D01*
X121413142Y-119437838D01*
X121372695Y-119377305D01*
X121132881Y-119217065D01*
X120921404Y-119175000D01*
X120921400Y-119175000D01*
X120850000Y-119160798D01*
X120778600Y-119175000D01*
X118718503Y-119175000D01*
X118694866Y-119151363D01*
X118700000Y-119138967D01*
X118700000Y-118761033D01*
X118654009Y-118650000D01*
X124256497Y-118650000D01*
X124194629Y-118711868D01*
G36*
X138332000Y-120672294D02*
X138332000Y-120787706D01*
X138277706Y-120842000D01*
X138162294Y-120842000D01*
X138112014Y-120791720D01*
X138106636Y-120673658D01*
X138205858Y-120574437D01*
X138220000Y-120588579D01*
X138234143Y-120574437D01*
X138332000Y-120672294D01*
X138332000Y-120672294D01*
G37*
X138332000Y-120672294D02*
X138332000Y-120787706D01*
X138277706Y-120842000D01*
X138162294Y-120842000D01*
X138112014Y-120791720D01*
X138106636Y-120673658D01*
X138205858Y-120574437D01*
X138220000Y-120588579D01*
X138234143Y-120574437D01*
X138332000Y-120672294D01*
G36*
X137057985Y-120668279D02*
X137063364Y-120786342D01*
X137007706Y-120842000D01*
X136892294Y-120842000D01*
X136838000Y-120787706D01*
X136838000Y-120672294D01*
X136935858Y-120574437D01*
X136950000Y-120588579D01*
X136964143Y-120574437D01*
X137057985Y-120668279D01*
X137057985Y-120668279D01*
G37*
X137057985Y-120668279D02*
X137063364Y-120786342D01*
X137007706Y-120842000D01*
X136892294Y-120842000D01*
X136838000Y-120787706D01*
X136838000Y-120672294D01*
X136935858Y-120574437D01*
X136950000Y-120588579D01*
X136964143Y-120574437D01*
X137057985Y-120668279D01*
G36*
X86289024Y-101579161D02*
X86929161Y-100939024D01*
X87275600Y-100102645D01*
X87275600Y-99433890D01*
X87341407Y-99499697D01*
X88047088Y-99792000D01*
X88810912Y-99792000D01*
X89516593Y-99499697D01*
X90056697Y-98959593D01*
X90349000Y-98253912D01*
X90349000Y-97490088D01*
X90056697Y-96784407D01*
X89922290Y-96650000D01*
X107892496Y-96650000D01*
X107687184Y-96787184D01*
X107639763Y-96858155D01*
X104208158Y-100289761D01*
X104137184Y-100337184D01*
X103949318Y-100618347D01*
X103906820Y-100831999D01*
X103708858Y-100750000D01*
X103291142Y-100750000D01*
X102905223Y-100909853D01*
X102609853Y-101205223D01*
X102450000Y-101591142D01*
X102450000Y-102008858D01*
X102609853Y-102394777D01*
X102905223Y-102690147D01*
X103240930Y-102829201D01*
X103244629Y-102838132D01*
X103511868Y-103105371D01*
X103861033Y-103250000D01*
X103900000Y-103250000D01*
X103900000Y-105450000D01*
X103586033Y-105450000D01*
X103236868Y-105594629D01*
X102969629Y-105861868D01*
X102825000Y-106211033D01*
X102825000Y-106588967D01*
X102969629Y-106938132D01*
X103236868Y-107205371D01*
X103550000Y-107335075D01*
X103550000Y-110416287D01*
X103533348Y-110500001D01*
X103550000Y-110583715D01*
X103599318Y-110831653D01*
X103787184Y-111112816D01*
X103858156Y-111160237D01*
X103868629Y-111170711D01*
X103321906Y-111717435D01*
X103259280Y-111759280D01*
X103093516Y-112007365D01*
X103050000Y-112226134D01*
X103050000Y-112226135D01*
X103035307Y-112300000D01*
X103050000Y-112373865D01*
X103050000Y-112906497D01*
X102838132Y-112694629D01*
X102488967Y-112550000D01*
X102111033Y-112550000D01*
X101761868Y-112694629D01*
X101550000Y-112906497D01*
X101550000Y-112073865D01*
X101564693Y-112000000D01*
X101550000Y-111926135D01*
X101550000Y-111926134D01*
X101506484Y-111707365D01*
X101340720Y-111459280D01*
X101278094Y-111417435D01*
X95168974Y-105308315D01*
X95511033Y-105450000D01*
X95888967Y-105450000D01*
X96238132Y-105305371D01*
X96505371Y-105038132D01*
X96650000Y-104688967D01*
X96650000Y-104311033D01*
X96505371Y-103961868D01*
X96238132Y-103694629D01*
X95888967Y-103550000D01*
X95850116Y-103550000D01*
X95950000Y-103308858D01*
X95950000Y-102891142D01*
X95790147Y-102505223D01*
X95494777Y-102209853D01*
X95312628Y-102134404D01*
X95494000Y-101696532D01*
X95494000Y-101159468D01*
X95288475Y-100663286D01*
X94910189Y-100285000D01*
X95288475Y-99906714D01*
X95494000Y-99410532D01*
X95494000Y-98873468D01*
X95288475Y-98377286D01*
X94908714Y-97997525D01*
X94412532Y-97792000D01*
X93875468Y-97792000D01*
X93379286Y-97997525D01*
X92999525Y-98377286D01*
X92794000Y-98873468D01*
X92794000Y-99410532D01*
X92999525Y-99906714D01*
X93377811Y-100285000D01*
X92999525Y-100663286D01*
X92794000Y-101159468D01*
X92794000Y-101696532D01*
X92999525Y-102192714D01*
X93379286Y-102572475D01*
X93875468Y-102778000D01*
X93878497Y-102778000D01*
X92862089Y-103794409D01*
X92794410Y-103862088D01*
X92794407Y-103862090D01*
X91098498Y-105558000D01*
X90277189Y-105558000D01*
X90211189Y-105492000D01*
X90462475Y-105240714D01*
X90668000Y-104744532D01*
X90668000Y-104207468D01*
X90462475Y-103711286D01*
X90244184Y-103492995D01*
X90244184Y-103228763D01*
X90487406Y-103170016D01*
X90676225Y-102667239D01*
X90658266Y-102130476D01*
X90487406Y-101717984D01*
X90244184Y-101659237D01*
X89459421Y-102444000D01*
X90244184Y-103228763D01*
X90244184Y-103492995D01*
X90082714Y-103331525D01*
X90050945Y-103318366D01*
X89318000Y-102585421D01*
X89318000Y-102302579D01*
X90102763Y-101517816D01*
X90044016Y-101274594D01*
X89541239Y-101085775D01*
X89004476Y-101103734D01*
X88591984Y-101274594D01*
X88533237Y-101517816D01*
X89318000Y-102302579D01*
X89318000Y-102585421D01*
X89303858Y-102599563D01*
X89162437Y-102458142D01*
X89176579Y-102444000D01*
X88391816Y-101659237D01*
X88148594Y-101717984D01*
X87974644Y-102181169D01*
X87763239Y-102101775D01*
X87226476Y-102119734D01*
X86813984Y-102290594D01*
X86755237Y-102533816D01*
X87540000Y-103318579D01*
X87554143Y-103304436D01*
X87695564Y-103445857D01*
X87681421Y-103460000D01*
X87695564Y-103474142D01*
X87554143Y-103615563D01*
X87540000Y-103601421D01*
X86807055Y-104334366D01*
X86775286Y-104347525D01*
X86613816Y-104508995D01*
X86613816Y-104244763D01*
X87398579Y-103460000D01*
X86613816Y-102675237D01*
X86370594Y-102733984D01*
X86181775Y-103236761D01*
X86199734Y-103773524D01*
X86370594Y-104186016D01*
X86613816Y-104244763D01*
X86613816Y-104508995D01*
X86395525Y-104727286D01*
X86190000Y-105223468D01*
X86190000Y-105760532D01*
X86395525Y-106256714D01*
X86646811Y-106508000D01*
X86395525Y-106759286D01*
X86190000Y-107255468D01*
X86190000Y-107792532D01*
X86395525Y-108288714D01*
X86646811Y-108540000D01*
X86395525Y-108791286D01*
X86190000Y-109287468D01*
X86190000Y-109824532D01*
X86395525Y-110320714D01*
X86775286Y-110700475D01*
X87271468Y-110906000D01*
X87808532Y-110906000D01*
X88304714Y-110700475D01*
X88684475Y-110320714D01*
X88890000Y-109824532D01*
X88890000Y-109823946D01*
X89049468Y-109890000D01*
X89586532Y-109890000D01*
X90082714Y-109684475D01*
X90462475Y-109304714D01*
X90668000Y-108808532D01*
X90668000Y-108271468D01*
X90462475Y-107775286D01*
X90211189Y-107524000D01*
X90277189Y-107458000D01*
X91398437Y-107457999D01*
X91492000Y-107476610D01*
X91862671Y-107402879D01*
X92097591Y-107245911D01*
X92097594Y-107245908D01*
X92176911Y-107192910D01*
X92229909Y-107113593D01*
X93541421Y-105802081D01*
X100050000Y-112310659D01*
X100050000Y-112906497D01*
X99994629Y-112961868D01*
X99946734Y-113077496D01*
X99818195Y-112948957D01*
X99579293Y-112850000D01*
X98762500Y-112850000D01*
X98600000Y-113012500D01*
X98600000Y-114350000D01*
X99937500Y-114350000D01*
X100100000Y-114187500D01*
X100100000Y-114143503D01*
X100261868Y-114305371D01*
X100611033Y-114450000D01*
X100988967Y-114450000D01*
X101338132Y-114305371D01*
X101550000Y-114093503D01*
X101761868Y-114305371D01*
X102111033Y-114450000D01*
X102488967Y-114450000D01*
X102838132Y-114305371D01*
X103050000Y-114093503D01*
X103261868Y-114305371D01*
X103611033Y-114450000D01*
X103988967Y-114450000D01*
X104338132Y-114305371D01*
X104605371Y-114038132D01*
X104750000Y-113688967D01*
X104750000Y-113311033D01*
X104605371Y-112961868D01*
X104550000Y-112906497D01*
X104550000Y-112610659D01*
X104929289Y-112231371D01*
X104939761Y-112241842D01*
X104987184Y-112312816D01*
X105268348Y-112500682D01*
X105516285Y-112550000D01*
X105600000Y-112566652D01*
X105683714Y-112550000D01*
X107369610Y-112549999D01*
X107611033Y-112650000D01*
X107988967Y-112650000D01*
X108230389Y-112550000D01*
X110116280Y-112549999D01*
X110200000Y-112566652D01*
X110283715Y-112550000D01*
X111916280Y-112549999D01*
X112000000Y-112566652D01*
X112083715Y-112550000D01*
X112516286Y-112550000D01*
X112600000Y-112566652D01*
X112683714Y-112550000D01*
X112683715Y-112550000D01*
X112931653Y-112500682D01*
X113212816Y-112312815D01*
X113260237Y-112241844D01*
X113852082Y-111650000D01*
X114316282Y-111649999D01*
X114316286Y-111650000D01*
X114369612Y-111650000D01*
X114611033Y-111750000D01*
X114988967Y-111750000D01*
X115230389Y-111650000D01*
X115916280Y-111649999D01*
X116000000Y-111666652D01*
X116083715Y-111650000D01*
X117547918Y-111649999D01*
X117550000Y-111652081D01*
X117550000Y-113769612D01*
X117450000Y-114011033D01*
X117450000Y-114388967D01*
X117594629Y-114738132D01*
X117861868Y-115005371D01*
X118211033Y-115150000D01*
X118588967Y-115150000D01*
X118938132Y-115005371D01*
X119205371Y-114738132D01*
X119241877Y-114650000D01*
X119588967Y-114650000D01*
X119938132Y-114505371D01*
X120205371Y-114238132D01*
X120350000Y-113888967D01*
X120350000Y-113511033D01*
X120205371Y-113161868D01*
X119938132Y-112894629D01*
X119588967Y-112750000D01*
X119250000Y-112750000D01*
X119250000Y-111800000D01*
X119538967Y-111800000D01*
X119888132Y-111655371D01*
X120155371Y-111388132D01*
X120300000Y-111038967D01*
X120300000Y-110661033D01*
X120155371Y-110311868D01*
X119888132Y-110044629D01*
X119538967Y-109900000D01*
X119161033Y-109900000D01*
X118811868Y-110044629D01*
X118579289Y-110277208D01*
X118560239Y-110258158D01*
X118512816Y-110187184D01*
X118231653Y-109999318D01*
X117983715Y-109950000D01*
X117983714Y-109950000D01*
X117900000Y-109933348D01*
X117816286Y-109950000D01*
X116850000Y-109950000D01*
X116850000Y-108243811D01*
X116878600Y-108174764D01*
X116878600Y-107825236D01*
X116744841Y-107502313D01*
X116497687Y-107255159D01*
X116174764Y-107121400D01*
X115825236Y-107121400D01*
X115502313Y-107255159D01*
X115255159Y-107502313D01*
X115200000Y-107635479D01*
X115144841Y-107502313D01*
X114897687Y-107255159D01*
X114574764Y-107121400D01*
X114225236Y-107121400D01*
X114000000Y-107214696D01*
X113774764Y-107121400D01*
X113425236Y-107121400D01*
X113102313Y-107255159D01*
X112855159Y-107502313D01*
X112800000Y-107635479D01*
X112744841Y-107502313D01*
X112497687Y-107255159D01*
X112174764Y-107121400D01*
X111825236Y-107121400D01*
X111825236Y-106478600D01*
X112174764Y-106478600D01*
X112497687Y-106344841D01*
X112744841Y-106097687D01*
X112878600Y-105774764D01*
X112878600Y-105425236D01*
X112744841Y-105102313D01*
X112497687Y-104855159D01*
X112174764Y-104721400D01*
X111825236Y-104721400D01*
X111502313Y-104855159D01*
X111255159Y-105102313D01*
X111121400Y-105425236D01*
X111121400Y-105774764D01*
X111255159Y-106097687D01*
X111502313Y-106344841D01*
X111825236Y-106478600D01*
X111825236Y-107121400D01*
X111502313Y-107255159D01*
X111255159Y-107502313D01*
X111121400Y-107825236D01*
X111121400Y-108174764D01*
X111150000Y-108243811D01*
X111150000Y-110850000D01*
X111124719Y-110850000D01*
X111025236Y-110609827D01*
X111025236Y-104078600D01*
X111374764Y-104078600D01*
X111697687Y-103944841D01*
X111944841Y-103697687D01*
X112078600Y-103374764D01*
X112078600Y-103025236D01*
X111944841Y-102702313D01*
X111697687Y-102455159D01*
X111374764Y-102321400D01*
X111025236Y-102321400D01*
X110702313Y-102455159D01*
X110455159Y-102702313D01*
X110321400Y-103025236D01*
X110321400Y-103374764D01*
X110455159Y-103697687D01*
X110702313Y-103944841D01*
X111025236Y-104078600D01*
X111025236Y-110609827D01*
X111005371Y-110561868D01*
X110738132Y-110294629D01*
X110388967Y-110150000D01*
X110011033Y-110150000D01*
X109661868Y-110294629D01*
X109394629Y-110561868D01*
X109275281Y-110850000D01*
X108230388Y-110850000D01*
X107988967Y-110750000D01*
X107611033Y-110750000D01*
X107369612Y-110850000D01*
X105952081Y-110850000D01*
X105541846Y-110439764D01*
X105541843Y-110439762D01*
X105250000Y-110147918D01*
X105250000Y-106830388D01*
X105302800Y-106702917D01*
X105362816Y-106662816D01*
X105550682Y-106381653D01*
X105600000Y-106133715D01*
X105600000Y-106133714D01*
X105616652Y-106050000D01*
X105600000Y-105966286D01*
X105600000Y-103519312D01*
X105628597Y-103525000D01*
X105628600Y-103525000D01*
X105700000Y-103539202D01*
X105771400Y-103525000D01*
X108581496Y-103524999D01*
X108661868Y-103605371D01*
X109011033Y-103750000D01*
X109388967Y-103750000D01*
X109738132Y-103605371D01*
X110005371Y-103338132D01*
X110150000Y-102988967D01*
X110150000Y-102611033D01*
X110062587Y-102400000D01*
X110150000Y-102188967D01*
X110150000Y-101811033D01*
X110005371Y-101461868D01*
X109738132Y-101194629D01*
X109388967Y-101050000D01*
X109011033Y-101050000D01*
X108661868Y-101194629D01*
X108581497Y-101275000D01*
X106825000Y-101275000D01*
X106825000Y-101218503D01*
X106905371Y-101138132D01*
X107050000Y-100788967D01*
X107050000Y-100411033D01*
X106905371Y-100061868D01*
X106872792Y-100029289D01*
X108652082Y-98250000D01*
X111247918Y-98249999D01*
X112250000Y-99252081D01*
X112250000Y-100669612D01*
X112150000Y-100911033D01*
X112005371Y-100561868D01*
X111738132Y-100294629D01*
X111388967Y-100150000D01*
X111011033Y-100150000D01*
X110661868Y-100294629D01*
X110394629Y-100561868D01*
X110250000Y-100911033D01*
X110250000Y-101288967D01*
X110394629Y-101638132D01*
X110661868Y-101905371D01*
X111011033Y-102050000D01*
X111388967Y-102050000D01*
X111738132Y-101905371D01*
X112005371Y-101638132D01*
X112150000Y-101288967D01*
X112250000Y-101530388D01*
X112250000Y-103307472D01*
X112055159Y-103502313D01*
X111921400Y-103825236D01*
X111921400Y-104174764D01*
X112055159Y-104497687D01*
X112302313Y-104744841D01*
X112625236Y-104878600D01*
X112721400Y-104878600D01*
X112721400Y-104974764D01*
X112855159Y-105297687D01*
X113102313Y-105544841D01*
X113425236Y-105678600D01*
X113774764Y-105678600D01*
X114097687Y-105544841D01*
X114344841Y-105297687D01*
X114478600Y-104974764D01*
X114478600Y-104625236D01*
X114447436Y-104549999D01*
X114547917Y-104549999D01*
X115209782Y-105211863D01*
X115121400Y-105425236D01*
X115121400Y-105774764D01*
X115255159Y-106097687D01*
X115502313Y-106344841D01*
X115825236Y-106478600D01*
X116174764Y-106478600D01*
X116497687Y-106344841D01*
X116744841Y-106097687D01*
X116878600Y-105774764D01*
X116878600Y-105425236D01*
X116785304Y-105200000D01*
X116878600Y-104974764D01*
X116878600Y-104625236D01*
X116744841Y-104302313D01*
X116497687Y-104055159D01*
X116428640Y-104026559D01*
X115560237Y-103158155D01*
X115552408Y-103146439D01*
X115797687Y-103044841D01*
X116044841Y-102797687D01*
X116178600Y-102474764D01*
X116178600Y-102430441D01*
X116654831Y-101954211D01*
X116714405Y-101914405D01*
X116821404Y-101754269D01*
X116872102Y-101678394D01*
X116927478Y-101400001D01*
X116913500Y-101329729D01*
X116913500Y-101226402D01*
X117005159Y-101447687D01*
X117252313Y-101694841D01*
X117575236Y-101828600D01*
X117753872Y-101828600D01*
X117605159Y-101977313D01*
X117471400Y-102300236D01*
X117471400Y-102649764D01*
X117605159Y-102972687D01*
X117852313Y-103219841D01*
X118175236Y-103353600D01*
X118524764Y-103353600D01*
X118835234Y-103224999D01*
X119181497Y-103225000D01*
X119261868Y-103305371D01*
X119611033Y-103450000D01*
X119988967Y-103450000D01*
X120338132Y-103305371D01*
X120605371Y-103038132D01*
X120683298Y-102849999D01*
X121010000Y-102849999D01*
X121010000Y-103207749D01*
X121185077Y-103630423D01*
X121508577Y-103953923D01*
X121607746Y-103995000D01*
X121508577Y-104036077D01*
X121185077Y-104359577D01*
X121010000Y-104782251D01*
X121010000Y-105239749D01*
X121185077Y-105662423D01*
X121508577Y-105985923D01*
X121931251Y-106161000D01*
X122250000Y-106161000D01*
X122250000Y-111556497D01*
X122194629Y-111611868D01*
X122050000Y-111961033D01*
X122050000Y-112338967D01*
X122194629Y-112688132D01*
X122461868Y-112955371D01*
X122811033Y-113100000D01*
X123188967Y-113100000D01*
X123538132Y-112955371D01*
X123805371Y-112688132D01*
X123950000Y-112338967D01*
X123950000Y-111961033D01*
X123805371Y-111611868D01*
X123750000Y-111556497D01*
X123750000Y-102573865D01*
X123764693Y-102500000D01*
X123750000Y-102426135D01*
X123750000Y-102426134D01*
X123745050Y-102401247D01*
X123911033Y-102470000D01*
X124288967Y-102470000D01*
X124638132Y-102325371D01*
X124838503Y-102125000D01*
X125328600Y-102125000D01*
X125400000Y-102139202D01*
X125471400Y-102125000D01*
X125471403Y-102125000D01*
X125682880Y-102082935D01*
X125922694Y-101922695D01*
X125963140Y-101862164D01*
X126962164Y-100863141D01*
X127022695Y-100822695D01*
X127063141Y-100762164D01*
X127063142Y-100762163D01*
X127155955Y-100623259D01*
X127182935Y-100582881D01*
X127189852Y-100548105D01*
X127539659Y-100693000D01*
X128000341Y-100693000D01*
X128405000Y-100525385D01*
X128809659Y-100693000D01*
X129270341Y-100693000D01*
X129695955Y-100516705D01*
X130021705Y-100190955D01*
X130198000Y-99765341D01*
X130198000Y-99304659D01*
X130030385Y-98900000D01*
X130198000Y-98495341D01*
X130198000Y-98034659D01*
X130021705Y-97609045D01*
X129695955Y-97283295D01*
X129270341Y-97107000D01*
X128809659Y-97107000D01*
X128385071Y-97282870D01*
X128380596Y-97254457D01*
X127947399Y-97097715D01*
X127487195Y-97118682D01*
X127159404Y-97254457D01*
X127135000Y-97409394D01*
X127110596Y-97254457D01*
X126677399Y-97097715D01*
X126217195Y-97118682D01*
X125889404Y-97254457D01*
X125884929Y-97282870D01*
X125460341Y-97107000D01*
X124999659Y-97107000D01*
X124575071Y-97282870D01*
X124570596Y-97254457D01*
X124137399Y-97097715D01*
X123677195Y-97118682D01*
X123349404Y-97254457D01*
X123314225Y-97477803D01*
X123960000Y-98123579D01*
X123974143Y-98109436D01*
X124072000Y-98207294D01*
X124072000Y-98322706D01*
X124017706Y-98377000D01*
X123902294Y-98377000D01*
X123804437Y-98279142D01*
X123818579Y-98265000D01*
X123172803Y-97619225D01*
X122949457Y-97654404D01*
X122792715Y-98087601D01*
X122813682Y-98547805D01*
X122927050Y-98821500D01*
X122450000Y-98821500D01*
X122450000Y-98511033D01*
X122305371Y-98161868D01*
X122038132Y-97894629D01*
X121688967Y-97750000D01*
X121311033Y-97750000D01*
X120961868Y-97894629D01*
X120757769Y-98098728D01*
X120504213Y-97845172D01*
X120464405Y-97785595D01*
X120228394Y-97627898D01*
X120020272Y-97586500D01*
X119950000Y-97572522D01*
X119879728Y-97586500D01*
X119062980Y-97586500D01*
X119138132Y-97555371D01*
X119405371Y-97288132D01*
X119550000Y-96938967D01*
X119550000Y-96649999D01*
X148935974Y-96649999D01*
X149129067Y-96688407D01*
X149238483Y-96761517D01*
X149311592Y-96870932D01*
X149350000Y-97064021D01*
X149350000Y-114935979D01*
X149311593Y-115129067D01*
X149238483Y-115238483D01*
X149129068Y-115311592D01*
X148935979Y-115350000D01*
X146876306Y-115350000D01*
X146876306Y-110734884D01*
X147212964Y-110566242D01*
X147551918Y-109737796D01*
X147548038Y-108842698D01*
X147212964Y-108033758D01*
X146876306Y-107865116D01*
X146876306Y-104134884D01*
X147212964Y-103966242D01*
X147551918Y-103137796D01*
X147548038Y-102242698D01*
X147212964Y-101433758D01*
X146876306Y-101265116D01*
X145441421Y-102700000D01*
X146876306Y-104134884D01*
X146876306Y-107865116D01*
X145441421Y-109300000D01*
X146876306Y-110734884D01*
X146876306Y-115350000D01*
X144862204Y-115350000D01*
X144862204Y-111551918D01*
X145757302Y-111548038D01*
X146566242Y-111212964D01*
X146734884Y-110876306D01*
X145300000Y-109441421D01*
X145300000Y-109158579D01*
X146734884Y-107723694D01*
X146566242Y-107387036D01*
X145737796Y-107048082D01*
X144862204Y-107051877D01*
X144862204Y-104951918D01*
X145757302Y-104948038D01*
X146566242Y-104612964D01*
X146734884Y-104276306D01*
X145300000Y-102841421D01*
X145300000Y-102558579D01*
X146734884Y-101123694D01*
X146566242Y-100787036D01*
X145737796Y-100448082D01*
X144842698Y-100451962D01*
X144033758Y-100787036D01*
X143865116Y-101123694D01*
X145300000Y-102558579D01*
X145300000Y-102841421D01*
X143865116Y-104276306D01*
X144033758Y-104612964D01*
X144862204Y-104951918D01*
X144862204Y-107051877D01*
X144842698Y-107051962D01*
X144033758Y-107387036D01*
X143865116Y-107723694D01*
X145300000Y-109158579D01*
X145300000Y-109441421D01*
X143865116Y-110876306D01*
X144033758Y-111212964D01*
X144862204Y-111551918D01*
X144862204Y-115350000D01*
X143723694Y-115350000D01*
X143723694Y-110734884D01*
X145158579Y-109300000D01*
X143723694Y-107865116D01*
X143723694Y-104134884D01*
X145158579Y-102700000D01*
X143723694Y-101265116D01*
X143387036Y-101433758D01*
X143048082Y-102262204D01*
X143051962Y-103157302D01*
X143387036Y-103966242D01*
X143723694Y-104134884D01*
X143723694Y-107865116D01*
X143387036Y-108033758D01*
X143048082Y-108862204D01*
X143051962Y-109757302D01*
X143387036Y-110566242D01*
X143723694Y-110734884D01*
X143723694Y-115350000D01*
X141671795Y-115350000D01*
X141671795Y-107650000D01*
X142328205Y-107650000D01*
X142934650Y-107398802D01*
X143398802Y-106934650D01*
X143650000Y-106328205D01*
X143650000Y-105671795D01*
X143398802Y-105065350D01*
X142934650Y-104601198D01*
X142328205Y-104350000D01*
X141671795Y-104350000D01*
X141065350Y-104601198D01*
X140601198Y-105065350D01*
X140350000Y-105671795D01*
X140350000Y-106328205D01*
X140601198Y-106934650D01*
X141065350Y-107398802D01*
X141671795Y-107650000D01*
X141671795Y-115350000D01*
X140276306Y-115350000D01*
X140276306Y-110734884D01*
X140612964Y-110566242D01*
X140951918Y-109737796D01*
X140948038Y-108842698D01*
X140612964Y-108033758D01*
X140276306Y-107865116D01*
X140276306Y-104134884D01*
X140612964Y-103966242D01*
X140951918Y-103137796D01*
X140948038Y-102242698D01*
X140612964Y-101433758D01*
X140276306Y-101265116D01*
X138841421Y-102700000D01*
X140276306Y-104134884D01*
X140276306Y-107865116D01*
X138841421Y-109300000D01*
X140276306Y-110734884D01*
X140276306Y-115350000D01*
X138262204Y-115350000D01*
X138262204Y-111551918D01*
X139157302Y-111548038D01*
X139966242Y-111212964D01*
X140134884Y-110876306D01*
X138700000Y-109441421D01*
X138700000Y-109158579D01*
X140134884Y-107723694D01*
X139966242Y-107387036D01*
X139137796Y-107048082D01*
X138262204Y-107051877D01*
X138262204Y-104951918D01*
X139157302Y-104948038D01*
X139966242Y-104612964D01*
X140134884Y-104276306D01*
X138700000Y-102841421D01*
X138700000Y-102558579D01*
X140134884Y-101123694D01*
X139966242Y-100787036D01*
X139137796Y-100448082D01*
X138242698Y-100451962D01*
X137433758Y-100787036D01*
X137265116Y-101123694D01*
X138700000Y-102558579D01*
X138700000Y-102841421D01*
X137265116Y-104276306D01*
X137433758Y-104612964D01*
X138262204Y-104951918D01*
X138262204Y-107051877D01*
X138242698Y-107051962D01*
X137433758Y-107387036D01*
X137265116Y-107723694D01*
X138700000Y-109158579D01*
X138700000Y-109441421D01*
X137265116Y-110876306D01*
X137433758Y-111212964D01*
X138262204Y-111551918D01*
X138262204Y-115350000D01*
X137123694Y-115350000D01*
X137123694Y-110734884D01*
X138558579Y-109300000D01*
X137123694Y-107865116D01*
X137123694Y-104134884D01*
X138558579Y-102700000D01*
X137123694Y-101265116D01*
X136787036Y-101433758D01*
X136448082Y-102262204D01*
X136451962Y-103157302D01*
X136787036Y-103966242D01*
X137123694Y-104134884D01*
X137123694Y-107865116D01*
X136787036Y-108033758D01*
X136448082Y-108862204D01*
X136451962Y-109757302D01*
X136787036Y-110566242D01*
X137123694Y-110734884D01*
X137123694Y-115350000D01*
X134211033Y-115350000D01*
X134211033Y-111750000D01*
X134588967Y-111750000D01*
X134938132Y-111605371D01*
X135205371Y-111338132D01*
X135350000Y-110988967D01*
X135350000Y-110611033D01*
X135205371Y-110261868D01*
X134938132Y-109994629D01*
X134588967Y-109850000D01*
X134211033Y-109850000D01*
X134211033Y-102150000D01*
X134588967Y-102150000D01*
X134938132Y-102005371D01*
X135205371Y-101738132D01*
X135350000Y-101388967D01*
X135350000Y-101011033D01*
X135205371Y-100661868D01*
X134938132Y-100394629D01*
X134588967Y-100250000D01*
X134211033Y-100250000D01*
X133861868Y-100394629D01*
X133594629Y-100661868D01*
X133450000Y-101011033D01*
X133450000Y-101388967D01*
X133594629Y-101738132D01*
X133861868Y-102005371D01*
X134211033Y-102150000D01*
X134211033Y-109850000D01*
X133861868Y-109994629D01*
X133594629Y-110261868D01*
X133450000Y-110611033D01*
X133450000Y-110988967D01*
X133594629Y-111338132D01*
X133861868Y-111605371D01*
X134211033Y-111750000D01*
X134211033Y-115350000D01*
X133011033Y-115350000D01*
X133011033Y-110250000D01*
X133388967Y-110250000D01*
X133738132Y-110105371D01*
X134005371Y-109838132D01*
X134150000Y-109488967D01*
X134150000Y-109111033D01*
X134005371Y-108761868D01*
X133738132Y-108494629D01*
X133388967Y-108350000D01*
X133011033Y-108350000D01*
X132661868Y-108494629D01*
X132394629Y-108761868D01*
X132250000Y-109111033D01*
X132250000Y-109488967D01*
X132394629Y-109838132D01*
X132661868Y-110105371D01*
X133011033Y-110250000D01*
X133011033Y-115350000D01*
X127011251Y-115350000D01*
X127011251Y-105145000D01*
X127468749Y-105145000D01*
X127891423Y-104969923D01*
X128214923Y-104646423D01*
X128390000Y-104223749D01*
X128390000Y-104217024D01*
X128711033Y-104350000D01*
X129088967Y-104350000D01*
X129438132Y-104205371D01*
X129705371Y-103938132D01*
X129850000Y-103588967D01*
X129850000Y-103211033D01*
X129705371Y-102861868D01*
X129438132Y-102594629D01*
X129088967Y-102450000D01*
X128711033Y-102450000D01*
X128361868Y-102594629D01*
X128094629Y-102861868D01*
X127988773Y-103117427D01*
X127891423Y-103020077D01*
X127737276Y-102956227D01*
X127805371Y-102888132D01*
X127950000Y-102538967D01*
X127950000Y-102161033D01*
X127805371Y-101811868D01*
X127538132Y-101544629D01*
X127188967Y-101400000D01*
X126811033Y-101400000D01*
X126461868Y-101544629D01*
X126194629Y-101811868D01*
X126050000Y-102161033D01*
X126050000Y-102538967D01*
X126194629Y-102888132D01*
X126457576Y-103151078D01*
X126265077Y-103343577D01*
X126090000Y-103766251D01*
X126090000Y-104223749D01*
X126265077Y-104646423D01*
X126588577Y-104969923D01*
X127011251Y-105145000D01*
X127011251Y-115350000D01*
X116550000Y-115350000D01*
X116550000Y-115111033D01*
X116405371Y-114761868D01*
X116293503Y-114650000D01*
X116305371Y-114638132D01*
X116450000Y-114288967D01*
X116450000Y-113911033D01*
X116305371Y-113561868D01*
X116038132Y-113294629D01*
X115688967Y-113150000D01*
X115311033Y-113150000D01*
X114961868Y-113294629D01*
X114694629Y-113561868D01*
X114550000Y-113911033D01*
X114550000Y-114288967D01*
X114694629Y-114638132D01*
X114806497Y-114750000D01*
X114794629Y-114761868D01*
X114650000Y-115111033D01*
X114650000Y-115350000D01*
X100100000Y-115350000D01*
X100100000Y-114712500D01*
X99937500Y-114550000D01*
X98600000Y-114550000D01*
X98600000Y-114570000D01*
X98400000Y-114570000D01*
X98400000Y-114550000D01*
X97062500Y-114550000D01*
X97062500Y-114350000D01*
X98400000Y-114350000D01*
X98400000Y-113012500D01*
X98237500Y-112850000D01*
X97420707Y-112850000D01*
X97181805Y-112948957D01*
X96998957Y-113131805D01*
X96900000Y-113370707D01*
X96900000Y-114187500D01*
X97062500Y-114350000D01*
X97062500Y-114550000D01*
X96900000Y-114712500D01*
X96900000Y-115350000D01*
X93875468Y-115350000D01*
X93875468Y-114208000D01*
X94412532Y-114208000D01*
X94908714Y-114002475D01*
X95288475Y-113622714D01*
X95494000Y-113126532D01*
X95494000Y-112589468D01*
X95288475Y-112093286D01*
X94910189Y-111715000D01*
X95288475Y-111336714D01*
X95494000Y-110840532D01*
X95494000Y-110303468D01*
X95288475Y-109807286D01*
X95018822Y-109537633D01*
X95338132Y-109405371D01*
X95605371Y-109138132D01*
X95750000Y-108788967D01*
X95750000Y-108411033D01*
X95605371Y-108061868D01*
X95338132Y-107794629D01*
X94988967Y-107650000D01*
X94611033Y-107650000D01*
X94261868Y-107794629D01*
X93994629Y-108061868D01*
X93850000Y-108411033D01*
X93850000Y-108524696D01*
X93681838Y-108692858D01*
X93621305Y-108733305D01*
X93461065Y-108973119D01*
X93419000Y-109184596D01*
X93419000Y-109184600D01*
X93404798Y-109256000D01*
X93419000Y-109327400D01*
X93419000Y-109411075D01*
X93379286Y-109427525D01*
X92999525Y-109807286D01*
X92794000Y-110303468D01*
X92794000Y-110840532D01*
X92999525Y-111336714D01*
X93377811Y-111715000D01*
X92999525Y-112093286D01*
X92794000Y-112589468D01*
X92794000Y-113126532D01*
X92999525Y-113622714D01*
X93379286Y-114002475D01*
X93875468Y-114208000D01*
X93875468Y-115350000D01*
X89922290Y-115350000D01*
X90056697Y-115215593D01*
X90349000Y-114509912D01*
X90349000Y-113746088D01*
X90056697Y-113040407D01*
X89516593Y-112500303D01*
X88810912Y-112208000D01*
X88047088Y-112208000D01*
X87341407Y-112500303D01*
X87275600Y-112566110D01*
X87275600Y-111897355D01*
X86929161Y-111060976D01*
X86289024Y-110420839D01*
X85900000Y-110259700D01*
X85900000Y-101740300D01*
X86289024Y-101579161D01*
X86289024Y-101579161D01*
G37*
X86289024Y-101579161D02*
X86929161Y-100939024D01*
X87275600Y-100102645D01*
X87275600Y-99433890D01*
X87341407Y-99499697D01*
X88047088Y-99792000D01*
X88810912Y-99792000D01*
X89516593Y-99499697D01*
X90056697Y-98959593D01*
X90349000Y-98253912D01*
X90349000Y-97490088D01*
X90056697Y-96784407D01*
X89922290Y-96650000D01*
X107892496Y-96650000D01*
X107687184Y-96787184D01*
X107639763Y-96858155D01*
X104208158Y-100289761D01*
X104137184Y-100337184D01*
X103949318Y-100618347D01*
X103906820Y-100831999D01*
X103708858Y-100750000D01*
X103291142Y-100750000D01*
X102905223Y-100909853D01*
X102609853Y-101205223D01*
X102450000Y-101591142D01*
X102450000Y-102008858D01*
X102609853Y-102394777D01*
X102905223Y-102690147D01*
X103240930Y-102829201D01*
X103244629Y-102838132D01*
X103511868Y-103105371D01*
X103861033Y-103250000D01*
X103900000Y-103250000D01*
X103900000Y-105450000D01*
X103586033Y-105450000D01*
X103236868Y-105594629D01*
X102969629Y-105861868D01*
X102825000Y-106211033D01*
X102825000Y-106588967D01*
X102969629Y-106938132D01*
X103236868Y-107205371D01*
X103550000Y-107335075D01*
X103550000Y-110416287D01*
X103533348Y-110500001D01*
X103550000Y-110583715D01*
X103599318Y-110831653D01*
X103787184Y-111112816D01*
X103858156Y-111160237D01*
X103868629Y-111170711D01*
X103321906Y-111717435D01*
X103259280Y-111759280D01*
X103093516Y-112007365D01*
X103050000Y-112226134D01*
X103050000Y-112226135D01*
X103035307Y-112300000D01*
X103050000Y-112373865D01*
X103050000Y-112906497D01*
X102838132Y-112694629D01*
X102488967Y-112550000D01*
X102111033Y-112550000D01*
X101761868Y-112694629D01*
X101550000Y-112906497D01*
X101550000Y-112073865D01*
X101564693Y-112000000D01*
X101550000Y-111926135D01*
X101550000Y-111926134D01*
X101506484Y-111707365D01*
X101340720Y-111459280D01*
X101278094Y-111417435D01*
X95168974Y-105308315D01*
X95511033Y-105450000D01*
X95888967Y-105450000D01*
X96238132Y-105305371D01*
X96505371Y-105038132D01*
X96650000Y-104688967D01*
X96650000Y-104311033D01*
X96505371Y-103961868D01*
X96238132Y-103694629D01*
X95888967Y-103550000D01*
X95850116Y-103550000D01*
X95950000Y-103308858D01*
X95950000Y-102891142D01*
X95790147Y-102505223D01*
X95494777Y-102209853D01*
X95312628Y-102134404D01*
X95494000Y-101696532D01*
X95494000Y-101159468D01*
X95288475Y-100663286D01*
X94910189Y-100285000D01*
X95288475Y-99906714D01*
X95494000Y-99410532D01*
X95494000Y-98873468D01*
X95288475Y-98377286D01*
X94908714Y-97997525D01*
X94412532Y-97792000D01*
X93875468Y-97792000D01*
X93379286Y-97997525D01*
X92999525Y-98377286D01*
X92794000Y-98873468D01*
X92794000Y-99410532D01*
X92999525Y-99906714D01*
X93377811Y-100285000D01*
X92999525Y-100663286D01*
X92794000Y-101159468D01*
X92794000Y-101696532D01*
X92999525Y-102192714D01*
X93379286Y-102572475D01*
X93875468Y-102778000D01*
X93878497Y-102778000D01*
X92862089Y-103794409D01*
X92794410Y-103862088D01*
X92794407Y-103862090D01*
X91098498Y-105558000D01*
X90277189Y-105558000D01*
X90211189Y-105492000D01*
X90462475Y-105240714D01*
X90668000Y-104744532D01*
X90668000Y-104207468D01*
X90462475Y-103711286D01*
X90244184Y-103492995D01*
X90244184Y-103228763D01*
X90487406Y-103170016D01*
X90676225Y-102667239D01*
X90658266Y-102130476D01*
X90487406Y-101717984D01*
X90244184Y-101659237D01*
X89459421Y-102444000D01*
X90244184Y-103228763D01*
X90244184Y-103492995D01*
X90082714Y-103331525D01*
X90050945Y-103318366D01*
X89318000Y-102585421D01*
X89318000Y-102302579D01*
X90102763Y-101517816D01*
X90044016Y-101274594D01*
X89541239Y-101085775D01*
X89004476Y-101103734D01*
X88591984Y-101274594D01*
X88533237Y-101517816D01*
X89318000Y-102302579D01*
X89318000Y-102585421D01*
X89303858Y-102599563D01*
X89162437Y-102458142D01*
X89176579Y-102444000D01*
X88391816Y-101659237D01*
X88148594Y-101717984D01*
X87974644Y-102181169D01*
X87763239Y-102101775D01*
X87226476Y-102119734D01*
X86813984Y-102290594D01*
X86755237Y-102533816D01*
X87540000Y-103318579D01*
X87554143Y-103304436D01*
X87695564Y-103445857D01*
X87681421Y-103460000D01*
X87695564Y-103474142D01*
X87554143Y-103615563D01*
X87540000Y-103601421D01*
X86807055Y-104334366D01*
X86775286Y-104347525D01*
X86613816Y-104508995D01*
X86613816Y-104244763D01*
X87398579Y-103460000D01*
X86613816Y-102675237D01*
X86370594Y-102733984D01*
X86181775Y-103236761D01*
X86199734Y-103773524D01*
X86370594Y-104186016D01*
X86613816Y-104244763D01*
X86613816Y-104508995D01*
X86395525Y-104727286D01*
X86190000Y-105223468D01*
X86190000Y-105760532D01*
X86395525Y-106256714D01*
X86646811Y-106508000D01*
X86395525Y-106759286D01*
X86190000Y-107255468D01*
X86190000Y-107792532D01*
X86395525Y-108288714D01*
X86646811Y-108540000D01*
X86395525Y-108791286D01*
X86190000Y-109287468D01*
X86190000Y-109824532D01*
X86395525Y-110320714D01*
X86775286Y-110700475D01*
X87271468Y-110906000D01*
X87808532Y-110906000D01*
X88304714Y-110700475D01*
X88684475Y-110320714D01*
X88890000Y-109824532D01*
X88890000Y-109823946D01*
X89049468Y-109890000D01*
X89586532Y-109890000D01*
X90082714Y-109684475D01*
X90462475Y-109304714D01*
X90668000Y-108808532D01*
X90668000Y-108271468D01*
X90462475Y-107775286D01*
X90211189Y-107524000D01*
X90277189Y-107458000D01*
X91398437Y-107457999D01*
X91492000Y-107476610D01*
X91862671Y-107402879D01*
X92097591Y-107245911D01*
X92097594Y-107245908D01*
X92176911Y-107192910D01*
X92229909Y-107113593D01*
X93541421Y-105802081D01*
X100050000Y-112310659D01*
X100050000Y-112906497D01*
X99994629Y-112961868D01*
X99946734Y-113077496D01*
X99818195Y-112948957D01*
X99579293Y-112850000D01*
X98762500Y-112850000D01*
X98600000Y-113012500D01*
X98600000Y-114350000D01*
X99937500Y-114350000D01*
X100100000Y-114187500D01*
X100100000Y-114143503D01*
X100261868Y-114305371D01*
X100611033Y-114450000D01*
X100988967Y-114450000D01*
X101338132Y-114305371D01*
X101550000Y-114093503D01*
X101761868Y-114305371D01*
X102111033Y-114450000D01*
X102488967Y-114450000D01*
X102838132Y-114305371D01*
X103050000Y-114093503D01*
X103261868Y-114305371D01*
X103611033Y-114450000D01*
X103988967Y-114450000D01*
X104338132Y-114305371D01*
X104605371Y-114038132D01*
X104750000Y-113688967D01*
X104750000Y-113311033D01*
X104605371Y-112961868D01*
X104550000Y-112906497D01*
X104550000Y-112610659D01*
X104929289Y-112231371D01*
X104939761Y-112241842D01*
X104987184Y-112312816D01*
X105268348Y-112500682D01*
X105516285Y-112550000D01*
X105600000Y-112566652D01*
X105683714Y-112550000D01*
X107369610Y-112549999D01*
X107611033Y-112650000D01*
X107988967Y-112650000D01*
X108230389Y-112550000D01*
X110116280Y-112549999D01*
X110200000Y-112566652D01*
X110283715Y-112550000D01*
X111916280Y-112549999D01*
X112000000Y-112566652D01*
X112083715Y-112550000D01*
X112516286Y-112550000D01*
X112600000Y-112566652D01*
X112683714Y-112550000D01*
X112683715Y-112550000D01*
X112931653Y-112500682D01*
X113212816Y-112312815D01*
X113260237Y-112241844D01*
X113852082Y-111650000D01*
X114316282Y-111649999D01*
X114316286Y-111650000D01*
X114369612Y-111650000D01*
X114611033Y-111750000D01*
X114988967Y-111750000D01*
X115230389Y-111650000D01*
X115916280Y-111649999D01*
X116000000Y-111666652D01*
X116083715Y-111650000D01*
X117547918Y-111649999D01*
X117550000Y-111652081D01*
X117550000Y-113769612D01*
X117450000Y-114011033D01*
X117450000Y-114388967D01*
X117594629Y-114738132D01*
X117861868Y-115005371D01*
X118211033Y-115150000D01*
X118588967Y-115150000D01*
X118938132Y-115005371D01*
X119205371Y-114738132D01*
X119241877Y-114650000D01*
X119588967Y-114650000D01*
X119938132Y-114505371D01*
X120205371Y-114238132D01*
X120350000Y-113888967D01*
X120350000Y-113511033D01*
X120205371Y-113161868D01*
X119938132Y-112894629D01*
X119588967Y-112750000D01*
X119250000Y-112750000D01*
X119250000Y-111800000D01*
X119538967Y-111800000D01*
X119888132Y-111655371D01*
X120155371Y-111388132D01*
X120300000Y-111038967D01*
X120300000Y-110661033D01*
X120155371Y-110311868D01*
X119888132Y-110044629D01*
X119538967Y-109900000D01*
X119161033Y-109900000D01*
X118811868Y-110044629D01*
X118579289Y-110277208D01*
X118560239Y-110258158D01*
X118512816Y-110187184D01*
X118231653Y-109999318D01*
X117983715Y-109950000D01*
X117983714Y-109950000D01*
X117900000Y-109933348D01*
X117816286Y-109950000D01*
X116850000Y-109950000D01*
X116850000Y-108243811D01*
X116878600Y-108174764D01*
X116878600Y-107825236D01*
X116744841Y-107502313D01*
X116497687Y-107255159D01*
X116174764Y-107121400D01*
X115825236Y-107121400D01*
X115502313Y-107255159D01*
X115255159Y-107502313D01*
X115200000Y-107635479D01*
X115144841Y-107502313D01*
X114897687Y-107255159D01*
X114574764Y-107121400D01*
X114225236Y-107121400D01*
X114000000Y-107214696D01*
X113774764Y-107121400D01*
X113425236Y-107121400D01*
X113102313Y-107255159D01*
X112855159Y-107502313D01*
X112800000Y-107635479D01*
X112744841Y-107502313D01*
X112497687Y-107255159D01*
X112174764Y-107121400D01*
X111825236Y-107121400D01*
X111825236Y-106478600D01*
X112174764Y-106478600D01*
X112497687Y-106344841D01*
X112744841Y-106097687D01*
X112878600Y-105774764D01*
X112878600Y-105425236D01*
X112744841Y-105102313D01*
X112497687Y-104855159D01*
X112174764Y-104721400D01*
X111825236Y-104721400D01*
X111502313Y-104855159D01*
X111255159Y-105102313D01*
X111121400Y-105425236D01*
X111121400Y-105774764D01*
X111255159Y-106097687D01*
X111502313Y-106344841D01*
X111825236Y-106478600D01*
X111825236Y-107121400D01*
X111502313Y-107255159D01*
X111255159Y-107502313D01*
X111121400Y-107825236D01*
X111121400Y-108174764D01*
X111150000Y-108243811D01*
X111150000Y-110850000D01*
X111124719Y-110850000D01*
X111025236Y-110609827D01*
X111025236Y-104078600D01*
X111374764Y-104078600D01*
X111697687Y-103944841D01*
X111944841Y-103697687D01*
X112078600Y-103374764D01*
X112078600Y-103025236D01*
X111944841Y-102702313D01*
X111697687Y-102455159D01*
X111374764Y-102321400D01*
X111025236Y-102321400D01*
X110702313Y-102455159D01*
X110455159Y-102702313D01*
X110321400Y-103025236D01*
X110321400Y-103374764D01*
X110455159Y-103697687D01*
X110702313Y-103944841D01*
X111025236Y-104078600D01*
X111025236Y-110609827D01*
X111005371Y-110561868D01*
X110738132Y-110294629D01*
X110388967Y-110150000D01*
X110011033Y-110150000D01*
X109661868Y-110294629D01*
X109394629Y-110561868D01*
X109275281Y-110850000D01*
X108230388Y-110850000D01*
X107988967Y-110750000D01*
X107611033Y-110750000D01*
X107369612Y-110850000D01*
X105952081Y-110850000D01*
X105541846Y-110439764D01*
X105541843Y-110439762D01*
X105250000Y-110147918D01*
X105250000Y-106830388D01*
X105302800Y-106702917D01*
X105362816Y-106662816D01*
X105550682Y-106381653D01*
X105600000Y-106133715D01*
X105600000Y-106133714D01*
X105616652Y-106050000D01*
X105600000Y-105966286D01*
X105600000Y-103519312D01*
X105628597Y-103525000D01*
X105628600Y-103525000D01*
X105700000Y-103539202D01*
X105771400Y-103525000D01*
X108581496Y-103524999D01*
X108661868Y-103605371D01*
X109011033Y-103750000D01*
X109388967Y-103750000D01*
X109738132Y-103605371D01*
X110005371Y-103338132D01*
X110150000Y-102988967D01*
X110150000Y-102611033D01*
X110062587Y-102400000D01*
X110150000Y-102188967D01*
X110150000Y-101811033D01*
X110005371Y-101461868D01*
X109738132Y-101194629D01*
X109388967Y-101050000D01*
X109011033Y-101050000D01*
X108661868Y-101194629D01*
X108581497Y-101275000D01*
X106825000Y-101275000D01*
X106825000Y-101218503D01*
X106905371Y-101138132D01*
X107050000Y-100788967D01*
X107050000Y-100411033D01*
X106905371Y-100061868D01*
X106872792Y-100029289D01*
X108652082Y-98250000D01*
X111247918Y-98249999D01*
X112250000Y-99252081D01*
X112250000Y-100669612D01*
X112150000Y-100911033D01*
X112005371Y-100561868D01*
X111738132Y-100294629D01*
X111388967Y-100150000D01*
X111011033Y-100150000D01*
X110661868Y-100294629D01*
X110394629Y-100561868D01*
X110250000Y-100911033D01*
X110250000Y-101288967D01*
X110394629Y-101638132D01*
X110661868Y-101905371D01*
X111011033Y-102050000D01*
X111388967Y-102050000D01*
X111738132Y-101905371D01*
X112005371Y-101638132D01*
X112150000Y-101288967D01*
X112250000Y-101530388D01*
X112250000Y-103307472D01*
X112055159Y-103502313D01*
X111921400Y-103825236D01*
X111921400Y-104174764D01*
X112055159Y-104497687D01*
X112302313Y-104744841D01*
X112625236Y-104878600D01*
X112721400Y-104878600D01*
X112721400Y-104974764D01*
X112855159Y-105297687D01*
X113102313Y-105544841D01*
X113425236Y-105678600D01*
X113774764Y-105678600D01*
X114097687Y-105544841D01*
X114344841Y-105297687D01*
X114478600Y-104974764D01*
X114478600Y-104625236D01*
X114447436Y-104549999D01*
X114547917Y-104549999D01*
X115209782Y-105211863D01*
X115121400Y-105425236D01*
X115121400Y-105774764D01*
X115255159Y-106097687D01*
X115502313Y-106344841D01*
X115825236Y-106478600D01*
X116174764Y-106478600D01*
X116497687Y-106344841D01*
X116744841Y-106097687D01*
X116878600Y-105774764D01*
X116878600Y-105425236D01*
X116785304Y-105200000D01*
X116878600Y-104974764D01*
X116878600Y-104625236D01*
X116744841Y-104302313D01*
X116497687Y-104055159D01*
X116428640Y-104026559D01*
X115560237Y-103158155D01*
X115552408Y-103146439D01*
X115797687Y-103044841D01*
X116044841Y-102797687D01*
X116178600Y-102474764D01*
X116178600Y-102430441D01*
X116654831Y-101954211D01*
X116714405Y-101914405D01*
X116821404Y-101754269D01*
X116872102Y-101678394D01*
X116927478Y-101400001D01*
X116913500Y-101329729D01*
X116913500Y-101226402D01*
X117005159Y-101447687D01*
X117252313Y-101694841D01*
X117575236Y-101828600D01*
X117753872Y-101828600D01*
X117605159Y-101977313D01*
X117471400Y-102300236D01*
X117471400Y-102649764D01*
X117605159Y-102972687D01*
X117852313Y-103219841D01*
X118175236Y-103353600D01*
X118524764Y-103353600D01*
X118835234Y-103224999D01*
X119181497Y-103225000D01*
X119261868Y-103305371D01*
X119611033Y-103450000D01*
X119988967Y-103450000D01*
X120338132Y-103305371D01*
X120605371Y-103038132D01*
X120683298Y-102849999D01*
X121010000Y-102849999D01*
X121010000Y-103207749D01*
X121185077Y-103630423D01*
X121508577Y-103953923D01*
X121607746Y-103995000D01*
X121508577Y-104036077D01*
X121185077Y-104359577D01*
X121010000Y-104782251D01*
X121010000Y-105239749D01*
X121185077Y-105662423D01*
X121508577Y-105985923D01*
X121931251Y-106161000D01*
X122250000Y-106161000D01*
X122250000Y-111556497D01*
X122194629Y-111611868D01*
X122050000Y-111961033D01*
X122050000Y-112338967D01*
X122194629Y-112688132D01*
X122461868Y-112955371D01*
X122811033Y-113100000D01*
X123188967Y-113100000D01*
X123538132Y-112955371D01*
X123805371Y-112688132D01*
X123950000Y-112338967D01*
X123950000Y-111961033D01*
X123805371Y-111611868D01*
X123750000Y-111556497D01*
X123750000Y-102573865D01*
X123764693Y-102500000D01*
X123750000Y-102426135D01*
X123750000Y-102426134D01*
X123745050Y-102401247D01*
X123911033Y-102470000D01*
X124288967Y-102470000D01*
X124638132Y-102325371D01*
X124838503Y-102125000D01*
X125328600Y-102125000D01*
X125400000Y-102139202D01*
X125471400Y-102125000D01*
X125471403Y-102125000D01*
X125682880Y-102082935D01*
X125922694Y-101922695D01*
X125963140Y-101862164D01*
X126962164Y-100863141D01*
X127022695Y-100822695D01*
X127063141Y-100762164D01*
X127063142Y-100762163D01*
X127155955Y-100623259D01*
X127182935Y-100582881D01*
X127189852Y-100548105D01*
X127539659Y-100693000D01*
X128000341Y-100693000D01*
X128405000Y-100525385D01*
X128809659Y-100693000D01*
X129270341Y-100693000D01*
X129695955Y-100516705D01*
X130021705Y-100190955D01*
X130198000Y-99765341D01*
X130198000Y-99304659D01*
X130030385Y-98900000D01*
X130198000Y-98495341D01*
X130198000Y-98034659D01*
X130021705Y-97609045D01*
X129695955Y-97283295D01*
X129270341Y-97107000D01*
X128809659Y-97107000D01*
X128385071Y-97282870D01*
X128380596Y-97254457D01*
X127947399Y-97097715D01*
X127487195Y-97118682D01*
X127159404Y-97254457D01*
X127135000Y-97409394D01*
X127110596Y-97254457D01*
X126677399Y-97097715D01*
X126217195Y-97118682D01*
X125889404Y-97254457D01*
X125884929Y-97282870D01*
X125460341Y-97107000D01*
X124999659Y-97107000D01*
X124575071Y-97282870D01*
X124570596Y-97254457D01*
X124137399Y-97097715D01*
X123677195Y-97118682D01*
X123349404Y-97254457D01*
X123314225Y-97477803D01*
X123960000Y-98123579D01*
X123974143Y-98109436D01*
X124072000Y-98207294D01*
X124072000Y-98322706D01*
X124017706Y-98377000D01*
X123902294Y-98377000D01*
X123804437Y-98279142D01*
X123818579Y-98265000D01*
X123172803Y-97619225D01*
X122949457Y-97654404D01*
X122792715Y-98087601D01*
X122813682Y-98547805D01*
X122927050Y-98821500D01*
X122450000Y-98821500D01*
X122450000Y-98511033D01*
X122305371Y-98161868D01*
X122038132Y-97894629D01*
X121688967Y-97750000D01*
X121311033Y-97750000D01*
X120961868Y-97894629D01*
X120757769Y-98098728D01*
X120504213Y-97845172D01*
X120464405Y-97785595D01*
X120228394Y-97627898D01*
X120020272Y-97586500D01*
X119950000Y-97572522D01*
X119879728Y-97586500D01*
X119062980Y-97586500D01*
X119138132Y-97555371D01*
X119405371Y-97288132D01*
X119550000Y-96938967D01*
X119550000Y-96649999D01*
X148935974Y-96649999D01*
X149129067Y-96688407D01*
X149238483Y-96761517D01*
X149311592Y-96870932D01*
X149350000Y-97064021D01*
X149350000Y-114935979D01*
X149311593Y-115129067D01*
X149238483Y-115238483D01*
X149129068Y-115311592D01*
X148935979Y-115350000D01*
X146876306Y-115350000D01*
X146876306Y-110734884D01*
X147212964Y-110566242D01*
X147551918Y-109737796D01*
X147548038Y-108842698D01*
X147212964Y-108033758D01*
X146876306Y-107865116D01*
X146876306Y-104134884D01*
X147212964Y-103966242D01*
X147551918Y-103137796D01*
X147548038Y-102242698D01*
X147212964Y-101433758D01*
X146876306Y-101265116D01*
X145441421Y-102700000D01*
X146876306Y-104134884D01*
X146876306Y-107865116D01*
X145441421Y-109300000D01*
X146876306Y-110734884D01*
X146876306Y-115350000D01*
X144862204Y-115350000D01*
X144862204Y-111551918D01*
X145757302Y-111548038D01*
X146566242Y-111212964D01*
X146734884Y-110876306D01*
X145300000Y-109441421D01*
X145300000Y-109158579D01*
X146734884Y-107723694D01*
X146566242Y-107387036D01*
X145737796Y-107048082D01*
X144862204Y-107051877D01*
X144862204Y-104951918D01*
X145757302Y-104948038D01*
X146566242Y-104612964D01*
X146734884Y-104276306D01*
X145300000Y-102841421D01*
X145300000Y-102558579D01*
X146734884Y-101123694D01*
X146566242Y-100787036D01*
X145737796Y-100448082D01*
X144842698Y-100451962D01*
X144033758Y-100787036D01*
X143865116Y-101123694D01*
X145300000Y-102558579D01*
X145300000Y-102841421D01*
X143865116Y-104276306D01*
X144033758Y-104612964D01*
X144862204Y-104951918D01*
X144862204Y-107051877D01*
X144842698Y-107051962D01*
X144033758Y-107387036D01*
X143865116Y-107723694D01*
X145300000Y-109158579D01*
X145300000Y-109441421D01*
X143865116Y-110876306D01*
X144033758Y-111212964D01*
X144862204Y-111551918D01*
X144862204Y-115350000D01*
X143723694Y-115350000D01*
X143723694Y-110734884D01*
X145158579Y-109300000D01*
X143723694Y-107865116D01*
X143723694Y-104134884D01*
X145158579Y-102700000D01*
X143723694Y-101265116D01*
X143387036Y-101433758D01*
X143048082Y-102262204D01*
X143051962Y-103157302D01*
X143387036Y-103966242D01*
X143723694Y-104134884D01*
X143723694Y-107865116D01*
X143387036Y-108033758D01*
X143048082Y-108862204D01*
X143051962Y-109757302D01*
X143387036Y-110566242D01*
X143723694Y-110734884D01*
X143723694Y-115350000D01*
X141671795Y-115350000D01*
X141671795Y-107650000D01*
X142328205Y-107650000D01*
X142934650Y-107398802D01*
X143398802Y-106934650D01*
X143650000Y-106328205D01*
X143650000Y-105671795D01*
X143398802Y-105065350D01*
X142934650Y-104601198D01*
X142328205Y-104350000D01*
X141671795Y-104350000D01*
X141065350Y-104601198D01*
X140601198Y-105065350D01*
X140350000Y-105671795D01*
X140350000Y-106328205D01*
X140601198Y-106934650D01*
X141065350Y-107398802D01*
X141671795Y-107650000D01*
X141671795Y-115350000D01*
X140276306Y-115350000D01*
X140276306Y-110734884D01*
X140612964Y-110566242D01*
X140951918Y-109737796D01*
X140948038Y-108842698D01*
X140612964Y-108033758D01*
X140276306Y-107865116D01*
X140276306Y-104134884D01*
X140612964Y-103966242D01*
X140951918Y-103137796D01*
X140948038Y-102242698D01*
X140612964Y-101433758D01*
X140276306Y-101265116D01*
X138841421Y-102700000D01*
X140276306Y-104134884D01*
X140276306Y-107865116D01*
X138841421Y-109300000D01*
X140276306Y-110734884D01*
X140276306Y-115350000D01*
X138262204Y-115350000D01*
X138262204Y-111551918D01*
X139157302Y-111548038D01*
X139966242Y-111212964D01*
X140134884Y-110876306D01*
X138700000Y-109441421D01*
X138700000Y-109158579D01*
X140134884Y-107723694D01*
X139966242Y-107387036D01*
X139137796Y-107048082D01*
X138262204Y-107051877D01*
X138262204Y-104951918D01*
X139157302Y-104948038D01*
X139966242Y-104612964D01*
X140134884Y-104276306D01*
X138700000Y-102841421D01*
X138700000Y-102558579D01*
X140134884Y-101123694D01*
X139966242Y-100787036D01*
X139137796Y-100448082D01*
X138242698Y-100451962D01*
X137433758Y-100787036D01*
X137265116Y-101123694D01*
X138700000Y-102558579D01*
X138700000Y-102841421D01*
X137265116Y-104276306D01*
X137433758Y-104612964D01*
X138262204Y-104951918D01*
X138262204Y-107051877D01*
X138242698Y-107051962D01*
X137433758Y-107387036D01*
X137265116Y-107723694D01*
X138700000Y-109158579D01*
X138700000Y-109441421D01*
X137265116Y-110876306D01*
X137433758Y-111212964D01*
X138262204Y-111551918D01*
X138262204Y-115350000D01*
X137123694Y-115350000D01*
X137123694Y-110734884D01*
X138558579Y-109300000D01*
X137123694Y-107865116D01*
X137123694Y-104134884D01*
X138558579Y-102700000D01*
X137123694Y-101265116D01*
X136787036Y-101433758D01*
X136448082Y-102262204D01*
X136451962Y-103157302D01*
X136787036Y-103966242D01*
X137123694Y-104134884D01*
X137123694Y-107865116D01*
X136787036Y-108033758D01*
X136448082Y-108862204D01*
X136451962Y-109757302D01*
X136787036Y-110566242D01*
X137123694Y-110734884D01*
X137123694Y-115350000D01*
X134211033Y-115350000D01*
X134211033Y-111750000D01*
X134588967Y-111750000D01*
X134938132Y-111605371D01*
X135205371Y-111338132D01*
X135350000Y-110988967D01*
X135350000Y-110611033D01*
X135205371Y-110261868D01*
X134938132Y-109994629D01*
X134588967Y-109850000D01*
X134211033Y-109850000D01*
X134211033Y-102150000D01*
X134588967Y-102150000D01*
X134938132Y-102005371D01*
X135205371Y-101738132D01*
X135350000Y-101388967D01*
X135350000Y-101011033D01*
X135205371Y-100661868D01*
X134938132Y-100394629D01*
X134588967Y-100250000D01*
X134211033Y-100250000D01*
X133861868Y-100394629D01*
X133594629Y-100661868D01*
X133450000Y-101011033D01*
X133450000Y-101388967D01*
X133594629Y-101738132D01*
X133861868Y-102005371D01*
X134211033Y-102150000D01*
X134211033Y-109850000D01*
X133861868Y-109994629D01*
X133594629Y-110261868D01*
X133450000Y-110611033D01*
X133450000Y-110988967D01*
X133594629Y-111338132D01*
X133861868Y-111605371D01*
X134211033Y-111750000D01*
X134211033Y-115350000D01*
X133011033Y-115350000D01*
X133011033Y-110250000D01*
X133388967Y-110250000D01*
X133738132Y-110105371D01*
X134005371Y-109838132D01*
X134150000Y-109488967D01*
X134150000Y-109111033D01*
X134005371Y-108761868D01*
X133738132Y-108494629D01*
X133388967Y-108350000D01*
X133011033Y-108350000D01*
X132661868Y-108494629D01*
X132394629Y-108761868D01*
X132250000Y-109111033D01*
X132250000Y-109488967D01*
X132394629Y-109838132D01*
X132661868Y-110105371D01*
X133011033Y-110250000D01*
X133011033Y-115350000D01*
X127011251Y-115350000D01*
X127011251Y-105145000D01*
X127468749Y-105145000D01*
X127891423Y-104969923D01*
X128214923Y-104646423D01*
X128390000Y-104223749D01*
X128390000Y-104217024D01*
X128711033Y-104350000D01*
X129088967Y-104350000D01*
X129438132Y-104205371D01*
X129705371Y-103938132D01*
X129850000Y-103588967D01*
X129850000Y-103211033D01*
X129705371Y-102861868D01*
X129438132Y-102594629D01*
X129088967Y-102450000D01*
X128711033Y-102450000D01*
X128361868Y-102594629D01*
X128094629Y-102861868D01*
X127988773Y-103117427D01*
X127891423Y-103020077D01*
X127737276Y-102956227D01*
X127805371Y-102888132D01*
X127950000Y-102538967D01*
X127950000Y-102161033D01*
X127805371Y-101811868D01*
X127538132Y-101544629D01*
X127188967Y-101400000D01*
X126811033Y-101400000D01*
X126461868Y-101544629D01*
X126194629Y-101811868D01*
X126050000Y-102161033D01*
X126050000Y-102538967D01*
X126194629Y-102888132D01*
X126457576Y-103151078D01*
X126265077Y-103343577D01*
X126090000Y-103766251D01*
X126090000Y-104223749D01*
X126265077Y-104646423D01*
X126588577Y-104969923D01*
X127011251Y-105145000D01*
X127011251Y-115350000D01*
X116550000Y-115350000D01*
X116550000Y-115111033D01*
X116405371Y-114761868D01*
X116293503Y-114650000D01*
X116305371Y-114638132D01*
X116450000Y-114288967D01*
X116450000Y-113911033D01*
X116305371Y-113561868D01*
X116038132Y-113294629D01*
X115688967Y-113150000D01*
X115311033Y-113150000D01*
X114961868Y-113294629D01*
X114694629Y-113561868D01*
X114550000Y-113911033D01*
X114550000Y-114288967D01*
X114694629Y-114638132D01*
X114806497Y-114750000D01*
X114794629Y-114761868D01*
X114650000Y-115111033D01*
X114650000Y-115350000D01*
X100100000Y-115350000D01*
X100100000Y-114712500D01*
X99937500Y-114550000D01*
X98600000Y-114550000D01*
X98600000Y-114570000D01*
X98400000Y-114570000D01*
X98400000Y-114550000D01*
X97062500Y-114550000D01*
X97062500Y-114350000D01*
X98400000Y-114350000D01*
X98400000Y-113012500D01*
X98237500Y-112850000D01*
X97420707Y-112850000D01*
X97181805Y-112948957D01*
X96998957Y-113131805D01*
X96900000Y-113370707D01*
X96900000Y-114187500D01*
X97062500Y-114350000D01*
X97062500Y-114550000D01*
X96900000Y-114712500D01*
X96900000Y-115350000D01*
X93875468Y-115350000D01*
X93875468Y-114208000D01*
X94412532Y-114208000D01*
X94908714Y-114002475D01*
X95288475Y-113622714D01*
X95494000Y-113126532D01*
X95494000Y-112589468D01*
X95288475Y-112093286D01*
X94910189Y-111715000D01*
X95288475Y-111336714D01*
X95494000Y-110840532D01*
X95494000Y-110303468D01*
X95288475Y-109807286D01*
X95018822Y-109537633D01*
X95338132Y-109405371D01*
X95605371Y-109138132D01*
X95750000Y-108788967D01*
X95750000Y-108411033D01*
X95605371Y-108061868D01*
X95338132Y-107794629D01*
X94988967Y-107650000D01*
X94611033Y-107650000D01*
X94261868Y-107794629D01*
X93994629Y-108061868D01*
X93850000Y-108411033D01*
X93850000Y-108524696D01*
X93681838Y-108692858D01*
X93621305Y-108733305D01*
X93461065Y-108973119D01*
X93419000Y-109184596D01*
X93419000Y-109184600D01*
X93404798Y-109256000D01*
X93419000Y-109327400D01*
X93419000Y-109411075D01*
X93379286Y-109427525D01*
X92999525Y-109807286D01*
X92794000Y-110303468D01*
X92794000Y-110840532D01*
X92999525Y-111336714D01*
X93377811Y-111715000D01*
X92999525Y-112093286D01*
X92794000Y-112589468D01*
X92794000Y-113126532D01*
X92999525Y-113622714D01*
X93379286Y-114002475D01*
X93875468Y-114208000D01*
X93875468Y-115350000D01*
X89922290Y-115350000D01*
X90056697Y-115215593D01*
X90349000Y-114509912D01*
X90349000Y-113746088D01*
X90056697Y-113040407D01*
X89516593Y-112500303D01*
X88810912Y-112208000D01*
X88047088Y-112208000D01*
X87341407Y-112500303D01*
X87275600Y-112566110D01*
X87275600Y-111897355D01*
X86929161Y-111060976D01*
X86289024Y-110420839D01*
X85900000Y-110259700D01*
X85900000Y-101740300D01*
X86289024Y-101579161D01*
G36*
X127755858Y-98109436D02*
X127770000Y-98123579D01*
X127784143Y-98109436D01*
X127882000Y-98207294D01*
X127882000Y-98322706D01*
X127827706Y-98377000D01*
X127712294Y-98377000D01*
X127662014Y-98326720D01*
X127656636Y-98208658D01*
X127755858Y-98109436D01*
X127755858Y-98109436D01*
G37*
X127755858Y-98109436D02*
X127770000Y-98123579D01*
X127784143Y-98109436D01*
X127882000Y-98207294D01*
X127882000Y-98322706D01*
X127827706Y-98377000D01*
X127712294Y-98377000D01*
X127662014Y-98326720D01*
X127656636Y-98208658D01*
X127755858Y-98109436D01*
G36*
X126485858Y-98109436D02*
X126500000Y-98123579D01*
X126514143Y-98109436D01*
X126607985Y-98203279D01*
X126613364Y-98321342D01*
X126557706Y-98377000D01*
X126442294Y-98377000D01*
X126388000Y-98322706D01*
X126388000Y-98207294D01*
X126485858Y-98109436D01*
X126485858Y-98109436D01*
G37*
X126485858Y-98109436D02*
X126500000Y-98123579D01*
X126514143Y-98109436D01*
X126607985Y-98203279D01*
X126613364Y-98321342D01*
X126557706Y-98377000D01*
X126442294Y-98377000D01*
X126388000Y-98322706D01*
X126388000Y-98207294D01*
X126485858Y-98109436D01*
G36*
X122499694Y-101324999D02*
X122524695Y-101350000D01*
X120883298Y-101350000D01*
X120872942Y-101324999D01*
X122499694Y-101324999D01*
X122499694Y-101324999D01*
G37*
X122499694Y-101324999D02*
X122524695Y-101350000D01*
X120883298Y-101350000D01*
X120872942Y-101324999D01*
X122499694Y-101324999D01*
G36*
X113738132Y-97905371D02*
X114005371Y-97638132D01*
X114150000Y-97288967D01*
X114150000Y-96911033D01*
X114041876Y-96650000D01*
X115557473Y-96649999D01*
X115405159Y-96802313D01*
X115271400Y-97125236D01*
X115271400Y-97474764D01*
X115405159Y-97797687D01*
X115652313Y-98044841D01*
X115837901Y-98121714D01*
X115661868Y-98194629D01*
X115394629Y-98461868D01*
X115250000Y-98811033D01*
X115250000Y-99188967D01*
X115394629Y-99538132D01*
X115486500Y-99630003D01*
X115486500Y-101104459D01*
X115450000Y-101140959D01*
X115450000Y-101011033D01*
X115305371Y-100661868D01*
X115038132Y-100394629D01*
X114688967Y-100250000D01*
X114311033Y-100250000D01*
X113961868Y-100394629D01*
X113950000Y-100406497D01*
X113950000Y-98983714D01*
X113966652Y-98900000D01*
X113950000Y-98816286D01*
X113950000Y-98816285D01*
X113900682Y-98568347D01*
X113712816Y-98287184D01*
X113641842Y-98239761D01*
X113433595Y-98031514D01*
X113738132Y-97905371D01*
X113738132Y-97905371D01*
G37*
X113738132Y-97905371D02*
X114005371Y-97638132D01*
X114150000Y-97288967D01*
X114150000Y-96911033D01*
X114041876Y-96650000D01*
X115557473Y-96649999D01*
X115405159Y-96802313D01*
X115271400Y-97125236D01*
X115271400Y-97474764D01*
X115405159Y-97797687D01*
X115652313Y-98044841D01*
X115837901Y-98121714D01*
X115661868Y-98194629D01*
X115394629Y-98461868D01*
X115250000Y-98811033D01*
X115250000Y-99188967D01*
X115394629Y-99538132D01*
X115486500Y-99630003D01*
X115486500Y-101104459D01*
X115450000Y-101140959D01*
X115450000Y-101011033D01*
X115305371Y-100661868D01*
X115038132Y-100394629D01*
X114688967Y-100250000D01*
X114311033Y-100250000D01*
X113961868Y-100394629D01*
X113950000Y-100406497D01*
X113950000Y-98983714D01*
X113966652Y-98900000D01*
X113950000Y-98816286D01*
X113950000Y-98816285D01*
X113900682Y-98568347D01*
X113712816Y-98287184D01*
X113641842Y-98239761D01*
X113433595Y-98031514D01*
X113738132Y-97905371D01*
G04 #@! TD*
M02*
