G04 #@! TF.GenerationSoftware,KiCad,Pcbnew,5.0.1-33cea8e~66~ubuntu18.04.1*
G04 #@! TF.CreationDate,2018-11-27T01:50:38+00:00*
G04 #@! TF.ProjectId,proto_switch_sensor_r1_panel,70726F746F5F7377697463685F73656E,1*
G04 #@! TF.SameCoordinates,Original*
G04 #@! TF.FileFunction,Profile,NP*
%FSLAX46Y46*%
G04 Gerber Fmt 4.6, Leading zero omitted, Abs format (unit mm)*
G04 Created by KiCad (PCBNEW 5.0.1-33cea8e~66~ubuntu18.04.1) date Tue 27 Nov 2018 01:50:38 GMT*
%MOMM*%
%LPD*%
G01*
G04 APERTURE LIST*
%ADD10C,0.050000*%
G04 APERTURE END LIST*
D10*
X124000000Y-118000000D02*
X124000000Y-116000000D01*
X107000000Y-118000000D02*
X124000000Y-118000000D01*
X107000000Y-116000000D02*
X107000000Y-118000000D01*
X124000000Y-116000000D02*
X107000000Y-116000000D01*
X135000000Y-116000000D02*
X126000000Y-116000000D01*
X126000000Y-118000000D02*
X135000000Y-118000000D01*
X126000000Y-116000000D02*
X126000000Y-118000000D01*
X99000000Y-116000000D02*
X105000000Y-116000000D01*
X105000000Y-118000000D02*
X101000000Y-118000000D01*
X105000000Y-116000000D02*
X105000000Y-118000000D01*
X135000000Y-116000000D02*
X145000000Y-116000000D01*
X145000000Y-118000000D02*
X135000000Y-118000000D01*
X145000000Y-116000000D02*
X145000000Y-118000000D01*
X101000000Y-118000000D02*
X86000000Y-118000000D01*
X86000000Y-116000000D02*
X99000000Y-116000000D01*
X147000000Y-118000000D02*
X191000000Y-118000000D01*
X147000000Y-116000000D02*
X147000000Y-118000000D01*
X149000000Y-116000000D02*
X147000000Y-116000000D01*
X86000000Y-116000000D02*
X86000000Y-118000000D01*
X84000000Y-116000000D02*
X81000000Y-116000000D01*
X84000000Y-118000000D02*
X84000000Y-116000000D01*
X81000000Y-118000000D02*
X84000000Y-118000000D01*
X80000000Y-119000000D02*
G75*
G02X81000000Y-118000000I1000000J0D01*
G01*
X81000000Y-160000000D02*
G75*
G02X80000000Y-159000000I0J1000000D01*
G01*
X192000000Y-159000000D02*
G75*
G02X191000000Y-160000000I-1000000J0D01*
G01*
X191000000Y-118000000D02*
G75*
G02X192000000Y-119000000I0J-1000000D01*
G01*
X80000000Y-119000000D02*
X80000000Y-159000000D01*
X192000000Y-159000000D02*
X192000000Y-119000000D01*
X81000000Y-160000000D02*
X191000000Y-160000000D01*
X150000000Y-115000000D02*
G75*
G02X149000000Y-116000000I-1000000J0D01*
G01*
X149000000Y-96000000D02*
G75*
G02X150000000Y-97000000I0J-1000000D01*
G01*
X80000000Y-97000000D02*
G75*
G02X81000000Y-96000000I1000000J0D01*
G01*
X81000000Y-116000000D02*
G75*
G02X80000000Y-115000000I0J1000000D01*
G01*
X150000000Y-97000000D02*
X150000000Y-115000000D01*
X81000000Y-96000000D02*
X149000000Y-96000000D01*
X80000000Y-115000000D02*
X80000000Y-97000000D01*
M02*
