G04 #@! TF.GenerationSoftware,KiCad,Pcbnew,6.0.0-rc1-unknown-106eaaa~84~ubuntu18.04.1*
G04 #@! TF.CreationDate,2018-12-01T20:38:30+00:00*
G04 #@! TF.ProjectId,interposer,696e7465-7270-46f7-9365-722e6b696361,rev?*
G04 #@! TF.SameCoordinates,Original*
G04 #@! TF.FileFunction,Paste,Top*
G04 #@! TF.FilePolarity,Positive*
%FSLAX46Y46*%
G04 Gerber Fmt 4.6, Leading zero omitted, Abs format (unit mm)*
G04 Created by KiCad (PCBNEW 6.0.0-rc1-unknown-106eaaa~84~ubuntu18.04.1) date Sat 01 Dec 2018 20:38:30 GMT*
%MOMM*%
%LPD*%
G01*
G04 APERTURE LIST*
%ADD10R,0.620000X0.620000*%
%ADD11R,0.660000X0.760000*%
%ADD12R,0.890000X0.420000*%
%ADD13R,5.000000X2.400000*%
%ADD14R,5.000000X2.300000*%
%ADD15R,0.450000X1.450000*%
%ADD16R,1.450000X1.150000*%
G04 APERTURE END LIST*
D10*
G04 #@! TO.C,R102*
X112550000Y-96200000D03*
X113450000Y-96200000D03*
G04 #@! TD*
G04 #@! TO.C,R101*
X112550000Y-116200000D03*
X113450000Y-116200000D03*
G04 #@! TD*
G04 #@! TO.C,C104*
X112550000Y-104000000D03*
X113450000Y-104000000D03*
G04 #@! TD*
G04 #@! TO.C,C103*
X112550000Y-124000000D03*
X113450000Y-124000000D03*
G04 #@! TD*
D11*
G04 #@! TO.C,U101*
X115580000Y-92470000D03*
X116420000Y-92470000D03*
X116420000Y-91530000D03*
X115580000Y-91530000D03*
D12*
X113895000Y-92975000D03*
X113895000Y-92325000D03*
X113895000Y-91675000D03*
X113895000Y-91025000D03*
X118105000Y-91025000D03*
X118105000Y-91675000D03*
X118105000Y-92325000D03*
X118105000Y-92975000D03*
G04 #@! TD*
D13*
G04 #@! TO.C,P102*
X119000000Y-104375000D03*
X119000000Y-95625000D03*
D14*
X119000000Y-100000000D03*
G04 #@! TD*
D13*
G04 #@! TO.C,P101*
X119000000Y-124375000D03*
X119000000Y-115625000D03*
D14*
X119000000Y-120000000D03*
G04 #@! TD*
D15*
G04 #@! TO.C,IC102*
X113975000Y-102200000D03*
X113325000Y-102200000D03*
X112675000Y-102200000D03*
X112025000Y-102200000D03*
X112025000Y-97800000D03*
X112675000Y-97800000D03*
X113325000Y-97800000D03*
X113975000Y-97800000D03*
G04 #@! TD*
G04 #@! TO.C,IC101*
X113975000Y-122200000D03*
X113325000Y-122200000D03*
X112675000Y-122200000D03*
X112025000Y-122200000D03*
X112025000Y-117800000D03*
X112675000Y-117800000D03*
X113325000Y-117800000D03*
X113975000Y-117800000D03*
G04 #@! TD*
D10*
G04 #@! TO.C,D102*
X115500000Y-100950000D03*
X115500000Y-100050000D03*
G04 #@! TD*
G04 #@! TO.C,D101*
X115500000Y-120950000D03*
X115500000Y-120050000D03*
G04 #@! TD*
D16*
G04 #@! TO.C,C102*
X120000000Y-91100000D03*
X120000000Y-92900000D03*
G04 #@! TD*
G04 #@! TO.C,C101*
X112000000Y-91100000D03*
X112000000Y-92900000D03*
G04 #@! TD*
M02*
