G04 #@! TF.GenerationSoftware,KiCad,Pcbnew,6.0.0-rc1-unknown-106eaaa~84~ubuntu18.04.1*
G04 #@! TF.CreationDate,2018-12-01T20:38:30+00:00*
G04 #@! TF.ProjectId,interposer,696e7465-7270-46f7-9365-722e6b696361,rev?*
G04 #@! TF.SameCoordinates,Original*
G04 #@! TF.FileFunction,Copper,L2,Bot*
G04 #@! TF.FilePolarity,Positive*
%FSLAX46Y46*%
G04 Gerber Fmt 4.6, Leading zero omitted, Abs format (unit mm)*
G04 Created by KiCad (PCBNEW 6.0.0-rc1-unknown-106eaaa~84~ubuntu18.04.1) date Sat 01 Dec 2018 20:38:30 GMT*
%MOMM*%
%LPD*%
G01*
G04 APERTURE LIST*
G04 #@! TA.AperFunction,ComponentPad*
%ADD10C,1.400000*%
G04 #@! TD*
G04 #@! TA.AperFunction,ComponentPad*
%ADD11C,2.540000*%
G04 #@! TD*
G04 #@! TA.AperFunction,SMDPad,CuDef*
%ADD12R,5.000000X2.400000*%
G04 #@! TD*
G04 #@! TA.AperFunction,ViaPad*
%ADD13C,0.600000*%
G04 #@! TD*
G04 #@! TA.AperFunction,Conductor*
%ADD14C,0.400000*%
G04 #@! TD*
G04 #@! TA.AperFunction,Conductor*
%ADD15C,1.000000*%
G04 #@! TD*
G04 #@! TA.AperFunction,Conductor*
%ADD16C,0.200000*%
G04 #@! TD*
G04 #@! TA.AperFunction,Conductor*
%ADD17C,0.250000*%
G04 #@! TD*
G04 APERTURE END LIST*
D10*
G04 #@! TO.P,J102,8*
G04 #@! TO.N,GND*
X104318000Y-116444000D03*
G04 #@! TO.P,J102,6*
G04 #@! TO.N,/RX-*
X104318000Y-118476000D03*
G04 #@! TO.P,J102,4*
G04 #@! TO.N,+48V*
X104318000Y-120508000D03*
G04 #@! TO.P,J102,2*
G04 #@! TO.N,/TX-*
X104318000Y-122540000D03*
G04 #@! TO.P,J102,7*
G04 #@! TO.N,GND*
X102540000Y-117460000D03*
G04 #@! TO.P,J102,5*
G04 #@! TO.N,+48V*
X102540000Y-119492000D03*
G04 #@! TO.P,J102,3*
G04 #@! TO.N,/RX+*
X102540000Y-121524000D03*
G04 #@! TO.P,J102,1*
G04 #@! TO.N,/TX+*
X102540000Y-123556000D03*
G04 #@! TO.P,J102,12*
G04 #@! TO.N,Net-(J102-Pad12)*
X109144000Y-113142000D03*
G04 #@! TO.P,J102,9*
G04 #@! TO.N,Net-(J102-Pad9)*
X109144000Y-126858000D03*
G04 #@! TO.P,J102,11*
G04 #@! TO.N,Net-(J102-Pad11)*
X109144000Y-115428000D03*
G04 #@! TO.P,J102,10*
G04 #@! TO.N,Net-(J102-Pad10)*
X109144000Y-124572000D03*
D11*
G04 #@! TO.P,J102,S1*
G04 #@! TO.N,CHASSIS*
X103429000Y-111872000D03*
G04 #@! TO.P,J102,S2*
X103429000Y-128128000D03*
G04 #@! TD*
D12*
G04 #@! TO.P,P102,2*
G04 #@! TO.N,GND*
X119000000Y-95625000D03*
X119000000Y-104375000D03*
G04 #@! TD*
G04 #@! TO.P,P101,2*
G04 #@! TO.N,GND*
X119000000Y-115625000D03*
X119000000Y-124375000D03*
G04 #@! TD*
D10*
G04 #@! TO.P,J101,8*
G04 #@! TO.N,GND*
X104318000Y-96444000D03*
G04 #@! TO.P,J101,6*
G04 #@! TO.N,/RX-*
X104318000Y-98476000D03*
G04 #@! TO.P,J101,4*
G04 #@! TO.N,+48V*
X104318000Y-100508000D03*
G04 #@! TO.P,J101,2*
G04 #@! TO.N,/TX-*
X104318000Y-102540000D03*
G04 #@! TO.P,J101,7*
G04 #@! TO.N,GND*
X102540000Y-97460000D03*
G04 #@! TO.P,J101,5*
G04 #@! TO.N,+48V*
X102540000Y-99492000D03*
G04 #@! TO.P,J101,3*
G04 #@! TO.N,/RX+*
X102540000Y-101524000D03*
G04 #@! TO.P,J101,1*
G04 #@! TO.N,/TX+*
X102540000Y-103556000D03*
G04 #@! TO.P,J101,12*
G04 #@! TO.N,Net-(J101-Pad12)*
X109144000Y-93142000D03*
G04 #@! TO.P,J101,9*
G04 #@! TO.N,Net-(J101-Pad9)*
X109144000Y-106858000D03*
G04 #@! TO.P,J101,11*
G04 #@! TO.N,Net-(J101-Pad11)*
X109144000Y-95428000D03*
G04 #@! TO.P,J101,10*
G04 #@! TO.N,Net-(J101-Pad10)*
X109144000Y-104572000D03*
D11*
G04 #@! TO.P,J101,S1*
G04 #@! TO.N,CHASSIS*
X103429000Y-91872000D03*
G04 #@! TO.P,J101,S2*
X103429000Y-108128000D03*
G04 #@! TD*
D13*
G04 #@! TO.N,GND*
X112500000Y-124800000D03*
X115500000Y-121600000D03*
X119000000Y-125900000D03*
X119000000Y-114100000D03*
X119000000Y-105900000D03*
X115500000Y-101800000D03*
X112500000Y-104800000D03*
X116000000Y-92000000D03*
X121200000Y-91100000D03*
X110700000Y-91100000D03*
X119000000Y-94100000D03*
G04 #@! TO.N,5v*
X115500000Y-118950000D03*
X113500000Y-124800000D03*
X115450000Y-99000000D03*
X113450000Y-104800000D03*
G04 #@! TO.N,/TX+*
X108100000Y-103400000D03*
G04 #@! TO.N,/TX-*
X107500000Y-102900000D03*
X108550000Y-121200000D03*
X107250000Y-121200000D03*
G04 #@! TO.N,/RX+*
X106800000Y-101750000D03*
X106750000Y-100350000D03*
G04 #@! TD*
D14*
G04 #@! TO.N,5v*
X115500000Y-118950000D02*
X113500000Y-120950000D01*
X113500000Y-120950000D02*
X113500000Y-124800000D01*
X115450000Y-99000000D02*
X113450000Y-101000000D01*
X113450000Y-101000000D02*
X113450000Y-104800000D01*
D15*
G04 #@! TO.N,CHASSIS*
X103429000Y-128128000D02*
X102557000Y-129000000D01*
X102557000Y-129000000D02*
X96000000Y-129000000D01*
X96000000Y-129000000D02*
X95500000Y-128500000D01*
X95500000Y-92000000D02*
X96500000Y-91000000D01*
X102557000Y-91000000D02*
X103429000Y-91872000D01*
X96500000Y-91000000D02*
X102557000Y-91000000D01*
X103429000Y-110000000D02*
X95500000Y-110000000D01*
X95500000Y-110000000D02*
X95500000Y-92000000D01*
X95500000Y-128500000D02*
X95500000Y-110000000D01*
X103429000Y-110000000D02*
X103429000Y-111872000D01*
X103429000Y-108128000D02*
X103429000Y-110000000D01*
D16*
G04 #@! TO.N,/TX+*
X107944000Y-103556000D02*
X108100000Y-103400000D01*
X102540000Y-103556000D02*
X107944000Y-103556000D01*
G04 #@! TO.N,/TX-*
X104678000Y-102900000D02*
X104318000Y-102540000D01*
X107500000Y-102900000D02*
X104678000Y-102900000D01*
X107250000Y-121200000D02*
X108550000Y-121200000D01*
G04 #@! TO.N,/RX+*
X106574000Y-101524000D02*
X106800000Y-101750000D01*
X102540000Y-101524000D02*
X106574000Y-101524000D01*
X106750000Y-101700000D02*
X106800000Y-101750000D01*
X106676000Y-101524000D02*
X106750000Y-101450000D01*
X106574000Y-101524000D02*
X106676000Y-101524000D01*
X106750000Y-100350000D02*
X106750000Y-101450000D01*
X106750000Y-101450000D02*
X106750000Y-101700000D01*
G04 #@! TD*
D17*
G04 #@! TO.N,GND*
G36*
X121023538Y-90783144D02*
X121075000Y-91041860D01*
X121075001Y-128958135D01*
X121023538Y-129216856D01*
X120917870Y-129375000D01*
X104579092Y-129375000D01*
X104865952Y-129088140D01*
X105124000Y-128465156D01*
X105124000Y-127790844D01*
X104865952Y-127167860D01*
X104389140Y-126691048D01*
X104251955Y-126634224D01*
X108019000Y-126634224D01*
X108019000Y-127081776D01*
X108190271Y-127495261D01*
X108506739Y-127811729D01*
X108920224Y-127983000D01*
X109367776Y-127983000D01*
X109781261Y-127811729D01*
X110097729Y-127495261D01*
X110269000Y-127081776D01*
X110269000Y-126634224D01*
X110097729Y-126220739D01*
X109781261Y-125904271D01*
X109367776Y-125733000D01*
X108920224Y-125733000D01*
X108506739Y-125904271D01*
X108190271Y-126220739D01*
X108019000Y-126634224D01*
X104251955Y-126634224D01*
X103766156Y-126433000D01*
X103091844Y-126433000D01*
X102468860Y-126691048D01*
X101992048Y-127167860D01*
X101734000Y-127790844D01*
X101734000Y-128075000D01*
X101174987Y-128075000D01*
X101738415Y-127511572D01*
X102050600Y-126757890D01*
X102050600Y-125942110D01*
X101738415Y-125188428D01*
X101161572Y-124611585D01*
X100407890Y-124299400D01*
X100125000Y-124299400D01*
X100125000Y-119268224D01*
X101415000Y-119268224D01*
X101415000Y-119715776D01*
X101586271Y-120129261D01*
X101902739Y-120445729D01*
X102053075Y-120508000D01*
X101902739Y-120570271D01*
X101586271Y-120886739D01*
X101415000Y-121300224D01*
X101415000Y-121747776D01*
X101586271Y-122161261D01*
X101902739Y-122477729D01*
X102053075Y-122540000D01*
X101902739Y-122602271D01*
X101586271Y-122918739D01*
X101415000Y-123332224D01*
X101415000Y-123779776D01*
X101586271Y-124193261D01*
X101902739Y-124509729D01*
X102316224Y-124681000D01*
X102763776Y-124681000D01*
X103177261Y-124509729D01*
X103338766Y-124348224D01*
X108019000Y-124348224D01*
X108019000Y-124795776D01*
X108190271Y-125209261D01*
X108506739Y-125525729D01*
X108920224Y-125697000D01*
X109367776Y-125697000D01*
X109781261Y-125525729D01*
X110097729Y-125209261D01*
X110269000Y-124795776D01*
X110269000Y-124655788D01*
X112775000Y-124655788D01*
X112775000Y-124944212D01*
X112885374Y-125210680D01*
X113089320Y-125414626D01*
X113355788Y-125525000D01*
X113644212Y-125525000D01*
X113910680Y-125414626D01*
X114114626Y-125210680D01*
X114225000Y-124944212D01*
X114225000Y-124655788D01*
X114125000Y-124414365D01*
X114125000Y-121208882D01*
X115669257Y-119664626D01*
X115910680Y-119564626D01*
X116114626Y-119360680D01*
X116225000Y-119094212D01*
X116225000Y-118805788D01*
X116114626Y-118539320D01*
X115910680Y-118335374D01*
X115644212Y-118225000D01*
X115355788Y-118225000D01*
X115089320Y-118335374D01*
X114885374Y-118539320D01*
X114785374Y-118780743D01*
X113101590Y-120464528D01*
X113049400Y-120499400D01*
X112932069Y-120675000D01*
X112911263Y-120706138D01*
X112862756Y-120950000D01*
X112875000Y-121011555D01*
X112875001Y-124414363D01*
X112775000Y-124655788D01*
X110269000Y-124655788D01*
X110269000Y-124348224D01*
X110097729Y-123934739D01*
X109781261Y-123618271D01*
X109367776Y-123447000D01*
X108920224Y-123447000D01*
X108506739Y-123618271D01*
X108190271Y-123934739D01*
X108019000Y-124348224D01*
X103338766Y-124348224D01*
X103493729Y-124193261D01*
X103665000Y-123779776D01*
X103665000Y-123477990D01*
X103680739Y-123493729D01*
X104094224Y-123665000D01*
X104541776Y-123665000D01*
X104955261Y-123493729D01*
X105271729Y-123177261D01*
X105443000Y-122763776D01*
X105443000Y-122316224D01*
X105271729Y-121902739D01*
X104955261Y-121586271D01*
X104804925Y-121524000D01*
X104955261Y-121461729D01*
X105271729Y-121145261D01*
X105308789Y-121055788D01*
X106525000Y-121055788D01*
X106525000Y-121344212D01*
X106635374Y-121610680D01*
X106839320Y-121814626D01*
X107105788Y-121925000D01*
X107394212Y-121925000D01*
X107660680Y-121814626D01*
X107750306Y-121725000D01*
X108049694Y-121725000D01*
X108139320Y-121814626D01*
X108405788Y-121925000D01*
X108694212Y-121925000D01*
X108960680Y-121814626D01*
X109164626Y-121610680D01*
X109275000Y-121344212D01*
X109275000Y-121055788D01*
X109164626Y-120789320D01*
X108960680Y-120585374D01*
X108694212Y-120475000D01*
X108405788Y-120475000D01*
X108139320Y-120585374D01*
X108049694Y-120675000D01*
X107750306Y-120675000D01*
X107660680Y-120585374D01*
X107394212Y-120475000D01*
X107105788Y-120475000D01*
X106839320Y-120585374D01*
X106635374Y-120789320D01*
X106525000Y-121055788D01*
X105308789Y-121055788D01*
X105443000Y-120731776D01*
X105443000Y-120284224D01*
X105271729Y-119870739D01*
X104955261Y-119554271D01*
X104804925Y-119492000D01*
X104955261Y-119429729D01*
X105271729Y-119113261D01*
X105443000Y-118699776D01*
X105443000Y-118252224D01*
X105271729Y-117838739D01*
X105014108Y-117581118D01*
X105069761Y-117372538D01*
X104318000Y-116620777D01*
X104303858Y-116634919D01*
X104127081Y-116458142D01*
X104141223Y-116444000D01*
X104494777Y-116444000D01*
X105246538Y-117195761D01*
X105479733Y-117133540D01*
X105655177Y-116636476D01*
X105627048Y-116110109D01*
X105479733Y-115754460D01*
X105246538Y-115692239D01*
X104494777Y-116444000D01*
X104141223Y-116444000D01*
X103389462Y-115692239D01*
X103156267Y-115754460D01*
X102993705Y-116215027D01*
X102732476Y-116122823D01*
X102206109Y-116150952D01*
X101850460Y-116298267D01*
X101788239Y-116531462D01*
X102540000Y-117283223D01*
X102554142Y-117269081D01*
X102730919Y-117445858D01*
X102716777Y-117460000D01*
X102730919Y-117474142D01*
X102554142Y-117650919D01*
X102540000Y-117636777D01*
X101788239Y-118388538D01*
X101843892Y-118597118D01*
X101586271Y-118854739D01*
X101415000Y-119268224D01*
X100125000Y-119268224D01*
X100125000Y-117267524D01*
X101202823Y-117267524D01*
X101230952Y-117793891D01*
X101378267Y-118149540D01*
X101611462Y-118211761D01*
X102363223Y-117460000D01*
X101611462Y-116708239D01*
X101378267Y-116770460D01*
X101202823Y-117267524D01*
X100125000Y-117267524D01*
X100125000Y-115700600D01*
X100407890Y-115700600D01*
X100854853Y-115515462D01*
X103566239Y-115515462D01*
X104318000Y-116267223D01*
X105069761Y-115515462D01*
X105007540Y-115282267D01*
X104786431Y-115204224D01*
X108019000Y-115204224D01*
X108019000Y-115651776D01*
X108190271Y-116065261D01*
X108506739Y-116381729D01*
X108920224Y-116553000D01*
X109367776Y-116553000D01*
X109781261Y-116381729D01*
X110097729Y-116065261D01*
X110269000Y-115651776D01*
X110269000Y-115204224D01*
X110097729Y-114790739D01*
X109781261Y-114474271D01*
X109367776Y-114303000D01*
X108920224Y-114303000D01*
X108506739Y-114474271D01*
X108190271Y-114790739D01*
X108019000Y-115204224D01*
X104786431Y-115204224D01*
X104510476Y-115106823D01*
X103984109Y-115134952D01*
X103628460Y-115282267D01*
X103566239Y-115515462D01*
X100854853Y-115515462D01*
X101161572Y-115388415D01*
X101738415Y-114811572D01*
X102050600Y-114057890D01*
X102050600Y-113242110D01*
X101738415Y-112488428D01*
X101161572Y-111911585D01*
X100407890Y-111599400D01*
X100125000Y-111599400D01*
X100125000Y-110925000D01*
X101986605Y-110925000D01*
X101734000Y-111534844D01*
X101734000Y-112209156D01*
X101992048Y-112832140D01*
X102468860Y-113308952D01*
X103091844Y-113567000D01*
X103766156Y-113567000D01*
X104389140Y-113308952D01*
X104779868Y-112918224D01*
X108019000Y-112918224D01*
X108019000Y-113365776D01*
X108190271Y-113779261D01*
X108506739Y-114095729D01*
X108920224Y-114267000D01*
X109367776Y-114267000D01*
X109781261Y-114095729D01*
X110097729Y-113779261D01*
X110269000Y-113365776D01*
X110269000Y-112918224D01*
X110097729Y-112504739D01*
X109781261Y-112188271D01*
X109367776Y-112017000D01*
X108920224Y-112017000D01*
X108506739Y-112188271D01*
X108190271Y-112504739D01*
X108019000Y-112918224D01*
X104779868Y-112918224D01*
X104865952Y-112832140D01*
X105124000Y-112209156D01*
X105124000Y-111534844D01*
X104865952Y-110911860D01*
X104389140Y-110435048D01*
X104354000Y-110420493D01*
X104354000Y-110091100D01*
X104372121Y-110000000D01*
X104354000Y-109908900D01*
X104354000Y-109579507D01*
X104389140Y-109564952D01*
X104865952Y-109088140D01*
X105124000Y-108465156D01*
X105124000Y-107790844D01*
X104865952Y-107167860D01*
X104389140Y-106691048D01*
X104251955Y-106634224D01*
X108019000Y-106634224D01*
X108019000Y-107081776D01*
X108190271Y-107495261D01*
X108506739Y-107811729D01*
X108920224Y-107983000D01*
X109367776Y-107983000D01*
X109781261Y-107811729D01*
X110097729Y-107495261D01*
X110269000Y-107081776D01*
X110269000Y-106634224D01*
X110097729Y-106220739D01*
X109781261Y-105904271D01*
X109367776Y-105733000D01*
X108920224Y-105733000D01*
X108506739Y-105904271D01*
X108190271Y-106220739D01*
X108019000Y-106634224D01*
X104251955Y-106634224D01*
X103766156Y-106433000D01*
X103091844Y-106433000D01*
X102468860Y-106691048D01*
X101992048Y-107167860D01*
X101734000Y-107790844D01*
X101734000Y-108465156D01*
X101986605Y-109075000D01*
X100125000Y-109075000D01*
X100125000Y-108400600D01*
X100407890Y-108400600D01*
X101161572Y-108088415D01*
X101738415Y-107511572D01*
X102050600Y-106757890D01*
X102050600Y-105942110D01*
X101738415Y-105188428D01*
X101161572Y-104611585D01*
X100407890Y-104299400D01*
X100125000Y-104299400D01*
X100125000Y-99268224D01*
X101415000Y-99268224D01*
X101415000Y-99715776D01*
X101586271Y-100129261D01*
X101902739Y-100445729D01*
X102053075Y-100508000D01*
X101902739Y-100570271D01*
X101586271Y-100886739D01*
X101415000Y-101300224D01*
X101415000Y-101747776D01*
X101586271Y-102161261D01*
X101902739Y-102477729D01*
X102053075Y-102540000D01*
X101902739Y-102602271D01*
X101586271Y-102918739D01*
X101415000Y-103332224D01*
X101415000Y-103779776D01*
X101586271Y-104193261D01*
X101902739Y-104509729D01*
X102316224Y-104681000D01*
X102763776Y-104681000D01*
X103177261Y-104509729D01*
X103493729Y-104193261D01*
X103540229Y-104081000D01*
X107849562Y-104081000D01*
X107955788Y-104125000D01*
X108111462Y-104125000D01*
X108019000Y-104348224D01*
X108019000Y-104795776D01*
X108190271Y-105209261D01*
X108506739Y-105525729D01*
X108920224Y-105697000D01*
X109367776Y-105697000D01*
X109781261Y-105525729D01*
X110097729Y-105209261D01*
X110269000Y-104795776D01*
X110269000Y-104655788D01*
X112725000Y-104655788D01*
X112725000Y-104944212D01*
X112835374Y-105210680D01*
X113039320Y-105414626D01*
X113305788Y-105525000D01*
X113594212Y-105525000D01*
X113860680Y-105414626D01*
X114064626Y-105210680D01*
X114175000Y-104944212D01*
X114175000Y-104655788D01*
X114075000Y-104414365D01*
X114075000Y-101258882D01*
X115619257Y-99714626D01*
X115860680Y-99614626D01*
X116064626Y-99410680D01*
X116175000Y-99144212D01*
X116175000Y-98855788D01*
X116064626Y-98589320D01*
X115860680Y-98385374D01*
X115594212Y-98275000D01*
X115305788Y-98275000D01*
X115039320Y-98385374D01*
X114835374Y-98589320D01*
X114735374Y-98830743D01*
X113051590Y-100514528D01*
X112999400Y-100549400D01*
X112877541Y-100731776D01*
X112861263Y-100756138D01*
X112812756Y-101000000D01*
X112825000Y-101061555D01*
X112825001Y-104414363D01*
X112725000Y-104655788D01*
X110269000Y-104655788D01*
X110269000Y-104348224D01*
X110097729Y-103934739D01*
X109781261Y-103618271D01*
X109367776Y-103447000D01*
X108920224Y-103447000D01*
X108825000Y-103486443D01*
X108825000Y-103255788D01*
X108714626Y-102989320D01*
X108510680Y-102785374D01*
X108244212Y-102675000D01*
X108191537Y-102675000D01*
X108114626Y-102489320D01*
X107910680Y-102285374D01*
X107644212Y-102175000D01*
X107400306Y-102175000D01*
X107414626Y-102160680D01*
X107525000Y-101894212D01*
X107525000Y-101605788D01*
X107414626Y-101339320D01*
X107275000Y-101199694D01*
X107275000Y-100850306D01*
X107364626Y-100760680D01*
X107475000Y-100494212D01*
X107475000Y-100205788D01*
X107364626Y-99939320D01*
X107160680Y-99735374D01*
X106894212Y-99625000D01*
X106605788Y-99625000D01*
X106339320Y-99735374D01*
X106135374Y-99939320D01*
X106025000Y-100205788D01*
X106025000Y-100494212D01*
X106135374Y-100760680D01*
X106225000Y-100850306D01*
X106225001Y-100999000D01*
X105332312Y-100999000D01*
X105443000Y-100731776D01*
X105443000Y-100284224D01*
X105271729Y-99870739D01*
X104955261Y-99554271D01*
X104804925Y-99492000D01*
X104955261Y-99429729D01*
X105271729Y-99113261D01*
X105443000Y-98699776D01*
X105443000Y-98252224D01*
X105271729Y-97838739D01*
X105014108Y-97581118D01*
X105069761Y-97372538D01*
X104318000Y-96620777D01*
X104303858Y-96634919D01*
X104127081Y-96458142D01*
X104141223Y-96444000D01*
X104494777Y-96444000D01*
X105246538Y-97195761D01*
X105479733Y-97133540D01*
X105655177Y-96636476D01*
X105627048Y-96110109D01*
X105479733Y-95754460D01*
X105246538Y-95692239D01*
X104494777Y-96444000D01*
X104141223Y-96444000D01*
X103389462Y-95692239D01*
X103156267Y-95754460D01*
X102993705Y-96215027D01*
X102732476Y-96122823D01*
X102206109Y-96150952D01*
X101850460Y-96298267D01*
X101788239Y-96531462D01*
X102540000Y-97283223D01*
X102554142Y-97269081D01*
X102730919Y-97445858D01*
X102716777Y-97460000D01*
X102730919Y-97474142D01*
X102554142Y-97650919D01*
X102540000Y-97636777D01*
X101788239Y-98388538D01*
X101843892Y-98597118D01*
X101586271Y-98854739D01*
X101415000Y-99268224D01*
X100125000Y-99268224D01*
X100125000Y-97267524D01*
X101202823Y-97267524D01*
X101230952Y-97793891D01*
X101378267Y-98149540D01*
X101611462Y-98211761D01*
X102363223Y-97460000D01*
X101611462Y-96708239D01*
X101378267Y-96770460D01*
X101202823Y-97267524D01*
X100125000Y-97267524D01*
X100125000Y-95700600D01*
X100407890Y-95700600D01*
X100854853Y-95515462D01*
X103566239Y-95515462D01*
X104318000Y-96267223D01*
X105069761Y-95515462D01*
X105007540Y-95282267D01*
X104786431Y-95204224D01*
X108019000Y-95204224D01*
X108019000Y-95651776D01*
X108190271Y-96065261D01*
X108506739Y-96381729D01*
X108920224Y-96553000D01*
X109367776Y-96553000D01*
X109781261Y-96381729D01*
X110097729Y-96065261D01*
X110269000Y-95651776D01*
X110269000Y-95204224D01*
X110097729Y-94790739D01*
X109781261Y-94474271D01*
X109367776Y-94303000D01*
X108920224Y-94303000D01*
X108506739Y-94474271D01*
X108190271Y-94790739D01*
X108019000Y-95204224D01*
X104786431Y-95204224D01*
X104510476Y-95106823D01*
X103984109Y-95134952D01*
X103628460Y-95282267D01*
X103566239Y-95515462D01*
X100854853Y-95515462D01*
X101161572Y-95388415D01*
X101738415Y-94811572D01*
X102050600Y-94057890D01*
X102050600Y-93242110D01*
X101738415Y-92488428D01*
X101174987Y-91925000D01*
X101734000Y-91925000D01*
X101734000Y-92209156D01*
X101992048Y-92832140D01*
X102468860Y-93308952D01*
X103091844Y-93567000D01*
X103766156Y-93567000D01*
X104389140Y-93308952D01*
X104779868Y-92918224D01*
X108019000Y-92918224D01*
X108019000Y-93365776D01*
X108190271Y-93779261D01*
X108506739Y-94095729D01*
X108920224Y-94267000D01*
X109367776Y-94267000D01*
X109781261Y-94095729D01*
X110097729Y-93779261D01*
X110269000Y-93365776D01*
X110269000Y-92918224D01*
X110097729Y-92504739D01*
X109781261Y-92188271D01*
X109367776Y-92017000D01*
X108920224Y-92017000D01*
X108506739Y-92188271D01*
X108190271Y-92504739D01*
X108019000Y-92918224D01*
X104779868Y-92918224D01*
X104865952Y-92832140D01*
X105124000Y-92209156D01*
X105124000Y-91534844D01*
X104865952Y-90911860D01*
X104579092Y-90625000D01*
X120917870Y-90625000D01*
X121023538Y-90783144D01*
X121023538Y-90783144D01*
G37*
X121023538Y-90783144D02*
X121075000Y-91041860D01*
X121075001Y-128958135D01*
X121023538Y-129216856D01*
X120917870Y-129375000D01*
X104579092Y-129375000D01*
X104865952Y-129088140D01*
X105124000Y-128465156D01*
X105124000Y-127790844D01*
X104865952Y-127167860D01*
X104389140Y-126691048D01*
X104251955Y-126634224D01*
X108019000Y-126634224D01*
X108019000Y-127081776D01*
X108190271Y-127495261D01*
X108506739Y-127811729D01*
X108920224Y-127983000D01*
X109367776Y-127983000D01*
X109781261Y-127811729D01*
X110097729Y-127495261D01*
X110269000Y-127081776D01*
X110269000Y-126634224D01*
X110097729Y-126220739D01*
X109781261Y-125904271D01*
X109367776Y-125733000D01*
X108920224Y-125733000D01*
X108506739Y-125904271D01*
X108190271Y-126220739D01*
X108019000Y-126634224D01*
X104251955Y-126634224D01*
X103766156Y-126433000D01*
X103091844Y-126433000D01*
X102468860Y-126691048D01*
X101992048Y-127167860D01*
X101734000Y-127790844D01*
X101734000Y-128075000D01*
X101174987Y-128075000D01*
X101738415Y-127511572D01*
X102050600Y-126757890D01*
X102050600Y-125942110D01*
X101738415Y-125188428D01*
X101161572Y-124611585D01*
X100407890Y-124299400D01*
X100125000Y-124299400D01*
X100125000Y-119268224D01*
X101415000Y-119268224D01*
X101415000Y-119715776D01*
X101586271Y-120129261D01*
X101902739Y-120445729D01*
X102053075Y-120508000D01*
X101902739Y-120570271D01*
X101586271Y-120886739D01*
X101415000Y-121300224D01*
X101415000Y-121747776D01*
X101586271Y-122161261D01*
X101902739Y-122477729D01*
X102053075Y-122540000D01*
X101902739Y-122602271D01*
X101586271Y-122918739D01*
X101415000Y-123332224D01*
X101415000Y-123779776D01*
X101586271Y-124193261D01*
X101902739Y-124509729D01*
X102316224Y-124681000D01*
X102763776Y-124681000D01*
X103177261Y-124509729D01*
X103338766Y-124348224D01*
X108019000Y-124348224D01*
X108019000Y-124795776D01*
X108190271Y-125209261D01*
X108506739Y-125525729D01*
X108920224Y-125697000D01*
X109367776Y-125697000D01*
X109781261Y-125525729D01*
X110097729Y-125209261D01*
X110269000Y-124795776D01*
X110269000Y-124655788D01*
X112775000Y-124655788D01*
X112775000Y-124944212D01*
X112885374Y-125210680D01*
X113089320Y-125414626D01*
X113355788Y-125525000D01*
X113644212Y-125525000D01*
X113910680Y-125414626D01*
X114114626Y-125210680D01*
X114225000Y-124944212D01*
X114225000Y-124655788D01*
X114125000Y-124414365D01*
X114125000Y-121208882D01*
X115669257Y-119664626D01*
X115910680Y-119564626D01*
X116114626Y-119360680D01*
X116225000Y-119094212D01*
X116225000Y-118805788D01*
X116114626Y-118539320D01*
X115910680Y-118335374D01*
X115644212Y-118225000D01*
X115355788Y-118225000D01*
X115089320Y-118335374D01*
X114885374Y-118539320D01*
X114785374Y-118780743D01*
X113101590Y-120464528D01*
X113049400Y-120499400D01*
X112932069Y-120675000D01*
X112911263Y-120706138D01*
X112862756Y-120950000D01*
X112875000Y-121011555D01*
X112875001Y-124414363D01*
X112775000Y-124655788D01*
X110269000Y-124655788D01*
X110269000Y-124348224D01*
X110097729Y-123934739D01*
X109781261Y-123618271D01*
X109367776Y-123447000D01*
X108920224Y-123447000D01*
X108506739Y-123618271D01*
X108190271Y-123934739D01*
X108019000Y-124348224D01*
X103338766Y-124348224D01*
X103493729Y-124193261D01*
X103665000Y-123779776D01*
X103665000Y-123477990D01*
X103680739Y-123493729D01*
X104094224Y-123665000D01*
X104541776Y-123665000D01*
X104955261Y-123493729D01*
X105271729Y-123177261D01*
X105443000Y-122763776D01*
X105443000Y-122316224D01*
X105271729Y-121902739D01*
X104955261Y-121586271D01*
X104804925Y-121524000D01*
X104955261Y-121461729D01*
X105271729Y-121145261D01*
X105308789Y-121055788D01*
X106525000Y-121055788D01*
X106525000Y-121344212D01*
X106635374Y-121610680D01*
X106839320Y-121814626D01*
X107105788Y-121925000D01*
X107394212Y-121925000D01*
X107660680Y-121814626D01*
X107750306Y-121725000D01*
X108049694Y-121725000D01*
X108139320Y-121814626D01*
X108405788Y-121925000D01*
X108694212Y-121925000D01*
X108960680Y-121814626D01*
X109164626Y-121610680D01*
X109275000Y-121344212D01*
X109275000Y-121055788D01*
X109164626Y-120789320D01*
X108960680Y-120585374D01*
X108694212Y-120475000D01*
X108405788Y-120475000D01*
X108139320Y-120585374D01*
X108049694Y-120675000D01*
X107750306Y-120675000D01*
X107660680Y-120585374D01*
X107394212Y-120475000D01*
X107105788Y-120475000D01*
X106839320Y-120585374D01*
X106635374Y-120789320D01*
X106525000Y-121055788D01*
X105308789Y-121055788D01*
X105443000Y-120731776D01*
X105443000Y-120284224D01*
X105271729Y-119870739D01*
X104955261Y-119554271D01*
X104804925Y-119492000D01*
X104955261Y-119429729D01*
X105271729Y-119113261D01*
X105443000Y-118699776D01*
X105443000Y-118252224D01*
X105271729Y-117838739D01*
X105014108Y-117581118D01*
X105069761Y-117372538D01*
X104318000Y-116620777D01*
X104303858Y-116634919D01*
X104127081Y-116458142D01*
X104141223Y-116444000D01*
X104494777Y-116444000D01*
X105246538Y-117195761D01*
X105479733Y-117133540D01*
X105655177Y-116636476D01*
X105627048Y-116110109D01*
X105479733Y-115754460D01*
X105246538Y-115692239D01*
X104494777Y-116444000D01*
X104141223Y-116444000D01*
X103389462Y-115692239D01*
X103156267Y-115754460D01*
X102993705Y-116215027D01*
X102732476Y-116122823D01*
X102206109Y-116150952D01*
X101850460Y-116298267D01*
X101788239Y-116531462D01*
X102540000Y-117283223D01*
X102554142Y-117269081D01*
X102730919Y-117445858D01*
X102716777Y-117460000D01*
X102730919Y-117474142D01*
X102554142Y-117650919D01*
X102540000Y-117636777D01*
X101788239Y-118388538D01*
X101843892Y-118597118D01*
X101586271Y-118854739D01*
X101415000Y-119268224D01*
X100125000Y-119268224D01*
X100125000Y-117267524D01*
X101202823Y-117267524D01*
X101230952Y-117793891D01*
X101378267Y-118149540D01*
X101611462Y-118211761D01*
X102363223Y-117460000D01*
X101611462Y-116708239D01*
X101378267Y-116770460D01*
X101202823Y-117267524D01*
X100125000Y-117267524D01*
X100125000Y-115700600D01*
X100407890Y-115700600D01*
X100854853Y-115515462D01*
X103566239Y-115515462D01*
X104318000Y-116267223D01*
X105069761Y-115515462D01*
X105007540Y-115282267D01*
X104786431Y-115204224D01*
X108019000Y-115204224D01*
X108019000Y-115651776D01*
X108190271Y-116065261D01*
X108506739Y-116381729D01*
X108920224Y-116553000D01*
X109367776Y-116553000D01*
X109781261Y-116381729D01*
X110097729Y-116065261D01*
X110269000Y-115651776D01*
X110269000Y-115204224D01*
X110097729Y-114790739D01*
X109781261Y-114474271D01*
X109367776Y-114303000D01*
X108920224Y-114303000D01*
X108506739Y-114474271D01*
X108190271Y-114790739D01*
X108019000Y-115204224D01*
X104786431Y-115204224D01*
X104510476Y-115106823D01*
X103984109Y-115134952D01*
X103628460Y-115282267D01*
X103566239Y-115515462D01*
X100854853Y-115515462D01*
X101161572Y-115388415D01*
X101738415Y-114811572D01*
X102050600Y-114057890D01*
X102050600Y-113242110D01*
X101738415Y-112488428D01*
X101161572Y-111911585D01*
X100407890Y-111599400D01*
X100125000Y-111599400D01*
X100125000Y-110925000D01*
X101986605Y-110925000D01*
X101734000Y-111534844D01*
X101734000Y-112209156D01*
X101992048Y-112832140D01*
X102468860Y-113308952D01*
X103091844Y-113567000D01*
X103766156Y-113567000D01*
X104389140Y-113308952D01*
X104779868Y-112918224D01*
X108019000Y-112918224D01*
X108019000Y-113365776D01*
X108190271Y-113779261D01*
X108506739Y-114095729D01*
X108920224Y-114267000D01*
X109367776Y-114267000D01*
X109781261Y-114095729D01*
X110097729Y-113779261D01*
X110269000Y-113365776D01*
X110269000Y-112918224D01*
X110097729Y-112504739D01*
X109781261Y-112188271D01*
X109367776Y-112017000D01*
X108920224Y-112017000D01*
X108506739Y-112188271D01*
X108190271Y-112504739D01*
X108019000Y-112918224D01*
X104779868Y-112918224D01*
X104865952Y-112832140D01*
X105124000Y-112209156D01*
X105124000Y-111534844D01*
X104865952Y-110911860D01*
X104389140Y-110435048D01*
X104354000Y-110420493D01*
X104354000Y-110091100D01*
X104372121Y-110000000D01*
X104354000Y-109908900D01*
X104354000Y-109579507D01*
X104389140Y-109564952D01*
X104865952Y-109088140D01*
X105124000Y-108465156D01*
X105124000Y-107790844D01*
X104865952Y-107167860D01*
X104389140Y-106691048D01*
X104251955Y-106634224D01*
X108019000Y-106634224D01*
X108019000Y-107081776D01*
X108190271Y-107495261D01*
X108506739Y-107811729D01*
X108920224Y-107983000D01*
X109367776Y-107983000D01*
X109781261Y-107811729D01*
X110097729Y-107495261D01*
X110269000Y-107081776D01*
X110269000Y-106634224D01*
X110097729Y-106220739D01*
X109781261Y-105904271D01*
X109367776Y-105733000D01*
X108920224Y-105733000D01*
X108506739Y-105904271D01*
X108190271Y-106220739D01*
X108019000Y-106634224D01*
X104251955Y-106634224D01*
X103766156Y-106433000D01*
X103091844Y-106433000D01*
X102468860Y-106691048D01*
X101992048Y-107167860D01*
X101734000Y-107790844D01*
X101734000Y-108465156D01*
X101986605Y-109075000D01*
X100125000Y-109075000D01*
X100125000Y-108400600D01*
X100407890Y-108400600D01*
X101161572Y-108088415D01*
X101738415Y-107511572D01*
X102050600Y-106757890D01*
X102050600Y-105942110D01*
X101738415Y-105188428D01*
X101161572Y-104611585D01*
X100407890Y-104299400D01*
X100125000Y-104299400D01*
X100125000Y-99268224D01*
X101415000Y-99268224D01*
X101415000Y-99715776D01*
X101586271Y-100129261D01*
X101902739Y-100445729D01*
X102053075Y-100508000D01*
X101902739Y-100570271D01*
X101586271Y-100886739D01*
X101415000Y-101300224D01*
X101415000Y-101747776D01*
X101586271Y-102161261D01*
X101902739Y-102477729D01*
X102053075Y-102540000D01*
X101902739Y-102602271D01*
X101586271Y-102918739D01*
X101415000Y-103332224D01*
X101415000Y-103779776D01*
X101586271Y-104193261D01*
X101902739Y-104509729D01*
X102316224Y-104681000D01*
X102763776Y-104681000D01*
X103177261Y-104509729D01*
X103493729Y-104193261D01*
X103540229Y-104081000D01*
X107849562Y-104081000D01*
X107955788Y-104125000D01*
X108111462Y-104125000D01*
X108019000Y-104348224D01*
X108019000Y-104795776D01*
X108190271Y-105209261D01*
X108506739Y-105525729D01*
X108920224Y-105697000D01*
X109367776Y-105697000D01*
X109781261Y-105525729D01*
X110097729Y-105209261D01*
X110269000Y-104795776D01*
X110269000Y-104655788D01*
X112725000Y-104655788D01*
X112725000Y-104944212D01*
X112835374Y-105210680D01*
X113039320Y-105414626D01*
X113305788Y-105525000D01*
X113594212Y-105525000D01*
X113860680Y-105414626D01*
X114064626Y-105210680D01*
X114175000Y-104944212D01*
X114175000Y-104655788D01*
X114075000Y-104414365D01*
X114075000Y-101258882D01*
X115619257Y-99714626D01*
X115860680Y-99614626D01*
X116064626Y-99410680D01*
X116175000Y-99144212D01*
X116175000Y-98855788D01*
X116064626Y-98589320D01*
X115860680Y-98385374D01*
X115594212Y-98275000D01*
X115305788Y-98275000D01*
X115039320Y-98385374D01*
X114835374Y-98589320D01*
X114735374Y-98830743D01*
X113051590Y-100514528D01*
X112999400Y-100549400D01*
X112877541Y-100731776D01*
X112861263Y-100756138D01*
X112812756Y-101000000D01*
X112825000Y-101061555D01*
X112825001Y-104414363D01*
X112725000Y-104655788D01*
X110269000Y-104655788D01*
X110269000Y-104348224D01*
X110097729Y-103934739D01*
X109781261Y-103618271D01*
X109367776Y-103447000D01*
X108920224Y-103447000D01*
X108825000Y-103486443D01*
X108825000Y-103255788D01*
X108714626Y-102989320D01*
X108510680Y-102785374D01*
X108244212Y-102675000D01*
X108191537Y-102675000D01*
X108114626Y-102489320D01*
X107910680Y-102285374D01*
X107644212Y-102175000D01*
X107400306Y-102175000D01*
X107414626Y-102160680D01*
X107525000Y-101894212D01*
X107525000Y-101605788D01*
X107414626Y-101339320D01*
X107275000Y-101199694D01*
X107275000Y-100850306D01*
X107364626Y-100760680D01*
X107475000Y-100494212D01*
X107475000Y-100205788D01*
X107364626Y-99939320D01*
X107160680Y-99735374D01*
X106894212Y-99625000D01*
X106605788Y-99625000D01*
X106339320Y-99735374D01*
X106135374Y-99939320D01*
X106025000Y-100205788D01*
X106025000Y-100494212D01*
X106135374Y-100760680D01*
X106225000Y-100850306D01*
X106225001Y-100999000D01*
X105332312Y-100999000D01*
X105443000Y-100731776D01*
X105443000Y-100284224D01*
X105271729Y-99870739D01*
X104955261Y-99554271D01*
X104804925Y-99492000D01*
X104955261Y-99429729D01*
X105271729Y-99113261D01*
X105443000Y-98699776D01*
X105443000Y-98252224D01*
X105271729Y-97838739D01*
X105014108Y-97581118D01*
X105069761Y-97372538D01*
X104318000Y-96620777D01*
X104303858Y-96634919D01*
X104127081Y-96458142D01*
X104141223Y-96444000D01*
X104494777Y-96444000D01*
X105246538Y-97195761D01*
X105479733Y-97133540D01*
X105655177Y-96636476D01*
X105627048Y-96110109D01*
X105479733Y-95754460D01*
X105246538Y-95692239D01*
X104494777Y-96444000D01*
X104141223Y-96444000D01*
X103389462Y-95692239D01*
X103156267Y-95754460D01*
X102993705Y-96215027D01*
X102732476Y-96122823D01*
X102206109Y-96150952D01*
X101850460Y-96298267D01*
X101788239Y-96531462D01*
X102540000Y-97283223D01*
X102554142Y-97269081D01*
X102730919Y-97445858D01*
X102716777Y-97460000D01*
X102730919Y-97474142D01*
X102554142Y-97650919D01*
X102540000Y-97636777D01*
X101788239Y-98388538D01*
X101843892Y-98597118D01*
X101586271Y-98854739D01*
X101415000Y-99268224D01*
X100125000Y-99268224D01*
X100125000Y-97267524D01*
X101202823Y-97267524D01*
X101230952Y-97793891D01*
X101378267Y-98149540D01*
X101611462Y-98211761D01*
X102363223Y-97460000D01*
X101611462Y-96708239D01*
X101378267Y-96770460D01*
X101202823Y-97267524D01*
X100125000Y-97267524D01*
X100125000Y-95700600D01*
X100407890Y-95700600D01*
X100854853Y-95515462D01*
X103566239Y-95515462D01*
X104318000Y-96267223D01*
X105069761Y-95515462D01*
X105007540Y-95282267D01*
X104786431Y-95204224D01*
X108019000Y-95204224D01*
X108019000Y-95651776D01*
X108190271Y-96065261D01*
X108506739Y-96381729D01*
X108920224Y-96553000D01*
X109367776Y-96553000D01*
X109781261Y-96381729D01*
X110097729Y-96065261D01*
X110269000Y-95651776D01*
X110269000Y-95204224D01*
X110097729Y-94790739D01*
X109781261Y-94474271D01*
X109367776Y-94303000D01*
X108920224Y-94303000D01*
X108506739Y-94474271D01*
X108190271Y-94790739D01*
X108019000Y-95204224D01*
X104786431Y-95204224D01*
X104510476Y-95106823D01*
X103984109Y-95134952D01*
X103628460Y-95282267D01*
X103566239Y-95515462D01*
X100854853Y-95515462D01*
X101161572Y-95388415D01*
X101738415Y-94811572D01*
X102050600Y-94057890D01*
X102050600Y-93242110D01*
X101738415Y-92488428D01*
X101174987Y-91925000D01*
X101734000Y-91925000D01*
X101734000Y-92209156D01*
X101992048Y-92832140D01*
X102468860Y-93308952D01*
X103091844Y-93567000D01*
X103766156Y-93567000D01*
X104389140Y-93308952D01*
X104779868Y-92918224D01*
X108019000Y-92918224D01*
X108019000Y-93365776D01*
X108190271Y-93779261D01*
X108506739Y-94095729D01*
X108920224Y-94267000D01*
X109367776Y-94267000D01*
X109781261Y-94095729D01*
X110097729Y-93779261D01*
X110269000Y-93365776D01*
X110269000Y-92918224D01*
X110097729Y-92504739D01*
X109781261Y-92188271D01*
X109367776Y-92017000D01*
X108920224Y-92017000D01*
X108506739Y-92188271D01*
X108190271Y-92504739D01*
X108019000Y-92918224D01*
X104779868Y-92918224D01*
X104865952Y-92832140D01*
X105124000Y-92209156D01*
X105124000Y-91534844D01*
X104865952Y-90911860D01*
X104579092Y-90625000D01*
X120917870Y-90625000D01*
X121023538Y-90783144D01*
G04 #@! TD*
M02*
