M48
;DRILL file {KiCad 6.0.0-rc1-unknown-106eaaa~84~ubuntu18.04.1} date Sat 01 Dec 2018 20:35:57 GMT
;FORMAT={-:-/ absolute / inch / decimal}
FMAT,2
INCH
T1C0.0118
T2C0.0354
T3C0.0620
%
G90
G05
T1
X4.2028Y-3.9508
X4.2047Y-4.0059
X4.2224Y-4.7717
X4.2323Y-4.0512
X4.2559Y-4.0709
X4.2736Y-4.7717
X4.3583Y-3.5866
X4.4291Y-4.126
X4.4291Y-4.9134
X4.4665Y-4.126
X4.4685Y-4.9134
X4.5453Y-3.8976
X4.5472Y-4.0079
X4.5472Y-4.6831
X4.5472Y-4.7874
X4.5669Y-3.622
X4.685Y-3.7047
X4.685Y-4.1693
X4.685Y-4.4921
X4.685Y-4.9567
X4.7717Y-3.5866
T2
X4.037Y-3.837
X4.037Y-3.917
X4.037Y-3.997
X4.037Y-4.077
X4.107Y-3.797
X4.107Y-3.877
X4.107Y-3.957
X4.107Y-4.037
X4.297Y-3.667
X4.297Y-3.757
X4.297Y-4.117
X4.297Y-4.207
X4.037Y-4.6244
X4.037Y-4.7044
X4.037Y-4.7844
X4.037Y-4.8644
X4.107Y-4.5844
X4.107Y-4.6644
X4.107Y-4.7444
X4.107Y-4.8244
X4.297Y-4.4544
X4.297Y-4.5444
X4.297Y-4.9044
X4.297Y-4.9944
T3
X4.072Y-3.617
X4.072Y-4.257
X4.072Y-4.4044
X4.072Y-5.0444
T0
M30
