G04 #@! TF.GenerationSoftware,KiCad,Pcbnew,6.0.0-rc1-unknown-106eaaa~84~ubuntu18.04.1*
G04 #@! TF.CreationDate,2018-12-01T20:38:30+00:00*
G04 #@! TF.ProjectId,interposer,696e7465-7270-46f7-9365-722e6b696361,rev?*
G04 #@! TF.SameCoordinates,Original*
G04 #@! TF.FileFunction,Legend,Top*
G04 #@! TF.FilePolarity,Positive*
%FSLAX46Y46*%
G04 Gerber Fmt 4.6, Leading zero omitted, Abs format (unit mm)*
G04 Created by KiCad (PCBNEW 6.0.0-rc1-unknown-106eaaa~84~ubuntu18.04.1) date Sat 01 Dec 2018 20:38:30 GMT*
%MOMM*%
%LPD*%
G01*
G04 APERTURE LIST*
%ADD10C,0.150000*%
G04 APERTURE END LIST*
D10*
X112619047Y-109627380D02*
X112619047Y-108627380D01*
X112857142Y-108627380D01*
X113000000Y-108675000D01*
X113095238Y-108770238D01*
X113142857Y-108865476D01*
X113190476Y-109055952D01*
X113190476Y-109198809D01*
X113142857Y-109389285D01*
X113095238Y-109484523D01*
X113000000Y-109579761D01*
X112857142Y-109627380D01*
X112619047Y-109627380D01*
X113571428Y-109341666D02*
X114047619Y-109341666D01*
X113476190Y-109627380D02*
X113809523Y-108627380D01*
X114142857Y-109627380D01*
X115142857Y-109722619D02*
X115047619Y-109675000D01*
X114952380Y-109579761D01*
X114809523Y-109436904D01*
X114714285Y-109389285D01*
X114619047Y-109389285D01*
X114666666Y-109627380D02*
X114571428Y-109579761D01*
X114476190Y-109484523D01*
X114428571Y-109294047D01*
X114428571Y-108960714D01*
X114476190Y-108770238D01*
X114571428Y-108675000D01*
X114666666Y-108627380D01*
X114857142Y-108627380D01*
X114952380Y-108675000D01*
X115047619Y-108770238D01*
X115095238Y-108960714D01*
X115095238Y-109294047D01*
X115047619Y-109484523D01*
X114952380Y-109579761D01*
X114857142Y-109627380D01*
X114666666Y-109627380D01*
X115523809Y-108960714D02*
X115523809Y-109627380D01*
X115523809Y-109055952D02*
X115571428Y-109008333D01*
X115666666Y-108960714D01*
X115809523Y-108960714D01*
X115904761Y-109008333D01*
X115952380Y-109103571D01*
X115952380Y-109627380D01*
X116809523Y-109579761D02*
X116714285Y-109627380D01*
X116523809Y-109627380D01*
X116428571Y-109579761D01*
X116380952Y-109484523D01*
X116380952Y-109103571D01*
X116428571Y-109008333D01*
X116523809Y-108960714D01*
X116714285Y-108960714D01*
X116809523Y-109008333D01*
X116857142Y-109103571D01*
X116857142Y-109198809D01*
X116380952Y-109294047D01*
X117142857Y-108960714D02*
X117523809Y-108960714D01*
X117285714Y-108627380D02*
X117285714Y-109484523D01*
X117333333Y-109579761D01*
X117428571Y-109627380D01*
X117523809Y-109627380D01*
X111476190Y-111277380D02*
X111476190Y-110610714D01*
X111476190Y-110277380D02*
X111428571Y-110325000D01*
X111476190Y-110372619D01*
X111523809Y-110325000D01*
X111476190Y-110277380D01*
X111476190Y-110372619D01*
X111952380Y-110610714D02*
X111952380Y-111277380D01*
X111952380Y-110705952D02*
X112000000Y-110658333D01*
X112095238Y-110610714D01*
X112238095Y-110610714D01*
X112333333Y-110658333D01*
X112380952Y-110753571D01*
X112380952Y-111277380D01*
X112714285Y-110610714D02*
X113095238Y-110610714D01*
X112857142Y-110277380D02*
X112857142Y-111134523D01*
X112904761Y-111229761D01*
X113000000Y-111277380D01*
X113095238Y-111277380D01*
X113809523Y-111229761D02*
X113714285Y-111277380D01*
X113523809Y-111277380D01*
X113428571Y-111229761D01*
X113380952Y-111134523D01*
X113380952Y-110753571D01*
X113428571Y-110658333D01*
X113523809Y-110610714D01*
X113714285Y-110610714D01*
X113809523Y-110658333D01*
X113857142Y-110753571D01*
X113857142Y-110848809D01*
X113380952Y-110944047D01*
X114285714Y-111277380D02*
X114285714Y-110610714D01*
X114285714Y-110801190D02*
X114333333Y-110705952D01*
X114380952Y-110658333D01*
X114476190Y-110610714D01*
X114571428Y-110610714D01*
X114904761Y-110610714D02*
X114904761Y-111610714D01*
X114904761Y-110658333D02*
X115000000Y-110610714D01*
X115190476Y-110610714D01*
X115285714Y-110658333D01*
X115333333Y-110705952D01*
X115380952Y-110801190D01*
X115380952Y-111086904D01*
X115333333Y-111182142D01*
X115285714Y-111229761D01*
X115190476Y-111277380D01*
X115000000Y-111277380D01*
X114904761Y-111229761D01*
X115952380Y-111277380D02*
X115857142Y-111229761D01*
X115809523Y-111182142D01*
X115761904Y-111086904D01*
X115761904Y-110801190D01*
X115809523Y-110705952D01*
X115857142Y-110658333D01*
X115952380Y-110610714D01*
X116095238Y-110610714D01*
X116190476Y-110658333D01*
X116238095Y-110705952D01*
X116285714Y-110801190D01*
X116285714Y-111086904D01*
X116238095Y-111182142D01*
X116190476Y-111229761D01*
X116095238Y-111277380D01*
X115952380Y-111277380D01*
X116666666Y-111229761D02*
X116761904Y-111277380D01*
X116952380Y-111277380D01*
X117047619Y-111229761D01*
X117095238Y-111134523D01*
X117095238Y-111086904D01*
X117047619Y-110991666D01*
X116952380Y-110944047D01*
X116809523Y-110944047D01*
X116714285Y-110896428D01*
X116666666Y-110801190D01*
X116666666Y-110753571D01*
X116714285Y-110658333D01*
X116809523Y-110610714D01*
X116952380Y-110610714D01*
X117047619Y-110658333D01*
X117904761Y-111229761D02*
X117809523Y-111277380D01*
X117619047Y-111277380D01*
X117523809Y-111229761D01*
X117476190Y-111134523D01*
X117476190Y-110753571D01*
X117523809Y-110658333D01*
X117619047Y-110610714D01*
X117809523Y-110610714D01*
X117904761Y-110658333D01*
X117952380Y-110753571D01*
X117952380Y-110848809D01*
X117476190Y-110944047D01*
X118380952Y-111277380D02*
X118380952Y-110610714D01*
X118380952Y-110801190D02*
X118428571Y-110705952D01*
X118476190Y-110658333D01*
X118571428Y-110610714D01*
X118666666Y-110610714D01*
X94787976Y-108722619D02*
X94835595Y-108675000D01*
X94930833Y-108627380D01*
X95168928Y-108627380D01*
X95264166Y-108675000D01*
X95311785Y-108722619D01*
X95359404Y-108817857D01*
X95359404Y-108913095D01*
X95311785Y-109055952D01*
X94740357Y-109627380D01*
X95359404Y-109627380D01*
X95978452Y-108627380D02*
X96073690Y-108627380D01*
X96168928Y-108675000D01*
X96216547Y-108722619D01*
X96264166Y-108817857D01*
X96311785Y-109008333D01*
X96311785Y-109246428D01*
X96264166Y-109436904D01*
X96216547Y-109532142D01*
X96168928Y-109579761D01*
X96073690Y-109627380D01*
X95978452Y-109627380D01*
X95883214Y-109579761D01*
X95835595Y-109532142D01*
X95787976Y-109436904D01*
X95740357Y-109246428D01*
X95740357Y-109008333D01*
X95787976Y-108817857D01*
X95835595Y-108722619D01*
X95883214Y-108675000D01*
X95978452Y-108627380D01*
X97264166Y-109627380D02*
X96692738Y-109627380D01*
X96978452Y-109627380D02*
X96978452Y-108627380D01*
X96883214Y-108770238D01*
X96787976Y-108865476D01*
X96692738Y-108913095D01*
X97835595Y-109055952D02*
X97740357Y-109008333D01*
X97692738Y-108960714D01*
X97645119Y-108865476D01*
X97645119Y-108817857D01*
X97692738Y-108722619D01*
X97740357Y-108675000D01*
X97835595Y-108627380D01*
X98026071Y-108627380D01*
X98121309Y-108675000D01*
X98168928Y-108722619D01*
X98216547Y-108817857D01*
X98216547Y-108865476D01*
X98168928Y-108960714D01*
X98121309Y-109008333D01*
X98026071Y-109055952D01*
X97835595Y-109055952D01*
X97740357Y-109103571D01*
X97692738Y-109151190D01*
X97645119Y-109246428D01*
X97645119Y-109436904D01*
X97692738Y-109532142D01*
X97740357Y-109579761D01*
X97835595Y-109627380D01*
X98026071Y-109627380D01*
X98121309Y-109579761D01*
X98168928Y-109532142D01*
X98216547Y-109436904D01*
X98216547Y-109246428D01*
X98168928Y-109151190D01*
X98121309Y-109103571D01*
X98026071Y-109055952D01*
X99168928Y-109627380D02*
X98597500Y-109627380D01*
X98883214Y-109627380D02*
X98883214Y-108627380D01*
X98787976Y-108770238D01*
X98692738Y-108865476D01*
X98597500Y-108913095D01*
X99549880Y-108722619D02*
X99597500Y-108675000D01*
X99692738Y-108627380D01*
X99930833Y-108627380D01*
X100026071Y-108675000D01*
X100073690Y-108722619D01*
X100121309Y-108817857D01*
X100121309Y-108913095D01*
X100073690Y-109055952D01*
X99502261Y-109627380D01*
X100121309Y-109627380D01*
X100740357Y-108627380D02*
X100835595Y-108627380D01*
X100930833Y-108675000D01*
X100978452Y-108722619D01*
X101026071Y-108817857D01*
X101073690Y-109008333D01*
X101073690Y-109246428D01*
X101026071Y-109436904D01*
X100978452Y-109532142D01*
X100930833Y-109579761D01*
X100835595Y-109627380D01*
X100740357Y-109627380D01*
X100645119Y-109579761D01*
X100597500Y-109532142D01*
X100549880Y-109436904D01*
X100502261Y-109246428D01*
X100502261Y-109008333D01*
X100549880Y-108817857D01*
X100597500Y-108722619D01*
X100645119Y-108675000D01*
X100740357Y-108627380D01*
X102026071Y-109627380D02*
X101454642Y-109627380D01*
X101740357Y-109627380D02*
X101740357Y-108627380D01*
X101645119Y-108770238D01*
X101549880Y-108865476D01*
X101454642Y-108913095D01*
X94835595Y-111277380D02*
X94835595Y-110610714D01*
X94835595Y-110801190D02*
X94883214Y-110705952D01*
X94930833Y-110658333D01*
X95026071Y-110610714D01*
X95121309Y-110610714D01*
X95978452Y-111277380D02*
X95407023Y-111277380D01*
X95692738Y-111277380D02*
X95692738Y-110277380D01*
X95597500Y-110420238D01*
X95502261Y-110515476D01*
X95407023Y-110563095D01*
X97121309Y-110991666D02*
X97597500Y-110991666D01*
X97026071Y-111277380D02*
X97359404Y-110277380D01*
X97692738Y-111277380D01*
X98549880Y-110325000D02*
X98454642Y-110277380D01*
X98311785Y-110277380D01*
X98168928Y-110325000D01*
X98073690Y-110420238D01*
X98026071Y-110515476D01*
X97978452Y-110705952D01*
X97978452Y-110848809D01*
X98026071Y-111039285D01*
X98073690Y-111134523D01*
X98168928Y-111229761D01*
X98311785Y-111277380D01*
X98407023Y-111277380D01*
X98549880Y-111229761D01*
X98597500Y-111182142D01*
X98597500Y-110848809D01*
X98407023Y-110848809D01*
X117857142Y-126678571D02*
X118714285Y-126678571D01*
X118285714Y-128178571D02*
X118285714Y-126678571D01*
X119071428Y-126678571D02*
X120071428Y-128178571D01*
X120071428Y-126678571D02*
X119071428Y-128178571D01*
X118750000Y-108178571D02*
X118250000Y-107464285D01*
X117892857Y-108178571D02*
X117892857Y-106678571D01*
X118464285Y-106678571D01*
X118607142Y-106750000D01*
X118678571Y-106821428D01*
X118750000Y-106964285D01*
X118750000Y-107178571D01*
X118678571Y-107321428D01*
X118607142Y-107392857D01*
X118464285Y-107464285D01*
X117892857Y-107464285D01*
X119250000Y-106678571D02*
X120250000Y-108178571D01*
X120250000Y-106678571D02*
X119250000Y-108178571D01*
G04 #@! TO.C,J102*
X110100000Y-128100000D02*
X110100000Y-111900000D01*
X104800000Y-128100000D02*
X110100000Y-128100000D01*
X94700000Y-128100000D02*
X102000000Y-128100000D01*
X94700000Y-111900000D02*
X94700000Y-128100000D01*
X102000000Y-111900000D02*
X94700000Y-111900000D01*
X110100000Y-111900000D02*
X104800000Y-111900000D01*
G04 #@! TO.C,U101*
X117625000Y-93500000D02*
X118550000Y-93500000D01*
X117625000Y-90375000D02*
X114375000Y-90375000D01*
X117625000Y-93625000D02*
X114375000Y-93625000D01*
X117625000Y-90375000D02*
X117625000Y-90590000D01*
X114375000Y-90375000D02*
X114375000Y-90590000D01*
X114375000Y-93625000D02*
X114375000Y-93410000D01*
X117625000Y-93625000D02*
X117625000Y-93500000D01*
G04 #@! TO.C,J101*
X110100000Y-108100000D02*
X110100000Y-91900000D01*
X104800000Y-108100000D02*
X110100000Y-108100000D01*
X94700000Y-108100000D02*
X102000000Y-108100000D01*
X94700000Y-91900000D02*
X94700000Y-108100000D01*
X102000000Y-91900000D02*
X94700000Y-91900000D01*
X110100000Y-91900000D02*
X104800000Y-91900000D01*
G04 #@! TO.C,IC102*
X113375000Y-99025000D02*
X113975000Y-99625000D01*
X112025000Y-99025000D02*
X113375000Y-99025000D01*
X112025000Y-100975000D02*
X112025000Y-99025000D01*
X113975000Y-100975000D02*
X112025000Y-100975000D01*
X113975000Y-99625000D02*
X113975000Y-100975000D01*
G04 #@! TO.C,IC101*
X113375000Y-119025000D02*
X113975000Y-119625000D01*
X112025000Y-119025000D02*
X113375000Y-119025000D01*
X112025000Y-120975000D02*
X112025000Y-119025000D01*
X113975000Y-120975000D02*
X112025000Y-120975000D01*
X113975000Y-119625000D02*
X113975000Y-120975000D01*
G04 #@! TO.C,C102*
X120550000Y-92125000D02*
X119450000Y-92125000D01*
X120550000Y-91875000D02*
X120550000Y-92125000D01*
X119450000Y-91875000D02*
X120550000Y-91875000D01*
X119450000Y-92125000D02*
X119450000Y-91875000D01*
G04 #@! TO.C,C101*
X112550000Y-92125000D02*
X111450000Y-92125000D01*
X112550000Y-91875000D02*
X112550000Y-92125000D01*
X111450000Y-91875000D02*
X112550000Y-91875000D01*
X111450000Y-92125000D02*
X111450000Y-91875000D01*
G04 #@! TD*
M02*
