G04 #@! TF.GenerationSoftware,KiCad,Pcbnew,6.0.0-rc1-unknown-650478f~84~ubuntu18.04.1*
G04 #@! TF.CreationDate,2018-11-23T01:33:21+00:00*
G04 #@! TF.ProjectId,proto-sensor,70726F746F2D73656E736F722E6B6963,rev?*
G04 #@! TF.SameCoordinates,Original*
G04 #@! TF.FileFunction,Legend,Top*
G04 #@! TF.FilePolarity,Positive*
%FSLAX46Y46*%
G04 Gerber Fmt 4.6, Leading zero omitted, Abs format (unit mm)*
G04 Created by KiCad (PCBNEW 6.0.0-rc1-unknown-650478f~84~ubuntu18.04.1) date Fri 23 Nov 2018 01:33:21 GMT*
%MOMM*%
%LPD*%
G01*
G04 APERTURE LIST*
%ADD10C,0.150000*%
%ADD11R,0.660000X0.660000*%
%ADD12R,0.990000X1.040000*%
%ADD13R,3.930000X1.490000*%
%ADD14R,0.840000X1.040000*%
%ADD15R,1.440000X1.040000*%
%ADD16C,0.827000*%
%ADD17C,1.040000*%
%ADD18C,1.056000*%
%ADD19R,0.640000X1.140000*%
%ADD20R,1.040000X0.640000*%
%ADD21R,0.890000X0.340000*%
%ADD22R,0.340000X0.290000*%
%ADD23R,1.040000X0.990000*%
%ADD24C,2.580000*%
%ADD25C,3.291200*%
%ADD26C,1.440000*%
%ADD27C,3.240000*%
%ADD28C,2.040000*%
%ADD29C,0.440000*%
G04 APERTURE END LIST*
D10*
G04 #@! TO.C,D2*
X67175000Y-76425000D02*
X67175000Y-75775000D01*
X67425000Y-76100000D02*
X67175000Y-75775000D01*
X67425000Y-76100000D02*
X67175000Y-76425000D01*
G04 #@! TO.C,L1*
X65725000Y-69050000D02*
X69475000Y-69050000D01*
X65725000Y-70150000D02*
X65725000Y-69050000D01*
X69475000Y-70150000D02*
X65725000Y-70150000D01*
X69475000Y-69050000D02*
X69475000Y-70150000D01*
G04 #@! TO.C,Y1*
X63450000Y-76600000D02*
X62850000Y-76600000D01*
X62850000Y-76600000D02*
X62850000Y-78200000D01*
X62850000Y-78200000D02*
X63750000Y-78200000D01*
X63750000Y-78200000D02*
X63750000Y-76850000D01*
X63450000Y-76600000D02*
X63750000Y-76850000D01*
G04 #@! TO.C,SW1*
X54225000Y-99300000D02*
X50575000Y-99300000D01*
X54225000Y-93700000D02*
X54225000Y-99300000D01*
X50575000Y-93700000D02*
X54225000Y-93700000D01*
X50575000Y-99300000D02*
X50575000Y-93700000D01*
G04 #@! TO.C,J1*
X65385500Y-99675000D02*
X65385500Y-96500000D01*
X68814500Y-99675000D02*
X65385500Y-99675000D01*
X68814500Y-93325000D02*
X68814500Y-99675000D01*
X65385500Y-93325000D02*
X68814500Y-93325000D01*
X65385500Y-96500000D02*
X65385500Y-93325000D01*
X64560000Y-93960000D02*
X65385500Y-93960000D01*
X64560000Y-99040000D02*
X64560000Y-93960000D01*
X65385500Y-99040000D02*
X64560000Y-99040000D01*
X69640000Y-97579500D02*
X68814500Y-97579500D01*
X69640000Y-99040000D02*
X69640000Y-97579500D01*
X68814500Y-99040000D02*
X69640000Y-99040000D01*
X69640000Y-95420500D02*
X68814500Y-95420500D01*
X69640000Y-93960000D02*
X69640000Y-95420500D01*
X68814500Y-93960000D02*
X69640000Y-93960000D01*
G04 #@! TO.C,IC6*
X59550000Y-101950000D02*
X59050000Y-101450000D01*
X60950000Y-101950000D02*
X59550000Y-101950000D01*
X60950000Y-101450000D02*
X60950000Y-101950000D01*
X59050000Y-101450000D02*
X60950000Y-101450000D01*
X59050000Y-101450000D02*
X59050000Y-101450000D01*
G04 #@! TO.C,IC3*
X59850000Y-68550000D02*
X60150000Y-68250000D01*
X59850000Y-70150000D02*
X59850000Y-68550000D01*
X60150000Y-70150000D02*
X59850000Y-70150000D01*
X60150000Y-68250000D02*
X60150000Y-70150000D01*
X60150000Y-68250000D02*
X60150000Y-68250000D01*
G04 #@! TO.C,IC2*
X63675000Y-69400000D02*
X63725000Y-69350000D01*
X63675000Y-70850000D02*
X63675000Y-69400000D01*
X63725000Y-70850000D02*
X63675000Y-70850000D01*
X63725000Y-69350000D02*
X63725000Y-70850000D01*
X63725000Y-69350000D02*
X63725000Y-69350000D01*
G04 #@! TO.C,D3*
X67175000Y-79225000D02*
X67175000Y-78575000D01*
X67425000Y-78900000D02*
X67175000Y-78575000D01*
X67425000Y-78900000D02*
X67175000Y-79225000D01*
G04 #@! TO.C,D1*
X67175000Y-73625000D02*
X67175000Y-72975000D01*
X67425000Y-73300000D02*
X67175000Y-72975000D01*
X67425000Y-73300000D02*
X67175000Y-73625000D01*
G04 #@! TO.C,C16*
X63575000Y-66825000D02*
X63575000Y-66175000D01*
X63825000Y-66825000D02*
X63575000Y-66825000D01*
X63825000Y-66175000D02*
X63825000Y-66825000D01*
X63575000Y-66175000D02*
X63825000Y-66175000D01*
G04 #@! TO.C,IC5*
X67575000Y-87650000D02*
X66975000Y-88250000D01*
X67575000Y-86750000D02*
X67575000Y-87650000D01*
X66425000Y-86750000D02*
X67575000Y-86750000D01*
X66425000Y-88250000D02*
X66425000Y-86750000D01*
X66975000Y-88250000D02*
X66425000Y-88250000D01*
G04 #@! TO.C,C17*
X63575000Y-68325000D02*
X63575000Y-67675000D01*
X63825000Y-68325000D02*
X63575000Y-68325000D01*
X63825000Y-67675000D02*
X63825000Y-68325000D01*
X63575000Y-67675000D02*
X63825000Y-67675000D01*
G04 #@! TO.C,C19*
X59825000Y-76475000D02*
X59825000Y-77125000D01*
X59575000Y-76475000D02*
X59825000Y-76475000D01*
X59575000Y-77125000D02*
X59575000Y-76475000D01*
X59825000Y-77125000D02*
X59575000Y-77125000D01*
G04 #@! TO.C,C13*
X52575000Y-86875000D02*
X53225000Y-86875000D01*
X52575000Y-87125000D02*
X52575000Y-86875000D01*
X53225000Y-87125000D02*
X52575000Y-87125000D01*
X53225000Y-86875000D02*
X53225000Y-87125000D01*
G04 #@! TO.C,IC1*
X68100000Y-65100000D02*
X68100000Y-59800000D01*
X68100000Y-57000000D02*
X68100000Y-49700000D01*
X68100000Y-49700000D02*
X51900000Y-49700000D01*
X51900000Y-49700000D02*
X51900000Y-57000000D01*
X51900000Y-59800000D02*
X51900000Y-65100000D01*
X51900000Y-65100000D02*
X68100000Y-65100000D01*
G04 #@! TO.C,P1*
X55000001Y-114900000D02*
G75*
G02X55000001Y-109100001I4999999J2900000D01*
G01*
X57100000Y-107000001D02*
G75*
G02X62899999Y-107000001I2900000J-4999999D01*
G01*
X64999999Y-109100000D02*
G75*
G02X64999999Y-114899999I-4999999J-2900000D01*
G01*
X64700000Y-118500000D02*
X55300000Y-118500000D01*
X65700000Y-119200000D02*
X54300000Y-119200000D01*
X65700000Y-119800000D02*
X54300000Y-119300000D01*
X65700000Y-120300000D02*
X54300000Y-119800000D01*
X65700000Y-120800000D02*
X54300000Y-120300000D01*
X65700000Y-121300000D02*
X54300000Y-120800000D01*
X65600000Y-121800000D02*
X54300000Y-121300000D01*
X65700000Y-122300000D02*
X54300000Y-121800000D01*
X65700000Y-123800000D02*
X54300000Y-123300000D01*
X65700000Y-122800000D02*
X54300000Y-122300000D01*
X65700000Y-123300000D02*
X54300000Y-122800000D01*
X55300000Y-118500000D02*
X55300000Y-116300000D01*
X52700000Y-118500000D02*
X55300000Y-118500000D01*
X52700000Y-119200000D02*
X52700000Y-118500000D01*
X54300000Y-119200000D02*
X52700000Y-119200000D01*
X54300000Y-123800000D02*
X54300000Y-119200000D01*
X55300000Y-123800000D02*
X54300000Y-123800000D01*
X55300000Y-134600000D02*
X55300000Y-123800000D01*
X64700000Y-134600000D02*
X55300000Y-134600000D01*
X64700000Y-116300000D02*
X64700000Y-116300000D01*
X64700000Y-118500000D02*
X64700000Y-116300000D01*
X67300000Y-118500000D02*
X64700000Y-118500000D01*
X67300000Y-119200000D02*
X67300000Y-118500000D01*
X65700000Y-119200000D02*
X67300000Y-119200000D01*
X65700000Y-123800000D02*
X65700000Y-119200000D01*
X64700000Y-123800000D02*
X65700000Y-123800000D01*
X64700000Y-134600000D02*
X64700000Y-123800000D01*
G04 #@! TO.C,IC4*
X55600000Y-79500000D02*
G75*
G03X55600000Y-79500000I-100000J0D01*
G01*
X55350000Y-80500000D02*
X55350000Y-81600000D01*
X56500000Y-79350000D02*
X55350000Y-80500000D01*
X57600000Y-79350000D02*
X56500000Y-79350000D01*
X55350000Y-88650000D02*
X55350000Y-86400000D01*
X57600000Y-88650000D02*
X55350000Y-88650000D01*
X64650000Y-79350000D02*
X64650000Y-81600000D01*
X62400000Y-79350000D02*
X64650000Y-79350000D01*
X64650000Y-88650000D02*
X64650000Y-86400000D01*
X62400000Y-88650000D02*
X64650000Y-88650000D01*
X64650000Y-79350000D02*
X64650000Y-81600000D01*
X62400000Y-79350000D02*
X64650000Y-79350000D01*
X64650000Y-79350000D02*
X64650000Y-81600000D01*
X62400000Y-79350000D02*
X64650000Y-79350000D01*
G04 #@! TD*
%LPC*%
D11*
G04 #@! TO.C,C30*
X69300000Y-80250000D03*
X69300000Y-81150000D03*
G04 #@! TD*
G04 #@! TO.C,C29*
X53350000Y-79800000D03*
X54250000Y-79800000D03*
G04 #@! TD*
G04 #@! TO.C,C24*
X53350000Y-78600000D03*
X54250000Y-78600000D03*
G04 #@! TD*
D12*
G04 #@! TO.C,D2*
X66500000Y-76100000D03*
X68100000Y-76100000D03*
G04 #@! TD*
D13*
G04 #@! TO.C,L1*
X67600000Y-71075000D03*
X67600000Y-68125000D03*
G04 #@! TD*
D14*
G04 #@! TO.C,Y1*
X62250000Y-78100000D03*
X62250000Y-76700000D03*
X64350000Y-78100000D03*
X64350000Y-76700000D03*
G04 #@! TD*
D15*
G04 #@! TO.C,SW1*
X52400000Y-93000000D03*
X52400000Y-100000000D03*
G04 #@! TD*
D11*
G04 #@! TO.C,R19*
X60450000Y-104400000D03*
X59550000Y-104400000D03*
G04 #@! TD*
G04 #@! TO.C,R11*
X68100000Y-81150000D03*
X68100000Y-80250000D03*
G04 #@! TD*
D16*
G04 #@! TO.C,J2*
X62640000Y-95970000D03*
X61370000Y-95970000D03*
X62640000Y-94700000D03*
X61370000Y-94700000D03*
X62640000Y-93430000D03*
X61370000Y-93430000D03*
D17*
X62005000Y-97240000D03*
X63021000Y-92160000D03*
X60989000Y-92160000D03*
G04 #@! TD*
D18*
G04 #@! TO.C,J1*
X66465000Y-93960000D03*
X67735000Y-93960000D03*
X66465000Y-95230000D03*
X67735000Y-95230000D03*
X66465000Y-96500000D03*
X67735000Y-96500000D03*
X66465000Y-97770000D03*
X67735000Y-97770000D03*
X66465000Y-99040000D03*
X67735000Y-99040000D03*
G04 #@! TD*
D19*
G04 #@! TO.C,IC6*
X59050000Y-100400000D03*
X60000000Y-100400000D03*
X60950000Y-100400000D03*
X60950000Y-103000000D03*
X60000000Y-103000000D03*
X59050000Y-103000000D03*
G04 #@! TD*
D20*
G04 #@! TO.C,IC3*
X61150000Y-69200000D03*
X58850000Y-70150000D03*
X58850000Y-68250000D03*
G04 #@! TD*
D21*
G04 #@! TO.C,IC2*
X64650000Y-69350000D03*
X64650000Y-69850000D03*
X64650000Y-70350000D03*
X64650000Y-70850000D03*
X62750000Y-70850000D03*
X62750000Y-70350000D03*
X62750000Y-69850000D03*
X62750000Y-69350000D03*
G04 #@! TD*
D11*
G04 #@! TO.C,D4*
X57450000Y-104400000D03*
X58350000Y-104400000D03*
G04 #@! TD*
D12*
G04 #@! TO.C,D3*
X66500000Y-78900000D03*
X68100000Y-78900000D03*
G04 #@! TD*
G04 #@! TO.C,D1*
X66500000Y-73300000D03*
X68100000Y-73300000D03*
G04 #@! TD*
D11*
G04 #@! TO.C,C27*
X62550000Y-104400000D03*
X61650000Y-104400000D03*
G04 #@! TD*
G04 #@! TO.C,C25*
X57500000Y-102250000D03*
X57500000Y-103150000D03*
G04 #@! TD*
G04 #@! TO.C,C22*
X59950000Y-72000000D03*
X59050000Y-72000000D03*
G04 #@! TD*
G04 #@! TO.C,C21*
X60550000Y-66500000D03*
X61450000Y-66500000D03*
G04 #@! TD*
G04 #@! TO.C,C18*
X62050000Y-72000000D03*
X61150000Y-72000000D03*
G04 #@! TD*
D12*
G04 #@! TO.C,C16*
X64500000Y-66500000D03*
X62900000Y-66500000D03*
G04 #@! TD*
D11*
G04 #@! TO.C,C15*
X63250000Y-72000000D03*
X64150000Y-72000000D03*
G04 #@! TD*
G04 #@! TO.C,R15*
X69250000Y-86850000D03*
X69250000Y-87750000D03*
G04 #@! TD*
G04 #@! TO.C,R17*
X69300000Y-84450000D03*
X69300000Y-85350000D03*
G04 #@! TD*
G04 #@! TO.C,R14*
X68100000Y-85350000D03*
X68100000Y-84450000D03*
G04 #@! TD*
G04 #@! TO.C,R10*
X66850000Y-77500000D03*
X67750000Y-77500000D03*
G04 #@! TD*
G04 #@! TO.C,R9*
X66850000Y-74700000D03*
X67750000Y-74700000D03*
G04 #@! TD*
G04 #@! TO.C,R18*
X69350000Y-90600000D03*
X68450000Y-90600000D03*
G04 #@! TD*
G04 #@! TO.C,C26*
X63400000Y-99850000D03*
X63400000Y-98950000D03*
G04 #@! TD*
D22*
G04 #@! TO.C,IC5*
X65775000Y-88250000D03*
X65775000Y-87750000D03*
X65775000Y-87250000D03*
X65775000Y-86750000D03*
X68225000Y-86750000D03*
X68225000Y-87250000D03*
X68225000Y-87750000D03*
X68225000Y-88250000D03*
G04 #@! TD*
D11*
G04 #@! TO.C,C28*
X62850000Y-75300000D03*
X63750000Y-75300000D03*
G04 #@! TD*
D12*
G04 #@! TO.C,C17*
X64500000Y-68000000D03*
X62900000Y-68000000D03*
G04 #@! TD*
D11*
G04 #@! TO.C,C23*
X67250000Y-89400000D03*
X66350000Y-89400000D03*
G04 #@! TD*
G04 #@! TO.C,C12*
X65700000Y-80250000D03*
X65700000Y-81150000D03*
G04 #@! TD*
G04 #@! TO.C,C11*
X51900000Y-83850000D03*
X51900000Y-84750000D03*
G04 #@! TD*
G04 #@! TO.C,C10*
X54300000Y-90250000D03*
X54300000Y-89350000D03*
G04 #@! TD*
G04 #@! TO.C,C4*
X54300000Y-83850000D03*
X54300000Y-84750000D03*
G04 #@! TD*
G04 #@! TO.C,C9*
X66900000Y-85350000D03*
X66900000Y-84450000D03*
G04 #@! TD*
G04 #@! TO.C,C3*
X65700000Y-82350000D03*
X65700000Y-83250000D03*
G04 #@! TD*
G04 #@! TO.C,C8*
X66900000Y-80250000D03*
X66900000Y-81150000D03*
G04 #@! TD*
G04 #@! TO.C,C6*
X65700000Y-85350000D03*
X65700000Y-84450000D03*
G04 #@! TD*
G04 #@! TO.C,C2*
X66900000Y-82350000D03*
X66900000Y-83250000D03*
G04 #@! TD*
G04 #@! TO.C,C7*
X53100000Y-90250000D03*
X53100000Y-89350000D03*
G04 #@! TD*
G04 #@! TO.C,C5*
X50700000Y-83850000D03*
X50700000Y-84750000D03*
G04 #@! TD*
G04 #@! TO.C,C1*
X53100000Y-83850000D03*
X53100000Y-84750000D03*
G04 #@! TD*
D17*
G04 #@! TO.C,TP1*
X63500000Y-89800000D03*
G04 #@! TD*
G04 #@! TO.C,TP2*
X65000000Y-89800000D03*
G04 #@! TD*
D11*
G04 #@! TO.C,R13*
X68100000Y-82350000D03*
X68100000Y-83250000D03*
G04 #@! TD*
G04 #@! TO.C,R12*
X66350000Y-90600000D03*
X67250000Y-90600000D03*
G04 #@! TD*
G04 #@! TO.C,R16*
X68450000Y-89400000D03*
X69350000Y-89400000D03*
G04 #@! TD*
G04 #@! TO.C,R8*
X60150000Y-75300000D03*
X59250000Y-75300000D03*
G04 #@! TD*
G04 #@! TO.C,R7*
X51500000Y-86550000D03*
X51500000Y-87450000D03*
G04 #@! TD*
G04 #@! TO.C,C20*
X59250000Y-78300000D03*
X60150000Y-78300000D03*
G04 #@! TD*
G04 #@! TO.C,C14*
X54300000Y-87450000D03*
X54300000Y-86550000D03*
G04 #@! TD*
D12*
G04 #@! TO.C,C19*
X58900000Y-76800000D03*
X60500000Y-76800000D03*
G04 #@! TD*
D23*
G04 #@! TO.C,C13*
X52900000Y-87800000D03*
X52900000Y-86200000D03*
G04 #@! TD*
D24*
G04 #@! TO.C,IC1*
X51872000Y-58429000D03*
X68128000Y-58429000D03*
D25*
X53650000Y-55000000D03*
X66350000Y-55000000D03*
D26*
X55428000Y-64144000D03*
X64572000Y-64144000D03*
X53142000Y-64144000D03*
X66858000Y-64144000D03*
X56444000Y-57540000D03*
X58476000Y-57540000D03*
X60508000Y-57540000D03*
X62540000Y-57540000D03*
X57460000Y-59318000D03*
X59492000Y-59318000D03*
X61524000Y-59318000D03*
X63556000Y-59318000D03*
G04 #@! TD*
D11*
G04 #@! TO.C,R4*
X54250000Y-82200000D03*
X53350000Y-82200000D03*
G04 #@! TD*
G04 #@! TO.C,R6*
X54250000Y-81000000D03*
X53350000Y-81000000D03*
G04 #@! TD*
G04 #@! TO.C,R3*
X67650000Y-66400000D03*
X66750000Y-66400000D03*
G04 #@! TD*
G04 #@! TO.C,R1*
X53250000Y-66400000D03*
X52350000Y-66400000D03*
G04 #@! TD*
G04 #@! TO.C,R5*
X52000000Y-81150000D03*
X52000000Y-82050000D03*
G04 #@! TD*
G04 #@! TO.C,R2*
X56650000Y-78200000D03*
X55750000Y-78200000D03*
G04 #@! TD*
D27*
G04 #@! TO.C,P1*
X56700000Y-108700000D03*
X63300000Y-108700000D03*
X56700000Y-115300000D03*
D28*
X60000000Y-112000000D03*
D27*
X63300000Y-115300000D03*
G04 #@! TD*
D29*
G04 #@! TO.C,IC4*
X64000000Y-88000000D03*
X64000000Y-87200000D03*
X64000000Y-86400000D03*
X64000000Y-85600000D03*
X64000000Y-84800000D03*
X64000000Y-84000000D03*
X64000000Y-83200000D03*
X64000000Y-82400000D03*
X64000000Y-81600000D03*
X64000000Y-80800000D03*
X64000000Y-80000000D03*
X63200000Y-88000000D03*
X63200000Y-87200000D03*
X63200000Y-86400000D03*
X63200000Y-85600000D03*
X63200000Y-84800000D03*
X63200000Y-84000000D03*
X63200000Y-83200000D03*
X63200000Y-82400000D03*
X63200000Y-81600000D03*
X63200000Y-80800000D03*
X63200000Y-80000000D03*
X62400000Y-88000000D03*
X62400000Y-87200000D03*
X62400000Y-86400000D03*
X62400000Y-85600000D03*
X62400000Y-84800000D03*
X62400000Y-84000000D03*
X62400000Y-83200000D03*
X62400000Y-82400000D03*
X62400000Y-81600000D03*
X62400000Y-80800000D03*
X62400000Y-80000000D03*
X61600000Y-88000000D03*
X61600000Y-87200000D03*
X61600000Y-86400000D03*
X61600000Y-85600000D03*
X61600000Y-84800000D03*
X61600000Y-84000000D03*
X61600000Y-83200000D03*
X61600000Y-82400000D03*
X61600000Y-81600000D03*
X61600000Y-80800000D03*
X61600000Y-80000000D03*
X60800000Y-88000000D03*
X60800000Y-87200000D03*
X60800000Y-86400000D03*
X60800000Y-85600000D03*
X60800000Y-84800000D03*
X60800000Y-84000000D03*
X60800000Y-83200000D03*
X60800000Y-82400000D03*
X60800000Y-81600000D03*
X60800000Y-80800000D03*
X60800000Y-80000000D03*
X60000000Y-88000000D03*
X60000000Y-87200000D03*
X60000000Y-86400000D03*
X60000000Y-85600000D03*
X60000000Y-84800000D03*
X60000000Y-84000000D03*
X60000000Y-83200000D03*
X60000000Y-82400000D03*
X60000000Y-81600000D03*
X60000000Y-80800000D03*
X60000000Y-80000000D03*
X59200000Y-88000000D03*
X59200000Y-87200000D03*
X59200000Y-86400000D03*
X59200000Y-85600000D03*
X59200000Y-84800000D03*
X59200000Y-84000000D03*
X59200000Y-83200000D03*
X59200000Y-82400000D03*
X59200000Y-81600000D03*
X59200000Y-80800000D03*
X59200000Y-80000000D03*
X58400000Y-88000000D03*
X58400000Y-87200000D03*
X58400000Y-86400000D03*
X58400000Y-85600000D03*
X58400000Y-84800000D03*
X58400000Y-84000000D03*
X58400000Y-83200000D03*
X58400000Y-82400000D03*
X58400000Y-81600000D03*
X58400000Y-80800000D03*
X58400000Y-80000000D03*
X57600000Y-88000000D03*
X57600000Y-87200000D03*
X57600000Y-86400000D03*
X57600000Y-85600000D03*
X57600000Y-84800000D03*
X57600000Y-84000000D03*
X57600000Y-83200000D03*
X57600000Y-82400000D03*
X57600000Y-81600000D03*
X57600000Y-80800000D03*
X57600000Y-80000000D03*
X56800000Y-88000000D03*
X56800000Y-87200000D03*
X56800000Y-86400000D03*
X56800000Y-85600000D03*
X56800000Y-84800000D03*
X56800000Y-84000000D03*
X56800000Y-83200000D03*
X56800000Y-82400000D03*
X56800000Y-81600000D03*
X56800000Y-80800000D03*
X56800000Y-80000000D03*
X56000000Y-88000000D03*
X56000000Y-87200000D03*
X56000000Y-86400000D03*
X56000000Y-85600000D03*
X56000000Y-84800000D03*
X56000000Y-84000000D03*
X56000000Y-83200000D03*
X56000000Y-82400000D03*
X56000000Y-81600000D03*
X56000000Y-80800000D03*
X56000000Y-80000000D03*
G04 #@! TD*
M02*
