M48
;DRILL file {KiCad 6.0.0-rc1-unknown-106eaaa~84~ubuntu18.04.1} date Tue 27 Nov 2018 01:39:06 GMT
;FORMAT={-:-/ absolute / inch / decimal}
FMAT,2
INCH
T1C0.0100
T2C0.0118
T3C0.0157
T4C0.0250
T5C0.0354
T6C0.0394
T7C0.0472
T8C0.0620
T9C0.0866
%
G90
G05
T1
X2.2835Y-3.2283
X2.2835Y-3.2913
X2.2835Y-3.3228
X2.2835Y-3.3858
X2.3465Y-3.2913
X2.3465Y-3.3228
X2.3465Y-3.3543
X2.378Y-3.2283
X2.378Y-3.2913
X2.378Y-3.3228
X2.378Y-3.3858
X2.4094Y-3.2913
X2.4094Y-3.3858
X2.4409Y-3.2598
X2.4724Y-3.1969
X2.501Y-3.4783
X2.5079Y-3.3583
X2.561Y-3.4547
X2.6654Y-3.4528
X2.7047Y-3.3917
T2
X1.9961Y-3.2677
X1.9961Y-3.3701
X2.0079Y-2.4016
X2.0079Y-2.5394
X2.0079Y-2.9528
X2.0079Y-3.0315
X2.0079Y-3.5827
X2.0079Y-3.6614
X2.0079Y-3.7402
X2.0079Y-3.8189
X2.0079Y-3.8976
X2.0079Y-3.9764
X2.0079Y-4.0551
X2.0079Y-4.1339
X2.0079Y-4.2126
X2.0079Y-4.2913
X2.0079Y-4.3701
X2.0079Y-4.4488
X2.0079Y-4.5276
X2.0079Y-4.6063
X2.0079Y-4.685
X2.0315Y-2.6122
X2.0394Y-3.4803
X2.0433Y-3.3661
X2.0591Y-3.5197
X2.0591Y-3.5551
X2.0669Y-2.7874
X2.0669Y-2.8465
X2.0669Y-2.9055
X2.0866Y-2.9528
X2.0866Y-4.685
X2.0965Y-2.6575
X2.0965Y-2.7461
X2.1024Y-3.063
X2.1063Y-2.8543
X2.1161Y-2.2638
X2.1201Y-3.6614
X2.1378Y-3.063
X2.1614Y-3.1575
X2.1654Y-3.7402
X2.1654Y-3.8189
X2.1654Y-3.8976
X2.1654Y-3.9764
X2.1654Y-4.685
X2.1713Y-3.5177
X2.1713Y-3.5531
X2.1732Y-3.3386
X2.1732Y-4.1102
X2.1752Y-2.313
X2.1831Y-2.5807
X2.1831Y-2.687
X2.2323Y-4.0276
X2.2323Y-4.063
X2.2441Y-3.8976
X2.2441Y-4.685
X2.2598Y-2.5512
X2.2638Y-2.2146
X2.2835Y-3.9764
X2.3189Y-2.6575
X2.3228Y-4.685
X2.3425Y-3.563
X2.3425Y-3.622
X2.3425Y-3.6909
X2.3465Y-2.872
X2.3465Y-2.9045
X2.3465Y-2.9291
X2.3504Y-2.6181
X2.4016Y-4.685
X2.4213Y-2.4311
X2.4213Y-2.5866
X2.4291Y-2.872
X2.4409Y-4.0551
X2.4429Y-2.9705
X2.4606Y-3.563
X2.4646Y-3.8937
X2.4803Y-4.685
X2.4823Y-2.878
X2.4882Y-3.1181
X2.4902Y-2.5
X2.4961Y-3.9646
X2.5Y-3.5354
X2.5059Y-3.8189
X2.5079Y-2.9154
X2.5197Y-3.1181
X2.5236Y-3.6772
X2.5315Y-3.5433
X2.5386Y-3.7047
X2.5394Y-3.6024
X2.5472Y-2.9685
X2.5512Y-3.3268
X2.5512Y-3.3583
X2.5512Y-4.1102
X2.5551Y-3.1575
X2.5551Y-3.1969
X2.5551Y-3.2402
X2.5551Y-3.2717
X2.5591Y-4.685
X2.5709Y-3.7008
X2.5748Y-2.9961
X2.5748Y-3.4961
X2.5886Y-2.4311
X2.5984Y-2.3228
X2.5984Y-2.9409
X2.5984Y-3.0512
X2.6063Y-2.7402
X2.6083Y-2.2539
X2.622Y-3.4685
X2.6378Y-3.3937
X2.6378Y-4.685
X2.6457Y-3.4882
X2.6496Y-3.6024
X2.6654Y-3.4134
X2.6969Y-2.6142
X2.7126Y-3.2756
X2.7165Y-2.4016
X2.7165Y-2.5394
X2.7165Y-3.6614
X2.7165Y-3.7402
X2.7165Y-3.8189
X2.7165Y-3.8976
X2.7165Y-3.9764
X2.7165Y-4.0551
X2.7165Y-4.1339
X2.7165Y-4.2126
X2.7165Y-4.2913
X2.7165Y-4.3701
X2.7165Y-4.4488
X2.7165Y-4.5276
X2.7165Y-4.6063
X2.7165Y-4.685
X2.7264Y-2.9134
X2.7264Y-3.0413
X2.7264Y-3.4882
X2.7283Y-3.126
X2.7283Y-3.2283
X2.7323Y-3.5984
X2.7362Y-3.2953
T3
X2.4764Y-2.5551
X2.5276Y-2.8937
X2.5866Y-2.6181
T4
X2.6167Y-3.6992
X2.6167Y-3.7492
X2.6167Y-3.7992
X2.6167Y-3.8492
X2.6167Y-3.8992
X2.6667Y-3.6992
X2.6667Y-3.7492
X2.6667Y-3.7992
X2.6667Y-3.8492
X2.6667Y-3.8992
T5
X2.0922Y-2.5254
X2.1822Y-2.5254
X2.2222Y-2.2654
X2.2622Y-2.3354
X2.3022Y-2.2654
X2.3422Y-2.3354
X2.3822Y-2.2654
X2.4222Y-2.3354
X2.4622Y-2.2654
X2.5022Y-2.3354
X2.5422Y-2.5254
X2.6322Y-2.5254
T6
X2.0295Y-2.6969
T7
X2.3622Y-4.4094
T8
X2.0422Y-2.3004
X2.6822Y-2.3004
T9
X2.2323Y-4.2795
X2.2323Y-4.5394
X2.4921Y-4.2795
X2.4921Y-4.5394
T0
M30
