G04 #@! TF.GenerationSoftware,KiCad,Pcbnew,6.0.0-rc1-unknown-650478f~84~ubuntu18.04.1*
G04 #@! TF.CreationDate,2018-11-23T01:33:21+00:00*
G04 #@! TF.ProjectId,proto-sensor,70726F746F2D73656E736F722E6B6963,rev?*
G04 #@! TF.SameCoordinates,Original*
G04 #@! TF.FileFunction,Copper,L4,Bot,Signal*
G04 #@! TF.FilePolarity,Positive*
%FSLAX46Y46*%
G04 Gerber Fmt 4.6, Leading zero omitted, Abs format (unit mm)*
G04 Created by KiCad (PCBNEW 6.0.0-rc1-unknown-650478f~84~ubuntu18.04.1) date Fri 23 Nov 2018 01:33:21 GMT*
%MOMM*%
%LPD*%
G01*
G04 APERTURE LIST*
G04 #@! TA.AperFunction,ComponentPad*
%ADD10C,1.016000*%
G04 #@! TD*
G04 #@! TA.AperFunction,ComponentPad*
%ADD11C,2.540000*%
G04 #@! TD*
G04 #@! TA.AperFunction,ComponentPad*
%ADD12C,1.400000*%
G04 #@! TD*
G04 #@! TA.AperFunction,ComponentPad*
%ADD13C,3.200000*%
G04 #@! TD*
G04 #@! TA.AperFunction,ComponentPad*
%ADD14C,2.000000*%
G04 #@! TD*
G04 #@! TA.AperFunction,ViaPad*
%ADD15C,0.600000*%
G04 #@! TD*
G04 #@! TA.AperFunction,ViaPad*
%ADD16C,0.800000*%
G04 #@! TD*
G04 #@! TA.AperFunction,ViaPad*
%ADD17C,0.457200*%
G04 #@! TD*
G04 #@! TA.AperFunction,Conductor*
%ADD18C,0.127000*%
G04 #@! TD*
G04 #@! TA.AperFunction,Conductor*
%ADD19C,0.600000*%
G04 #@! TD*
G04 #@! TA.AperFunction,Conductor*
%ADD20C,0.400000*%
G04 #@! TD*
G04 #@! TA.AperFunction,Conductor*
%ADD21C,0.150000*%
G04 #@! TD*
G04 #@! TA.AperFunction,Conductor*
%ADD22C,0.200000*%
G04 #@! TD*
G04 APERTURE END LIST*
D10*
G04 #@! TO.P,J1,10*
G04 #@! TO.N,/FLASH_SDO*
X66465000Y-93960000D03*
G04 #@! TO.P,J1,9*
G04 #@! TO.N,GND*
X67735000Y-93960000D03*
G04 #@! TO.P,J1,8*
G04 #@! TO.N,/CRESET_B*
X66465000Y-95230000D03*
G04 #@! TO.P,J1,7*
G04 #@! TO.N,Net-(J1-Pad7)*
X67735000Y-95230000D03*
G04 #@! TO.P,J1,6*
G04 #@! TO.N,/FLASH_SS*
X66465000Y-96500000D03*
G04 #@! TO.P,J1,5*
G04 #@! TO.N,GND*
X67735000Y-96500000D03*
G04 #@! TO.P,J1,4*
G04 #@! TO.N,/FLASH_SCK*
X66465000Y-97770000D03*
G04 #@! TO.P,J1,3*
G04 #@! TO.N,GND*
X67735000Y-97770000D03*
G04 #@! TO.P,J1,2*
G04 #@! TO.N,/FLASH_SDI*
X66465000Y-99040000D03*
G04 #@! TO.P,J1,1*
G04 #@! TO.N,3v3*
X67735000Y-99040000D03*
G04 #@! TD*
D11*
G04 #@! TO.P,IC1,S*
G04 #@! TO.N,Net-(IC1-PadS)*
X51872000Y-58429000D03*
X68128000Y-58429000D03*
D12*
G04 #@! TO.P,IC1,10*
G04 #@! TO.N,/LED1*
X55428000Y-64144000D03*
G04 #@! TO.P,IC1,11*
G04 #@! TO.N,Net-(IC1-Pad11)*
X64572000Y-64144000D03*
G04 #@! TO.P,IC1,9*
G04 #@! TO.N,Net-(IC1-Pad9)*
X53142000Y-64144000D03*
G04 #@! TO.P,IC1,12*
G04 #@! TO.N,/LED2*
X66858000Y-64144000D03*
G04 #@! TO.P,IC1,1*
G04 #@! TO.N,/TX+*
X56444000Y-57540000D03*
G04 #@! TO.P,IC1,3*
G04 #@! TO.N,/RD+*
X58476000Y-57540000D03*
G04 #@! TO.P,IC1,5*
G04 #@! TO.N,/PWRIN*
X60508000Y-57540000D03*
G04 #@! TO.P,IC1,7*
G04 #@! TO.N,GND*
X62540000Y-57540000D03*
G04 #@! TO.P,IC1,2*
G04 #@! TO.N,/TX-*
X57460000Y-59318000D03*
G04 #@! TO.P,IC1,4*
G04 #@! TO.N,/PWRIN*
X59492000Y-59318000D03*
G04 #@! TO.P,IC1,6*
G04 #@! TO.N,/RD-*
X61524000Y-59318000D03*
G04 #@! TO.P,IC1,8*
G04 #@! TO.N,GND*
X63556000Y-59318000D03*
G04 #@! TD*
D13*
G04 #@! TO.P,P1,2*
G04 #@! TO.N,GND*
X56700000Y-108700000D03*
X63300000Y-108700000D03*
X56700000Y-115300000D03*
D14*
G04 #@! TO.P,P1,1*
G04 #@! TO.N,Net-(D4-Pad1)*
X60000000Y-112000000D03*
D13*
G04 #@! TO.P,P1,2*
G04 #@! TO.N,GND*
X63300000Y-115300000D03*
G04 #@! TD*
D15*
G04 #@! TO.N,3v3*
X64200000Y-72800000D03*
X64900000Y-72800000D03*
X61500000Y-65700000D03*
X50700000Y-85600000D03*
X52300000Y-89400000D03*
X56700000Y-103200000D03*
X64800000Y-84500000D03*
X67300000Y-91500000D03*
X62600000Y-98900000D03*
X69250000Y-88600000D03*
X68900000Y-83200000D03*
X55150000Y-89350000D03*
X63650000Y-97000000D03*
D16*
G04 #@! TO.N,GND*
X65700000Y-66500000D03*
D15*
X68500000Y-66400000D03*
X63200000Y-72800000D03*
X62100000Y-72800000D03*
X59700000Y-66500000D03*
X57900000Y-68200000D03*
X60000000Y-72800000D03*
X66200000Y-69600000D03*
X54100000Y-66400000D03*
X62000000Y-75300000D03*
X64900000Y-82300000D03*
X64900000Y-80200000D03*
X64800000Y-85300000D03*
X66000000Y-74700000D03*
X66000000Y-77500000D03*
X53400000Y-77800000D03*
X50700000Y-83000000D03*
X52300000Y-90300000D03*
X63400000Y-100700000D03*
X56700000Y-102300000D03*
X51000000Y-100100000D03*
D17*
X59600000Y-84400000D03*
X60400000Y-84400000D03*
X60400000Y-83600000D03*
X59600000Y-83600000D03*
D15*
X69300000Y-79400000D03*
X69400000Y-91400000D03*
X67200000Y-88600000D03*
X64100000Y-93400000D03*
X67700000Y-86700000D03*
X69500000Y-83700000D03*
X55150000Y-90250000D03*
G04 #@! TO.N,/LED2*
X61500000Y-64800000D03*
G04 #@! TO.N,/LED1*
X59400000Y-64200000D03*
D16*
G04 #@! TO.N,/PWRIN*
X62900000Y-64900000D03*
D15*
G04 #@! TO.N,1v2*
X54300000Y-77800000D03*
X55200000Y-84400000D03*
X59600000Y-74400000D03*
X51800000Y-88400000D03*
D17*
X64900000Y-83100000D03*
D15*
X69300000Y-82000000D03*
G04 #@! TO.N,/FLASH_SDI*
X62000000Y-89200000D03*
X59150000Y-92050000D03*
D17*
G04 #@! TO.N,/FLASH_SDO*
X67700000Y-87700000D03*
D15*
G04 #@! TO.N,/FLASH_SS*
X65400000Y-88800000D03*
X66600000Y-88100000D03*
D17*
X62000000Y-92600000D03*
D15*
G04 #@! TO.N,/FLASH_SCK*
X59900000Y-92100000D03*
D17*
X63525000Y-88350000D03*
G04 #@! TO.N,/FLASH_IO3*
X65050000Y-87750000D03*
X68700000Y-86150000D03*
D15*
G04 #@! TO.N,/FLASH_IO2*
X67000000Y-86200000D03*
D17*
X63700000Y-85300000D03*
D15*
G04 #@! TO.N,/LED3*
X63200000Y-79200000D03*
D17*
X64800000Y-75400000D03*
D15*
G04 #@! TO.N,/LED4*
X64000000Y-79200000D03*
X65400000Y-76100000D03*
G04 #@! TO.N,/CRESET_B*
X65300000Y-94000000D03*
X53850000Y-93000000D03*
X58500000Y-93000000D03*
G04 #@! TD*
D18*
G04 #@! TO.N,/LED2*
X65402000Y-65600000D02*
X66858000Y-64144000D01*
X61500000Y-64800000D02*
X62300000Y-65600000D01*
X62300000Y-65600000D02*
X65402000Y-65600000D01*
G04 #@! TO.N,/LED1*
X59344000Y-64144000D02*
X55428000Y-64144000D01*
X59400000Y-64200000D02*
X59344000Y-64144000D01*
D19*
G04 #@! TO.N,/PWRIN*
X60508000Y-58302000D02*
X59492000Y-59318000D01*
X60508000Y-57540000D02*
X60508000Y-58302000D01*
X59492000Y-59318000D02*
X59492000Y-61492000D01*
X59492000Y-61492000D02*
X62900000Y-64900000D01*
D20*
G04 #@! TO.N,1v2*
X54300000Y-77800000D02*
X54300000Y-75600000D01*
X54300000Y-77800000D02*
X54300000Y-82600000D01*
X54300000Y-82600000D02*
X55200000Y-83500000D01*
X55200000Y-83500000D02*
X55200000Y-84400000D01*
X55500000Y-74400000D02*
X59600000Y-74400000D01*
X54300000Y-75600000D02*
X55500000Y-74400000D01*
X55200000Y-84400000D02*
X55200000Y-87900000D01*
X55200000Y-87900000D02*
X54700000Y-88400000D01*
X54700000Y-88400000D02*
X51800000Y-88400000D01*
X59600000Y-74400000D02*
X64700000Y-74400000D01*
X64700000Y-74400000D02*
X68600000Y-78300000D01*
X68600000Y-78300000D02*
X68600000Y-81600000D01*
X67100000Y-83100000D02*
X64900000Y-83100000D01*
X68600000Y-81600000D02*
X67100000Y-83100000D01*
X69000000Y-82000000D02*
X68600000Y-81600000D01*
X69300000Y-82000000D02*
X69000000Y-82000000D01*
D18*
G04 #@! TO.N,/FLASH_SDI*
X62000000Y-89200000D02*
X59150000Y-92050000D01*
G04 #@! TO.N,/FLASH_SDO*
X67700000Y-87700000D02*
X67700000Y-89950000D01*
X66465000Y-91185000D02*
X66465000Y-93960000D01*
X67700000Y-89950000D02*
X66465000Y-91185000D01*
G04 #@! TO.N,/FLASH_SS*
X65400000Y-88800000D02*
X65900000Y-88800000D01*
X65900000Y-88800000D02*
X66600000Y-88100000D01*
D21*
X65400000Y-93035000D02*
X64200000Y-94235000D01*
X66465000Y-96500000D02*
X64200000Y-94235000D01*
X65400000Y-88800000D02*
X65400000Y-93035000D01*
X64200000Y-94235000D02*
X64065000Y-94100000D01*
X64065000Y-94100000D02*
X62150000Y-94100000D01*
X62150000Y-94100000D02*
X62000000Y-93950000D01*
X62000000Y-93950000D02*
X62000000Y-92600000D01*
G04 #@! TO.N,/FLASH_SCK*
X59900000Y-92100000D02*
X59900000Y-91950000D01*
X59900000Y-91950000D02*
X61900000Y-89950000D01*
X61900000Y-89950000D02*
X62400000Y-89950000D01*
D18*
X63525000Y-88825000D02*
X63525000Y-88350000D01*
X62400000Y-89950000D02*
X63525000Y-88825000D01*
D21*
G04 #@! TO.N,/FLASH_IO3*
X68650000Y-86200000D02*
X68700000Y-86150000D01*
X68650000Y-86750000D02*
X68650000Y-86200000D01*
X68150000Y-87250000D02*
X68650000Y-86750000D01*
X66650000Y-87250000D02*
X68150000Y-87250000D01*
X65050000Y-87750000D02*
X66150000Y-87750000D01*
X66150000Y-87750000D02*
X66650000Y-87250000D01*
D18*
G04 #@! TO.N,/FLASH_IO2*
X64600000Y-86200000D02*
X67000000Y-86200000D01*
X63700000Y-85300000D02*
X64600000Y-86200000D01*
D21*
G04 #@! TO.N,/LED3*
X63200000Y-75700000D02*
X63200000Y-79200000D01*
D18*
X63200000Y-75700000D02*
X63500000Y-75400000D01*
X63500000Y-75400000D02*
X64800000Y-75400000D01*
D21*
G04 #@! TO.N,/LED4*
X64000000Y-79200000D02*
X64000000Y-77500000D01*
X64000000Y-77500000D02*
X65400000Y-76100000D01*
G04 #@! TO.N,/CRESET_B*
X66465000Y-95230000D02*
X66330000Y-95230000D01*
X66330000Y-95230000D02*
X65300000Y-94200000D01*
X65300000Y-94200000D02*
X65300000Y-94000000D01*
D22*
X53850000Y-93000000D02*
X58500000Y-93000000D01*
G04 #@! TD*
M02*
