G04 #@! TF.GenerationSoftware,KiCad,Pcbnew,6.0.0-rc1-unknown-650478f~84~ubuntu18.04.1*
G04 #@! TF.CreationDate,2018-11-23T01:33:21+00:00*
G04 #@! TF.ProjectId,proto-sensor,70726F746F2D73656E736F722E6B6963,rev?*
G04 #@! TF.SameCoordinates,Original*
G04 #@! TF.FileFunction,Soldermask,Bot*
G04 #@! TF.FilePolarity,Negative*
%FSLAX46Y46*%
G04 Gerber Fmt 4.6, Leading zero omitted, Abs format (unit mm)*
G04 Created by KiCad (PCBNEW 6.0.0-rc1-unknown-650478f~84~ubuntu18.04.1) date Fri 23 Nov 2018 01:33:21 GMT*
%MOMM*%
%LPD*%
G01*
G04 APERTURE LIST*
%ADD10C,0.100000*%
G04 APERTURE END LIST*
D10*
G36*
X63772536Y-113742256D02*
X64067358Y-113864375D01*
X64329157Y-114039304D01*
X64332692Y-114041666D01*
X64558334Y-114267308D01*
X64735626Y-114532644D01*
X64857744Y-114827464D01*
X64920000Y-115140443D01*
X64920000Y-115459557D01*
X64857744Y-115772536D01*
X64735626Y-116067356D01*
X64558334Y-116332692D01*
X64332692Y-116558334D01*
X64332689Y-116558336D01*
X64067358Y-116735625D01*
X64067357Y-116735626D01*
X64067356Y-116735626D01*
X63772536Y-116857744D01*
X63459557Y-116920000D01*
X63140443Y-116920000D01*
X62827464Y-116857744D01*
X62532644Y-116735626D01*
X62532643Y-116735626D01*
X62532642Y-116735625D01*
X62267311Y-116558336D01*
X62267308Y-116558334D01*
X62041666Y-116332692D01*
X61864374Y-116067356D01*
X61742256Y-115772536D01*
X61680000Y-115459557D01*
X61680000Y-115140443D01*
X61742256Y-114827464D01*
X61864374Y-114532644D01*
X62041666Y-114267308D01*
X62267308Y-114041666D01*
X62270843Y-114039304D01*
X62532642Y-113864375D01*
X62827464Y-113742256D01*
X63140443Y-113680000D01*
X63459557Y-113680000D01*
X63772536Y-113742256D01*
X63772536Y-113742256D01*
G37*
G36*
X57172536Y-113742256D02*
X57467358Y-113864375D01*
X57729157Y-114039304D01*
X57732692Y-114041666D01*
X57958334Y-114267308D01*
X58135626Y-114532644D01*
X58257744Y-114827464D01*
X58320000Y-115140443D01*
X58320000Y-115459557D01*
X58257744Y-115772536D01*
X58135626Y-116067356D01*
X57958334Y-116332692D01*
X57732692Y-116558334D01*
X57732689Y-116558336D01*
X57467358Y-116735625D01*
X57467357Y-116735626D01*
X57467356Y-116735626D01*
X57172536Y-116857744D01*
X56859557Y-116920000D01*
X56540443Y-116920000D01*
X56227464Y-116857744D01*
X55932644Y-116735626D01*
X55932643Y-116735626D01*
X55932642Y-116735625D01*
X55667311Y-116558336D01*
X55667308Y-116558334D01*
X55441666Y-116332692D01*
X55264374Y-116067356D01*
X55142256Y-115772536D01*
X55080000Y-115459557D01*
X55080000Y-115140443D01*
X55142256Y-114827464D01*
X55264374Y-114532644D01*
X55441666Y-114267308D01*
X55667308Y-114041666D01*
X55670843Y-114039304D01*
X55932642Y-113864375D01*
X56227464Y-113742256D01*
X56540443Y-113680000D01*
X56859557Y-113680000D01*
X57172536Y-113742256D01*
X57172536Y-113742256D01*
G37*
G36*
X60297523Y-111019198D02*
X60483152Y-111096088D01*
X60650213Y-111207715D01*
X60792285Y-111349787D01*
X60903912Y-111516848D01*
X60980802Y-111702477D01*
X61020000Y-111899538D01*
X61020000Y-112100462D01*
X60980802Y-112297523D01*
X60903912Y-112483152D01*
X60792285Y-112650213D01*
X60650213Y-112792285D01*
X60483152Y-112903912D01*
X60297523Y-112980802D01*
X60100462Y-113020000D01*
X59899538Y-113020000D01*
X59702477Y-112980802D01*
X59516848Y-112903912D01*
X59349787Y-112792285D01*
X59207715Y-112650213D01*
X59096088Y-112483152D01*
X59019198Y-112297523D01*
X58980000Y-112100462D01*
X58980000Y-111899538D01*
X59019198Y-111702477D01*
X59096088Y-111516848D01*
X59207715Y-111349787D01*
X59349787Y-111207715D01*
X59516848Y-111096088D01*
X59702477Y-111019198D01*
X59899538Y-110980000D01*
X60100462Y-110980000D01*
X60297523Y-111019198D01*
X60297523Y-111019198D01*
G37*
G36*
X57172536Y-107142256D02*
X57467358Y-107264375D01*
X57729157Y-107439304D01*
X57732692Y-107441666D01*
X57958334Y-107667308D01*
X58135626Y-107932644D01*
X58257744Y-108227464D01*
X58320000Y-108540443D01*
X58320000Y-108859557D01*
X58257744Y-109172536D01*
X58135626Y-109467356D01*
X57958334Y-109732692D01*
X57732692Y-109958334D01*
X57732689Y-109958336D01*
X57467358Y-110135625D01*
X57467357Y-110135626D01*
X57467356Y-110135626D01*
X57172536Y-110257744D01*
X56859557Y-110320000D01*
X56540443Y-110320000D01*
X56227464Y-110257744D01*
X55932644Y-110135626D01*
X55932643Y-110135626D01*
X55932642Y-110135625D01*
X55667311Y-109958336D01*
X55667308Y-109958334D01*
X55441666Y-109732692D01*
X55264374Y-109467356D01*
X55142256Y-109172536D01*
X55080000Y-108859557D01*
X55080000Y-108540443D01*
X55142256Y-108227464D01*
X55264374Y-107932644D01*
X55441666Y-107667308D01*
X55667308Y-107441666D01*
X55670843Y-107439304D01*
X55932642Y-107264375D01*
X56227464Y-107142256D01*
X56540443Y-107080000D01*
X56859557Y-107080000D01*
X57172536Y-107142256D01*
X57172536Y-107142256D01*
G37*
G36*
X63772536Y-107142256D02*
X64067358Y-107264375D01*
X64329157Y-107439304D01*
X64332692Y-107441666D01*
X64558334Y-107667308D01*
X64735626Y-107932644D01*
X64857744Y-108227464D01*
X64920000Y-108540443D01*
X64920000Y-108859557D01*
X64857744Y-109172536D01*
X64735626Y-109467356D01*
X64558334Y-109732692D01*
X64332692Y-109958334D01*
X64332689Y-109958336D01*
X64067358Y-110135625D01*
X64067357Y-110135626D01*
X64067356Y-110135626D01*
X63772536Y-110257744D01*
X63459557Y-110320000D01*
X63140443Y-110320000D01*
X62827464Y-110257744D01*
X62532644Y-110135626D01*
X62532643Y-110135626D01*
X62532642Y-110135625D01*
X62267311Y-109958336D01*
X62267308Y-109958334D01*
X62041666Y-109732692D01*
X61864374Y-109467356D01*
X61742256Y-109172536D01*
X61680000Y-108859557D01*
X61680000Y-108540443D01*
X61742256Y-108227464D01*
X61864374Y-107932644D01*
X62041666Y-107667308D01*
X62267308Y-107441666D01*
X62270843Y-107439304D01*
X62532642Y-107264375D01*
X62827464Y-107142256D01*
X63140443Y-107080000D01*
X63459557Y-107080000D01*
X63772536Y-107142256D01*
X63772536Y-107142256D01*
G37*
G36*
X66619010Y-93452290D02*
X66619013Y-93452291D01*
X66619012Y-93452291D01*
X66715102Y-93492092D01*
X66801581Y-93549875D01*
X66875125Y-93623419D01*
X66932908Y-93709898D01*
X66972709Y-93805988D01*
X66972710Y-93805991D01*
X66977402Y-93829577D01*
X66984515Y-93853026D01*
X66996066Y-93874637D01*
X67011612Y-93893579D01*
X67030554Y-93909125D01*
X67052165Y-93920676D01*
X67075614Y-93927789D01*
X67100000Y-93930191D01*
X67124386Y-93927789D01*
X67147835Y-93920676D01*
X67169446Y-93909125D01*
X67188388Y-93893579D01*
X67203934Y-93874637D01*
X67215485Y-93853026D01*
X67222598Y-93829577D01*
X67227290Y-93805991D01*
X67227291Y-93805988D01*
X67267092Y-93709898D01*
X67324875Y-93623419D01*
X67398419Y-93549875D01*
X67484898Y-93492092D01*
X67580988Y-93452291D01*
X67580987Y-93452291D01*
X67580990Y-93452290D01*
X67682995Y-93432000D01*
X67787005Y-93432000D01*
X67889010Y-93452290D01*
X67889013Y-93452291D01*
X67889012Y-93452291D01*
X67985102Y-93492092D01*
X68071581Y-93549875D01*
X68145125Y-93623419D01*
X68202908Y-93709898D01*
X68233692Y-93784220D01*
X68242710Y-93805990D01*
X68263000Y-93907995D01*
X68263000Y-94012005D01*
X68242710Y-94114010D01*
X68242709Y-94114012D01*
X68202908Y-94210102D01*
X68145125Y-94296581D01*
X68071581Y-94370125D01*
X67985102Y-94427908D01*
X67889012Y-94467709D01*
X67889011Y-94467709D01*
X67889009Y-94467710D01*
X67865423Y-94472402D01*
X67841974Y-94479515D01*
X67820363Y-94491066D01*
X67801421Y-94506612D01*
X67785875Y-94525554D01*
X67774324Y-94547165D01*
X67767211Y-94570614D01*
X67764809Y-94595000D01*
X67767211Y-94619386D01*
X67774324Y-94642835D01*
X67785875Y-94664446D01*
X67801421Y-94683388D01*
X67820363Y-94698934D01*
X67841974Y-94710485D01*
X67865423Y-94717598D01*
X67889009Y-94722290D01*
X67889011Y-94722291D01*
X67889012Y-94722291D01*
X67985102Y-94762092D01*
X68071581Y-94819875D01*
X68145125Y-94893419D01*
X68202908Y-94979898D01*
X68233692Y-95054220D01*
X68242710Y-95075990D01*
X68263000Y-95177995D01*
X68263000Y-95282005D01*
X68242710Y-95384010D01*
X68242709Y-95384012D01*
X68202908Y-95480102D01*
X68145125Y-95566581D01*
X68071581Y-95640125D01*
X67985102Y-95697908D01*
X67889012Y-95737709D01*
X67889011Y-95737709D01*
X67889009Y-95737710D01*
X67865423Y-95742402D01*
X67841974Y-95749515D01*
X67820363Y-95761066D01*
X67801421Y-95776612D01*
X67785875Y-95795554D01*
X67774324Y-95817165D01*
X67767211Y-95840614D01*
X67764809Y-95865000D01*
X67767211Y-95889386D01*
X67774324Y-95912835D01*
X67785875Y-95934446D01*
X67801421Y-95953388D01*
X67820363Y-95968934D01*
X67841974Y-95980485D01*
X67865423Y-95987598D01*
X67889009Y-95992290D01*
X67889011Y-95992291D01*
X67889012Y-95992291D01*
X67985102Y-96032092D01*
X68071581Y-96089875D01*
X68145125Y-96163419D01*
X68202908Y-96249898D01*
X68233692Y-96324220D01*
X68242710Y-96345990D01*
X68263000Y-96447995D01*
X68263000Y-96552005D01*
X68242710Y-96654010D01*
X68242709Y-96654012D01*
X68202908Y-96750102D01*
X68145125Y-96836581D01*
X68071581Y-96910125D01*
X67985102Y-96967908D01*
X67889012Y-97007709D01*
X67889011Y-97007709D01*
X67889009Y-97007710D01*
X67865423Y-97012402D01*
X67841974Y-97019515D01*
X67820363Y-97031066D01*
X67801421Y-97046612D01*
X67785875Y-97065554D01*
X67774324Y-97087165D01*
X67767211Y-97110614D01*
X67764809Y-97135000D01*
X67767211Y-97159386D01*
X67774324Y-97182835D01*
X67785875Y-97204446D01*
X67801421Y-97223388D01*
X67820363Y-97238934D01*
X67841974Y-97250485D01*
X67865423Y-97257598D01*
X67889009Y-97262290D01*
X67889011Y-97262291D01*
X67889012Y-97262291D01*
X67985102Y-97302092D01*
X68071581Y-97359875D01*
X68145125Y-97433419D01*
X68202908Y-97519898D01*
X68224274Y-97571481D01*
X68242710Y-97615990D01*
X68263000Y-97717995D01*
X68263000Y-97822005D01*
X68242710Y-97924010D01*
X68242709Y-97924012D01*
X68202908Y-98020102D01*
X68145125Y-98106581D01*
X68071581Y-98180125D01*
X67985102Y-98237908D01*
X67889012Y-98277709D01*
X67889011Y-98277709D01*
X67889009Y-98277710D01*
X67865423Y-98282402D01*
X67841974Y-98289515D01*
X67820363Y-98301066D01*
X67801421Y-98316612D01*
X67785875Y-98335554D01*
X67774324Y-98357165D01*
X67767211Y-98380614D01*
X67764809Y-98405000D01*
X67767211Y-98429386D01*
X67774324Y-98452835D01*
X67785875Y-98474446D01*
X67801421Y-98493388D01*
X67820363Y-98508934D01*
X67841974Y-98520485D01*
X67865423Y-98527598D01*
X67889009Y-98532290D01*
X67889011Y-98532291D01*
X67889012Y-98532291D01*
X67985102Y-98572092D01*
X68071581Y-98629875D01*
X68145125Y-98703419D01*
X68202908Y-98789898D01*
X68233692Y-98864220D01*
X68242710Y-98885990D01*
X68263000Y-98987995D01*
X68263000Y-99092005D01*
X68242710Y-99194010D01*
X68242709Y-99194012D01*
X68202908Y-99290102D01*
X68145125Y-99376581D01*
X68071581Y-99450125D01*
X67985102Y-99507908D01*
X67910780Y-99538692D01*
X67889010Y-99547710D01*
X67787005Y-99568000D01*
X67682995Y-99568000D01*
X67580990Y-99547710D01*
X67559220Y-99538692D01*
X67484898Y-99507908D01*
X67398419Y-99450125D01*
X67324875Y-99376581D01*
X67267092Y-99290102D01*
X67227291Y-99194012D01*
X67227291Y-99194011D01*
X67227290Y-99194009D01*
X67222598Y-99170423D01*
X67215485Y-99146974D01*
X67203934Y-99125363D01*
X67188388Y-99106421D01*
X67169446Y-99090875D01*
X67147835Y-99079324D01*
X67124386Y-99072211D01*
X67100000Y-99069809D01*
X67075614Y-99072211D01*
X67052165Y-99079324D01*
X67030554Y-99090875D01*
X67011612Y-99106421D01*
X66996066Y-99125363D01*
X66984515Y-99146974D01*
X66977402Y-99170423D01*
X66972710Y-99194009D01*
X66972709Y-99194011D01*
X66972709Y-99194012D01*
X66932908Y-99290102D01*
X66875125Y-99376581D01*
X66801581Y-99450125D01*
X66715102Y-99507908D01*
X66640780Y-99538692D01*
X66619010Y-99547710D01*
X66517005Y-99568000D01*
X66412995Y-99568000D01*
X66310990Y-99547710D01*
X66289220Y-99538692D01*
X66214898Y-99507908D01*
X66128419Y-99450125D01*
X66054875Y-99376581D01*
X65997092Y-99290102D01*
X65957291Y-99194012D01*
X65957290Y-99194010D01*
X65937000Y-99092005D01*
X65937000Y-98987995D01*
X65957290Y-98885990D01*
X65966308Y-98864220D01*
X65997092Y-98789898D01*
X66054875Y-98703419D01*
X66128419Y-98629875D01*
X66214898Y-98572092D01*
X66310988Y-98532291D01*
X66310989Y-98532291D01*
X66310991Y-98532290D01*
X66334577Y-98527598D01*
X66358026Y-98520485D01*
X66379637Y-98508934D01*
X66398579Y-98493388D01*
X66414125Y-98474446D01*
X66425676Y-98452835D01*
X66432789Y-98429386D01*
X66435191Y-98405000D01*
X66494809Y-98405000D01*
X66497211Y-98429386D01*
X66504324Y-98452835D01*
X66515875Y-98474446D01*
X66531421Y-98493388D01*
X66550363Y-98508934D01*
X66571974Y-98520485D01*
X66595423Y-98527598D01*
X66619009Y-98532290D01*
X66619011Y-98532291D01*
X66619012Y-98532291D01*
X66715102Y-98572092D01*
X66801581Y-98629875D01*
X66875125Y-98703419D01*
X66932908Y-98789898D01*
X66972709Y-98885988D01*
X66972710Y-98885991D01*
X66977402Y-98909577D01*
X66984515Y-98933026D01*
X66996066Y-98954637D01*
X67011612Y-98973579D01*
X67030554Y-98989125D01*
X67052165Y-99000676D01*
X67075614Y-99007789D01*
X67100000Y-99010191D01*
X67124386Y-99007789D01*
X67147835Y-99000676D01*
X67169446Y-98989125D01*
X67188388Y-98973579D01*
X67203934Y-98954637D01*
X67215485Y-98933026D01*
X67222598Y-98909577D01*
X67227290Y-98885991D01*
X67227291Y-98885988D01*
X67267092Y-98789898D01*
X67324875Y-98703419D01*
X67398419Y-98629875D01*
X67484898Y-98572092D01*
X67580988Y-98532291D01*
X67580989Y-98532291D01*
X67580991Y-98532290D01*
X67604577Y-98527598D01*
X67628026Y-98520485D01*
X67649637Y-98508934D01*
X67668579Y-98493388D01*
X67684125Y-98474446D01*
X67695676Y-98452835D01*
X67702789Y-98429386D01*
X67705191Y-98405000D01*
X67702789Y-98380614D01*
X67695676Y-98357165D01*
X67684125Y-98335554D01*
X67668579Y-98316612D01*
X67649637Y-98301066D01*
X67628026Y-98289515D01*
X67604577Y-98282402D01*
X67580991Y-98277710D01*
X67580989Y-98277709D01*
X67580988Y-98277709D01*
X67484898Y-98237908D01*
X67398419Y-98180125D01*
X67324875Y-98106581D01*
X67267092Y-98020102D01*
X67227291Y-97924012D01*
X67227291Y-97924011D01*
X67227290Y-97924009D01*
X67222598Y-97900423D01*
X67215485Y-97876974D01*
X67203934Y-97855363D01*
X67188388Y-97836421D01*
X67169446Y-97820875D01*
X67147835Y-97809324D01*
X67124386Y-97802211D01*
X67100000Y-97799809D01*
X67075614Y-97802211D01*
X67052165Y-97809324D01*
X67030554Y-97820875D01*
X67011612Y-97836421D01*
X66996066Y-97855363D01*
X66984515Y-97876974D01*
X66977402Y-97900423D01*
X66972710Y-97924009D01*
X66972709Y-97924011D01*
X66972709Y-97924012D01*
X66932908Y-98020102D01*
X66875125Y-98106581D01*
X66801581Y-98180125D01*
X66715102Y-98237908D01*
X66619012Y-98277709D01*
X66619011Y-98277709D01*
X66619009Y-98277710D01*
X66595423Y-98282402D01*
X66571974Y-98289515D01*
X66550363Y-98301066D01*
X66531421Y-98316612D01*
X66515875Y-98335554D01*
X66504324Y-98357165D01*
X66497211Y-98380614D01*
X66494809Y-98405000D01*
X66435191Y-98405000D01*
X66432789Y-98380614D01*
X66425676Y-98357165D01*
X66414125Y-98335554D01*
X66398579Y-98316612D01*
X66379637Y-98301066D01*
X66358026Y-98289515D01*
X66334577Y-98282402D01*
X66310991Y-98277710D01*
X66310989Y-98277709D01*
X66310988Y-98277709D01*
X66214898Y-98237908D01*
X66128419Y-98180125D01*
X66054875Y-98106581D01*
X65997092Y-98020102D01*
X65957291Y-97924012D01*
X65957290Y-97924010D01*
X65937000Y-97822005D01*
X65937000Y-97717995D01*
X65957290Y-97615990D01*
X65975726Y-97571481D01*
X65997092Y-97519898D01*
X66054875Y-97433419D01*
X66128419Y-97359875D01*
X66214898Y-97302092D01*
X66310988Y-97262291D01*
X66310989Y-97262291D01*
X66310991Y-97262290D01*
X66334577Y-97257598D01*
X66358026Y-97250485D01*
X66379637Y-97238934D01*
X66398579Y-97223388D01*
X66414125Y-97204446D01*
X66425676Y-97182835D01*
X66432789Y-97159386D01*
X66435191Y-97135000D01*
X66494809Y-97135000D01*
X66497211Y-97159386D01*
X66504324Y-97182835D01*
X66515875Y-97204446D01*
X66531421Y-97223388D01*
X66550363Y-97238934D01*
X66571974Y-97250485D01*
X66595423Y-97257598D01*
X66619009Y-97262290D01*
X66619011Y-97262291D01*
X66619012Y-97262291D01*
X66715102Y-97302092D01*
X66801581Y-97359875D01*
X66875125Y-97433419D01*
X66932908Y-97519898D01*
X66972709Y-97615988D01*
X66972710Y-97615991D01*
X66977402Y-97639577D01*
X66984515Y-97663026D01*
X66996066Y-97684637D01*
X67011612Y-97703579D01*
X67030554Y-97719125D01*
X67052165Y-97730676D01*
X67075614Y-97737789D01*
X67100000Y-97740191D01*
X67124386Y-97737789D01*
X67147835Y-97730676D01*
X67169446Y-97719125D01*
X67188388Y-97703579D01*
X67203934Y-97684637D01*
X67215485Y-97663026D01*
X67222598Y-97639577D01*
X67227290Y-97615991D01*
X67227291Y-97615988D01*
X67267092Y-97519898D01*
X67324875Y-97433419D01*
X67398419Y-97359875D01*
X67484898Y-97302092D01*
X67580988Y-97262291D01*
X67580989Y-97262291D01*
X67580991Y-97262290D01*
X67604577Y-97257598D01*
X67628026Y-97250485D01*
X67649637Y-97238934D01*
X67668579Y-97223388D01*
X67684125Y-97204446D01*
X67695676Y-97182835D01*
X67702789Y-97159386D01*
X67705191Y-97135000D01*
X67702789Y-97110614D01*
X67695676Y-97087165D01*
X67684125Y-97065554D01*
X67668579Y-97046612D01*
X67649637Y-97031066D01*
X67628026Y-97019515D01*
X67604577Y-97012402D01*
X67580991Y-97007710D01*
X67580989Y-97007709D01*
X67580988Y-97007709D01*
X67484898Y-96967908D01*
X67398419Y-96910125D01*
X67324875Y-96836581D01*
X67267092Y-96750102D01*
X67227291Y-96654012D01*
X67227291Y-96654011D01*
X67227290Y-96654009D01*
X67222598Y-96630423D01*
X67215485Y-96606974D01*
X67203934Y-96585363D01*
X67188388Y-96566421D01*
X67169446Y-96550875D01*
X67147835Y-96539324D01*
X67124386Y-96532211D01*
X67100000Y-96529809D01*
X67075614Y-96532211D01*
X67052165Y-96539324D01*
X67030554Y-96550875D01*
X67011612Y-96566421D01*
X66996066Y-96585363D01*
X66984515Y-96606974D01*
X66977402Y-96630423D01*
X66972710Y-96654009D01*
X66972709Y-96654011D01*
X66972709Y-96654012D01*
X66932908Y-96750102D01*
X66875125Y-96836581D01*
X66801581Y-96910125D01*
X66715102Y-96967908D01*
X66619012Y-97007709D01*
X66619011Y-97007709D01*
X66619009Y-97007710D01*
X66595423Y-97012402D01*
X66571974Y-97019515D01*
X66550363Y-97031066D01*
X66531421Y-97046612D01*
X66515875Y-97065554D01*
X66504324Y-97087165D01*
X66497211Y-97110614D01*
X66494809Y-97135000D01*
X66435191Y-97135000D01*
X66432789Y-97110614D01*
X66425676Y-97087165D01*
X66414125Y-97065554D01*
X66398579Y-97046612D01*
X66379637Y-97031066D01*
X66358026Y-97019515D01*
X66334577Y-97012402D01*
X66310991Y-97007710D01*
X66310989Y-97007709D01*
X66310988Y-97007709D01*
X66214898Y-96967908D01*
X66128419Y-96910125D01*
X66054875Y-96836581D01*
X65997092Y-96750102D01*
X65957291Y-96654012D01*
X65957290Y-96654010D01*
X65937000Y-96552005D01*
X65937000Y-96447995D01*
X65957290Y-96345990D01*
X65966308Y-96324220D01*
X65997092Y-96249898D01*
X66054875Y-96163419D01*
X66128419Y-96089875D01*
X66214898Y-96032092D01*
X66310988Y-95992291D01*
X66310989Y-95992291D01*
X66310991Y-95992290D01*
X66334577Y-95987598D01*
X66358026Y-95980485D01*
X66379637Y-95968934D01*
X66398579Y-95953388D01*
X66414125Y-95934446D01*
X66425676Y-95912835D01*
X66432789Y-95889386D01*
X66435191Y-95865000D01*
X66494809Y-95865000D01*
X66497211Y-95889386D01*
X66504324Y-95912835D01*
X66515875Y-95934446D01*
X66531421Y-95953388D01*
X66550363Y-95968934D01*
X66571974Y-95980485D01*
X66595423Y-95987598D01*
X66619009Y-95992290D01*
X66619011Y-95992291D01*
X66619012Y-95992291D01*
X66715102Y-96032092D01*
X66801581Y-96089875D01*
X66875125Y-96163419D01*
X66932908Y-96249898D01*
X66972709Y-96345988D01*
X66972710Y-96345991D01*
X66977402Y-96369577D01*
X66984515Y-96393026D01*
X66996066Y-96414637D01*
X67011612Y-96433579D01*
X67030554Y-96449125D01*
X67052165Y-96460676D01*
X67075614Y-96467789D01*
X67100000Y-96470191D01*
X67124386Y-96467789D01*
X67147835Y-96460676D01*
X67169446Y-96449125D01*
X67188388Y-96433579D01*
X67203934Y-96414637D01*
X67215485Y-96393026D01*
X67222598Y-96369577D01*
X67227290Y-96345991D01*
X67227291Y-96345988D01*
X67267092Y-96249898D01*
X67324875Y-96163419D01*
X67398419Y-96089875D01*
X67484898Y-96032092D01*
X67580988Y-95992291D01*
X67580989Y-95992291D01*
X67580991Y-95992290D01*
X67604577Y-95987598D01*
X67628026Y-95980485D01*
X67649637Y-95968934D01*
X67668579Y-95953388D01*
X67684125Y-95934446D01*
X67695676Y-95912835D01*
X67702789Y-95889386D01*
X67705191Y-95865000D01*
X67702789Y-95840614D01*
X67695676Y-95817165D01*
X67684125Y-95795554D01*
X67668579Y-95776612D01*
X67649637Y-95761066D01*
X67628026Y-95749515D01*
X67604577Y-95742402D01*
X67580991Y-95737710D01*
X67580989Y-95737709D01*
X67580988Y-95737709D01*
X67484898Y-95697908D01*
X67398419Y-95640125D01*
X67324875Y-95566581D01*
X67267092Y-95480102D01*
X67227291Y-95384012D01*
X67227291Y-95384011D01*
X67227290Y-95384009D01*
X67222598Y-95360423D01*
X67215485Y-95336974D01*
X67203934Y-95315363D01*
X67188388Y-95296421D01*
X67169446Y-95280875D01*
X67147835Y-95269324D01*
X67124386Y-95262211D01*
X67100000Y-95259809D01*
X67075614Y-95262211D01*
X67052165Y-95269324D01*
X67030554Y-95280875D01*
X67011612Y-95296421D01*
X66996066Y-95315363D01*
X66984515Y-95336974D01*
X66977402Y-95360423D01*
X66972710Y-95384009D01*
X66972709Y-95384011D01*
X66972709Y-95384012D01*
X66932908Y-95480102D01*
X66875125Y-95566581D01*
X66801581Y-95640125D01*
X66715102Y-95697908D01*
X66619012Y-95737709D01*
X66619011Y-95737709D01*
X66619009Y-95737710D01*
X66595423Y-95742402D01*
X66571974Y-95749515D01*
X66550363Y-95761066D01*
X66531421Y-95776612D01*
X66515875Y-95795554D01*
X66504324Y-95817165D01*
X66497211Y-95840614D01*
X66494809Y-95865000D01*
X66435191Y-95865000D01*
X66432789Y-95840614D01*
X66425676Y-95817165D01*
X66414125Y-95795554D01*
X66398579Y-95776612D01*
X66379637Y-95761066D01*
X66358026Y-95749515D01*
X66334577Y-95742402D01*
X66310991Y-95737710D01*
X66310989Y-95737709D01*
X66310988Y-95737709D01*
X66214898Y-95697908D01*
X66128419Y-95640125D01*
X66054875Y-95566581D01*
X65997092Y-95480102D01*
X65957291Y-95384012D01*
X65957290Y-95384010D01*
X65937000Y-95282005D01*
X65937000Y-95177995D01*
X65957290Y-95075990D01*
X65966308Y-95054220D01*
X65997092Y-94979898D01*
X66054875Y-94893419D01*
X66128419Y-94819875D01*
X66214898Y-94762092D01*
X66310988Y-94722291D01*
X66310989Y-94722291D01*
X66310991Y-94722290D01*
X66334577Y-94717598D01*
X66358026Y-94710485D01*
X66379637Y-94698934D01*
X66398579Y-94683388D01*
X66414125Y-94664446D01*
X66425676Y-94642835D01*
X66432789Y-94619386D01*
X66435191Y-94595000D01*
X66494809Y-94595000D01*
X66497211Y-94619386D01*
X66504324Y-94642835D01*
X66515875Y-94664446D01*
X66531421Y-94683388D01*
X66550363Y-94698934D01*
X66571974Y-94710485D01*
X66595423Y-94717598D01*
X66619009Y-94722290D01*
X66619011Y-94722291D01*
X66619012Y-94722291D01*
X66715102Y-94762092D01*
X66801581Y-94819875D01*
X66875125Y-94893419D01*
X66932908Y-94979898D01*
X66972709Y-95075988D01*
X66972710Y-95075991D01*
X66977402Y-95099577D01*
X66984515Y-95123026D01*
X66996066Y-95144637D01*
X67011612Y-95163579D01*
X67030554Y-95179125D01*
X67052165Y-95190676D01*
X67075614Y-95197789D01*
X67100000Y-95200191D01*
X67124386Y-95197789D01*
X67147835Y-95190676D01*
X67169446Y-95179125D01*
X67188388Y-95163579D01*
X67203934Y-95144637D01*
X67215485Y-95123026D01*
X67222598Y-95099577D01*
X67227290Y-95075991D01*
X67227291Y-95075988D01*
X67267092Y-94979898D01*
X67324875Y-94893419D01*
X67398419Y-94819875D01*
X67484898Y-94762092D01*
X67580988Y-94722291D01*
X67580989Y-94722291D01*
X67580991Y-94722290D01*
X67604577Y-94717598D01*
X67628026Y-94710485D01*
X67649637Y-94698934D01*
X67668579Y-94683388D01*
X67684125Y-94664446D01*
X67695676Y-94642835D01*
X67702789Y-94619386D01*
X67705191Y-94595000D01*
X67702789Y-94570614D01*
X67695676Y-94547165D01*
X67684125Y-94525554D01*
X67668579Y-94506612D01*
X67649637Y-94491066D01*
X67628026Y-94479515D01*
X67604577Y-94472402D01*
X67580991Y-94467710D01*
X67580989Y-94467709D01*
X67580988Y-94467709D01*
X67484898Y-94427908D01*
X67398419Y-94370125D01*
X67324875Y-94296581D01*
X67267092Y-94210102D01*
X67227291Y-94114012D01*
X67227291Y-94114011D01*
X67227290Y-94114009D01*
X67222598Y-94090423D01*
X67215485Y-94066974D01*
X67203934Y-94045363D01*
X67188388Y-94026421D01*
X67169446Y-94010875D01*
X67147835Y-93999324D01*
X67124386Y-93992211D01*
X67100000Y-93989809D01*
X67075614Y-93992211D01*
X67052165Y-93999324D01*
X67030554Y-94010875D01*
X67011612Y-94026421D01*
X66996066Y-94045363D01*
X66984515Y-94066974D01*
X66977402Y-94090423D01*
X66972710Y-94114009D01*
X66972709Y-94114011D01*
X66972709Y-94114012D01*
X66932908Y-94210102D01*
X66875125Y-94296581D01*
X66801581Y-94370125D01*
X66715102Y-94427908D01*
X66619012Y-94467709D01*
X66619011Y-94467709D01*
X66619009Y-94467710D01*
X66595423Y-94472402D01*
X66571974Y-94479515D01*
X66550363Y-94491066D01*
X66531421Y-94506612D01*
X66515875Y-94525554D01*
X66504324Y-94547165D01*
X66497211Y-94570614D01*
X66494809Y-94595000D01*
X66435191Y-94595000D01*
X66432789Y-94570614D01*
X66425676Y-94547165D01*
X66414125Y-94525554D01*
X66398579Y-94506612D01*
X66379637Y-94491066D01*
X66358026Y-94479515D01*
X66334577Y-94472402D01*
X66310991Y-94467710D01*
X66310989Y-94467709D01*
X66310988Y-94467709D01*
X66214898Y-94427908D01*
X66128419Y-94370125D01*
X66054875Y-94296581D01*
X65997092Y-94210102D01*
X65957291Y-94114012D01*
X65957290Y-94114010D01*
X65937000Y-94012005D01*
X65937000Y-93907995D01*
X65957290Y-93805990D01*
X65966308Y-93784220D01*
X65997092Y-93709898D01*
X66054875Y-93623419D01*
X66128419Y-93549875D01*
X66214898Y-93492092D01*
X66310988Y-93452291D01*
X66310987Y-93452291D01*
X66310990Y-93452290D01*
X66412995Y-93432000D01*
X66517005Y-93432000D01*
X66619010Y-93452290D01*
X66619010Y-93452290D01*
G37*
G36*
X62156679Y-96739983D02*
X62251311Y-96779181D01*
X62336483Y-96836091D01*
X62408909Y-96908517D01*
X62465819Y-96993689D01*
X62505017Y-97088321D01*
X62525000Y-97188783D01*
X62525000Y-97291217D01*
X62505017Y-97391679D01*
X62465819Y-97486311D01*
X62408909Y-97571483D01*
X62336483Y-97643909D01*
X62251311Y-97700819D01*
X62156679Y-97740017D01*
X62056217Y-97760000D01*
X61953783Y-97760000D01*
X61853321Y-97740017D01*
X61758689Y-97700819D01*
X61673517Y-97643909D01*
X61601091Y-97571483D01*
X61544181Y-97486311D01*
X61504983Y-97391679D01*
X61485000Y-97291217D01*
X61485000Y-97188783D01*
X61504983Y-97088321D01*
X61544181Y-96993689D01*
X61601091Y-96908517D01*
X61673517Y-96836091D01*
X61758689Y-96779181D01*
X61853321Y-96739983D01*
X61953783Y-96720000D01*
X62056217Y-96720000D01*
X62156679Y-96739983D01*
X62156679Y-96739983D01*
G37*
G36*
X61140679Y-91659983D02*
X61235311Y-91699181D01*
X61320483Y-91756091D01*
X61392909Y-91828517D01*
X61449819Y-91913689D01*
X61489017Y-92008321D01*
X61509000Y-92108783D01*
X61509000Y-92211217D01*
X61489017Y-92311679D01*
X61449819Y-92406311D01*
X61392909Y-92491483D01*
X61320483Y-92563909D01*
X61235311Y-92620819D01*
X61140679Y-92660017D01*
X61040217Y-92680000D01*
X60937783Y-92680000D01*
X60837321Y-92660017D01*
X60742689Y-92620819D01*
X60657517Y-92563909D01*
X60585091Y-92491483D01*
X60528181Y-92406311D01*
X60488983Y-92311679D01*
X60469000Y-92211217D01*
X60469000Y-92108783D01*
X60488983Y-92008321D01*
X60528181Y-91913689D01*
X60585091Y-91828517D01*
X60657517Y-91756091D01*
X60742689Y-91699181D01*
X60837321Y-91659983D01*
X60937783Y-91640000D01*
X61040217Y-91640000D01*
X61140679Y-91659983D01*
X61140679Y-91659983D01*
G37*
G36*
X63172679Y-91659983D02*
X63267311Y-91699181D01*
X63352483Y-91756091D01*
X63424909Y-91828517D01*
X63481819Y-91913689D01*
X63521017Y-92008321D01*
X63541000Y-92108783D01*
X63541000Y-92211217D01*
X63521017Y-92311679D01*
X63481819Y-92406311D01*
X63424909Y-92491483D01*
X63352483Y-92563909D01*
X63267311Y-92620819D01*
X63172679Y-92660017D01*
X63072217Y-92680000D01*
X62969783Y-92680000D01*
X62869321Y-92660017D01*
X62774689Y-92620819D01*
X62689517Y-92563909D01*
X62617091Y-92491483D01*
X62560181Y-92406311D01*
X62520983Y-92311679D01*
X62501000Y-92211217D01*
X62501000Y-92108783D01*
X62520983Y-92008321D01*
X62560181Y-91913689D01*
X62617091Y-91828517D01*
X62689517Y-91756091D01*
X62774689Y-91699181D01*
X62869321Y-91659983D01*
X62969783Y-91640000D01*
X63072217Y-91640000D01*
X63172679Y-91659983D01*
X63172679Y-91659983D01*
G37*
G36*
X64782015Y-63451668D02*
X64913049Y-63505944D01*
X65030975Y-63584740D01*
X65131260Y-63685025D01*
X65210056Y-63802951D01*
X65264332Y-63933985D01*
X65292000Y-64073085D01*
X65292000Y-64214915D01*
X65264332Y-64354015D01*
X65210056Y-64485049D01*
X65131260Y-64602975D01*
X65030975Y-64703260D01*
X64913049Y-64782056D01*
X64782015Y-64836332D01*
X64642915Y-64864000D01*
X64501085Y-64864000D01*
X64361985Y-64836332D01*
X64230951Y-64782056D01*
X64113025Y-64703260D01*
X64012740Y-64602975D01*
X63933944Y-64485049D01*
X63879668Y-64354015D01*
X63852000Y-64214915D01*
X63852000Y-64073085D01*
X63879668Y-63933985D01*
X63933944Y-63802951D01*
X64012740Y-63685025D01*
X64113025Y-63584740D01*
X64230951Y-63505944D01*
X64361985Y-63451668D01*
X64501085Y-63424000D01*
X64642915Y-63424000D01*
X64782015Y-63451668D01*
X64782015Y-63451668D01*
G37*
G36*
X67068015Y-63451668D02*
X67199049Y-63505944D01*
X67316975Y-63584740D01*
X67417260Y-63685025D01*
X67496056Y-63802951D01*
X67550332Y-63933985D01*
X67578000Y-64073085D01*
X67578000Y-64214915D01*
X67550332Y-64354015D01*
X67496056Y-64485049D01*
X67417260Y-64602975D01*
X67316975Y-64703260D01*
X67199049Y-64782056D01*
X67068015Y-64836332D01*
X66928915Y-64864000D01*
X66787085Y-64864000D01*
X66647985Y-64836332D01*
X66516951Y-64782056D01*
X66399025Y-64703260D01*
X66298740Y-64602975D01*
X66219944Y-64485049D01*
X66165668Y-64354015D01*
X66138000Y-64214915D01*
X66138000Y-64073085D01*
X66165668Y-63933985D01*
X66219944Y-63802951D01*
X66298740Y-63685025D01*
X66399025Y-63584740D01*
X66516951Y-63505944D01*
X66647985Y-63451668D01*
X66787085Y-63424000D01*
X66928915Y-63424000D01*
X67068015Y-63451668D01*
X67068015Y-63451668D01*
G37*
G36*
X53352015Y-63451668D02*
X53483049Y-63505944D01*
X53600975Y-63584740D01*
X53701260Y-63685025D01*
X53780056Y-63802951D01*
X53834332Y-63933985D01*
X53862000Y-64073085D01*
X53862000Y-64214915D01*
X53834332Y-64354015D01*
X53780056Y-64485049D01*
X53701260Y-64602975D01*
X53600975Y-64703260D01*
X53483049Y-64782056D01*
X53352015Y-64836332D01*
X53212915Y-64864000D01*
X53071085Y-64864000D01*
X52931985Y-64836332D01*
X52800951Y-64782056D01*
X52683025Y-64703260D01*
X52582740Y-64602975D01*
X52503944Y-64485049D01*
X52449668Y-64354015D01*
X52422000Y-64214915D01*
X52422000Y-64073085D01*
X52449668Y-63933985D01*
X52503944Y-63802951D01*
X52582740Y-63685025D01*
X52683025Y-63584740D01*
X52800951Y-63505944D01*
X52931985Y-63451668D01*
X53071085Y-63424000D01*
X53212915Y-63424000D01*
X53352015Y-63451668D01*
X53352015Y-63451668D01*
G37*
G36*
X55638015Y-63451668D02*
X55769049Y-63505944D01*
X55886975Y-63584740D01*
X55987260Y-63685025D01*
X56066056Y-63802951D01*
X56120332Y-63933985D01*
X56148000Y-64073085D01*
X56148000Y-64214915D01*
X56120332Y-64354015D01*
X56066056Y-64485049D01*
X55987260Y-64602975D01*
X55886975Y-64703260D01*
X55769049Y-64782056D01*
X55638015Y-64836332D01*
X55498915Y-64864000D01*
X55357085Y-64864000D01*
X55217985Y-64836332D01*
X55086951Y-64782056D01*
X54969025Y-64703260D01*
X54868740Y-64602975D01*
X54789944Y-64485049D01*
X54735668Y-64354015D01*
X54708000Y-64214915D01*
X54708000Y-64073085D01*
X54735668Y-63933985D01*
X54789944Y-63802951D01*
X54868740Y-63685025D01*
X54969025Y-63584740D01*
X55086951Y-63505944D01*
X55217985Y-63451668D01*
X55357085Y-63424000D01*
X55498915Y-63424000D01*
X55638015Y-63451668D01*
X55638015Y-63451668D01*
G37*
G36*
X63766015Y-58625668D02*
X63897049Y-58679944D01*
X64014975Y-58758740D01*
X64115260Y-58859025D01*
X64194056Y-58976951D01*
X64248332Y-59107985D01*
X64276000Y-59247085D01*
X64276000Y-59388915D01*
X64248332Y-59528015D01*
X64194056Y-59659049D01*
X64115260Y-59776975D01*
X64014975Y-59877260D01*
X63897049Y-59956056D01*
X63766015Y-60010332D01*
X63626915Y-60038000D01*
X63485085Y-60038000D01*
X63345985Y-60010332D01*
X63214951Y-59956056D01*
X63097025Y-59877260D01*
X62996740Y-59776975D01*
X62917944Y-59659049D01*
X62863668Y-59528015D01*
X62836000Y-59388915D01*
X62836000Y-59247085D01*
X62863668Y-59107985D01*
X62917944Y-58976951D01*
X62996740Y-58859025D01*
X63097025Y-58758740D01*
X63214951Y-58679944D01*
X63345985Y-58625668D01*
X63485085Y-58598000D01*
X63626915Y-58598000D01*
X63766015Y-58625668D01*
X63766015Y-58625668D01*
G37*
G36*
X61734015Y-58625668D02*
X61865049Y-58679944D01*
X61982975Y-58758740D01*
X62083260Y-58859025D01*
X62162056Y-58976951D01*
X62216332Y-59107985D01*
X62244000Y-59247085D01*
X62244000Y-59388915D01*
X62216332Y-59528015D01*
X62162056Y-59659049D01*
X62083260Y-59776975D01*
X61982975Y-59877260D01*
X61865049Y-59956056D01*
X61734015Y-60010332D01*
X61594915Y-60038000D01*
X61453085Y-60038000D01*
X61313985Y-60010332D01*
X61182951Y-59956056D01*
X61065025Y-59877260D01*
X60964740Y-59776975D01*
X60885944Y-59659049D01*
X60831668Y-59528015D01*
X60804000Y-59388915D01*
X60804000Y-59247085D01*
X60831668Y-59107985D01*
X60885944Y-58976951D01*
X60964740Y-58859025D01*
X61065025Y-58758740D01*
X61182951Y-58679944D01*
X61313985Y-58625668D01*
X61453085Y-58598000D01*
X61594915Y-58598000D01*
X61734015Y-58625668D01*
X61734015Y-58625668D01*
G37*
G36*
X59702015Y-58625668D02*
X59833049Y-58679944D01*
X59950975Y-58758740D01*
X60051260Y-58859025D01*
X60130056Y-58976951D01*
X60184332Y-59107985D01*
X60212000Y-59247085D01*
X60212000Y-59388915D01*
X60184332Y-59528015D01*
X60130056Y-59659049D01*
X60051260Y-59776975D01*
X59950975Y-59877260D01*
X59833049Y-59956056D01*
X59702015Y-60010332D01*
X59562915Y-60038000D01*
X59421085Y-60038000D01*
X59281985Y-60010332D01*
X59150951Y-59956056D01*
X59033025Y-59877260D01*
X58932740Y-59776975D01*
X58853944Y-59659049D01*
X58799668Y-59528015D01*
X58772000Y-59388915D01*
X58772000Y-59247085D01*
X58799668Y-59107985D01*
X58853944Y-58976951D01*
X58932740Y-58859025D01*
X59033025Y-58758740D01*
X59150951Y-58679944D01*
X59281985Y-58625668D01*
X59421085Y-58598000D01*
X59562915Y-58598000D01*
X59702015Y-58625668D01*
X59702015Y-58625668D01*
G37*
G36*
X57670015Y-58625668D02*
X57801049Y-58679944D01*
X57918975Y-58758740D01*
X58019260Y-58859025D01*
X58098056Y-58976951D01*
X58152332Y-59107985D01*
X58180000Y-59247085D01*
X58180000Y-59388915D01*
X58152332Y-59528015D01*
X58098056Y-59659049D01*
X58019260Y-59776975D01*
X57918975Y-59877260D01*
X57801049Y-59956056D01*
X57670015Y-60010332D01*
X57530915Y-60038000D01*
X57389085Y-60038000D01*
X57249985Y-60010332D01*
X57118951Y-59956056D01*
X57001025Y-59877260D01*
X56900740Y-59776975D01*
X56821944Y-59659049D01*
X56767668Y-59528015D01*
X56740000Y-59388915D01*
X56740000Y-59247085D01*
X56767668Y-59107985D01*
X56821944Y-58976951D01*
X56900740Y-58859025D01*
X57001025Y-58758740D01*
X57118951Y-58679944D01*
X57249985Y-58625668D01*
X57389085Y-58598000D01*
X57530915Y-58598000D01*
X57670015Y-58625668D01*
X57670015Y-58625668D01*
G37*
G36*
X52248277Y-57188573D02*
X52483045Y-57285817D01*
X52694330Y-57426993D01*
X52874007Y-57606670D01*
X53015183Y-57817955D01*
X53112427Y-58052723D01*
X53162000Y-58301945D01*
X53162000Y-58556055D01*
X53112427Y-58805277D01*
X53015183Y-59040045D01*
X52874007Y-59251330D01*
X52694330Y-59431007D01*
X52483045Y-59572183D01*
X52248277Y-59669427D01*
X51999055Y-59719000D01*
X51744945Y-59719000D01*
X51495723Y-59669427D01*
X51260955Y-59572183D01*
X51049670Y-59431007D01*
X50869993Y-59251330D01*
X50728817Y-59040045D01*
X50631573Y-58805277D01*
X50582000Y-58556055D01*
X50582000Y-58301945D01*
X50631573Y-58052723D01*
X50728817Y-57817955D01*
X50869993Y-57606670D01*
X51049670Y-57426993D01*
X51260955Y-57285817D01*
X51495723Y-57188573D01*
X51744945Y-57139000D01*
X51999055Y-57139000D01*
X52248277Y-57188573D01*
X52248277Y-57188573D01*
G37*
G36*
X68504277Y-57188573D02*
X68739045Y-57285817D01*
X68950330Y-57426993D01*
X69130007Y-57606670D01*
X69271183Y-57817955D01*
X69368427Y-58052723D01*
X69418000Y-58301945D01*
X69418000Y-58556055D01*
X69368427Y-58805277D01*
X69271183Y-59040045D01*
X69130007Y-59251330D01*
X68950330Y-59431007D01*
X68739045Y-59572183D01*
X68504277Y-59669427D01*
X68255055Y-59719000D01*
X68000945Y-59719000D01*
X67751723Y-59669427D01*
X67516955Y-59572183D01*
X67305670Y-59431007D01*
X67125993Y-59251330D01*
X66984817Y-59040045D01*
X66887573Y-58805277D01*
X66838000Y-58556055D01*
X66838000Y-58301945D01*
X66887573Y-58052723D01*
X66984817Y-57817955D01*
X67125993Y-57606670D01*
X67305670Y-57426993D01*
X67516955Y-57285817D01*
X67751723Y-57188573D01*
X68000945Y-57139000D01*
X68255055Y-57139000D01*
X68504277Y-57188573D01*
X68504277Y-57188573D01*
G37*
G36*
X56654015Y-56847668D02*
X56785049Y-56901944D01*
X56902975Y-56980740D01*
X57003260Y-57081025D01*
X57082056Y-57198951D01*
X57136332Y-57329985D01*
X57164000Y-57469085D01*
X57164000Y-57610915D01*
X57136332Y-57750015D01*
X57082056Y-57881049D01*
X57003260Y-57998975D01*
X56902975Y-58099260D01*
X56785049Y-58178056D01*
X56654015Y-58232332D01*
X56514915Y-58260000D01*
X56373085Y-58260000D01*
X56233985Y-58232332D01*
X56102951Y-58178056D01*
X55985025Y-58099260D01*
X55884740Y-57998975D01*
X55805944Y-57881049D01*
X55751668Y-57750015D01*
X55724000Y-57610915D01*
X55724000Y-57469085D01*
X55751668Y-57329985D01*
X55805944Y-57198951D01*
X55884740Y-57081025D01*
X55985025Y-56980740D01*
X56102951Y-56901944D01*
X56233985Y-56847668D01*
X56373085Y-56820000D01*
X56514915Y-56820000D01*
X56654015Y-56847668D01*
X56654015Y-56847668D01*
G37*
G36*
X58686015Y-56847668D02*
X58817049Y-56901944D01*
X58934975Y-56980740D01*
X59035260Y-57081025D01*
X59114056Y-57198951D01*
X59168332Y-57329985D01*
X59196000Y-57469085D01*
X59196000Y-57610915D01*
X59168332Y-57750015D01*
X59114056Y-57881049D01*
X59035260Y-57998975D01*
X58934975Y-58099260D01*
X58817049Y-58178056D01*
X58686015Y-58232332D01*
X58546915Y-58260000D01*
X58405085Y-58260000D01*
X58265985Y-58232332D01*
X58134951Y-58178056D01*
X58017025Y-58099260D01*
X57916740Y-57998975D01*
X57837944Y-57881049D01*
X57783668Y-57750015D01*
X57756000Y-57610915D01*
X57756000Y-57469085D01*
X57783668Y-57329985D01*
X57837944Y-57198951D01*
X57916740Y-57081025D01*
X58017025Y-56980740D01*
X58134951Y-56901944D01*
X58265985Y-56847668D01*
X58405085Y-56820000D01*
X58546915Y-56820000D01*
X58686015Y-56847668D01*
X58686015Y-56847668D01*
G37*
G36*
X60718015Y-56847668D02*
X60849049Y-56901944D01*
X60966975Y-56980740D01*
X61067260Y-57081025D01*
X61146056Y-57198951D01*
X61200332Y-57329985D01*
X61228000Y-57469085D01*
X61228000Y-57610915D01*
X61200332Y-57750015D01*
X61146056Y-57881049D01*
X61067260Y-57998975D01*
X60966975Y-58099260D01*
X60849049Y-58178056D01*
X60718015Y-58232332D01*
X60578915Y-58260000D01*
X60437085Y-58260000D01*
X60297985Y-58232332D01*
X60166951Y-58178056D01*
X60049025Y-58099260D01*
X59948740Y-57998975D01*
X59869944Y-57881049D01*
X59815668Y-57750015D01*
X59788000Y-57610915D01*
X59788000Y-57469085D01*
X59815668Y-57329985D01*
X59869944Y-57198951D01*
X59948740Y-57081025D01*
X60049025Y-56980740D01*
X60166951Y-56901944D01*
X60297985Y-56847668D01*
X60437085Y-56820000D01*
X60578915Y-56820000D01*
X60718015Y-56847668D01*
X60718015Y-56847668D01*
G37*
G36*
X62750015Y-56847668D02*
X62881049Y-56901944D01*
X62998975Y-56980740D01*
X63099260Y-57081025D01*
X63178056Y-57198951D01*
X63232332Y-57329985D01*
X63260000Y-57469085D01*
X63260000Y-57610915D01*
X63232332Y-57750015D01*
X63178056Y-57881049D01*
X63099260Y-57998975D01*
X62998975Y-58099260D01*
X62881049Y-58178056D01*
X62750015Y-58232332D01*
X62610915Y-58260000D01*
X62469085Y-58260000D01*
X62329985Y-58232332D01*
X62198951Y-58178056D01*
X62081025Y-58099260D01*
X61980740Y-57998975D01*
X61901944Y-57881049D01*
X61847668Y-57750015D01*
X61820000Y-57610915D01*
X61820000Y-57469085D01*
X61847668Y-57329985D01*
X61901944Y-57198951D01*
X61980740Y-57081025D01*
X62081025Y-56980740D01*
X62198951Y-56901944D01*
X62329985Y-56847668D01*
X62469085Y-56820000D01*
X62610915Y-56820000D01*
X62750015Y-56847668D01*
X62750015Y-56847668D01*
G37*
G36*
X66830001Y-53417639D02*
X66830003Y-53417640D01*
X66830004Y-53417640D01*
X66940631Y-53463463D01*
X67129485Y-53541689D01*
X67399012Y-53721781D01*
X67628219Y-53950988D01*
X67808311Y-54220515D01*
X67932361Y-54519999D01*
X67995600Y-54837921D01*
X67995600Y-55162079D01*
X67932361Y-55480001D01*
X67808311Y-55779485D01*
X67628219Y-56049012D01*
X67399012Y-56278219D01*
X67129485Y-56458311D01*
X66940631Y-56536537D01*
X66830004Y-56582360D01*
X66830003Y-56582360D01*
X66830001Y-56582361D01*
X66512079Y-56645600D01*
X66187921Y-56645600D01*
X65869999Y-56582361D01*
X65869997Y-56582360D01*
X65869996Y-56582360D01*
X65759369Y-56536537D01*
X65570515Y-56458311D01*
X65300988Y-56278219D01*
X65071781Y-56049012D01*
X64891689Y-55779485D01*
X64767639Y-55480001D01*
X64704400Y-55162079D01*
X64704400Y-54837921D01*
X64767639Y-54519999D01*
X64891689Y-54220515D01*
X65071781Y-53950988D01*
X65300988Y-53721781D01*
X65570515Y-53541689D01*
X65759369Y-53463463D01*
X65869996Y-53417640D01*
X65869997Y-53417640D01*
X65869999Y-53417639D01*
X66187921Y-53354400D01*
X66512079Y-53354400D01*
X66830001Y-53417639D01*
X66830001Y-53417639D01*
G37*
G36*
X54130001Y-53417639D02*
X54130003Y-53417640D01*
X54130004Y-53417640D01*
X54240631Y-53463463D01*
X54429485Y-53541689D01*
X54699012Y-53721781D01*
X54928219Y-53950988D01*
X55108311Y-54220515D01*
X55232361Y-54519999D01*
X55295600Y-54837921D01*
X55295600Y-55162079D01*
X55232361Y-55480001D01*
X55108311Y-55779485D01*
X54928219Y-56049012D01*
X54699012Y-56278219D01*
X54429485Y-56458311D01*
X54240631Y-56536537D01*
X54130004Y-56582360D01*
X54130003Y-56582360D01*
X54130001Y-56582361D01*
X53812079Y-56645600D01*
X53487921Y-56645600D01*
X53169999Y-56582361D01*
X53169997Y-56582360D01*
X53169996Y-56582360D01*
X53059369Y-56536537D01*
X52870515Y-56458311D01*
X52600988Y-56278219D01*
X52371781Y-56049012D01*
X52191689Y-55779485D01*
X52067639Y-55480001D01*
X52004400Y-55162079D01*
X52004400Y-54837921D01*
X52067639Y-54519999D01*
X52191689Y-54220515D01*
X52371781Y-53950988D01*
X52600988Y-53721781D01*
X52870515Y-53541689D01*
X53059369Y-53463463D01*
X53169996Y-53417640D01*
X53169997Y-53417640D01*
X53169999Y-53417639D01*
X53487921Y-53354400D01*
X53812079Y-53354400D01*
X54130001Y-53417639D01*
X54130001Y-53417639D01*
G37*
M02*
