M48
;DRILL file {KiCad 6.0.0-rc1-unknown-650478f~84~ubuntu18.04.1} date Fri 23 Nov 2018 01:33:29 GMT
;FORMAT={-:-/ absolute / inch / decimal}
FMAT,2
INCH
T1C0.0100
T2C0.0118
T3C0.0157
T4C0.0250
T5C0.0354
T6C0.0472
T7C0.0620
T8C0.0866
%
G90
G05
M72
T1
X2.3465Y-3.2913
X2.3465Y-3.3228
X2.378Y-3.2913
X2.378Y-3.3228
X2.4409Y-3.6457
X2.501Y-3.4783
X2.5079Y-3.3583
X2.5512Y-2.9685
X2.5551Y-3.2717
X2.561Y-3.4547
X2.6654Y-3.4528
X2.7047Y-3.3917
T2
X1.9961Y-3.2677
X1.9961Y-3.3701
X2.0079Y-3.9409
X2.0394Y-3.4803
X2.0591Y-3.5197
X2.0591Y-3.5551
X2.1024Y-3.063
X2.1201Y-3.6614
X2.1299Y-2.6142
X2.1378Y-3.063
X2.1713Y-3.5177
X2.1713Y-3.5531
X2.1732Y-3.3228
X2.2323Y-4.0276
X2.2323Y-4.063
X2.2795Y-2.685
X2.3031Y-3.6614
X2.3287Y-3.624
X2.3386Y-2.5276
X2.3465Y-2.9291
X2.3504Y-2.6181
X2.3583Y-3.626
X2.3622Y-2.8661
X2.4213Y-2.5512
X2.4213Y-2.5866
X2.4409Y-2.9646
X2.4409Y-3.5118
X2.4449Y-2.8661
X2.4646Y-3.8937
X2.4882Y-2.8661
X2.4882Y-3.1181
X2.4961Y-3.9646
X2.5059Y-3.8189
X2.5197Y-3.1181
X2.5236Y-3.6772
X2.5276Y-2.8661
X2.5512Y-3.3268
X2.5512Y-3.3583
X2.5551Y-2.8661
X2.5551Y-3.1575
X2.5551Y-3.2402
X2.5709Y-3.7008
X2.5748Y-2.9961
X2.5748Y-3.4961
X2.5984Y-2.9409
X2.5984Y-3.0512
X2.6063Y-2.7402
X2.622Y-3.4685
X2.6378Y-3.3937
X2.6457Y-3.4882
X2.6496Y-3.6024
X2.6654Y-3.4134
X2.6969Y-2.6142
X2.7126Y-3.2756
X2.7264Y-3.4882
X2.7283Y-3.126
X2.7283Y-3.2283
X2.7323Y-3.5984
X2.7362Y-3.2953
T3
X2.4764Y-2.5551
X2.5866Y-2.6181
T4
X2.6167Y-3.6992
X2.6167Y-3.7492
X2.6167Y-3.7992
X2.6167Y-3.8492
X2.6167Y-3.8992
X2.6667Y-3.6992
X2.6667Y-3.7492
X2.6667Y-3.7992
X2.6667Y-3.8492
X2.6667Y-3.8992
T5
X2.0922Y-2.5254
X2.1822Y-2.5254
X2.2222Y-2.2654
X2.2622Y-2.3354
X2.3022Y-2.2654
X2.3422Y-2.3354
X2.3822Y-2.2654
X2.4222Y-2.3354
X2.4622Y-2.2654
X2.5022Y-2.3354
X2.5422Y-2.5254
X2.6322Y-2.5254
T6
X2.3622Y-4.4094
T7
X2.0422Y-2.3004
X2.6822Y-2.3004
T8
X2.2323Y-4.2795
X2.2323Y-4.5394
X2.4921Y-4.2795
X2.4921Y-4.5394
T0
M30
