G04 #@! TF.GenerationSoftware,KiCad,Pcbnew,6.0.0-rc1-unknown-106eaaa~84~ubuntu18.04.1*
G04 #@! TF.CreationDate,2018-11-27T01:39:04+00:00*
G04 #@! TF.ProjectId,proto-sensor,70726f74-6f2d-4736-956e-736f722e6b69,1*
G04 #@! TF.SameCoordinates,Original*
G04 #@! TF.FileFunction,Legend,Bot*
G04 #@! TF.FilePolarity,Positive*
%FSLAX46Y46*%
G04 Gerber Fmt 4.6, Leading zero omitted, Abs format (unit mm)*
G04 Created by KiCad (PCBNEW 6.0.0-rc1-unknown-106eaaa~84~ubuntu18.04.1) date Tue 27 Nov 2018 01:39:04 GMT*
%MOMM*%
%LPD*%
G01*
G04 APERTURE LIST*
%ADD10C,0.150000*%
%ADD11C,1.440000*%
%ADD12C,3.291200*%
%ADD13C,2.580000*%
%ADD14R,1.940000X1.940000*%
%ADD15C,1.040000*%
%ADD16C,1.056000*%
%ADD17C,3.240000*%
%ADD18C,2.040000*%
G04 APERTURE END LIST*
D10*
X65809523Y-50960714D02*
X65809523Y-51627380D01*
X66047619Y-50579761D02*
X66285714Y-51294047D01*
X65666666Y-51294047D01*
X65285714Y-51532142D02*
X65238095Y-51579761D01*
X65285714Y-51627380D01*
X65333333Y-51579761D01*
X65285714Y-51532142D01*
X65285714Y-51627380D01*
X64333333Y-50627380D02*
X64809523Y-50627380D01*
X64857142Y-51103571D01*
X64809523Y-51055952D01*
X64714285Y-51008333D01*
X64476190Y-51008333D01*
X64380952Y-51055952D01*
X64333333Y-51103571D01*
X64285714Y-51198809D01*
X64285714Y-51436904D01*
X64333333Y-51532142D01*
X64380952Y-51579761D01*
X64476190Y-51627380D01*
X64714285Y-51627380D01*
X64809523Y-51579761D01*
X64857142Y-51532142D01*
X63095238Y-51246428D02*
X62333333Y-51246428D01*
X62523809Y-51436904D02*
X62333333Y-51246428D01*
X62523809Y-51055952D01*
X60666666Y-50627380D02*
X60857142Y-50627380D01*
X60952380Y-50675000D01*
X61000000Y-50722619D01*
X61095238Y-50865476D01*
X61142857Y-51055952D01*
X61142857Y-51436904D01*
X61095238Y-51532142D01*
X61047619Y-51579761D01*
X60952380Y-51627380D01*
X60761904Y-51627380D01*
X60666666Y-51579761D01*
X60619047Y-51532142D01*
X60571428Y-51436904D01*
X60571428Y-51198809D01*
X60619047Y-51103571D01*
X60666666Y-51055952D01*
X60761904Y-51008333D01*
X60952380Y-51008333D01*
X61047619Y-51055952D01*
X61095238Y-51103571D01*
X61142857Y-51198809D01*
X59952380Y-50627380D02*
X59857142Y-50627380D01*
X59761904Y-50675000D01*
X59714285Y-50722619D01*
X59666666Y-50817857D01*
X59619047Y-51008333D01*
X59619047Y-51246428D01*
X59666666Y-51436904D01*
X59714285Y-51532142D01*
X59761904Y-51579761D01*
X59857142Y-51627380D01*
X59952380Y-51627380D01*
X60047619Y-51579761D01*
X60095238Y-51532142D01*
X60142857Y-51436904D01*
X60190476Y-51246428D01*
X60190476Y-51008333D01*
X60142857Y-50817857D01*
X60095238Y-50722619D01*
X60047619Y-50675000D01*
X59952380Y-50627380D01*
X58571428Y-50627380D02*
X58238095Y-51627380D01*
X57904761Y-50627380D01*
X57571428Y-51627380D02*
X57571428Y-50627380D01*
X57333333Y-50627380D01*
X57190476Y-50675000D01*
X57095238Y-50770238D01*
X57047619Y-50865476D01*
X57000000Y-51055952D01*
X57000000Y-51198809D01*
X57047619Y-51389285D01*
X57095238Y-51484523D01*
X57190476Y-51579761D01*
X57333333Y-51627380D01*
X57571428Y-51627380D01*
X56000000Y-51532142D02*
X56047619Y-51579761D01*
X56190476Y-51627380D01*
X56285714Y-51627380D01*
X56428571Y-51579761D01*
X56523809Y-51484523D01*
X56571428Y-51389285D01*
X56619047Y-51198809D01*
X56619047Y-51055952D01*
X56571428Y-50865476D01*
X56523809Y-50770238D01*
X56428571Y-50675000D01*
X56285714Y-50627380D01*
X56190476Y-50627380D01*
X56047619Y-50675000D01*
X56000000Y-50722619D01*
X54809523Y-51627380D02*
X54809523Y-50627380D01*
X54333333Y-51627380D02*
X54333333Y-50627380D01*
X53761904Y-51627380D01*
X53761904Y-50627380D01*
X65380952Y-52610714D02*
X65380952Y-53277380D01*
X65619047Y-52229761D02*
X65857142Y-52944047D01*
X65238095Y-52944047D01*
X64142857Y-52229761D02*
X65000000Y-53515476D01*
X63333333Y-52277380D02*
X63809523Y-52277380D01*
X63857142Y-52753571D01*
X63809523Y-52705952D01*
X63714285Y-52658333D01*
X63476190Y-52658333D01*
X63380952Y-52705952D01*
X63333333Y-52753571D01*
X63285714Y-52848809D01*
X63285714Y-53086904D01*
X63333333Y-53182142D01*
X63380952Y-53229761D01*
X63476190Y-53277380D01*
X63714285Y-53277380D01*
X63809523Y-53229761D01*
X63857142Y-53182142D01*
X62857142Y-53182142D02*
X62809523Y-53229761D01*
X62857142Y-53277380D01*
X62904761Y-53229761D01*
X62857142Y-53182142D01*
X62857142Y-53277380D01*
X62857142Y-52658333D02*
X62809523Y-52705952D01*
X62857142Y-52753571D01*
X62904761Y-52705952D01*
X62857142Y-52658333D01*
X62857142Y-52753571D01*
X61619047Y-52896428D02*
X60857142Y-52896428D01*
X61238095Y-53277380D02*
X61238095Y-52515476D01*
X60333333Y-53229761D02*
X60333333Y-53277380D01*
X60380952Y-53372619D01*
X60428571Y-53420238D01*
X59238095Y-52277380D02*
X58571428Y-52277380D01*
X59000000Y-53277380D01*
X57476190Y-52229761D02*
X58333333Y-53515476D01*
X57000000Y-52705952D02*
X57095238Y-52658333D01*
X57142857Y-52610714D01*
X57190476Y-52515476D01*
X57190476Y-52467857D01*
X57142857Y-52372619D01*
X57095238Y-52325000D01*
X57000000Y-52277380D01*
X56809523Y-52277380D01*
X56714285Y-52325000D01*
X56666666Y-52372619D01*
X56619047Y-52467857D01*
X56619047Y-52515476D01*
X56666666Y-52610714D01*
X56714285Y-52658333D01*
X56809523Y-52705952D01*
X57000000Y-52705952D01*
X57095238Y-52753571D01*
X57142857Y-52801190D01*
X57190476Y-52896428D01*
X57190476Y-53086904D01*
X57142857Y-53182142D01*
X57095238Y-53229761D01*
X57000000Y-53277380D01*
X56809523Y-53277380D01*
X56714285Y-53229761D01*
X56666666Y-53182142D01*
X56619047Y-53086904D01*
X56619047Y-52896428D01*
X56666666Y-52801190D01*
X56714285Y-52753571D01*
X56809523Y-52705952D01*
X56190476Y-53182142D02*
X56142857Y-53229761D01*
X56190476Y-53277380D01*
X56238095Y-53229761D01*
X56190476Y-53182142D01*
X56190476Y-53277380D01*
X56190476Y-52658333D02*
X56142857Y-52705952D01*
X56190476Y-52753571D01*
X56238095Y-52705952D01*
X56190476Y-52658333D01*
X56190476Y-52753571D01*
X54952380Y-52896428D02*
X54190476Y-52896428D01*
%LPC*%
D11*
G04 #@! TO.C,IC1*
X63556000Y-59318000D03*
X61524000Y-59318000D03*
X59492000Y-59318000D03*
X57460000Y-59318000D03*
X62540000Y-57540000D03*
X60508000Y-57540000D03*
X58476000Y-57540000D03*
X56444000Y-57540000D03*
X66858000Y-64144000D03*
X53142000Y-64144000D03*
X64572000Y-64144000D03*
X55428000Y-64144000D03*
D12*
X66350000Y-55000000D03*
X53650000Y-55000000D03*
D13*
X68128000Y-58429000D03*
X51872000Y-58429000D03*
G04 #@! TD*
D14*
G04 #@! TO.C,J3*
X51550000Y-68500000D03*
G04 #@! TD*
D15*
G04 #@! TO.C,J2*
X62005000Y-97240000D03*
X63021000Y-92160000D03*
X60989000Y-92160000D03*
G04 #@! TD*
D16*
G04 #@! TO.C,J1*
X66465000Y-93960000D03*
X67735000Y-93960000D03*
X66465000Y-95230000D03*
X67735000Y-95230000D03*
X66465000Y-96500000D03*
X67735000Y-96500000D03*
X66465000Y-97770000D03*
X67735000Y-97770000D03*
X66465000Y-99040000D03*
X67735000Y-99040000D03*
G04 #@! TD*
D17*
G04 #@! TO.C,P1*
X56700000Y-108700000D03*
X63300000Y-108700000D03*
X56700000Y-115300000D03*
D18*
X60000000Y-112000000D03*
D17*
X63300000Y-115300000D03*
G04 #@! TD*
M02*
