G04 #@! TF.GenerationSoftware,KiCad,Pcbnew,6.0.0-rc1-unknown-106eaaa~84~ubuntu18.04.1*
G04 #@! TF.CreationDate,2018-11-27T01:39:04+00:00*
G04 #@! TF.ProjectId,proto-sensor,70726f74-6f2d-4736-956e-736f722e6b69,1*
G04 #@! TF.SameCoordinates,Original*
G04 #@! TF.FileFunction,Soldermask,Top*
G04 #@! TF.FilePolarity,Negative*
%FSLAX46Y46*%
G04 Gerber Fmt 4.6, Leading zero omitted, Abs format (unit mm)*
G04 Created by KiCad (PCBNEW 6.0.0-rc1-unknown-106eaaa~84~ubuntu18.04.1) date Tue 27 Nov 2018 01:39:04 GMT*
%MOMM*%
%LPD*%
G01*
G04 APERTURE LIST*
%ADD10C,0.100000*%
G04 APERTURE END LIST*
D10*
G36*
X63772536Y-113742256D02*
X64067358Y-113864375D01*
X64329157Y-114039304D01*
X64332692Y-114041666D01*
X64558334Y-114267308D01*
X64735626Y-114532644D01*
X64857744Y-114827464D01*
X64920000Y-115140443D01*
X64920000Y-115459557D01*
X64857744Y-115772536D01*
X64735626Y-116067356D01*
X64558334Y-116332692D01*
X64332692Y-116558334D01*
X64332689Y-116558336D01*
X64067358Y-116735625D01*
X64067357Y-116735626D01*
X64067356Y-116735626D01*
X63772536Y-116857744D01*
X63459557Y-116920000D01*
X63140443Y-116920000D01*
X62827464Y-116857744D01*
X62532644Y-116735626D01*
X62532643Y-116735626D01*
X62532642Y-116735625D01*
X62267311Y-116558336D01*
X62267308Y-116558334D01*
X62041666Y-116332692D01*
X61864374Y-116067356D01*
X61742256Y-115772536D01*
X61680000Y-115459557D01*
X61680000Y-115140443D01*
X61742256Y-114827464D01*
X61864374Y-114532644D01*
X62041666Y-114267308D01*
X62267308Y-114041666D01*
X62270843Y-114039304D01*
X62532642Y-113864375D01*
X62827464Y-113742256D01*
X63140443Y-113680000D01*
X63459557Y-113680000D01*
X63772536Y-113742256D01*
X63772536Y-113742256D01*
G37*
G36*
X57172536Y-113742256D02*
X57467358Y-113864375D01*
X57729157Y-114039304D01*
X57732692Y-114041666D01*
X57958334Y-114267308D01*
X58135626Y-114532644D01*
X58257744Y-114827464D01*
X58320000Y-115140443D01*
X58320000Y-115459557D01*
X58257744Y-115772536D01*
X58135626Y-116067356D01*
X57958334Y-116332692D01*
X57732692Y-116558334D01*
X57732689Y-116558336D01*
X57467358Y-116735625D01*
X57467357Y-116735626D01*
X57467356Y-116735626D01*
X57172536Y-116857744D01*
X56859557Y-116920000D01*
X56540443Y-116920000D01*
X56227464Y-116857744D01*
X55932644Y-116735626D01*
X55932643Y-116735626D01*
X55932642Y-116735625D01*
X55667311Y-116558336D01*
X55667308Y-116558334D01*
X55441666Y-116332692D01*
X55264374Y-116067356D01*
X55142256Y-115772536D01*
X55080000Y-115459557D01*
X55080000Y-115140443D01*
X55142256Y-114827464D01*
X55264374Y-114532644D01*
X55441666Y-114267308D01*
X55667308Y-114041666D01*
X55670843Y-114039304D01*
X55932642Y-113864375D01*
X56227464Y-113742256D01*
X56540443Y-113680000D01*
X56859557Y-113680000D01*
X57172536Y-113742256D01*
X57172536Y-113742256D01*
G37*
G36*
X60297523Y-111019198D02*
X60483152Y-111096088D01*
X60650213Y-111207715D01*
X60792285Y-111349787D01*
X60903912Y-111516848D01*
X60980802Y-111702477D01*
X61020000Y-111899538D01*
X61020000Y-112100462D01*
X60980802Y-112297523D01*
X60903912Y-112483152D01*
X60792285Y-112650213D01*
X60650213Y-112792285D01*
X60483152Y-112903912D01*
X60297523Y-112980802D01*
X60100462Y-113020000D01*
X59899538Y-113020000D01*
X59702477Y-112980802D01*
X59516848Y-112903912D01*
X59349787Y-112792285D01*
X59207715Y-112650213D01*
X59096088Y-112483152D01*
X59019198Y-112297523D01*
X58980000Y-112100462D01*
X58980000Y-111899538D01*
X59019198Y-111702477D01*
X59096088Y-111516848D01*
X59207715Y-111349787D01*
X59349787Y-111207715D01*
X59516848Y-111096088D01*
X59702477Y-111019198D01*
X59899538Y-110980000D01*
X60100462Y-110980000D01*
X60297523Y-111019198D01*
X60297523Y-111019198D01*
G37*
G36*
X57172536Y-107142256D02*
X57467358Y-107264375D01*
X57729157Y-107439304D01*
X57732692Y-107441666D01*
X57958334Y-107667308D01*
X58135626Y-107932644D01*
X58257744Y-108227464D01*
X58320000Y-108540443D01*
X58320000Y-108859557D01*
X58257744Y-109172536D01*
X58135626Y-109467356D01*
X57958334Y-109732692D01*
X57732692Y-109958334D01*
X57732689Y-109958336D01*
X57467358Y-110135625D01*
X57467357Y-110135626D01*
X57467356Y-110135626D01*
X57172536Y-110257744D01*
X56859557Y-110320000D01*
X56540443Y-110320000D01*
X56227464Y-110257744D01*
X55932644Y-110135626D01*
X55932643Y-110135626D01*
X55932642Y-110135625D01*
X55667311Y-109958336D01*
X55667308Y-109958334D01*
X55441666Y-109732692D01*
X55264374Y-109467356D01*
X55142256Y-109172536D01*
X55080000Y-108859557D01*
X55080000Y-108540443D01*
X55142256Y-108227464D01*
X55264374Y-107932644D01*
X55441666Y-107667308D01*
X55667308Y-107441666D01*
X55670843Y-107439304D01*
X55932642Y-107264375D01*
X56227464Y-107142256D01*
X56540443Y-107080000D01*
X56859557Y-107080000D01*
X57172536Y-107142256D01*
X57172536Y-107142256D01*
G37*
G36*
X63772536Y-107142256D02*
X64067358Y-107264375D01*
X64329157Y-107439304D01*
X64332692Y-107441666D01*
X64558334Y-107667308D01*
X64735626Y-107932644D01*
X64857744Y-108227464D01*
X64920000Y-108540443D01*
X64920000Y-108859557D01*
X64857744Y-109172536D01*
X64735626Y-109467356D01*
X64558334Y-109732692D01*
X64332692Y-109958334D01*
X64332689Y-109958336D01*
X64067358Y-110135625D01*
X64067357Y-110135626D01*
X64067356Y-110135626D01*
X63772536Y-110257744D01*
X63459557Y-110320000D01*
X63140443Y-110320000D01*
X62827464Y-110257744D01*
X62532644Y-110135626D01*
X62532643Y-110135626D01*
X62532642Y-110135625D01*
X62267311Y-109958336D01*
X62267308Y-109958334D01*
X62041666Y-109732692D01*
X61864374Y-109467356D01*
X61742256Y-109172536D01*
X61680000Y-108859557D01*
X61680000Y-108540443D01*
X61742256Y-108227464D01*
X61864374Y-107932644D01*
X62041666Y-107667308D01*
X62267308Y-107441666D01*
X62270843Y-107439304D01*
X62532642Y-107264375D01*
X62827464Y-107142256D01*
X63140443Y-107080000D01*
X63459557Y-107080000D01*
X63772536Y-107142256D01*
X63772536Y-107142256D01*
G37*
G36*
X68320000Y-110220000D02*
X66880000Y-110220000D01*
X66880000Y-109180000D01*
X68320000Y-109180000D01*
X68320000Y-110220000D01*
X68320000Y-110220000D01*
G37*
G36*
X53120000Y-110220000D02*
X51680000Y-110220000D01*
X51680000Y-109180000D01*
X53120000Y-109180000D01*
X53120000Y-110220000D01*
X53120000Y-110220000D01*
G37*
G36*
X62880000Y-104730000D02*
X61320000Y-104730000D01*
X61320000Y-104070000D01*
X62880000Y-104070000D01*
X62880000Y-104730000D01*
X62880000Y-104730000D01*
G37*
G36*
X60780000Y-104730000D02*
X59220000Y-104730000D01*
X59220000Y-104070000D01*
X60780000Y-104070000D01*
X60780000Y-104730000D01*
X60780000Y-104730000D01*
G37*
G36*
X58680000Y-104730000D02*
X57120000Y-104730000D01*
X57120000Y-104070000D01*
X58680000Y-104070000D01*
X58680000Y-104730000D01*
X58680000Y-104730000D01*
G37*
G36*
X55530000Y-103780000D02*
X54870000Y-103780000D01*
X54870000Y-102220000D01*
X55530000Y-102220000D01*
X55530000Y-103780000D01*
X55530000Y-103780000D01*
G37*
G36*
X65130000Y-103780000D02*
X64470000Y-103780000D01*
X64470000Y-102220000D01*
X65130000Y-102220000D01*
X65130000Y-103780000D01*
X65130000Y-103780000D01*
G37*
G36*
X61270000Y-103570000D02*
X60630000Y-103570000D01*
X60630000Y-102430000D01*
X61270000Y-102430000D01*
X61270000Y-103570000D01*
X61270000Y-103570000D01*
G37*
G36*
X59370000Y-103570000D02*
X58730000Y-103570000D01*
X58730000Y-102430000D01*
X59370000Y-102430000D01*
X59370000Y-103570000D01*
X59370000Y-103570000D01*
G37*
G36*
X60320000Y-103570000D02*
X59680000Y-103570000D01*
X59680000Y-102430000D01*
X60320000Y-102430000D01*
X60320000Y-103570000D01*
X60320000Y-103570000D01*
G37*
G36*
X57830000Y-103480000D02*
X57170000Y-103480000D01*
X57170000Y-101920000D01*
X57830000Y-101920000D01*
X57830000Y-103480000D01*
X57830000Y-103480000D01*
G37*
G36*
X53120000Y-103220000D02*
X51680000Y-103220000D01*
X51680000Y-102180000D01*
X53120000Y-102180000D01*
X53120000Y-103220000D01*
X53120000Y-103220000D01*
G37*
G36*
X68320000Y-103220000D02*
X66880000Y-103220000D01*
X66880000Y-102180000D01*
X68320000Y-102180000D01*
X68320000Y-103220000D01*
X68320000Y-103220000D01*
G37*
G36*
X59370000Y-100970000D02*
X58730000Y-100970000D01*
X58730000Y-99830000D01*
X59370000Y-99830000D01*
X59370000Y-100970000D01*
X59370000Y-100970000D01*
G37*
G36*
X60320000Y-100970000D02*
X59680000Y-100970000D01*
X59680000Y-99830000D01*
X60320000Y-99830000D01*
X60320000Y-100970000D01*
X60320000Y-100970000D01*
G37*
G36*
X61270000Y-100970000D02*
X60630000Y-100970000D01*
X60630000Y-99830000D01*
X61270000Y-99830000D01*
X61270000Y-100970000D01*
X61270000Y-100970000D01*
G37*
G36*
X53120000Y-100520000D02*
X51680000Y-100520000D01*
X51680000Y-99480000D01*
X53120000Y-99480000D01*
X53120000Y-100520000D01*
X53120000Y-100520000D01*
G37*
G36*
X63730000Y-100180000D02*
X63070000Y-100180000D01*
X63070000Y-98620000D01*
X63730000Y-98620000D01*
X63730000Y-100180000D01*
X63730000Y-100180000D01*
G37*
G36*
X66619010Y-93452290D02*
X66619013Y-93452291D01*
X66619012Y-93452291D01*
X66715102Y-93492092D01*
X66801581Y-93549875D01*
X66875125Y-93623419D01*
X66932908Y-93709898D01*
X66968754Y-93796440D01*
X66972710Y-93805991D01*
X66977402Y-93829577D01*
X66984515Y-93853026D01*
X66996066Y-93874637D01*
X67011612Y-93893579D01*
X67030554Y-93909125D01*
X67052165Y-93920676D01*
X67075614Y-93927789D01*
X67100000Y-93930191D01*
X67124386Y-93927789D01*
X67147835Y-93920676D01*
X67169446Y-93909125D01*
X67188388Y-93893579D01*
X67203934Y-93874637D01*
X67215485Y-93853026D01*
X67222598Y-93829577D01*
X67227290Y-93805991D01*
X67231246Y-93796440D01*
X67267092Y-93709898D01*
X67324875Y-93623419D01*
X67398419Y-93549875D01*
X67484898Y-93492092D01*
X67580988Y-93452291D01*
X67580987Y-93452291D01*
X67580990Y-93452290D01*
X67682995Y-93432000D01*
X67787005Y-93432000D01*
X67889010Y-93452290D01*
X67889013Y-93452291D01*
X67889012Y-93452291D01*
X67985102Y-93492092D01*
X68071581Y-93549875D01*
X68145125Y-93623419D01*
X68202908Y-93709898D01*
X68220009Y-93751185D01*
X68242710Y-93805990D01*
X68263000Y-93907995D01*
X68263000Y-94012005D01*
X68242710Y-94114010D01*
X68242709Y-94114012D01*
X68202908Y-94210102D01*
X68145125Y-94296581D01*
X68071581Y-94370125D01*
X67985102Y-94427908D01*
X67889012Y-94467709D01*
X67889011Y-94467709D01*
X67889009Y-94467710D01*
X67865423Y-94472402D01*
X67841974Y-94479515D01*
X67820363Y-94491066D01*
X67801421Y-94506612D01*
X67785875Y-94525554D01*
X67774324Y-94547165D01*
X67767211Y-94570614D01*
X67764809Y-94595000D01*
X67767211Y-94619386D01*
X67774324Y-94642835D01*
X67785875Y-94664446D01*
X67801421Y-94683388D01*
X67820363Y-94698934D01*
X67841974Y-94710485D01*
X67865423Y-94717598D01*
X67889009Y-94722290D01*
X67889011Y-94722291D01*
X67889012Y-94722291D01*
X67985102Y-94762092D01*
X68071581Y-94819875D01*
X68145125Y-94893419D01*
X68202908Y-94979898D01*
X68220009Y-95021185D01*
X68242710Y-95075990D01*
X68263000Y-95177995D01*
X68263000Y-95282005D01*
X68242710Y-95384010D01*
X68242709Y-95384012D01*
X68202908Y-95480102D01*
X68145125Y-95566581D01*
X68071581Y-95640125D01*
X67985102Y-95697908D01*
X67889012Y-95737709D01*
X67889011Y-95737709D01*
X67889009Y-95737710D01*
X67865423Y-95742402D01*
X67841974Y-95749515D01*
X67820363Y-95761066D01*
X67801421Y-95776612D01*
X67785875Y-95795554D01*
X67774324Y-95817165D01*
X67767211Y-95840614D01*
X67764809Y-95865000D01*
X67767211Y-95889386D01*
X67774324Y-95912835D01*
X67785875Y-95934446D01*
X67801421Y-95953388D01*
X67820363Y-95968934D01*
X67841974Y-95980485D01*
X67865423Y-95987598D01*
X67889009Y-95992290D01*
X67889011Y-95992291D01*
X67889012Y-95992291D01*
X67985102Y-96032092D01*
X68071581Y-96089875D01*
X68145125Y-96163419D01*
X68202908Y-96249898D01*
X68220009Y-96291185D01*
X68242710Y-96345990D01*
X68263000Y-96447995D01*
X68263000Y-96552005D01*
X68242710Y-96654010D01*
X68242709Y-96654012D01*
X68202908Y-96750102D01*
X68145125Y-96836581D01*
X68071581Y-96910125D01*
X67985102Y-96967908D01*
X67889012Y-97007709D01*
X67889011Y-97007709D01*
X67889009Y-97007710D01*
X67865423Y-97012402D01*
X67841974Y-97019515D01*
X67820363Y-97031066D01*
X67801421Y-97046612D01*
X67785875Y-97065554D01*
X67774324Y-97087165D01*
X67767211Y-97110614D01*
X67764809Y-97135000D01*
X67767211Y-97159386D01*
X67774324Y-97182835D01*
X67785875Y-97204446D01*
X67801421Y-97223388D01*
X67820363Y-97238934D01*
X67841974Y-97250485D01*
X67865423Y-97257598D01*
X67889009Y-97262290D01*
X67889011Y-97262291D01*
X67889012Y-97262291D01*
X67985102Y-97302092D01*
X68071581Y-97359875D01*
X68145125Y-97433419D01*
X68202908Y-97519898D01*
X68224274Y-97571481D01*
X68242710Y-97615990D01*
X68263000Y-97717995D01*
X68263000Y-97822005D01*
X68242710Y-97924010D01*
X68242709Y-97924012D01*
X68202908Y-98020102D01*
X68145125Y-98106581D01*
X68071581Y-98180125D01*
X67985102Y-98237908D01*
X67889012Y-98277709D01*
X67889011Y-98277709D01*
X67889009Y-98277710D01*
X67865423Y-98282402D01*
X67841974Y-98289515D01*
X67820363Y-98301066D01*
X67801421Y-98316612D01*
X67785875Y-98335554D01*
X67774324Y-98357165D01*
X67767211Y-98380614D01*
X67764809Y-98405000D01*
X67767211Y-98429386D01*
X67774324Y-98452835D01*
X67785875Y-98474446D01*
X67801421Y-98493388D01*
X67820363Y-98508934D01*
X67841974Y-98520485D01*
X67865423Y-98527598D01*
X67889009Y-98532290D01*
X67889011Y-98532291D01*
X67889012Y-98532291D01*
X67985102Y-98572092D01*
X68071581Y-98629875D01*
X68145125Y-98703419D01*
X68202908Y-98789898D01*
X68233692Y-98864220D01*
X68242710Y-98885990D01*
X68263000Y-98987995D01*
X68263000Y-99092005D01*
X68242710Y-99194010D01*
X68242709Y-99194012D01*
X68202908Y-99290102D01*
X68145125Y-99376581D01*
X68071581Y-99450125D01*
X67985102Y-99507908D01*
X67910780Y-99538692D01*
X67889010Y-99547710D01*
X67787005Y-99568000D01*
X67682995Y-99568000D01*
X67580990Y-99547710D01*
X67559220Y-99538692D01*
X67484898Y-99507908D01*
X67398419Y-99450125D01*
X67324875Y-99376581D01*
X67267092Y-99290102D01*
X67227291Y-99194012D01*
X67227291Y-99194011D01*
X67227290Y-99194009D01*
X67222598Y-99170423D01*
X67215485Y-99146974D01*
X67203934Y-99125363D01*
X67188388Y-99106421D01*
X67169446Y-99090875D01*
X67147835Y-99079324D01*
X67124386Y-99072211D01*
X67100000Y-99069809D01*
X67075614Y-99072211D01*
X67052165Y-99079324D01*
X67030554Y-99090875D01*
X67011612Y-99106421D01*
X66996066Y-99125363D01*
X66984515Y-99146974D01*
X66977402Y-99170423D01*
X66972710Y-99194009D01*
X66972709Y-99194011D01*
X66972709Y-99194012D01*
X66932908Y-99290102D01*
X66875125Y-99376581D01*
X66801581Y-99450125D01*
X66715102Y-99507908D01*
X66640780Y-99538692D01*
X66619010Y-99547710D01*
X66517005Y-99568000D01*
X66412995Y-99568000D01*
X66310990Y-99547710D01*
X66289220Y-99538692D01*
X66214898Y-99507908D01*
X66128419Y-99450125D01*
X66054875Y-99376581D01*
X65997092Y-99290102D01*
X65957291Y-99194012D01*
X65957290Y-99194010D01*
X65937000Y-99092005D01*
X65937000Y-98987995D01*
X65957290Y-98885990D01*
X65966308Y-98864220D01*
X65997092Y-98789898D01*
X66054875Y-98703419D01*
X66128419Y-98629875D01*
X66214898Y-98572092D01*
X66310988Y-98532291D01*
X66310989Y-98532291D01*
X66310991Y-98532290D01*
X66334577Y-98527598D01*
X66358026Y-98520485D01*
X66379637Y-98508934D01*
X66398579Y-98493388D01*
X66414125Y-98474446D01*
X66425676Y-98452835D01*
X66432789Y-98429386D01*
X66435191Y-98405000D01*
X66494809Y-98405000D01*
X66497211Y-98429386D01*
X66504324Y-98452835D01*
X66515875Y-98474446D01*
X66531421Y-98493388D01*
X66550363Y-98508934D01*
X66571974Y-98520485D01*
X66595423Y-98527598D01*
X66619009Y-98532290D01*
X66619011Y-98532291D01*
X66619012Y-98532291D01*
X66715102Y-98572092D01*
X66801581Y-98629875D01*
X66875125Y-98703419D01*
X66932908Y-98789898D01*
X66972709Y-98885988D01*
X66972710Y-98885991D01*
X66977402Y-98909577D01*
X66984515Y-98933026D01*
X66996066Y-98954637D01*
X67011612Y-98973579D01*
X67030554Y-98989125D01*
X67052165Y-99000676D01*
X67075614Y-99007789D01*
X67100000Y-99010191D01*
X67124386Y-99007789D01*
X67147835Y-99000676D01*
X67169446Y-98989125D01*
X67188388Y-98973579D01*
X67203934Y-98954637D01*
X67215485Y-98933026D01*
X67222598Y-98909577D01*
X67227290Y-98885991D01*
X67227291Y-98885988D01*
X67267092Y-98789898D01*
X67324875Y-98703419D01*
X67398419Y-98629875D01*
X67484898Y-98572092D01*
X67580988Y-98532291D01*
X67580989Y-98532291D01*
X67580991Y-98532290D01*
X67604577Y-98527598D01*
X67628026Y-98520485D01*
X67649637Y-98508934D01*
X67668579Y-98493388D01*
X67684125Y-98474446D01*
X67695676Y-98452835D01*
X67702789Y-98429386D01*
X67705191Y-98405000D01*
X67702789Y-98380614D01*
X67695676Y-98357165D01*
X67684125Y-98335554D01*
X67668579Y-98316612D01*
X67649637Y-98301066D01*
X67628026Y-98289515D01*
X67604577Y-98282402D01*
X67580991Y-98277710D01*
X67580989Y-98277709D01*
X67580988Y-98277709D01*
X67484898Y-98237908D01*
X67398419Y-98180125D01*
X67324875Y-98106581D01*
X67267092Y-98020102D01*
X67227291Y-97924012D01*
X67227291Y-97924011D01*
X67227290Y-97924009D01*
X67222598Y-97900423D01*
X67215485Y-97876974D01*
X67203934Y-97855363D01*
X67188388Y-97836421D01*
X67169446Y-97820875D01*
X67147835Y-97809324D01*
X67124386Y-97802211D01*
X67100000Y-97799809D01*
X67075614Y-97802211D01*
X67052165Y-97809324D01*
X67030554Y-97820875D01*
X67011612Y-97836421D01*
X66996066Y-97855363D01*
X66984515Y-97876974D01*
X66977402Y-97900423D01*
X66972710Y-97924009D01*
X66972709Y-97924011D01*
X66972709Y-97924012D01*
X66932908Y-98020102D01*
X66875125Y-98106581D01*
X66801581Y-98180125D01*
X66715102Y-98237908D01*
X66619012Y-98277709D01*
X66619011Y-98277709D01*
X66619009Y-98277710D01*
X66595423Y-98282402D01*
X66571974Y-98289515D01*
X66550363Y-98301066D01*
X66531421Y-98316612D01*
X66515875Y-98335554D01*
X66504324Y-98357165D01*
X66497211Y-98380614D01*
X66494809Y-98405000D01*
X66435191Y-98405000D01*
X66432789Y-98380614D01*
X66425676Y-98357165D01*
X66414125Y-98335554D01*
X66398579Y-98316612D01*
X66379637Y-98301066D01*
X66358026Y-98289515D01*
X66334577Y-98282402D01*
X66310991Y-98277710D01*
X66310989Y-98277709D01*
X66310988Y-98277709D01*
X66214898Y-98237908D01*
X66128419Y-98180125D01*
X66054875Y-98106581D01*
X65997092Y-98020102D01*
X65957291Y-97924012D01*
X65957290Y-97924010D01*
X65937000Y-97822005D01*
X65937000Y-97717995D01*
X65957290Y-97615990D01*
X65975726Y-97571481D01*
X65997092Y-97519898D01*
X66054875Y-97433419D01*
X66128419Y-97359875D01*
X66214898Y-97302092D01*
X66310988Y-97262291D01*
X66310989Y-97262291D01*
X66310991Y-97262290D01*
X66334577Y-97257598D01*
X66358026Y-97250485D01*
X66379637Y-97238934D01*
X66398579Y-97223388D01*
X66414125Y-97204446D01*
X66425676Y-97182835D01*
X66432789Y-97159386D01*
X66435191Y-97135000D01*
X66494809Y-97135000D01*
X66497211Y-97159386D01*
X66504324Y-97182835D01*
X66515875Y-97204446D01*
X66531421Y-97223388D01*
X66550363Y-97238934D01*
X66571974Y-97250485D01*
X66595423Y-97257598D01*
X66619009Y-97262290D01*
X66619011Y-97262291D01*
X66619012Y-97262291D01*
X66715102Y-97302092D01*
X66801581Y-97359875D01*
X66875125Y-97433419D01*
X66932908Y-97519898D01*
X66972709Y-97615988D01*
X66972710Y-97615991D01*
X66977402Y-97639577D01*
X66984515Y-97663026D01*
X66996066Y-97684637D01*
X67011612Y-97703579D01*
X67030554Y-97719125D01*
X67052165Y-97730676D01*
X67075614Y-97737789D01*
X67100000Y-97740191D01*
X67124386Y-97737789D01*
X67147835Y-97730676D01*
X67169446Y-97719125D01*
X67188388Y-97703579D01*
X67203934Y-97684637D01*
X67215485Y-97663026D01*
X67222598Y-97639577D01*
X67227290Y-97615991D01*
X67227291Y-97615988D01*
X67267092Y-97519898D01*
X67324875Y-97433419D01*
X67398419Y-97359875D01*
X67484898Y-97302092D01*
X67580988Y-97262291D01*
X67580989Y-97262291D01*
X67580991Y-97262290D01*
X67604577Y-97257598D01*
X67628026Y-97250485D01*
X67649637Y-97238934D01*
X67668579Y-97223388D01*
X67684125Y-97204446D01*
X67695676Y-97182835D01*
X67702789Y-97159386D01*
X67705191Y-97135000D01*
X67702789Y-97110614D01*
X67695676Y-97087165D01*
X67684125Y-97065554D01*
X67668579Y-97046612D01*
X67649637Y-97031066D01*
X67628026Y-97019515D01*
X67604577Y-97012402D01*
X67580991Y-97007710D01*
X67580989Y-97007709D01*
X67580988Y-97007709D01*
X67484898Y-96967908D01*
X67398419Y-96910125D01*
X67324875Y-96836581D01*
X67267092Y-96750102D01*
X67227291Y-96654012D01*
X67227291Y-96654011D01*
X67227290Y-96654009D01*
X67222598Y-96630423D01*
X67215485Y-96606974D01*
X67203934Y-96585363D01*
X67188388Y-96566421D01*
X67169446Y-96550875D01*
X67147835Y-96539324D01*
X67124386Y-96532211D01*
X67100000Y-96529809D01*
X67075614Y-96532211D01*
X67052165Y-96539324D01*
X67030554Y-96550875D01*
X67011612Y-96566421D01*
X66996066Y-96585363D01*
X66984515Y-96606974D01*
X66977402Y-96630423D01*
X66972710Y-96654009D01*
X66972709Y-96654011D01*
X66972709Y-96654012D01*
X66932908Y-96750102D01*
X66875125Y-96836581D01*
X66801581Y-96910125D01*
X66715102Y-96967908D01*
X66619012Y-97007709D01*
X66619011Y-97007709D01*
X66619009Y-97007710D01*
X66595423Y-97012402D01*
X66571974Y-97019515D01*
X66550363Y-97031066D01*
X66531421Y-97046612D01*
X66515875Y-97065554D01*
X66504324Y-97087165D01*
X66497211Y-97110614D01*
X66494809Y-97135000D01*
X66435191Y-97135000D01*
X66432789Y-97110614D01*
X66425676Y-97087165D01*
X66414125Y-97065554D01*
X66398579Y-97046612D01*
X66379637Y-97031066D01*
X66358026Y-97019515D01*
X66334577Y-97012402D01*
X66310991Y-97007710D01*
X66310989Y-97007709D01*
X66310988Y-97007709D01*
X66214898Y-96967908D01*
X66128419Y-96910125D01*
X66054875Y-96836581D01*
X65997092Y-96750102D01*
X65957291Y-96654012D01*
X65957290Y-96654010D01*
X65937000Y-96552005D01*
X65937000Y-96447995D01*
X65957290Y-96345990D01*
X65979991Y-96291185D01*
X65997092Y-96249898D01*
X66054875Y-96163419D01*
X66128419Y-96089875D01*
X66214898Y-96032092D01*
X66310988Y-95992291D01*
X66310989Y-95992291D01*
X66310991Y-95992290D01*
X66334577Y-95987598D01*
X66358026Y-95980485D01*
X66379637Y-95968934D01*
X66398579Y-95953388D01*
X66414125Y-95934446D01*
X66425676Y-95912835D01*
X66432789Y-95889386D01*
X66435191Y-95865000D01*
X66494809Y-95865000D01*
X66497211Y-95889386D01*
X66504324Y-95912835D01*
X66515875Y-95934446D01*
X66531421Y-95953388D01*
X66550363Y-95968934D01*
X66571974Y-95980485D01*
X66595423Y-95987598D01*
X66619009Y-95992290D01*
X66619011Y-95992291D01*
X66619012Y-95992291D01*
X66715102Y-96032092D01*
X66801581Y-96089875D01*
X66875125Y-96163419D01*
X66932908Y-96249898D01*
X66968754Y-96336440D01*
X66972710Y-96345991D01*
X66977402Y-96369577D01*
X66984515Y-96393026D01*
X66996066Y-96414637D01*
X67011612Y-96433579D01*
X67030554Y-96449125D01*
X67052165Y-96460676D01*
X67075614Y-96467789D01*
X67100000Y-96470191D01*
X67124386Y-96467789D01*
X67147835Y-96460676D01*
X67169446Y-96449125D01*
X67188388Y-96433579D01*
X67203934Y-96414637D01*
X67215485Y-96393026D01*
X67222598Y-96369577D01*
X67227290Y-96345991D01*
X67231246Y-96336440D01*
X67267092Y-96249898D01*
X67324875Y-96163419D01*
X67398419Y-96089875D01*
X67484898Y-96032092D01*
X67580988Y-95992291D01*
X67580989Y-95992291D01*
X67580991Y-95992290D01*
X67604577Y-95987598D01*
X67628026Y-95980485D01*
X67649637Y-95968934D01*
X67668579Y-95953388D01*
X67684125Y-95934446D01*
X67695676Y-95912835D01*
X67702789Y-95889386D01*
X67705191Y-95865000D01*
X67702789Y-95840614D01*
X67695676Y-95817165D01*
X67684125Y-95795554D01*
X67668579Y-95776612D01*
X67649637Y-95761066D01*
X67628026Y-95749515D01*
X67604577Y-95742402D01*
X67580991Y-95737710D01*
X67580989Y-95737709D01*
X67580988Y-95737709D01*
X67484898Y-95697908D01*
X67398419Y-95640125D01*
X67324875Y-95566581D01*
X67267092Y-95480102D01*
X67227291Y-95384012D01*
X67227291Y-95384011D01*
X67227290Y-95384009D01*
X67222598Y-95360423D01*
X67215485Y-95336974D01*
X67203934Y-95315363D01*
X67188388Y-95296421D01*
X67169446Y-95280875D01*
X67147835Y-95269324D01*
X67124386Y-95262211D01*
X67100000Y-95259809D01*
X67075614Y-95262211D01*
X67052165Y-95269324D01*
X67030554Y-95280875D01*
X67011612Y-95296421D01*
X66996066Y-95315363D01*
X66984515Y-95336974D01*
X66977402Y-95360423D01*
X66972710Y-95384009D01*
X66972709Y-95384011D01*
X66972709Y-95384012D01*
X66932908Y-95480102D01*
X66875125Y-95566581D01*
X66801581Y-95640125D01*
X66715102Y-95697908D01*
X66619012Y-95737709D01*
X66619011Y-95737709D01*
X66619009Y-95737710D01*
X66595423Y-95742402D01*
X66571974Y-95749515D01*
X66550363Y-95761066D01*
X66531421Y-95776612D01*
X66515875Y-95795554D01*
X66504324Y-95817165D01*
X66497211Y-95840614D01*
X66494809Y-95865000D01*
X66435191Y-95865000D01*
X66432789Y-95840614D01*
X66425676Y-95817165D01*
X66414125Y-95795554D01*
X66398579Y-95776612D01*
X66379637Y-95761066D01*
X66358026Y-95749515D01*
X66334577Y-95742402D01*
X66310991Y-95737710D01*
X66310989Y-95737709D01*
X66310988Y-95737709D01*
X66214898Y-95697908D01*
X66128419Y-95640125D01*
X66054875Y-95566581D01*
X65997092Y-95480102D01*
X65957291Y-95384012D01*
X65957290Y-95384010D01*
X65937000Y-95282005D01*
X65937000Y-95177995D01*
X65957290Y-95075990D01*
X65979991Y-95021185D01*
X65997092Y-94979898D01*
X66054875Y-94893419D01*
X66128419Y-94819875D01*
X66214898Y-94762092D01*
X66310988Y-94722291D01*
X66310989Y-94722291D01*
X66310991Y-94722290D01*
X66334577Y-94717598D01*
X66358026Y-94710485D01*
X66379637Y-94698934D01*
X66398579Y-94683388D01*
X66414125Y-94664446D01*
X66425676Y-94642835D01*
X66432789Y-94619386D01*
X66435191Y-94595000D01*
X66494809Y-94595000D01*
X66497211Y-94619386D01*
X66504324Y-94642835D01*
X66515875Y-94664446D01*
X66531421Y-94683388D01*
X66550363Y-94698934D01*
X66571974Y-94710485D01*
X66595423Y-94717598D01*
X66619009Y-94722290D01*
X66619011Y-94722291D01*
X66619012Y-94722291D01*
X66715102Y-94762092D01*
X66801581Y-94819875D01*
X66875125Y-94893419D01*
X66932908Y-94979898D01*
X66968754Y-95066440D01*
X66972710Y-95075991D01*
X66977402Y-95099577D01*
X66984515Y-95123026D01*
X66996066Y-95144637D01*
X67011612Y-95163579D01*
X67030554Y-95179125D01*
X67052165Y-95190676D01*
X67075614Y-95197789D01*
X67100000Y-95200191D01*
X67124386Y-95197789D01*
X67147835Y-95190676D01*
X67169446Y-95179125D01*
X67188388Y-95163579D01*
X67203934Y-95144637D01*
X67215485Y-95123026D01*
X67222598Y-95099577D01*
X67227290Y-95075991D01*
X67231246Y-95066440D01*
X67267092Y-94979898D01*
X67324875Y-94893419D01*
X67398419Y-94819875D01*
X67484898Y-94762092D01*
X67580988Y-94722291D01*
X67580989Y-94722291D01*
X67580991Y-94722290D01*
X67604577Y-94717598D01*
X67628026Y-94710485D01*
X67649637Y-94698934D01*
X67668579Y-94683388D01*
X67684125Y-94664446D01*
X67695676Y-94642835D01*
X67702789Y-94619386D01*
X67705191Y-94595000D01*
X67702789Y-94570614D01*
X67695676Y-94547165D01*
X67684125Y-94525554D01*
X67668579Y-94506612D01*
X67649637Y-94491066D01*
X67628026Y-94479515D01*
X67604577Y-94472402D01*
X67580991Y-94467710D01*
X67580989Y-94467709D01*
X67580988Y-94467709D01*
X67484898Y-94427908D01*
X67398419Y-94370125D01*
X67324875Y-94296581D01*
X67267092Y-94210102D01*
X67227291Y-94114012D01*
X67227291Y-94114011D01*
X67227290Y-94114009D01*
X67222598Y-94090423D01*
X67215485Y-94066974D01*
X67203934Y-94045363D01*
X67188388Y-94026421D01*
X67169446Y-94010875D01*
X67147835Y-93999324D01*
X67124386Y-93992211D01*
X67100000Y-93989809D01*
X67075614Y-93992211D01*
X67052165Y-93999324D01*
X67030554Y-94010875D01*
X67011612Y-94026421D01*
X66996066Y-94045363D01*
X66984515Y-94066974D01*
X66977402Y-94090423D01*
X66972710Y-94114009D01*
X66972709Y-94114011D01*
X66972709Y-94114012D01*
X66932908Y-94210102D01*
X66875125Y-94296581D01*
X66801581Y-94370125D01*
X66715102Y-94427908D01*
X66619012Y-94467709D01*
X66619011Y-94467709D01*
X66619009Y-94467710D01*
X66595423Y-94472402D01*
X66571974Y-94479515D01*
X66550363Y-94491066D01*
X66531421Y-94506612D01*
X66515875Y-94525554D01*
X66504324Y-94547165D01*
X66497211Y-94570614D01*
X66494809Y-94595000D01*
X66435191Y-94595000D01*
X66432789Y-94570614D01*
X66425676Y-94547165D01*
X66414125Y-94525554D01*
X66398579Y-94506612D01*
X66379637Y-94491066D01*
X66358026Y-94479515D01*
X66334577Y-94472402D01*
X66310991Y-94467710D01*
X66310989Y-94467709D01*
X66310988Y-94467709D01*
X66214898Y-94427908D01*
X66128419Y-94370125D01*
X66054875Y-94296581D01*
X65997092Y-94210102D01*
X65957291Y-94114012D01*
X65957290Y-94114010D01*
X65937000Y-94012005D01*
X65937000Y-93907995D01*
X65957290Y-93805990D01*
X65979991Y-93751185D01*
X65997092Y-93709898D01*
X66054875Y-93623419D01*
X66128419Y-93549875D01*
X66214898Y-93492092D01*
X66310988Y-93452291D01*
X66310987Y-93452291D01*
X66310990Y-93452290D01*
X66412995Y-93432000D01*
X66517005Y-93432000D01*
X66619010Y-93452290D01*
X66619010Y-93452290D01*
G37*
G36*
X62156679Y-96739983D02*
X62251311Y-96779181D01*
X62336483Y-96836091D01*
X62408909Y-96908517D01*
X62465819Y-96993689D01*
X62505017Y-97088321D01*
X62525000Y-97188783D01*
X62525000Y-97291217D01*
X62505017Y-97391679D01*
X62465819Y-97486311D01*
X62408909Y-97571483D01*
X62336483Y-97643909D01*
X62251311Y-97700819D01*
X62156679Y-97740017D01*
X62056217Y-97760000D01*
X61953783Y-97760000D01*
X61853321Y-97740017D01*
X61758689Y-97700819D01*
X61673517Y-97643909D01*
X61601091Y-97571483D01*
X61544181Y-97486311D01*
X61504983Y-97391679D01*
X61485000Y-97291217D01*
X61485000Y-97188783D01*
X61504983Y-97088321D01*
X61544181Y-96993689D01*
X61601091Y-96908517D01*
X61673517Y-96836091D01*
X61758689Y-96779181D01*
X61853321Y-96739983D01*
X61953783Y-96720000D01*
X62056217Y-96720000D01*
X62156679Y-96739983D01*
X62156679Y-96739983D01*
G37*
G36*
X62760614Y-95572390D02*
X62835866Y-95603560D01*
X62903594Y-95648815D01*
X62961185Y-95706406D01*
X63006440Y-95774134D01*
X63037610Y-95849386D01*
X63053500Y-95929272D01*
X63053500Y-96010728D01*
X63037610Y-96090614D01*
X63006440Y-96165866D01*
X62961185Y-96233594D01*
X62903594Y-96291185D01*
X62835866Y-96336440D01*
X62760614Y-96367610D01*
X62680728Y-96383500D01*
X62599272Y-96383500D01*
X62519386Y-96367610D01*
X62444134Y-96336440D01*
X62376406Y-96291185D01*
X62318815Y-96233594D01*
X62273560Y-96165866D01*
X62242390Y-96090614D01*
X62226500Y-96010728D01*
X62226500Y-95929272D01*
X62242390Y-95849386D01*
X62273560Y-95774134D01*
X62318815Y-95706406D01*
X62376406Y-95648815D01*
X62444134Y-95603560D01*
X62519386Y-95572390D01*
X62599272Y-95556500D01*
X62680728Y-95556500D01*
X62760614Y-95572390D01*
X62760614Y-95572390D01*
G37*
G36*
X61490614Y-95572390D02*
X61565866Y-95603560D01*
X61633594Y-95648815D01*
X61691185Y-95706406D01*
X61736440Y-95774134D01*
X61767610Y-95849386D01*
X61783500Y-95929272D01*
X61783500Y-96010728D01*
X61767610Y-96090614D01*
X61736440Y-96165866D01*
X61691185Y-96233594D01*
X61633594Y-96291185D01*
X61565866Y-96336440D01*
X61490614Y-96367610D01*
X61410728Y-96383500D01*
X61329272Y-96383500D01*
X61249386Y-96367610D01*
X61174134Y-96336440D01*
X61106406Y-96291185D01*
X61048815Y-96233594D01*
X61003560Y-96165866D01*
X60972390Y-96090614D01*
X60956500Y-96010728D01*
X60956500Y-95929272D01*
X60972390Y-95849386D01*
X61003560Y-95774134D01*
X61048815Y-95706406D01*
X61106406Y-95648815D01*
X61174134Y-95603560D01*
X61249386Y-95572390D01*
X61329272Y-95556500D01*
X61410728Y-95556500D01*
X61490614Y-95572390D01*
X61490614Y-95572390D01*
G37*
G36*
X61490614Y-94302390D02*
X61565866Y-94333560D01*
X61633594Y-94378815D01*
X61691185Y-94436406D01*
X61736440Y-94504134D01*
X61767610Y-94579386D01*
X61783500Y-94659272D01*
X61783500Y-94740728D01*
X61767610Y-94820614D01*
X61736440Y-94895866D01*
X61691185Y-94963594D01*
X61633594Y-95021185D01*
X61565866Y-95066440D01*
X61490614Y-95097610D01*
X61410728Y-95113500D01*
X61329272Y-95113500D01*
X61249386Y-95097610D01*
X61174134Y-95066440D01*
X61106406Y-95021185D01*
X61048815Y-94963594D01*
X61003560Y-94895866D01*
X60972390Y-94820614D01*
X60956500Y-94740728D01*
X60956500Y-94659272D01*
X60972390Y-94579386D01*
X61003560Y-94504134D01*
X61048815Y-94436406D01*
X61106406Y-94378815D01*
X61174134Y-94333560D01*
X61249386Y-94302390D01*
X61329272Y-94286500D01*
X61410728Y-94286500D01*
X61490614Y-94302390D01*
X61490614Y-94302390D01*
G37*
G36*
X62760614Y-94302390D02*
X62835866Y-94333560D01*
X62903594Y-94378815D01*
X62961185Y-94436406D01*
X63006440Y-94504134D01*
X63037610Y-94579386D01*
X63053500Y-94659272D01*
X63053500Y-94740728D01*
X63037610Y-94820614D01*
X63006440Y-94895866D01*
X62961185Y-94963594D01*
X62903594Y-95021185D01*
X62835866Y-95066440D01*
X62760614Y-95097610D01*
X62680728Y-95113500D01*
X62599272Y-95113500D01*
X62519386Y-95097610D01*
X62444134Y-95066440D01*
X62376406Y-95021185D01*
X62318815Y-94963594D01*
X62273560Y-94895866D01*
X62242390Y-94820614D01*
X62226500Y-94740728D01*
X62226500Y-94659272D01*
X62242390Y-94579386D01*
X62273560Y-94504134D01*
X62318815Y-94436406D01*
X62376406Y-94378815D01*
X62444134Y-94333560D01*
X62519386Y-94302390D01*
X62599272Y-94286500D01*
X62680728Y-94286500D01*
X62760614Y-94302390D01*
X62760614Y-94302390D01*
G37*
G36*
X62760614Y-93032390D02*
X62835866Y-93063560D01*
X62903594Y-93108815D01*
X62961185Y-93166406D01*
X63006440Y-93234134D01*
X63037610Y-93309386D01*
X63053500Y-93389272D01*
X63053500Y-93470728D01*
X63037610Y-93550614D01*
X63006440Y-93625866D01*
X62961185Y-93693594D01*
X62903594Y-93751185D01*
X62835866Y-93796440D01*
X62760614Y-93827610D01*
X62680728Y-93843500D01*
X62599272Y-93843500D01*
X62519386Y-93827610D01*
X62444134Y-93796440D01*
X62376406Y-93751185D01*
X62318815Y-93693594D01*
X62273560Y-93625866D01*
X62242390Y-93550614D01*
X62226500Y-93470728D01*
X62226500Y-93389272D01*
X62242390Y-93309386D01*
X62273560Y-93234134D01*
X62318815Y-93166406D01*
X62376406Y-93108815D01*
X62444134Y-93063560D01*
X62519386Y-93032390D01*
X62599272Y-93016500D01*
X62680728Y-93016500D01*
X62760614Y-93032390D01*
X62760614Y-93032390D01*
G37*
G36*
X61490614Y-93032390D02*
X61565866Y-93063560D01*
X61633594Y-93108815D01*
X61691185Y-93166406D01*
X61736440Y-93234134D01*
X61767610Y-93309386D01*
X61783500Y-93389272D01*
X61783500Y-93470728D01*
X61767610Y-93550614D01*
X61736440Y-93625866D01*
X61691185Y-93693594D01*
X61633594Y-93751185D01*
X61565866Y-93796440D01*
X61490614Y-93827610D01*
X61410728Y-93843500D01*
X61329272Y-93843500D01*
X61249386Y-93827610D01*
X61174134Y-93796440D01*
X61106406Y-93751185D01*
X61048815Y-93693594D01*
X61003560Y-93625866D01*
X60972390Y-93550614D01*
X60956500Y-93470728D01*
X60956500Y-93389272D01*
X60972390Y-93309386D01*
X61003560Y-93234134D01*
X61048815Y-93166406D01*
X61106406Y-93108815D01*
X61174134Y-93063560D01*
X61249386Y-93032390D01*
X61329272Y-93016500D01*
X61410728Y-93016500D01*
X61490614Y-93032390D01*
X61490614Y-93032390D01*
G37*
G36*
X53120000Y-93520000D02*
X51680000Y-93520000D01*
X51680000Y-92480000D01*
X53120000Y-92480000D01*
X53120000Y-93520000D01*
X53120000Y-93520000D01*
G37*
G36*
X63172679Y-91659983D02*
X63267311Y-91699181D01*
X63352483Y-91756091D01*
X63424909Y-91828517D01*
X63481819Y-91913689D01*
X63521017Y-92008321D01*
X63541000Y-92108783D01*
X63541000Y-92211217D01*
X63521017Y-92311679D01*
X63481819Y-92406311D01*
X63424909Y-92491483D01*
X63352483Y-92563909D01*
X63267311Y-92620819D01*
X63172679Y-92660017D01*
X63072217Y-92680000D01*
X62969783Y-92680000D01*
X62869321Y-92660017D01*
X62774689Y-92620819D01*
X62689517Y-92563909D01*
X62617091Y-92491483D01*
X62560181Y-92406311D01*
X62520983Y-92311679D01*
X62501000Y-92211217D01*
X62501000Y-92108783D01*
X62520983Y-92008321D01*
X62560181Y-91913689D01*
X62617091Y-91828517D01*
X62689517Y-91756091D01*
X62774689Y-91699181D01*
X62869321Y-91659983D01*
X62969783Y-91640000D01*
X63072217Y-91640000D01*
X63172679Y-91659983D01*
X63172679Y-91659983D01*
G37*
G36*
X61140679Y-91659983D02*
X61235311Y-91699181D01*
X61320483Y-91756091D01*
X61392909Y-91828517D01*
X61449819Y-91913689D01*
X61489017Y-92008321D01*
X61509000Y-92108783D01*
X61509000Y-92211217D01*
X61489017Y-92311679D01*
X61449819Y-92406311D01*
X61392909Y-92491483D01*
X61320483Y-92563909D01*
X61235311Y-92620819D01*
X61140679Y-92660017D01*
X61040217Y-92680000D01*
X60937783Y-92680000D01*
X60837321Y-92660017D01*
X60742689Y-92620819D01*
X60657517Y-92563909D01*
X60585091Y-92491483D01*
X60528181Y-92406311D01*
X60488983Y-92311679D01*
X60469000Y-92211217D01*
X60469000Y-92108783D01*
X60488983Y-92008321D01*
X60528181Y-91913689D01*
X60585091Y-91828517D01*
X60657517Y-91756091D01*
X60742689Y-91699181D01*
X60837321Y-91659983D01*
X60937783Y-91640000D01*
X61040217Y-91640000D01*
X61140679Y-91659983D01*
X61140679Y-91659983D01*
G37*
G36*
X69680000Y-90930000D02*
X68120000Y-90930000D01*
X68120000Y-90270000D01*
X69680000Y-90270000D01*
X69680000Y-90930000D01*
X69680000Y-90930000D01*
G37*
G36*
X67580000Y-90930000D02*
X66020000Y-90930000D01*
X66020000Y-90270000D01*
X67580000Y-90270000D01*
X67580000Y-90930000D01*
X67580000Y-90930000D01*
G37*
G36*
X54630000Y-90580000D02*
X53970000Y-90580000D01*
X53970000Y-89020000D01*
X54630000Y-89020000D01*
X54630000Y-90580000D01*
X54630000Y-90580000D01*
G37*
G36*
X53430000Y-90580000D02*
X52770000Y-90580000D01*
X52770000Y-89020000D01*
X53430000Y-89020000D01*
X53430000Y-90580000D01*
X53430000Y-90580000D01*
G37*
G36*
X67580000Y-89730000D02*
X66020000Y-89730000D01*
X66020000Y-89070000D01*
X67580000Y-89070000D01*
X67580000Y-89730000D01*
X67580000Y-89730000D01*
G37*
G36*
X69680000Y-89730000D02*
X68120000Y-89730000D01*
X68120000Y-89070000D01*
X69680000Y-89070000D01*
X69680000Y-89730000D01*
X69680000Y-89730000D01*
G37*
G36*
X65945000Y-88395000D02*
X65605000Y-88395000D01*
X65605000Y-86605000D01*
X65945000Y-86605000D01*
X65945000Y-88395000D01*
X65945000Y-88395000D01*
G37*
G36*
X68395000Y-88395000D02*
X68055000Y-88395000D01*
X68055000Y-86605000D01*
X68395000Y-86605000D01*
X68395000Y-88395000D01*
X68395000Y-88395000D01*
G37*
G36*
X53420000Y-88295000D02*
X52380000Y-88295000D01*
X52380000Y-87305000D01*
X53420000Y-87305000D01*
X53420000Y-88295000D01*
X53420000Y-88295000D01*
G37*
G36*
X60064169Y-87788454D02*
X60104211Y-87805039D01*
X60140242Y-87829115D01*
X60170885Y-87859758D01*
X60194961Y-87895789D01*
X60211546Y-87935831D01*
X60220000Y-87978330D01*
X60220000Y-88021670D01*
X60211546Y-88064169D01*
X60194961Y-88104211D01*
X60170885Y-88140242D01*
X60140242Y-88170885D01*
X60104211Y-88194961D01*
X60064169Y-88211546D01*
X60021670Y-88220000D01*
X59978330Y-88220000D01*
X59935831Y-88211546D01*
X59895789Y-88194961D01*
X59859758Y-88170885D01*
X59829115Y-88140242D01*
X59805039Y-88104211D01*
X59788454Y-88064169D01*
X59780000Y-88021670D01*
X59780000Y-87978330D01*
X59788454Y-87935831D01*
X59805039Y-87895789D01*
X59829115Y-87859758D01*
X59859758Y-87829115D01*
X59895789Y-87805039D01*
X59935831Y-87788454D01*
X59978330Y-87780000D01*
X60021670Y-87780000D01*
X60064169Y-87788454D01*
X60064169Y-87788454D01*
G37*
G36*
X56064169Y-87788454D02*
X56104211Y-87805039D01*
X56140242Y-87829115D01*
X56170885Y-87859758D01*
X56194961Y-87895789D01*
X56211546Y-87935831D01*
X56220000Y-87978330D01*
X56220000Y-88021670D01*
X56211546Y-88064169D01*
X56194961Y-88104211D01*
X56170885Y-88140242D01*
X56140242Y-88170885D01*
X56104211Y-88194961D01*
X56064169Y-88211546D01*
X56021670Y-88220000D01*
X55978330Y-88220000D01*
X55935831Y-88211546D01*
X55895789Y-88194961D01*
X55859758Y-88170885D01*
X55829115Y-88140242D01*
X55805039Y-88104211D01*
X55788454Y-88064169D01*
X55780000Y-88021670D01*
X55780000Y-87978330D01*
X55788454Y-87935831D01*
X55805039Y-87895789D01*
X55829115Y-87859758D01*
X55859758Y-87829115D01*
X55895789Y-87805039D01*
X55935831Y-87788454D01*
X55978330Y-87780000D01*
X56021670Y-87780000D01*
X56064169Y-87788454D01*
X56064169Y-87788454D01*
G37*
G36*
X61664169Y-87788454D02*
X61704211Y-87805039D01*
X61740242Y-87829115D01*
X61770885Y-87859758D01*
X61794961Y-87895789D01*
X61811546Y-87935831D01*
X61820000Y-87978330D01*
X61820000Y-88021670D01*
X61811546Y-88064169D01*
X61794961Y-88104211D01*
X61770885Y-88140242D01*
X61740242Y-88170885D01*
X61704211Y-88194961D01*
X61664169Y-88211546D01*
X61621670Y-88220000D01*
X61578330Y-88220000D01*
X61535831Y-88211546D01*
X61495789Y-88194961D01*
X61459758Y-88170885D01*
X61429115Y-88140242D01*
X61405039Y-88104211D01*
X61388454Y-88064169D01*
X61380000Y-88021670D01*
X61380000Y-87978330D01*
X61388454Y-87935831D01*
X61405039Y-87895789D01*
X61429115Y-87859758D01*
X61459758Y-87829115D01*
X61495789Y-87805039D01*
X61535831Y-87788454D01*
X61578330Y-87780000D01*
X61621670Y-87780000D01*
X61664169Y-87788454D01*
X61664169Y-87788454D01*
G37*
G36*
X57664169Y-87788454D02*
X57704211Y-87805039D01*
X57740242Y-87829115D01*
X57770885Y-87859758D01*
X57794961Y-87895789D01*
X57811546Y-87935831D01*
X57820000Y-87978330D01*
X57820000Y-88021670D01*
X57811546Y-88064169D01*
X57794961Y-88104211D01*
X57770885Y-88140242D01*
X57740242Y-88170885D01*
X57704211Y-88194961D01*
X57664169Y-88211546D01*
X57621670Y-88220000D01*
X57578330Y-88220000D01*
X57535831Y-88211546D01*
X57495789Y-88194961D01*
X57459758Y-88170885D01*
X57429115Y-88140242D01*
X57405039Y-88104211D01*
X57388454Y-88064169D01*
X57380000Y-88021670D01*
X57380000Y-87978330D01*
X57388454Y-87935831D01*
X57405039Y-87895789D01*
X57429115Y-87859758D01*
X57459758Y-87829115D01*
X57495789Y-87805039D01*
X57535831Y-87788454D01*
X57578330Y-87780000D01*
X57621670Y-87780000D01*
X57664169Y-87788454D01*
X57664169Y-87788454D01*
G37*
G36*
X59264169Y-87788454D02*
X59304211Y-87805039D01*
X59340242Y-87829115D01*
X59370885Y-87859758D01*
X59394961Y-87895789D01*
X59411546Y-87935831D01*
X59420000Y-87978330D01*
X59420000Y-88021670D01*
X59411546Y-88064169D01*
X59394961Y-88104211D01*
X59370885Y-88140242D01*
X59340242Y-88170885D01*
X59304211Y-88194961D01*
X59264169Y-88211546D01*
X59221670Y-88220000D01*
X59178330Y-88220000D01*
X59135831Y-88211546D01*
X59095789Y-88194961D01*
X59059758Y-88170885D01*
X59029115Y-88140242D01*
X59005039Y-88104211D01*
X58988454Y-88064169D01*
X58980000Y-88021670D01*
X58980000Y-87978330D01*
X58988454Y-87935831D01*
X59005039Y-87895789D01*
X59029115Y-87859758D01*
X59059758Y-87829115D01*
X59095789Y-87805039D01*
X59135831Y-87788454D01*
X59178330Y-87780000D01*
X59221670Y-87780000D01*
X59264169Y-87788454D01*
X59264169Y-87788454D01*
G37*
G36*
X63264169Y-87788454D02*
X63304211Y-87805039D01*
X63340242Y-87829115D01*
X63370885Y-87859758D01*
X63394961Y-87895789D01*
X63411546Y-87935831D01*
X63420000Y-87978330D01*
X63420000Y-88021670D01*
X63411546Y-88064169D01*
X63394961Y-88104211D01*
X63370885Y-88140242D01*
X63340242Y-88170885D01*
X63304211Y-88194961D01*
X63264169Y-88211546D01*
X63221670Y-88220000D01*
X63178330Y-88220000D01*
X63135831Y-88211546D01*
X63095789Y-88194961D01*
X63059758Y-88170885D01*
X63029115Y-88140242D01*
X63005039Y-88104211D01*
X62988454Y-88064169D01*
X62980000Y-88021670D01*
X62980000Y-87978330D01*
X62988454Y-87935831D01*
X63005039Y-87895789D01*
X63029115Y-87859758D01*
X63059758Y-87829115D01*
X63095789Y-87805039D01*
X63135831Y-87788454D01*
X63178330Y-87780000D01*
X63221670Y-87780000D01*
X63264169Y-87788454D01*
X63264169Y-87788454D01*
G37*
G36*
X58464169Y-87788454D02*
X58504211Y-87805039D01*
X58540242Y-87829115D01*
X58570885Y-87859758D01*
X58594961Y-87895789D01*
X58611546Y-87935831D01*
X58620000Y-87978330D01*
X58620000Y-88021670D01*
X58611546Y-88064169D01*
X58594961Y-88104211D01*
X58570885Y-88140242D01*
X58540242Y-88170885D01*
X58504211Y-88194961D01*
X58464169Y-88211546D01*
X58421670Y-88220000D01*
X58378330Y-88220000D01*
X58335831Y-88211546D01*
X58295789Y-88194961D01*
X58259758Y-88170885D01*
X58229115Y-88140242D01*
X58205039Y-88104211D01*
X58188454Y-88064169D01*
X58180000Y-88021670D01*
X58180000Y-87978330D01*
X58188454Y-87935831D01*
X58205039Y-87895789D01*
X58229115Y-87859758D01*
X58259758Y-87829115D01*
X58295789Y-87805039D01*
X58335831Y-87788454D01*
X58378330Y-87780000D01*
X58421670Y-87780000D01*
X58464169Y-87788454D01*
X58464169Y-87788454D01*
G37*
G36*
X62464169Y-87788454D02*
X62504211Y-87805039D01*
X62540242Y-87829115D01*
X62570885Y-87859758D01*
X62594961Y-87895789D01*
X62611546Y-87935831D01*
X62620000Y-87978330D01*
X62620000Y-88021670D01*
X62611546Y-88064169D01*
X62594961Y-88104211D01*
X62570885Y-88140242D01*
X62540242Y-88170885D01*
X62504211Y-88194961D01*
X62464169Y-88211546D01*
X62421670Y-88220000D01*
X62378330Y-88220000D01*
X62335831Y-88211546D01*
X62295789Y-88194961D01*
X62259758Y-88170885D01*
X62229115Y-88140242D01*
X62205039Y-88104211D01*
X62188454Y-88064169D01*
X62180000Y-88021670D01*
X62180000Y-87978330D01*
X62188454Y-87935831D01*
X62205039Y-87895789D01*
X62229115Y-87859758D01*
X62259758Y-87829115D01*
X62295789Y-87805039D01*
X62335831Y-87788454D01*
X62378330Y-87780000D01*
X62421670Y-87780000D01*
X62464169Y-87788454D01*
X62464169Y-87788454D01*
G37*
G36*
X56864169Y-87788454D02*
X56904211Y-87805039D01*
X56940242Y-87829115D01*
X56970885Y-87859758D01*
X56994961Y-87895789D01*
X57011546Y-87935831D01*
X57020000Y-87978330D01*
X57020000Y-88021670D01*
X57011546Y-88064169D01*
X56994961Y-88104211D01*
X56970885Y-88140242D01*
X56940242Y-88170885D01*
X56904211Y-88194961D01*
X56864169Y-88211546D01*
X56821670Y-88220000D01*
X56778330Y-88220000D01*
X56735831Y-88211546D01*
X56695789Y-88194961D01*
X56659758Y-88170885D01*
X56629115Y-88140242D01*
X56605039Y-88104211D01*
X56588454Y-88064169D01*
X56580000Y-88021670D01*
X56580000Y-87978330D01*
X56588454Y-87935831D01*
X56605039Y-87895789D01*
X56629115Y-87859758D01*
X56659758Y-87829115D01*
X56695789Y-87805039D01*
X56735831Y-87788454D01*
X56778330Y-87780000D01*
X56821670Y-87780000D01*
X56864169Y-87788454D01*
X56864169Y-87788454D01*
G37*
G36*
X64064169Y-87788454D02*
X64104211Y-87805039D01*
X64140242Y-87829115D01*
X64170885Y-87859758D01*
X64194961Y-87895789D01*
X64211546Y-87935831D01*
X64220000Y-87978330D01*
X64220000Y-88021670D01*
X64211546Y-88064169D01*
X64194961Y-88104211D01*
X64170885Y-88140242D01*
X64140242Y-88170885D01*
X64104211Y-88194961D01*
X64064169Y-88211546D01*
X64021670Y-88220000D01*
X63978330Y-88220000D01*
X63935831Y-88211546D01*
X63895789Y-88194961D01*
X63859758Y-88170885D01*
X63829115Y-88140242D01*
X63805039Y-88104211D01*
X63788454Y-88064169D01*
X63780000Y-88021670D01*
X63780000Y-87978330D01*
X63788454Y-87935831D01*
X63805039Y-87895789D01*
X63829115Y-87859758D01*
X63859758Y-87829115D01*
X63895789Y-87805039D01*
X63935831Y-87788454D01*
X63978330Y-87780000D01*
X64021670Y-87780000D01*
X64064169Y-87788454D01*
X64064169Y-87788454D01*
G37*
G36*
X60864169Y-87788454D02*
X60904211Y-87805039D01*
X60940242Y-87829115D01*
X60970885Y-87859758D01*
X60994961Y-87895789D01*
X61011546Y-87935831D01*
X61020000Y-87978330D01*
X61020000Y-88021670D01*
X61011546Y-88064169D01*
X60994961Y-88104211D01*
X60970885Y-88140242D01*
X60940242Y-88170885D01*
X60904211Y-88194961D01*
X60864169Y-88211546D01*
X60821670Y-88220000D01*
X60778330Y-88220000D01*
X60735831Y-88211546D01*
X60695789Y-88194961D01*
X60659758Y-88170885D01*
X60629115Y-88140242D01*
X60605039Y-88104211D01*
X60588454Y-88064169D01*
X60580000Y-88021670D01*
X60580000Y-87978330D01*
X60588454Y-87935831D01*
X60605039Y-87895789D01*
X60629115Y-87859758D01*
X60659758Y-87829115D01*
X60695789Y-87805039D01*
X60735831Y-87788454D01*
X60778330Y-87780000D01*
X60821670Y-87780000D01*
X60864169Y-87788454D01*
X60864169Y-87788454D01*
G37*
G36*
X69580000Y-88080000D02*
X68920000Y-88080000D01*
X68920000Y-86520000D01*
X69580000Y-86520000D01*
X69580000Y-88080000D01*
X69580000Y-88080000D01*
G37*
G36*
X51830000Y-87780000D02*
X51170000Y-87780000D01*
X51170000Y-86220000D01*
X51830000Y-86220000D01*
X51830000Y-87780000D01*
X51830000Y-87780000D01*
G37*
G36*
X54630000Y-87780000D02*
X53970000Y-87780000D01*
X53970000Y-86220000D01*
X54630000Y-86220000D01*
X54630000Y-87780000D01*
X54630000Y-87780000D01*
G37*
G36*
X64064169Y-86988454D02*
X64104211Y-87005039D01*
X64140242Y-87029115D01*
X64170885Y-87059758D01*
X64194961Y-87095789D01*
X64211546Y-87135831D01*
X64220000Y-87178330D01*
X64220000Y-87221670D01*
X64211546Y-87264169D01*
X64194961Y-87304211D01*
X64170885Y-87340242D01*
X64140242Y-87370885D01*
X64104211Y-87394961D01*
X64064169Y-87411546D01*
X64021670Y-87420000D01*
X63978330Y-87420000D01*
X63935831Y-87411546D01*
X63895789Y-87394961D01*
X63859758Y-87370885D01*
X63829115Y-87340242D01*
X63805039Y-87304211D01*
X63788454Y-87264169D01*
X63780000Y-87221670D01*
X63780000Y-87178330D01*
X63788454Y-87135831D01*
X63805039Y-87095789D01*
X63829115Y-87059758D01*
X63859758Y-87029115D01*
X63895789Y-87005039D01*
X63935831Y-86988454D01*
X63978330Y-86980000D01*
X64021670Y-86980000D01*
X64064169Y-86988454D01*
X64064169Y-86988454D01*
G37*
G36*
X63264169Y-86988454D02*
X63304211Y-87005039D01*
X63340242Y-87029115D01*
X63370885Y-87059758D01*
X63394961Y-87095789D01*
X63411546Y-87135831D01*
X63420000Y-87178330D01*
X63420000Y-87221670D01*
X63411546Y-87264169D01*
X63394961Y-87304211D01*
X63370885Y-87340242D01*
X63340242Y-87370885D01*
X63304211Y-87394961D01*
X63264169Y-87411546D01*
X63221670Y-87420000D01*
X63178330Y-87420000D01*
X63135831Y-87411546D01*
X63095789Y-87394961D01*
X63059758Y-87370885D01*
X63029115Y-87340242D01*
X63005039Y-87304211D01*
X62988454Y-87264169D01*
X62980000Y-87221670D01*
X62980000Y-87178330D01*
X62988454Y-87135831D01*
X63005039Y-87095789D01*
X63029115Y-87059758D01*
X63059758Y-87029115D01*
X63095789Y-87005039D01*
X63135831Y-86988454D01*
X63178330Y-86980000D01*
X63221670Y-86980000D01*
X63264169Y-86988454D01*
X63264169Y-86988454D01*
G37*
G36*
X60064169Y-86988454D02*
X60104211Y-87005039D01*
X60140242Y-87029115D01*
X60170885Y-87059758D01*
X60194961Y-87095789D01*
X60211546Y-87135831D01*
X60220000Y-87178330D01*
X60220000Y-87221670D01*
X60211546Y-87264169D01*
X60194961Y-87304211D01*
X60170885Y-87340242D01*
X60140242Y-87370885D01*
X60104211Y-87394961D01*
X60064169Y-87411546D01*
X60021670Y-87420000D01*
X59978330Y-87420000D01*
X59935831Y-87411546D01*
X59895789Y-87394961D01*
X59859758Y-87370885D01*
X59829115Y-87340242D01*
X59805039Y-87304211D01*
X59788454Y-87264169D01*
X59780000Y-87221670D01*
X59780000Y-87178330D01*
X59788454Y-87135831D01*
X59805039Y-87095789D01*
X59829115Y-87059758D01*
X59859758Y-87029115D01*
X59895789Y-87005039D01*
X59935831Y-86988454D01*
X59978330Y-86980000D01*
X60021670Y-86980000D01*
X60064169Y-86988454D01*
X60064169Y-86988454D01*
G37*
G36*
X59264169Y-86988454D02*
X59304211Y-87005039D01*
X59340242Y-87029115D01*
X59370885Y-87059758D01*
X59394961Y-87095789D01*
X59411546Y-87135831D01*
X59420000Y-87178330D01*
X59420000Y-87221670D01*
X59411546Y-87264169D01*
X59394961Y-87304211D01*
X59370885Y-87340242D01*
X59340242Y-87370885D01*
X59304211Y-87394961D01*
X59264169Y-87411546D01*
X59221670Y-87420000D01*
X59178330Y-87420000D01*
X59135831Y-87411546D01*
X59095789Y-87394961D01*
X59059758Y-87370885D01*
X59029115Y-87340242D01*
X59005039Y-87304211D01*
X58988454Y-87264169D01*
X58980000Y-87221670D01*
X58980000Y-87178330D01*
X58988454Y-87135831D01*
X59005039Y-87095789D01*
X59029115Y-87059758D01*
X59059758Y-87029115D01*
X59095789Y-87005039D01*
X59135831Y-86988454D01*
X59178330Y-86980000D01*
X59221670Y-86980000D01*
X59264169Y-86988454D01*
X59264169Y-86988454D01*
G37*
G36*
X61664169Y-86988454D02*
X61704211Y-87005039D01*
X61740242Y-87029115D01*
X61770885Y-87059758D01*
X61794961Y-87095789D01*
X61811546Y-87135831D01*
X61820000Y-87178330D01*
X61820000Y-87221670D01*
X61811546Y-87264169D01*
X61794961Y-87304211D01*
X61770885Y-87340242D01*
X61740242Y-87370885D01*
X61704211Y-87394961D01*
X61664169Y-87411546D01*
X61621670Y-87420000D01*
X61578330Y-87420000D01*
X61535831Y-87411546D01*
X61495789Y-87394961D01*
X61459758Y-87370885D01*
X61429115Y-87340242D01*
X61405039Y-87304211D01*
X61388454Y-87264169D01*
X61380000Y-87221670D01*
X61380000Y-87178330D01*
X61388454Y-87135831D01*
X61405039Y-87095789D01*
X61429115Y-87059758D01*
X61459758Y-87029115D01*
X61495789Y-87005039D01*
X61535831Y-86988454D01*
X61578330Y-86980000D01*
X61621670Y-86980000D01*
X61664169Y-86988454D01*
X61664169Y-86988454D01*
G37*
G36*
X62464169Y-86988454D02*
X62504211Y-87005039D01*
X62540242Y-87029115D01*
X62570885Y-87059758D01*
X62594961Y-87095789D01*
X62611546Y-87135831D01*
X62620000Y-87178330D01*
X62620000Y-87221670D01*
X62611546Y-87264169D01*
X62594961Y-87304211D01*
X62570885Y-87340242D01*
X62540242Y-87370885D01*
X62504211Y-87394961D01*
X62464169Y-87411546D01*
X62421670Y-87420000D01*
X62378330Y-87420000D01*
X62335831Y-87411546D01*
X62295789Y-87394961D01*
X62259758Y-87370885D01*
X62229115Y-87340242D01*
X62205039Y-87304211D01*
X62188454Y-87264169D01*
X62180000Y-87221670D01*
X62180000Y-87178330D01*
X62188454Y-87135831D01*
X62205039Y-87095789D01*
X62229115Y-87059758D01*
X62259758Y-87029115D01*
X62295789Y-87005039D01*
X62335831Y-86988454D01*
X62378330Y-86980000D01*
X62421670Y-86980000D01*
X62464169Y-86988454D01*
X62464169Y-86988454D01*
G37*
G36*
X56864169Y-86988454D02*
X56904211Y-87005039D01*
X56940242Y-87029115D01*
X56970885Y-87059758D01*
X56994961Y-87095789D01*
X57011546Y-87135831D01*
X57020000Y-87178330D01*
X57020000Y-87221670D01*
X57011546Y-87264169D01*
X56994961Y-87304211D01*
X56970885Y-87340242D01*
X56940242Y-87370885D01*
X56904211Y-87394961D01*
X56864169Y-87411546D01*
X56821670Y-87420000D01*
X56778330Y-87420000D01*
X56735831Y-87411546D01*
X56695789Y-87394961D01*
X56659758Y-87370885D01*
X56629115Y-87340242D01*
X56605039Y-87304211D01*
X56588454Y-87264169D01*
X56580000Y-87221670D01*
X56580000Y-87178330D01*
X56588454Y-87135831D01*
X56605039Y-87095789D01*
X56629115Y-87059758D01*
X56659758Y-87029115D01*
X56695789Y-87005039D01*
X56735831Y-86988454D01*
X56778330Y-86980000D01*
X56821670Y-86980000D01*
X56864169Y-86988454D01*
X56864169Y-86988454D01*
G37*
G36*
X56064169Y-86988454D02*
X56104211Y-87005039D01*
X56140242Y-87029115D01*
X56170885Y-87059758D01*
X56194961Y-87095789D01*
X56211546Y-87135831D01*
X56220000Y-87178330D01*
X56220000Y-87221670D01*
X56211546Y-87264169D01*
X56194961Y-87304211D01*
X56170885Y-87340242D01*
X56140242Y-87370885D01*
X56104211Y-87394961D01*
X56064169Y-87411546D01*
X56021670Y-87420000D01*
X55978330Y-87420000D01*
X55935831Y-87411546D01*
X55895789Y-87394961D01*
X55859758Y-87370885D01*
X55829115Y-87340242D01*
X55805039Y-87304211D01*
X55788454Y-87264169D01*
X55780000Y-87221670D01*
X55780000Y-87178330D01*
X55788454Y-87135831D01*
X55805039Y-87095789D01*
X55829115Y-87059758D01*
X55859758Y-87029115D01*
X55895789Y-87005039D01*
X55935831Y-86988454D01*
X55978330Y-86980000D01*
X56021670Y-86980000D01*
X56064169Y-86988454D01*
X56064169Y-86988454D01*
G37*
G36*
X60864169Y-86988454D02*
X60904211Y-87005039D01*
X60940242Y-87029115D01*
X60970885Y-87059758D01*
X60994961Y-87095789D01*
X61011546Y-87135831D01*
X61020000Y-87178330D01*
X61020000Y-87221670D01*
X61011546Y-87264169D01*
X60994961Y-87304211D01*
X60970885Y-87340242D01*
X60940242Y-87370885D01*
X60904211Y-87394961D01*
X60864169Y-87411546D01*
X60821670Y-87420000D01*
X60778330Y-87420000D01*
X60735831Y-87411546D01*
X60695789Y-87394961D01*
X60659758Y-87370885D01*
X60629115Y-87340242D01*
X60605039Y-87304211D01*
X60588454Y-87264169D01*
X60580000Y-87221670D01*
X60580000Y-87178330D01*
X60588454Y-87135831D01*
X60605039Y-87095789D01*
X60629115Y-87059758D01*
X60659758Y-87029115D01*
X60695789Y-87005039D01*
X60735831Y-86988454D01*
X60778330Y-86980000D01*
X60821670Y-86980000D01*
X60864169Y-86988454D01*
X60864169Y-86988454D01*
G37*
G36*
X57664169Y-86988454D02*
X57704211Y-87005039D01*
X57740242Y-87029115D01*
X57770885Y-87059758D01*
X57794961Y-87095789D01*
X57811546Y-87135831D01*
X57820000Y-87178330D01*
X57820000Y-87221670D01*
X57811546Y-87264169D01*
X57794961Y-87304211D01*
X57770885Y-87340242D01*
X57740242Y-87370885D01*
X57704211Y-87394961D01*
X57664169Y-87411546D01*
X57621670Y-87420000D01*
X57578330Y-87420000D01*
X57535831Y-87411546D01*
X57495789Y-87394961D01*
X57459758Y-87370885D01*
X57429115Y-87340242D01*
X57405039Y-87304211D01*
X57388454Y-87264169D01*
X57380000Y-87221670D01*
X57380000Y-87178330D01*
X57388454Y-87135831D01*
X57405039Y-87095789D01*
X57429115Y-87059758D01*
X57459758Y-87029115D01*
X57495789Y-87005039D01*
X57535831Y-86988454D01*
X57578330Y-86980000D01*
X57621670Y-86980000D01*
X57664169Y-86988454D01*
X57664169Y-86988454D01*
G37*
G36*
X58464169Y-86988454D02*
X58504211Y-87005039D01*
X58540242Y-87029115D01*
X58570885Y-87059758D01*
X58594961Y-87095789D01*
X58611546Y-87135831D01*
X58620000Y-87178330D01*
X58620000Y-87221670D01*
X58611546Y-87264169D01*
X58594961Y-87304211D01*
X58570885Y-87340242D01*
X58540242Y-87370885D01*
X58504211Y-87394961D01*
X58464169Y-87411546D01*
X58421670Y-87420000D01*
X58378330Y-87420000D01*
X58335831Y-87411546D01*
X58295789Y-87394961D01*
X58259758Y-87370885D01*
X58229115Y-87340242D01*
X58205039Y-87304211D01*
X58188454Y-87264169D01*
X58180000Y-87221670D01*
X58180000Y-87178330D01*
X58188454Y-87135831D01*
X58205039Y-87095789D01*
X58229115Y-87059758D01*
X58259758Y-87029115D01*
X58295789Y-87005039D01*
X58335831Y-86988454D01*
X58378330Y-86980000D01*
X58421670Y-86980000D01*
X58464169Y-86988454D01*
X58464169Y-86988454D01*
G37*
G36*
X53420000Y-86695000D02*
X52380000Y-86695000D01*
X52380000Y-85705000D01*
X53420000Y-85705000D01*
X53420000Y-86695000D01*
X53420000Y-86695000D01*
G37*
G36*
X56864169Y-86188454D02*
X56904211Y-86205039D01*
X56940242Y-86229115D01*
X56970885Y-86259758D01*
X56994961Y-86295789D01*
X57011546Y-86335831D01*
X57020000Y-86378330D01*
X57020000Y-86421670D01*
X57011546Y-86464169D01*
X56994961Y-86504211D01*
X56970885Y-86540242D01*
X56940242Y-86570885D01*
X56904211Y-86594961D01*
X56864169Y-86611546D01*
X56821670Y-86620000D01*
X56778330Y-86620000D01*
X56735831Y-86611546D01*
X56695789Y-86594961D01*
X56659758Y-86570885D01*
X56629115Y-86540242D01*
X56605039Y-86504211D01*
X56588454Y-86464169D01*
X56580000Y-86421670D01*
X56580000Y-86378330D01*
X56588454Y-86335831D01*
X56605039Y-86295789D01*
X56629115Y-86259758D01*
X56659758Y-86229115D01*
X56695789Y-86205039D01*
X56735831Y-86188454D01*
X56778330Y-86180000D01*
X56821670Y-86180000D01*
X56864169Y-86188454D01*
X56864169Y-86188454D01*
G37*
G36*
X61664169Y-86188454D02*
X61704211Y-86205039D01*
X61740242Y-86229115D01*
X61770885Y-86259758D01*
X61794961Y-86295789D01*
X61811546Y-86335831D01*
X61820000Y-86378330D01*
X61820000Y-86421670D01*
X61811546Y-86464169D01*
X61794961Y-86504211D01*
X61770885Y-86540242D01*
X61740242Y-86570885D01*
X61704211Y-86594961D01*
X61664169Y-86611546D01*
X61621670Y-86620000D01*
X61578330Y-86620000D01*
X61535831Y-86611546D01*
X61495789Y-86594961D01*
X61459758Y-86570885D01*
X61429115Y-86540242D01*
X61405039Y-86504211D01*
X61388454Y-86464169D01*
X61380000Y-86421670D01*
X61380000Y-86378330D01*
X61388454Y-86335831D01*
X61405039Y-86295789D01*
X61429115Y-86259758D01*
X61459758Y-86229115D01*
X61495789Y-86205039D01*
X61535831Y-86188454D01*
X61578330Y-86180000D01*
X61621670Y-86180000D01*
X61664169Y-86188454D01*
X61664169Y-86188454D01*
G37*
G36*
X60864169Y-86188454D02*
X60904211Y-86205039D01*
X60940242Y-86229115D01*
X60970885Y-86259758D01*
X60994961Y-86295789D01*
X61011546Y-86335831D01*
X61020000Y-86378330D01*
X61020000Y-86421670D01*
X61011546Y-86464169D01*
X60994961Y-86504211D01*
X60970885Y-86540242D01*
X60940242Y-86570885D01*
X60904211Y-86594961D01*
X60864169Y-86611546D01*
X60821670Y-86620000D01*
X60778330Y-86620000D01*
X60735831Y-86611546D01*
X60695789Y-86594961D01*
X60659758Y-86570885D01*
X60629115Y-86540242D01*
X60605039Y-86504211D01*
X60588454Y-86464169D01*
X60580000Y-86421670D01*
X60580000Y-86378330D01*
X60588454Y-86335831D01*
X60605039Y-86295789D01*
X60629115Y-86259758D01*
X60659758Y-86229115D01*
X60695789Y-86205039D01*
X60735831Y-86188454D01*
X60778330Y-86180000D01*
X60821670Y-86180000D01*
X60864169Y-86188454D01*
X60864169Y-86188454D01*
G37*
G36*
X60064169Y-86188454D02*
X60104211Y-86205039D01*
X60140242Y-86229115D01*
X60170885Y-86259758D01*
X60194961Y-86295789D01*
X60211546Y-86335831D01*
X60220000Y-86378330D01*
X60220000Y-86421670D01*
X60211546Y-86464169D01*
X60194961Y-86504211D01*
X60170885Y-86540242D01*
X60140242Y-86570885D01*
X60104211Y-86594961D01*
X60064169Y-86611546D01*
X60021670Y-86620000D01*
X59978330Y-86620000D01*
X59935831Y-86611546D01*
X59895789Y-86594961D01*
X59859758Y-86570885D01*
X59829115Y-86540242D01*
X59805039Y-86504211D01*
X59788454Y-86464169D01*
X59780000Y-86421670D01*
X59780000Y-86378330D01*
X59788454Y-86335831D01*
X59805039Y-86295789D01*
X59829115Y-86259758D01*
X59859758Y-86229115D01*
X59895789Y-86205039D01*
X59935831Y-86188454D01*
X59978330Y-86180000D01*
X60021670Y-86180000D01*
X60064169Y-86188454D01*
X60064169Y-86188454D01*
G37*
G36*
X62464169Y-86188454D02*
X62504211Y-86205039D01*
X62540242Y-86229115D01*
X62570885Y-86259758D01*
X62594961Y-86295789D01*
X62611546Y-86335831D01*
X62620000Y-86378330D01*
X62620000Y-86421670D01*
X62611546Y-86464169D01*
X62594961Y-86504211D01*
X62570885Y-86540242D01*
X62540242Y-86570885D01*
X62504211Y-86594961D01*
X62464169Y-86611546D01*
X62421670Y-86620000D01*
X62378330Y-86620000D01*
X62335831Y-86611546D01*
X62295789Y-86594961D01*
X62259758Y-86570885D01*
X62229115Y-86540242D01*
X62205039Y-86504211D01*
X62188454Y-86464169D01*
X62180000Y-86421670D01*
X62180000Y-86378330D01*
X62188454Y-86335831D01*
X62205039Y-86295789D01*
X62229115Y-86259758D01*
X62259758Y-86229115D01*
X62295789Y-86205039D01*
X62335831Y-86188454D01*
X62378330Y-86180000D01*
X62421670Y-86180000D01*
X62464169Y-86188454D01*
X62464169Y-86188454D01*
G37*
G36*
X59264169Y-86188454D02*
X59304211Y-86205039D01*
X59340242Y-86229115D01*
X59370885Y-86259758D01*
X59394961Y-86295789D01*
X59411546Y-86335831D01*
X59420000Y-86378330D01*
X59420000Y-86421670D01*
X59411546Y-86464169D01*
X59394961Y-86504211D01*
X59370885Y-86540242D01*
X59340242Y-86570885D01*
X59304211Y-86594961D01*
X59264169Y-86611546D01*
X59221670Y-86620000D01*
X59178330Y-86620000D01*
X59135831Y-86611546D01*
X59095789Y-86594961D01*
X59059758Y-86570885D01*
X59029115Y-86540242D01*
X59005039Y-86504211D01*
X58988454Y-86464169D01*
X58980000Y-86421670D01*
X58980000Y-86378330D01*
X58988454Y-86335831D01*
X59005039Y-86295789D01*
X59029115Y-86259758D01*
X59059758Y-86229115D01*
X59095789Y-86205039D01*
X59135831Y-86188454D01*
X59178330Y-86180000D01*
X59221670Y-86180000D01*
X59264169Y-86188454D01*
X59264169Y-86188454D01*
G37*
G36*
X63264169Y-86188454D02*
X63304211Y-86205039D01*
X63340242Y-86229115D01*
X63370885Y-86259758D01*
X63394961Y-86295789D01*
X63411546Y-86335831D01*
X63420000Y-86378330D01*
X63420000Y-86421670D01*
X63411546Y-86464169D01*
X63394961Y-86504211D01*
X63370885Y-86540242D01*
X63340242Y-86570885D01*
X63304211Y-86594961D01*
X63264169Y-86611546D01*
X63221670Y-86620000D01*
X63178330Y-86620000D01*
X63135831Y-86611546D01*
X63095789Y-86594961D01*
X63059758Y-86570885D01*
X63029115Y-86540242D01*
X63005039Y-86504211D01*
X62988454Y-86464169D01*
X62980000Y-86421670D01*
X62980000Y-86378330D01*
X62988454Y-86335831D01*
X63005039Y-86295789D01*
X63029115Y-86259758D01*
X63059758Y-86229115D01*
X63095789Y-86205039D01*
X63135831Y-86188454D01*
X63178330Y-86180000D01*
X63221670Y-86180000D01*
X63264169Y-86188454D01*
X63264169Y-86188454D01*
G37*
G36*
X56064169Y-86188454D02*
X56104211Y-86205039D01*
X56140242Y-86229115D01*
X56170885Y-86259758D01*
X56194961Y-86295789D01*
X56211546Y-86335831D01*
X56220000Y-86378330D01*
X56220000Y-86421670D01*
X56211546Y-86464169D01*
X56194961Y-86504211D01*
X56170885Y-86540242D01*
X56140242Y-86570885D01*
X56104211Y-86594961D01*
X56064169Y-86611546D01*
X56021670Y-86620000D01*
X55978330Y-86620000D01*
X55935831Y-86611546D01*
X55895789Y-86594961D01*
X55859758Y-86570885D01*
X55829115Y-86540242D01*
X55805039Y-86504211D01*
X55788454Y-86464169D01*
X55780000Y-86421670D01*
X55780000Y-86378330D01*
X55788454Y-86335831D01*
X55805039Y-86295789D01*
X55829115Y-86259758D01*
X55859758Y-86229115D01*
X55895789Y-86205039D01*
X55935831Y-86188454D01*
X55978330Y-86180000D01*
X56021670Y-86180000D01*
X56064169Y-86188454D01*
X56064169Y-86188454D01*
G37*
G36*
X64064169Y-86188454D02*
X64104211Y-86205039D01*
X64140242Y-86229115D01*
X64170885Y-86259758D01*
X64194961Y-86295789D01*
X64211546Y-86335831D01*
X64220000Y-86378330D01*
X64220000Y-86421670D01*
X64211546Y-86464169D01*
X64194961Y-86504211D01*
X64170885Y-86540242D01*
X64140242Y-86570885D01*
X64104211Y-86594961D01*
X64064169Y-86611546D01*
X64021670Y-86620000D01*
X63978330Y-86620000D01*
X63935831Y-86611546D01*
X63895789Y-86594961D01*
X63859758Y-86570885D01*
X63829115Y-86540242D01*
X63805039Y-86504211D01*
X63788454Y-86464169D01*
X63780000Y-86421670D01*
X63780000Y-86378330D01*
X63788454Y-86335831D01*
X63805039Y-86295789D01*
X63829115Y-86259758D01*
X63859758Y-86229115D01*
X63895789Y-86205039D01*
X63935831Y-86188454D01*
X63978330Y-86180000D01*
X64021670Y-86180000D01*
X64064169Y-86188454D01*
X64064169Y-86188454D01*
G37*
G36*
X58464169Y-86188454D02*
X58504211Y-86205039D01*
X58540242Y-86229115D01*
X58570885Y-86259758D01*
X58594961Y-86295789D01*
X58611546Y-86335831D01*
X58620000Y-86378330D01*
X58620000Y-86421670D01*
X58611546Y-86464169D01*
X58594961Y-86504211D01*
X58570885Y-86540242D01*
X58540242Y-86570885D01*
X58504211Y-86594961D01*
X58464169Y-86611546D01*
X58421670Y-86620000D01*
X58378330Y-86620000D01*
X58335831Y-86611546D01*
X58295789Y-86594961D01*
X58259758Y-86570885D01*
X58229115Y-86540242D01*
X58205039Y-86504211D01*
X58188454Y-86464169D01*
X58180000Y-86421670D01*
X58180000Y-86378330D01*
X58188454Y-86335831D01*
X58205039Y-86295789D01*
X58229115Y-86259758D01*
X58259758Y-86229115D01*
X58295789Y-86205039D01*
X58335831Y-86188454D01*
X58378330Y-86180000D01*
X58421670Y-86180000D01*
X58464169Y-86188454D01*
X58464169Y-86188454D01*
G37*
G36*
X57664169Y-86188454D02*
X57704211Y-86205039D01*
X57740242Y-86229115D01*
X57770885Y-86259758D01*
X57794961Y-86295789D01*
X57811546Y-86335831D01*
X57820000Y-86378330D01*
X57820000Y-86421670D01*
X57811546Y-86464169D01*
X57794961Y-86504211D01*
X57770885Y-86540242D01*
X57740242Y-86570885D01*
X57704211Y-86594961D01*
X57664169Y-86611546D01*
X57621670Y-86620000D01*
X57578330Y-86620000D01*
X57535831Y-86611546D01*
X57495789Y-86594961D01*
X57459758Y-86570885D01*
X57429115Y-86540242D01*
X57405039Y-86504211D01*
X57388454Y-86464169D01*
X57380000Y-86421670D01*
X57380000Y-86378330D01*
X57388454Y-86335831D01*
X57405039Y-86295789D01*
X57429115Y-86259758D01*
X57459758Y-86229115D01*
X57495789Y-86205039D01*
X57535831Y-86188454D01*
X57578330Y-86180000D01*
X57621670Y-86180000D01*
X57664169Y-86188454D01*
X57664169Y-86188454D01*
G37*
G36*
X63264169Y-85388454D02*
X63304211Y-85405039D01*
X63340242Y-85429115D01*
X63370885Y-85459758D01*
X63394961Y-85495789D01*
X63411546Y-85535831D01*
X63420000Y-85578330D01*
X63420000Y-85621670D01*
X63411546Y-85664169D01*
X63394961Y-85704211D01*
X63370885Y-85740242D01*
X63340242Y-85770885D01*
X63304211Y-85794961D01*
X63264169Y-85811546D01*
X63221670Y-85820000D01*
X63178330Y-85820000D01*
X63135831Y-85811546D01*
X63095789Y-85794961D01*
X63059758Y-85770885D01*
X63029115Y-85740242D01*
X63005039Y-85704211D01*
X62988454Y-85664169D01*
X62980000Y-85621670D01*
X62980000Y-85578330D01*
X62988454Y-85535831D01*
X63005039Y-85495789D01*
X63029115Y-85459758D01*
X63059758Y-85429115D01*
X63095789Y-85405039D01*
X63135831Y-85388454D01*
X63178330Y-85380000D01*
X63221670Y-85380000D01*
X63264169Y-85388454D01*
X63264169Y-85388454D01*
G37*
G36*
X64064169Y-85388454D02*
X64104211Y-85405039D01*
X64140242Y-85429115D01*
X64170885Y-85459758D01*
X64194961Y-85495789D01*
X64211546Y-85535831D01*
X64220000Y-85578330D01*
X64220000Y-85621670D01*
X64211546Y-85664169D01*
X64194961Y-85704211D01*
X64170885Y-85740242D01*
X64140242Y-85770885D01*
X64104211Y-85794961D01*
X64064169Y-85811546D01*
X64021670Y-85820000D01*
X63978330Y-85820000D01*
X63935831Y-85811546D01*
X63895789Y-85794961D01*
X63859758Y-85770885D01*
X63829115Y-85740242D01*
X63805039Y-85704211D01*
X63788454Y-85664169D01*
X63780000Y-85621670D01*
X63780000Y-85578330D01*
X63788454Y-85535831D01*
X63805039Y-85495789D01*
X63829115Y-85459758D01*
X63859758Y-85429115D01*
X63895789Y-85405039D01*
X63935831Y-85388454D01*
X63978330Y-85380000D01*
X64021670Y-85380000D01*
X64064169Y-85388454D01*
X64064169Y-85388454D01*
G37*
G36*
X56864169Y-85388454D02*
X56904211Y-85405039D01*
X56940242Y-85429115D01*
X56970885Y-85459758D01*
X56994961Y-85495789D01*
X57011546Y-85535831D01*
X57020000Y-85578330D01*
X57020000Y-85621670D01*
X57011546Y-85664169D01*
X56994961Y-85704211D01*
X56970885Y-85740242D01*
X56940242Y-85770885D01*
X56904211Y-85794961D01*
X56864169Y-85811546D01*
X56821670Y-85820000D01*
X56778330Y-85820000D01*
X56735831Y-85811546D01*
X56695789Y-85794961D01*
X56659758Y-85770885D01*
X56629115Y-85740242D01*
X56605039Y-85704211D01*
X56588454Y-85664169D01*
X56580000Y-85621670D01*
X56580000Y-85578330D01*
X56588454Y-85535831D01*
X56605039Y-85495789D01*
X56629115Y-85459758D01*
X56659758Y-85429115D01*
X56695789Y-85405039D01*
X56735831Y-85388454D01*
X56778330Y-85380000D01*
X56821670Y-85380000D01*
X56864169Y-85388454D01*
X56864169Y-85388454D01*
G37*
G36*
X56064169Y-85388454D02*
X56104211Y-85405039D01*
X56140242Y-85429115D01*
X56170885Y-85459758D01*
X56194961Y-85495789D01*
X56211546Y-85535831D01*
X56220000Y-85578330D01*
X56220000Y-85621670D01*
X56211546Y-85664169D01*
X56194961Y-85704211D01*
X56170885Y-85740242D01*
X56140242Y-85770885D01*
X56104211Y-85794961D01*
X56064169Y-85811546D01*
X56021670Y-85820000D01*
X55978330Y-85820000D01*
X55935831Y-85811546D01*
X55895789Y-85794961D01*
X55859758Y-85770885D01*
X55829115Y-85740242D01*
X55805039Y-85704211D01*
X55788454Y-85664169D01*
X55780000Y-85621670D01*
X55780000Y-85578330D01*
X55788454Y-85535831D01*
X55805039Y-85495789D01*
X55829115Y-85459758D01*
X55859758Y-85429115D01*
X55895789Y-85405039D01*
X55935831Y-85388454D01*
X55978330Y-85380000D01*
X56021670Y-85380000D01*
X56064169Y-85388454D01*
X56064169Y-85388454D01*
G37*
G36*
X57664169Y-85388454D02*
X57704211Y-85405039D01*
X57740242Y-85429115D01*
X57770885Y-85459758D01*
X57794961Y-85495789D01*
X57811546Y-85535831D01*
X57820000Y-85578330D01*
X57820000Y-85621670D01*
X57811546Y-85664169D01*
X57794961Y-85704211D01*
X57770885Y-85740242D01*
X57740242Y-85770885D01*
X57704211Y-85794961D01*
X57664169Y-85811546D01*
X57621670Y-85820000D01*
X57578330Y-85820000D01*
X57535831Y-85811546D01*
X57495789Y-85794961D01*
X57459758Y-85770885D01*
X57429115Y-85740242D01*
X57405039Y-85704211D01*
X57388454Y-85664169D01*
X57380000Y-85621670D01*
X57380000Y-85578330D01*
X57388454Y-85535831D01*
X57405039Y-85495789D01*
X57429115Y-85459758D01*
X57459758Y-85429115D01*
X57495789Y-85405039D01*
X57535831Y-85388454D01*
X57578330Y-85380000D01*
X57621670Y-85380000D01*
X57664169Y-85388454D01*
X57664169Y-85388454D01*
G37*
G36*
X60064169Y-85388454D02*
X60104211Y-85405039D01*
X60140242Y-85429115D01*
X60170885Y-85459758D01*
X60194961Y-85495789D01*
X60211546Y-85535831D01*
X60220000Y-85578330D01*
X60220000Y-85621670D01*
X60211546Y-85664169D01*
X60194961Y-85704211D01*
X60170885Y-85740242D01*
X60140242Y-85770885D01*
X60104211Y-85794961D01*
X60064169Y-85811546D01*
X60021670Y-85820000D01*
X59978330Y-85820000D01*
X59935831Y-85811546D01*
X59895789Y-85794961D01*
X59859758Y-85770885D01*
X59829115Y-85740242D01*
X59805039Y-85704211D01*
X59788454Y-85664169D01*
X59780000Y-85621670D01*
X59780000Y-85578330D01*
X59788454Y-85535831D01*
X59805039Y-85495789D01*
X59829115Y-85459758D01*
X59859758Y-85429115D01*
X59895789Y-85405039D01*
X59935831Y-85388454D01*
X59978330Y-85380000D01*
X60021670Y-85380000D01*
X60064169Y-85388454D01*
X60064169Y-85388454D01*
G37*
G36*
X58464169Y-85388454D02*
X58504211Y-85405039D01*
X58540242Y-85429115D01*
X58570885Y-85459758D01*
X58594961Y-85495789D01*
X58611546Y-85535831D01*
X58620000Y-85578330D01*
X58620000Y-85621670D01*
X58611546Y-85664169D01*
X58594961Y-85704211D01*
X58570885Y-85740242D01*
X58540242Y-85770885D01*
X58504211Y-85794961D01*
X58464169Y-85811546D01*
X58421670Y-85820000D01*
X58378330Y-85820000D01*
X58335831Y-85811546D01*
X58295789Y-85794961D01*
X58259758Y-85770885D01*
X58229115Y-85740242D01*
X58205039Y-85704211D01*
X58188454Y-85664169D01*
X58180000Y-85621670D01*
X58180000Y-85578330D01*
X58188454Y-85535831D01*
X58205039Y-85495789D01*
X58229115Y-85459758D01*
X58259758Y-85429115D01*
X58295789Y-85405039D01*
X58335831Y-85388454D01*
X58378330Y-85380000D01*
X58421670Y-85380000D01*
X58464169Y-85388454D01*
X58464169Y-85388454D01*
G37*
G36*
X62464169Y-85388454D02*
X62504211Y-85405039D01*
X62540242Y-85429115D01*
X62570885Y-85459758D01*
X62594961Y-85495789D01*
X62611546Y-85535831D01*
X62620000Y-85578330D01*
X62620000Y-85621670D01*
X62611546Y-85664169D01*
X62594961Y-85704211D01*
X62570885Y-85740242D01*
X62540242Y-85770885D01*
X62504211Y-85794961D01*
X62464169Y-85811546D01*
X62421670Y-85820000D01*
X62378330Y-85820000D01*
X62335831Y-85811546D01*
X62295789Y-85794961D01*
X62259758Y-85770885D01*
X62229115Y-85740242D01*
X62205039Y-85704211D01*
X62188454Y-85664169D01*
X62180000Y-85621670D01*
X62180000Y-85578330D01*
X62188454Y-85535831D01*
X62205039Y-85495789D01*
X62229115Y-85459758D01*
X62259758Y-85429115D01*
X62295789Y-85405039D01*
X62335831Y-85388454D01*
X62378330Y-85380000D01*
X62421670Y-85380000D01*
X62464169Y-85388454D01*
X62464169Y-85388454D01*
G37*
G36*
X60864169Y-85388454D02*
X60904211Y-85405039D01*
X60940242Y-85429115D01*
X60970885Y-85459758D01*
X60994961Y-85495789D01*
X61011546Y-85535831D01*
X61020000Y-85578330D01*
X61020000Y-85621670D01*
X61011546Y-85664169D01*
X60994961Y-85704211D01*
X60970885Y-85740242D01*
X60940242Y-85770885D01*
X60904211Y-85794961D01*
X60864169Y-85811546D01*
X60821670Y-85820000D01*
X60778330Y-85820000D01*
X60735831Y-85811546D01*
X60695789Y-85794961D01*
X60659758Y-85770885D01*
X60629115Y-85740242D01*
X60605039Y-85704211D01*
X60588454Y-85664169D01*
X60580000Y-85621670D01*
X60580000Y-85578330D01*
X60588454Y-85535831D01*
X60605039Y-85495789D01*
X60629115Y-85459758D01*
X60659758Y-85429115D01*
X60695789Y-85405039D01*
X60735831Y-85388454D01*
X60778330Y-85380000D01*
X60821670Y-85380000D01*
X60864169Y-85388454D01*
X60864169Y-85388454D01*
G37*
G36*
X59264169Y-85388454D02*
X59304211Y-85405039D01*
X59340242Y-85429115D01*
X59370885Y-85459758D01*
X59394961Y-85495789D01*
X59411546Y-85535831D01*
X59420000Y-85578330D01*
X59420000Y-85621670D01*
X59411546Y-85664169D01*
X59394961Y-85704211D01*
X59370885Y-85740242D01*
X59340242Y-85770885D01*
X59304211Y-85794961D01*
X59264169Y-85811546D01*
X59221670Y-85820000D01*
X59178330Y-85820000D01*
X59135831Y-85811546D01*
X59095789Y-85794961D01*
X59059758Y-85770885D01*
X59029115Y-85740242D01*
X59005039Y-85704211D01*
X58988454Y-85664169D01*
X58980000Y-85621670D01*
X58980000Y-85578330D01*
X58988454Y-85535831D01*
X59005039Y-85495789D01*
X59029115Y-85459758D01*
X59059758Y-85429115D01*
X59095789Y-85405039D01*
X59135831Y-85388454D01*
X59178330Y-85380000D01*
X59221670Y-85380000D01*
X59264169Y-85388454D01*
X59264169Y-85388454D01*
G37*
G36*
X61664169Y-85388454D02*
X61704211Y-85405039D01*
X61740242Y-85429115D01*
X61770885Y-85459758D01*
X61794961Y-85495789D01*
X61811546Y-85535831D01*
X61820000Y-85578330D01*
X61820000Y-85621670D01*
X61811546Y-85664169D01*
X61794961Y-85704211D01*
X61770885Y-85740242D01*
X61740242Y-85770885D01*
X61704211Y-85794961D01*
X61664169Y-85811546D01*
X61621670Y-85820000D01*
X61578330Y-85820000D01*
X61535831Y-85811546D01*
X61495789Y-85794961D01*
X61459758Y-85770885D01*
X61429115Y-85740242D01*
X61405039Y-85704211D01*
X61388454Y-85664169D01*
X61380000Y-85621670D01*
X61380000Y-85578330D01*
X61388454Y-85535831D01*
X61405039Y-85495789D01*
X61429115Y-85459758D01*
X61459758Y-85429115D01*
X61495789Y-85405039D01*
X61535831Y-85388454D01*
X61578330Y-85380000D01*
X61621670Y-85380000D01*
X61664169Y-85388454D01*
X61664169Y-85388454D01*
G37*
G36*
X68430000Y-85680000D02*
X67770000Y-85680000D01*
X67770000Y-84120000D01*
X68430000Y-84120000D01*
X68430000Y-85680000D01*
X68430000Y-85680000D01*
G37*
G36*
X69630000Y-85680000D02*
X68970000Y-85680000D01*
X68970000Y-84120000D01*
X69630000Y-84120000D01*
X69630000Y-85680000D01*
X69630000Y-85680000D01*
G37*
G36*
X66030000Y-85680000D02*
X65370000Y-85680000D01*
X65370000Y-84120000D01*
X66030000Y-84120000D01*
X66030000Y-85680000D01*
X66030000Y-85680000D01*
G37*
G36*
X67230000Y-85680000D02*
X66570000Y-85680000D01*
X66570000Y-84120000D01*
X67230000Y-84120000D01*
X67230000Y-85680000D01*
X67230000Y-85680000D01*
G37*
G36*
X51030000Y-85080000D02*
X50370000Y-85080000D01*
X50370000Y-83520000D01*
X51030000Y-83520000D01*
X51030000Y-85080000D01*
X51030000Y-85080000D01*
G37*
G36*
X52230000Y-85080000D02*
X51570000Y-85080000D01*
X51570000Y-83520000D01*
X52230000Y-83520000D01*
X52230000Y-85080000D01*
X52230000Y-85080000D01*
G37*
G36*
X53430000Y-85080000D02*
X52770000Y-85080000D01*
X52770000Y-83520000D01*
X53430000Y-83520000D01*
X53430000Y-85080000D01*
X53430000Y-85080000D01*
G37*
G36*
X54630000Y-85080000D02*
X53970000Y-85080000D01*
X53970000Y-83520000D01*
X54630000Y-83520000D01*
X54630000Y-85080000D01*
X54630000Y-85080000D01*
G37*
G36*
X56864169Y-84588454D02*
X56904211Y-84605039D01*
X56940242Y-84629115D01*
X56970885Y-84659758D01*
X56994961Y-84695789D01*
X57011546Y-84735831D01*
X57020000Y-84778330D01*
X57020000Y-84821670D01*
X57011546Y-84864169D01*
X56994961Y-84904211D01*
X56970885Y-84940242D01*
X56940242Y-84970885D01*
X56904211Y-84994961D01*
X56864169Y-85011546D01*
X56821670Y-85020000D01*
X56778330Y-85020000D01*
X56735831Y-85011546D01*
X56695789Y-84994961D01*
X56659758Y-84970885D01*
X56629115Y-84940242D01*
X56605039Y-84904211D01*
X56588454Y-84864169D01*
X56580000Y-84821670D01*
X56580000Y-84778330D01*
X56588454Y-84735831D01*
X56605039Y-84695789D01*
X56629115Y-84659758D01*
X56659758Y-84629115D01*
X56695789Y-84605039D01*
X56735831Y-84588454D01*
X56778330Y-84580000D01*
X56821670Y-84580000D01*
X56864169Y-84588454D01*
X56864169Y-84588454D01*
G37*
G36*
X59264169Y-84588454D02*
X59304211Y-84605039D01*
X59340242Y-84629115D01*
X59370885Y-84659758D01*
X59394961Y-84695789D01*
X59411546Y-84735831D01*
X59420000Y-84778330D01*
X59420000Y-84821670D01*
X59411546Y-84864169D01*
X59394961Y-84904211D01*
X59370885Y-84940242D01*
X59340242Y-84970885D01*
X59304211Y-84994961D01*
X59264169Y-85011546D01*
X59221670Y-85020000D01*
X59178330Y-85020000D01*
X59135831Y-85011546D01*
X59095789Y-84994961D01*
X59059758Y-84970885D01*
X59029115Y-84940242D01*
X59005039Y-84904211D01*
X58988454Y-84864169D01*
X58980000Y-84821670D01*
X58980000Y-84778330D01*
X58988454Y-84735831D01*
X59005039Y-84695789D01*
X59029115Y-84659758D01*
X59059758Y-84629115D01*
X59095789Y-84605039D01*
X59135831Y-84588454D01*
X59178330Y-84580000D01*
X59221670Y-84580000D01*
X59264169Y-84588454D01*
X59264169Y-84588454D01*
G37*
G36*
X58464169Y-84588454D02*
X58504211Y-84605039D01*
X58540242Y-84629115D01*
X58570885Y-84659758D01*
X58594961Y-84695789D01*
X58611546Y-84735831D01*
X58620000Y-84778330D01*
X58620000Y-84821670D01*
X58611546Y-84864169D01*
X58594961Y-84904211D01*
X58570885Y-84940242D01*
X58540242Y-84970885D01*
X58504211Y-84994961D01*
X58464169Y-85011546D01*
X58421670Y-85020000D01*
X58378330Y-85020000D01*
X58335831Y-85011546D01*
X58295789Y-84994961D01*
X58259758Y-84970885D01*
X58229115Y-84940242D01*
X58205039Y-84904211D01*
X58188454Y-84864169D01*
X58180000Y-84821670D01*
X58180000Y-84778330D01*
X58188454Y-84735831D01*
X58205039Y-84695789D01*
X58229115Y-84659758D01*
X58259758Y-84629115D01*
X58295789Y-84605039D01*
X58335831Y-84588454D01*
X58378330Y-84580000D01*
X58421670Y-84580000D01*
X58464169Y-84588454D01*
X58464169Y-84588454D01*
G37*
G36*
X57664169Y-84588454D02*
X57704211Y-84605039D01*
X57740242Y-84629115D01*
X57770885Y-84659758D01*
X57794961Y-84695789D01*
X57811546Y-84735831D01*
X57820000Y-84778330D01*
X57820000Y-84821670D01*
X57811546Y-84864169D01*
X57794961Y-84904211D01*
X57770885Y-84940242D01*
X57740242Y-84970885D01*
X57704211Y-84994961D01*
X57664169Y-85011546D01*
X57621670Y-85020000D01*
X57578330Y-85020000D01*
X57535831Y-85011546D01*
X57495789Y-84994961D01*
X57459758Y-84970885D01*
X57429115Y-84940242D01*
X57405039Y-84904211D01*
X57388454Y-84864169D01*
X57380000Y-84821670D01*
X57380000Y-84778330D01*
X57388454Y-84735831D01*
X57405039Y-84695789D01*
X57429115Y-84659758D01*
X57459758Y-84629115D01*
X57495789Y-84605039D01*
X57535831Y-84588454D01*
X57578330Y-84580000D01*
X57621670Y-84580000D01*
X57664169Y-84588454D01*
X57664169Y-84588454D01*
G37*
G36*
X56064169Y-84588454D02*
X56104211Y-84605039D01*
X56140242Y-84629115D01*
X56170885Y-84659758D01*
X56194961Y-84695789D01*
X56211546Y-84735831D01*
X56220000Y-84778330D01*
X56220000Y-84821670D01*
X56211546Y-84864169D01*
X56194961Y-84904211D01*
X56170885Y-84940242D01*
X56140242Y-84970885D01*
X56104211Y-84994961D01*
X56064169Y-85011546D01*
X56021670Y-85020000D01*
X55978330Y-85020000D01*
X55935831Y-85011546D01*
X55895789Y-84994961D01*
X55859758Y-84970885D01*
X55829115Y-84940242D01*
X55805039Y-84904211D01*
X55788454Y-84864169D01*
X55780000Y-84821670D01*
X55780000Y-84778330D01*
X55788454Y-84735831D01*
X55805039Y-84695789D01*
X55829115Y-84659758D01*
X55859758Y-84629115D01*
X55895789Y-84605039D01*
X55935831Y-84588454D01*
X55978330Y-84580000D01*
X56021670Y-84580000D01*
X56064169Y-84588454D01*
X56064169Y-84588454D01*
G37*
G36*
X64064169Y-84588454D02*
X64104211Y-84605039D01*
X64140242Y-84629115D01*
X64170885Y-84659758D01*
X64194961Y-84695789D01*
X64211546Y-84735831D01*
X64220000Y-84778330D01*
X64220000Y-84821670D01*
X64211546Y-84864169D01*
X64194961Y-84904211D01*
X64170885Y-84940242D01*
X64140242Y-84970885D01*
X64104211Y-84994961D01*
X64064169Y-85011546D01*
X64021670Y-85020000D01*
X63978330Y-85020000D01*
X63935831Y-85011546D01*
X63895789Y-84994961D01*
X63859758Y-84970885D01*
X63829115Y-84940242D01*
X63805039Y-84904211D01*
X63788454Y-84864169D01*
X63780000Y-84821670D01*
X63780000Y-84778330D01*
X63788454Y-84735831D01*
X63805039Y-84695789D01*
X63829115Y-84659758D01*
X63859758Y-84629115D01*
X63895789Y-84605039D01*
X63935831Y-84588454D01*
X63978330Y-84580000D01*
X64021670Y-84580000D01*
X64064169Y-84588454D01*
X64064169Y-84588454D01*
G37*
G36*
X63264169Y-84588454D02*
X63304211Y-84605039D01*
X63340242Y-84629115D01*
X63370885Y-84659758D01*
X63394961Y-84695789D01*
X63411546Y-84735831D01*
X63420000Y-84778330D01*
X63420000Y-84821670D01*
X63411546Y-84864169D01*
X63394961Y-84904211D01*
X63370885Y-84940242D01*
X63340242Y-84970885D01*
X63304211Y-84994961D01*
X63264169Y-85011546D01*
X63221670Y-85020000D01*
X63178330Y-85020000D01*
X63135831Y-85011546D01*
X63095789Y-84994961D01*
X63059758Y-84970885D01*
X63029115Y-84940242D01*
X63005039Y-84904211D01*
X62988454Y-84864169D01*
X62980000Y-84821670D01*
X62980000Y-84778330D01*
X62988454Y-84735831D01*
X63005039Y-84695789D01*
X63029115Y-84659758D01*
X63059758Y-84629115D01*
X63095789Y-84605039D01*
X63135831Y-84588454D01*
X63178330Y-84580000D01*
X63221670Y-84580000D01*
X63264169Y-84588454D01*
X63264169Y-84588454D01*
G37*
G36*
X60864169Y-84588454D02*
X60904211Y-84605039D01*
X60940242Y-84629115D01*
X60970885Y-84659758D01*
X60994961Y-84695789D01*
X61011546Y-84735831D01*
X61020000Y-84778330D01*
X61020000Y-84821670D01*
X61011546Y-84864169D01*
X60994961Y-84904211D01*
X60970885Y-84940242D01*
X60940242Y-84970885D01*
X60904211Y-84994961D01*
X60864169Y-85011546D01*
X60821670Y-85020000D01*
X60778330Y-85020000D01*
X60735831Y-85011546D01*
X60695789Y-84994961D01*
X60659758Y-84970885D01*
X60629115Y-84940242D01*
X60605039Y-84904211D01*
X60588454Y-84864169D01*
X60580000Y-84821670D01*
X60580000Y-84778330D01*
X60588454Y-84735831D01*
X60605039Y-84695789D01*
X60629115Y-84659758D01*
X60659758Y-84629115D01*
X60695789Y-84605039D01*
X60735831Y-84588454D01*
X60778330Y-84580000D01*
X60821670Y-84580000D01*
X60864169Y-84588454D01*
X60864169Y-84588454D01*
G37*
G36*
X61664169Y-84588454D02*
X61704211Y-84605039D01*
X61740242Y-84629115D01*
X61770885Y-84659758D01*
X61794961Y-84695789D01*
X61811546Y-84735831D01*
X61820000Y-84778330D01*
X61820000Y-84821670D01*
X61811546Y-84864169D01*
X61794961Y-84904211D01*
X61770885Y-84940242D01*
X61740242Y-84970885D01*
X61704211Y-84994961D01*
X61664169Y-85011546D01*
X61621670Y-85020000D01*
X61578330Y-85020000D01*
X61535831Y-85011546D01*
X61495789Y-84994961D01*
X61459758Y-84970885D01*
X61429115Y-84940242D01*
X61405039Y-84904211D01*
X61388454Y-84864169D01*
X61380000Y-84821670D01*
X61380000Y-84778330D01*
X61388454Y-84735831D01*
X61405039Y-84695789D01*
X61429115Y-84659758D01*
X61459758Y-84629115D01*
X61495789Y-84605039D01*
X61535831Y-84588454D01*
X61578330Y-84580000D01*
X61621670Y-84580000D01*
X61664169Y-84588454D01*
X61664169Y-84588454D01*
G37*
G36*
X62464169Y-84588454D02*
X62504211Y-84605039D01*
X62540242Y-84629115D01*
X62570885Y-84659758D01*
X62594961Y-84695789D01*
X62611546Y-84735831D01*
X62620000Y-84778330D01*
X62620000Y-84821670D01*
X62611546Y-84864169D01*
X62594961Y-84904211D01*
X62570885Y-84940242D01*
X62540242Y-84970885D01*
X62504211Y-84994961D01*
X62464169Y-85011546D01*
X62421670Y-85020000D01*
X62378330Y-85020000D01*
X62335831Y-85011546D01*
X62295789Y-84994961D01*
X62259758Y-84970885D01*
X62229115Y-84940242D01*
X62205039Y-84904211D01*
X62188454Y-84864169D01*
X62180000Y-84821670D01*
X62180000Y-84778330D01*
X62188454Y-84735831D01*
X62205039Y-84695789D01*
X62229115Y-84659758D01*
X62259758Y-84629115D01*
X62295789Y-84605039D01*
X62335831Y-84588454D01*
X62378330Y-84580000D01*
X62421670Y-84580000D01*
X62464169Y-84588454D01*
X62464169Y-84588454D01*
G37*
G36*
X60064169Y-84588454D02*
X60104211Y-84605039D01*
X60140242Y-84629115D01*
X60170885Y-84659758D01*
X60194961Y-84695789D01*
X60211546Y-84735831D01*
X60220000Y-84778330D01*
X60220000Y-84821670D01*
X60211546Y-84864169D01*
X60194961Y-84904211D01*
X60170885Y-84940242D01*
X60140242Y-84970885D01*
X60104211Y-84994961D01*
X60064169Y-85011546D01*
X60021670Y-85020000D01*
X59978330Y-85020000D01*
X59935831Y-85011546D01*
X59895789Y-84994961D01*
X59859758Y-84970885D01*
X59829115Y-84940242D01*
X59805039Y-84904211D01*
X59788454Y-84864169D01*
X59780000Y-84821670D01*
X59780000Y-84778330D01*
X59788454Y-84735831D01*
X59805039Y-84695789D01*
X59829115Y-84659758D01*
X59859758Y-84629115D01*
X59895789Y-84605039D01*
X59935831Y-84588454D01*
X59978330Y-84580000D01*
X60021670Y-84580000D01*
X60064169Y-84588454D01*
X60064169Y-84588454D01*
G37*
G36*
X62464169Y-83788454D02*
X62504211Y-83805039D01*
X62540242Y-83829115D01*
X62570885Y-83859758D01*
X62594961Y-83895789D01*
X62611546Y-83935831D01*
X62620000Y-83978330D01*
X62620000Y-84021670D01*
X62611546Y-84064169D01*
X62594961Y-84104211D01*
X62570885Y-84140242D01*
X62540242Y-84170885D01*
X62504211Y-84194961D01*
X62464169Y-84211546D01*
X62421670Y-84220000D01*
X62378330Y-84220000D01*
X62335831Y-84211546D01*
X62295789Y-84194961D01*
X62259758Y-84170885D01*
X62229115Y-84140242D01*
X62205039Y-84104211D01*
X62188454Y-84064169D01*
X62180000Y-84021670D01*
X62180000Y-83978330D01*
X62188454Y-83935831D01*
X62205039Y-83895789D01*
X62229115Y-83859758D01*
X62259758Y-83829115D01*
X62295789Y-83805039D01*
X62335831Y-83788454D01*
X62378330Y-83780000D01*
X62421670Y-83780000D01*
X62464169Y-83788454D01*
X62464169Y-83788454D01*
G37*
G36*
X61664169Y-83788454D02*
X61704211Y-83805039D01*
X61740242Y-83829115D01*
X61770885Y-83859758D01*
X61794961Y-83895789D01*
X61811546Y-83935831D01*
X61820000Y-83978330D01*
X61820000Y-84021670D01*
X61811546Y-84064169D01*
X61794961Y-84104211D01*
X61770885Y-84140242D01*
X61740242Y-84170885D01*
X61704211Y-84194961D01*
X61664169Y-84211546D01*
X61621670Y-84220000D01*
X61578330Y-84220000D01*
X61535831Y-84211546D01*
X61495789Y-84194961D01*
X61459758Y-84170885D01*
X61429115Y-84140242D01*
X61405039Y-84104211D01*
X61388454Y-84064169D01*
X61380000Y-84021670D01*
X61380000Y-83978330D01*
X61388454Y-83935831D01*
X61405039Y-83895789D01*
X61429115Y-83859758D01*
X61459758Y-83829115D01*
X61495789Y-83805039D01*
X61535831Y-83788454D01*
X61578330Y-83780000D01*
X61621670Y-83780000D01*
X61664169Y-83788454D01*
X61664169Y-83788454D01*
G37*
G36*
X60864169Y-83788454D02*
X60904211Y-83805039D01*
X60940242Y-83829115D01*
X60970885Y-83859758D01*
X60994961Y-83895789D01*
X61011546Y-83935831D01*
X61020000Y-83978330D01*
X61020000Y-84021670D01*
X61011546Y-84064169D01*
X60994961Y-84104211D01*
X60970885Y-84140242D01*
X60940242Y-84170885D01*
X60904211Y-84194961D01*
X60864169Y-84211546D01*
X60821670Y-84220000D01*
X60778330Y-84220000D01*
X60735831Y-84211546D01*
X60695789Y-84194961D01*
X60659758Y-84170885D01*
X60629115Y-84140242D01*
X60605039Y-84104211D01*
X60588454Y-84064169D01*
X60580000Y-84021670D01*
X60580000Y-83978330D01*
X60588454Y-83935831D01*
X60605039Y-83895789D01*
X60629115Y-83859758D01*
X60659758Y-83829115D01*
X60695789Y-83805039D01*
X60735831Y-83788454D01*
X60778330Y-83780000D01*
X60821670Y-83780000D01*
X60864169Y-83788454D01*
X60864169Y-83788454D01*
G37*
G36*
X56864169Y-83788454D02*
X56904211Y-83805039D01*
X56940242Y-83829115D01*
X56970885Y-83859758D01*
X56994961Y-83895789D01*
X57011546Y-83935831D01*
X57020000Y-83978330D01*
X57020000Y-84021670D01*
X57011546Y-84064169D01*
X56994961Y-84104211D01*
X56970885Y-84140242D01*
X56940242Y-84170885D01*
X56904211Y-84194961D01*
X56864169Y-84211546D01*
X56821670Y-84220000D01*
X56778330Y-84220000D01*
X56735831Y-84211546D01*
X56695789Y-84194961D01*
X56659758Y-84170885D01*
X56629115Y-84140242D01*
X56605039Y-84104211D01*
X56588454Y-84064169D01*
X56580000Y-84021670D01*
X56580000Y-83978330D01*
X56588454Y-83935831D01*
X56605039Y-83895789D01*
X56629115Y-83859758D01*
X56659758Y-83829115D01*
X56695789Y-83805039D01*
X56735831Y-83788454D01*
X56778330Y-83780000D01*
X56821670Y-83780000D01*
X56864169Y-83788454D01*
X56864169Y-83788454D01*
G37*
G36*
X60064169Y-83788454D02*
X60104211Y-83805039D01*
X60140242Y-83829115D01*
X60170885Y-83859758D01*
X60194961Y-83895789D01*
X60211546Y-83935831D01*
X60220000Y-83978330D01*
X60220000Y-84021670D01*
X60211546Y-84064169D01*
X60194961Y-84104211D01*
X60170885Y-84140242D01*
X60140242Y-84170885D01*
X60104211Y-84194961D01*
X60064169Y-84211546D01*
X60021670Y-84220000D01*
X59978330Y-84220000D01*
X59935831Y-84211546D01*
X59895789Y-84194961D01*
X59859758Y-84170885D01*
X59829115Y-84140242D01*
X59805039Y-84104211D01*
X59788454Y-84064169D01*
X59780000Y-84021670D01*
X59780000Y-83978330D01*
X59788454Y-83935831D01*
X59805039Y-83895789D01*
X59829115Y-83859758D01*
X59859758Y-83829115D01*
X59895789Y-83805039D01*
X59935831Y-83788454D01*
X59978330Y-83780000D01*
X60021670Y-83780000D01*
X60064169Y-83788454D01*
X60064169Y-83788454D01*
G37*
G36*
X58464169Y-83788454D02*
X58504211Y-83805039D01*
X58540242Y-83829115D01*
X58570885Y-83859758D01*
X58594961Y-83895789D01*
X58611546Y-83935831D01*
X58620000Y-83978330D01*
X58620000Y-84021670D01*
X58611546Y-84064169D01*
X58594961Y-84104211D01*
X58570885Y-84140242D01*
X58540242Y-84170885D01*
X58504211Y-84194961D01*
X58464169Y-84211546D01*
X58421670Y-84220000D01*
X58378330Y-84220000D01*
X58335831Y-84211546D01*
X58295789Y-84194961D01*
X58259758Y-84170885D01*
X58229115Y-84140242D01*
X58205039Y-84104211D01*
X58188454Y-84064169D01*
X58180000Y-84021670D01*
X58180000Y-83978330D01*
X58188454Y-83935831D01*
X58205039Y-83895789D01*
X58229115Y-83859758D01*
X58259758Y-83829115D01*
X58295789Y-83805039D01*
X58335831Y-83788454D01*
X58378330Y-83780000D01*
X58421670Y-83780000D01*
X58464169Y-83788454D01*
X58464169Y-83788454D01*
G37*
G36*
X59264169Y-83788454D02*
X59304211Y-83805039D01*
X59340242Y-83829115D01*
X59370885Y-83859758D01*
X59394961Y-83895789D01*
X59411546Y-83935831D01*
X59420000Y-83978330D01*
X59420000Y-84021670D01*
X59411546Y-84064169D01*
X59394961Y-84104211D01*
X59370885Y-84140242D01*
X59340242Y-84170885D01*
X59304211Y-84194961D01*
X59264169Y-84211546D01*
X59221670Y-84220000D01*
X59178330Y-84220000D01*
X59135831Y-84211546D01*
X59095789Y-84194961D01*
X59059758Y-84170885D01*
X59029115Y-84140242D01*
X59005039Y-84104211D01*
X58988454Y-84064169D01*
X58980000Y-84021670D01*
X58980000Y-83978330D01*
X58988454Y-83935831D01*
X59005039Y-83895789D01*
X59029115Y-83859758D01*
X59059758Y-83829115D01*
X59095789Y-83805039D01*
X59135831Y-83788454D01*
X59178330Y-83780000D01*
X59221670Y-83780000D01*
X59264169Y-83788454D01*
X59264169Y-83788454D01*
G37*
G36*
X56064169Y-83788454D02*
X56104211Y-83805039D01*
X56140242Y-83829115D01*
X56170885Y-83859758D01*
X56194961Y-83895789D01*
X56211546Y-83935831D01*
X56220000Y-83978330D01*
X56220000Y-84021670D01*
X56211546Y-84064169D01*
X56194961Y-84104211D01*
X56170885Y-84140242D01*
X56140242Y-84170885D01*
X56104211Y-84194961D01*
X56064169Y-84211546D01*
X56021670Y-84220000D01*
X55978330Y-84220000D01*
X55935831Y-84211546D01*
X55895789Y-84194961D01*
X55859758Y-84170885D01*
X55829115Y-84140242D01*
X55805039Y-84104211D01*
X55788454Y-84064169D01*
X55780000Y-84021670D01*
X55780000Y-83978330D01*
X55788454Y-83935831D01*
X55805039Y-83895789D01*
X55829115Y-83859758D01*
X55859758Y-83829115D01*
X55895789Y-83805039D01*
X55935831Y-83788454D01*
X55978330Y-83780000D01*
X56021670Y-83780000D01*
X56064169Y-83788454D01*
X56064169Y-83788454D01*
G37*
G36*
X57664169Y-83788454D02*
X57704211Y-83805039D01*
X57740242Y-83829115D01*
X57770885Y-83859758D01*
X57794961Y-83895789D01*
X57811546Y-83935831D01*
X57820000Y-83978330D01*
X57820000Y-84021670D01*
X57811546Y-84064169D01*
X57794961Y-84104211D01*
X57770885Y-84140242D01*
X57740242Y-84170885D01*
X57704211Y-84194961D01*
X57664169Y-84211546D01*
X57621670Y-84220000D01*
X57578330Y-84220000D01*
X57535831Y-84211546D01*
X57495789Y-84194961D01*
X57459758Y-84170885D01*
X57429115Y-84140242D01*
X57405039Y-84104211D01*
X57388454Y-84064169D01*
X57380000Y-84021670D01*
X57380000Y-83978330D01*
X57388454Y-83935831D01*
X57405039Y-83895789D01*
X57429115Y-83859758D01*
X57459758Y-83829115D01*
X57495789Y-83805039D01*
X57535831Y-83788454D01*
X57578330Y-83780000D01*
X57621670Y-83780000D01*
X57664169Y-83788454D01*
X57664169Y-83788454D01*
G37*
G36*
X64064169Y-83788454D02*
X64104211Y-83805039D01*
X64140242Y-83829115D01*
X64170885Y-83859758D01*
X64194961Y-83895789D01*
X64211546Y-83935831D01*
X64220000Y-83978330D01*
X64220000Y-84021670D01*
X64211546Y-84064169D01*
X64194961Y-84104211D01*
X64170885Y-84140242D01*
X64140242Y-84170885D01*
X64104211Y-84194961D01*
X64064169Y-84211546D01*
X64021670Y-84220000D01*
X63978330Y-84220000D01*
X63935831Y-84211546D01*
X63895789Y-84194961D01*
X63859758Y-84170885D01*
X63829115Y-84140242D01*
X63805039Y-84104211D01*
X63788454Y-84064169D01*
X63780000Y-84021670D01*
X63780000Y-83978330D01*
X63788454Y-83935831D01*
X63805039Y-83895789D01*
X63829115Y-83859758D01*
X63859758Y-83829115D01*
X63895789Y-83805039D01*
X63935831Y-83788454D01*
X63978330Y-83780000D01*
X64021670Y-83780000D01*
X64064169Y-83788454D01*
X64064169Y-83788454D01*
G37*
G36*
X63264169Y-83788454D02*
X63304211Y-83805039D01*
X63340242Y-83829115D01*
X63370885Y-83859758D01*
X63394961Y-83895789D01*
X63411546Y-83935831D01*
X63420000Y-83978330D01*
X63420000Y-84021670D01*
X63411546Y-84064169D01*
X63394961Y-84104211D01*
X63370885Y-84140242D01*
X63340242Y-84170885D01*
X63304211Y-84194961D01*
X63264169Y-84211546D01*
X63221670Y-84220000D01*
X63178330Y-84220000D01*
X63135831Y-84211546D01*
X63095789Y-84194961D01*
X63059758Y-84170885D01*
X63029115Y-84140242D01*
X63005039Y-84104211D01*
X62988454Y-84064169D01*
X62980000Y-84021670D01*
X62980000Y-83978330D01*
X62988454Y-83935831D01*
X63005039Y-83895789D01*
X63029115Y-83859758D01*
X63059758Y-83829115D01*
X63095789Y-83805039D01*
X63135831Y-83788454D01*
X63178330Y-83780000D01*
X63221670Y-83780000D01*
X63264169Y-83788454D01*
X63264169Y-83788454D01*
G37*
G36*
X68430000Y-83580000D02*
X67770000Y-83580000D01*
X67770000Y-82020000D01*
X68430000Y-82020000D01*
X68430000Y-83580000D01*
X68430000Y-83580000D01*
G37*
G36*
X67230000Y-83580000D02*
X66570000Y-83580000D01*
X66570000Y-82020000D01*
X67230000Y-82020000D01*
X67230000Y-83580000D01*
X67230000Y-83580000D01*
G37*
G36*
X66030000Y-83580000D02*
X65370000Y-83580000D01*
X65370000Y-82020000D01*
X66030000Y-82020000D01*
X66030000Y-83580000D01*
X66030000Y-83580000D01*
G37*
G36*
X60064169Y-82988454D02*
X60104211Y-83005039D01*
X60140242Y-83029115D01*
X60170885Y-83059758D01*
X60194961Y-83095789D01*
X60211546Y-83135831D01*
X60220000Y-83178330D01*
X60220000Y-83221670D01*
X60211546Y-83264169D01*
X60194961Y-83304211D01*
X60170885Y-83340242D01*
X60140242Y-83370885D01*
X60104211Y-83394961D01*
X60064169Y-83411546D01*
X60021670Y-83420000D01*
X59978330Y-83420000D01*
X59935831Y-83411546D01*
X59895789Y-83394961D01*
X59859758Y-83370885D01*
X59829115Y-83340242D01*
X59805039Y-83304211D01*
X59788454Y-83264169D01*
X59780000Y-83221670D01*
X59780000Y-83178330D01*
X59788454Y-83135831D01*
X59805039Y-83095789D01*
X59829115Y-83059758D01*
X59859758Y-83029115D01*
X59895789Y-83005039D01*
X59935831Y-82988454D01*
X59978330Y-82980000D01*
X60021670Y-82980000D01*
X60064169Y-82988454D01*
X60064169Y-82988454D01*
G37*
G36*
X60864169Y-82988454D02*
X60904211Y-83005039D01*
X60940242Y-83029115D01*
X60970885Y-83059758D01*
X60994961Y-83095789D01*
X61011546Y-83135831D01*
X61020000Y-83178330D01*
X61020000Y-83221670D01*
X61011546Y-83264169D01*
X60994961Y-83304211D01*
X60970885Y-83340242D01*
X60940242Y-83370885D01*
X60904211Y-83394961D01*
X60864169Y-83411546D01*
X60821670Y-83420000D01*
X60778330Y-83420000D01*
X60735831Y-83411546D01*
X60695789Y-83394961D01*
X60659758Y-83370885D01*
X60629115Y-83340242D01*
X60605039Y-83304211D01*
X60588454Y-83264169D01*
X60580000Y-83221670D01*
X60580000Y-83178330D01*
X60588454Y-83135831D01*
X60605039Y-83095789D01*
X60629115Y-83059758D01*
X60659758Y-83029115D01*
X60695789Y-83005039D01*
X60735831Y-82988454D01*
X60778330Y-82980000D01*
X60821670Y-82980000D01*
X60864169Y-82988454D01*
X60864169Y-82988454D01*
G37*
G36*
X62464169Y-82988454D02*
X62504211Y-83005039D01*
X62540242Y-83029115D01*
X62570885Y-83059758D01*
X62594961Y-83095789D01*
X62611546Y-83135831D01*
X62620000Y-83178330D01*
X62620000Y-83221670D01*
X62611546Y-83264169D01*
X62594961Y-83304211D01*
X62570885Y-83340242D01*
X62540242Y-83370885D01*
X62504211Y-83394961D01*
X62464169Y-83411546D01*
X62421670Y-83420000D01*
X62378330Y-83420000D01*
X62335831Y-83411546D01*
X62295789Y-83394961D01*
X62259758Y-83370885D01*
X62229115Y-83340242D01*
X62205039Y-83304211D01*
X62188454Y-83264169D01*
X62180000Y-83221670D01*
X62180000Y-83178330D01*
X62188454Y-83135831D01*
X62205039Y-83095789D01*
X62229115Y-83059758D01*
X62259758Y-83029115D01*
X62295789Y-83005039D01*
X62335831Y-82988454D01*
X62378330Y-82980000D01*
X62421670Y-82980000D01*
X62464169Y-82988454D01*
X62464169Y-82988454D01*
G37*
G36*
X63264169Y-82988454D02*
X63304211Y-83005039D01*
X63340242Y-83029115D01*
X63370885Y-83059758D01*
X63394961Y-83095789D01*
X63411546Y-83135831D01*
X63420000Y-83178330D01*
X63420000Y-83221670D01*
X63411546Y-83264169D01*
X63394961Y-83304211D01*
X63370885Y-83340242D01*
X63340242Y-83370885D01*
X63304211Y-83394961D01*
X63264169Y-83411546D01*
X63221670Y-83420000D01*
X63178330Y-83420000D01*
X63135831Y-83411546D01*
X63095789Y-83394961D01*
X63059758Y-83370885D01*
X63029115Y-83340242D01*
X63005039Y-83304211D01*
X62988454Y-83264169D01*
X62980000Y-83221670D01*
X62980000Y-83178330D01*
X62988454Y-83135831D01*
X63005039Y-83095789D01*
X63029115Y-83059758D01*
X63059758Y-83029115D01*
X63095789Y-83005039D01*
X63135831Y-82988454D01*
X63178330Y-82980000D01*
X63221670Y-82980000D01*
X63264169Y-82988454D01*
X63264169Y-82988454D01*
G37*
G36*
X64064169Y-82988454D02*
X64104211Y-83005039D01*
X64140242Y-83029115D01*
X64170885Y-83059758D01*
X64194961Y-83095789D01*
X64211546Y-83135831D01*
X64220000Y-83178330D01*
X64220000Y-83221670D01*
X64211546Y-83264169D01*
X64194961Y-83304211D01*
X64170885Y-83340242D01*
X64140242Y-83370885D01*
X64104211Y-83394961D01*
X64064169Y-83411546D01*
X64021670Y-83420000D01*
X63978330Y-83420000D01*
X63935831Y-83411546D01*
X63895789Y-83394961D01*
X63859758Y-83370885D01*
X63829115Y-83340242D01*
X63805039Y-83304211D01*
X63788454Y-83264169D01*
X63780000Y-83221670D01*
X63780000Y-83178330D01*
X63788454Y-83135831D01*
X63805039Y-83095789D01*
X63829115Y-83059758D01*
X63859758Y-83029115D01*
X63895789Y-83005039D01*
X63935831Y-82988454D01*
X63978330Y-82980000D01*
X64021670Y-82980000D01*
X64064169Y-82988454D01*
X64064169Y-82988454D01*
G37*
G36*
X56864169Y-82988454D02*
X56904211Y-83005039D01*
X56940242Y-83029115D01*
X56970885Y-83059758D01*
X56994961Y-83095789D01*
X57011546Y-83135831D01*
X57020000Y-83178330D01*
X57020000Y-83221670D01*
X57011546Y-83264169D01*
X56994961Y-83304211D01*
X56970885Y-83340242D01*
X56940242Y-83370885D01*
X56904211Y-83394961D01*
X56864169Y-83411546D01*
X56821670Y-83420000D01*
X56778330Y-83420000D01*
X56735831Y-83411546D01*
X56695789Y-83394961D01*
X56659758Y-83370885D01*
X56629115Y-83340242D01*
X56605039Y-83304211D01*
X56588454Y-83264169D01*
X56580000Y-83221670D01*
X56580000Y-83178330D01*
X56588454Y-83135831D01*
X56605039Y-83095789D01*
X56629115Y-83059758D01*
X56659758Y-83029115D01*
X56695789Y-83005039D01*
X56735831Y-82988454D01*
X56778330Y-82980000D01*
X56821670Y-82980000D01*
X56864169Y-82988454D01*
X56864169Y-82988454D01*
G37*
G36*
X58464169Y-82988454D02*
X58504211Y-83005039D01*
X58540242Y-83029115D01*
X58570885Y-83059758D01*
X58594961Y-83095789D01*
X58611546Y-83135831D01*
X58620000Y-83178330D01*
X58620000Y-83221670D01*
X58611546Y-83264169D01*
X58594961Y-83304211D01*
X58570885Y-83340242D01*
X58540242Y-83370885D01*
X58504211Y-83394961D01*
X58464169Y-83411546D01*
X58421670Y-83420000D01*
X58378330Y-83420000D01*
X58335831Y-83411546D01*
X58295789Y-83394961D01*
X58259758Y-83370885D01*
X58229115Y-83340242D01*
X58205039Y-83304211D01*
X58188454Y-83264169D01*
X58180000Y-83221670D01*
X58180000Y-83178330D01*
X58188454Y-83135831D01*
X58205039Y-83095789D01*
X58229115Y-83059758D01*
X58259758Y-83029115D01*
X58295789Y-83005039D01*
X58335831Y-82988454D01*
X58378330Y-82980000D01*
X58421670Y-82980000D01*
X58464169Y-82988454D01*
X58464169Y-82988454D01*
G37*
G36*
X59264169Y-82988454D02*
X59304211Y-83005039D01*
X59340242Y-83029115D01*
X59370885Y-83059758D01*
X59394961Y-83095789D01*
X59411546Y-83135831D01*
X59420000Y-83178330D01*
X59420000Y-83221670D01*
X59411546Y-83264169D01*
X59394961Y-83304211D01*
X59370885Y-83340242D01*
X59340242Y-83370885D01*
X59304211Y-83394961D01*
X59264169Y-83411546D01*
X59221670Y-83420000D01*
X59178330Y-83420000D01*
X59135831Y-83411546D01*
X59095789Y-83394961D01*
X59059758Y-83370885D01*
X59029115Y-83340242D01*
X59005039Y-83304211D01*
X58988454Y-83264169D01*
X58980000Y-83221670D01*
X58980000Y-83178330D01*
X58988454Y-83135831D01*
X59005039Y-83095789D01*
X59029115Y-83059758D01*
X59059758Y-83029115D01*
X59095789Y-83005039D01*
X59135831Y-82988454D01*
X59178330Y-82980000D01*
X59221670Y-82980000D01*
X59264169Y-82988454D01*
X59264169Y-82988454D01*
G37*
G36*
X56064169Y-82988454D02*
X56104211Y-83005039D01*
X56140242Y-83029115D01*
X56170885Y-83059758D01*
X56194961Y-83095789D01*
X56211546Y-83135831D01*
X56220000Y-83178330D01*
X56220000Y-83221670D01*
X56211546Y-83264169D01*
X56194961Y-83304211D01*
X56170885Y-83340242D01*
X56140242Y-83370885D01*
X56104211Y-83394961D01*
X56064169Y-83411546D01*
X56021670Y-83420000D01*
X55978330Y-83420000D01*
X55935831Y-83411546D01*
X55895789Y-83394961D01*
X55859758Y-83370885D01*
X55829115Y-83340242D01*
X55805039Y-83304211D01*
X55788454Y-83264169D01*
X55780000Y-83221670D01*
X55780000Y-83178330D01*
X55788454Y-83135831D01*
X55805039Y-83095789D01*
X55829115Y-83059758D01*
X55859758Y-83029115D01*
X55895789Y-83005039D01*
X55935831Y-82988454D01*
X55978330Y-82980000D01*
X56021670Y-82980000D01*
X56064169Y-82988454D01*
X56064169Y-82988454D01*
G37*
G36*
X57664169Y-82988454D02*
X57704211Y-83005039D01*
X57740242Y-83029115D01*
X57770885Y-83059758D01*
X57794961Y-83095789D01*
X57811546Y-83135831D01*
X57820000Y-83178330D01*
X57820000Y-83221670D01*
X57811546Y-83264169D01*
X57794961Y-83304211D01*
X57770885Y-83340242D01*
X57740242Y-83370885D01*
X57704211Y-83394961D01*
X57664169Y-83411546D01*
X57621670Y-83420000D01*
X57578330Y-83420000D01*
X57535831Y-83411546D01*
X57495789Y-83394961D01*
X57459758Y-83370885D01*
X57429115Y-83340242D01*
X57405039Y-83304211D01*
X57388454Y-83264169D01*
X57380000Y-83221670D01*
X57380000Y-83178330D01*
X57388454Y-83135831D01*
X57405039Y-83095789D01*
X57429115Y-83059758D01*
X57459758Y-83029115D01*
X57495789Y-83005039D01*
X57535831Y-82988454D01*
X57578330Y-82980000D01*
X57621670Y-82980000D01*
X57664169Y-82988454D01*
X57664169Y-82988454D01*
G37*
G36*
X61664169Y-82988454D02*
X61704211Y-83005039D01*
X61740242Y-83029115D01*
X61770885Y-83059758D01*
X61794961Y-83095789D01*
X61811546Y-83135831D01*
X61820000Y-83178330D01*
X61820000Y-83221670D01*
X61811546Y-83264169D01*
X61794961Y-83304211D01*
X61770885Y-83340242D01*
X61740242Y-83370885D01*
X61704211Y-83394961D01*
X61664169Y-83411546D01*
X61621670Y-83420000D01*
X61578330Y-83420000D01*
X61535831Y-83411546D01*
X61495789Y-83394961D01*
X61459758Y-83370885D01*
X61429115Y-83340242D01*
X61405039Y-83304211D01*
X61388454Y-83264169D01*
X61380000Y-83221670D01*
X61380000Y-83178330D01*
X61388454Y-83135831D01*
X61405039Y-83095789D01*
X61429115Y-83059758D01*
X61459758Y-83029115D01*
X61495789Y-83005039D01*
X61535831Y-82988454D01*
X61578330Y-82980000D01*
X61621670Y-82980000D01*
X61664169Y-82988454D01*
X61664169Y-82988454D01*
G37*
G36*
X58464169Y-82188454D02*
X58504211Y-82205039D01*
X58540242Y-82229115D01*
X58570885Y-82259758D01*
X58594961Y-82295789D01*
X58611546Y-82335831D01*
X58620000Y-82378330D01*
X58620000Y-82421670D01*
X58611546Y-82464169D01*
X58594961Y-82504211D01*
X58570885Y-82540242D01*
X58540242Y-82570885D01*
X58504211Y-82594961D01*
X58464169Y-82611546D01*
X58421670Y-82620000D01*
X58378330Y-82620000D01*
X58335831Y-82611546D01*
X58295789Y-82594961D01*
X58259758Y-82570885D01*
X58229115Y-82540242D01*
X58205039Y-82504211D01*
X58188454Y-82464169D01*
X58180000Y-82421670D01*
X58180000Y-82378330D01*
X58188454Y-82335831D01*
X58205039Y-82295789D01*
X58229115Y-82259758D01*
X58259758Y-82229115D01*
X58295789Y-82205039D01*
X58335831Y-82188454D01*
X58378330Y-82180000D01*
X58421670Y-82180000D01*
X58464169Y-82188454D01*
X58464169Y-82188454D01*
G37*
G36*
X59264169Y-82188454D02*
X59304211Y-82205039D01*
X59340242Y-82229115D01*
X59370885Y-82259758D01*
X59394961Y-82295789D01*
X59411546Y-82335831D01*
X59420000Y-82378330D01*
X59420000Y-82421670D01*
X59411546Y-82464169D01*
X59394961Y-82504211D01*
X59370885Y-82540242D01*
X59340242Y-82570885D01*
X59304211Y-82594961D01*
X59264169Y-82611546D01*
X59221670Y-82620000D01*
X59178330Y-82620000D01*
X59135831Y-82611546D01*
X59095789Y-82594961D01*
X59059758Y-82570885D01*
X59029115Y-82540242D01*
X59005039Y-82504211D01*
X58988454Y-82464169D01*
X58980000Y-82421670D01*
X58980000Y-82378330D01*
X58988454Y-82335831D01*
X59005039Y-82295789D01*
X59029115Y-82259758D01*
X59059758Y-82229115D01*
X59095789Y-82205039D01*
X59135831Y-82188454D01*
X59178330Y-82180000D01*
X59221670Y-82180000D01*
X59264169Y-82188454D01*
X59264169Y-82188454D01*
G37*
G36*
X56064169Y-82188454D02*
X56104211Y-82205039D01*
X56140242Y-82229115D01*
X56170885Y-82259758D01*
X56194961Y-82295789D01*
X56211546Y-82335831D01*
X56220000Y-82378330D01*
X56220000Y-82421670D01*
X56211546Y-82464169D01*
X56194961Y-82504211D01*
X56170885Y-82540242D01*
X56140242Y-82570885D01*
X56104211Y-82594961D01*
X56064169Y-82611546D01*
X56021670Y-82620000D01*
X55978330Y-82620000D01*
X55935831Y-82611546D01*
X55895789Y-82594961D01*
X55859758Y-82570885D01*
X55829115Y-82540242D01*
X55805039Y-82504211D01*
X55788454Y-82464169D01*
X55780000Y-82421670D01*
X55780000Y-82378330D01*
X55788454Y-82335831D01*
X55805039Y-82295789D01*
X55829115Y-82259758D01*
X55859758Y-82229115D01*
X55895789Y-82205039D01*
X55935831Y-82188454D01*
X55978330Y-82180000D01*
X56021670Y-82180000D01*
X56064169Y-82188454D01*
X56064169Y-82188454D01*
G37*
G36*
X64064169Y-82188454D02*
X64104211Y-82205039D01*
X64140242Y-82229115D01*
X64170885Y-82259758D01*
X64194961Y-82295789D01*
X64211546Y-82335831D01*
X64220000Y-82378330D01*
X64220000Y-82421670D01*
X64211546Y-82464169D01*
X64194961Y-82504211D01*
X64170885Y-82540242D01*
X64140242Y-82570885D01*
X64104211Y-82594961D01*
X64064169Y-82611546D01*
X64021670Y-82620000D01*
X63978330Y-82620000D01*
X63935831Y-82611546D01*
X63895789Y-82594961D01*
X63859758Y-82570885D01*
X63829115Y-82540242D01*
X63805039Y-82504211D01*
X63788454Y-82464169D01*
X63780000Y-82421670D01*
X63780000Y-82378330D01*
X63788454Y-82335831D01*
X63805039Y-82295789D01*
X63829115Y-82259758D01*
X63859758Y-82229115D01*
X63895789Y-82205039D01*
X63935831Y-82188454D01*
X63978330Y-82180000D01*
X64021670Y-82180000D01*
X64064169Y-82188454D01*
X64064169Y-82188454D01*
G37*
G36*
X63264169Y-82188454D02*
X63304211Y-82205039D01*
X63340242Y-82229115D01*
X63370885Y-82259758D01*
X63394961Y-82295789D01*
X63411546Y-82335831D01*
X63420000Y-82378330D01*
X63420000Y-82421670D01*
X63411546Y-82464169D01*
X63394961Y-82504211D01*
X63370885Y-82540242D01*
X63340242Y-82570885D01*
X63304211Y-82594961D01*
X63264169Y-82611546D01*
X63221670Y-82620000D01*
X63178330Y-82620000D01*
X63135831Y-82611546D01*
X63095789Y-82594961D01*
X63059758Y-82570885D01*
X63029115Y-82540242D01*
X63005039Y-82504211D01*
X62988454Y-82464169D01*
X62980000Y-82421670D01*
X62980000Y-82378330D01*
X62988454Y-82335831D01*
X63005039Y-82295789D01*
X63029115Y-82259758D01*
X63059758Y-82229115D01*
X63095789Y-82205039D01*
X63135831Y-82188454D01*
X63178330Y-82180000D01*
X63221670Y-82180000D01*
X63264169Y-82188454D01*
X63264169Y-82188454D01*
G37*
G36*
X62464169Y-82188454D02*
X62504211Y-82205039D01*
X62540242Y-82229115D01*
X62570885Y-82259758D01*
X62594961Y-82295789D01*
X62611546Y-82335831D01*
X62620000Y-82378330D01*
X62620000Y-82421670D01*
X62611546Y-82464169D01*
X62594961Y-82504211D01*
X62570885Y-82540242D01*
X62540242Y-82570885D01*
X62504211Y-82594961D01*
X62464169Y-82611546D01*
X62421670Y-82620000D01*
X62378330Y-82620000D01*
X62335831Y-82611546D01*
X62295789Y-82594961D01*
X62259758Y-82570885D01*
X62229115Y-82540242D01*
X62205039Y-82504211D01*
X62188454Y-82464169D01*
X62180000Y-82421670D01*
X62180000Y-82378330D01*
X62188454Y-82335831D01*
X62205039Y-82295789D01*
X62229115Y-82259758D01*
X62259758Y-82229115D01*
X62295789Y-82205039D01*
X62335831Y-82188454D01*
X62378330Y-82180000D01*
X62421670Y-82180000D01*
X62464169Y-82188454D01*
X62464169Y-82188454D01*
G37*
G36*
X56864169Y-82188454D02*
X56904211Y-82205039D01*
X56940242Y-82229115D01*
X56970885Y-82259758D01*
X56994961Y-82295789D01*
X57011546Y-82335831D01*
X57020000Y-82378330D01*
X57020000Y-82421670D01*
X57011546Y-82464169D01*
X56994961Y-82504211D01*
X56970885Y-82540242D01*
X56940242Y-82570885D01*
X56904211Y-82594961D01*
X56864169Y-82611546D01*
X56821670Y-82620000D01*
X56778330Y-82620000D01*
X56735831Y-82611546D01*
X56695789Y-82594961D01*
X56659758Y-82570885D01*
X56629115Y-82540242D01*
X56605039Y-82504211D01*
X56588454Y-82464169D01*
X56580000Y-82421670D01*
X56580000Y-82378330D01*
X56588454Y-82335831D01*
X56605039Y-82295789D01*
X56629115Y-82259758D01*
X56659758Y-82229115D01*
X56695789Y-82205039D01*
X56735831Y-82188454D01*
X56778330Y-82180000D01*
X56821670Y-82180000D01*
X56864169Y-82188454D01*
X56864169Y-82188454D01*
G37*
G36*
X61664169Y-82188454D02*
X61704211Y-82205039D01*
X61740242Y-82229115D01*
X61770885Y-82259758D01*
X61794961Y-82295789D01*
X61811546Y-82335831D01*
X61820000Y-82378330D01*
X61820000Y-82421670D01*
X61811546Y-82464169D01*
X61794961Y-82504211D01*
X61770885Y-82540242D01*
X61740242Y-82570885D01*
X61704211Y-82594961D01*
X61664169Y-82611546D01*
X61621670Y-82620000D01*
X61578330Y-82620000D01*
X61535831Y-82611546D01*
X61495789Y-82594961D01*
X61459758Y-82570885D01*
X61429115Y-82540242D01*
X61405039Y-82504211D01*
X61388454Y-82464169D01*
X61380000Y-82421670D01*
X61380000Y-82378330D01*
X61388454Y-82335831D01*
X61405039Y-82295789D01*
X61429115Y-82259758D01*
X61459758Y-82229115D01*
X61495789Y-82205039D01*
X61535831Y-82188454D01*
X61578330Y-82180000D01*
X61621670Y-82180000D01*
X61664169Y-82188454D01*
X61664169Y-82188454D01*
G37*
G36*
X60864169Y-82188454D02*
X60904211Y-82205039D01*
X60940242Y-82229115D01*
X60970885Y-82259758D01*
X60994961Y-82295789D01*
X61011546Y-82335831D01*
X61020000Y-82378330D01*
X61020000Y-82421670D01*
X61011546Y-82464169D01*
X60994961Y-82504211D01*
X60970885Y-82540242D01*
X60940242Y-82570885D01*
X60904211Y-82594961D01*
X60864169Y-82611546D01*
X60821670Y-82620000D01*
X60778330Y-82620000D01*
X60735831Y-82611546D01*
X60695789Y-82594961D01*
X60659758Y-82570885D01*
X60629115Y-82540242D01*
X60605039Y-82504211D01*
X60588454Y-82464169D01*
X60580000Y-82421670D01*
X60580000Y-82378330D01*
X60588454Y-82335831D01*
X60605039Y-82295789D01*
X60629115Y-82259758D01*
X60659758Y-82229115D01*
X60695789Y-82205039D01*
X60735831Y-82188454D01*
X60778330Y-82180000D01*
X60821670Y-82180000D01*
X60864169Y-82188454D01*
X60864169Y-82188454D01*
G37*
G36*
X57664169Y-82188454D02*
X57704211Y-82205039D01*
X57740242Y-82229115D01*
X57770885Y-82259758D01*
X57794961Y-82295789D01*
X57811546Y-82335831D01*
X57820000Y-82378330D01*
X57820000Y-82421670D01*
X57811546Y-82464169D01*
X57794961Y-82504211D01*
X57770885Y-82540242D01*
X57740242Y-82570885D01*
X57704211Y-82594961D01*
X57664169Y-82611546D01*
X57621670Y-82620000D01*
X57578330Y-82620000D01*
X57535831Y-82611546D01*
X57495789Y-82594961D01*
X57459758Y-82570885D01*
X57429115Y-82540242D01*
X57405039Y-82504211D01*
X57388454Y-82464169D01*
X57380000Y-82421670D01*
X57380000Y-82378330D01*
X57388454Y-82335831D01*
X57405039Y-82295789D01*
X57429115Y-82259758D01*
X57459758Y-82229115D01*
X57495789Y-82205039D01*
X57535831Y-82188454D01*
X57578330Y-82180000D01*
X57621670Y-82180000D01*
X57664169Y-82188454D01*
X57664169Y-82188454D01*
G37*
G36*
X60064169Y-82188454D02*
X60104211Y-82205039D01*
X60140242Y-82229115D01*
X60170885Y-82259758D01*
X60194961Y-82295789D01*
X60211546Y-82335831D01*
X60220000Y-82378330D01*
X60220000Y-82421670D01*
X60211546Y-82464169D01*
X60194961Y-82504211D01*
X60170885Y-82540242D01*
X60140242Y-82570885D01*
X60104211Y-82594961D01*
X60064169Y-82611546D01*
X60021670Y-82620000D01*
X59978330Y-82620000D01*
X59935831Y-82611546D01*
X59895789Y-82594961D01*
X59859758Y-82570885D01*
X59829115Y-82540242D01*
X59805039Y-82504211D01*
X59788454Y-82464169D01*
X59780000Y-82421670D01*
X59780000Y-82378330D01*
X59788454Y-82335831D01*
X59805039Y-82295789D01*
X59829115Y-82259758D01*
X59859758Y-82229115D01*
X59895789Y-82205039D01*
X59935831Y-82188454D01*
X59978330Y-82180000D01*
X60021670Y-82180000D01*
X60064169Y-82188454D01*
X60064169Y-82188454D01*
G37*
G36*
X54580000Y-82530000D02*
X53020000Y-82530000D01*
X53020000Y-81870000D01*
X54580000Y-81870000D01*
X54580000Y-82530000D01*
X54580000Y-82530000D01*
G37*
G36*
X52330000Y-82380000D02*
X51670000Y-82380000D01*
X51670000Y-80820000D01*
X52330000Y-80820000D01*
X52330000Y-82380000D01*
X52330000Y-82380000D01*
G37*
G36*
X58464169Y-81388454D02*
X58504211Y-81405039D01*
X58540242Y-81429115D01*
X58570885Y-81459758D01*
X58594961Y-81495789D01*
X58611546Y-81535831D01*
X58620000Y-81578330D01*
X58620000Y-81621670D01*
X58611546Y-81664169D01*
X58594961Y-81704211D01*
X58570885Y-81740242D01*
X58540242Y-81770885D01*
X58504211Y-81794961D01*
X58464169Y-81811546D01*
X58421670Y-81820000D01*
X58378330Y-81820000D01*
X58335831Y-81811546D01*
X58295789Y-81794961D01*
X58259758Y-81770885D01*
X58229115Y-81740242D01*
X58205039Y-81704211D01*
X58188454Y-81664169D01*
X58180000Y-81621670D01*
X58180000Y-81578330D01*
X58188454Y-81535831D01*
X58205039Y-81495789D01*
X58229115Y-81459758D01*
X58259758Y-81429115D01*
X58295789Y-81405039D01*
X58335831Y-81388454D01*
X58378330Y-81380000D01*
X58421670Y-81380000D01*
X58464169Y-81388454D01*
X58464169Y-81388454D01*
G37*
G36*
X61664169Y-81388454D02*
X61704211Y-81405039D01*
X61740242Y-81429115D01*
X61770885Y-81459758D01*
X61794961Y-81495789D01*
X61811546Y-81535831D01*
X61820000Y-81578330D01*
X61820000Y-81621670D01*
X61811546Y-81664169D01*
X61794961Y-81704211D01*
X61770885Y-81740242D01*
X61740242Y-81770885D01*
X61704211Y-81794961D01*
X61664169Y-81811546D01*
X61621670Y-81820000D01*
X61578330Y-81820000D01*
X61535831Y-81811546D01*
X61495789Y-81794961D01*
X61459758Y-81770885D01*
X61429115Y-81740242D01*
X61405039Y-81704211D01*
X61388454Y-81664169D01*
X61380000Y-81621670D01*
X61380000Y-81578330D01*
X61388454Y-81535831D01*
X61405039Y-81495789D01*
X61429115Y-81459758D01*
X61459758Y-81429115D01*
X61495789Y-81405039D01*
X61535831Y-81388454D01*
X61578330Y-81380000D01*
X61621670Y-81380000D01*
X61664169Y-81388454D01*
X61664169Y-81388454D01*
G37*
G36*
X56864169Y-81388454D02*
X56904211Y-81405039D01*
X56940242Y-81429115D01*
X56970885Y-81459758D01*
X56994961Y-81495789D01*
X57011546Y-81535831D01*
X57020000Y-81578330D01*
X57020000Y-81621670D01*
X57011546Y-81664169D01*
X56994961Y-81704211D01*
X56970885Y-81740242D01*
X56940242Y-81770885D01*
X56904211Y-81794961D01*
X56864169Y-81811546D01*
X56821670Y-81820000D01*
X56778330Y-81820000D01*
X56735831Y-81811546D01*
X56695789Y-81794961D01*
X56659758Y-81770885D01*
X56629115Y-81740242D01*
X56605039Y-81704211D01*
X56588454Y-81664169D01*
X56580000Y-81621670D01*
X56580000Y-81578330D01*
X56588454Y-81535831D01*
X56605039Y-81495789D01*
X56629115Y-81459758D01*
X56659758Y-81429115D01*
X56695789Y-81405039D01*
X56735831Y-81388454D01*
X56778330Y-81380000D01*
X56821670Y-81380000D01*
X56864169Y-81388454D01*
X56864169Y-81388454D01*
G37*
G36*
X56064169Y-81388454D02*
X56104211Y-81405039D01*
X56140242Y-81429115D01*
X56170885Y-81459758D01*
X56194961Y-81495789D01*
X56211546Y-81535831D01*
X56220000Y-81578330D01*
X56220000Y-81621670D01*
X56211546Y-81664169D01*
X56194961Y-81704211D01*
X56170885Y-81740242D01*
X56140242Y-81770885D01*
X56104211Y-81794961D01*
X56064169Y-81811546D01*
X56021670Y-81820000D01*
X55978330Y-81820000D01*
X55935831Y-81811546D01*
X55895789Y-81794961D01*
X55859758Y-81770885D01*
X55829115Y-81740242D01*
X55805039Y-81704211D01*
X55788454Y-81664169D01*
X55780000Y-81621670D01*
X55780000Y-81578330D01*
X55788454Y-81535831D01*
X55805039Y-81495789D01*
X55829115Y-81459758D01*
X55859758Y-81429115D01*
X55895789Y-81405039D01*
X55935831Y-81388454D01*
X55978330Y-81380000D01*
X56021670Y-81380000D01*
X56064169Y-81388454D01*
X56064169Y-81388454D01*
G37*
G36*
X57664169Y-81388454D02*
X57704211Y-81405039D01*
X57740242Y-81429115D01*
X57770885Y-81459758D01*
X57794961Y-81495789D01*
X57811546Y-81535831D01*
X57820000Y-81578330D01*
X57820000Y-81621670D01*
X57811546Y-81664169D01*
X57794961Y-81704211D01*
X57770885Y-81740242D01*
X57740242Y-81770885D01*
X57704211Y-81794961D01*
X57664169Y-81811546D01*
X57621670Y-81820000D01*
X57578330Y-81820000D01*
X57535831Y-81811546D01*
X57495789Y-81794961D01*
X57459758Y-81770885D01*
X57429115Y-81740242D01*
X57405039Y-81704211D01*
X57388454Y-81664169D01*
X57380000Y-81621670D01*
X57380000Y-81578330D01*
X57388454Y-81535831D01*
X57405039Y-81495789D01*
X57429115Y-81459758D01*
X57459758Y-81429115D01*
X57495789Y-81405039D01*
X57535831Y-81388454D01*
X57578330Y-81380000D01*
X57621670Y-81380000D01*
X57664169Y-81388454D01*
X57664169Y-81388454D01*
G37*
G36*
X59264169Y-81388454D02*
X59304211Y-81405039D01*
X59340242Y-81429115D01*
X59370885Y-81459758D01*
X59394961Y-81495789D01*
X59411546Y-81535831D01*
X59420000Y-81578330D01*
X59420000Y-81621670D01*
X59411546Y-81664169D01*
X59394961Y-81704211D01*
X59370885Y-81740242D01*
X59340242Y-81770885D01*
X59304211Y-81794961D01*
X59264169Y-81811546D01*
X59221670Y-81820000D01*
X59178330Y-81820000D01*
X59135831Y-81811546D01*
X59095789Y-81794961D01*
X59059758Y-81770885D01*
X59029115Y-81740242D01*
X59005039Y-81704211D01*
X58988454Y-81664169D01*
X58980000Y-81621670D01*
X58980000Y-81578330D01*
X58988454Y-81535831D01*
X59005039Y-81495789D01*
X59029115Y-81459758D01*
X59059758Y-81429115D01*
X59095789Y-81405039D01*
X59135831Y-81388454D01*
X59178330Y-81380000D01*
X59221670Y-81380000D01*
X59264169Y-81388454D01*
X59264169Y-81388454D01*
G37*
G36*
X63264169Y-81388454D02*
X63304211Y-81405039D01*
X63340242Y-81429115D01*
X63370885Y-81459758D01*
X63394961Y-81495789D01*
X63411546Y-81535831D01*
X63420000Y-81578330D01*
X63420000Y-81621670D01*
X63411546Y-81664169D01*
X63394961Y-81704211D01*
X63370885Y-81740242D01*
X63340242Y-81770885D01*
X63304211Y-81794961D01*
X63264169Y-81811546D01*
X63221670Y-81820000D01*
X63178330Y-81820000D01*
X63135831Y-81811546D01*
X63095789Y-81794961D01*
X63059758Y-81770885D01*
X63029115Y-81740242D01*
X63005039Y-81704211D01*
X62988454Y-81664169D01*
X62980000Y-81621670D01*
X62980000Y-81578330D01*
X62988454Y-81535831D01*
X63005039Y-81495789D01*
X63029115Y-81459758D01*
X63059758Y-81429115D01*
X63095789Y-81405039D01*
X63135831Y-81388454D01*
X63178330Y-81380000D01*
X63221670Y-81380000D01*
X63264169Y-81388454D01*
X63264169Y-81388454D01*
G37*
G36*
X60064169Y-81388454D02*
X60104211Y-81405039D01*
X60140242Y-81429115D01*
X60170885Y-81459758D01*
X60194961Y-81495789D01*
X60211546Y-81535831D01*
X60220000Y-81578330D01*
X60220000Y-81621670D01*
X60211546Y-81664169D01*
X60194961Y-81704211D01*
X60170885Y-81740242D01*
X60140242Y-81770885D01*
X60104211Y-81794961D01*
X60064169Y-81811546D01*
X60021670Y-81820000D01*
X59978330Y-81820000D01*
X59935831Y-81811546D01*
X59895789Y-81794961D01*
X59859758Y-81770885D01*
X59829115Y-81740242D01*
X59805039Y-81704211D01*
X59788454Y-81664169D01*
X59780000Y-81621670D01*
X59780000Y-81578330D01*
X59788454Y-81535831D01*
X59805039Y-81495789D01*
X59829115Y-81459758D01*
X59859758Y-81429115D01*
X59895789Y-81405039D01*
X59935831Y-81388454D01*
X59978330Y-81380000D01*
X60021670Y-81380000D01*
X60064169Y-81388454D01*
X60064169Y-81388454D01*
G37*
G36*
X60864169Y-81388454D02*
X60904211Y-81405039D01*
X60940242Y-81429115D01*
X60970885Y-81459758D01*
X60994961Y-81495789D01*
X61011546Y-81535831D01*
X61020000Y-81578330D01*
X61020000Y-81621670D01*
X61011546Y-81664169D01*
X60994961Y-81704211D01*
X60970885Y-81740242D01*
X60940242Y-81770885D01*
X60904211Y-81794961D01*
X60864169Y-81811546D01*
X60821670Y-81820000D01*
X60778330Y-81820000D01*
X60735831Y-81811546D01*
X60695789Y-81794961D01*
X60659758Y-81770885D01*
X60629115Y-81740242D01*
X60605039Y-81704211D01*
X60588454Y-81664169D01*
X60580000Y-81621670D01*
X60580000Y-81578330D01*
X60588454Y-81535831D01*
X60605039Y-81495789D01*
X60629115Y-81459758D01*
X60659758Y-81429115D01*
X60695789Y-81405039D01*
X60735831Y-81388454D01*
X60778330Y-81380000D01*
X60821670Y-81380000D01*
X60864169Y-81388454D01*
X60864169Y-81388454D01*
G37*
G36*
X64064169Y-81388454D02*
X64104211Y-81405039D01*
X64140242Y-81429115D01*
X64170885Y-81459758D01*
X64194961Y-81495789D01*
X64211546Y-81535831D01*
X64220000Y-81578330D01*
X64220000Y-81621670D01*
X64211546Y-81664169D01*
X64194961Y-81704211D01*
X64170885Y-81740242D01*
X64140242Y-81770885D01*
X64104211Y-81794961D01*
X64064169Y-81811546D01*
X64021670Y-81820000D01*
X63978330Y-81820000D01*
X63935831Y-81811546D01*
X63895789Y-81794961D01*
X63859758Y-81770885D01*
X63829115Y-81740242D01*
X63805039Y-81704211D01*
X63788454Y-81664169D01*
X63780000Y-81621670D01*
X63780000Y-81578330D01*
X63788454Y-81535831D01*
X63805039Y-81495789D01*
X63829115Y-81459758D01*
X63859758Y-81429115D01*
X63895789Y-81405039D01*
X63935831Y-81388454D01*
X63978330Y-81380000D01*
X64021670Y-81380000D01*
X64064169Y-81388454D01*
X64064169Y-81388454D01*
G37*
G36*
X62464169Y-81388454D02*
X62504211Y-81405039D01*
X62540242Y-81429115D01*
X62570885Y-81459758D01*
X62594961Y-81495789D01*
X62611546Y-81535831D01*
X62620000Y-81578330D01*
X62620000Y-81621670D01*
X62611546Y-81664169D01*
X62594961Y-81704211D01*
X62570885Y-81740242D01*
X62540242Y-81770885D01*
X62504211Y-81794961D01*
X62464169Y-81811546D01*
X62421670Y-81820000D01*
X62378330Y-81820000D01*
X62335831Y-81811546D01*
X62295789Y-81794961D01*
X62259758Y-81770885D01*
X62229115Y-81740242D01*
X62205039Y-81704211D01*
X62188454Y-81664169D01*
X62180000Y-81621670D01*
X62180000Y-81578330D01*
X62188454Y-81535831D01*
X62205039Y-81495789D01*
X62229115Y-81459758D01*
X62259758Y-81429115D01*
X62295789Y-81405039D01*
X62335831Y-81388454D01*
X62378330Y-81380000D01*
X62421670Y-81380000D01*
X62464169Y-81388454D01*
X62464169Y-81388454D01*
G37*
G36*
X69630000Y-81480000D02*
X68970000Y-81480000D01*
X68970000Y-79920000D01*
X69630000Y-79920000D01*
X69630000Y-81480000D01*
X69630000Y-81480000D01*
G37*
G36*
X68430000Y-81480000D02*
X67770000Y-81480000D01*
X67770000Y-79920000D01*
X68430000Y-79920000D01*
X68430000Y-81480000D01*
X68430000Y-81480000D01*
G37*
G36*
X67230000Y-81480000D02*
X66570000Y-81480000D01*
X66570000Y-79920000D01*
X67230000Y-79920000D01*
X67230000Y-81480000D01*
X67230000Y-81480000D01*
G37*
G36*
X66030000Y-81480000D02*
X65370000Y-81480000D01*
X65370000Y-79920000D01*
X66030000Y-79920000D01*
X66030000Y-81480000D01*
X66030000Y-81480000D01*
G37*
G36*
X54580000Y-81330000D02*
X53020000Y-81330000D01*
X53020000Y-80670000D01*
X54580000Y-80670000D01*
X54580000Y-81330000D01*
X54580000Y-81330000D01*
G37*
G36*
X57664169Y-80588454D02*
X57704211Y-80605039D01*
X57740242Y-80629115D01*
X57770885Y-80659758D01*
X57794961Y-80695789D01*
X57811546Y-80735831D01*
X57820000Y-80778330D01*
X57820000Y-80821670D01*
X57811546Y-80864169D01*
X57794961Y-80904211D01*
X57770885Y-80940242D01*
X57740242Y-80970885D01*
X57704211Y-80994961D01*
X57664169Y-81011546D01*
X57621670Y-81020000D01*
X57578330Y-81020000D01*
X57535831Y-81011546D01*
X57495789Y-80994961D01*
X57459758Y-80970885D01*
X57429115Y-80940242D01*
X57405039Y-80904211D01*
X57388454Y-80864169D01*
X57380000Y-80821670D01*
X57380000Y-80778330D01*
X57388454Y-80735831D01*
X57405039Y-80695789D01*
X57429115Y-80659758D01*
X57459758Y-80629115D01*
X57495789Y-80605039D01*
X57535831Y-80588454D01*
X57578330Y-80580000D01*
X57621670Y-80580000D01*
X57664169Y-80588454D01*
X57664169Y-80588454D01*
G37*
G36*
X61664169Y-80588454D02*
X61704211Y-80605039D01*
X61740242Y-80629115D01*
X61770885Y-80659758D01*
X61794961Y-80695789D01*
X61811546Y-80735831D01*
X61820000Y-80778330D01*
X61820000Y-80821670D01*
X61811546Y-80864169D01*
X61794961Y-80904211D01*
X61770885Y-80940242D01*
X61740242Y-80970885D01*
X61704211Y-80994961D01*
X61664169Y-81011546D01*
X61621670Y-81020000D01*
X61578330Y-81020000D01*
X61535831Y-81011546D01*
X61495789Y-80994961D01*
X61459758Y-80970885D01*
X61429115Y-80940242D01*
X61405039Y-80904211D01*
X61388454Y-80864169D01*
X61380000Y-80821670D01*
X61380000Y-80778330D01*
X61388454Y-80735831D01*
X61405039Y-80695789D01*
X61429115Y-80659758D01*
X61459758Y-80629115D01*
X61495789Y-80605039D01*
X61535831Y-80588454D01*
X61578330Y-80580000D01*
X61621670Y-80580000D01*
X61664169Y-80588454D01*
X61664169Y-80588454D01*
G37*
G36*
X58464169Y-80588454D02*
X58504211Y-80605039D01*
X58540242Y-80629115D01*
X58570885Y-80659758D01*
X58594961Y-80695789D01*
X58611546Y-80735831D01*
X58620000Y-80778330D01*
X58620000Y-80821670D01*
X58611546Y-80864169D01*
X58594961Y-80904211D01*
X58570885Y-80940242D01*
X58540242Y-80970885D01*
X58504211Y-80994961D01*
X58464169Y-81011546D01*
X58421670Y-81020000D01*
X58378330Y-81020000D01*
X58335831Y-81011546D01*
X58295789Y-80994961D01*
X58259758Y-80970885D01*
X58229115Y-80940242D01*
X58205039Y-80904211D01*
X58188454Y-80864169D01*
X58180000Y-80821670D01*
X58180000Y-80778330D01*
X58188454Y-80735831D01*
X58205039Y-80695789D01*
X58229115Y-80659758D01*
X58259758Y-80629115D01*
X58295789Y-80605039D01*
X58335831Y-80588454D01*
X58378330Y-80580000D01*
X58421670Y-80580000D01*
X58464169Y-80588454D01*
X58464169Y-80588454D01*
G37*
G36*
X60064169Y-80588454D02*
X60104211Y-80605039D01*
X60140242Y-80629115D01*
X60170885Y-80659758D01*
X60194961Y-80695789D01*
X60211546Y-80735831D01*
X60220000Y-80778330D01*
X60220000Y-80821670D01*
X60211546Y-80864169D01*
X60194961Y-80904211D01*
X60170885Y-80940242D01*
X60140242Y-80970885D01*
X60104211Y-80994961D01*
X60064169Y-81011546D01*
X60021670Y-81020000D01*
X59978330Y-81020000D01*
X59935831Y-81011546D01*
X59895789Y-80994961D01*
X59859758Y-80970885D01*
X59829115Y-80940242D01*
X59805039Y-80904211D01*
X59788454Y-80864169D01*
X59780000Y-80821670D01*
X59780000Y-80778330D01*
X59788454Y-80735831D01*
X59805039Y-80695789D01*
X59829115Y-80659758D01*
X59859758Y-80629115D01*
X59895789Y-80605039D01*
X59935831Y-80588454D01*
X59978330Y-80580000D01*
X60021670Y-80580000D01*
X60064169Y-80588454D01*
X60064169Y-80588454D01*
G37*
G36*
X56064169Y-80588454D02*
X56104211Y-80605039D01*
X56140242Y-80629115D01*
X56170885Y-80659758D01*
X56194961Y-80695789D01*
X56211546Y-80735831D01*
X56220000Y-80778330D01*
X56220000Y-80821670D01*
X56211546Y-80864169D01*
X56194961Y-80904211D01*
X56170885Y-80940242D01*
X56140242Y-80970885D01*
X56104211Y-80994961D01*
X56064169Y-81011546D01*
X56021670Y-81020000D01*
X55978330Y-81020000D01*
X55935831Y-81011546D01*
X55895789Y-80994961D01*
X55859758Y-80970885D01*
X55829115Y-80940242D01*
X55805039Y-80904211D01*
X55788454Y-80864169D01*
X55780000Y-80821670D01*
X55780000Y-80778330D01*
X55788454Y-80735831D01*
X55805039Y-80695789D01*
X55829115Y-80659758D01*
X55859758Y-80629115D01*
X55895789Y-80605039D01*
X55935831Y-80588454D01*
X55978330Y-80580000D01*
X56021670Y-80580000D01*
X56064169Y-80588454D01*
X56064169Y-80588454D01*
G37*
G36*
X62464169Y-80588454D02*
X62504211Y-80605039D01*
X62540242Y-80629115D01*
X62570885Y-80659758D01*
X62594961Y-80695789D01*
X62611546Y-80735831D01*
X62620000Y-80778330D01*
X62620000Y-80821670D01*
X62611546Y-80864169D01*
X62594961Y-80904211D01*
X62570885Y-80940242D01*
X62540242Y-80970885D01*
X62504211Y-80994961D01*
X62464169Y-81011546D01*
X62421670Y-81020000D01*
X62378330Y-81020000D01*
X62335831Y-81011546D01*
X62295789Y-80994961D01*
X62259758Y-80970885D01*
X62229115Y-80940242D01*
X62205039Y-80904211D01*
X62188454Y-80864169D01*
X62180000Y-80821670D01*
X62180000Y-80778330D01*
X62188454Y-80735831D01*
X62205039Y-80695789D01*
X62229115Y-80659758D01*
X62259758Y-80629115D01*
X62295789Y-80605039D01*
X62335831Y-80588454D01*
X62378330Y-80580000D01*
X62421670Y-80580000D01*
X62464169Y-80588454D01*
X62464169Y-80588454D01*
G37*
G36*
X59264169Y-80588454D02*
X59304211Y-80605039D01*
X59340242Y-80629115D01*
X59370885Y-80659758D01*
X59394961Y-80695789D01*
X59411546Y-80735831D01*
X59420000Y-80778330D01*
X59420000Y-80821670D01*
X59411546Y-80864169D01*
X59394961Y-80904211D01*
X59370885Y-80940242D01*
X59340242Y-80970885D01*
X59304211Y-80994961D01*
X59264169Y-81011546D01*
X59221670Y-81020000D01*
X59178330Y-81020000D01*
X59135831Y-81011546D01*
X59095789Y-80994961D01*
X59059758Y-80970885D01*
X59029115Y-80940242D01*
X59005039Y-80904211D01*
X58988454Y-80864169D01*
X58980000Y-80821670D01*
X58980000Y-80778330D01*
X58988454Y-80735831D01*
X59005039Y-80695789D01*
X59029115Y-80659758D01*
X59059758Y-80629115D01*
X59095789Y-80605039D01*
X59135831Y-80588454D01*
X59178330Y-80580000D01*
X59221670Y-80580000D01*
X59264169Y-80588454D01*
X59264169Y-80588454D01*
G37*
G36*
X60864169Y-80588454D02*
X60904211Y-80605039D01*
X60940242Y-80629115D01*
X60970885Y-80659758D01*
X60994961Y-80695789D01*
X61011546Y-80735831D01*
X61020000Y-80778330D01*
X61020000Y-80821670D01*
X61011546Y-80864169D01*
X60994961Y-80904211D01*
X60970885Y-80940242D01*
X60940242Y-80970885D01*
X60904211Y-80994961D01*
X60864169Y-81011546D01*
X60821670Y-81020000D01*
X60778330Y-81020000D01*
X60735831Y-81011546D01*
X60695789Y-80994961D01*
X60659758Y-80970885D01*
X60629115Y-80940242D01*
X60605039Y-80904211D01*
X60588454Y-80864169D01*
X60580000Y-80821670D01*
X60580000Y-80778330D01*
X60588454Y-80735831D01*
X60605039Y-80695789D01*
X60629115Y-80659758D01*
X60659758Y-80629115D01*
X60695789Y-80605039D01*
X60735831Y-80588454D01*
X60778330Y-80580000D01*
X60821670Y-80580000D01*
X60864169Y-80588454D01*
X60864169Y-80588454D01*
G37*
G36*
X56864169Y-80588454D02*
X56904211Y-80605039D01*
X56940242Y-80629115D01*
X56970885Y-80659758D01*
X56994961Y-80695789D01*
X57011546Y-80735831D01*
X57020000Y-80778330D01*
X57020000Y-80821670D01*
X57011546Y-80864169D01*
X56994961Y-80904211D01*
X56970885Y-80940242D01*
X56940242Y-80970885D01*
X56904211Y-80994961D01*
X56864169Y-81011546D01*
X56821670Y-81020000D01*
X56778330Y-81020000D01*
X56735831Y-81011546D01*
X56695789Y-80994961D01*
X56659758Y-80970885D01*
X56629115Y-80940242D01*
X56605039Y-80904211D01*
X56588454Y-80864169D01*
X56580000Y-80821670D01*
X56580000Y-80778330D01*
X56588454Y-80735831D01*
X56605039Y-80695789D01*
X56629115Y-80659758D01*
X56659758Y-80629115D01*
X56695789Y-80605039D01*
X56735831Y-80588454D01*
X56778330Y-80580000D01*
X56821670Y-80580000D01*
X56864169Y-80588454D01*
X56864169Y-80588454D01*
G37*
G36*
X63264169Y-80588454D02*
X63304211Y-80605039D01*
X63340242Y-80629115D01*
X63370885Y-80659758D01*
X63394961Y-80695789D01*
X63411546Y-80735831D01*
X63420000Y-80778330D01*
X63420000Y-80821670D01*
X63411546Y-80864169D01*
X63394961Y-80904211D01*
X63370885Y-80940242D01*
X63340242Y-80970885D01*
X63304211Y-80994961D01*
X63264169Y-81011546D01*
X63221670Y-81020000D01*
X63178330Y-81020000D01*
X63135831Y-81011546D01*
X63095789Y-80994961D01*
X63059758Y-80970885D01*
X63029115Y-80940242D01*
X63005039Y-80904211D01*
X62988454Y-80864169D01*
X62980000Y-80821670D01*
X62980000Y-80778330D01*
X62988454Y-80735831D01*
X63005039Y-80695789D01*
X63029115Y-80659758D01*
X63059758Y-80629115D01*
X63095789Y-80605039D01*
X63135831Y-80588454D01*
X63178330Y-80580000D01*
X63221670Y-80580000D01*
X63264169Y-80588454D01*
X63264169Y-80588454D01*
G37*
G36*
X64064169Y-80588454D02*
X64104211Y-80605039D01*
X64140242Y-80629115D01*
X64170885Y-80659758D01*
X64194961Y-80695789D01*
X64211546Y-80735831D01*
X64220000Y-80778330D01*
X64220000Y-80821670D01*
X64211546Y-80864169D01*
X64194961Y-80904211D01*
X64170885Y-80940242D01*
X64140242Y-80970885D01*
X64104211Y-80994961D01*
X64064169Y-81011546D01*
X64021670Y-81020000D01*
X63978330Y-81020000D01*
X63935831Y-81011546D01*
X63895789Y-80994961D01*
X63859758Y-80970885D01*
X63829115Y-80940242D01*
X63805039Y-80904211D01*
X63788454Y-80864169D01*
X63780000Y-80821670D01*
X63780000Y-80778330D01*
X63788454Y-80735831D01*
X63805039Y-80695789D01*
X63829115Y-80659758D01*
X63859758Y-80629115D01*
X63895789Y-80605039D01*
X63935831Y-80588454D01*
X63978330Y-80580000D01*
X64021670Y-80580000D01*
X64064169Y-80588454D01*
X64064169Y-80588454D01*
G37*
G36*
X60864169Y-79788454D02*
X60904211Y-79805039D01*
X60940242Y-79829115D01*
X60970885Y-79859758D01*
X60994961Y-79895789D01*
X61011546Y-79935831D01*
X61020000Y-79978330D01*
X61020000Y-80021670D01*
X61011546Y-80064169D01*
X60994961Y-80104211D01*
X60970885Y-80140242D01*
X60940242Y-80170885D01*
X60904211Y-80194961D01*
X60864169Y-80211546D01*
X60821670Y-80220000D01*
X60778330Y-80220000D01*
X60735831Y-80211546D01*
X60695789Y-80194961D01*
X60659758Y-80170885D01*
X60629115Y-80140242D01*
X60605039Y-80104211D01*
X60588454Y-80064169D01*
X60580000Y-80021670D01*
X60580000Y-79978330D01*
X60588454Y-79935831D01*
X60605039Y-79895789D01*
X60629115Y-79859758D01*
X60659758Y-79829115D01*
X60695789Y-79805039D01*
X60735831Y-79788454D01*
X60778330Y-79780000D01*
X60821670Y-79780000D01*
X60864169Y-79788454D01*
X60864169Y-79788454D01*
G37*
G36*
X59264169Y-79788454D02*
X59304211Y-79805039D01*
X59340242Y-79829115D01*
X59370885Y-79859758D01*
X59394961Y-79895789D01*
X59411546Y-79935831D01*
X59420000Y-79978330D01*
X59420000Y-80021670D01*
X59411546Y-80064169D01*
X59394961Y-80104211D01*
X59370885Y-80140242D01*
X59340242Y-80170885D01*
X59304211Y-80194961D01*
X59264169Y-80211546D01*
X59221670Y-80220000D01*
X59178330Y-80220000D01*
X59135831Y-80211546D01*
X59095789Y-80194961D01*
X59059758Y-80170885D01*
X59029115Y-80140242D01*
X59005039Y-80104211D01*
X58988454Y-80064169D01*
X58980000Y-80021670D01*
X58980000Y-79978330D01*
X58988454Y-79935831D01*
X59005039Y-79895789D01*
X59029115Y-79859758D01*
X59059758Y-79829115D01*
X59095789Y-79805039D01*
X59135831Y-79788454D01*
X59178330Y-79780000D01*
X59221670Y-79780000D01*
X59264169Y-79788454D01*
X59264169Y-79788454D01*
G37*
G36*
X56864169Y-79788454D02*
X56904211Y-79805039D01*
X56940242Y-79829115D01*
X56970885Y-79859758D01*
X56994961Y-79895789D01*
X57011546Y-79935831D01*
X57020000Y-79978330D01*
X57020000Y-80021670D01*
X57011546Y-80064169D01*
X56994961Y-80104211D01*
X56970885Y-80140242D01*
X56940242Y-80170885D01*
X56904211Y-80194961D01*
X56864169Y-80211546D01*
X56821670Y-80220000D01*
X56778330Y-80220000D01*
X56735831Y-80211546D01*
X56695789Y-80194961D01*
X56659758Y-80170885D01*
X56629115Y-80140242D01*
X56605039Y-80104211D01*
X56588454Y-80064169D01*
X56580000Y-80021670D01*
X56580000Y-79978330D01*
X56588454Y-79935831D01*
X56605039Y-79895789D01*
X56629115Y-79859758D01*
X56659758Y-79829115D01*
X56695789Y-79805039D01*
X56735831Y-79788454D01*
X56778330Y-79780000D01*
X56821670Y-79780000D01*
X56864169Y-79788454D01*
X56864169Y-79788454D01*
G37*
G36*
X58464169Y-79788454D02*
X58504211Y-79805039D01*
X58540242Y-79829115D01*
X58570885Y-79859758D01*
X58594961Y-79895789D01*
X58611546Y-79935831D01*
X58620000Y-79978330D01*
X58620000Y-80021670D01*
X58611546Y-80064169D01*
X58594961Y-80104211D01*
X58570885Y-80140242D01*
X58540242Y-80170885D01*
X58504211Y-80194961D01*
X58464169Y-80211546D01*
X58421670Y-80220000D01*
X58378330Y-80220000D01*
X58335831Y-80211546D01*
X58295789Y-80194961D01*
X58259758Y-80170885D01*
X58229115Y-80140242D01*
X58205039Y-80104211D01*
X58188454Y-80064169D01*
X58180000Y-80021670D01*
X58180000Y-79978330D01*
X58188454Y-79935831D01*
X58205039Y-79895789D01*
X58229115Y-79859758D01*
X58259758Y-79829115D01*
X58295789Y-79805039D01*
X58335831Y-79788454D01*
X58378330Y-79780000D01*
X58421670Y-79780000D01*
X58464169Y-79788454D01*
X58464169Y-79788454D01*
G37*
G36*
X60064169Y-79788454D02*
X60104211Y-79805039D01*
X60140242Y-79829115D01*
X60170885Y-79859758D01*
X60194961Y-79895789D01*
X60211546Y-79935831D01*
X60220000Y-79978330D01*
X60220000Y-80021670D01*
X60211546Y-80064169D01*
X60194961Y-80104211D01*
X60170885Y-80140242D01*
X60140242Y-80170885D01*
X60104211Y-80194961D01*
X60064169Y-80211546D01*
X60021670Y-80220000D01*
X59978330Y-80220000D01*
X59935831Y-80211546D01*
X59895789Y-80194961D01*
X59859758Y-80170885D01*
X59829115Y-80140242D01*
X59805039Y-80104211D01*
X59788454Y-80064169D01*
X59780000Y-80021670D01*
X59780000Y-79978330D01*
X59788454Y-79935831D01*
X59805039Y-79895789D01*
X59829115Y-79859758D01*
X59859758Y-79829115D01*
X59895789Y-79805039D01*
X59935831Y-79788454D01*
X59978330Y-79780000D01*
X60021670Y-79780000D01*
X60064169Y-79788454D01*
X60064169Y-79788454D01*
G37*
G36*
X63264169Y-79788454D02*
X63304211Y-79805039D01*
X63340242Y-79829115D01*
X63370885Y-79859758D01*
X63394961Y-79895789D01*
X63411546Y-79935831D01*
X63420000Y-79978330D01*
X63420000Y-80021670D01*
X63411546Y-80064169D01*
X63394961Y-80104211D01*
X63370885Y-80140242D01*
X63340242Y-80170885D01*
X63304211Y-80194961D01*
X63264169Y-80211546D01*
X63221670Y-80220000D01*
X63178330Y-80220000D01*
X63135831Y-80211546D01*
X63095789Y-80194961D01*
X63059758Y-80170885D01*
X63029115Y-80140242D01*
X63005039Y-80104211D01*
X62988454Y-80064169D01*
X62980000Y-80021670D01*
X62980000Y-79978330D01*
X62988454Y-79935831D01*
X63005039Y-79895789D01*
X63029115Y-79859758D01*
X63059758Y-79829115D01*
X63095789Y-79805039D01*
X63135831Y-79788454D01*
X63178330Y-79780000D01*
X63221670Y-79780000D01*
X63264169Y-79788454D01*
X63264169Y-79788454D01*
G37*
G36*
X57664169Y-79788454D02*
X57704211Y-79805039D01*
X57740242Y-79829115D01*
X57770885Y-79859758D01*
X57794961Y-79895789D01*
X57811546Y-79935831D01*
X57820000Y-79978330D01*
X57820000Y-80021670D01*
X57811546Y-80064169D01*
X57794961Y-80104211D01*
X57770885Y-80140242D01*
X57740242Y-80170885D01*
X57704211Y-80194961D01*
X57664169Y-80211546D01*
X57621670Y-80220000D01*
X57578330Y-80220000D01*
X57535831Y-80211546D01*
X57495789Y-80194961D01*
X57459758Y-80170885D01*
X57429115Y-80140242D01*
X57405039Y-80104211D01*
X57388454Y-80064169D01*
X57380000Y-80021670D01*
X57380000Y-79978330D01*
X57388454Y-79935831D01*
X57405039Y-79895789D01*
X57429115Y-79859758D01*
X57459758Y-79829115D01*
X57495789Y-79805039D01*
X57535831Y-79788454D01*
X57578330Y-79780000D01*
X57621670Y-79780000D01*
X57664169Y-79788454D01*
X57664169Y-79788454D01*
G37*
G36*
X61664169Y-79788454D02*
X61704211Y-79805039D01*
X61740242Y-79829115D01*
X61770885Y-79859758D01*
X61794961Y-79895789D01*
X61811546Y-79935831D01*
X61820000Y-79978330D01*
X61820000Y-80021670D01*
X61811546Y-80064169D01*
X61794961Y-80104211D01*
X61770885Y-80140242D01*
X61740242Y-80170885D01*
X61704211Y-80194961D01*
X61664169Y-80211546D01*
X61621670Y-80220000D01*
X61578330Y-80220000D01*
X61535831Y-80211546D01*
X61495789Y-80194961D01*
X61459758Y-80170885D01*
X61429115Y-80140242D01*
X61405039Y-80104211D01*
X61388454Y-80064169D01*
X61380000Y-80021670D01*
X61380000Y-79978330D01*
X61388454Y-79935831D01*
X61405039Y-79895789D01*
X61429115Y-79859758D01*
X61459758Y-79829115D01*
X61495789Y-79805039D01*
X61535831Y-79788454D01*
X61578330Y-79780000D01*
X61621670Y-79780000D01*
X61664169Y-79788454D01*
X61664169Y-79788454D01*
G37*
G36*
X64064169Y-79788454D02*
X64104211Y-79805039D01*
X64140242Y-79829115D01*
X64170885Y-79859758D01*
X64194961Y-79895789D01*
X64211546Y-79935831D01*
X64220000Y-79978330D01*
X64220000Y-80021670D01*
X64211546Y-80064169D01*
X64194961Y-80104211D01*
X64170885Y-80140242D01*
X64140242Y-80170885D01*
X64104211Y-80194961D01*
X64064169Y-80211546D01*
X64021670Y-80220000D01*
X63978330Y-80220000D01*
X63935831Y-80211546D01*
X63895789Y-80194961D01*
X63859758Y-80170885D01*
X63829115Y-80140242D01*
X63805039Y-80104211D01*
X63788454Y-80064169D01*
X63780000Y-80021670D01*
X63780000Y-79978330D01*
X63788454Y-79935831D01*
X63805039Y-79895789D01*
X63829115Y-79859758D01*
X63859758Y-79829115D01*
X63895789Y-79805039D01*
X63935831Y-79788454D01*
X63978330Y-79780000D01*
X64021670Y-79780000D01*
X64064169Y-79788454D01*
X64064169Y-79788454D01*
G37*
G36*
X56064169Y-79788454D02*
X56104211Y-79805039D01*
X56140242Y-79829115D01*
X56170885Y-79859758D01*
X56194961Y-79895789D01*
X56211546Y-79935831D01*
X56220000Y-79978330D01*
X56220000Y-80021670D01*
X56211546Y-80064169D01*
X56194961Y-80104211D01*
X56170885Y-80140242D01*
X56140242Y-80170885D01*
X56104211Y-80194961D01*
X56064169Y-80211546D01*
X56021670Y-80220000D01*
X55978330Y-80220000D01*
X55935831Y-80211546D01*
X55895789Y-80194961D01*
X55859758Y-80170885D01*
X55829115Y-80140242D01*
X55805039Y-80104211D01*
X55788454Y-80064169D01*
X55780000Y-80021670D01*
X55780000Y-79978330D01*
X55788454Y-79935831D01*
X55805039Y-79895789D01*
X55829115Y-79859758D01*
X55859758Y-79829115D01*
X55895789Y-79805039D01*
X55935831Y-79788454D01*
X55978330Y-79780000D01*
X56021670Y-79780000D01*
X56064169Y-79788454D01*
X56064169Y-79788454D01*
G37*
G36*
X62464169Y-79788454D02*
X62504211Y-79805039D01*
X62540242Y-79829115D01*
X62570885Y-79859758D01*
X62594961Y-79895789D01*
X62611546Y-79935831D01*
X62620000Y-79978330D01*
X62620000Y-80021670D01*
X62611546Y-80064169D01*
X62594961Y-80104211D01*
X62570885Y-80140242D01*
X62540242Y-80170885D01*
X62504211Y-80194961D01*
X62464169Y-80211546D01*
X62421670Y-80220000D01*
X62378330Y-80220000D01*
X62335831Y-80211546D01*
X62295789Y-80194961D01*
X62259758Y-80170885D01*
X62229115Y-80140242D01*
X62205039Y-80104211D01*
X62188454Y-80064169D01*
X62180000Y-80021670D01*
X62180000Y-79978330D01*
X62188454Y-79935831D01*
X62205039Y-79895789D01*
X62229115Y-79859758D01*
X62259758Y-79829115D01*
X62295789Y-79805039D01*
X62335831Y-79788454D01*
X62378330Y-79780000D01*
X62421670Y-79780000D01*
X62464169Y-79788454D01*
X62464169Y-79788454D01*
G37*
G36*
X54580000Y-80130000D02*
X53020000Y-80130000D01*
X53020000Y-79470000D01*
X54580000Y-79470000D01*
X54580000Y-80130000D01*
X54580000Y-80130000D01*
G37*
G36*
X66995000Y-79420000D02*
X66005000Y-79420000D01*
X66005000Y-78380000D01*
X66995000Y-78380000D01*
X66995000Y-79420000D01*
X66995000Y-79420000D01*
G37*
G36*
X68595000Y-79420000D02*
X67605000Y-79420000D01*
X67605000Y-78380000D01*
X68595000Y-78380000D01*
X68595000Y-79420000D01*
X68595000Y-79420000D01*
G37*
G36*
X54580000Y-78930000D02*
X53020000Y-78930000D01*
X53020000Y-78270000D01*
X54580000Y-78270000D01*
X54580000Y-78930000D01*
X54580000Y-78930000D01*
G37*
G36*
X62870000Y-78770000D02*
X62030000Y-78770000D01*
X62030000Y-77730000D01*
X62870000Y-77730000D01*
X62870000Y-78770000D01*
X62870000Y-78770000D01*
G37*
G36*
X64570000Y-78770000D02*
X63730000Y-78770000D01*
X63730000Y-77730000D01*
X64570000Y-77730000D01*
X64570000Y-78770000D01*
X64570000Y-78770000D01*
G37*
G36*
X60480000Y-78630000D02*
X58920000Y-78630000D01*
X58920000Y-77970000D01*
X60480000Y-77970000D01*
X60480000Y-78630000D01*
X60480000Y-78630000D01*
G37*
G36*
X56980000Y-78530000D02*
X55420000Y-78530000D01*
X55420000Y-77870000D01*
X56980000Y-77870000D01*
X56980000Y-78530000D01*
X56980000Y-78530000D01*
G37*
G36*
X68080000Y-77830000D02*
X66520000Y-77830000D01*
X66520000Y-77170000D01*
X68080000Y-77170000D01*
X68080000Y-77830000D01*
X68080000Y-77830000D01*
G37*
G36*
X59395000Y-77320000D02*
X58405000Y-77320000D01*
X58405000Y-76280000D01*
X59395000Y-76280000D01*
X59395000Y-77320000D01*
X59395000Y-77320000D01*
G37*
G36*
X60995000Y-77320000D02*
X60005000Y-77320000D01*
X60005000Y-76280000D01*
X60995000Y-76280000D01*
X60995000Y-77320000D01*
X60995000Y-77320000D01*
G37*
G36*
X64570000Y-77170000D02*
X63730000Y-77170000D01*
X63730000Y-76130000D01*
X64570000Y-76130000D01*
X64570000Y-77170000D01*
X64570000Y-77170000D01*
G37*
G36*
X62870000Y-77170000D02*
X62030000Y-77170000D01*
X62030000Y-76130000D01*
X62870000Y-76130000D01*
X62870000Y-77170000D01*
X62870000Y-77170000D01*
G37*
G36*
X68595000Y-76620000D02*
X67605000Y-76620000D01*
X67605000Y-75580000D01*
X68595000Y-75580000D01*
X68595000Y-76620000D01*
X68595000Y-76620000D01*
G37*
G36*
X66995000Y-76620000D02*
X66005000Y-76620000D01*
X66005000Y-75580000D01*
X66995000Y-75580000D01*
X66995000Y-76620000D01*
X66995000Y-76620000D01*
G37*
G36*
X60480000Y-75630000D02*
X58920000Y-75630000D01*
X58920000Y-74970000D01*
X60480000Y-74970000D01*
X60480000Y-75630000D01*
X60480000Y-75630000D01*
G37*
G36*
X64080000Y-75630000D02*
X62520000Y-75630000D01*
X62520000Y-74970000D01*
X64080000Y-74970000D01*
X64080000Y-75630000D01*
X64080000Y-75630000D01*
G37*
G36*
X68080000Y-75030000D02*
X66520000Y-75030000D01*
X66520000Y-74370000D01*
X68080000Y-74370000D01*
X68080000Y-75030000D01*
X68080000Y-75030000D01*
G37*
G36*
X51701679Y-73299983D02*
X51796311Y-73339181D01*
X51881483Y-73396091D01*
X51953909Y-73468517D01*
X52010819Y-73553689D01*
X52050017Y-73648321D01*
X52070000Y-73748783D01*
X52070000Y-73851217D01*
X52050017Y-73951679D01*
X52010819Y-74046311D01*
X51953909Y-74131483D01*
X51881483Y-74203909D01*
X51796311Y-74260819D01*
X51701679Y-74300017D01*
X51601217Y-74320000D01*
X51498783Y-74320000D01*
X51398321Y-74300017D01*
X51303689Y-74260819D01*
X51218517Y-74203909D01*
X51146091Y-74131483D01*
X51089181Y-74046311D01*
X51049983Y-73951679D01*
X51030000Y-73851217D01*
X51030000Y-73748783D01*
X51049983Y-73648321D01*
X51089181Y-73553689D01*
X51146091Y-73468517D01*
X51218517Y-73396091D01*
X51303689Y-73339181D01*
X51398321Y-73299983D01*
X51498783Y-73280000D01*
X51601217Y-73280000D01*
X51701679Y-73299983D01*
X51701679Y-73299983D01*
G37*
G36*
X66995000Y-73820000D02*
X66005000Y-73820000D01*
X66005000Y-72780000D01*
X66995000Y-72780000D01*
X66995000Y-73820000D01*
X66995000Y-73820000D01*
G37*
G36*
X68595000Y-73820000D02*
X67605000Y-73820000D01*
X67605000Y-72780000D01*
X68595000Y-72780000D01*
X68595000Y-73820000D01*
X68595000Y-73820000D01*
G37*
G36*
X51701679Y-71799983D02*
X51796311Y-71839181D01*
X51881483Y-71896091D01*
X51953909Y-71968517D01*
X52010819Y-72053689D01*
X52050017Y-72148321D01*
X52070000Y-72248783D01*
X52070000Y-72351217D01*
X52050017Y-72451679D01*
X52010819Y-72546311D01*
X51953909Y-72631483D01*
X51881483Y-72703909D01*
X51796311Y-72760819D01*
X51701679Y-72800017D01*
X51601217Y-72820000D01*
X51498783Y-72820000D01*
X51398321Y-72800017D01*
X51303689Y-72760819D01*
X51218517Y-72703909D01*
X51146091Y-72631483D01*
X51089181Y-72546311D01*
X51049983Y-72451679D01*
X51030000Y-72351217D01*
X51030000Y-72248783D01*
X51049983Y-72148321D01*
X51089181Y-72053689D01*
X51146091Y-71968517D01*
X51218517Y-71896091D01*
X51303689Y-71839181D01*
X51398321Y-71799983D01*
X51498783Y-71780000D01*
X51601217Y-71780000D01*
X51701679Y-71799983D01*
X51701679Y-71799983D01*
G37*
G36*
X63545000Y-72670000D02*
X62555000Y-72670000D01*
X62555000Y-71630000D01*
X63545000Y-71630000D01*
X63545000Y-72670000D01*
X63545000Y-72670000D01*
G37*
G36*
X65145000Y-72670000D02*
X64155000Y-72670000D01*
X64155000Y-71630000D01*
X65145000Y-71630000D01*
X65145000Y-72670000D01*
X65145000Y-72670000D01*
G37*
G36*
X62030000Y-72480000D02*
X60470000Y-72480000D01*
X60470000Y-71820000D01*
X62030000Y-71820000D01*
X62030000Y-72480000D01*
X62030000Y-72480000D01*
G37*
G36*
X59930000Y-72480000D02*
X58370000Y-72480000D01*
X58370000Y-71820000D01*
X59930000Y-71820000D01*
X59930000Y-72480000D01*
X59930000Y-72480000D01*
G37*
G36*
X69565000Y-71820000D02*
X65635000Y-71820000D01*
X65635000Y-70330000D01*
X69565000Y-70330000D01*
X69565000Y-71820000D01*
X69565000Y-71820000D01*
G37*
G36*
X51701679Y-70299983D02*
X51796311Y-70339181D01*
X51881483Y-70396091D01*
X51953909Y-70468517D01*
X52010819Y-70553689D01*
X52050017Y-70648321D01*
X52070000Y-70748783D01*
X52070000Y-70851217D01*
X52050017Y-70951679D01*
X52010819Y-71046311D01*
X51953909Y-71131483D01*
X51881483Y-71203909D01*
X51796311Y-71260819D01*
X51701679Y-71300017D01*
X51601217Y-71320000D01*
X51498783Y-71320000D01*
X51398321Y-71300017D01*
X51303689Y-71260819D01*
X51218517Y-71203909D01*
X51146091Y-71131483D01*
X51089181Y-71046311D01*
X51049983Y-70951679D01*
X51030000Y-70851217D01*
X51030000Y-70748783D01*
X51049983Y-70648321D01*
X51089181Y-70553689D01*
X51146091Y-70468517D01*
X51218517Y-70396091D01*
X51303689Y-70339181D01*
X51398321Y-70299983D01*
X51498783Y-70280000D01*
X51601217Y-70280000D01*
X51701679Y-70299983D01*
X51701679Y-70299983D01*
G37*
G36*
X65095000Y-71020000D02*
X64205000Y-71020000D01*
X64205000Y-69180000D01*
X65095000Y-69180000D01*
X65095000Y-71020000D01*
X65095000Y-71020000D01*
G37*
G36*
X63195000Y-71020000D02*
X62305000Y-71020000D01*
X62305000Y-69180000D01*
X63195000Y-69180000D01*
X63195000Y-71020000D01*
X63195000Y-71020000D01*
G37*
G36*
X59370000Y-70470000D02*
X58330000Y-70470000D01*
X58330000Y-69830000D01*
X59370000Y-69830000D01*
X59370000Y-70470000D01*
X59370000Y-70470000D01*
G37*
G36*
X61670000Y-69520000D02*
X60630000Y-69520000D01*
X60630000Y-68880000D01*
X61670000Y-68880000D01*
X61670000Y-69520000D01*
X61670000Y-69520000D01*
G37*
G36*
X52520000Y-69470000D02*
X50580000Y-69470000D01*
X50580000Y-67530000D01*
X52520000Y-67530000D01*
X52520000Y-69470000D01*
X52520000Y-69470000D01*
G37*
G36*
X69565000Y-68870000D02*
X65635000Y-68870000D01*
X65635000Y-67380000D01*
X69565000Y-67380000D01*
X69565000Y-68870000D01*
X69565000Y-68870000D01*
G37*
G36*
X59370000Y-68570000D02*
X58330000Y-68570000D01*
X58330000Y-67930000D01*
X59370000Y-67930000D01*
X59370000Y-68570000D01*
X59370000Y-68570000D01*
G37*
G36*
X64995000Y-68520000D02*
X64005000Y-68520000D01*
X64005000Y-67480000D01*
X64995000Y-67480000D01*
X64995000Y-68520000D01*
X64995000Y-68520000D01*
G37*
G36*
X63395000Y-68520000D02*
X62405000Y-68520000D01*
X62405000Y-67480000D01*
X63395000Y-67480000D01*
X63395000Y-68520000D01*
X63395000Y-68520000D01*
G37*
G36*
X54570000Y-67895000D02*
X54330000Y-67895000D01*
X54330000Y-67155000D01*
X54570000Y-67155000D01*
X54570000Y-67895000D01*
X54570000Y-67895000D01*
G37*
G36*
X55570000Y-67895000D02*
X55330000Y-67895000D01*
X55330000Y-67155000D01*
X55570000Y-67155000D01*
X55570000Y-67895000D01*
X55570000Y-67895000D01*
G37*
G36*
X56070000Y-67895000D02*
X55830000Y-67895000D01*
X55830000Y-67155000D01*
X56070000Y-67155000D01*
X56070000Y-67895000D01*
X56070000Y-67895000D01*
G37*
G36*
X55070000Y-67895000D02*
X54830000Y-67895000D01*
X54830000Y-67155000D01*
X55070000Y-67155000D01*
X55070000Y-67895000D01*
X55070000Y-67895000D01*
G37*
G36*
X56570000Y-67895000D02*
X56330000Y-67895000D01*
X56330000Y-67155000D01*
X56570000Y-67155000D01*
X56570000Y-67895000D01*
X56570000Y-67895000D01*
G37*
G36*
X63395000Y-67020000D02*
X62405000Y-67020000D01*
X62405000Y-65980000D01*
X63395000Y-65980000D01*
X63395000Y-67020000D01*
X63395000Y-67020000D01*
G37*
G36*
X64995000Y-67020000D02*
X64005000Y-67020000D01*
X64005000Y-65980000D01*
X64995000Y-65980000D01*
X64995000Y-67020000D01*
X64995000Y-67020000D01*
G37*
G36*
X56570000Y-66845000D02*
X56330000Y-66845000D01*
X56330000Y-66105000D01*
X56570000Y-66105000D01*
X56570000Y-66845000D01*
X56570000Y-66845000D01*
G37*
G36*
X55570000Y-66845000D02*
X55330000Y-66845000D01*
X55330000Y-66105000D01*
X55570000Y-66105000D01*
X55570000Y-66845000D01*
X55570000Y-66845000D01*
G37*
G36*
X56070000Y-66845000D02*
X55830000Y-66845000D01*
X55830000Y-66105000D01*
X56070000Y-66105000D01*
X56070000Y-66845000D01*
X56070000Y-66845000D01*
G37*
G36*
X55070000Y-66845000D02*
X54830000Y-66845000D01*
X54830000Y-66105000D01*
X55070000Y-66105000D01*
X55070000Y-66845000D01*
X55070000Y-66845000D01*
G37*
G36*
X54570000Y-66845000D02*
X54330000Y-66845000D01*
X54330000Y-66105000D01*
X54570000Y-66105000D01*
X54570000Y-66845000D01*
X54570000Y-66845000D01*
G37*
G36*
X61780000Y-66830000D02*
X60220000Y-66830000D01*
X60220000Y-66170000D01*
X61780000Y-66170000D01*
X61780000Y-66830000D01*
X61780000Y-66830000D01*
G37*
G36*
X67980000Y-66730000D02*
X66420000Y-66730000D01*
X66420000Y-66070000D01*
X67980000Y-66070000D01*
X67980000Y-66730000D01*
X67980000Y-66730000D01*
G37*
G36*
X53630000Y-66680000D02*
X52070000Y-66680000D01*
X52070000Y-66020000D01*
X53630000Y-66020000D01*
X53630000Y-66680000D01*
X53630000Y-66680000D01*
G37*
G36*
X53352015Y-63451668D02*
X53483049Y-63505944D01*
X53600975Y-63584740D01*
X53701260Y-63685025D01*
X53780056Y-63802951D01*
X53834332Y-63933985D01*
X53862000Y-64073085D01*
X53862000Y-64214915D01*
X53834332Y-64354015D01*
X53780056Y-64485049D01*
X53701260Y-64602975D01*
X53600975Y-64703260D01*
X53483049Y-64782056D01*
X53352015Y-64836332D01*
X53212915Y-64864000D01*
X53071085Y-64864000D01*
X52931985Y-64836332D01*
X52800951Y-64782056D01*
X52683025Y-64703260D01*
X52582740Y-64602975D01*
X52503944Y-64485049D01*
X52449668Y-64354015D01*
X52422000Y-64214915D01*
X52422000Y-64073085D01*
X52449668Y-63933985D01*
X52503944Y-63802951D01*
X52582740Y-63685025D01*
X52683025Y-63584740D01*
X52800951Y-63505944D01*
X52931985Y-63451668D01*
X53071085Y-63424000D01*
X53212915Y-63424000D01*
X53352015Y-63451668D01*
X53352015Y-63451668D01*
G37*
G36*
X67068015Y-63451668D02*
X67199049Y-63505944D01*
X67316975Y-63584740D01*
X67417260Y-63685025D01*
X67496056Y-63802951D01*
X67550332Y-63933985D01*
X67578000Y-64073085D01*
X67578000Y-64214915D01*
X67550332Y-64354015D01*
X67496056Y-64485049D01*
X67417260Y-64602975D01*
X67316975Y-64703260D01*
X67199049Y-64782056D01*
X67068015Y-64836332D01*
X66928915Y-64864000D01*
X66787085Y-64864000D01*
X66647985Y-64836332D01*
X66516951Y-64782056D01*
X66399025Y-64703260D01*
X66298740Y-64602975D01*
X66219944Y-64485049D01*
X66165668Y-64354015D01*
X66138000Y-64214915D01*
X66138000Y-64073085D01*
X66165668Y-63933985D01*
X66219944Y-63802951D01*
X66298740Y-63685025D01*
X66399025Y-63584740D01*
X66516951Y-63505944D01*
X66647985Y-63451668D01*
X66787085Y-63424000D01*
X66928915Y-63424000D01*
X67068015Y-63451668D01*
X67068015Y-63451668D01*
G37*
G36*
X55638015Y-63451668D02*
X55769049Y-63505944D01*
X55886975Y-63584740D01*
X55987260Y-63685025D01*
X56066056Y-63802951D01*
X56120332Y-63933985D01*
X56148000Y-64073085D01*
X56148000Y-64214915D01*
X56120332Y-64354015D01*
X56066056Y-64485049D01*
X55987260Y-64602975D01*
X55886975Y-64703260D01*
X55769049Y-64782056D01*
X55638015Y-64836332D01*
X55498915Y-64864000D01*
X55357085Y-64864000D01*
X55217985Y-64836332D01*
X55086951Y-64782056D01*
X54969025Y-64703260D01*
X54868740Y-64602975D01*
X54789944Y-64485049D01*
X54735668Y-64354015D01*
X54708000Y-64214915D01*
X54708000Y-64073085D01*
X54735668Y-63933985D01*
X54789944Y-63802951D01*
X54868740Y-63685025D01*
X54969025Y-63584740D01*
X55086951Y-63505944D01*
X55217985Y-63451668D01*
X55357085Y-63424000D01*
X55498915Y-63424000D01*
X55638015Y-63451668D01*
X55638015Y-63451668D01*
G37*
G36*
X64782015Y-63451668D02*
X64913049Y-63505944D01*
X65030975Y-63584740D01*
X65131260Y-63685025D01*
X65210056Y-63802951D01*
X65264332Y-63933985D01*
X65292000Y-64073085D01*
X65292000Y-64214915D01*
X65264332Y-64354015D01*
X65210056Y-64485049D01*
X65131260Y-64602975D01*
X65030975Y-64703260D01*
X64913049Y-64782056D01*
X64782015Y-64836332D01*
X64642915Y-64864000D01*
X64501085Y-64864000D01*
X64361985Y-64836332D01*
X64230951Y-64782056D01*
X64113025Y-64703260D01*
X64012740Y-64602975D01*
X63933944Y-64485049D01*
X63879668Y-64354015D01*
X63852000Y-64214915D01*
X63852000Y-64073085D01*
X63879668Y-63933985D01*
X63933944Y-63802951D01*
X64012740Y-63685025D01*
X64113025Y-63584740D01*
X64230951Y-63505944D01*
X64361985Y-63451668D01*
X64501085Y-63424000D01*
X64642915Y-63424000D01*
X64782015Y-63451668D01*
X64782015Y-63451668D01*
G37*
G36*
X57670015Y-58625668D02*
X57801049Y-58679944D01*
X57918975Y-58758740D01*
X58019260Y-58859025D01*
X58098056Y-58976951D01*
X58152332Y-59107985D01*
X58180000Y-59247085D01*
X58180000Y-59388915D01*
X58152332Y-59528015D01*
X58098056Y-59659049D01*
X58019260Y-59776975D01*
X57918975Y-59877260D01*
X57801049Y-59956056D01*
X57670015Y-60010332D01*
X57530915Y-60038000D01*
X57389085Y-60038000D01*
X57249985Y-60010332D01*
X57118951Y-59956056D01*
X57001025Y-59877260D01*
X56900740Y-59776975D01*
X56821944Y-59659049D01*
X56767668Y-59528015D01*
X56740000Y-59388915D01*
X56740000Y-59247085D01*
X56767668Y-59107985D01*
X56821944Y-58976951D01*
X56900740Y-58859025D01*
X57001025Y-58758740D01*
X57118951Y-58679944D01*
X57249985Y-58625668D01*
X57389085Y-58598000D01*
X57530915Y-58598000D01*
X57670015Y-58625668D01*
X57670015Y-58625668D01*
G37*
G36*
X59702015Y-58625668D02*
X59833049Y-58679944D01*
X59950975Y-58758740D01*
X60051260Y-58859025D01*
X60130056Y-58976951D01*
X60184332Y-59107985D01*
X60212000Y-59247085D01*
X60212000Y-59388915D01*
X60184332Y-59528015D01*
X60130056Y-59659049D01*
X60051260Y-59776975D01*
X59950975Y-59877260D01*
X59833049Y-59956056D01*
X59702015Y-60010332D01*
X59562915Y-60038000D01*
X59421085Y-60038000D01*
X59281985Y-60010332D01*
X59150951Y-59956056D01*
X59033025Y-59877260D01*
X58932740Y-59776975D01*
X58853944Y-59659049D01*
X58799668Y-59528015D01*
X58772000Y-59388915D01*
X58772000Y-59247085D01*
X58799668Y-59107985D01*
X58853944Y-58976951D01*
X58932740Y-58859025D01*
X59033025Y-58758740D01*
X59150951Y-58679944D01*
X59281985Y-58625668D01*
X59421085Y-58598000D01*
X59562915Y-58598000D01*
X59702015Y-58625668D01*
X59702015Y-58625668D01*
G37*
G36*
X63766015Y-58625668D02*
X63897049Y-58679944D01*
X64014975Y-58758740D01*
X64115260Y-58859025D01*
X64194056Y-58976951D01*
X64248332Y-59107985D01*
X64276000Y-59247085D01*
X64276000Y-59388915D01*
X64248332Y-59528015D01*
X64194056Y-59659049D01*
X64115260Y-59776975D01*
X64014975Y-59877260D01*
X63897049Y-59956056D01*
X63766015Y-60010332D01*
X63626915Y-60038000D01*
X63485085Y-60038000D01*
X63345985Y-60010332D01*
X63214951Y-59956056D01*
X63097025Y-59877260D01*
X62996740Y-59776975D01*
X62917944Y-59659049D01*
X62863668Y-59528015D01*
X62836000Y-59388915D01*
X62836000Y-59247085D01*
X62863668Y-59107985D01*
X62917944Y-58976951D01*
X62996740Y-58859025D01*
X63097025Y-58758740D01*
X63214951Y-58679944D01*
X63345985Y-58625668D01*
X63485085Y-58598000D01*
X63626915Y-58598000D01*
X63766015Y-58625668D01*
X63766015Y-58625668D01*
G37*
G36*
X61734015Y-58625668D02*
X61865049Y-58679944D01*
X61982975Y-58758740D01*
X62083260Y-58859025D01*
X62162056Y-58976951D01*
X62216332Y-59107985D01*
X62244000Y-59247085D01*
X62244000Y-59388915D01*
X62216332Y-59528015D01*
X62162056Y-59659049D01*
X62083260Y-59776975D01*
X61982975Y-59877260D01*
X61865049Y-59956056D01*
X61734015Y-60010332D01*
X61594915Y-60038000D01*
X61453085Y-60038000D01*
X61313985Y-60010332D01*
X61182951Y-59956056D01*
X61065025Y-59877260D01*
X60964740Y-59776975D01*
X60885944Y-59659049D01*
X60831668Y-59528015D01*
X60804000Y-59388915D01*
X60804000Y-59247085D01*
X60831668Y-59107985D01*
X60885944Y-58976951D01*
X60964740Y-58859025D01*
X61065025Y-58758740D01*
X61182951Y-58679944D01*
X61313985Y-58625668D01*
X61453085Y-58598000D01*
X61594915Y-58598000D01*
X61734015Y-58625668D01*
X61734015Y-58625668D01*
G37*
G36*
X52248277Y-57188573D02*
X52483045Y-57285817D01*
X52694330Y-57426993D01*
X52874007Y-57606670D01*
X53015183Y-57817955D01*
X53112427Y-58052723D01*
X53162000Y-58301945D01*
X53162000Y-58556055D01*
X53112427Y-58805277D01*
X53015183Y-59040045D01*
X52874007Y-59251330D01*
X52694330Y-59431007D01*
X52483045Y-59572183D01*
X52248277Y-59669427D01*
X51999055Y-59719000D01*
X51744945Y-59719000D01*
X51495723Y-59669427D01*
X51260955Y-59572183D01*
X51049670Y-59431007D01*
X50869993Y-59251330D01*
X50728817Y-59040045D01*
X50631573Y-58805277D01*
X50582000Y-58556055D01*
X50582000Y-58301945D01*
X50631573Y-58052723D01*
X50728817Y-57817955D01*
X50869993Y-57606670D01*
X51049670Y-57426993D01*
X51260955Y-57285817D01*
X51495723Y-57188573D01*
X51744945Y-57139000D01*
X51999055Y-57139000D01*
X52248277Y-57188573D01*
X52248277Y-57188573D01*
G37*
G36*
X68504277Y-57188573D02*
X68739045Y-57285817D01*
X68950330Y-57426993D01*
X69130007Y-57606670D01*
X69271183Y-57817955D01*
X69368427Y-58052723D01*
X69418000Y-58301945D01*
X69418000Y-58556055D01*
X69368427Y-58805277D01*
X69271183Y-59040045D01*
X69130007Y-59251330D01*
X68950330Y-59431007D01*
X68739045Y-59572183D01*
X68504277Y-59669427D01*
X68255055Y-59719000D01*
X68000945Y-59719000D01*
X67751723Y-59669427D01*
X67516955Y-59572183D01*
X67305670Y-59431007D01*
X67125993Y-59251330D01*
X66984817Y-59040045D01*
X66887573Y-58805277D01*
X66838000Y-58556055D01*
X66838000Y-58301945D01*
X66887573Y-58052723D01*
X66984817Y-57817955D01*
X67125993Y-57606670D01*
X67305670Y-57426993D01*
X67516955Y-57285817D01*
X67751723Y-57188573D01*
X68000945Y-57139000D01*
X68255055Y-57139000D01*
X68504277Y-57188573D01*
X68504277Y-57188573D01*
G37*
G36*
X58686015Y-56847668D02*
X58817049Y-56901944D01*
X58934975Y-56980740D01*
X59035260Y-57081025D01*
X59114056Y-57198951D01*
X59168332Y-57329985D01*
X59196000Y-57469085D01*
X59196000Y-57610915D01*
X59168332Y-57750015D01*
X59114056Y-57881049D01*
X59035260Y-57998975D01*
X58934975Y-58099260D01*
X58817049Y-58178056D01*
X58686015Y-58232332D01*
X58546915Y-58260000D01*
X58405085Y-58260000D01*
X58265985Y-58232332D01*
X58134951Y-58178056D01*
X58017025Y-58099260D01*
X57916740Y-57998975D01*
X57837944Y-57881049D01*
X57783668Y-57750015D01*
X57756000Y-57610915D01*
X57756000Y-57469085D01*
X57783668Y-57329985D01*
X57837944Y-57198951D01*
X57916740Y-57081025D01*
X58017025Y-56980740D01*
X58134951Y-56901944D01*
X58265985Y-56847668D01*
X58405085Y-56820000D01*
X58546915Y-56820000D01*
X58686015Y-56847668D01*
X58686015Y-56847668D01*
G37*
G36*
X62750015Y-56847668D02*
X62881049Y-56901944D01*
X62998975Y-56980740D01*
X63099260Y-57081025D01*
X63178056Y-57198951D01*
X63232332Y-57329985D01*
X63260000Y-57469085D01*
X63260000Y-57610915D01*
X63232332Y-57750015D01*
X63178056Y-57881049D01*
X63099260Y-57998975D01*
X62998975Y-58099260D01*
X62881049Y-58178056D01*
X62750015Y-58232332D01*
X62610915Y-58260000D01*
X62469085Y-58260000D01*
X62329985Y-58232332D01*
X62198951Y-58178056D01*
X62081025Y-58099260D01*
X61980740Y-57998975D01*
X61901944Y-57881049D01*
X61847668Y-57750015D01*
X61820000Y-57610915D01*
X61820000Y-57469085D01*
X61847668Y-57329985D01*
X61901944Y-57198951D01*
X61980740Y-57081025D01*
X62081025Y-56980740D01*
X62198951Y-56901944D01*
X62329985Y-56847668D01*
X62469085Y-56820000D01*
X62610915Y-56820000D01*
X62750015Y-56847668D01*
X62750015Y-56847668D01*
G37*
G36*
X60718015Y-56847668D02*
X60849049Y-56901944D01*
X60966975Y-56980740D01*
X61067260Y-57081025D01*
X61146056Y-57198951D01*
X61200332Y-57329985D01*
X61228000Y-57469085D01*
X61228000Y-57610915D01*
X61200332Y-57750015D01*
X61146056Y-57881049D01*
X61067260Y-57998975D01*
X60966975Y-58099260D01*
X60849049Y-58178056D01*
X60718015Y-58232332D01*
X60578915Y-58260000D01*
X60437085Y-58260000D01*
X60297985Y-58232332D01*
X60166951Y-58178056D01*
X60049025Y-58099260D01*
X59948740Y-57998975D01*
X59869944Y-57881049D01*
X59815668Y-57750015D01*
X59788000Y-57610915D01*
X59788000Y-57469085D01*
X59815668Y-57329985D01*
X59869944Y-57198951D01*
X59948740Y-57081025D01*
X60049025Y-56980740D01*
X60166951Y-56901944D01*
X60297985Y-56847668D01*
X60437085Y-56820000D01*
X60578915Y-56820000D01*
X60718015Y-56847668D01*
X60718015Y-56847668D01*
G37*
G36*
X56654015Y-56847668D02*
X56785049Y-56901944D01*
X56902975Y-56980740D01*
X57003260Y-57081025D01*
X57082056Y-57198951D01*
X57136332Y-57329985D01*
X57164000Y-57469085D01*
X57164000Y-57610915D01*
X57136332Y-57750015D01*
X57082056Y-57881049D01*
X57003260Y-57998975D01*
X56902975Y-58099260D01*
X56785049Y-58178056D01*
X56654015Y-58232332D01*
X56514915Y-58260000D01*
X56373085Y-58260000D01*
X56233985Y-58232332D01*
X56102951Y-58178056D01*
X55985025Y-58099260D01*
X55884740Y-57998975D01*
X55805944Y-57881049D01*
X55751668Y-57750015D01*
X55724000Y-57610915D01*
X55724000Y-57469085D01*
X55751668Y-57329985D01*
X55805944Y-57198951D01*
X55884740Y-57081025D01*
X55985025Y-56980740D01*
X56102951Y-56901944D01*
X56233985Y-56847668D01*
X56373085Y-56820000D01*
X56514915Y-56820000D01*
X56654015Y-56847668D01*
X56654015Y-56847668D01*
G37*
G36*
X66830001Y-53417639D02*
X66830003Y-53417640D01*
X66830004Y-53417640D01*
X66940631Y-53463463D01*
X67129485Y-53541689D01*
X67399012Y-53721781D01*
X67628219Y-53950988D01*
X67808311Y-54220515D01*
X67932361Y-54519999D01*
X67995600Y-54837921D01*
X67995600Y-55162079D01*
X67932361Y-55480001D01*
X67808311Y-55779485D01*
X67628219Y-56049012D01*
X67399012Y-56278219D01*
X67129485Y-56458311D01*
X66940631Y-56536537D01*
X66830004Y-56582360D01*
X66830003Y-56582360D01*
X66830001Y-56582361D01*
X66512079Y-56645600D01*
X66187921Y-56645600D01*
X65869999Y-56582361D01*
X65869997Y-56582360D01*
X65869996Y-56582360D01*
X65759369Y-56536537D01*
X65570515Y-56458311D01*
X65300988Y-56278219D01*
X65071781Y-56049012D01*
X64891689Y-55779485D01*
X64767639Y-55480001D01*
X64704400Y-55162079D01*
X64704400Y-54837921D01*
X64767639Y-54519999D01*
X64891689Y-54220515D01*
X65071781Y-53950988D01*
X65300988Y-53721781D01*
X65570515Y-53541689D01*
X65759369Y-53463463D01*
X65869996Y-53417640D01*
X65869997Y-53417640D01*
X65869999Y-53417639D01*
X66187921Y-53354400D01*
X66512079Y-53354400D01*
X66830001Y-53417639D01*
X66830001Y-53417639D01*
G37*
G36*
X54130001Y-53417639D02*
X54130003Y-53417640D01*
X54130004Y-53417640D01*
X54240631Y-53463463D01*
X54429485Y-53541689D01*
X54699012Y-53721781D01*
X54928219Y-53950988D01*
X55108311Y-54220515D01*
X55232361Y-54519999D01*
X55295600Y-54837921D01*
X55295600Y-55162079D01*
X55232361Y-55480001D01*
X55108311Y-55779485D01*
X54928219Y-56049012D01*
X54699012Y-56278219D01*
X54429485Y-56458311D01*
X54240631Y-56536537D01*
X54130004Y-56582360D01*
X54130003Y-56582360D01*
X54130001Y-56582361D01*
X53812079Y-56645600D01*
X53487921Y-56645600D01*
X53169999Y-56582361D01*
X53169997Y-56582360D01*
X53169996Y-56582360D01*
X53059369Y-56536537D01*
X52870515Y-56458311D01*
X52600988Y-56278219D01*
X52371781Y-56049012D01*
X52191689Y-55779485D01*
X52067639Y-55480001D01*
X52004400Y-55162079D01*
X52004400Y-54837921D01*
X52067639Y-54519999D01*
X52191689Y-54220515D01*
X52371781Y-53950988D01*
X52600988Y-53721781D01*
X52870515Y-53541689D01*
X53059369Y-53463463D01*
X53169996Y-53417640D01*
X53169997Y-53417640D01*
X53169999Y-53417639D01*
X53487921Y-53354400D01*
X53812079Y-53354400D01*
X54130001Y-53417639D01*
X54130001Y-53417639D01*
G37*
M02*
