G04 #@! TF.GenerationSoftware,KiCad,Pcbnew,6.0.0-rc1-unknown-106eaaa~84~ubuntu18.04.1*
G04 #@! TF.CreationDate,2018-11-27T01:39:04+00:00*
G04 #@! TF.ProjectId,proto-sensor,70726f74-6f2d-4736-956e-736f722e6b69,1*
G04 #@! TF.SameCoordinates,Original*
G04 #@! TF.FileFunction,Copper,L1,Top*
G04 #@! TF.FilePolarity,Positive*
%FSLAX46Y46*%
G04 Gerber Fmt 4.6, Leading zero omitted, Abs format (unit mm)*
G04 Created by KiCad (PCBNEW 6.0.0-rc1-unknown-106eaaa~84~ubuntu18.04.1) date Tue 27 Nov 2018 01:39:04 GMT*
%MOMM*%
%LPD*%
G01*
G04 APERTURE LIST*
G04 #@! TA.AperFunction,SMDPad,CuDef*
%ADD10R,0.950000X1.000000*%
G04 #@! TD*
G04 #@! TA.AperFunction,ComponentPad*
%ADD11C,1.400000*%
G04 #@! TD*
G04 #@! TA.AperFunction,ComponentPad*
%ADD12C,2.540000*%
G04 #@! TD*
G04 #@! TA.AperFunction,SMDPad,CuDef*
%ADD13R,0.800000X1.000000*%
G04 #@! TD*
G04 #@! TA.AperFunction,SMDPad,CuDef*
%ADD14R,0.200000X0.700000*%
G04 #@! TD*
G04 #@! TA.AperFunction,SMDPad,CuDef*
%ADD15R,0.620000X0.620000*%
G04 #@! TD*
G04 #@! TA.AperFunction,BGAPad,CuDef*
%ADD16C,1.000000*%
G04 #@! TD*
G04 #@! TA.AperFunction,ComponentPad*
%ADD17R,1.900000X1.900000*%
G04 #@! TD*
G04 #@! TA.AperFunction,BGAPad,CuDef*
%ADD18C,0.787000*%
G04 #@! TD*
G04 #@! TA.AperFunction,SMDPad,CuDef*
%ADD19R,1.400000X1.000000*%
G04 #@! TD*
G04 #@! TA.AperFunction,SMDPad,CuDef*
%ADD20R,3.890000X1.450000*%
G04 #@! TD*
G04 #@! TA.AperFunction,ComponentPad*
%ADD21C,1.016000*%
G04 #@! TD*
G04 #@! TA.AperFunction,SMDPad,CuDef*
%ADD22R,0.600000X1.100000*%
G04 #@! TD*
G04 #@! TA.AperFunction,SMDPad,CuDef*
%ADD23R,1.000000X0.600000*%
G04 #@! TD*
G04 #@! TA.AperFunction,SMDPad,CuDef*
%ADD24R,0.850000X0.300000*%
G04 #@! TD*
G04 #@! TA.AperFunction,SMDPad,CuDef*
%ADD25R,0.300000X0.250000*%
G04 #@! TD*
G04 #@! TA.AperFunction,SMDPad,CuDef*
%ADD26R,1.000000X0.950000*%
G04 #@! TD*
G04 #@! TA.AperFunction,ComponentPad*
%ADD27C,3.200000*%
G04 #@! TD*
G04 #@! TA.AperFunction,ComponentPad*
%ADD28C,2.000000*%
G04 #@! TD*
G04 #@! TA.AperFunction,BGAPad,CuDef*
%ADD29C,0.400000*%
G04 #@! TD*
G04 #@! TA.AperFunction,ViaPad*
%ADD30C,0.600000*%
G04 #@! TD*
G04 #@! TA.AperFunction,ViaPad*
%ADD31C,0.457200*%
G04 #@! TD*
G04 #@! TA.AperFunction,ViaPad*
%ADD32C,0.800000*%
G04 #@! TD*
G04 #@! TA.AperFunction,Conductor*
%ADD33C,0.200000*%
G04 #@! TD*
G04 #@! TA.AperFunction,Conductor*
%ADD34C,0.400000*%
G04 #@! TD*
G04 #@! TA.AperFunction,Conductor*
%ADD35C,0.600000*%
G04 #@! TD*
G04 #@! TA.AperFunction,Conductor*
%ADD36C,0.150000*%
G04 #@! TD*
G04 #@! TA.AperFunction,Conductor*
%ADD37C,0.127000*%
G04 #@! TD*
G04 #@! TA.AperFunction,Conductor*
%ADD38C,0.300000*%
G04 #@! TD*
G04 APERTURE END LIST*
D10*
G04 #@! TO.P,C15,2*
G04 #@! TO.N,GND*
X63050000Y-72150000D03*
G04 #@! TO.P,C15,1*
G04 #@! TO.N,3v3*
X64650000Y-72150000D03*
G04 #@! TD*
D11*
G04 #@! TO.P,IC1,8*
G04 #@! TO.N,GND*
X63556000Y-59318000D03*
G04 #@! TO.P,IC1,6*
G04 #@! TO.N,/RX-*
X61524000Y-59318000D03*
G04 #@! TO.P,IC1,4*
G04 #@! TO.N,/PWRIN*
X59492000Y-59318000D03*
G04 #@! TO.P,IC1,2*
G04 #@! TO.N,/TX-*
X57460000Y-59318000D03*
G04 #@! TO.P,IC1,7*
G04 #@! TO.N,GND*
X62540000Y-57540000D03*
G04 #@! TO.P,IC1,5*
G04 #@! TO.N,/PWRIN*
X60508000Y-57540000D03*
G04 #@! TO.P,IC1,3*
G04 #@! TO.N,/RX+*
X58476000Y-57540000D03*
G04 #@! TO.P,IC1,1*
G04 #@! TO.N,/TX+*
X56444000Y-57540000D03*
G04 #@! TO.P,IC1,12*
G04 #@! TO.N,/LED2*
X66858000Y-64144000D03*
G04 #@! TO.P,IC1,9*
G04 #@! TO.N,Net-(IC1-Pad9)*
X53142000Y-64144000D03*
G04 #@! TO.P,IC1,11*
G04 #@! TO.N,Net-(IC1-Pad11)*
X64572000Y-64144000D03*
G04 #@! TO.P,IC1,10*
G04 #@! TO.N,/LED1*
X55428000Y-64144000D03*
D12*
G04 #@! TO.P,IC1,S1*
G04 #@! TO.N,Net-(IC1-PadS1)*
X68128000Y-58429000D03*
G04 #@! TO.P,IC1,S2*
G04 #@! TO.N,Net-(IC1-PadS2)*
X51872000Y-58429000D03*
G04 #@! TD*
D13*
G04 #@! TO.P,Y1,4*
G04 #@! TO.N,3v3*
X64150000Y-78250000D03*
G04 #@! TO.P,Y1,3*
G04 #@! TO.N,/CLK*
X62450000Y-78250000D03*
G04 #@! TO.P,Y1,2*
G04 #@! TO.N,GND*
X62450000Y-76650000D03*
G04 #@! TO.P,Y1,1*
G04 #@! TO.N,3v3*
X64150000Y-76650000D03*
G04 #@! TD*
D14*
G04 #@! TO.P,IC7,10*
G04 #@! TO.N,/RD-*
X56450000Y-67525000D03*
G04 #@! TO.P,IC7,9*
G04 #@! TO.N,/RD+*
X55950000Y-67525000D03*
G04 #@! TO.P,IC7,8*
G04 #@! TO.N,GND*
X55450000Y-67525000D03*
G04 #@! TO.P,IC7,7*
G04 #@! TO.N,/TDESD-*
X54950000Y-67525000D03*
G04 #@! TO.P,IC7,6*
G04 #@! TO.N,/TDESD+*
X54450000Y-67525000D03*
G04 #@! TO.P,IC7,5*
G04 #@! TO.N,/TX+*
X54450000Y-66475000D03*
G04 #@! TO.P,IC7,4*
G04 #@! TO.N,/TX-*
X54950000Y-66475000D03*
G04 #@! TO.P,IC7,3*
G04 #@! TO.N,GND*
X55450000Y-66475000D03*
G04 #@! TO.P,IC7,2*
G04 #@! TO.N,/RX+*
X55950000Y-66475000D03*
G04 #@! TO.P,IC7,1*
G04 #@! TO.N,/RX-*
X56450000Y-66475000D03*
G04 #@! TD*
D15*
G04 #@! TO.P,R1,2*
G04 #@! TO.N,GND*
X52400000Y-66350000D03*
G04 #@! TO.P,R1,1*
G04 #@! TO.N,Net-(IC1-Pad9)*
X53300000Y-66350000D03*
G04 #@! TD*
D16*
G04 #@! TO.P,TP3,1*
G04 #@! TO.N,3v3*
X51550000Y-72300000D03*
G04 #@! TD*
G04 #@! TO.P,TP2,1*
G04 #@! TO.N,1v2*
X51550000Y-73800000D03*
G04 #@! TD*
G04 #@! TO.P,TP1,1*
G04 #@! TO.N,/PWRIN*
X51550000Y-70800000D03*
G04 #@! TD*
D17*
G04 #@! TO.P,J3,1*
G04 #@! TO.N,GND*
X51550000Y-68500000D03*
G04 #@! TD*
D18*
G04 #@! TO.P,J2,1*
G04 #@! TO.N,3v3*
X62640000Y-95970000D03*
G04 #@! TO.P,J2,2*
G04 #@! TO.N,/FLASH_SDI*
X61370000Y-95970000D03*
G04 #@! TO.P,J2,3*
G04 #@! TO.N,/FLASH_SDO*
X62640000Y-94700000D03*
G04 #@! TO.P,J2,4*
G04 #@! TO.N,/FLASH_SCK*
X61370000Y-94700000D03*
G04 #@! TO.P,J2,5*
G04 #@! TO.N,GND*
X62640000Y-93430000D03*
G04 #@! TO.P,J2,6*
G04 #@! TO.N,/FLASH_SS*
X61370000Y-93430000D03*
G04 #@! TD*
D19*
G04 #@! TO.P,SW3,2*
G04 #@! TO.N,/USERSW1*
X52400000Y-102700000D03*
G04 #@! TO.P,SW3,1*
G04 #@! TO.N,GND*
X52400000Y-109700000D03*
G04 #@! TD*
G04 #@! TO.P,SW2,2*
G04 #@! TO.N,/USERSW2*
X67600000Y-102700000D03*
G04 #@! TO.P,SW2,1*
G04 #@! TO.N,GND*
X67600000Y-109700000D03*
G04 #@! TD*
D15*
G04 #@! TO.P,R21,2*
G04 #@! TO.N,/USERSW1*
X55200000Y-102550000D03*
G04 #@! TO.P,R21,1*
G04 #@! TO.N,3v3*
X55200000Y-103450000D03*
G04 #@! TD*
G04 #@! TO.P,R20,2*
G04 #@! TO.N,/USERSW2*
X64800000Y-102550000D03*
G04 #@! TO.P,R20,1*
G04 #@! TO.N,3v3*
X64800000Y-103450000D03*
G04 #@! TD*
G04 #@! TO.P,C30,2*
G04 #@! TO.N,GND*
X69300000Y-80250000D03*
G04 #@! TO.P,C30,1*
G04 #@! TO.N,1v2*
X69300000Y-81150000D03*
G04 #@! TD*
G04 #@! TO.P,C29,2*
G04 #@! TO.N,GND*
X53350000Y-79800000D03*
G04 #@! TO.P,C29,1*
G04 #@! TO.N,1v2*
X54250000Y-79800000D03*
G04 #@! TD*
G04 #@! TO.P,C24,2*
G04 #@! TO.N,GND*
X53350000Y-78600000D03*
G04 #@! TO.P,C24,1*
G04 #@! TO.N,1v2*
X54250000Y-78600000D03*
G04 #@! TD*
D10*
G04 #@! TO.P,D2,2*
G04 #@! TO.N,/LED4*
X66500000Y-76100000D03*
G04 #@! TO.P,D2,1*
G04 #@! TO.N,Net-(D2-Pad1)*
X68100000Y-76100000D03*
G04 #@! TD*
D20*
G04 #@! TO.P,L1,2*
G04 #@! TO.N,3v3*
X67600000Y-71075000D03*
G04 #@! TO.P,L1,1*
G04 #@! TO.N,Net-(IC2-Pad8)*
X67600000Y-68125000D03*
G04 #@! TD*
D19*
G04 #@! TO.P,SW1,2*
G04 #@! TO.N,/CRESET_B*
X52400000Y-93000000D03*
G04 #@! TO.P,SW1,1*
G04 #@! TO.N,GND*
X52400000Y-100000000D03*
G04 #@! TD*
D15*
G04 #@! TO.P,R19,2*
G04 #@! TO.N,Net-(C27-Pad1)*
X60450000Y-104400000D03*
G04 #@! TO.P,R19,1*
G04 #@! TO.N,Net-(D4-Pad1)*
X59550000Y-104400000D03*
G04 #@! TD*
G04 #@! TO.P,R11,2*
G04 #@! TO.N,/CDONE*
X68100000Y-81150000D03*
G04 #@! TO.P,R11,1*
G04 #@! TO.N,Net-(D3-Pad1)*
X68100000Y-80250000D03*
G04 #@! TD*
D21*
G04 #@! TO.P,J1,10*
G04 #@! TO.N,/FLASH_SDO*
X66465000Y-93960000D03*
G04 #@! TO.P,J1,9*
G04 #@! TO.N,GND*
X67735000Y-93960000D03*
G04 #@! TO.P,J1,8*
G04 #@! TO.N,/CRESET_B*
X66465000Y-95230000D03*
G04 #@! TO.P,J1,7*
G04 #@! TO.N,Net-(J1-Pad7)*
X67735000Y-95230000D03*
G04 #@! TO.P,J1,6*
G04 #@! TO.N,/FLASH_SS*
X66465000Y-96500000D03*
G04 #@! TO.P,J1,5*
G04 #@! TO.N,GND*
X67735000Y-96500000D03*
G04 #@! TO.P,J1,4*
G04 #@! TO.N,/FLASH_SCK*
X66465000Y-97770000D03*
G04 #@! TO.P,J1,3*
G04 #@! TO.N,GND*
X67735000Y-97770000D03*
G04 #@! TO.P,J1,2*
G04 #@! TO.N,/FLASH_SDI*
X66465000Y-99040000D03*
G04 #@! TO.P,J1,1*
G04 #@! TO.N,3v3*
X67735000Y-99040000D03*
G04 #@! TD*
D22*
G04 #@! TO.P,IC6,6*
G04 #@! TO.N,/ADC_~CS*
X59050000Y-100400000D03*
G04 #@! TO.P,IC6,5*
G04 #@! TO.N,/ADC_DOUT*
X60000000Y-100400000D03*
G04 #@! TO.P,IC6,4*
G04 #@! TO.N,/ADC_SCLK*
X60950000Y-100400000D03*
G04 #@! TO.P,IC6,3*
G04 #@! TO.N,Net-(C27-Pad1)*
X60950000Y-103000000D03*
G04 #@! TO.P,IC6,2*
G04 #@! TO.N,GND*
X60000000Y-103000000D03*
G04 #@! TO.P,IC6,1*
G04 #@! TO.N,3v3*
X59050000Y-103000000D03*
G04 #@! TD*
D23*
G04 #@! TO.P,IC3,3*
G04 #@! TO.N,3v3*
X61150000Y-69200000D03*
G04 #@! TO.P,IC3,2*
G04 #@! TO.N,1v2*
X58850000Y-70150000D03*
G04 #@! TO.P,IC3,1*
G04 #@! TO.N,GND*
X58850000Y-68250000D03*
G04 #@! TD*
D24*
G04 #@! TO.P,IC2,8*
G04 #@! TO.N,Net-(IC2-Pad8)*
X64650000Y-69350000D03*
G04 #@! TO.P,IC2,7*
G04 #@! TO.N,GND*
X64650000Y-69850000D03*
G04 #@! TO.P,IC2,6*
G04 #@! TO.N,Net-(IC2-Pad6)*
X64650000Y-70350000D03*
G04 #@! TO.P,IC2,5*
G04 #@! TO.N,Net-(IC2-Pad5)*
X64650000Y-70850000D03*
G04 #@! TO.P,IC2,4*
G04 #@! TO.N,3v3*
X62750000Y-70850000D03*
G04 #@! TO.P,IC2,3*
G04 #@! TO.N,Net-(C18-Pad1)*
X62750000Y-70350000D03*
G04 #@! TO.P,IC2,2*
G04 #@! TO.N,/PWRIN*
X62750000Y-69850000D03*
G04 #@! TO.P,IC2,1*
X62750000Y-69350000D03*
G04 #@! TD*
D15*
G04 #@! TO.P,D4,2*
G04 #@! TO.N,GND*
X57450000Y-104400000D03*
G04 #@! TO.P,D4,1*
G04 #@! TO.N,Net-(D4-Pad1)*
X58350000Y-104400000D03*
G04 #@! TD*
D10*
G04 #@! TO.P,D3,2*
G04 #@! TO.N,3v3*
X66500000Y-78900000D03*
G04 #@! TO.P,D3,1*
G04 #@! TO.N,Net-(D3-Pad1)*
X68100000Y-78900000D03*
G04 #@! TD*
G04 #@! TO.P,D1,2*
G04 #@! TO.N,/LED3*
X66500000Y-73300000D03*
G04 #@! TO.P,D1,1*
G04 #@! TO.N,Net-(D1-Pad1)*
X68100000Y-73300000D03*
G04 #@! TD*
D15*
G04 #@! TO.P,C27,2*
G04 #@! TO.N,GND*
X62550000Y-104400000D03*
G04 #@! TO.P,C27,1*
G04 #@! TO.N,Net-(C27-Pad1)*
X61650000Y-104400000D03*
G04 #@! TD*
G04 #@! TO.P,C25,2*
G04 #@! TO.N,GND*
X57500000Y-102250000D03*
G04 #@! TO.P,C25,1*
G04 #@! TO.N,3v3*
X57500000Y-103150000D03*
G04 #@! TD*
G04 #@! TO.P,C22,2*
G04 #@! TO.N,GND*
X59600000Y-72150000D03*
G04 #@! TO.P,C22,1*
G04 #@! TO.N,1v2*
X58700000Y-72150000D03*
G04 #@! TD*
G04 #@! TO.P,C21,2*
G04 #@! TO.N,GND*
X60550000Y-66500000D03*
G04 #@! TO.P,C21,1*
G04 #@! TO.N,3v3*
X61450000Y-66500000D03*
G04 #@! TD*
G04 #@! TO.P,C18,2*
G04 #@! TO.N,GND*
X61700000Y-72150000D03*
G04 #@! TO.P,C18,1*
G04 #@! TO.N,Net-(C18-Pad1)*
X60800000Y-72150000D03*
G04 #@! TD*
D10*
G04 #@! TO.P,C16,2*
G04 #@! TO.N,GND*
X64500000Y-66500000D03*
G04 #@! TO.P,C16,1*
G04 #@! TO.N,/PWRIN*
X62900000Y-66500000D03*
G04 #@! TD*
D15*
G04 #@! TO.P,R15,2*
G04 #@! TO.N,/FLASH_IO2*
X69250000Y-86850000D03*
G04 #@! TO.P,R15,1*
G04 #@! TO.N,3v3*
X69250000Y-87750000D03*
G04 #@! TD*
G04 #@! TO.P,R17,2*
G04 #@! TO.N,GND*
X69300000Y-84450000D03*
G04 #@! TO.P,R17,1*
G04 #@! TO.N,/FLASH_IO3*
X69300000Y-85350000D03*
G04 #@! TD*
G04 #@! TO.P,R14,2*
G04 #@! TO.N,/FLASH_IO3*
X68100000Y-85350000D03*
G04 #@! TO.P,R14,1*
G04 #@! TO.N,3v3*
X68100000Y-84450000D03*
G04 #@! TD*
G04 #@! TO.P,R10,2*
G04 #@! TO.N,GND*
X66850000Y-77500000D03*
G04 #@! TO.P,R10,1*
G04 #@! TO.N,Net-(D2-Pad1)*
X67750000Y-77500000D03*
G04 #@! TD*
G04 #@! TO.P,R9,2*
G04 #@! TO.N,GND*
X66850000Y-74700000D03*
G04 #@! TO.P,R9,1*
G04 #@! TO.N,Net-(D1-Pad1)*
X67750000Y-74700000D03*
G04 #@! TD*
G04 #@! TO.P,R18,2*
G04 #@! TO.N,GND*
X69350000Y-90600000D03*
G04 #@! TO.P,R18,1*
G04 #@! TO.N,/FLASH_SS*
X68450000Y-90600000D03*
G04 #@! TD*
G04 #@! TO.P,C26,2*
G04 #@! TO.N,GND*
X63400000Y-99850000D03*
G04 #@! TO.P,C26,1*
G04 #@! TO.N,3v3*
X63400000Y-98950000D03*
G04 #@! TD*
D25*
G04 #@! TO.P,IC5,8*
G04 #@! TO.N,3v3*
X65775000Y-88250000D03*
G04 #@! TO.P,IC5,7*
G04 #@! TO.N,/FLASH_IO3*
X65775000Y-87750000D03*
G04 #@! TO.P,IC5,6*
G04 #@! TO.N,/FLASH_SCK*
X65775000Y-87250000D03*
G04 #@! TO.P,IC5,5*
G04 #@! TO.N,/FLASH_SDI*
X65775000Y-86750000D03*
G04 #@! TO.P,IC5,4*
G04 #@! TO.N,GND*
X68225000Y-86750000D03*
G04 #@! TO.P,IC5,3*
G04 #@! TO.N,/FLASH_IO2*
X68225000Y-87250000D03*
G04 #@! TO.P,IC5,2*
G04 #@! TO.N,/FLASH_SDO*
X68225000Y-87750000D03*
G04 #@! TO.P,IC5,1*
G04 #@! TO.N,/FLASH_SS*
X68225000Y-88250000D03*
G04 #@! TD*
D15*
G04 #@! TO.P,C28,2*
G04 #@! TO.N,GND*
X62850000Y-75300000D03*
G04 #@! TO.P,C28,1*
G04 #@! TO.N,3v3*
X63750000Y-75300000D03*
G04 #@! TD*
D10*
G04 #@! TO.P,C17,2*
G04 #@! TO.N,GND*
X64500000Y-68000000D03*
G04 #@! TO.P,C17,1*
G04 #@! TO.N,/PWRIN*
X62900000Y-68000000D03*
G04 #@! TD*
D15*
G04 #@! TO.P,C23,2*
G04 #@! TO.N,GND*
X67250000Y-89400000D03*
G04 #@! TO.P,C23,1*
G04 #@! TO.N,3v3*
X66350000Y-89400000D03*
G04 #@! TD*
G04 #@! TO.P,C12,2*
G04 #@! TO.N,GND*
X65700000Y-80250000D03*
G04 #@! TO.P,C12,1*
G04 #@! TO.N,3v3*
X65700000Y-81150000D03*
G04 #@! TD*
G04 #@! TO.P,C11,2*
G04 #@! TO.N,GND*
X51900000Y-83850000D03*
G04 #@! TO.P,C11,1*
G04 #@! TO.N,3v3*
X51900000Y-84750000D03*
G04 #@! TD*
G04 #@! TO.P,C10,2*
G04 #@! TO.N,GND*
X54300000Y-90250000D03*
G04 #@! TO.P,C10,1*
G04 #@! TO.N,3v3*
X54300000Y-89350000D03*
G04 #@! TD*
G04 #@! TO.P,C4,2*
G04 #@! TO.N,GND*
X54300000Y-83850000D03*
G04 #@! TO.P,C4,1*
G04 #@! TO.N,1v2*
X54300000Y-84750000D03*
G04 #@! TD*
G04 #@! TO.P,C9,2*
G04 #@! TO.N,GND*
X66900000Y-85350000D03*
G04 #@! TO.P,C9,1*
G04 #@! TO.N,3v3*
X66900000Y-84450000D03*
G04 #@! TD*
G04 #@! TO.P,C3,2*
G04 #@! TO.N,GND*
X65700000Y-82350000D03*
G04 #@! TO.P,C3,1*
G04 #@! TO.N,1v2*
X65700000Y-83250000D03*
G04 #@! TD*
G04 #@! TO.P,C8,2*
G04 #@! TO.N,GND*
X66900000Y-80250000D03*
G04 #@! TO.P,C8,1*
G04 #@! TO.N,3v3*
X66900000Y-81150000D03*
G04 #@! TD*
G04 #@! TO.P,C6,2*
G04 #@! TO.N,GND*
X65700000Y-85350000D03*
G04 #@! TO.P,C6,1*
G04 #@! TO.N,3v3*
X65700000Y-84450000D03*
G04 #@! TD*
G04 #@! TO.P,C2,2*
G04 #@! TO.N,GND*
X66900000Y-82350000D03*
G04 #@! TO.P,C2,1*
G04 #@! TO.N,1v2*
X66900000Y-83250000D03*
G04 #@! TD*
G04 #@! TO.P,C7,2*
G04 #@! TO.N,GND*
X53100000Y-90250000D03*
G04 #@! TO.P,C7,1*
G04 #@! TO.N,3v3*
X53100000Y-89350000D03*
G04 #@! TD*
G04 #@! TO.P,C5,2*
G04 #@! TO.N,GND*
X50700000Y-83850000D03*
G04 #@! TO.P,C5,1*
G04 #@! TO.N,3v3*
X50700000Y-84750000D03*
G04 #@! TD*
G04 #@! TO.P,C1,2*
G04 #@! TO.N,GND*
X53100000Y-83850000D03*
G04 #@! TO.P,C1,1*
G04 #@! TO.N,1v2*
X53100000Y-84750000D03*
G04 #@! TD*
G04 #@! TO.P,R13,2*
G04 #@! TO.N,/CDONE*
X68100000Y-82350000D03*
G04 #@! TO.P,R13,1*
G04 #@! TO.N,3v3*
X68100000Y-83250000D03*
G04 #@! TD*
G04 #@! TO.P,R12,2*
G04 #@! TO.N,/CRESET_B*
X66350000Y-90600000D03*
G04 #@! TO.P,R12,1*
G04 #@! TO.N,3v3*
X67250000Y-90600000D03*
G04 #@! TD*
G04 #@! TO.P,R16,2*
G04 #@! TO.N,/FLASH_SS*
X68450000Y-89400000D03*
G04 #@! TO.P,R16,1*
G04 #@! TO.N,3v3*
X69350000Y-89400000D03*
G04 #@! TD*
G04 #@! TO.P,R8,2*
G04 #@! TO.N,Net-(C19-Pad1)*
X60150000Y-75300000D03*
G04 #@! TO.P,R8,1*
G04 #@! TO.N,1v2*
X59250000Y-75300000D03*
G04 #@! TD*
G04 #@! TO.P,R7,2*
G04 #@! TO.N,Net-(C13-Pad1)*
X51500000Y-86550000D03*
G04 #@! TO.P,R7,1*
G04 #@! TO.N,1v2*
X51500000Y-87450000D03*
G04 #@! TD*
G04 #@! TO.P,C20,2*
G04 #@! TO.N,Net-(C19-Pad2)*
X59250000Y-78300000D03*
G04 #@! TO.P,C20,1*
G04 #@! TO.N,Net-(C19-Pad1)*
X60150000Y-78300000D03*
G04 #@! TD*
G04 #@! TO.P,C14,2*
G04 #@! TO.N,Net-(C13-Pad2)*
X54300000Y-87450000D03*
G04 #@! TO.P,C14,1*
G04 #@! TO.N,Net-(C13-Pad1)*
X54300000Y-86550000D03*
G04 #@! TD*
D10*
G04 #@! TO.P,C19,2*
G04 #@! TO.N,Net-(C19-Pad2)*
X58900000Y-76800000D03*
G04 #@! TO.P,C19,1*
G04 #@! TO.N,Net-(C19-Pad1)*
X60500000Y-76800000D03*
G04 #@! TD*
D26*
G04 #@! TO.P,C13,2*
G04 #@! TO.N,Net-(C13-Pad2)*
X52900000Y-87800000D03*
G04 #@! TO.P,C13,1*
G04 #@! TO.N,Net-(C13-Pad1)*
X52900000Y-86200000D03*
G04 #@! TD*
D15*
G04 #@! TO.P,R4,2*
G04 #@! TO.N,/TD+*
X54250000Y-82200000D03*
G04 #@! TO.P,R4,1*
G04 #@! TO.N,/TDESD+*
X53350000Y-82200000D03*
G04 #@! TD*
G04 #@! TO.P,R6,2*
G04 #@! TO.N,/TD-*
X54250000Y-81000000D03*
G04 #@! TO.P,R6,1*
G04 #@! TO.N,/TDESD-*
X53350000Y-81000000D03*
G04 #@! TD*
G04 #@! TO.P,R3,2*
G04 #@! TO.N,GND*
X67650000Y-66400000D03*
G04 #@! TO.P,R3,1*
G04 #@! TO.N,Net-(IC1-Pad11)*
X66750000Y-66400000D03*
G04 #@! TD*
G04 #@! TO.P,R5,2*
G04 #@! TO.N,/TDESD-*
X52000000Y-81150000D03*
G04 #@! TO.P,R5,1*
G04 #@! TO.N,/TDESD+*
X52000000Y-82050000D03*
G04 #@! TD*
G04 #@! TO.P,R2,2*
G04 #@! TO.N,/RD-*
X56650000Y-78200000D03*
G04 #@! TO.P,R2,1*
G04 #@! TO.N,/RD+*
X55750000Y-78200000D03*
G04 #@! TD*
D27*
G04 #@! TO.P,P1,2*
G04 #@! TO.N,GND*
X56700000Y-108700000D03*
X63300000Y-108700000D03*
X56700000Y-115300000D03*
D28*
G04 #@! TO.P,P1,1*
G04 #@! TO.N,Net-(D4-Pad1)*
X60000000Y-112000000D03*
D27*
G04 #@! TO.P,P1,2*
G04 #@! TO.N,GND*
X63300000Y-115300000D03*
G04 #@! TD*
D29*
G04 #@! TO.P,IC4,L11*
G04 #@! TO.N,3v3*
X64000000Y-88000000D03*
G04 #@! TO.P,IC4,K11*
G04 #@! TO.N,Net-(IC4-PadK11)*
X64000000Y-87200000D03*
G04 #@! TO.P,IC4,J11*
G04 #@! TO.N,/FLASH_IO3*
X64000000Y-86400000D03*
G04 #@! TO.P,IC4,H11*
G04 #@! TO.N,/FLASH_IO2*
X64000000Y-85600000D03*
G04 #@! TO.P,IC4,G11*
G04 #@! TO.N,Net-(IC4-PadG11)*
X64000000Y-84800000D03*
G04 #@! TO.P,IC4,F11*
G04 #@! TO.N,Net-(IC4-PadF11)*
X64000000Y-84000000D03*
G04 #@! TO.P,IC4,E11*
G04 #@! TO.N,Net-(IC4-PadE11)*
X64000000Y-83200000D03*
G04 #@! TO.P,IC4,D11*
G04 #@! TO.N,Net-(IC4-PadD11)*
X64000000Y-82400000D03*
G04 #@! TO.P,IC4,C11*
G04 #@! TO.N,Net-(IC4-PadC11)*
X64000000Y-81600000D03*
G04 #@! TO.P,IC4,B11*
G04 #@! TO.N,Net-(IC4-PadB11)*
X64000000Y-80800000D03*
G04 #@! TO.P,IC4,A11*
G04 #@! TO.N,/LED4*
X64000000Y-80000000D03*
G04 #@! TO.P,IC4,L10*
G04 #@! TO.N,/FLASH_SCK*
X63200000Y-88000000D03*
G04 #@! TO.P,IC4,K10*
G04 #@! TO.N,/FLASH_SS*
X63200000Y-87200000D03*
G04 #@! TO.P,IC4,J10*
G04 #@! TO.N,Net-(IC4-PadJ10)*
X63200000Y-86400000D03*
G04 #@! TO.P,IC4,H10*
G04 #@! TO.N,Net-(IC4-PadH10)*
X63200000Y-85600000D03*
G04 #@! TO.P,IC4,G10*
G04 #@! TO.N,Net-(IC4-PadG10)*
X63200000Y-84800000D03*
G04 #@! TO.P,IC4,F10*
G04 #@! TO.N,Net-(IC4-PadF10)*
X63200000Y-84000000D03*
G04 #@! TO.P,IC4,E10*
G04 #@! TO.N,Net-(IC4-PadE10)*
X63200000Y-83200000D03*
G04 #@! TO.P,IC4,D10*
G04 #@! TO.N,Net-(IC4-PadD10)*
X63200000Y-82400000D03*
G04 #@! TO.P,IC4,C10*
G04 #@! TO.N,3v3*
X63200000Y-81600000D03*
G04 #@! TO.P,IC4,B10*
G04 #@! TO.N,Net-(IC4-PadB10)*
X63200000Y-80800000D03*
G04 #@! TO.P,IC4,A10*
G04 #@! TO.N,/LED3*
X63200000Y-80000000D03*
G04 #@! TO.P,IC4,L9*
G04 #@! TO.N,/CRESET_B*
X62400000Y-88000000D03*
G04 #@! TO.P,IC4,K9*
G04 #@! TO.N,/FLASH_SDI*
X62400000Y-87200000D03*
G04 #@! TO.P,IC4,J9*
G04 #@! TO.N,/FLASH_SDO*
X62400000Y-86400000D03*
G04 #@! TO.P,IC4,H9*
G04 #@! TO.N,Net-(IC4-PadH9)*
X62400000Y-85600000D03*
G04 #@! TO.P,IC4,G9*
G04 #@! TO.N,Net-(IC4-PadG9)*
X62400000Y-84800000D03*
G04 #@! TO.P,IC4,F9*
G04 #@! TO.N,Net-(IC4-PadF9)*
X62400000Y-84000000D03*
G04 #@! TO.P,IC4,E9*
G04 #@! TO.N,Net-(IC4-PadE9)*
X62400000Y-83200000D03*
G04 #@! TO.P,IC4,D9*
G04 #@! TO.N,Net-(IC4-PadD9)*
X62400000Y-82400000D03*
G04 #@! TO.P,IC4,C9*
G04 #@! TO.N,Net-(IC4-PadC9)*
X62400000Y-81600000D03*
G04 #@! TO.P,IC4,B9*
G04 #@! TO.N,Net-(IC4-PadB9)*
X62400000Y-80800000D03*
G04 #@! TO.P,IC4,A9*
G04 #@! TO.N,Net-(IC4-PadA9)*
X62400000Y-80000000D03*
G04 #@! TO.P,IC4,L8*
G04 #@! TO.N,Net-(IC4-PadL8)*
X61600000Y-88000000D03*
G04 #@! TO.P,IC4,K8*
G04 #@! TO.N,/CDONE*
X61600000Y-87200000D03*
G04 #@! TO.P,IC4,J8*
G04 #@! TO.N,Net-(IC4-PadJ8)*
X61600000Y-86400000D03*
G04 #@! TO.P,IC4,H8*
G04 #@! TO.N,1v2*
X61600000Y-85600000D03*
G04 #@! TO.P,IC4,G8*
G04 #@! TO.N,Net-(IC4-PadG8)*
X61600000Y-84800000D03*
G04 #@! TO.P,IC4,F8*
G04 #@! TO.N,3v3*
X61600000Y-84000000D03*
G04 #@! TO.P,IC4,E8*
G04 #@! TO.N,Net-(IC4-PadE8)*
X61600000Y-83200000D03*
G04 #@! TO.P,IC4,D8*
G04 #@! TO.N,1v2*
X61600000Y-82400000D03*
G04 #@! TO.P,IC4,C8*
G04 #@! TO.N,Net-(IC4-PadC8)*
X61600000Y-81600000D03*
G04 #@! TO.P,IC4,B8*
G04 #@! TO.N,Net-(IC4-PadB8)*
X61600000Y-80800000D03*
G04 #@! TO.P,IC4,A8*
G04 #@! TO.N,Net-(IC4-PadA8)*
X61600000Y-80000000D03*
G04 #@! TO.P,IC4,L7*
G04 #@! TO.N,/USERSW2*
X60800000Y-88000000D03*
G04 #@! TO.P,IC4,K7*
G04 #@! TO.N,Net-(IC4-PadK7)*
X60800000Y-87200000D03*
G04 #@! TO.P,IC4,J7*
G04 #@! TO.N,Net-(IC4-PadJ7)*
X60800000Y-86400000D03*
G04 #@! TO.P,IC4,H7*
G04 #@! TO.N,Net-(IC4-PadH7)*
X60800000Y-85600000D03*
G04 #@! TO.P,IC4,G7*
G04 #@! TO.N,GND*
X60800000Y-84800000D03*
G04 #@! TO.P,IC4,F7*
X60800000Y-84000000D03*
G04 #@! TO.P,IC4,E7*
X60800000Y-83200000D03*
G04 #@! TO.P,IC4,D7*
G04 #@! TO.N,Net-(IC4-PadD7)*
X60800000Y-82400000D03*
G04 #@! TO.P,IC4,C7*
G04 #@! TO.N,Net-(IC4-PadC7)*
X60800000Y-81600000D03*
G04 #@! TO.P,IC4,B7*
G04 #@! TO.N,Net-(IC4-PadB7)*
X60800000Y-80800000D03*
G04 #@! TO.P,IC4,A7*
G04 #@! TO.N,Net-(IC4-PadA7)*
X60800000Y-80000000D03*
G04 #@! TO.P,IC4,L6*
G04 #@! TO.N,Net-(C13-Pad2)*
X60000000Y-88000000D03*
G04 #@! TO.P,IC4,K6*
G04 #@! TO.N,Net-(IC4-PadK6)*
X60000000Y-87200000D03*
G04 #@! TO.P,IC4,J6*
G04 #@! TO.N,Net-(C13-Pad1)*
X60000000Y-86400000D03*
G04 #@! TO.P,IC4,H6*
G04 #@! TO.N,3v3*
X60000000Y-85600000D03*
G04 #@! TO.P,IC4,G6*
G04 #@! TO.N,GND*
X60000000Y-84800000D03*
G04 #@! TO.P,IC4,F6*
X60000000Y-84000000D03*
G04 #@! TO.P,IC4,E6*
X60000000Y-83200000D03*
G04 #@! TO.P,IC4,D6*
G04 #@! TO.N,3v3*
X60000000Y-82400000D03*
G04 #@! TO.P,IC4,C6*
G04 #@! TO.N,Net-(C19-Pad1)*
X60000000Y-81600000D03*
G04 #@! TO.P,IC4,B6*
G04 #@! TO.N,/CLK*
X60000000Y-80800000D03*
G04 #@! TO.P,IC4,A6*
G04 #@! TO.N,Net-(IC4-PadA6)*
X60000000Y-80000000D03*
G04 #@! TO.P,IC4,L5*
G04 #@! TO.N,Net-(IC4-PadL5)*
X59200000Y-88000000D03*
G04 #@! TO.P,IC4,K5*
G04 #@! TO.N,Net-(IC4-PadK5)*
X59200000Y-87200000D03*
G04 #@! TO.P,IC4,J5*
G04 #@! TO.N,Net-(IC4-PadJ5)*
X59200000Y-86400000D03*
G04 #@! TO.P,IC4,H5*
G04 #@! TO.N,GND*
X59200000Y-85600000D03*
G04 #@! TO.P,IC4,G5*
X59200000Y-84800000D03*
G04 #@! TO.P,IC4,F5*
X59200000Y-84000000D03*
G04 #@! TO.P,IC4,E5*
X59200000Y-83200000D03*
G04 #@! TO.P,IC4,D5*
G04 #@! TO.N,Net-(IC4-PadD5)*
X59200000Y-82400000D03*
G04 #@! TO.P,IC4,C5*
G04 #@! TO.N,Net-(C19-Pad2)*
X59200000Y-81600000D03*
G04 #@! TO.P,IC4,B5*
G04 #@! TO.N,Net-(IC4-PadB5)*
X59200000Y-80800000D03*
G04 #@! TO.P,IC4,A5*
G04 #@! TO.N,Net-(IC4-PadA5)*
X59200000Y-80000000D03*
G04 #@! TO.P,IC4,L4*
G04 #@! TO.N,/ADC_SCLK*
X58400000Y-88000000D03*
G04 #@! TO.P,IC4,K4*
G04 #@! TO.N,Net-(IC4-PadK4)*
X58400000Y-87200000D03*
G04 #@! TO.P,IC4,J4*
G04 #@! TO.N,Net-(IC4-PadJ4)*
X58400000Y-86400000D03*
G04 #@! TO.P,IC4,H4*
G04 #@! TO.N,1v2*
X58400000Y-85600000D03*
G04 #@! TO.P,IC4,G4*
G04 #@! TO.N,3v3*
X58400000Y-84800000D03*
G04 #@! TO.P,IC4,F4*
G04 #@! TO.N,Net-(IC4-PadF4)*
X58400000Y-84000000D03*
G04 #@! TO.P,IC4,E4*
G04 #@! TO.N,3v3*
X58400000Y-83200000D03*
G04 #@! TO.P,IC4,D4*
G04 #@! TO.N,1v2*
X58400000Y-82400000D03*
G04 #@! TO.P,IC4,C4*
G04 #@! TO.N,Net-(IC4-PadC4)*
X58400000Y-81600000D03*
G04 #@! TO.P,IC4,B4*
G04 #@! TO.N,Net-(IC4-PadB4)*
X58400000Y-80800000D03*
G04 #@! TO.P,IC4,A4*
G04 #@! TO.N,/LED2*
X58400000Y-80000000D03*
G04 #@! TO.P,IC4,L3*
G04 #@! TO.N,/ADC_DOUT*
X57600000Y-88000000D03*
G04 #@! TO.P,IC4,K3*
G04 #@! TO.N,Net-(IC4-PadK3)*
X57600000Y-87200000D03*
G04 #@! TO.P,IC4,J3*
G04 #@! TO.N,Net-(IC4-PadJ3)*
X57600000Y-86400000D03*
G04 #@! TO.P,IC4,H3*
G04 #@! TO.N,Net-(IC4-PadH3)*
X57600000Y-85600000D03*
G04 #@! TO.P,IC4,G3*
G04 #@! TO.N,Net-(IC4-PadG3)*
X57600000Y-84800000D03*
G04 #@! TO.P,IC4,F3*
G04 #@! TO.N,Net-(IC4-PadF3)*
X57600000Y-84000000D03*
G04 #@! TO.P,IC4,E3*
G04 #@! TO.N,Net-(IC4-PadE3)*
X57600000Y-83200000D03*
G04 #@! TO.P,IC4,D3*
G04 #@! TO.N,Net-(IC4-PadD3)*
X57600000Y-82400000D03*
G04 #@! TO.P,IC4,C3*
G04 #@! TO.N,Net-(IC4-PadC3)*
X57600000Y-81600000D03*
G04 #@! TO.P,IC4,B3*
G04 #@! TO.N,Net-(IC4-PadB3)*
X57600000Y-80800000D03*
G04 #@! TO.P,IC4,A3*
G04 #@! TO.N,/LED1*
X57600000Y-80000000D03*
G04 #@! TO.P,IC4,L2*
G04 #@! TO.N,/ADC_~CS*
X56800000Y-88000000D03*
G04 #@! TO.P,IC4,K2*
G04 #@! TO.N,Net-(IC4-PadK2)*
X56800000Y-87200000D03*
G04 #@! TO.P,IC4,J2*
G04 #@! TO.N,Net-(IC4-PadJ2)*
X56800000Y-86400000D03*
G04 #@! TO.P,IC4,H2*
G04 #@! TO.N,Net-(IC4-PadH2)*
X56800000Y-85600000D03*
G04 #@! TO.P,IC4,G2*
G04 #@! TO.N,Net-(IC4-PadG2)*
X56800000Y-84800000D03*
G04 #@! TO.P,IC4,F2*
G04 #@! TO.N,Net-(IC4-PadF2)*
X56800000Y-84000000D03*
G04 #@! TO.P,IC4,E2*
G04 #@! TO.N,Net-(IC4-PadE2)*
X56800000Y-83200000D03*
G04 #@! TO.P,IC4,D2*
G04 #@! TO.N,Net-(IC4-PadD2)*
X56800000Y-82400000D03*
G04 #@! TO.P,IC4,C2*
G04 #@! TO.N,/TD+*
X56800000Y-81600000D03*
G04 #@! TO.P,IC4,B2*
G04 #@! TO.N,/RD-*
X56800000Y-80800000D03*
G04 #@! TO.P,IC4,A2*
G04 #@! TO.N,Net-(IC4-PadA2)*
X56800000Y-80000000D03*
G04 #@! TO.P,IC4,L1*
G04 #@! TO.N,/USERSW1*
X56000000Y-88000000D03*
G04 #@! TO.P,IC4,K1*
G04 #@! TO.N,Net-(IC4-PadK1)*
X56000000Y-87200000D03*
G04 #@! TO.P,IC4,J1*
G04 #@! TO.N,Net-(IC4-PadJ1)*
X56000000Y-86400000D03*
G04 #@! TO.P,IC4,H1*
G04 #@! TO.N,Net-(IC4-PadH1)*
X56000000Y-85600000D03*
G04 #@! TO.P,IC4,G1*
G04 #@! TO.N,Net-(IC4-PadG1)*
X56000000Y-84800000D03*
G04 #@! TO.P,IC4,F1*
G04 #@! TO.N,Net-(IC4-PadF1)*
X56000000Y-84000000D03*
G04 #@! TO.P,IC4,E1*
G04 #@! TO.N,Net-(IC4-PadE1)*
X56000000Y-83200000D03*
G04 #@! TO.P,IC4,D1*
G04 #@! TO.N,Net-(IC4-PadD1)*
X56000000Y-82400000D03*
G04 #@! TO.P,IC4,C1*
G04 #@! TO.N,/TD-*
X56000000Y-81600000D03*
G04 #@! TO.P,IC4,B1*
G04 #@! TO.N,/RD+*
X56000000Y-80800000D03*
G04 #@! TO.P,IC4,A1*
G04 #@! TO.N,Net-(IC4-PadA1)*
X56000000Y-80000000D03*
G04 #@! TD*
D30*
G04 #@! TO.N,3v3*
X61500000Y-65700000D03*
X50700000Y-85600000D03*
X52300000Y-89400000D03*
X56700000Y-103200000D03*
X64800000Y-84500000D03*
X67300000Y-91500000D03*
X62600000Y-98900000D03*
X69250000Y-88600000D03*
X68900000Y-83200000D03*
X55150000Y-89350000D03*
X63650000Y-97000000D03*
D31*
X60400000Y-86000000D03*
X58000000Y-84400000D03*
X58000000Y-83600000D03*
X60400000Y-82000000D03*
X61200000Y-83600000D03*
X62800000Y-81200000D03*
D30*
X64900000Y-81200000D03*
X51900000Y-85500000D03*
X64800000Y-104400000D03*
X55200000Y-104400000D03*
X52500000Y-72300000D03*
D32*
X64200000Y-73500000D03*
D30*
X63700000Y-74050000D03*
D32*
G04 #@! TO.N,GND*
X65700000Y-66500000D03*
D30*
X68500000Y-66400000D03*
X59700000Y-66500000D03*
X66200000Y-69600000D03*
X64900000Y-82300000D03*
X64900000Y-80200000D03*
X64800000Y-85300000D03*
X66000000Y-74700000D03*
X66000000Y-77500000D03*
X53400000Y-77800000D03*
X50700000Y-83000000D03*
X52300000Y-90300000D03*
X63400000Y-100700000D03*
X56700000Y-102300000D03*
D31*
X59600000Y-84400000D03*
X60400000Y-84400000D03*
X60400000Y-83600000D03*
X59600000Y-83600000D03*
D30*
X69300000Y-79400000D03*
X69400000Y-91400000D03*
X67200000Y-88600000D03*
X64100000Y-93400000D03*
X67700000Y-86700000D03*
X69500000Y-83700000D03*
X55150000Y-90250000D03*
X51000000Y-119000000D03*
X51000000Y-117000000D03*
X51000000Y-115000000D03*
X51000000Y-113000000D03*
X51000000Y-111000000D03*
X51000000Y-107000000D03*
X51000000Y-105000000D03*
X51000000Y-103000000D03*
X51000000Y-101000000D03*
X53000000Y-119000000D03*
X55000000Y-119000000D03*
X57000000Y-119000000D03*
X59000000Y-119000000D03*
X61000000Y-119000000D03*
X63000000Y-119000000D03*
X65000000Y-119000000D03*
X67000000Y-119000000D03*
X69000000Y-119000000D03*
X69000000Y-117000000D03*
X69000000Y-115000000D03*
X69000000Y-113000000D03*
X69000000Y-111000000D03*
X69000000Y-109000000D03*
X69000000Y-107000000D03*
X69000000Y-105000000D03*
X69000000Y-103000000D03*
X69000000Y-101000000D03*
X69000000Y-99000000D03*
X69000000Y-97000000D03*
X69000000Y-95000000D03*
X69000000Y-93000000D03*
X51000000Y-99000000D03*
X51000000Y-97000000D03*
X51000000Y-95000000D03*
X51000000Y-93000000D03*
X51000000Y-91000000D03*
X55000000Y-95000000D03*
X55000000Y-97000000D03*
X57000000Y-99000000D03*
X58000000Y-101000000D03*
X62000000Y-103000000D03*
X64500000Y-91500000D03*
X69250000Y-74000000D03*
X69250000Y-77250000D03*
D31*
X59600000Y-85200000D03*
D30*
X58900000Y-67500000D03*
X51000000Y-109000000D03*
X55450000Y-68250000D03*
X55450000Y-65550000D03*
X51600000Y-66350000D03*
X51000000Y-77000000D03*
X51000000Y-75000000D03*
X53000000Y-75000000D03*
X53500000Y-72500000D03*
X53250000Y-69750000D03*
X53250000Y-67500000D03*
X51000000Y-64500000D03*
X51000000Y-61000000D03*
X55250000Y-58750000D03*
X57500000Y-56250000D03*
X53750000Y-57500000D03*
X61500000Y-61750000D03*
X63250000Y-63500000D03*
X65750000Y-61750000D03*
X69000000Y-64500000D03*
X69000000Y-61000000D03*
X66250000Y-57250000D03*
X66000000Y-59000000D03*
X59500000Y-90500000D03*
X62500000Y-90500000D03*
X59500000Y-92000000D03*
X59500000Y-93750000D03*
X55000000Y-99000000D03*
X55000000Y-101000000D03*
X59600000Y-72950000D03*
X61700000Y-72950000D03*
X63050000Y-73100000D03*
X62050000Y-75450000D03*
G04 #@! TO.N,/LED1*
X57400000Y-64800000D03*
D32*
G04 #@! TO.N,/PWRIN*
X62900000Y-64900000D03*
D30*
X52500000Y-70800000D03*
G04 #@! TO.N,1v2*
X54300000Y-77800000D03*
X59600000Y-74400000D03*
X51800000Y-88400000D03*
X64900000Y-83100000D03*
X69300000Y-82000000D03*
D31*
X58000000Y-82000000D03*
X58000000Y-86000000D03*
X61200000Y-86000000D03*
X62000000Y-82800000D03*
D30*
X54900000Y-80200000D03*
X55200000Y-84800000D03*
X59600000Y-73775000D03*
X52500000Y-73800000D03*
D31*
G04 #@! TO.N,/FLASH_SDO*
X67700000Y-87700000D03*
D30*
G04 #@! TO.N,/FLASH_SS*
X65400000Y-88800000D03*
X66600000Y-88100000D03*
X64480000Y-94100000D03*
D31*
G04 #@! TO.N,/FLASH_SCK*
X63525000Y-88350000D03*
D30*
X63500000Y-89800000D03*
D31*
G04 #@! TO.N,/FLASH_IO3*
X65050000Y-87750000D03*
X68700000Y-86150000D03*
D30*
G04 #@! TO.N,/FLASH_IO2*
X67000000Y-86200000D03*
D31*
X63700000Y-85300000D03*
D30*
G04 #@! TO.N,/LED3*
X63200000Y-79200000D03*
X64700000Y-75400000D03*
G04 #@! TO.N,/LED4*
X64000000Y-79200000D03*
X65400000Y-76100000D03*
G04 #@! TO.N,/CRESET_B*
X65300000Y-94000000D03*
X53850000Y-93000000D03*
X64300000Y-90000000D03*
G04 #@! TD*
D33*
G04 #@! TO.N,3v3*
X62750000Y-70850000D02*
X62950000Y-70850000D01*
D34*
X61450000Y-68900000D02*
X61150000Y-69200000D01*
X61450000Y-66500000D02*
X61450000Y-68900000D01*
X61450000Y-66500000D02*
X61450000Y-65750000D01*
X61450000Y-65750000D02*
X61500000Y-65700000D01*
X64350000Y-78100000D02*
X64350000Y-76700000D01*
X63750000Y-76100000D02*
X64350000Y-76700000D01*
X63750000Y-75300000D02*
X63750000Y-76100000D01*
X64200000Y-74850000D02*
X63750000Y-75300000D01*
X65150000Y-78900000D02*
X64350000Y-78100000D01*
X66500000Y-78900000D02*
X65150000Y-78900000D01*
X68100000Y-84450000D02*
X66900000Y-84450000D01*
X66900000Y-84450000D02*
X65700000Y-84450000D01*
X66900000Y-81150000D02*
X65700000Y-81150000D01*
D33*
X66900000Y-81150000D02*
X67150000Y-81150000D01*
X67150000Y-81150000D02*
X67500000Y-80800000D01*
X67500000Y-79900000D02*
X66500000Y-78900000D01*
X67500000Y-80800000D02*
X67500000Y-79900000D01*
D34*
X50700000Y-84750000D02*
X51900000Y-84750000D01*
X50700000Y-84750000D02*
X50700000Y-85600000D01*
X54300000Y-89350000D02*
X53100000Y-89350000D01*
X53100000Y-89350000D02*
X52350000Y-89350000D01*
X52350000Y-89350000D02*
X52300000Y-89400000D01*
D35*
X58900000Y-103150000D02*
X59050000Y-103000000D01*
X57500000Y-103150000D02*
X58900000Y-103150000D01*
D34*
X67735000Y-99040000D02*
X67735000Y-99565000D01*
X67735000Y-99565000D02*
X67100000Y-100200000D01*
X67100000Y-100200000D02*
X65600000Y-100200000D01*
X64350000Y-98950000D02*
X63400000Y-98950000D01*
X65600000Y-100200000D02*
X64350000Y-98950000D01*
X57500000Y-103150000D02*
X56750000Y-103150000D01*
X56750000Y-103150000D02*
X56700000Y-103200000D01*
X65700000Y-84450000D02*
X64850000Y-84450000D01*
X64850000Y-84450000D02*
X64800000Y-84500000D01*
D33*
X64250000Y-88250000D02*
X64000000Y-88000000D01*
X65775000Y-88250000D02*
X64250000Y-88250000D01*
X65775000Y-88250000D02*
X65950000Y-88250000D01*
X66350000Y-88650000D02*
X66350000Y-89400000D01*
X65950000Y-88250000D02*
X66350000Y-88650000D01*
X66350000Y-89400000D02*
X66350000Y-89550000D01*
X67250000Y-90450000D02*
X67250000Y-90600000D01*
X66350000Y-89550000D02*
X67250000Y-90450000D01*
X67250000Y-90600000D02*
X67250000Y-91450000D01*
X67250000Y-91450000D02*
X67300000Y-91500000D01*
D34*
X63400000Y-98950000D02*
X62650000Y-98950000D01*
X62650000Y-98950000D02*
X62600000Y-98900000D01*
D36*
X69250000Y-89300000D02*
X69350000Y-89400000D01*
D34*
X69250000Y-88600000D02*
X69250000Y-89300000D01*
X69250000Y-87750000D02*
X69250000Y-88600000D01*
X68100000Y-83800000D02*
X68100000Y-84450000D01*
X68100000Y-83250000D02*
X68100000Y-83800000D01*
X68100000Y-83250000D02*
X68850000Y-83250000D01*
X68850000Y-83250000D02*
X68900000Y-83200000D01*
X54300000Y-89350000D02*
X55150000Y-89350000D01*
X50700000Y-85600000D02*
X50700000Y-88700000D01*
X51400000Y-89400000D02*
X52300000Y-89400000D01*
X50700000Y-88700000D02*
X51400000Y-89400000D01*
X62640000Y-95970000D02*
X63650000Y-96980000D01*
X63650000Y-96980000D02*
X63650000Y-97000000D01*
D37*
X60000000Y-85600000D02*
X60400000Y-86000000D01*
X58400000Y-84800000D02*
X58000000Y-84400000D01*
X58400000Y-83200000D02*
X58000000Y-83600000D01*
X60000000Y-82400000D02*
X60400000Y-82000000D01*
X61600000Y-84000000D02*
X61200000Y-83600000D01*
X63200000Y-81600000D02*
X62800000Y-81200000D01*
D34*
X65700000Y-81150000D02*
X64950000Y-81150000D01*
X64950000Y-81150000D02*
X64900000Y-81200000D01*
X51900000Y-84750000D02*
X51900000Y-85500000D01*
D33*
X64800000Y-103450000D02*
X64800000Y-104400000D01*
X55200000Y-103450000D02*
X55200000Y-104400000D01*
X51550000Y-72300000D02*
X52500000Y-72300000D01*
D34*
X66375000Y-71075000D02*
X67600000Y-71075000D01*
X64650000Y-72150000D02*
X65300000Y-72150000D01*
X65300000Y-72150000D02*
X66375000Y-71075000D01*
X64650000Y-72150000D02*
X64650000Y-73050000D01*
D33*
X63350000Y-70850000D02*
X64650000Y-72150000D01*
X62750000Y-70850000D02*
X63350000Y-70850000D01*
D34*
X64650000Y-73050000D02*
X64200000Y-73500000D01*
X63800000Y-74150000D02*
X63700000Y-74050000D01*
X64200000Y-74150000D02*
X63800000Y-74150000D01*
X64200000Y-74150000D02*
X64200000Y-74850000D01*
X64200000Y-73500000D02*
X64200000Y-74150000D01*
X64200000Y-73550000D02*
X63700000Y-74050000D01*
X64200000Y-73500000D02*
X64200000Y-73550000D01*
D35*
G04 #@! TO.N,GND*
X64500000Y-68000000D02*
X64500000Y-66500000D01*
X64500000Y-66500000D02*
X65700000Y-66500000D01*
D34*
X67650000Y-66400000D02*
X68500000Y-66400000D01*
X60550000Y-66500000D02*
X59700000Y-66500000D01*
D33*
X64650000Y-69850000D02*
X65550000Y-69850000D01*
X65550000Y-69850000D02*
X65800000Y-69600000D01*
X65800000Y-69600000D02*
X66200000Y-69600000D01*
D34*
X62850000Y-76100000D02*
X62250000Y-76700000D01*
X62850000Y-75300000D02*
X62850000Y-76100000D01*
X66900000Y-82350000D02*
X65700000Y-82350000D01*
X66900000Y-80250000D02*
X65700000Y-80250000D01*
X66900000Y-85350000D02*
X65700000Y-85350000D01*
X65700000Y-82350000D02*
X64950000Y-82350000D01*
X64950000Y-82350000D02*
X64900000Y-82300000D01*
X65700000Y-80250000D02*
X64950000Y-80250000D01*
X64950000Y-80250000D02*
X64900000Y-80200000D01*
X65700000Y-85350000D02*
X64850000Y-85350000D01*
X64850000Y-85350000D02*
X64800000Y-85300000D01*
D33*
X66850000Y-74700000D02*
X66000000Y-74700000D01*
X66850000Y-77500000D02*
X66000000Y-77500000D01*
D34*
X53350000Y-78600000D02*
X53350000Y-79800000D01*
X53350000Y-78600000D02*
X53350000Y-77850000D01*
X53350000Y-77850000D02*
X53400000Y-77800000D01*
X54300000Y-83850000D02*
X53100000Y-83850000D01*
X53100000Y-83850000D02*
X51900000Y-83850000D01*
X51900000Y-83850000D02*
X50700000Y-83850000D01*
X50700000Y-83850000D02*
X50700000Y-83000000D01*
X53100000Y-90250000D02*
X54300000Y-90250000D01*
X53100000Y-90250000D02*
X52350000Y-90250000D01*
X52350000Y-90250000D02*
X52300000Y-90300000D01*
D35*
X57450000Y-107950000D02*
X56700000Y-108700000D01*
X57450000Y-104400000D02*
X57450000Y-107950000D01*
X62550000Y-107950000D02*
X63300000Y-108700000D01*
X62550000Y-104400000D02*
X62550000Y-107950000D01*
D34*
X63400000Y-99850000D02*
X63400000Y-100700000D01*
X57500000Y-102250000D02*
X56750000Y-102250000D01*
X56750000Y-102250000D02*
X56700000Y-102300000D01*
X60000000Y-103000000D02*
X60000000Y-102100000D01*
X60000000Y-102100000D02*
X59700000Y-101800000D01*
X57950000Y-101800000D02*
X57500000Y-102250000D01*
X59700000Y-101800000D02*
X57950000Y-101800000D01*
D37*
X59200000Y-84800000D02*
X59600000Y-84400000D01*
X60000000Y-84800000D02*
X60400000Y-84400000D01*
X60000000Y-84000000D02*
X60400000Y-83600000D01*
X59200000Y-84000000D02*
X59600000Y-83600000D01*
X59200000Y-83200000D02*
X59600000Y-83600000D01*
X60000000Y-83200000D02*
X59600000Y-83600000D01*
X60000000Y-84000000D02*
X59600000Y-83600000D01*
X60400000Y-83600000D02*
X60000000Y-83200000D01*
X60800000Y-83200000D02*
X60400000Y-83600000D01*
X60800000Y-84000000D02*
X60400000Y-83600000D01*
X59600000Y-84400000D02*
X59200000Y-84000000D01*
X59600000Y-84400000D02*
X60000000Y-84000000D01*
X60000000Y-84800000D02*
X59600000Y-84400000D01*
X60400000Y-84400000D02*
X60800000Y-84000000D01*
X60800000Y-84800000D02*
X60400000Y-84400000D01*
X60000000Y-84000000D02*
X60400000Y-84400000D01*
D34*
X69300000Y-80250000D02*
X69300000Y-79400000D01*
D33*
X69350000Y-90600000D02*
X69350000Y-91350000D01*
X69350000Y-91350000D02*
X69400000Y-91400000D01*
X67250000Y-89400000D02*
X67250000Y-88650000D01*
X67250000Y-88650000D02*
X67200000Y-88600000D01*
X62640000Y-93430000D02*
X64070000Y-93430000D01*
X64070000Y-93430000D02*
X64100000Y-93400000D01*
D36*
X68225000Y-86750000D02*
X67750000Y-86750000D01*
X67750000Y-86750000D02*
X67700000Y-86700000D01*
D34*
X69300000Y-84450000D02*
X69300000Y-83900000D01*
X69300000Y-83900000D02*
X69500000Y-83700000D01*
X54300000Y-90250000D02*
X55150000Y-90250000D01*
D37*
X59200000Y-85600000D02*
X59600000Y-85200000D01*
X59600000Y-85200000D02*
X59200000Y-84800000D01*
X60000000Y-84800000D02*
X59600000Y-85200000D01*
D34*
X58850000Y-68250000D02*
X58850000Y-67550000D01*
X58850000Y-67550000D02*
X58900000Y-67500000D01*
D33*
X52400000Y-109700000D02*
X50900000Y-109700000D01*
X50900000Y-109700000D02*
X50800000Y-109600000D01*
X50800000Y-109200000D02*
X51000000Y-109000000D01*
X50800000Y-109600000D02*
X50800000Y-109200000D01*
X67600000Y-109700000D02*
X68900000Y-109700000D01*
X69000000Y-109600000D02*
X69000000Y-109000000D01*
X68900000Y-109700000D02*
X69000000Y-109600000D01*
D36*
X55450000Y-67425000D02*
X55450000Y-68250000D01*
X55450000Y-66375000D02*
X55450000Y-65550000D01*
X52400000Y-66350000D02*
X51600000Y-66350000D01*
D34*
X59600000Y-72150000D02*
X59600000Y-72950000D01*
X61700000Y-72150000D02*
X61700000Y-72950000D01*
X63050000Y-72150000D02*
X63050000Y-73100000D01*
X62850000Y-75300000D02*
X62200000Y-75300000D01*
X62200000Y-75300000D02*
X62050000Y-75450000D01*
D37*
G04 #@! TO.N,/CLK*
X61700000Y-78100000D02*
X62250000Y-78100000D01*
X60400000Y-79400000D02*
X61700000Y-78100000D01*
X60000000Y-80800000D02*
X60400000Y-80400000D01*
X60400000Y-80400000D02*
X60400000Y-79400000D01*
D36*
G04 #@! TO.N,/LED2*
X65514000Y-62800000D02*
X66858000Y-64144000D01*
X60400000Y-62800000D02*
X65514000Y-62800000D01*
X58000000Y-65200000D02*
X60400000Y-62800000D01*
X58000000Y-78800000D02*
X58000000Y-65200000D01*
X58400000Y-80000000D02*
X58400000Y-79200000D01*
X58400000Y-79200000D02*
X58000000Y-78800000D01*
D37*
G04 #@! TO.N,/TD+*
X54450000Y-82000000D02*
X54250000Y-82200000D01*
X56800000Y-81600000D02*
X56400000Y-82000000D01*
X56400000Y-82000000D02*
X54450000Y-82000000D01*
G04 #@! TO.N,/RD-*
X56400000Y-78450000D02*
X56650000Y-78200000D01*
X56800000Y-80800000D02*
X56400000Y-80400000D01*
X56400000Y-80400000D02*
X56400000Y-78450000D01*
D36*
X56450000Y-67950001D02*
X56350000Y-68050001D01*
X56350000Y-77434999D02*
X56650000Y-77734999D01*
X56450000Y-67425000D02*
X56450000Y-67950001D01*
X56350000Y-68050001D02*
X56350000Y-77434999D01*
X56650000Y-77734999D02*
X56650000Y-78200000D01*
D37*
G04 #@! TO.N,/TD-*
X54850000Y-81600000D02*
X54250000Y-81000000D01*
X56000000Y-81600000D02*
X54850000Y-81600000D01*
G04 #@! TO.N,/RD+*
X55600000Y-78350000D02*
X55750000Y-78200000D01*
X56000000Y-80800000D02*
X55600000Y-80400000D01*
X55600000Y-80400000D02*
X55600000Y-78350000D01*
D36*
X56050000Y-68050001D02*
X56050000Y-77434999D01*
X55950000Y-67950001D02*
X56050000Y-68050001D01*
X55750000Y-77734999D02*
X55750000Y-78200000D01*
X56050000Y-77434999D02*
X55750000Y-77734999D01*
X55950000Y-67425000D02*
X55950000Y-67950001D01*
G04 #@! TO.N,/LED1*
X57700000Y-79900000D02*
X57600000Y-80000000D01*
X57700000Y-65900000D02*
X57700000Y-79900000D01*
X57700000Y-65900000D02*
X57700000Y-65100000D01*
X57700000Y-65100000D02*
X57400000Y-64800000D01*
D35*
G04 #@! TO.N,/PWRIN*
X62900000Y-64900000D02*
X62900000Y-66500000D01*
X62900000Y-66500000D02*
X62900000Y-68000000D01*
D33*
X62750000Y-69850000D02*
X63350000Y-69850000D01*
X63350000Y-69850000D02*
X63500000Y-69700000D01*
X63500000Y-68600000D02*
X62900000Y-68000000D01*
X63450000Y-69350000D02*
X63500000Y-69400000D01*
X62750000Y-69350000D02*
X63450000Y-69350000D01*
X63500000Y-69700000D02*
X63500000Y-69400000D01*
X63500000Y-69400000D02*
X63500000Y-68600000D01*
X51550000Y-70800000D02*
X52500000Y-70800000D01*
D36*
G04 #@! TO.N,/TX-*
X55960830Y-60046133D02*
X55983608Y-59998834D01*
X55949148Y-60097315D02*
X55960830Y-60046133D01*
X55949148Y-60149813D02*
X55949148Y-60097315D01*
X57456133Y-59318000D02*
X57460000Y-59318000D01*
X55960830Y-60200995D02*
X55949148Y-60149813D01*
X56656133Y-59318000D02*
X57456133Y-59318000D01*
X55983608Y-60248294D02*
X55960830Y-60200995D01*
X56049073Y-60330385D02*
X55983608Y-60248294D01*
X56083533Y-60481364D02*
X56083533Y-60428866D01*
X56071851Y-60532546D02*
X56083533Y-60481364D01*
X56049073Y-60579845D02*
X56071851Y-60532546D01*
X56016341Y-60620890D02*
X56049073Y-60579845D01*
X55994338Y-60642894D02*
X56016341Y-60620890D01*
X55905994Y-60698404D02*
X55953293Y-60675626D01*
X55802314Y-60710086D02*
X55854812Y-60710086D01*
X55751132Y-60698404D02*
X55802314Y-60710086D01*
X55621743Y-60610161D02*
X55703833Y-60675626D01*
X55574444Y-60587383D02*
X55621743Y-60610161D01*
X55470764Y-60575701D02*
X55523262Y-60575701D01*
X55419582Y-60587383D02*
X55470764Y-60575701D01*
X54996727Y-61382732D02*
X55044026Y-61405510D01*
X55095208Y-61417192D02*
X55147706Y-61417192D01*
X55983608Y-59998834D02*
X56016340Y-59957789D01*
X55198888Y-61405510D02*
X55246187Y-61382732D01*
X56071851Y-60377684D02*
X56049073Y-60330385D01*
X55287232Y-61350000D02*
X55309235Y-61327996D01*
X55276502Y-60955400D02*
X55253724Y-60908101D01*
X56083533Y-60428866D02*
X56071851Y-60377684D01*
X55246187Y-61382732D02*
X55287232Y-61350000D01*
X55341967Y-61037491D02*
X55276502Y-60955400D01*
X55854812Y-60710086D02*
X55905994Y-60698404D01*
X54867338Y-61294489D02*
X54914637Y-61317267D01*
X55953293Y-60675626D02*
X55994338Y-60642894D01*
X54816156Y-61282807D02*
X54867338Y-61294489D01*
X54763658Y-61282807D02*
X54816156Y-61282807D01*
X55364745Y-61084790D02*
X55341967Y-61037491D01*
X55703833Y-60675626D02*
X55751132Y-60698404D01*
X54712476Y-61294489D02*
X54763658Y-61282807D01*
X54665177Y-61317267D02*
X54712476Y-61294489D01*
X56144410Y-59829723D02*
X56656133Y-59318000D01*
X55376427Y-61135972D02*
X55364745Y-61084790D01*
X54624133Y-61350000D02*
X54665177Y-61317267D01*
X55242042Y-60804421D02*
X55253724Y-60753239D01*
X55044026Y-61405510D02*
X55095208Y-61417192D01*
X55147706Y-61417192D02*
X55198888Y-61405510D01*
X55242042Y-60856919D02*
X55242042Y-60804421D01*
X54950000Y-65849999D02*
X54850000Y-65749999D01*
X54850000Y-65749999D02*
X54850000Y-65087866D01*
X54914637Y-61317267D02*
X54996727Y-61382732D01*
X55309235Y-61327996D02*
X55341967Y-61286951D01*
X54450000Y-64687866D02*
X54450000Y-61524133D01*
X55523262Y-60575701D02*
X55574444Y-60587383D01*
X54850000Y-65087866D02*
X54450000Y-64687866D01*
X56016340Y-59957789D02*
X56038345Y-59935787D01*
X55364745Y-61239652D02*
X55376427Y-61188470D01*
X55253724Y-60908101D02*
X55242042Y-60856919D01*
X54450000Y-61524133D02*
X54624133Y-61350000D01*
X55341967Y-61286951D02*
X55364745Y-61239652D01*
X56038345Y-59935787D02*
X56144410Y-59829723D01*
X55376427Y-61188470D02*
X55376427Y-61135972D01*
X54950000Y-66375000D02*
X54950000Y-65849999D01*
X55253724Y-60753239D02*
X55276502Y-60705940D01*
X55276502Y-60705940D02*
X55309234Y-60664895D01*
X55309234Y-60664895D02*
X55331239Y-60642894D01*
X55331239Y-60642894D02*
X55372283Y-60610161D01*
X55372283Y-60610161D02*
X55419582Y-60587383D01*
G04 #@! TO.N,/TX+*
X54150000Y-61399867D02*
X56444000Y-59105867D01*
X54550000Y-65749999D02*
X54550000Y-65212134D01*
X54550000Y-65212134D02*
X54150000Y-64812134D01*
X54450000Y-66375000D02*
X54450000Y-65849999D01*
X54150000Y-64812134D02*
X54150000Y-61399867D01*
X56444000Y-59105867D02*
X56444000Y-57540000D01*
X54450000Y-65849999D02*
X54550000Y-65749999D01*
D34*
G04 #@! TO.N,1v2*
X59050000Y-75100000D02*
X59250000Y-75300000D01*
X65150000Y-83250000D02*
X65700000Y-83250000D01*
X65700000Y-83250000D02*
X66900000Y-83250000D01*
X54250000Y-78600000D02*
X54250000Y-79800000D01*
X53100000Y-84750000D02*
X54300000Y-84750000D01*
X54250000Y-78600000D02*
X54250000Y-77850000D01*
X54250000Y-77850000D02*
X54300000Y-77800000D01*
X59050000Y-74400000D02*
X59050000Y-75100000D01*
X59600000Y-74400000D02*
X59050000Y-74400000D01*
X51500000Y-88100000D02*
X51500000Y-87450000D01*
X51800000Y-88400000D02*
X51500000Y-88100000D01*
D36*
X64900000Y-83000000D02*
X64900000Y-83100000D01*
D34*
X64900000Y-83000000D02*
X65150000Y-83250000D01*
X69300000Y-81150000D02*
X69300000Y-82000000D01*
D37*
X58400000Y-82400000D02*
X58000000Y-82000000D01*
X58400000Y-85600000D02*
X58000000Y-86000000D01*
X61600000Y-85600000D02*
X61200000Y-86000000D01*
X61600000Y-82400000D02*
X62000000Y-82800000D01*
D34*
X54250000Y-79800000D02*
X54500000Y-79800000D01*
X54500000Y-79800000D02*
X54900000Y-80200000D01*
X55150000Y-84750000D02*
X55200000Y-84800000D01*
X54300000Y-84750000D02*
X55150000Y-84750000D01*
X59050000Y-73775000D02*
X59600000Y-73775000D01*
X59050000Y-73775000D02*
X59050000Y-74400000D01*
D33*
X51550000Y-73800000D02*
X52500000Y-73800000D01*
D34*
X58700000Y-70300000D02*
X58850000Y-70150000D01*
X58700000Y-72150000D02*
X58700000Y-70300000D01*
X58700000Y-73425000D02*
X59050000Y-73775000D01*
X58700000Y-72150000D02*
X58700000Y-73425000D01*
D37*
G04 #@! TO.N,/FLASH_SDI*
X65725000Y-86800000D02*
X65775000Y-86750000D01*
X62400000Y-87200000D02*
X62800000Y-86800000D01*
X62800000Y-86800000D02*
X65725000Y-86800000D01*
X62400000Y-87200000D02*
X62000000Y-87600000D01*
X62000000Y-87600000D02*
X62000000Y-88400000D01*
D36*
X66465000Y-99040000D02*
X65540000Y-99040000D01*
X65540000Y-99040000D02*
X64700000Y-98200000D01*
X64700000Y-98200000D02*
X61000000Y-98200000D01*
X61000000Y-98200000D02*
X60600000Y-98200000D01*
X58370000Y-95970000D02*
X58350000Y-95950000D01*
X58550000Y-95970000D02*
X58550000Y-96150000D01*
X58550000Y-96150000D02*
X58350000Y-95950000D01*
X60600000Y-98200000D02*
X58550000Y-96150000D01*
X58550000Y-95970000D02*
X58370000Y-95970000D01*
X61370000Y-95970000D02*
X58550000Y-95970000D01*
X61400000Y-89000000D02*
X62000000Y-88400000D01*
X58000000Y-89800000D02*
X58800000Y-89000000D01*
X58800000Y-89000000D02*
X61400000Y-89000000D01*
X58350000Y-95950000D02*
X58000000Y-95600000D01*
X58000000Y-95600000D02*
X58000000Y-89800000D01*
D33*
G04 #@! TO.N,/FLASH_SDO*
X65725000Y-94700000D02*
X66465000Y-93960000D01*
X62640000Y-94700000D02*
X65725000Y-94700000D01*
D37*
X66500000Y-87300000D02*
X66950000Y-87750000D01*
X66500000Y-86300000D02*
X66500000Y-87300000D01*
X66200000Y-86000000D02*
X66500000Y-86300000D01*
X62400000Y-86400000D02*
X62800000Y-86000000D01*
X62800000Y-86000000D02*
X66200000Y-86000000D01*
X67700000Y-87750000D02*
X67700000Y-87700000D01*
X67700000Y-87750000D02*
X68225000Y-87750000D01*
X66950000Y-87750000D02*
X67700000Y-87750000D01*
D33*
G04 #@! TO.N,/FLASH_SS*
X68450000Y-90600000D02*
X68450000Y-89400000D01*
D37*
X68450000Y-88475000D02*
X68225000Y-88250000D01*
X68450000Y-89400000D02*
X68450000Y-88475000D01*
X67600000Y-88250000D02*
X68225000Y-88250000D01*
X66600000Y-88100000D02*
X67450000Y-88100000D01*
X67450000Y-88100000D02*
X67600000Y-88250000D01*
X63150000Y-88800000D02*
X65400000Y-88800000D01*
X62800000Y-88450000D02*
X63150000Y-88800000D01*
X63200000Y-87200000D02*
X62800000Y-87600000D01*
X62800000Y-87600000D02*
X62800000Y-88450000D01*
D36*
X61370000Y-93430000D02*
X61370000Y-93570000D01*
X61370000Y-93570000D02*
X61870000Y-94070000D01*
X61870000Y-94070000D02*
X64450000Y-94070000D01*
X64450000Y-94070000D02*
X64480000Y-94100000D01*
D37*
G04 #@! TO.N,/FLASH_SCK*
X64750000Y-87250000D02*
X65775000Y-87250000D01*
X64400000Y-87600000D02*
X64750000Y-87250000D01*
X63200000Y-88000000D02*
X63600000Y-87600000D01*
X63600000Y-87600000D02*
X64400000Y-87600000D01*
D36*
X65470000Y-97770000D02*
X66465000Y-97770000D01*
X63040000Y-95340000D02*
X65470000Y-97770000D01*
X61370000Y-94700000D02*
X62010000Y-95340000D01*
X62010000Y-95340000D02*
X63040000Y-95340000D01*
D37*
X63200000Y-88025000D02*
X63525000Y-88350000D01*
X63200000Y-88000000D02*
X63200000Y-88025000D01*
D36*
X63100000Y-89800000D02*
X63500000Y-89800000D01*
X61370000Y-94700000D02*
X58600000Y-94700000D01*
X58600000Y-94700000D02*
X58400000Y-94500000D01*
X58400000Y-94500000D02*
X58400000Y-89900000D01*
X58400000Y-89900000D02*
X58950000Y-89350000D01*
X58950000Y-89350000D02*
X62650000Y-89350000D01*
X62650000Y-89350000D02*
X63100000Y-89800000D01*
D37*
G04 #@! TO.N,/FLASH_IO3*
X64000000Y-86400000D02*
X66100000Y-86400000D01*
X66100000Y-86400000D02*
X66200000Y-86500000D01*
X66200000Y-86500000D02*
X66200000Y-87500000D01*
X65950000Y-87750000D02*
X65775000Y-87750000D01*
X66200000Y-87500000D02*
X65950000Y-87750000D01*
D33*
X69300000Y-85350000D02*
X68650000Y-85350000D01*
X68650000Y-85350000D02*
X68100000Y-85350000D01*
D36*
X65775000Y-87750000D02*
X65050000Y-87750000D01*
X68700000Y-85400000D02*
X68650000Y-85350000D01*
X68700000Y-86150000D02*
X68700000Y-85400000D01*
G04 #@! TO.N,/FLASH_IO2*
X68850000Y-87250000D02*
X69250000Y-86850000D01*
X68225000Y-87250000D02*
X68850000Y-87250000D01*
X68225000Y-87250000D02*
X67150000Y-87250000D01*
X67150000Y-87250000D02*
X67000000Y-87100000D01*
X67000000Y-87100000D02*
X67000000Y-86200000D01*
D37*
X64000000Y-85600000D02*
X63700000Y-85300000D01*
D36*
G04 #@! TO.N,/LED3*
X63200000Y-80000000D02*
X63200000Y-79200000D01*
X66500000Y-73300000D02*
X65500000Y-73300000D01*
X64700000Y-74100000D02*
X64700000Y-75400000D01*
X65500000Y-73300000D02*
X64700000Y-74100000D01*
D34*
G04 #@! TO.N,Net-(D1-Pad1)*
X68100000Y-74350000D02*
X67750000Y-74700000D01*
X68100000Y-73300000D02*
X68100000Y-74350000D01*
D36*
G04 #@! TO.N,/LED4*
X64000000Y-80000000D02*
X64000000Y-79200000D01*
X65400000Y-76100000D02*
X66500000Y-76100000D01*
D34*
G04 #@! TO.N,Net-(D2-Pad1)*
X68100000Y-77150000D02*
X67750000Y-77500000D01*
X68100000Y-76100000D02*
X68100000Y-77150000D01*
G04 #@! TO.N,/CDONE*
X68100000Y-81150000D02*
X68100000Y-82350000D01*
D37*
X68000000Y-82350000D02*
X68100000Y-82350000D01*
X67500000Y-82850000D02*
X68000000Y-82350000D01*
X67500000Y-83700000D02*
X67500000Y-82850000D01*
X67350000Y-83850000D02*
X67500000Y-83700000D01*
X64900000Y-83850000D02*
X67350000Y-83850000D01*
X62800000Y-83750000D02*
X62950000Y-83600000D01*
X62000000Y-85350000D02*
X62150000Y-85200000D01*
X62150000Y-85200000D02*
X62700000Y-85200000D01*
X62950000Y-83600000D02*
X64650000Y-83600000D01*
X62700000Y-85200000D02*
X62800000Y-85100000D01*
X64650000Y-83600000D02*
X64900000Y-83850000D01*
X62800000Y-85100000D02*
X62800000Y-83750000D01*
X61600000Y-87200000D02*
X62000000Y-86800000D01*
X62000000Y-86800000D02*
X62000000Y-85350000D01*
D33*
G04 #@! TO.N,/CRESET_B*
X66350000Y-90600000D02*
X65800000Y-90600000D01*
X65300000Y-91100000D02*
X65800000Y-90600000D01*
X65300000Y-94000000D02*
X65300000Y-91100000D01*
X52400000Y-93000000D02*
X53850000Y-93000000D01*
X63000000Y-89200000D02*
X62400000Y-88600000D01*
X62400000Y-88600000D02*
X62400000Y-88000000D01*
X63000000Y-89200000D02*
X64000000Y-89200000D01*
X64300000Y-89500000D02*
X64300000Y-90000000D01*
X64000000Y-89200000D02*
X64300000Y-89500000D01*
X64300000Y-90100000D02*
X65300000Y-91100000D01*
X64300000Y-90000000D02*
X64300000Y-90100000D01*
D34*
G04 #@! TO.N,Net-(C13-Pad2)*
X53950000Y-87800000D02*
X54300000Y-87450000D01*
X52900000Y-87800000D02*
X53950000Y-87800000D01*
D37*
X54450000Y-87600000D02*
X54300000Y-87450000D01*
X60000000Y-88000000D02*
X59600000Y-87600000D01*
X59600000Y-87600000D02*
X54450000Y-87600000D01*
D34*
G04 #@! TO.N,Net-(C13-Pad1)*
X53950000Y-86200000D02*
X54300000Y-86550000D01*
X52900000Y-86200000D02*
X53950000Y-86200000D01*
X51850000Y-86200000D02*
X51500000Y-86550000D01*
X52900000Y-86200000D02*
X51850000Y-86200000D01*
D37*
X54550000Y-86800000D02*
X54300000Y-86550000D01*
X60000000Y-86400000D02*
X59600000Y-86800000D01*
X59600000Y-86800000D02*
X54550000Y-86800000D01*
D33*
G04 #@! TO.N,Net-(C18-Pad1)*
X62750000Y-70350000D02*
X61100000Y-70350000D01*
X60800000Y-70650000D02*
X60800000Y-72150000D01*
X61100000Y-70350000D02*
X60800000Y-70650000D01*
D34*
G04 #@! TO.N,Net-(C19-Pad2)*
X58900000Y-77950000D02*
X59250000Y-78300000D01*
X58900000Y-76800000D02*
X58900000Y-77950000D01*
D37*
X58800000Y-78750000D02*
X59250000Y-78300000D01*
X59200000Y-81600000D02*
X58800000Y-81200000D01*
X58800000Y-81200000D02*
X58800000Y-78750000D01*
D34*
G04 #@! TO.N,Net-(C19-Pad1)*
X60500000Y-75650000D02*
X60150000Y-75300000D01*
X60500000Y-76800000D02*
X60500000Y-75650000D01*
D37*
X60000000Y-81600000D02*
X59600000Y-81200000D01*
X59600000Y-78850000D02*
X60150000Y-78300000D01*
X59600000Y-81200000D02*
X59600000Y-78850000D01*
D34*
X60500000Y-77950000D02*
X60150000Y-78300000D01*
X60500000Y-76800000D02*
X60500000Y-77950000D01*
D35*
G04 #@! TO.N,Net-(C27-Pad1)*
X60950000Y-104350000D02*
X60900000Y-104400000D01*
X60950000Y-103000000D02*
X60950000Y-104350000D01*
X61650000Y-104400000D02*
X60900000Y-104400000D01*
X60900000Y-104400000D02*
X60450000Y-104400000D01*
D34*
G04 #@! TO.N,Net-(D3-Pad1)*
X68100000Y-78900000D02*
X68100000Y-80250000D01*
D35*
G04 #@! TO.N,Net-(D4-Pad1)*
X60000000Y-112000000D02*
X60000000Y-105700000D01*
X59550000Y-105250000D02*
X59550000Y-104400000D01*
X60000000Y-105700000D02*
X59550000Y-105250000D01*
X58350000Y-104400000D02*
X59550000Y-104400000D01*
D36*
G04 #@! TO.N,Net-(IC1-Pad9)*
X53142000Y-66192000D02*
X53300000Y-66350000D01*
X53142000Y-64144000D02*
X53142000Y-66192000D01*
D33*
G04 #@! TO.N,Net-(IC1-Pad11)*
X64572000Y-64222000D02*
X66750000Y-66400000D01*
X64572000Y-64144000D02*
X64572000Y-64222000D01*
D34*
G04 #@! TO.N,Net-(IC2-Pad8)*
X64650000Y-69350000D02*
X65150000Y-69350000D01*
X66375000Y-68125000D02*
X67600000Y-68125000D01*
X65150000Y-69350000D02*
X66375000Y-68125000D01*
D36*
G04 #@! TO.N,/ADC_~CS*
X56400000Y-96400000D02*
X59050000Y-99050000D01*
X56800000Y-88000000D02*
X56400000Y-88400000D01*
X59050000Y-99050000D02*
X59050000Y-100400000D01*
X56400000Y-88400000D02*
X56400000Y-96400000D01*
G04 #@! TO.N,/ADC_DOUT*
X57600000Y-88000000D02*
X56800000Y-88800000D01*
X56800000Y-88800000D02*
X56800000Y-96200000D01*
X60000000Y-99400000D02*
X60000000Y-100400000D01*
X56800000Y-96200000D02*
X60000000Y-99400000D01*
G04 #@! TO.N,/ADC_SCLK*
X58400000Y-88000000D02*
X57200000Y-89200000D01*
X57200000Y-89200000D02*
X57200000Y-96000000D01*
X60950000Y-99750000D02*
X60950000Y-100400000D01*
X57200000Y-96000000D02*
X60950000Y-99750000D01*
G04 #@! TO.N,/RX+*
X60350000Y-59800000D02*
X60350000Y-60637866D01*
X55950000Y-65849999D02*
X55950000Y-66375000D01*
X60450000Y-59700000D02*
X60350000Y-59800000D01*
X60450000Y-58900000D02*
X60450000Y-59700000D01*
X60350000Y-60637866D02*
X56050000Y-64937866D01*
X58476000Y-57540000D02*
X59090000Y-57540000D01*
X59090000Y-57540000D02*
X60450000Y-58900000D01*
X56050000Y-64937866D02*
X56050000Y-65749999D01*
X56050000Y-65749999D02*
X55950000Y-65849999D01*
G04 #@! TO.N,/RX-*
X60650000Y-60762134D02*
X60650000Y-59950000D01*
X60225462Y-61884913D02*
X60249752Y-61834475D01*
X60190558Y-61928682D02*
X60225462Y-61884913D01*
X60146789Y-61963586D02*
X60190558Y-61928682D01*
X60096351Y-61987876D02*
X60146789Y-61963586D01*
X60041772Y-62000333D02*
X60096351Y-61987876D01*
X59985790Y-62000333D02*
X60041772Y-62000333D01*
X59931211Y-61987876D02*
X59985790Y-62000333D01*
X59880773Y-61963586D02*
X59931211Y-61987876D01*
X59742798Y-61869487D02*
X59793236Y-61893777D01*
X59688219Y-61857030D02*
X59742798Y-61869487D01*
X59632237Y-61857030D02*
X59688219Y-61857030D01*
X59577658Y-61869487D02*
X59632237Y-61857030D01*
X59527220Y-61893777D02*
X59577658Y-61869487D01*
X59483452Y-61928682D02*
X59527220Y-61893777D01*
X59448547Y-61972449D02*
X59483452Y-61928682D01*
X59424257Y-62022887D02*
X59448547Y-61972449D01*
X59411800Y-62077466D02*
X59424257Y-62022887D01*
X59411800Y-62133448D02*
X59411800Y-62077466D01*
X59518356Y-62592019D02*
X59542646Y-62541581D01*
X58274007Y-63271242D02*
X58328586Y-63283699D01*
X59483452Y-62635788D02*
X59518356Y-62592019D01*
X58218025Y-63271242D02*
X58274007Y-63271242D01*
X59439683Y-62670692D02*
X59483452Y-62635788D01*
X58163446Y-63283699D02*
X58218025Y-63271242D01*
X59389245Y-62694982D02*
X59439683Y-62670692D01*
X58034335Y-63386661D02*
X58069240Y-63342894D01*
X59224105Y-62694982D02*
X59278684Y-62707439D01*
X59173667Y-62670692D02*
X59224105Y-62694982D01*
X60650000Y-59950000D02*
X61282000Y-59318000D01*
X57997588Y-63491678D02*
X58010045Y-63437099D01*
X59086130Y-62600883D02*
X59173667Y-62670692D01*
X58128434Y-63790653D02*
X58104144Y-63740215D01*
X57920454Y-64121651D02*
X57975033Y-64109194D01*
X59035692Y-62576593D02*
X59086130Y-62600883D01*
X58140891Y-63845232D02*
X58128434Y-63790653D01*
X58981113Y-62564136D02*
X59035692Y-62576593D01*
X58140891Y-63901214D02*
X58140891Y-63845232D01*
X58466561Y-63377798D02*
X58516999Y-63402088D01*
X59555103Y-62487002D02*
X59555103Y-62431020D01*
X59518356Y-62326003D02*
X59448547Y-62238465D01*
X56450000Y-66375000D02*
X56450000Y-65849999D01*
X60249752Y-61669335D02*
X60225462Y-61618897D01*
X58835540Y-63083547D02*
X58811250Y-63033109D01*
X56350000Y-65062134D02*
X57362134Y-64050000D01*
X58104144Y-63740215D02*
X58034335Y-63652677D01*
X57975033Y-64109194D02*
X58025471Y-64084904D01*
X57621480Y-63990805D02*
X57671918Y-64015095D01*
X57997588Y-63547660D02*
X57997588Y-63491678D01*
X56450000Y-65849999D02*
X56350000Y-65749999D01*
X57405902Y-64015095D02*
X57456340Y-63990805D01*
X58571578Y-63414545D02*
X58627560Y-63414545D01*
X58010045Y-63602239D02*
X57997588Y-63547660D01*
X58925131Y-62564136D02*
X58981113Y-62564136D01*
X56350000Y-65749999D02*
X56350000Y-65062134D01*
X57510919Y-63978348D02*
X57566901Y-63978348D01*
X59555103Y-62431020D02*
X59542646Y-62376441D01*
X59424257Y-62188027D02*
X59411800Y-62133448D01*
X57759455Y-64084904D02*
X57809893Y-64109194D01*
X58010045Y-63437099D02*
X58034335Y-63386661D01*
X57456340Y-63990805D02*
X57510919Y-63978348D01*
X60155653Y-61531359D02*
X60131363Y-61480921D01*
X58741441Y-62945571D02*
X58717151Y-62895133D01*
X58025471Y-64084904D02*
X58069240Y-64050000D01*
X58034335Y-63652677D02*
X58010045Y-63602239D01*
X57566901Y-63978348D02*
X57621480Y-63990805D01*
X57671918Y-64015095D02*
X57759455Y-64084904D01*
X58069240Y-63342894D02*
X58113008Y-63307989D01*
X59278684Y-62707439D02*
X59334666Y-62707439D01*
X58113008Y-63307989D02*
X58163446Y-63283699D01*
X58104144Y-64006231D02*
X58128434Y-63955793D01*
X58776346Y-63342894D02*
X58811250Y-63299125D01*
X58516999Y-63402088D02*
X58571578Y-63414545D01*
X57809893Y-64109194D02*
X57864472Y-64121651D01*
X59793236Y-61893777D02*
X59880773Y-61963586D01*
X58128434Y-63955793D02*
X58140891Y-63901214D01*
X58811250Y-63299125D02*
X58835540Y-63248687D01*
X58069240Y-64050000D02*
X58104144Y-64006231D01*
X58379024Y-63307989D02*
X58466561Y-63377798D01*
X57362134Y-64050000D02*
X57405902Y-64015095D01*
X59542646Y-62541581D02*
X59555103Y-62487002D01*
X58328586Y-63283699D02*
X58379024Y-63307989D01*
X58627560Y-63414545D02*
X58682139Y-63402088D01*
X58682139Y-63402088D02*
X58732577Y-63377798D01*
X58732577Y-63377798D02*
X58776346Y-63342894D01*
X60249752Y-61834475D02*
X60262209Y-61779896D01*
X58835540Y-63248687D02*
X58847997Y-63194108D01*
X61282000Y-59318000D02*
X61482000Y-59318000D01*
X60262209Y-61779896D02*
X60262209Y-61723914D01*
X58847997Y-63194108D02*
X58847997Y-63138126D01*
X61482000Y-59318000D02*
X61524000Y-59318000D01*
X60262209Y-61723914D02*
X60249752Y-61669335D01*
X58847997Y-63138126D02*
X58835540Y-63083547D01*
X60225462Y-61618897D02*
X60155653Y-61531359D01*
X58811250Y-63033109D02*
X58741441Y-62945571D01*
X60131363Y-61480921D02*
X60118906Y-61426342D01*
X58717151Y-62895133D02*
X58704694Y-62840554D01*
X60118906Y-61426342D02*
X60118906Y-61370360D01*
X58704694Y-62840554D02*
X58704694Y-62784572D01*
X60118906Y-61370360D02*
X60131363Y-61315781D01*
X58704694Y-62784572D02*
X58717151Y-62729993D01*
X60131363Y-61315781D02*
X60155653Y-61265343D01*
X58717151Y-62729993D02*
X58741441Y-62679555D01*
X60155653Y-61265343D02*
X60190558Y-61221575D01*
X58741441Y-62679555D02*
X58776346Y-62635788D01*
X60190558Y-61221575D02*
X60296623Y-61115511D01*
X58776346Y-62635788D02*
X58820114Y-62600883D01*
X60296623Y-61115511D02*
X60650000Y-60762134D01*
X57864472Y-64121651D02*
X57920454Y-64121651D01*
X58820114Y-62600883D02*
X58870552Y-62576593D01*
X58870552Y-62576593D02*
X58925131Y-62564136D01*
X59334666Y-62707439D02*
X59389245Y-62694982D01*
X59448547Y-62238465D02*
X59424257Y-62188027D01*
X59542646Y-62376441D02*
X59518356Y-62326003D01*
G04 #@! TO.N,/TDESD-*
X53200000Y-81150000D02*
X53350000Y-81000000D01*
X52000000Y-81150000D02*
X53200000Y-81150000D01*
X54850000Y-68785214D02*
X54850000Y-68050001D01*
X54850000Y-68050001D02*
X54950000Y-67950001D01*
X54855826Y-68836926D02*
X54850000Y-68785214D01*
X54950000Y-67950001D02*
X54950000Y-67425000D01*
X54873014Y-68886045D02*
X54855826Y-68836926D01*
X54981561Y-68994592D02*
X54937498Y-68966906D01*
X55134105Y-69023433D02*
X55030680Y-69011780D01*
X55227287Y-69068307D02*
X55183224Y-69040621D01*
X55291771Y-69149168D02*
X55264085Y-69105105D01*
X55314786Y-69250000D02*
X55308959Y-69198287D01*
X55314786Y-69285214D02*
X55314786Y-69250000D01*
X54937498Y-68966906D02*
X54900700Y-68930108D01*
X55308959Y-69336926D02*
X55314786Y-69285214D01*
X55264085Y-69105105D02*
X55227287Y-69068307D01*
X55291771Y-69386045D02*
X55308959Y-69336926D01*
X55183224Y-69040621D02*
X55134105Y-69023433D01*
X51200000Y-81287866D02*
X51200000Y-79062134D01*
X54850000Y-75412134D02*
X54850000Y-69750000D01*
X55030680Y-69523433D02*
X55134105Y-69511780D01*
X54850000Y-69750000D02*
X54855826Y-69698287D01*
X52000000Y-81150000D02*
X51700000Y-81450000D01*
X54900700Y-68930108D02*
X54873014Y-68886045D01*
X55308959Y-69198287D02*
X55291771Y-69149168D01*
X54855826Y-69698287D02*
X54873014Y-69649168D01*
X54873014Y-69649168D02*
X54900700Y-69605105D01*
X51200000Y-79062134D02*
X54850000Y-75412134D01*
X51700000Y-81450000D02*
X51362134Y-81450000D01*
X55264085Y-69430108D02*
X55291771Y-69386045D01*
X54900700Y-69605105D02*
X54937498Y-69568307D01*
X54981561Y-69540621D02*
X55030680Y-69523433D01*
X55030680Y-69011780D02*
X54981561Y-68994592D01*
X51362134Y-81450000D02*
X51200000Y-81287866D01*
X54937498Y-69568307D02*
X54981561Y-69540621D01*
X55134105Y-69511780D02*
X55183224Y-69494592D01*
X55183224Y-69494592D02*
X55227287Y-69466906D01*
X55227287Y-69466906D02*
X55264085Y-69430108D01*
G04 #@! TO.N,/TDESD+*
X53200000Y-82050000D02*
X53350000Y-82200000D01*
X52000000Y-82050000D02*
X53200000Y-82050000D01*
X51700000Y-81750000D02*
X51237866Y-81750000D01*
X52000000Y-82050000D02*
X51700000Y-81750000D01*
X51237866Y-81750000D02*
X50900000Y-81412134D01*
X50900000Y-81412134D02*
X50900000Y-78937866D01*
X54450000Y-67950001D02*
X54450000Y-67425000D01*
X54550000Y-68050001D02*
X54450000Y-67950001D01*
X54550000Y-75287866D02*
X54550000Y-68050001D01*
X50900000Y-78937866D02*
X54550000Y-75287866D01*
D33*
G04 #@! TO.N,/USERSW1*
X55050000Y-102700000D02*
X55200000Y-102550000D01*
X52400000Y-102700000D02*
X55050000Y-102700000D01*
D36*
X56000000Y-101750000D02*
X55200000Y-102550000D01*
X56000000Y-88000000D02*
X56000000Y-101750000D01*
D33*
G04 #@! TO.N,/USERSW2*
X67450000Y-102550000D02*
X67600000Y-102700000D01*
X64800000Y-102550000D02*
X67450000Y-102550000D01*
D36*
X57600000Y-89600000D02*
X57600000Y-95800000D01*
X64350000Y-102550000D02*
X64800000Y-102550000D01*
X57600000Y-95800000D02*
X64350000Y-102550000D01*
X57600000Y-89600000D02*
X58600000Y-88600000D01*
X60200000Y-88600000D02*
X60800000Y-88000000D01*
X58600000Y-88600000D02*
X60200000Y-88600000D01*
G04 #@! TD*
D38*
G04 #@! TO.N,GND*
G36*
X50739761Y-89941842D02*
X50787184Y-90012816D01*
X51068347Y-90200682D01*
X51316285Y-90250000D01*
X51399999Y-90266652D01*
X51483713Y-90250000D01*
X51869612Y-90250000D01*
X52111033Y-90350000D01*
X52140000Y-90350000D01*
X52140000Y-90350002D01*
X52302498Y-90350002D01*
X52140000Y-90512500D01*
X52140000Y-90689293D01*
X52238957Y-90928195D01*
X52421805Y-91111043D01*
X52660707Y-91210000D01*
X52837500Y-91210000D01*
X53000000Y-91047500D01*
X53000000Y-90350000D01*
X52980000Y-90350000D01*
X52980000Y-90322734D01*
X53220000Y-90322734D01*
X53220000Y-90350000D01*
X53200000Y-90350000D01*
X53200000Y-91047500D01*
X53362500Y-91210000D01*
X53539293Y-91210000D01*
X53700000Y-91143433D01*
X53860707Y-91210000D01*
X54037500Y-91210000D01*
X54200000Y-91047500D01*
X54200000Y-90350000D01*
X54180000Y-90350000D01*
X54180000Y-90322734D01*
X54420000Y-90322734D01*
X54420000Y-90350000D01*
X54400000Y-90350000D01*
X54400000Y-91047500D01*
X54562500Y-91210000D01*
X54739293Y-91210000D01*
X54978195Y-91111043D01*
X55161043Y-90928195D01*
X55260000Y-90689293D01*
X55260000Y-90512500D01*
X55097502Y-90350002D01*
X55260000Y-90350002D01*
X55260000Y-90300000D01*
X55275000Y-90300000D01*
X55275001Y-101449694D01*
X55147429Y-101577266D01*
X54890000Y-101577266D01*
X54636383Y-101627714D01*
X54421376Y-101771376D01*
X54302024Y-101950000D01*
X53713005Y-101950000D01*
X53712286Y-101946383D01*
X53568624Y-101731376D01*
X53353617Y-101587714D01*
X53100000Y-101537266D01*
X51700000Y-101537266D01*
X51446383Y-101587714D01*
X51231376Y-101731376D01*
X51087714Y-101946383D01*
X51037266Y-102200000D01*
X51037266Y-103200000D01*
X51087714Y-103453617D01*
X51231376Y-103668624D01*
X51446383Y-103812286D01*
X51700000Y-103862734D01*
X53100000Y-103862734D01*
X53353617Y-103812286D01*
X53568624Y-103668624D01*
X53712286Y-103453617D01*
X53713005Y-103450000D01*
X54227266Y-103450000D01*
X54227266Y-103760000D01*
X54277714Y-104013617D01*
X54311085Y-104063561D01*
X54250000Y-104211033D01*
X54250000Y-104588967D01*
X54394629Y-104938132D01*
X54661868Y-105205371D01*
X55011033Y-105350000D01*
X55388967Y-105350000D01*
X55738132Y-105205371D01*
X56005371Y-104938132D01*
X56119541Y-104662500D01*
X56490000Y-104662500D01*
X56490000Y-104839293D01*
X56588957Y-105078195D01*
X56771805Y-105261043D01*
X57010707Y-105360000D01*
X57187500Y-105360000D01*
X57350000Y-105197500D01*
X57350000Y-104500000D01*
X56652500Y-104500000D01*
X56490000Y-104662500D01*
X56119541Y-104662500D01*
X56150000Y-104588967D01*
X56150000Y-104211033D01*
X56088915Y-104063561D01*
X56122286Y-104013617D01*
X56130221Y-103973724D01*
X56161868Y-104005371D01*
X56496466Y-104143966D01*
X56652500Y-104300000D01*
X57350000Y-104300000D01*
X57350000Y-104280000D01*
X57377266Y-104280000D01*
X57377266Y-104710000D01*
X57427714Y-104963617D01*
X57550000Y-105146632D01*
X57550000Y-105197500D01*
X57712500Y-105360000D01*
X57889293Y-105360000D01*
X57917417Y-105348351D01*
X58040000Y-105372734D01*
X58605802Y-105372734D01*
X58655120Y-105620670D01*
X58865089Y-105934911D01*
X58944409Y-105987911D01*
X59050001Y-106093503D01*
X59050000Y-110616548D01*
X58601198Y-111065350D01*
X58350000Y-111671795D01*
X58350000Y-112328205D01*
X58601198Y-112934650D01*
X59065350Y-113398802D01*
X59671795Y-113650000D01*
X60328205Y-113650000D01*
X60934650Y-113398802D01*
X61398802Y-112934650D01*
X61650000Y-112328205D01*
X61650000Y-111671795D01*
X61398802Y-111065350D01*
X60950000Y-110616548D01*
X60950000Y-110276306D01*
X61865116Y-110276306D01*
X62033758Y-110612964D01*
X62862204Y-110951918D01*
X63757302Y-110948038D01*
X64566242Y-110612964D01*
X64734884Y-110276306D01*
X63300000Y-108841421D01*
X61865116Y-110276306D01*
X60950000Y-110276306D01*
X60950000Y-108262204D01*
X61048082Y-108262204D01*
X61051962Y-109157302D01*
X61387036Y-109966242D01*
X61723694Y-110134884D01*
X63158579Y-108700000D01*
X63441421Y-108700000D01*
X64876306Y-110134884D01*
X65212964Y-109966242D01*
X65214495Y-109962500D01*
X66250000Y-109962500D01*
X66250000Y-110329293D01*
X66348957Y-110568195D01*
X66531805Y-110751043D01*
X66770707Y-110850000D01*
X67337500Y-110850000D01*
X67500000Y-110687500D01*
X67500000Y-109800000D01*
X67700000Y-109800000D01*
X67700000Y-110687500D01*
X67862500Y-110850000D01*
X68429293Y-110850000D01*
X68668195Y-110751043D01*
X68851043Y-110568195D01*
X68950000Y-110329293D01*
X68950000Y-109962500D01*
X68787500Y-109800000D01*
X67700000Y-109800000D01*
X67500000Y-109800000D01*
X66412500Y-109800000D01*
X66250000Y-109962500D01*
X65214495Y-109962500D01*
X65551918Y-109137796D01*
X65551628Y-109070707D01*
X66250000Y-109070707D01*
X66250000Y-109437500D01*
X66412500Y-109600000D01*
X67500000Y-109600000D01*
X67500000Y-108712500D01*
X67700000Y-108712500D01*
X67700000Y-109600000D01*
X68787500Y-109600000D01*
X68950000Y-109437500D01*
X68950000Y-109070707D01*
X68851043Y-108831805D01*
X68668195Y-108648957D01*
X68429293Y-108550000D01*
X67862500Y-108550000D01*
X67700000Y-108712500D01*
X67500000Y-108712500D01*
X67337500Y-108550000D01*
X66770707Y-108550000D01*
X66531805Y-108648957D01*
X66348957Y-108831805D01*
X66250000Y-109070707D01*
X65551628Y-109070707D01*
X65548038Y-108242698D01*
X65212964Y-107433758D01*
X64876306Y-107265116D01*
X63441421Y-108700000D01*
X63158579Y-108700000D01*
X61723694Y-107265116D01*
X61387036Y-107433758D01*
X61048082Y-108262204D01*
X60950000Y-108262204D01*
X60950000Y-107123694D01*
X61865116Y-107123694D01*
X63300000Y-108558579D01*
X64734884Y-107123694D01*
X64566242Y-106787036D01*
X63737796Y-106448082D01*
X62842698Y-106451962D01*
X62033758Y-106787036D01*
X61865116Y-107123694D01*
X60950000Y-107123694D01*
X60950000Y-105793558D01*
X60968610Y-105699999D01*
X60950000Y-105606440D01*
X60950000Y-105606436D01*
X60902591Y-105368095D01*
X60993559Y-105350000D01*
X61225709Y-105350000D01*
X61340000Y-105372734D01*
X61960000Y-105372734D01*
X62082583Y-105348351D01*
X62110707Y-105360000D01*
X62287500Y-105360000D01*
X62450000Y-105197500D01*
X62450000Y-105146632D01*
X62572286Y-104963617D01*
X62622734Y-104710000D01*
X62622734Y-104500000D01*
X62650000Y-104500000D01*
X62650000Y-105197500D01*
X62812500Y-105360000D01*
X62989293Y-105360000D01*
X63228195Y-105261043D01*
X63411043Y-105078195D01*
X63510000Y-104839293D01*
X63510000Y-104662500D01*
X63347500Y-104500000D01*
X62650000Y-104500000D01*
X62622734Y-104500000D01*
X62622734Y-104090000D01*
X62572286Y-103836383D01*
X62450000Y-103653368D01*
X62450000Y-103602500D01*
X62650000Y-103602500D01*
X62650000Y-104300000D01*
X63347500Y-104300000D01*
X63510000Y-104137500D01*
X63510000Y-103960707D01*
X63411043Y-103721805D01*
X63228195Y-103538957D01*
X62989293Y-103440000D01*
X62812500Y-103440000D01*
X62650000Y-103602500D01*
X62450000Y-103602500D01*
X62287500Y-103440000D01*
X62110707Y-103440000D01*
X62082583Y-103451649D01*
X61960000Y-103427266D01*
X61912734Y-103427266D01*
X61912734Y-102450000D01*
X61862286Y-102196383D01*
X61718624Y-101981376D01*
X61503617Y-101837714D01*
X61250000Y-101787266D01*
X60650000Y-101787266D01*
X60480127Y-101821056D01*
X60429293Y-101800000D01*
X60262500Y-101800000D01*
X60100000Y-101962500D01*
X60100000Y-102103165D01*
X60037714Y-102196383D01*
X60000000Y-102385982D01*
X59962286Y-102196383D01*
X59900000Y-102103165D01*
X59900000Y-101962500D01*
X59737500Y-101800000D01*
X59570707Y-101800000D01*
X59519873Y-101821056D01*
X59350000Y-101787266D01*
X58750000Y-101787266D01*
X58496383Y-101837714D01*
X58460000Y-101862024D01*
X58460000Y-101810707D01*
X58361043Y-101571805D01*
X58178195Y-101388957D01*
X57939293Y-101290000D01*
X57762500Y-101290000D01*
X57600000Y-101452500D01*
X57600000Y-102150000D01*
X57620000Y-102150000D01*
X57620000Y-102177266D01*
X57380000Y-102177266D01*
X57380000Y-102150000D01*
X57400000Y-102150000D01*
X57400000Y-101452500D01*
X57237500Y-101290000D01*
X57060707Y-101290000D01*
X56821805Y-101388957D01*
X56725000Y-101485762D01*
X56725000Y-97750304D01*
X58325000Y-99350305D01*
X58325000Y-99352227D01*
X58281376Y-99381376D01*
X58137714Y-99596383D01*
X58087266Y-99850000D01*
X58087266Y-100950000D01*
X58137714Y-101203617D01*
X58281376Y-101418624D01*
X58496383Y-101562286D01*
X58750000Y-101612734D01*
X59350000Y-101612734D01*
X59525000Y-101577924D01*
X59700000Y-101612734D01*
X60300000Y-101612734D01*
X60475000Y-101577924D01*
X60650000Y-101612734D01*
X61250000Y-101612734D01*
X61503617Y-101562286D01*
X61718624Y-101418624D01*
X61862286Y-101203617D01*
X61881536Y-101106840D01*
X63786857Y-103012161D01*
X63827305Y-103072695D01*
X63839088Y-103080568D01*
X63827266Y-103140000D01*
X63827266Y-103760000D01*
X63877714Y-104013617D01*
X63911085Y-104063561D01*
X63850000Y-104211033D01*
X63850000Y-104588967D01*
X63994629Y-104938132D01*
X64261868Y-105205371D01*
X64611033Y-105350000D01*
X64988967Y-105350000D01*
X65338132Y-105205371D01*
X65605371Y-104938132D01*
X65750000Y-104588967D01*
X65750000Y-104211033D01*
X65688915Y-104063561D01*
X65722286Y-104013617D01*
X65772734Y-103760000D01*
X65772734Y-103300000D01*
X66257157Y-103300000D01*
X66287714Y-103453617D01*
X66431376Y-103668624D01*
X66646383Y-103812286D01*
X66900000Y-103862734D01*
X68300000Y-103862734D01*
X68553617Y-103812286D01*
X68768624Y-103668624D01*
X68912286Y-103453617D01*
X68962734Y-103200000D01*
X68962734Y-102200000D01*
X68912286Y-101946383D01*
X68768624Y-101731376D01*
X68553617Y-101587714D01*
X68300000Y-101537266D01*
X66900000Y-101537266D01*
X66646383Y-101587714D01*
X66431376Y-101731376D01*
X66385523Y-101800000D01*
X65597750Y-101800000D01*
X65578624Y-101771376D01*
X65363617Y-101627714D01*
X65110000Y-101577266D01*
X64490000Y-101577266D01*
X64417076Y-101591772D01*
X63500002Y-100674698D01*
X63500002Y-100647502D01*
X63662500Y-100810000D01*
X63839293Y-100810000D01*
X64078195Y-100711043D01*
X64261043Y-100528195D01*
X64360000Y-100289293D01*
X64360000Y-100162081D01*
X64939763Y-100741845D01*
X64987184Y-100812816D01*
X65268347Y-101000682D01*
X65516285Y-101050000D01*
X65516286Y-101050000D01*
X65600000Y-101066652D01*
X65683714Y-101050000D01*
X67016286Y-101050000D01*
X67100000Y-101066652D01*
X67183714Y-101050000D01*
X67183715Y-101050000D01*
X67431653Y-101000682D01*
X67712816Y-100812816D01*
X67760239Y-100741842D01*
X68276844Y-100225237D01*
X68347816Y-100177816D01*
X68500037Y-99950000D01*
X68535682Y-99896654D01*
X68540568Y-99872092D01*
X68716705Y-99695955D01*
X68893000Y-99270341D01*
X68893000Y-98809659D01*
X68717130Y-98385071D01*
X68745543Y-98380596D01*
X68902285Y-97947399D01*
X68881318Y-97487195D01*
X68745543Y-97159404D01*
X68590606Y-97135000D01*
X68745543Y-97110596D01*
X68902285Y-96677399D01*
X68881318Y-96217195D01*
X68745543Y-95889404D01*
X68717130Y-95884929D01*
X68893000Y-95460341D01*
X68893000Y-94999659D01*
X68717130Y-94575071D01*
X68745543Y-94570596D01*
X68902285Y-94137399D01*
X68881318Y-93677195D01*
X68745543Y-93349404D01*
X68522197Y-93314225D01*
X67876421Y-93960000D01*
X67890564Y-93974143D01*
X67792706Y-94072000D01*
X67677294Y-94072000D01*
X67623000Y-94017706D01*
X67623000Y-93902294D01*
X67720858Y-93804437D01*
X67735000Y-93818579D01*
X68380775Y-93172803D01*
X68345596Y-92949457D01*
X67912399Y-92792715D01*
X67452195Y-92813682D01*
X67124404Y-92949457D01*
X67119929Y-92977870D01*
X66695341Y-92802000D01*
X66234659Y-92802000D01*
X66050000Y-92878488D01*
X66050000Y-91572734D01*
X66350000Y-91572734D01*
X66350000Y-91688967D01*
X66494629Y-92038132D01*
X66761868Y-92305371D01*
X67111033Y-92450000D01*
X67488967Y-92450000D01*
X67838132Y-92305371D01*
X68105371Y-92038132D01*
X68250000Y-91688967D01*
X68250000Y-91572734D01*
X68760000Y-91572734D01*
X68882583Y-91548351D01*
X68910707Y-91560000D01*
X69087500Y-91560000D01*
X69250000Y-91397500D01*
X69250000Y-91346632D01*
X69350001Y-91196970D01*
X69350001Y-118935974D01*
X69311593Y-119129067D01*
X69238483Y-119238483D01*
X69129068Y-119311592D01*
X68935979Y-119350000D01*
X51064021Y-119350000D01*
X50870933Y-119311593D01*
X50761517Y-119238483D01*
X50688408Y-119129068D01*
X50650000Y-118935979D01*
X50650000Y-116876306D01*
X55265116Y-116876306D01*
X55433758Y-117212964D01*
X56262204Y-117551918D01*
X57157302Y-117548038D01*
X57966242Y-117212964D01*
X58134884Y-116876306D01*
X61865116Y-116876306D01*
X62033758Y-117212964D01*
X62862204Y-117551918D01*
X63757302Y-117548038D01*
X64566242Y-117212964D01*
X64734884Y-116876306D01*
X63300000Y-115441421D01*
X61865116Y-116876306D01*
X58134884Y-116876306D01*
X56700000Y-115441421D01*
X55265116Y-116876306D01*
X50650000Y-116876306D01*
X50650000Y-114862204D01*
X54448082Y-114862204D01*
X54451962Y-115757302D01*
X54787036Y-116566242D01*
X55123694Y-116734884D01*
X56558579Y-115300000D01*
X56841421Y-115300000D01*
X58276306Y-116734884D01*
X58612964Y-116566242D01*
X58951918Y-115737796D01*
X58948123Y-114862204D01*
X61048082Y-114862204D01*
X61051962Y-115757302D01*
X61387036Y-116566242D01*
X61723694Y-116734884D01*
X63158579Y-115300000D01*
X63441421Y-115300000D01*
X64876306Y-116734884D01*
X65212964Y-116566242D01*
X65551918Y-115737796D01*
X65548038Y-114842698D01*
X65212964Y-114033758D01*
X64876306Y-113865116D01*
X63441421Y-115300000D01*
X63158579Y-115300000D01*
X61723694Y-113865116D01*
X61387036Y-114033758D01*
X61048082Y-114862204D01*
X58948123Y-114862204D01*
X58948038Y-114842698D01*
X58612964Y-114033758D01*
X58276306Y-113865116D01*
X56841421Y-115300000D01*
X56558579Y-115300000D01*
X55123694Y-113865116D01*
X54787036Y-114033758D01*
X54448082Y-114862204D01*
X50650000Y-114862204D01*
X50650000Y-113723694D01*
X55265116Y-113723694D01*
X56700000Y-115158579D01*
X58134884Y-113723694D01*
X61865116Y-113723694D01*
X63300000Y-115158579D01*
X64734884Y-113723694D01*
X64566242Y-113387036D01*
X63737796Y-113048082D01*
X62842698Y-113051962D01*
X62033758Y-113387036D01*
X61865116Y-113723694D01*
X58134884Y-113723694D01*
X57966242Y-113387036D01*
X57137796Y-113048082D01*
X56242698Y-113051962D01*
X55433758Y-113387036D01*
X55265116Y-113723694D01*
X50650000Y-113723694D01*
X50650000Y-109962500D01*
X51050000Y-109962500D01*
X51050000Y-110329293D01*
X51148957Y-110568195D01*
X51331805Y-110751043D01*
X51570707Y-110850000D01*
X52137500Y-110850000D01*
X52300000Y-110687500D01*
X52300000Y-109800000D01*
X52500000Y-109800000D01*
X52500000Y-110687500D01*
X52662500Y-110850000D01*
X53229293Y-110850000D01*
X53468195Y-110751043D01*
X53651043Y-110568195D01*
X53750000Y-110329293D01*
X53750000Y-110276306D01*
X55265116Y-110276306D01*
X55433758Y-110612964D01*
X56262204Y-110951918D01*
X57157302Y-110948038D01*
X57966242Y-110612964D01*
X58134884Y-110276306D01*
X56700000Y-108841421D01*
X55265116Y-110276306D01*
X53750000Y-110276306D01*
X53750000Y-109962500D01*
X53587500Y-109800000D01*
X52500000Y-109800000D01*
X52300000Y-109800000D01*
X51212500Y-109800000D01*
X51050000Y-109962500D01*
X50650000Y-109962500D01*
X50650000Y-109070707D01*
X51050000Y-109070707D01*
X51050000Y-109437500D01*
X51212500Y-109600000D01*
X52300000Y-109600000D01*
X52300000Y-108712500D01*
X52500000Y-108712500D01*
X52500000Y-109600000D01*
X53587500Y-109600000D01*
X53750000Y-109437500D01*
X53750000Y-109070707D01*
X53651043Y-108831805D01*
X53468195Y-108648957D01*
X53229293Y-108550000D01*
X52662500Y-108550000D01*
X52500000Y-108712500D01*
X52300000Y-108712500D01*
X52137500Y-108550000D01*
X51570707Y-108550000D01*
X51331805Y-108648957D01*
X51148957Y-108831805D01*
X51050000Y-109070707D01*
X50650000Y-109070707D01*
X50650000Y-108262204D01*
X54448082Y-108262204D01*
X54451962Y-109157302D01*
X54787036Y-109966242D01*
X55123694Y-110134884D01*
X56558579Y-108700000D01*
X56841421Y-108700000D01*
X58276306Y-110134884D01*
X58612964Y-109966242D01*
X58951918Y-109137796D01*
X58948038Y-108242698D01*
X58612964Y-107433758D01*
X58276306Y-107265116D01*
X56841421Y-108700000D01*
X56558579Y-108700000D01*
X55123694Y-107265116D01*
X54787036Y-107433758D01*
X54448082Y-108262204D01*
X50650000Y-108262204D01*
X50650000Y-107123694D01*
X55265116Y-107123694D01*
X56700000Y-108558579D01*
X58134884Y-107123694D01*
X57966242Y-106787036D01*
X57137796Y-106448082D01*
X56242698Y-106451962D01*
X55433758Y-106787036D01*
X55265116Y-107123694D01*
X50650000Y-107123694D01*
X50650000Y-100262500D01*
X51050000Y-100262500D01*
X51050000Y-100629293D01*
X51148957Y-100868195D01*
X51331805Y-101051043D01*
X51570707Y-101150000D01*
X52137500Y-101150000D01*
X52300000Y-100987500D01*
X52300000Y-100100000D01*
X52500000Y-100100000D01*
X52500000Y-100987500D01*
X52662500Y-101150000D01*
X53229293Y-101150000D01*
X53468195Y-101051043D01*
X53651043Y-100868195D01*
X53750000Y-100629293D01*
X53750000Y-100262500D01*
X53587500Y-100100000D01*
X52500000Y-100100000D01*
X52300000Y-100100000D01*
X51212500Y-100100000D01*
X51050000Y-100262500D01*
X50650000Y-100262500D01*
X50650000Y-99370707D01*
X51050000Y-99370707D01*
X51050000Y-99737500D01*
X51212500Y-99900000D01*
X52300000Y-99900000D01*
X52300000Y-99012500D01*
X52500000Y-99012500D01*
X52500000Y-99900000D01*
X53587500Y-99900000D01*
X53750000Y-99737500D01*
X53750000Y-99370707D01*
X53651043Y-99131805D01*
X53468195Y-98948957D01*
X53229293Y-98850000D01*
X52662500Y-98850000D01*
X52500000Y-99012500D01*
X52300000Y-99012500D01*
X52137500Y-98850000D01*
X51570707Y-98850000D01*
X51331805Y-98948957D01*
X51148957Y-99131805D01*
X51050000Y-99370707D01*
X50650000Y-99370707D01*
X50650000Y-92500000D01*
X51037266Y-92500000D01*
X51037266Y-93500000D01*
X51087714Y-93753617D01*
X51231376Y-93968624D01*
X51446383Y-94112286D01*
X51700000Y-94162734D01*
X53100000Y-94162734D01*
X53353617Y-94112286D01*
X53568624Y-93968624D01*
X53598402Y-93924057D01*
X53661033Y-93950000D01*
X54038967Y-93950000D01*
X54388132Y-93805371D01*
X54655371Y-93538132D01*
X54800000Y-93188967D01*
X54800000Y-92811033D01*
X54655371Y-92461868D01*
X54388132Y-92194629D01*
X54038967Y-92050000D01*
X53661033Y-92050000D01*
X53598402Y-92075943D01*
X53568624Y-92031376D01*
X53353617Y-91887714D01*
X53100000Y-91837266D01*
X51700000Y-91837266D01*
X51446383Y-91887714D01*
X51231376Y-92031376D01*
X51087714Y-92246383D01*
X51037266Y-92500000D01*
X50650000Y-92500000D01*
X50650000Y-89852081D01*
X50739761Y-89941842D01*
X50739761Y-89941842D01*
G37*
X50739761Y-89941842D02*
X50787184Y-90012816D01*
X51068347Y-90200682D01*
X51316285Y-90250000D01*
X51399999Y-90266652D01*
X51483713Y-90250000D01*
X51869612Y-90250000D01*
X52111033Y-90350000D01*
X52140000Y-90350000D01*
X52140000Y-90350002D01*
X52302498Y-90350002D01*
X52140000Y-90512500D01*
X52140000Y-90689293D01*
X52238957Y-90928195D01*
X52421805Y-91111043D01*
X52660707Y-91210000D01*
X52837500Y-91210000D01*
X53000000Y-91047500D01*
X53000000Y-90350000D01*
X52980000Y-90350000D01*
X52980000Y-90322734D01*
X53220000Y-90322734D01*
X53220000Y-90350000D01*
X53200000Y-90350000D01*
X53200000Y-91047500D01*
X53362500Y-91210000D01*
X53539293Y-91210000D01*
X53700000Y-91143433D01*
X53860707Y-91210000D01*
X54037500Y-91210000D01*
X54200000Y-91047500D01*
X54200000Y-90350000D01*
X54180000Y-90350000D01*
X54180000Y-90322734D01*
X54420000Y-90322734D01*
X54420000Y-90350000D01*
X54400000Y-90350000D01*
X54400000Y-91047500D01*
X54562500Y-91210000D01*
X54739293Y-91210000D01*
X54978195Y-91111043D01*
X55161043Y-90928195D01*
X55260000Y-90689293D01*
X55260000Y-90512500D01*
X55097502Y-90350002D01*
X55260000Y-90350002D01*
X55260000Y-90300000D01*
X55275000Y-90300000D01*
X55275001Y-101449694D01*
X55147429Y-101577266D01*
X54890000Y-101577266D01*
X54636383Y-101627714D01*
X54421376Y-101771376D01*
X54302024Y-101950000D01*
X53713005Y-101950000D01*
X53712286Y-101946383D01*
X53568624Y-101731376D01*
X53353617Y-101587714D01*
X53100000Y-101537266D01*
X51700000Y-101537266D01*
X51446383Y-101587714D01*
X51231376Y-101731376D01*
X51087714Y-101946383D01*
X51037266Y-102200000D01*
X51037266Y-103200000D01*
X51087714Y-103453617D01*
X51231376Y-103668624D01*
X51446383Y-103812286D01*
X51700000Y-103862734D01*
X53100000Y-103862734D01*
X53353617Y-103812286D01*
X53568624Y-103668624D01*
X53712286Y-103453617D01*
X53713005Y-103450000D01*
X54227266Y-103450000D01*
X54227266Y-103760000D01*
X54277714Y-104013617D01*
X54311085Y-104063561D01*
X54250000Y-104211033D01*
X54250000Y-104588967D01*
X54394629Y-104938132D01*
X54661868Y-105205371D01*
X55011033Y-105350000D01*
X55388967Y-105350000D01*
X55738132Y-105205371D01*
X56005371Y-104938132D01*
X56119541Y-104662500D01*
X56490000Y-104662500D01*
X56490000Y-104839293D01*
X56588957Y-105078195D01*
X56771805Y-105261043D01*
X57010707Y-105360000D01*
X57187500Y-105360000D01*
X57350000Y-105197500D01*
X57350000Y-104500000D01*
X56652500Y-104500000D01*
X56490000Y-104662500D01*
X56119541Y-104662500D01*
X56150000Y-104588967D01*
X56150000Y-104211033D01*
X56088915Y-104063561D01*
X56122286Y-104013617D01*
X56130221Y-103973724D01*
X56161868Y-104005371D01*
X56496466Y-104143966D01*
X56652500Y-104300000D01*
X57350000Y-104300000D01*
X57350000Y-104280000D01*
X57377266Y-104280000D01*
X57377266Y-104710000D01*
X57427714Y-104963617D01*
X57550000Y-105146632D01*
X57550000Y-105197500D01*
X57712500Y-105360000D01*
X57889293Y-105360000D01*
X57917417Y-105348351D01*
X58040000Y-105372734D01*
X58605802Y-105372734D01*
X58655120Y-105620670D01*
X58865089Y-105934911D01*
X58944409Y-105987911D01*
X59050001Y-106093503D01*
X59050000Y-110616548D01*
X58601198Y-111065350D01*
X58350000Y-111671795D01*
X58350000Y-112328205D01*
X58601198Y-112934650D01*
X59065350Y-113398802D01*
X59671795Y-113650000D01*
X60328205Y-113650000D01*
X60934650Y-113398802D01*
X61398802Y-112934650D01*
X61650000Y-112328205D01*
X61650000Y-111671795D01*
X61398802Y-111065350D01*
X60950000Y-110616548D01*
X60950000Y-110276306D01*
X61865116Y-110276306D01*
X62033758Y-110612964D01*
X62862204Y-110951918D01*
X63757302Y-110948038D01*
X64566242Y-110612964D01*
X64734884Y-110276306D01*
X63300000Y-108841421D01*
X61865116Y-110276306D01*
X60950000Y-110276306D01*
X60950000Y-108262204D01*
X61048082Y-108262204D01*
X61051962Y-109157302D01*
X61387036Y-109966242D01*
X61723694Y-110134884D01*
X63158579Y-108700000D01*
X63441421Y-108700000D01*
X64876306Y-110134884D01*
X65212964Y-109966242D01*
X65214495Y-109962500D01*
X66250000Y-109962500D01*
X66250000Y-110329293D01*
X66348957Y-110568195D01*
X66531805Y-110751043D01*
X66770707Y-110850000D01*
X67337500Y-110850000D01*
X67500000Y-110687500D01*
X67500000Y-109800000D01*
X67700000Y-109800000D01*
X67700000Y-110687500D01*
X67862500Y-110850000D01*
X68429293Y-110850000D01*
X68668195Y-110751043D01*
X68851043Y-110568195D01*
X68950000Y-110329293D01*
X68950000Y-109962500D01*
X68787500Y-109800000D01*
X67700000Y-109800000D01*
X67500000Y-109800000D01*
X66412500Y-109800000D01*
X66250000Y-109962500D01*
X65214495Y-109962500D01*
X65551918Y-109137796D01*
X65551628Y-109070707D01*
X66250000Y-109070707D01*
X66250000Y-109437500D01*
X66412500Y-109600000D01*
X67500000Y-109600000D01*
X67500000Y-108712500D01*
X67700000Y-108712500D01*
X67700000Y-109600000D01*
X68787500Y-109600000D01*
X68950000Y-109437500D01*
X68950000Y-109070707D01*
X68851043Y-108831805D01*
X68668195Y-108648957D01*
X68429293Y-108550000D01*
X67862500Y-108550000D01*
X67700000Y-108712500D01*
X67500000Y-108712500D01*
X67337500Y-108550000D01*
X66770707Y-108550000D01*
X66531805Y-108648957D01*
X66348957Y-108831805D01*
X66250000Y-109070707D01*
X65551628Y-109070707D01*
X65548038Y-108242698D01*
X65212964Y-107433758D01*
X64876306Y-107265116D01*
X63441421Y-108700000D01*
X63158579Y-108700000D01*
X61723694Y-107265116D01*
X61387036Y-107433758D01*
X61048082Y-108262204D01*
X60950000Y-108262204D01*
X60950000Y-107123694D01*
X61865116Y-107123694D01*
X63300000Y-108558579D01*
X64734884Y-107123694D01*
X64566242Y-106787036D01*
X63737796Y-106448082D01*
X62842698Y-106451962D01*
X62033758Y-106787036D01*
X61865116Y-107123694D01*
X60950000Y-107123694D01*
X60950000Y-105793558D01*
X60968610Y-105699999D01*
X60950000Y-105606440D01*
X60950000Y-105606436D01*
X60902591Y-105368095D01*
X60993559Y-105350000D01*
X61225709Y-105350000D01*
X61340000Y-105372734D01*
X61960000Y-105372734D01*
X62082583Y-105348351D01*
X62110707Y-105360000D01*
X62287500Y-105360000D01*
X62450000Y-105197500D01*
X62450000Y-105146632D01*
X62572286Y-104963617D01*
X62622734Y-104710000D01*
X62622734Y-104500000D01*
X62650000Y-104500000D01*
X62650000Y-105197500D01*
X62812500Y-105360000D01*
X62989293Y-105360000D01*
X63228195Y-105261043D01*
X63411043Y-105078195D01*
X63510000Y-104839293D01*
X63510000Y-104662500D01*
X63347500Y-104500000D01*
X62650000Y-104500000D01*
X62622734Y-104500000D01*
X62622734Y-104090000D01*
X62572286Y-103836383D01*
X62450000Y-103653368D01*
X62450000Y-103602500D01*
X62650000Y-103602500D01*
X62650000Y-104300000D01*
X63347500Y-104300000D01*
X63510000Y-104137500D01*
X63510000Y-103960707D01*
X63411043Y-103721805D01*
X63228195Y-103538957D01*
X62989293Y-103440000D01*
X62812500Y-103440000D01*
X62650000Y-103602500D01*
X62450000Y-103602500D01*
X62287500Y-103440000D01*
X62110707Y-103440000D01*
X62082583Y-103451649D01*
X61960000Y-103427266D01*
X61912734Y-103427266D01*
X61912734Y-102450000D01*
X61862286Y-102196383D01*
X61718624Y-101981376D01*
X61503617Y-101837714D01*
X61250000Y-101787266D01*
X60650000Y-101787266D01*
X60480127Y-101821056D01*
X60429293Y-101800000D01*
X60262500Y-101800000D01*
X60100000Y-101962500D01*
X60100000Y-102103165D01*
X60037714Y-102196383D01*
X60000000Y-102385982D01*
X59962286Y-102196383D01*
X59900000Y-102103165D01*
X59900000Y-101962500D01*
X59737500Y-101800000D01*
X59570707Y-101800000D01*
X59519873Y-101821056D01*
X59350000Y-101787266D01*
X58750000Y-101787266D01*
X58496383Y-101837714D01*
X58460000Y-101862024D01*
X58460000Y-101810707D01*
X58361043Y-101571805D01*
X58178195Y-101388957D01*
X57939293Y-101290000D01*
X57762500Y-101290000D01*
X57600000Y-101452500D01*
X57600000Y-102150000D01*
X57620000Y-102150000D01*
X57620000Y-102177266D01*
X57380000Y-102177266D01*
X57380000Y-102150000D01*
X57400000Y-102150000D01*
X57400000Y-101452500D01*
X57237500Y-101290000D01*
X57060707Y-101290000D01*
X56821805Y-101388957D01*
X56725000Y-101485762D01*
X56725000Y-97750304D01*
X58325000Y-99350305D01*
X58325000Y-99352227D01*
X58281376Y-99381376D01*
X58137714Y-99596383D01*
X58087266Y-99850000D01*
X58087266Y-100950000D01*
X58137714Y-101203617D01*
X58281376Y-101418624D01*
X58496383Y-101562286D01*
X58750000Y-101612734D01*
X59350000Y-101612734D01*
X59525000Y-101577924D01*
X59700000Y-101612734D01*
X60300000Y-101612734D01*
X60475000Y-101577924D01*
X60650000Y-101612734D01*
X61250000Y-101612734D01*
X61503617Y-101562286D01*
X61718624Y-101418624D01*
X61862286Y-101203617D01*
X61881536Y-101106840D01*
X63786857Y-103012161D01*
X63827305Y-103072695D01*
X63839088Y-103080568D01*
X63827266Y-103140000D01*
X63827266Y-103760000D01*
X63877714Y-104013617D01*
X63911085Y-104063561D01*
X63850000Y-104211033D01*
X63850000Y-104588967D01*
X63994629Y-104938132D01*
X64261868Y-105205371D01*
X64611033Y-105350000D01*
X64988967Y-105350000D01*
X65338132Y-105205371D01*
X65605371Y-104938132D01*
X65750000Y-104588967D01*
X65750000Y-104211033D01*
X65688915Y-104063561D01*
X65722286Y-104013617D01*
X65772734Y-103760000D01*
X65772734Y-103300000D01*
X66257157Y-103300000D01*
X66287714Y-103453617D01*
X66431376Y-103668624D01*
X66646383Y-103812286D01*
X66900000Y-103862734D01*
X68300000Y-103862734D01*
X68553617Y-103812286D01*
X68768624Y-103668624D01*
X68912286Y-103453617D01*
X68962734Y-103200000D01*
X68962734Y-102200000D01*
X68912286Y-101946383D01*
X68768624Y-101731376D01*
X68553617Y-101587714D01*
X68300000Y-101537266D01*
X66900000Y-101537266D01*
X66646383Y-101587714D01*
X66431376Y-101731376D01*
X66385523Y-101800000D01*
X65597750Y-101800000D01*
X65578624Y-101771376D01*
X65363617Y-101627714D01*
X65110000Y-101577266D01*
X64490000Y-101577266D01*
X64417076Y-101591772D01*
X63500002Y-100674698D01*
X63500002Y-100647502D01*
X63662500Y-100810000D01*
X63839293Y-100810000D01*
X64078195Y-100711043D01*
X64261043Y-100528195D01*
X64360000Y-100289293D01*
X64360000Y-100162081D01*
X64939763Y-100741845D01*
X64987184Y-100812816D01*
X65268347Y-101000682D01*
X65516285Y-101050000D01*
X65516286Y-101050000D01*
X65600000Y-101066652D01*
X65683714Y-101050000D01*
X67016286Y-101050000D01*
X67100000Y-101066652D01*
X67183714Y-101050000D01*
X67183715Y-101050000D01*
X67431653Y-101000682D01*
X67712816Y-100812816D01*
X67760239Y-100741842D01*
X68276844Y-100225237D01*
X68347816Y-100177816D01*
X68500037Y-99950000D01*
X68535682Y-99896654D01*
X68540568Y-99872092D01*
X68716705Y-99695955D01*
X68893000Y-99270341D01*
X68893000Y-98809659D01*
X68717130Y-98385071D01*
X68745543Y-98380596D01*
X68902285Y-97947399D01*
X68881318Y-97487195D01*
X68745543Y-97159404D01*
X68590606Y-97135000D01*
X68745543Y-97110596D01*
X68902285Y-96677399D01*
X68881318Y-96217195D01*
X68745543Y-95889404D01*
X68717130Y-95884929D01*
X68893000Y-95460341D01*
X68893000Y-94999659D01*
X68717130Y-94575071D01*
X68745543Y-94570596D01*
X68902285Y-94137399D01*
X68881318Y-93677195D01*
X68745543Y-93349404D01*
X68522197Y-93314225D01*
X67876421Y-93960000D01*
X67890564Y-93974143D01*
X67792706Y-94072000D01*
X67677294Y-94072000D01*
X67623000Y-94017706D01*
X67623000Y-93902294D01*
X67720858Y-93804437D01*
X67735000Y-93818579D01*
X68380775Y-93172803D01*
X68345596Y-92949457D01*
X67912399Y-92792715D01*
X67452195Y-92813682D01*
X67124404Y-92949457D01*
X67119929Y-92977870D01*
X66695341Y-92802000D01*
X66234659Y-92802000D01*
X66050000Y-92878488D01*
X66050000Y-91572734D01*
X66350000Y-91572734D01*
X66350000Y-91688967D01*
X66494629Y-92038132D01*
X66761868Y-92305371D01*
X67111033Y-92450000D01*
X67488967Y-92450000D01*
X67838132Y-92305371D01*
X68105371Y-92038132D01*
X68250000Y-91688967D01*
X68250000Y-91572734D01*
X68760000Y-91572734D01*
X68882583Y-91548351D01*
X68910707Y-91560000D01*
X69087500Y-91560000D01*
X69250000Y-91397500D01*
X69250000Y-91346632D01*
X69350001Y-91196970D01*
X69350001Y-118935974D01*
X69311593Y-119129067D01*
X69238483Y-119238483D01*
X69129068Y-119311592D01*
X68935979Y-119350000D01*
X51064021Y-119350000D01*
X50870933Y-119311593D01*
X50761517Y-119238483D01*
X50688408Y-119129068D01*
X50650000Y-118935979D01*
X50650000Y-116876306D01*
X55265116Y-116876306D01*
X55433758Y-117212964D01*
X56262204Y-117551918D01*
X57157302Y-117548038D01*
X57966242Y-117212964D01*
X58134884Y-116876306D01*
X61865116Y-116876306D01*
X62033758Y-117212964D01*
X62862204Y-117551918D01*
X63757302Y-117548038D01*
X64566242Y-117212964D01*
X64734884Y-116876306D01*
X63300000Y-115441421D01*
X61865116Y-116876306D01*
X58134884Y-116876306D01*
X56700000Y-115441421D01*
X55265116Y-116876306D01*
X50650000Y-116876306D01*
X50650000Y-114862204D01*
X54448082Y-114862204D01*
X54451962Y-115757302D01*
X54787036Y-116566242D01*
X55123694Y-116734884D01*
X56558579Y-115300000D01*
X56841421Y-115300000D01*
X58276306Y-116734884D01*
X58612964Y-116566242D01*
X58951918Y-115737796D01*
X58948123Y-114862204D01*
X61048082Y-114862204D01*
X61051962Y-115757302D01*
X61387036Y-116566242D01*
X61723694Y-116734884D01*
X63158579Y-115300000D01*
X63441421Y-115300000D01*
X64876306Y-116734884D01*
X65212964Y-116566242D01*
X65551918Y-115737796D01*
X65548038Y-114842698D01*
X65212964Y-114033758D01*
X64876306Y-113865116D01*
X63441421Y-115300000D01*
X63158579Y-115300000D01*
X61723694Y-113865116D01*
X61387036Y-114033758D01*
X61048082Y-114862204D01*
X58948123Y-114862204D01*
X58948038Y-114842698D01*
X58612964Y-114033758D01*
X58276306Y-113865116D01*
X56841421Y-115300000D01*
X56558579Y-115300000D01*
X55123694Y-113865116D01*
X54787036Y-114033758D01*
X54448082Y-114862204D01*
X50650000Y-114862204D01*
X50650000Y-113723694D01*
X55265116Y-113723694D01*
X56700000Y-115158579D01*
X58134884Y-113723694D01*
X61865116Y-113723694D01*
X63300000Y-115158579D01*
X64734884Y-113723694D01*
X64566242Y-113387036D01*
X63737796Y-113048082D01*
X62842698Y-113051962D01*
X62033758Y-113387036D01*
X61865116Y-113723694D01*
X58134884Y-113723694D01*
X57966242Y-113387036D01*
X57137796Y-113048082D01*
X56242698Y-113051962D01*
X55433758Y-113387036D01*
X55265116Y-113723694D01*
X50650000Y-113723694D01*
X50650000Y-109962500D01*
X51050000Y-109962500D01*
X51050000Y-110329293D01*
X51148957Y-110568195D01*
X51331805Y-110751043D01*
X51570707Y-110850000D01*
X52137500Y-110850000D01*
X52300000Y-110687500D01*
X52300000Y-109800000D01*
X52500000Y-109800000D01*
X52500000Y-110687500D01*
X52662500Y-110850000D01*
X53229293Y-110850000D01*
X53468195Y-110751043D01*
X53651043Y-110568195D01*
X53750000Y-110329293D01*
X53750000Y-110276306D01*
X55265116Y-110276306D01*
X55433758Y-110612964D01*
X56262204Y-110951918D01*
X57157302Y-110948038D01*
X57966242Y-110612964D01*
X58134884Y-110276306D01*
X56700000Y-108841421D01*
X55265116Y-110276306D01*
X53750000Y-110276306D01*
X53750000Y-109962500D01*
X53587500Y-109800000D01*
X52500000Y-109800000D01*
X52300000Y-109800000D01*
X51212500Y-109800000D01*
X51050000Y-109962500D01*
X50650000Y-109962500D01*
X50650000Y-109070707D01*
X51050000Y-109070707D01*
X51050000Y-109437500D01*
X51212500Y-109600000D01*
X52300000Y-109600000D01*
X52300000Y-108712500D01*
X52500000Y-108712500D01*
X52500000Y-109600000D01*
X53587500Y-109600000D01*
X53750000Y-109437500D01*
X53750000Y-109070707D01*
X53651043Y-108831805D01*
X53468195Y-108648957D01*
X53229293Y-108550000D01*
X52662500Y-108550000D01*
X52500000Y-108712500D01*
X52300000Y-108712500D01*
X52137500Y-108550000D01*
X51570707Y-108550000D01*
X51331805Y-108648957D01*
X51148957Y-108831805D01*
X51050000Y-109070707D01*
X50650000Y-109070707D01*
X50650000Y-108262204D01*
X54448082Y-108262204D01*
X54451962Y-109157302D01*
X54787036Y-109966242D01*
X55123694Y-110134884D01*
X56558579Y-108700000D01*
X56841421Y-108700000D01*
X58276306Y-110134884D01*
X58612964Y-109966242D01*
X58951918Y-109137796D01*
X58948038Y-108242698D01*
X58612964Y-107433758D01*
X58276306Y-107265116D01*
X56841421Y-108700000D01*
X56558579Y-108700000D01*
X55123694Y-107265116D01*
X54787036Y-107433758D01*
X54448082Y-108262204D01*
X50650000Y-108262204D01*
X50650000Y-107123694D01*
X55265116Y-107123694D01*
X56700000Y-108558579D01*
X58134884Y-107123694D01*
X57966242Y-106787036D01*
X57137796Y-106448082D01*
X56242698Y-106451962D01*
X55433758Y-106787036D01*
X55265116Y-107123694D01*
X50650000Y-107123694D01*
X50650000Y-100262500D01*
X51050000Y-100262500D01*
X51050000Y-100629293D01*
X51148957Y-100868195D01*
X51331805Y-101051043D01*
X51570707Y-101150000D01*
X52137500Y-101150000D01*
X52300000Y-100987500D01*
X52300000Y-100100000D01*
X52500000Y-100100000D01*
X52500000Y-100987500D01*
X52662500Y-101150000D01*
X53229293Y-101150000D01*
X53468195Y-101051043D01*
X53651043Y-100868195D01*
X53750000Y-100629293D01*
X53750000Y-100262500D01*
X53587500Y-100100000D01*
X52500000Y-100100000D01*
X52300000Y-100100000D01*
X51212500Y-100100000D01*
X51050000Y-100262500D01*
X50650000Y-100262500D01*
X50650000Y-99370707D01*
X51050000Y-99370707D01*
X51050000Y-99737500D01*
X51212500Y-99900000D01*
X52300000Y-99900000D01*
X52300000Y-99012500D01*
X52500000Y-99012500D01*
X52500000Y-99900000D01*
X53587500Y-99900000D01*
X53750000Y-99737500D01*
X53750000Y-99370707D01*
X53651043Y-99131805D01*
X53468195Y-98948957D01*
X53229293Y-98850000D01*
X52662500Y-98850000D01*
X52500000Y-99012500D01*
X52300000Y-99012500D01*
X52137500Y-98850000D01*
X51570707Y-98850000D01*
X51331805Y-98948957D01*
X51148957Y-99131805D01*
X51050000Y-99370707D01*
X50650000Y-99370707D01*
X50650000Y-92500000D01*
X51037266Y-92500000D01*
X51037266Y-93500000D01*
X51087714Y-93753617D01*
X51231376Y-93968624D01*
X51446383Y-94112286D01*
X51700000Y-94162734D01*
X53100000Y-94162734D01*
X53353617Y-94112286D01*
X53568624Y-93968624D01*
X53598402Y-93924057D01*
X53661033Y-93950000D01*
X54038967Y-93950000D01*
X54388132Y-93805371D01*
X54655371Y-93538132D01*
X54800000Y-93188967D01*
X54800000Y-92811033D01*
X54655371Y-92461868D01*
X54388132Y-92194629D01*
X54038967Y-92050000D01*
X53661033Y-92050000D01*
X53598402Y-92075943D01*
X53568624Y-92031376D01*
X53353617Y-91887714D01*
X53100000Y-91837266D01*
X51700000Y-91837266D01*
X51446383Y-91887714D01*
X51231376Y-92031376D01*
X51087714Y-92246383D01*
X51037266Y-92500000D01*
X50650000Y-92500000D01*
X50650000Y-89852081D01*
X50739761Y-89941842D01*
G36*
X56540000Y-102250000D02*
X56537859Y-102250000D01*
X56540000Y-102246796D01*
X56540000Y-102250000D01*
X56540000Y-102250000D01*
G37*
X56540000Y-102250000D02*
X56537859Y-102250000D01*
X56540000Y-102246796D01*
X56540000Y-102250000D01*
G36*
X56702498Y-102149998D02*
X56604679Y-102149998D01*
X56643860Y-102091360D01*
X56702498Y-102149998D01*
X56702498Y-102149998D01*
G37*
X56702498Y-102149998D02*
X56604679Y-102149998D01*
X56643860Y-102091360D01*
X56702498Y-102149998D01*
G36*
X63520000Y-99950000D02*
X63500000Y-99950000D01*
X63500000Y-99970000D01*
X63300000Y-99970000D01*
X63300000Y-99950000D01*
X63280000Y-99950000D01*
X63280000Y-99922734D01*
X63520000Y-99922734D01*
X63520000Y-99950000D01*
X63520000Y-99950000D01*
G37*
X63520000Y-99950000D02*
X63500000Y-99950000D01*
X63500000Y-99970000D01*
X63300000Y-99970000D01*
X63300000Y-99950000D01*
X63280000Y-99950000D01*
X63280000Y-99922734D01*
X63520000Y-99922734D01*
X63520000Y-99950000D01*
G36*
X67890564Y-97755858D02*
X67876421Y-97770000D01*
X67890564Y-97784143D01*
X67792706Y-97882000D01*
X67677294Y-97882000D01*
X67623000Y-97827706D01*
X67623000Y-97712294D01*
X67673280Y-97662014D01*
X67791342Y-97656636D01*
X67890564Y-97755858D01*
X67890564Y-97755858D01*
G37*
X67890564Y-97755858D02*
X67876421Y-97770000D01*
X67890564Y-97784143D01*
X67792706Y-97882000D01*
X67677294Y-97882000D01*
X67623000Y-97827706D01*
X67623000Y-97712294D01*
X67673280Y-97662014D01*
X67791342Y-97656636D01*
X67890564Y-97755858D01*
G36*
X67890564Y-96485858D02*
X67876421Y-96500000D01*
X67890564Y-96514143D01*
X67796721Y-96607985D01*
X67678658Y-96613364D01*
X67623000Y-96557706D01*
X67623000Y-96442294D01*
X67677294Y-96388000D01*
X67792706Y-96388000D01*
X67890564Y-96485858D01*
X67890564Y-96485858D01*
G37*
X67890564Y-96485858D02*
X67876421Y-96500000D01*
X67890564Y-96514143D01*
X67796721Y-96607985D01*
X67678658Y-96613364D01*
X67623000Y-96557706D01*
X67623000Y-96442294D01*
X67677294Y-96388000D01*
X67792706Y-96388000D01*
X67890564Y-96485858D01*
G36*
X62536857Y-90262161D02*
X62577305Y-90322695D01*
X62817119Y-90482935D01*
X62844972Y-90488475D01*
X62961868Y-90605371D01*
X63311033Y-90750000D01*
X63688967Y-90750000D01*
X63701363Y-90744866D01*
X63761868Y-90805371D01*
X64074002Y-90934661D01*
X64550001Y-91410661D01*
X64550000Y-93150000D01*
X64291033Y-93150000D01*
X63941868Y-93294629D01*
X63891497Y-93345000D01*
X63680404Y-93345000D01*
X63670549Y-93165531D01*
X63660002Y-93140068D01*
X63672423Y-93134923D01*
X63995923Y-92811423D01*
X64171000Y-92388749D01*
X64171000Y-91931251D01*
X63995923Y-91508577D01*
X63672423Y-91185077D01*
X63249749Y-91010000D01*
X62792251Y-91010000D01*
X62369577Y-91185077D01*
X62046077Y-91508577D01*
X62005000Y-91607746D01*
X61963923Y-91508577D01*
X61640423Y-91185077D01*
X61217749Y-91010000D01*
X60760251Y-91010000D01*
X60337577Y-91185077D01*
X60014077Y-91508577D01*
X59839000Y-91931251D01*
X59839000Y-92388749D01*
X60014077Y-92811423D01*
X60337577Y-93134923D01*
X60359062Y-93143823D01*
X60326500Y-93222435D01*
X60326500Y-93637565D01*
X60466271Y-93975000D01*
X59125000Y-93975000D01*
X59125000Y-90200304D01*
X59250305Y-90075000D01*
X62349696Y-90075000D01*
X62536857Y-90262161D01*
X62536857Y-90262161D01*
G37*
X62536857Y-90262161D02*
X62577305Y-90322695D01*
X62817119Y-90482935D01*
X62844972Y-90488475D01*
X62961868Y-90605371D01*
X63311033Y-90750000D01*
X63688967Y-90750000D01*
X63701363Y-90744866D01*
X63761868Y-90805371D01*
X64074002Y-90934661D01*
X64550001Y-91410661D01*
X64550000Y-93150000D01*
X64291033Y-93150000D01*
X63941868Y-93294629D01*
X63891497Y-93345000D01*
X63680404Y-93345000D01*
X63670549Y-93165531D01*
X63660002Y-93140068D01*
X63672423Y-93134923D01*
X63995923Y-92811423D01*
X64171000Y-92388749D01*
X64171000Y-91931251D01*
X63995923Y-91508577D01*
X63672423Y-91185077D01*
X63249749Y-91010000D01*
X62792251Y-91010000D01*
X62369577Y-91185077D01*
X62046077Y-91508577D01*
X62005000Y-91607746D01*
X61963923Y-91508577D01*
X61640423Y-91185077D01*
X61217749Y-91010000D01*
X60760251Y-91010000D01*
X60337577Y-91185077D01*
X60014077Y-91508577D01*
X59839000Y-91931251D01*
X59839000Y-92388749D01*
X60014077Y-92811423D01*
X60337577Y-93134923D01*
X60359062Y-93143823D01*
X60326500Y-93222435D01*
X60326500Y-93637565D01*
X60466271Y-93975000D01*
X59125000Y-93975000D01*
X59125000Y-90200304D01*
X59250305Y-90075000D01*
X62349696Y-90075000D01*
X62536857Y-90262161D01*
G36*
X62724706Y-93345000D02*
X62555294Y-93345000D01*
X62625858Y-93274437D01*
X62640000Y-93288579D01*
X62654143Y-93274437D01*
X62724706Y-93345000D01*
X62724706Y-93345000D01*
G37*
X62724706Y-93345000D02*
X62555294Y-93345000D01*
X62625858Y-93274437D01*
X62640000Y-93288579D01*
X62654143Y-93274437D01*
X62724706Y-93345000D01*
G36*
X67350000Y-89300000D02*
X67370000Y-89300000D01*
X67370000Y-89500000D01*
X67360660Y-89500000D01*
X67322734Y-89462074D01*
X67322734Y-89280000D01*
X67350000Y-89280000D01*
X67350000Y-89300000D01*
X67350000Y-89300000D01*
G37*
X67350000Y-89300000D02*
X67370000Y-89300000D01*
X67370000Y-89500000D01*
X67360660Y-89500000D01*
X67322734Y-89462074D01*
X67322734Y-89280000D01*
X67350000Y-89280000D01*
X67350000Y-89300000D01*
G36*
X69350000Y-84377266D02*
X69180000Y-84377266D01*
X69180000Y-84350000D01*
X69200000Y-84350000D01*
X69200000Y-84330000D01*
X69350000Y-84330000D01*
X69350000Y-84377266D01*
X69350000Y-84377266D01*
G37*
X69350000Y-84377266D02*
X69180000Y-84377266D01*
X69180000Y-84350000D01*
X69200000Y-84350000D01*
X69200000Y-84330000D01*
X69350000Y-84330000D01*
X69350000Y-84377266D01*
G36*
X54400000Y-83750000D02*
X54420000Y-83750000D01*
X54420000Y-83777266D01*
X54180000Y-83777266D01*
X54180000Y-83750000D01*
X54200000Y-83750000D01*
X54200000Y-83730000D01*
X54400000Y-83730000D01*
X54400000Y-83750000D01*
X54400000Y-83750000D01*
G37*
X54400000Y-83750000D02*
X54420000Y-83750000D01*
X54420000Y-83777266D01*
X54180000Y-83777266D01*
X54180000Y-83750000D01*
X54200000Y-83750000D01*
X54200000Y-83730000D01*
X54400000Y-83730000D01*
X54400000Y-83750000D01*
G36*
X53200000Y-83750000D02*
X53220000Y-83750000D01*
X53220000Y-83777266D01*
X52980000Y-83777266D01*
X52980000Y-83750000D01*
X53000000Y-83750000D01*
X53000000Y-83730000D01*
X53200000Y-83730000D01*
X53200000Y-83750000D01*
X53200000Y-83750000D01*
G37*
X53200000Y-83750000D02*
X53220000Y-83750000D01*
X53220000Y-83777266D01*
X52980000Y-83777266D01*
X52980000Y-83750000D01*
X53000000Y-83750000D01*
X53000000Y-83730000D01*
X53200000Y-83730000D01*
X53200000Y-83750000D01*
G36*
X52000000Y-83750000D02*
X52020000Y-83750000D01*
X52020000Y-83777266D01*
X51780000Y-83777266D01*
X51780000Y-83750000D01*
X51800000Y-83750000D01*
X51800000Y-83730000D01*
X52000000Y-83730000D01*
X52000000Y-83750000D01*
X52000000Y-83750000D01*
G37*
X52000000Y-83750000D02*
X52020000Y-83750000D01*
X52020000Y-83777266D01*
X51780000Y-83777266D01*
X51780000Y-83750000D01*
X51800000Y-83750000D01*
X51800000Y-83730000D01*
X52000000Y-83730000D01*
X52000000Y-83750000D01*
G36*
X50674722Y-82212159D02*
X50715171Y-82272695D01*
X50954985Y-82432935D01*
X51045349Y-82450909D01*
X51077714Y-82613617D01*
X51221376Y-82828624D01*
X51369669Y-82927709D01*
X51300000Y-82956567D01*
X51139293Y-82890000D01*
X50962500Y-82890000D01*
X50800000Y-83052500D01*
X50800000Y-83750000D01*
X50820000Y-83750000D01*
X50820000Y-83777266D01*
X50650000Y-83777266D01*
X50650000Y-82187437D01*
X50674722Y-82212159D01*
X50674722Y-82212159D01*
G37*
X50674722Y-82212159D02*
X50715171Y-82272695D01*
X50954985Y-82432935D01*
X51045349Y-82450909D01*
X51077714Y-82613617D01*
X51221376Y-82828624D01*
X51369669Y-82927709D01*
X51300000Y-82956567D01*
X51139293Y-82890000D01*
X50962500Y-82890000D01*
X50800000Y-83052500D01*
X50800000Y-83750000D01*
X50820000Y-83750000D01*
X50820000Y-83777266D01*
X50650000Y-83777266D01*
X50650000Y-82187437D01*
X50674722Y-82212159D01*
G36*
X67000000Y-82250000D02*
X67020000Y-82250000D01*
X67020000Y-82277266D01*
X66780000Y-82277266D01*
X66780000Y-82250000D01*
X66800000Y-82250000D01*
X66800000Y-82230000D01*
X67000000Y-82230000D01*
X67000000Y-82250000D01*
X67000000Y-82250000D01*
G37*
X67000000Y-82250000D02*
X67020000Y-82250000D01*
X67020000Y-82277266D01*
X66780000Y-82277266D01*
X66780000Y-82250000D01*
X66800000Y-82250000D01*
X66800000Y-82230000D01*
X67000000Y-82230000D01*
X67000000Y-82250000D01*
G36*
X65800000Y-82250000D02*
X65820000Y-82250000D01*
X65820000Y-82277266D01*
X65580000Y-82277266D01*
X65580000Y-82250000D01*
X65600000Y-82250000D01*
X65600000Y-82230000D01*
X65800000Y-82230000D01*
X65800000Y-82250000D01*
X65800000Y-82250000D01*
G37*
X65800000Y-82250000D02*
X65820000Y-82250000D01*
X65820000Y-82277266D01*
X65580000Y-82277266D01*
X65580000Y-82250000D01*
X65600000Y-82250000D01*
X65600000Y-82230000D01*
X65800000Y-82230000D01*
X65800000Y-82250000D01*
G36*
X52390000Y-79039293D02*
X52456567Y-79200000D01*
X52390000Y-79360707D01*
X52390000Y-79537500D01*
X52552500Y-79700000D01*
X53250000Y-79700000D01*
X53250000Y-79680000D01*
X53277266Y-79680000D01*
X53277266Y-79920000D01*
X53250000Y-79920000D01*
X53250000Y-79900000D01*
X52552500Y-79900000D01*
X52390000Y-80062500D01*
X52390000Y-80193179D01*
X52310000Y-80177266D01*
X51925000Y-80177266D01*
X51925000Y-79362438D01*
X52390000Y-78897438D01*
X52390000Y-79039293D01*
X52390000Y-79039293D01*
G37*
X52390000Y-79039293D02*
X52456567Y-79200000D01*
X52390000Y-79360707D01*
X52390000Y-79537500D01*
X52552500Y-79700000D01*
X53250000Y-79700000D01*
X53250000Y-79680000D01*
X53277266Y-79680000D01*
X53277266Y-79920000D01*
X53250000Y-79920000D01*
X53250000Y-79900000D01*
X52552500Y-79900000D01*
X52390000Y-80062500D01*
X52390000Y-80193179D01*
X52310000Y-80177266D01*
X51925000Y-80177266D01*
X51925000Y-79362438D01*
X52390000Y-78897438D01*
X52390000Y-79039293D01*
G36*
X65800000Y-80150000D02*
X65820000Y-80150000D01*
X65820000Y-80177266D01*
X65580000Y-80177266D01*
X65580000Y-80150000D01*
X65600000Y-80150000D01*
X65600000Y-80130000D01*
X65800000Y-80130000D01*
X65800000Y-80150000D01*
X65800000Y-80150000D01*
G37*
X65800000Y-80150000D02*
X65820000Y-80150000D01*
X65820000Y-80177266D01*
X65580000Y-80177266D01*
X65580000Y-80150000D01*
X65600000Y-80150000D01*
X65600000Y-80130000D01*
X65800000Y-80130000D01*
X65800000Y-80150000D01*
G36*
X69350000Y-80177266D02*
X69180000Y-80177266D01*
X69180000Y-80150000D01*
X69200000Y-80150000D01*
X69200000Y-79589700D01*
X69237734Y-79400000D01*
X69237734Y-78400000D01*
X69187286Y-78146383D01*
X69043624Y-77931376D01*
X68828617Y-77787714D01*
X68722734Y-77766652D01*
X68722734Y-77747973D01*
X68900682Y-77481653D01*
X68950000Y-77233715D01*
X68950000Y-77233714D01*
X68966652Y-77150000D01*
X68961394Y-77123568D01*
X69043624Y-77068624D01*
X69187286Y-76853617D01*
X69237734Y-76600000D01*
X69237734Y-75600000D01*
X69187286Y-75346383D01*
X69043624Y-75131376D01*
X68828617Y-74987714D01*
X68722734Y-74966652D01*
X68722734Y-74947973D01*
X68900682Y-74681653D01*
X68950000Y-74433715D01*
X68950000Y-74433714D01*
X68966652Y-74350000D01*
X68961394Y-74323568D01*
X69043624Y-74268624D01*
X69187286Y-74053617D01*
X69237734Y-73800000D01*
X69237734Y-72800000D01*
X69187286Y-72546383D01*
X69131394Y-72462734D01*
X69350000Y-72462734D01*
X69350000Y-80177266D01*
X69350000Y-80177266D01*
G37*
X69350000Y-80177266D02*
X69180000Y-80177266D01*
X69180000Y-80150000D01*
X69200000Y-80150000D01*
X69200000Y-79589700D01*
X69237734Y-79400000D01*
X69237734Y-78400000D01*
X69187286Y-78146383D01*
X69043624Y-77931376D01*
X68828617Y-77787714D01*
X68722734Y-77766652D01*
X68722734Y-77747973D01*
X68900682Y-77481653D01*
X68950000Y-77233715D01*
X68950000Y-77233714D01*
X68966652Y-77150000D01*
X68961394Y-77123568D01*
X69043624Y-77068624D01*
X69187286Y-76853617D01*
X69237734Y-76600000D01*
X69237734Y-75600000D01*
X69187286Y-75346383D01*
X69043624Y-75131376D01*
X68828617Y-74987714D01*
X68722734Y-74966652D01*
X68722734Y-74947973D01*
X68900682Y-74681653D01*
X68950000Y-74433715D01*
X68950000Y-74433714D01*
X68966652Y-74350000D01*
X68961394Y-74323568D01*
X69043624Y-74268624D01*
X69187286Y-74053617D01*
X69237734Y-73800000D01*
X69237734Y-72800000D01*
X69187286Y-72546383D01*
X69131394Y-72462734D01*
X69350000Y-72462734D01*
X69350000Y-80177266D01*
G36*
X64902498Y-80149998D02*
X64850000Y-80149998D01*
X64850000Y-80097500D01*
X64902498Y-80149998D01*
X64902498Y-80149998D01*
G37*
X64902498Y-80149998D02*
X64850000Y-80149998D01*
X64850000Y-80097500D01*
X64902498Y-80149998D01*
G36*
X53277266Y-78720000D02*
X53250000Y-78720000D01*
X53250000Y-78700000D01*
X53230000Y-78700000D01*
X53230000Y-78500000D01*
X53250000Y-78500000D01*
X53250000Y-78480000D01*
X53277266Y-78480000D01*
X53277266Y-78720000D01*
X53277266Y-78720000D01*
G37*
X53277266Y-78720000D02*
X53250000Y-78720000D01*
X53250000Y-78700000D01*
X53230000Y-78700000D01*
X53230000Y-78500000D01*
X53250000Y-78500000D01*
X53250000Y-78480000D01*
X53277266Y-78480000D01*
X53277266Y-78720000D01*
G36*
X53687266Y-67875000D02*
X53737714Y-68128617D01*
X53749976Y-68146969D01*
X53750579Y-68150000D01*
X53767065Y-68232881D01*
X53825001Y-68319588D01*
X53825000Y-74987561D01*
X50650000Y-78162562D01*
X50650000Y-74526346D01*
X50898577Y-74774923D01*
X51321251Y-74950000D01*
X51778749Y-74950000D01*
X52201423Y-74774923D01*
X52251150Y-74725196D01*
X52311033Y-74750000D01*
X52688967Y-74750000D01*
X53038132Y-74605371D01*
X53305371Y-74338132D01*
X53450000Y-73988967D01*
X53450000Y-73611033D01*
X53305371Y-73261868D01*
X53093503Y-73050000D01*
X53305371Y-72838132D01*
X53450000Y-72488967D01*
X53450000Y-72111033D01*
X53305371Y-71761868D01*
X53093503Y-71550000D01*
X53305371Y-71338132D01*
X53450000Y-70988967D01*
X53450000Y-70611033D01*
X53305371Y-70261868D01*
X53038132Y-69994629D01*
X52922504Y-69946734D01*
X53051043Y-69818195D01*
X53150000Y-69579293D01*
X53150000Y-68762500D01*
X52987500Y-68600000D01*
X51650000Y-68600000D01*
X51650000Y-68620000D01*
X51450000Y-68620000D01*
X51450000Y-68600000D01*
X51430000Y-68600000D01*
X51430000Y-68400000D01*
X51450000Y-68400000D01*
X51450000Y-68380000D01*
X51650000Y-68380000D01*
X51650000Y-68400000D01*
X52987500Y-68400000D01*
X53150000Y-68237500D01*
X53150000Y-67420707D01*
X53109418Y-67322734D01*
X53610000Y-67322734D01*
X53687266Y-67307365D01*
X53687266Y-67875000D01*
X53687266Y-67875000D01*
G37*
X53687266Y-67875000D02*
X53737714Y-68128617D01*
X53749976Y-68146969D01*
X53750579Y-68150000D01*
X53767065Y-68232881D01*
X53825001Y-68319588D01*
X53825000Y-74987561D01*
X50650000Y-78162562D01*
X50650000Y-74526346D01*
X50898577Y-74774923D01*
X51321251Y-74950000D01*
X51778749Y-74950000D01*
X52201423Y-74774923D01*
X52251150Y-74725196D01*
X52311033Y-74750000D01*
X52688967Y-74750000D01*
X53038132Y-74605371D01*
X53305371Y-74338132D01*
X53450000Y-73988967D01*
X53450000Y-73611033D01*
X53305371Y-73261868D01*
X53093503Y-73050000D01*
X53305371Y-72838132D01*
X53450000Y-72488967D01*
X53450000Y-72111033D01*
X53305371Y-71761868D01*
X53093503Y-71550000D01*
X53305371Y-71338132D01*
X53450000Y-70988967D01*
X53450000Y-70611033D01*
X53305371Y-70261868D01*
X53038132Y-69994629D01*
X52922504Y-69946734D01*
X53051043Y-69818195D01*
X53150000Y-69579293D01*
X53150000Y-68762500D01*
X52987500Y-68600000D01*
X51650000Y-68600000D01*
X51650000Y-68620000D01*
X51450000Y-68620000D01*
X51450000Y-68600000D01*
X51430000Y-68600000D01*
X51430000Y-68400000D01*
X51450000Y-68400000D01*
X51450000Y-68380000D01*
X51650000Y-68380000D01*
X51650000Y-68400000D01*
X52987500Y-68400000D01*
X53150000Y-68237500D01*
X53150000Y-67420707D01*
X53109418Y-67322734D01*
X53610000Y-67322734D01*
X53687266Y-67307365D01*
X53687266Y-67875000D01*
G36*
X65556376Y-77068624D02*
X65771383Y-77212286D01*
X65890000Y-77235881D01*
X65890000Y-77237500D01*
X66052500Y-77400000D01*
X66750000Y-77400000D01*
X66750000Y-77380000D01*
X66777266Y-77380000D01*
X66777266Y-77620000D01*
X66750000Y-77620000D01*
X66750000Y-77600000D01*
X66052500Y-77600000D01*
X65890000Y-77762500D01*
X65890000Y-77764119D01*
X65771383Y-77787714D01*
X65556376Y-77931376D01*
X65487115Y-78035033D01*
X65212734Y-77760653D01*
X65212734Y-77750000D01*
X65200000Y-77685982D01*
X65200000Y-77214018D01*
X65212734Y-77150000D01*
X65212734Y-77050000D01*
X65543932Y-77050000D01*
X65556376Y-77068624D01*
X65556376Y-77068624D01*
G37*
X65556376Y-77068624D02*
X65771383Y-77212286D01*
X65890000Y-77235881D01*
X65890000Y-77237500D01*
X66052500Y-77400000D01*
X66750000Y-77400000D01*
X66750000Y-77380000D01*
X66777266Y-77380000D01*
X66777266Y-77620000D01*
X66750000Y-77620000D01*
X66750000Y-77600000D01*
X66052500Y-77600000D01*
X65890000Y-77762500D01*
X65890000Y-77764119D01*
X65771383Y-77787714D01*
X65556376Y-77931376D01*
X65487115Y-78035033D01*
X65212734Y-77760653D01*
X65212734Y-77750000D01*
X65200000Y-77685982D01*
X65200000Y-77214018D01*
X65212734Y-77150000D01*
X65212734Y-77050000D01*
X65543932Y-77050000D01*
X65556376Y-77068624D01*
G36*
X62550000Y-76550000D02*
X62570000Y-76550000D01*
X62570000Y-76750000D01*
X62550000Y-76750000D01*
X62550000Y-76770000D01*
X62350000Y-76770000D01*
X62350000Y-76750000D01*
X62330000Y-76750000D01*
X62330000Y-76550000D01*
X62350000Y-76550000D01*
X62350000Y-76530000D01*
X62550000Y-76530000D01*
X62550000Y-76550000D01*
X62550000Y-76550000D01*
G37*
X62550000Y-76550000D02*
X62570000Y-76550000D01*
X62570000Y-76750000D01*
X62550000Y-76750000D01*
X62550000Y-76770000D01*
X62350000Y-76770000D01*
X62350000Y-76750000D01*
X62330000Y-76750000D01*
X62330000Y-76550000D01*
X62350000Y-76550000D01*
X62350000Y-76530000D01*
X62550000Y-76530000D01*
X62550000Y-76550000D01*
G36*
X61712714Y-71253617D02*
X61800000Y-71384251D01*
X61800000Y-72050000D01*
X62950000Y-72050000D01*
X62950000Y-72030000D01*
X63150000Y-72030000D01*
X63150000Y-72050000D01*
X63170000Y-72050000D01*
X63170000Y-72250000D01*
X63150000Y-72250000D01*
X63150000Y-73137500D01*
X63195001Y-73182501D01*
X63170799Y-73240930D01*
X63161868Y-73244629D01*
X62894629Y-73511868D01*
X62750000Y-73861033D01*
X62750000Y-74238967D01*
X62791849Y-74340000D01*
X62749998Y-74340000D01*
X62749998Y-74502498D01*
X62587500Y-74340000D01*
X62410707Y-74340000D01*
X62171805Y-74438957D01*
X61988957Y-74621805D01*
X61890000Y-74860707D01*
X61890000Y-75037500D01*
X62052500Y-75200000D01*
X62750000Y-75200000D01*
X62750000Y-75180000D01*
X62777266Y-75180000D01*
X62777266Y-75420000D01*
X62750000Y-75420000D01*
X62750000Y-75400000D01*
X62052500Y-75400000D01*
X61952500Y-75500000D01*
X61920707Y-75500000D01*
X61681805Y-75598957D01*
X61498957Y-75781805D01*
X61465106Y-75863527D01*
X61443624Y-75831376D01*
X61350000Y-75768819D01*
X61350000Y-75733714D01*
X61366652Y-75650000D01*
X61344317Y-75537714D01*
X61300682Y-75318347D01*
X61122734Y-75052027D01*
X61122734Y-74990000D01*
X61072286Y-74736383D01*
X60928624Y-74521376D01*
X60713617Y-74377714D01*
X60550000Y-74345168D01*
X60550000Y-74211033D01*
X60498831Y-74087500D01*
X60550000Y-73963967D01*
X60550000Y-73586033D01*
X60405371Y-73236868D01*
X60241883Y-73073380D01*
X60490000Y-73122734D01*
X61110000Y-73122734D01*
X61232583Y-73098351D01*
X61260707Y-73110000D01*
X61437500Y-73110000D01*
X61600000Y-72947500D01*
X61600000Y-72896632D01*
X61722286Y-72713617D01*
X61772734Y-72460000D01*
X61772734Y-72250000D01*
X61800000Y-72250000D01*
X61800000Y-72947500D01*
X61962500Y-73110000D01*
X62115762Y-73110000D01*
X62206805Y-73201043D01*
X62445707Y-73300000D01*
X62787500Y-73300000D01*
X62950000Y-73137500D01*
X62950000Y-72250000D01*
X61800000Y-72250000D01*
X61772734Y-72250000D01*
X61772734Y-71840000D01*
X61722286Y-71586383D01*
X61600000Y-71403368D01*
X61600000Y-71352500D01*
X61550000Y-71302500D01*
X61550000Y-71100000D01*
X61682157Y-71100000D01*
X61712714Y-71253617D01*
X61712714Y-71253617D01*
G37*
X61712714Y-71253617D02*
X61800000Y-71384251D01*
X61800000Y-72050000D01*
X62950000Y-72050000D01*
X62950000Y-72030000D01*
X63150000Y-72030000D01*
X63150000Y-72050000D01*
X63170000Y-72050000D01*
X63170000Y-72250000D01*
X63150000Y-72250000D01*
X63150000Y-73137500D01*
X63195001Y-73182501D01*
X63170799Y-73240930D01*
X63161868Y-73244629D01*
X62894629Y-73511868D01*
X62750000Y-73861033D01*
X62750000Y-74238967D01*
X62791849Y-74340000D01*
X62749998Y-74340000D01*
X62749998Y-74502498D01*
X62587500Y-74340000D01*
X62410707Y-74340000D01*
X62171805Y-74438957D01*
X61988957Y-74621805D01*
X61890000Y-74860707D01*
X61890000Y-75037500D01*
X62052500Y-75200000D01*
X62750000Y-75200000D01*
X62750000Y-75180000D01*
X62777266Y-75180000D01*
X62777266Y-75420000D01*
X62750000Y-75420000D01*
X62750000Y-75400000D01*
X62052500Y-75400000D01*
X61952500Y-75500000D01*
X61920707Y-75500000D01*
X61681805Y-75598957D01*
X61498957Y-75781805D01*
X61465106Y-75863527D01*
X61443624Y-75831376D01*
X61350000Y-75768819D01*
X61350000Y-75733714D01*
X61366652Y-75650000D01*
X61344317Y-75537714D01*
X61300682Y-75318347D01*
X61122734Y-75052027D01*
X61122734Y-74990000D01*
X61072286Y-74736383D01*
X60928624Y-74521376D01*
X60713617Y-74377714D01*
X60550000Y-74345168D01*
X60550000Y-74211033D01*
X60498831Y-74087500D01*
X60550000Y-73963967D01*
X60550000Y-73586033D01*
X60405371Y-73236868D01*
X60241883Y-73073380D01*
X60490000Y-73122734D01*
X61110000Y-73122734D01*
X61232583Y-73098351D01*
X61260707Y-73110000D01*
X61437500Y-73110000D01*
X61600000Y-72947500D01*
X61600000Y-72896632D01*
X61722286Y-72713617D01*
X61772734Y-72460000D01*
X61772734Y-72250000D01*
X61800000Y-72250000D01*
X61800000Y-72947500D01*
X61962500Y-73110000D01*
X62115762Y-73110000D01*
X62206805Y-73201043D01*
X62445707Y-73300000D01*
X62787500Y-73300000D01*
X62950000Y-73137500D01*
X62950000Y-72250000D01*
X61800000Y-72250000D01*
X61772734Y-72250000D01*
X61772734Y-71840000D01*
X61722286Y-71586383D01*
X61600000Y-71403368D01*
X61600000Y-71352500D01*
X61550000Y-71302500D01*
X61550000Y-71100000D01*
X61682157Y-71100000D01*
X61712714Y-71253617D01*
G36*
X65771383Y-74412286D02*
X65890000Y-74435881D01*
X65890000Y-74437500D01*
X66052500Y-74600000D01*
X66750000Y-74600000D01*
X66750000Y-74580000D01*
X66777266Y-74580000D01*
X66777266Y-74820000D01*
X66750000Y-74820000D01*
X66750000Y-74800000D01*
X66052500Y-74800000D01*
X65890000Y-74962500D01*
X65890000Y-74964119D01*
X65771383Y-74987714D01*
X65603862Y-75099647D01*
X65505371Y-74861868D01*
X65425000Y-74781497D01*
X65425000Y-74400304D01*
X65556558Y-74268746D01*
X65771383Y-74412286D01*
X65771383Y-74412286D01*
G37*
X65771383Y-74412286D02*
X65890000Y-74435881D01*
X65890000Y-74437500D01*
X66052500Y-74600000D01*
X66750000Y-74600000D01*
X66750000Y-74580000D01*
X66777266Y-74580000D01*
X66777266Y-74820000D01*
X66750000Y-74820000D01*
X66750000Y-74800000D01*
X66052500Y-74800000D01*
X65890000Y-74962500D01*
X65890000Y-74964119D01*
X65771383Y-74987714D01*
X65603862Y-75099647D01*
X65505371Y-74861868D01*
X65425000Y-74781497D01*
X65425000Y-74400304D01*
X65556558Y-74268746D01*
X65771383Y-74412286D01*
G36*
X63222000Y-63875468D02*
X63222000Y-63896865D01*
X63108858Y-63850000D01*
X62691142Y-63850000D01*
X62305223Y-64009853D01*
X62009853Y-64305223D01*
X61850000Y-64691142D01*
X61850000Y-64816702D01*
X61688967Y-64750000D01*
X61311033Y-64750000D01*
X60961868Y-64894629D01*
X60694629Y-65161868D01*
X60550000Y-65511033D01*
X60550000Y-65540000D01*
X60449998Y-65540000D01*
X60449998Y-65702498D01*
X60287500Y-65540000D01*
X60110707Y-65540000D01*
X59871805Y-65638957D01*
X59688957Y-65821805D01*
X59590000Y-66060707D01*
X59590000Y-66237500D01*
X59752500Y-66400000D01*
X60450000Y-66400000D01*
X60450000Y-66380000D01*
X60477266Y-66380000D01*
X60477266Y-66810000D01*
X60527714Y-67063617D01*
X60600000Y-67171802D01*
X60600001Y-68247212D01*
X60396383Y-68287714D01*
X60181376Y-68431376D01*
X60037714Y-68646383D01*
X59987266Y-68900000D01*
X59987266Y-69500000D01*
X60037714Y-69753617D01*
X60181376Y-69968624D01*
X60324851Y-70064490D01*
X60321906Y-70067435D01*
X60259280Y-70109280D01*
X60093516Y-70357366D01*
X60063679Y-70507365D01*
X60035307Y-70650000D01*
X60050000Y-70723866D01*
X60050000Y-71194435D01*
X60039293Y-71190000D01*
X59862500Y-71190000D01*
X59700000Y-71352500D01*
X59700000Y-72050000D01*
X59720000Y-72050000D01*
X59720000Y-72250000D01*
X59700000Y-72250000D01*
X59700000Y-72270000D01*
X59672734Y-72270000D01*
X59672734Y-71840000D01*
X59622286Y-71586383D01*
X59550000Y-71478199D01*
X59550000Y-71072951D01*
X59603617Y-71062286D01*
X59818624Y-70918624D01*
X59962286Y-70703617D01*
X60012734Y-70450000D01*
X60012734Y-69850000D01*
X59962286Y-69596383D01*
X59818624Y-69381376D01*
X59603617Y-69237714D01*
X59414018Y-69200000D01*
X59479293Y-69200000D01*
X59718195Y-69101043D01*
X59901043Y-68918195D01*
X60000000Y-68679293D01*
X60000000Y-68512500D01*
X59837500Y-68350000D01*
X58950000Y-68350000D01*
X58950000Y-68370000D01*
X58750000Y-68370000D01*
X58750000Y-68350000D01*
X58730000Y-68350000D01*
X58730000Y-68150000D01*
X58750000Y-68150000D01*
X58750000Y-67462500D01*
X58950000Y-67462500D01*
X58950000Y-68150000D01*
X59837500Y-68150000D01*
X60000000Y-67987500D01*
X60000000Y-67820707D01*
X59901043Y-67581805D01*
X59718195Y-67398957D01*
X59479293Y-67300000D01*
X59112500Y-67300000D01*
X58950000Y-67462500D01*
X58750000Y-67462500D01*
X58725000Y-67437500D01*
X58725000Y-66762500D01*
X59590000Y-66762500D01*
X59590000Y-66939293D01*
X59688957Y-67178195D01*
X59871805Y-67361043D01*
X60110707Y-67460000D01*
X60287500Y-67460000D01*
X60450000Y-67297500D01*
X60450000Y-66600000D01*
X59752500Y-66600000D01*
X59590000Y-66762500D01*
X58725000Y-66762500D01*
X58725000Y-65500304D01*
X60700304Y-63525000D01*
X63367168Y-63525000D01*
X63222000Y-63875468D01*
X63222000Y-63875468D01*
G37*
X63222000Y-63875468D02*
X63222000Y-63896865D01*
X63108858Y-63850000D01*
X62691142Y-63850000D01*
X62305223Y-64009853D01*
X62009853Y-64305223D01*
X61850000Y-64691142D01*
X61850000Y-64816702D01*
X61688967Y-64750000D01*
X61311033Y-64750000D01*
X60961868Y-64894629D01*
X60694629Y-65161868D01*
X60550000Y-65511033D01*
X60550000Y-65540000D01*
X60449998Y-65540000D01*
X60449998Y-65702498D01*
X60287500Y-65540000D01*
X60110707Y-65540000D01*
X59871805Y-65638957D01*
X59688957Y-65821805D01*
X59590000Y-66060707D01*
X59590000Y-66237500D01*
X59752500Y-66400000D01*
X60450000Y-66400000D01*
X60450000Y-66380000D01*
X60477266Y-66380000D01*
X60477266Y-66810000D01*
X60527714Y-67063617D01*
X60600000Y-67171802D01*
X60600001Y-68247212D01*
X60396383Y-68287714D01*
X60181376Y-68431376D01*
X60037714Y-68646383D01*
X59987266Y-68900000D01*
X59987266Y-69500000D01*
X60037714Y-69753617D01*
X60181376Y-69968624D01*
X60324851Y-70064490D01*
X60321906Y-70067435D01*
X60259280Y-70109280D01*
X60093516Y-70357366D01*
X60063679Y-70507365D01*
X60035307Y-70650000D01*
X60050000Y-70723866D01*
X60050000Y-71194435D01*
X60039293Y-71190000D01*
X59862500Y-71190000D01*
X59700000Y-71352500D01*
X59700000Y-72050000D01*
X59720000Y-72050000D01*
X59720000Y-72250000D01*
X59700000Y-72250000D01*
X59700000Y-72270000D01*
X59672734Y-72270000D01*
X59672734Y-71840000D01*
X59622286Y-71586383D01*
X59550000Y-71478199D01*
X59550000Y-71072951D01*
X59603617Y-71062286D01*
X59818624Y-70918624D01*
X59962286Y-70703617D01*
X60012734Y-70450000D01*
X60012734Y-69850000D01*
X59962286Y-69596383D01*
X59818624Y-69381376D01*
X59603617Y-69237714D01*
X59414018Y-69200000D01*
X59479293Y-69200000D01*
X59718195Y-69101043D01*
X59901043Y-68918195D01*
X60000000Y-68679293D01*
X60000000Y-68512500D01*
X59837500Y-68350000D01*
X58950000Y-68350000D01*
X58950000Y-68370000D01*
X58750000Y-68370000D01*
X58750000Y-68350000D01*
X58730000Y-68350000D01*
X58730000Y-68150000D01*
X58750000Y-68150000D01*
X58750000Y-67462500D01*
X58950000Y-67462500D01*
X58950000Y-68150000D01*
X59837500Y-68150000D01*
X60000000Y-67987500D01*
X60000000Y-67820707D01*
X59901043Y-67581805D01*
X59718195Y-67398957D01*
X59479293Y-67300000D01*
X59112500Y-67300000D01*
X58950000Y-67462500D01*
X58750000Y-67462500D01*
X58725000Y-67437500D01*
X58725000Y-66762500D01*
X59590000Y-66762500D01*
X59590000Y-66939293D01*
X59688957Y-67178195D01*
X59871805Y-67361043D01*
X60110707Y-67460000D01*
X60287500Y-67460000D01*
X60450000Y-67297500D01*
X60450000Y-66600000D01*
X59752500Y-66600000D01*
X59590000Y-66762500D01*
X58725000Y-66762500D01*
X58725000Y-65500304D01*
X60700304Y-63525000D01*
X63367168Y-63525000D01*
X63222000Y-63875468D01*
G36*
X65777266Y-66487927D02*
X65777266Y-66710000D01*
X65782690Y-66737266D01*
X65655000Y-66737266D01*
X65608930Y-66746430D01*
X65462500Y-66600000D01*
X64600000Y-66600000D01*
X64600000Y-67900000D01*
X64620000Y-67900000D01*
X64620000Y-68100000D01*
X64600000Y-68100000D01*
X64600000Y-68120000D01*
X64400000Y-68120000D01*
X64400000Y-68100000D01*
X64380000Y-68100000D01*
X64380000Y-67900000D01*
X64400000Y-67900000D01*
X64400000Y-66600000D01*
X64380000Y-66600000D01*
X64380000Y-66400000D01*
X64400000Y-66400000D01*
X64400000Y-66380000D01*
X64600000Y-66380000D01*
X64600000Y-66400000D01*
X65462500Y-66400000D01*
X65575920Y-66286580D01*
X65777266Y-66487927D01*
X65777266Y-66487927D01*
G37*
X65777266Y-66487927D02*
X65777266Y-66710000D01*
X65782690Y-66737266D01*
X65655000Y-66737266D01*
X65608930Y-66746430D01*
X65462500Y-66600000D01*
X64600000Y-66600000D01*
X64600000Y-67900000D01*
X64620000Y-67900000D01*
X64620000Y-68100000D01*
X64600000Y-68100000D01*
X64600000Y-68120000D01*
X64400000Y-68120000D01*
X64400000Y-68100000D01*
X64380000Y-68100000D01*
X64380000Y-67900000D01*
X64400000Y-67900000D01*
X64400000Y-66600000D01*
X64380000Y-66600000D01*
X64380000Y-66400000D01*
X64400000Y-66400000D01*
X64400000Y-66380000D01*
X64600000Y-66380000D01*
X64600000Y-66400000D01*
X65462500Y-66400000D01*
X65575920Y-66286580D01*
X65777266Y-66487927D01*
G36*
X64420839Y-56289024D02*
X65060976Y-56929161D01*
X65897355Y-57275600D01*
X66566110Y-57275600D01*
X66500303Y-57341407D01*
X66208000Y-58047088D01*
X66208000Y-58810912D01*
X66500303Y-59516593D01*
X67040407Y-60056697D01*
X67746088Y-60349000D01*
X68509912Y-60349000D01*
X69215593Y-60056697D01*
X69350000Y-59922290D01*
X69350000Y-66737266D01*
X68610000Y-66737266D01*
X68610000Y-66662500D01*
X68447500Y-66500000D01*
X67750000Y-66500000D01*
X67750000Y-66520000D01*
X67722734Y-66520000D01*
X67722734Y-66090000D01*
X67672286Y-65836383D01*
X67550000Y-65653368D01*
X67550000Y-65602500D01*
X67750000Y-65602500D01*
X67750000Y-66300000D01*
X68447500Y-66300000D01*
X68610000Y-66137500D01*
X68610000Y-65960707D01*
X68511043Y-65721805D01*
X68328195Y-65538957D01*
X68089293Y-65440000D01*
X67912500Y-65440000D01*
X67750000Y-65602500D01*
X67550000Y-65602500D01*
X67387500Y-65440000D01*
X67256900Y-65440000D01*
X67622714Y-65288475D01*
X68002475Y-64908714D01*
X68208000Y-64412532D01*
X68208000Y-63875468D01*
X68002475Y-63379286D01*
X67622714Y-62999525D01*
X67126532Y-62794000D01*
X66589468Y-62794000D01*
X66549754Y-62810450D01*
X66077143Y-62337838D01*
X66036695Y-62277305D01*
X65796881Y-62117065D01*
X65585404Y-62075000D01*
X65585400Y-62075000D01*
X65514000Y-62060798D01*
X65442600Y-62075000D01*
X60937004Y-62075000D01*
X60937007Y-62074954D01*
X60945144Y-62062777D01*
X60963846Y-61968757D01*
X60987792Y-61875927D01*
X60985744Y-61861421D01*
X60990967Y-61847739D01*
X60988279Y-61751905D01*
X60990967Y-61656071D01*
X60985744Y-61642389D01*
X60987792Y-61627883D01*
X60963845Y-61535050D01*
X60953648Y-61483789D01*
X61112161Y-61325276D01*
X61172694Y-61284829D01*
X61332935Y-61045015D01*
X61375000Y-60833538D01*
X61375000Y-60833534D01*
X61389202Y-60762134D01*
X61375000Y-60690734D01*
X61375000Y-60668000D01*
X61792532Y-60668000D01*
X62288714Y-60462475D01*
X62507005Y-60244184D01*
X62771237Y-60244184D01*
X62829984Y-60487406D01*
X63332761Y-60676225D01*
X63869524Y-60658266D01*
X64282016Y-60487406D01*
X64340763Y-60244184D01*
X63556000Y-59459421D01*
X62771237Y-60244184D01*
X62507005Y-60244184D01*
X62668475Y-60082714D01*
X62681634Y-60050945D01*
X63414579Y-59318000D01*
X63697421Y-59318000D01*
X64482184Y-60102763D01*
X64725406Y-60044016D01*
X64914225Y-59541239D01*
X64896266Y-59004476D01*
X64725406Y-58591984D01*
X64482184Y-58533237D01*
X63697421Y-59318000D01*
X63414579Y-59318000D01*
X63400437Y-59303858D01*
X63541858Y-59162437D01*
X63556000Y-59176579D01*
X64340763Y-58391816D01*
X64282016Y-58148594D01*
X63818831Y-57974644D01*
X63898225Y-57763239D01*
X63880266Y-57226476D01*
X63709406Y-56813984D01*
X63466184Y-56755237D01*
X62681421Y-57540000D01*
X62695564Y-57554143D01*
X62554143Y-57695564D01*
X62540000Y-57681421D01*
X62525858Y-57695564D01*
X62384437Y-57554143D01*
X62398579Y-57540000D01*
X61665634Y-56807055D01*
X61652475Y-56775286D01*
X61491005Y-56613816D01*
X61755237Y-56613816D01*
X62540000Y-57398579D01*
X63324763Y-56613816D01*
X63266016Y-56370594D01*
X62763239Y-56181775D01*
X62226476Y-56199734D01*
X61813984Y-56370594D01*
X61755237Y-56613816D01*
X61491005Y-56613816D01*
X61272714Y-56395525D01*
X60776532Y-56190000D01*
X60239468Y-56190000D01*
X59743286Y-56395525D01*
X59492000Y-56646811D01*
X59240714Y-56395525D01*
X58744532Y-56190000D01*
X58207468Y-56190000D01*
X57711286Y-56395525D01*
X57460000Y-56646811D01*
X57208714Y-56395525D01*
X56712532Y-56190000D01*
X56175468Y-56190000D01*
X55679286Y-56395525D01*
X55299525Y-56775286D01*
X55094000Y-57271468D01*
X55094000Y-57808532D01*
X55299525Y-58304714D01*
X55679286Y-58684475D01*
X55719000Y-58700925D01*
X55719000Y-58805562D01*
X53687837Y-60836726D01*
X53627306Y-60877172D01*
X53586860Y-60937703D01*
X53586858Y-60937705D01*
X53467065Y-61116987D01*
X53410798Y-61399867D01*
X53425001Y-61471272D01*
X53425001Y-62799993D01*
X53410532Y-62794000D01*
X52873468Y-62794000D01*
X52377286Y-62999525D01*
X51997525Y-63379286D01*
X51792000Y-63875468D01*
X51792000Y-64412532D01*
X51997525Y-64908714D01*
X52377286Y-65288475D01*
X52417001Y-65304925D01*
X52417001Y-65727586D01*
X52377714Y-65786383D01*
X52327266Y-66040000D01*
X52327266Y-66470000D01*
X52300000Y-66470000D01*
X52300000Y-66450000D01*
X51602500Y-66450000D01*
X51440000Y-66612500D01*
X51440000Y-66789293D01*
X51485857Y-66900000D01*
X51449998Y-66900000D01*
X51449998Y-67062498D01*
X51287500Y-66900000D01*
X50650000Y-66900000D01*
X50650000Y-65910707D01*
X51440000Y-65910707D01*
X51440000Y-66087500D01*
X51602500Y-66250000D01*
X52300000Y-66250000D01*
X52300000Y-65552500D01*
X52137500Y-65390000D01*
X51960707Y-65390000D01*
X51721805Y-65488957D01*
X51538957Y-65671805D01*
X51440000Y-65910707D01*
X50650000Y-65910707D01*
X50650000Y-59922290D01*
X50784407Y-60056697D01*
X51490088Y-60349000D01*
X52253912Y-60349000D01*
X52959593Y-60056697D01*
X53499697Y-59516593D01*
X53792000Y-58810912D01*
X53792000Y-58047088D01*
X53499697Y-57341407D01*
X53433890Y-57275600D01*
X54102645Y-57275600D01*
X54939024Y-56929161D01*
X55579161Y-56289024D01*
X55740300Y-55900000D01*
X64259700Y-55900000D01*
X64420839Y-56289024D01*
X64420839Y-56289024D01*
G37*
X64420839Y-56289024D02*
X65060976Y-56929161D01*
X65897355Y-57275600D01*
X66566110Y-57275600D01*
X66500303Y-57341407D01*
X66208000Y-58047088D01*
X66208000Y-58810912D01*
X66500303Y-59516593D01*
X67040407Y-60056697D01*
X67746088Y-60349000D01*
X68509912Y-60349000D01*
X69215593Y-60056697D01*
X69350000Y-59922290D01*
X69350000Y-66737266D01*
X68610000Y-66737266D01*
X68610000Y-66662500D01*
X68447500Y-66500000D01*
X67750000Y-66500000D01*
X67750000Y-66520000D01*
X67722734Y-66520000D01*
X67722734Y-66090000D01*
X67672286Y-65836383D01*
X67550000Y-65653368D01*
X67550000Y-65602500D01*
X67750000Y-65602500D01*
X67750000Y-66300000D01*
X68447500Y-66300000D01*
X68610000Y-66137500D01*
X68610000Y-65960707D01*
X68511043Y-65721805D01*
X68328195Y-65538957D01*
X68089293Y-65440000D01*
X67912500Y-65440000D01*
X67750000Y-65602500D01*
X67550000Y-65602500D01*
X67387500Y-65440000D01*
X67256900Y-65440000D01*
X67622714Y-65288475D01*
X68002475Y-64908714D01*
X68208000Y-64412532D01*
X68208000Y-63875468D01*
X68002475Y-63379286D01*
X67622714Y-62999525D01*
X67126532Y-62794000D01*
X66589468Y-62794000D01*
X66549754Y-62810450D01*
X66077143Y-62337838D01*
X66036695Y-62277305D01*
X65796881Y-62117065D01*
X65585404Y-62075000D01*
X65585400Y-62075000D01*
X65514000Y-62060798D01*
X65442600Y-62075000D01*
X60937004Y-62075000D01*
X60937007Y-62074954D01*
X60945144Y-62062777D01*
X60963846Y-61968757D01*
X60987792Y-61875927D01*
X60985744Y-61861421D01*
X60990967Y-61847739D01*
X60988279Y-61751905D01*
X60990967Y-61656071D01*
X60985744Y-61642389D01*
X60987792Y-61627883D01*
X60963845Y-61535050D01*
X60953648Y-61483789D01*
X61112161Y-61325276D01*
X61172694Y-61284829D01*
X61332935Y-61045015D01*
X61375000Y-60833538D01*
X61375000Y-60833534D01*
X61389202Y-60762134D01*
X61375000Y-60690734D01*
X61375000Y-60668000D01*
X61792532Y-60668000D01*
X62288714Y-60462475D01*
X62507005Y-60244184D01*
X62771237Y-60244184D01*
X62829984Y-60487406D01*
X63332761Y-60676225D01*
X63869524Y-60658266D01*
X64282016Y-60487406D01*
X64340763Y-60244184D01*
X63556000Y-59459421D01*
X62771237Y-60244184D01*
X62507005Y-60244184D01*
X62668475Y-60082714D01*
X62681634Y-60050945D01*
X63414579Y-59318000D01*
X63697421Y-59318000D01*
X64482184Y-60102763D01*
X64725406Y-60044016D01*
X64914225Y-59541239D01*
X64896266Y-59004476D01*
X64725406Y-58591984D01*
X64482184Y-58533237D01*
X63697421Y-59318000D01*
X63414579Y-59318000D01*
X63400437Y-59303858D01*
X63541858Y-59162437D01*
X63556000Y-59176579D01*
X64340763Y-58391816D01*
X64282016Y-58148594D01*
X63818831Y-57974644D01*
X63898225Y-57763239D01*
X63880266Y-57226476D01*
X63709406Y-56813984D01*
X63466184Y-56755237D01*
X62681421Y-57540000D01*
X62695564Y-57554143D01*
X62554143Y-57695564D01*
X62540000Y-57681421D01*
X62525858Y-57695564D01*
X62384437Y-57554143D01*
X62398579Y-57540000D01*
X61665634Y-56807055D01*
X61652475Y-56775286D01*
X61491005Y-56613816D01*
X61755237Y-56613816D01*
X62540000Y-57398579D01*
X63324763Y-56613816D01*
X63266016Y-56370594D01*
X62763239Y-56181775D01*
X62226476Y-56199734D01*
X61813984Y-56370594D01*
X61755237Y-56613816D01*
X61491005Y-56613816D01*
X61272714Y-56395525D01*
X60776532Y-56190000D01*
X60239468Y-56190000D01*
X59743286Y-56395525D01*
X59492000Y-56646811D01*
X59240714Y-56395525D01*
X58744532Y-56190000D01*
X58207468Y-56190000D01*
X57711286Y-56395525D01*
X57460000Y-56646811D01*
X57208714Y-56395525D01*
X56712532Y-56190000D01*
X56175468Y-56190000D01*
X55679286Y-56395525D01*
X55299525Y-56775286D01*
X55094000Y-57271468D01*
X55094000Y-57808532D01*
X55299525Y-58304714D01*
X55679286Y-58684475D01*
X55719000Y-58700925D01*
X55719000Y-58805562D01*
X53687837Y-60836726D01*
X53627306Y-60877172D01*
X53586860Y-60937703D01*
X53586858Y-60937705D01*
X53467065Y-61116987D01*
X53410798Y-61399867D01*
X53425001Y-61471272D01*
X53425001Y-62799993D01*
X53410532Y-62794000D01*
X52873468Y-62794000D01*
X52377286Y-62999525D01*
X51997525Y-63379286D01*
X51792000Y-63875468D01*
X51792000Y-64412532D01*
X51997525Y-64908714D01*
X52377286Y-65288475D01*
X52417001Y-65304925D01*
X52417001Y-65727586D01*
X52377714Y-65786383D01*
X52327266Y-66040000D01*
X52327266Y-66470000D01*
X52300000Y-66470000D01*
X52300000Y-66450000D01*
X51602500Y-66450000D01*
X51440000Y-66612500D01*
X51440000Y-66789293D01*
X51485857Y-66900000D01*
X51449998Y-66900000D01*
X51449998Y-67062498D01*
X51287500Y-66900000D01*
X50650000Y-66900000D01*
X50650000Y-65910707D01*
X51440000Y-65910707D01*
X51440000Y-66087500D01*
X51602500Y-66250000D01*
X52300000Y-66250000D01*
X52300000Y-65552500D01*
X52137500Y-65390000D01*
X51960707Y-65390000D01*
X51721805Y-65488957D01*
X51538957Y-65671805D01*
X51440000Y-65910707D01*
X50650000Y-65910707D01*
X50650000Y-59922290D01*
X50784407Y-60056697D01*
X51490088Y-60349000D01*
X52253912Y-60349000D01*
X52959593Y-60056697D01*
X53499697Y-59516593D01*
X53792000Y-58810912D01*
X53792000Y-58047088D01*
X53499697Y-57341407D01*
X53433890Y-57275600D01*
X54102645Y-57275600D01*
X54939024Y-56929161D01*
X55579161Y-56289024D01*
X55740300Y-55900000D01*
X64259700Y-55900000D01*
X64420839Y-56289024D01*
G04 #@! TD*
M02*
