G04 #@! TF.GenerationSoftware,KiCad,Pcbnew,6.0.0-rc1-unknown-106eaaa~84~ubuntu18.04.1*
G04 #@! TF.CreationDate,2018-11-27T01:39:04+00:00*
G04 #@! TF.ProjectId,proto-sensor,70726f74-6f2d-4736-956e-736f722e6b69,1*
G04 #@! TF.SameCoordinates,Original*
G04 #@! TF.FileFunction,Copper,L3,Inr*
G04 #@! TF.FilePolarity,Positive*
%FSLAX46Y46*%
G04 Gerber Fmt 4.6, Leading zero omitted, Abs format (unit mm)*
G04 Created by KiCad (PCBNEW 6.0.0-rc1-unknown-106eaaa~84~ubuntu18.04.1) date Tue 27 Nov 2018 01:39:04 GMT*
%MOMM*%
%LPD*%
G01*
G04 APERTURE LIST*
G04 #@! TA.AperFunction,ViaPad*
%ADD10C,1.400000*%
G04 #@! TD*
G04 #@! TA.AperFunction,ViaPad*
%ADD11C,2.540000*%
G04 #@! TD*
G04 #@! TA.AperFunction,ViaPad*
%ADD12R,1.900000X1.900000*%
G04 #@! TD*
G04 #@! TA.AperFunction,ViaPad*
%ADD13C,1.016000*%
G04 #@! TD*
G04 #@! TA.AperFunction,ViaPad*
%ADD14C,3.200000*%
G04 #@! TD*
G04 #@! TA.AperFunction,ViaPad*
%ADD15C,2.000000*%
G04 #@! TD*
G04 #@! TA.AperFunction,ViaPad*
%ADD16C,0.600000*%
G04 #@! TD*
G04 #@! TA.AperFunction,ViaPad*
%ADD17C,0.457200*%
G04 #@! TD*
G04 #@! TA.AperFunction,ViaPad*
%ADD18C,0.800000*%
G04 #@! TD*
G04 #@! TA.AperFunction,Conductor*
%ADD19C,0.300000*%
G04 #@! TD*
G04 APERTURE END LIST*
D10*
G04 #@! TO.N,GND*
G04 #@! TO.C,IC1*
X63556000Y-59318000D03*
G04 #@! TO.N,/RX-*
X61524000Y-59318000D03*
G04 #@! TO.N,/PWRIN*
X59492000Y-59318000D03*
G04 #@! TO.N,/TX-*
X57460000Y-59318000D03*
G04 #@! TO.N,GND*
X62540000Y-57540000D03*
G04 #@! TO.N,/PWRIN*
X60508000Y-57540000D03*
G04 #@! TO.N,/RX+*
X58476000Y-57540000D03*
G04 #@! TO.N,/TX+*
X56444000Y-57540000D03*
G04 #@! TO.N,/LED2*
X66858000Y-64144000D03*
G04 #@! TO.N,Net-(IC1-Pad9)*
X53142000Y-64144000D03*
G04 #@! TO.N,Net-(IC1-Pad11)*
X64572000Y-64144000D03*
G04 #@! TO.N,/LED1*
X55428000Y-64144000D03*
D11*
G04 #@! TO.N,Net-(IC1-PadS1)*
X68128000Y-58429000D03*
G04 #@! TO.N,Net-(IC1-PadS2)*
X51872000Y-58429000D03*
G04 #@! TD*
D12*
G04 #@! TO.N,GND*
G04 #@! TO.C,J3*
X51550000Y-68500000D03*
G04 #@! TD*
D13*
G04 #@! TO.N,/FLASH_SDO*
G04 #@! TO.C,J1*
X66465000Y-93960000D03*
G04 #@! TO.N,GND*
X67735000Y-93960000D03*
G04 #@! TO.N,/CRESET_B*
X66465000Y-95230000D03*
G04 #@! TO.N,Net-(J1-Pad7)*
X67735000Y-95230000D03*
G04 #@! TO.N,/FLASH_SS*
X66465000Y-96500000D03*
G04 #@! TO.N,GND*
X67735000Y-96500000D03*
G04 #@! TO.N,/FLASH_SCK*
X66465000Y-97770000D03*
G04 #@! TO.N,GND*
X67735000Y-97770000D03*
G04 #@! TO.N,/FLASH_SDI*
X66465000Y-99040000D03*
G04 #@! TO.N,3v3*
X67735000Y-99040000D03*
G04 #@! TD*
D14*
G04 #@! TO.N,GND*
G04 #@! TO.C,P1*
X56700000Y-108700000D03*
X63300000Y-108700000D03*
X56700000Y-115300000D03*
D15*
G04 #@! TO.N,Net-(D4-Pad1)*
X60000000Y-112000000D03*
D14*
G04 #@! TO.N,GND*
X63300000Y-115300000D03*
G04 #@! TD*
D16*
G04 #@! TO.N,3v3*
X61500000Y-65700000D03*
X50700000Y-85600000D03*
X52300000Y-89400000D03*
X56700000Y-103200000D03*
X64800000Y-84500000D03*
X67300000Y-91500000D03*
X62600000Y-98900000D03*
X69250000Y-88600000D03*
X68900000Y-83200000D03*
X55150000Y-89350000D03*
X63650000Y-97000000D03*
D17*
X60400000Y-86000000D03*
X58000000Y-84400000D03*
X58000000Y-83600000D03*
X60400000Y-82000000D03*
X61200000Y-83600000D03*
X62800000Y-81200000D03*
D16*
X64900000Y-81200000D03*
X51900000Y-85500000D03*
X64800000Y-104400000D03*
X55200000Y-104400000D03*
X52500000Y-72300000D03*
D18*
X64200000Y-73500000D03*
D16*
X63700000Y-74050000D03*
D18*
G04 #@! TO.N,GND*
X65700000Y-66500000D03*
D16*
X68500000Y-66400000D03*
X59700000Y-66500000D03*
X66200000Y-69600000D03*
X64900000Y-82300000D03*
X64900000Y-80200000D03*
X64800000Y-85300000D03*
X66000000Y-74700000D03*
X66000000Y-77500000D03*
X53400000Y-77800000D03*
X50700000Y-83000000D03*
X52300000Y-90300000D03*
X63400000Y-100700000D03*
X56700000Y-102300000D03*
D17*
X59600000Y-84400000D03*
X60400000Y-84400000D03*
X60400000Y-83600000D03*
X59600000Y-83600000D03*
D16*
X69300000Y-79400000D03*
X69400000Y-91400000D03*
X67200000Y-88600000D03*
X64100000Y-93400000D03*
X67700000Y-86700000D03*
X69500000Y-83700000D03*
X55150000Y-90250000D03*
X51000000Y-119000000D03*
X51000000Y-117000000D03*
X51000000Y-115000000D03*
X51000000Y-113000000D03*
X51000000Y-111000000D03*
X51000000Y-107000000D03*
X51000000Y-105000000D03*
X51000000Y-103000000D03*
X51000000Y-101000000D03*
X53000000Y-119000000D03*
X55000000Y-119000000D03*
X57000000Y-119000000D03*
X59000000Y-119000000D03*
X61000000Y-119000000D03*
X63000000Y-119000000D03*
X65000000Y-119000000D03*
X67000000Y-119000000D03*
X69000000Y-119000000D03*
X69000000Y-117000000D03*
X69000000Y-115000000D03*
X69000000Y-113000000D03*
X69000000Y-111000000D03*
X69000000Y-109000000D03*
X69000000Y-107000000D03*
X69000000Y-105000000D03*
X69000000Y-103000000D03*
X69000000Y-101000000D03*
X69000000Y-99000000D03*
X69000000Y-97000000D03*
X69000000Y-95000000D03*
X69000000Y-93000000D03*
X51000000Y-99000000D03*
X51000000Y-97000000D03*
X51000000Y-95000000D03*
X51000000Y-93000000D03*
X51000000Y-91000000D03*
X55000000Y-95000000D03*
X55000000Y-97000000D03*
X57000000Y-99000000D03*
X58000000Y-101000000D03*
X62000000Y-103000000D03*
X64500000Y-91500000D03*
X69250000Y-74000000D03*
X69250000Y-77250000D03*
D17*
X59600000Y-85200000D03*
D16*
X58900000Y-67500000D03*
X51000000Y-109000000D03*
X55450000Y-68250000D03*
X55450000Y-65550000D03*
X51600000Y-66350000D03*
X51000000Y-77000000D03*
X51000000Y-75000000D03*
X53000000Y-75000000D03*
X53500000Y-72500000D03*
X53250000Y-69750000D03*
X53250000Y-67500000D03*
X51000000Y-64500000D03*
X51000000Y-61000000D03*
X55250000Y-58750000D03*
X57500000Y-56250000D03*
X53750000Y-57500000D03*
X61500000Y-61750000D03*
X63250000Y-63500000D03*
X65750000Y-61750000D03*
X69000000Y-64500000D03*
X69000000Y-61000000D03*
X66250000Y-57250000D03*
X66000000Y-59000000D03*
X59500000Y-90500000D03*
X62500000Y-90500000D03*
X59500000Y-92000000D03*
X59500000Y-93750000D03*
X55000000Y-99000000D03*
X55000000Y-101000000D03*
X59600000Y-72950000D03*
X61700000Y-72950000D03*
X63050000Y-73100000D03*
X62050000Y-75450000D03*
G04 #@! TO.N,/LED1*
X57400000Y-64800000D03*
D18*
G04 #@! TO.N,/PWRIN*
X62900000Y-64900000D03*
D16*
X52500000Y-70800000D03*
G04 #@! TO.N,1v2*
X54300000Y-77800000D03*
X59600000Y-74400000D03*
X51800000Y-88400000D03*
X64900000Y-83100000D03*
X69300000Y-82000000D03*
D17*
X58000000Y-82000000D03*
X58000000Y-86000000D03*
X61200000Y-86000000D03*
X62000000Y-82800000D03*
D16*
X54900000Y-80200000D03*
X55200000Y-84800000D03*
X59600000Y-73775000D03*
X52500000Y-73800000D03*
D17*
G04 #@! TO.N,/FLASH_SDO*
X67700000Y-87700000D03*
D16*
G04 #@! TO.N,/FLASH_SS*
X65400000Y-88800000D03*
X66600000Y-88100000D03*
X64480000Y-94100000D03*
D17*
G04 #@! TO.N,/FLASH_SCK*
X63525000Y-88350000D03*
D16*
X63500000Y-89800000D03*
D17*
G04 #@! TO.N,/FLASH_IO3*
X65050000Y-87750000D03*
X68700000Y-86150000D03*
D16*
G04 #@! TO.N,/FLASH_IO2*
X67000000Y-86200000D03*
D17*
X63700000Y-85300000D03*
D16*
G04 #@! TO.N,/LED3*
X63200000Y-79200000D03*
X64700000Y-75400000D03*
G04 #@! TO.N,/LED4*
X64000000Y-79200000D03*
X65400000Y-76100000D03*
G04 #@! TO.N,/CRESET_B*
X65300000Y-94000000D03*
X53850000Y-93000000D03*
X64300000Y-90000000D03*
G04 #@! TD*
D19*
G04 #@! TO.N,3v3*
G36*
X56750000Y-56100816D02*
X56750000Y-56399184D01*
X56761407Y-56426723D01*
X56672749Y-56390000D01*
X56215251Y-56390000D01*
X55792577Y-56565077D01*
X55469077Y-56888577D01*
X55294000Y-57311251D01*
X55294000Y-57768749D01*
X55389787Y-58000000D01*
X55100816Y-58000000D01*
X54825159Y-58114181D01*
X54614181Y-58325159D01*
X54500000Y-58600816D01*
X54500000Y-58899184D01*
X54614181Y-59174841D01*
X54825159Y-59385819D01*
X55100816Y-59500000D01*
X55399184Y-59500000D01*
X55674841Y-59385819D01*
X55885819Y-59174841D01*
X56000000Y-58899184D01*
X56000000Y-58600840D01*
X56215251Y-58690000D01*
X56475375Y-58690000D01*
X56310000Y-59089251D01*
X56310000Y-59546749D01*
X56485077Y-59969423D01*
X56808577Y-60292923D01*
X57231251Y-60468000D01*
X57688749Y-60468000D01*
X58111423Y-60292923D01*
X58434923Y-59969423D01*
X58476000Y-59870254D01*
X58517077Y-59969423D01*
X58840577Y-60292923D01*
X59263251Y-60468000D01*
X59720749Y-60468000D01*
X60143423Y-60292923D01*
X60466923Y-59969423D01*
X60508000Y-59870254D01*
X60549077Y-59969423D01*
X60872577Y-60292923D01*
X61295251Y-60468000D01*
X61752749Y-60468000D01*
X62175423Y-60292923D01*
X62498923Y-59969423D01*
X62540000Y-59870254D01*
X62581077Y-59969423D01*
X62904577Y-60292923D01*
X63327251Y-60468000D01*
X63784749Y-60468000D01*
X64207423Y-60292923D01*
X64530923Y-59969423D01*
X64706000Y-59546749D01*
X64706000Y-59089251D01*
X64530923Y-58666577D01*
X64207423Y-58343077D01*
X63784749Y-58168000D01*
X63524625Y-58168000D01*
X63690000Y-57768749D01*
X63690000Y-57311251D01*
X63514923Y-56888577D01*
X63191423Y-56565077D01*
X62768749Y-56390000D01*
X62311251Y-56390000D01*
X61888577Y-56565077D01*
X61565077Y-56888577D01*
X61524000Y-56987746D01*
X61482923Y-56888577D01*
X61159423Y-56565077D01*
X60736749Y-56390000D01*
X60279251Y-56390000D01*
X59856577Y-56565077D01*
X59533077Y-56888577D01*
X59492000Y-56987746D01*
X59450923Y-56888577D01*
X59127423Y-56565077D01*
X58704749Y-56390000D01*
X58250000Y-56390000D01*
X58250000Y-56100816D01*
X58166819Y-55900000D01*
X64476179Y-55900000D01*
X64590392Y-56175733D01*
X65174267Y-56759608D01*
X65572933Y-56924741D01*
X65500000Y-57100816D01*
X65500000Y-57399184D01*
X65614181Y-57674841D01*
X65825159Y-57885819D01*
X66100816Y-58000000D01*
X66399184Y-58000000D01*
X66453261Y-57977600D01*
X66408000Y-58086871D01*
X66408000Y-58357205D01*
X66149184Y-58250000D01*
X65850816Y-58250000D01*
X65575159Y-58364181D01*
X65364181Y-58575159D01*
X65250000Y-58850816D01*
X65250000Y-59149184D01*
X65364181Y-59424841D01*
X65575159Y-59635819D01*
X65850816Y-59750000D01*
X66149184Y-59750000D01*
X66424841Y-59635819D01*
X66635819Y-59424841D01*
X66657297Y-59372988D01*
X66669854Y-59403302D01*
X67153698Y-59887146D01*
X67785871Y-60149000D01*
X68470129Y-60149000D01*
X69102302Y-59887146D01*
X69550000Y-59439448D01*
X69550000Y-60489340D01*
X69424841Y-60364181D01*
X69149184Y-60250000D01*
X68850816Y-60250000D01*
X68575159Y-60364181D01*
X68364181Y-60575159D01*
X68250000Y-60850816D01*
X68250000Y-61149184D01*
X68364181Y-61424841D01*
X68575159Y-61635819D01*
X68850816Y-61750000D01*
X69149184Y-61750000D01*
X69424841Y-61635819D01*
X69550000Y-61510660D01*
X69550000Y-63989340D01*
X69424841Y-63864181D01*
X69149184Y-63750000D01*
X68850816Y-63750000D01*
X68575159Y-63864181D01*
X68364181Y-64075159D01*
X68250000Y-64350816D01*
X68250000Y-64649184D01*
X68364181Y-64924841D01*
X68575159Y-65135819D01*
X68850816Y-65250000D01*
X69149184Y-65250000D01*
X69424841Y-65135819D01*
X69550000Y-65010660D01*
X69550000Y-73312470D01*
X69399184Y-73250000D01*
X69100816Y-73250000D01*
X68825159Y-73364181D01*
X68614181Y-73575159D01*
X68500000Y-73850816D01*
X68500000Y-74149184D01*
X68614181Y-74424841D01*
X68825159Y-74635819D01*
X69100816Y-74750000D01*
X69399184Y-74750000D01*
X69550000Y-74687530D01*
X69550000Y-76562470D01*
X69399184Y-76500000D01*
X69100816Y-76500000D01*
X68825159Y-76614181D01*
X68614181Y-76825159D01*
X68500000Y-77100816D01*
X68500000Y-77399184D01*
X68614181Y-77674841D01*
X68825159Y-77885819D01*
X69100816Y-78000000D01*
X69399184Y-78000000D01*
X69550000Y-77937530D01*
X69550000Y-78691760D01*
X69449184Y-78650000D01*
X69150816Y-78650000D01*
X68875159Y-78764181D01*
X68664181Y-78975159D01*
X68550000Y-79250816D01*
X68550000Y-79549184D01*
X68664181Y-79824841D01*
X68875159Y-80035819D01*
X69150816Y-80150000D01*
X69449184Y-80150000D01*
X69550000Y-80108240D01*
X69550000Y-81291760D01*
X69449184Y-81250000D01*
X69150816Y-81250000D01*
X68875159Y-81364181D01*
X68664181Y-81575159D01*
X68550000Y-81850816D01*
X68550000Y-82149184D01*
X68664181Y-82424841D01*
X68875159Y-82635819D01*
X69150816Y-82750000D01*
X69449184Y-82750000D01*
X69550000Y-82708240D01*
X69550000Y-82950000D01*
X69350816Y-82950000D01*
X69075159Y-83064181D01*
X68864181Y-83275159D01*
X68750000Y-83550816D01*
X68750000Y-83849184D01*
X68864181Y-84124841D01*
X69075159Y-84335819D01*
X69350816Y-84450000D01*
X69550000Y-84450000D01*
X69550001Y-90650338D01*
X69549184Y-90650000D01*
X69250816Y-90650000D01*
X68975159Y-90764181D01*
X68764181Y-90975159D01*
X68650000Y-91250816D01*
X68650000Y-91549184D01*
X68764181Y-91824841D01*
X68975159Y-92035819D01*
X69250816Y-92150000D01*
X69549184Y-92150000D01*
X69550001Y-92149662D01*
X69550001Y-92489341D01*
X69424841Y-92364181D01*
X69149184Y-92250000D01*
X68850816Y-92250000D01*
X68575159Y-92364181D01*
X68364181Y-92575159D01*
X68250000Y-92850816D01*
X68250000Y-93136389D01*
X67925558Y-93002000D01*
X67544442Y-93002000D01*
X67192337Y-93147847D01*
X67100000Y-93240184D01*
X67007663Y-93147847D01*
X66655558Y-93002000D01*
X66274442Y-93002000D01*
X65922337Y-93147847D01*
X65711521Y-93358663D01*
X65449184Y-93250000D01*
X65150816Y-93250000D01*
X64875159Y-93364181D01*
X64850000Y-93389340D01*
X64850000Y-93250816D01*
X64735819Y-92975159D01*
X64524841Y-92764181D01*
X64249184Y-92650000D01*
X63950816Y-92650000D01*
X63820541Y-92703962D01*
X63826371Y-92698132D01*
X63971000Y-92348967D01*
X63971000Y-92031660D01*
X64075159Y-92135819D01*
X64350816Y-92250000D01*
X64649184Y-92250000D01*
X64924841Y-92135819D01*
X65135819Y-91924841D01*
X65250000Y-91649184D01*
X65250000Y-91350816D01*
X65135819Y-91075159D01*
X64924841Y-90864181D01*
X64649184Y-90750000D01*
X64449184Y-90750000D01*
X64724841Y-90635819D01*
X64935819Y-90424841D01*
X65050000Y-90149184D01*
X65050000Y-89850816D01*
X64935819Y-89575159D01*
X64724841Y-89364181D01*
X64449184Y-89250000D01*
X64150816Y-89250000D01*
X64051711Y-89291051D01*
X63924841Y-89164181D01*
X63649184Y-89050000D01*
X63350816Y-89050000D01*
X63075159Y-89164181D01*
X62864181Y-89375159D01*
X62750000Y-89650816D01*
X62750000Y-89791759D01*
X62649184Y-89750000D01*
X62350816Y-89750000D01*
X62075159Y-89864181D01*
X61864181Y-90075159D01*
X61750000Y-90350816D01*
X61750000Y-90649184D01*
X61864181Y-90924841D01*
X62075159Y-91135819D01*
X62350816Y-91250000D01*
X62649184Y-91250000D01*
X62924841Y-91135819D01*
X63135819Y-90924841D01*
X63250000Y-90649184D01*
X63250000Y-90508241D01*
X63350816Y-90550000D01*
X63649184Y-90550000D01*
X63748289Y-90508949D01*
X63875159Y-90635819D01*
X64150816Y-90750000D01*
X64350816Y-90750000D01*
X64075159Y-90864181D01*
X63864181Y-91075159D01*
X63750000Y-91350816D01*
X63750000Y-91545497D01*
X63559132Y-91354629D01*
X63209967Y-91210000D01*
X62832033Y-91210000D01*
X62482868Y-91354629D01*
X62215629Y-91621868D01*
X62071000Y-91971033D01*
X62071000Y-92348967D01*
X62215629Y-92698132D01*
X62482868Y-92965371D01*
X62832033Y-93110000D01*
X63209967Y-93110000D01*
X63449410Y-93010819D01*
X63350000Y-93250816D01*
X63350000Y-93549184D01*
X63464181Y-93824841D01*
X63675159Y-94035819D01*
X63730000Y-94058535D01*
X63730000Y-94249184D01*
X63844181Y-94524841D01*
X64055159Y-94735819D01*
X64330816Y-94850000D01*
X64629184Y-94850000D01*
X64904841Y-94735819D01*
X64966858Y-94673802D01*
X65150816Y-94750000D01*
X65449184Y-94750000D01*
X65689886Y-94650298D01*
X65652847Y-94687337D01*
X65507000Y-95039442D01*
X65507000Y-95420558D01*
X65652847Y-95772663D01*
X65745184Y-95865000D01*
X65652847Y-95957337D01*
X65507000Y-96309442D01*
X65507000Y-96690558D01*
X65652847Y-97042663D01*
X65745184Y-97135000D01*
X65652847Y-97227337D01*
X65507000Y-97579442D01*
X65507000Y-97960558D01*
X65652847Y-98312663D01*
X65745184Y-98405000D01*
X65652847Y-98497337D01*
X65507000Y-98849442D01*
X65507000Y-99230558D01*
X65652847Y-99582663D01*
X65922337Y-99852153D01*
X66274442Y-99998000D01*
X66655558Y-99998000D01*
X66918498Y-99889086D01*
X66972918Y-99943506D01*
X67089225Y-99827199D01*
X67124404Y-100050543D01*
X67557601Y-100207285D01*
X68017805Y-100186318D01*
X68345596Y-100050543D01*
X68380775Y-99827197D01*
X67735000Y-99181421D01*
X67720858Y-99195564D01*
X67579437Y-99054143D01*
X67593579Y-99040000D01*
X67579437Y-99025858D01*
X67720858Y-98884437D01*
X67735000Y-98898579D01*
X67749143Y-98884437D01*
X67890564Y-99025858D01*
X67876421Y-99040000D01*
X68522197Y-99685775D01*
X68647946Y-99665968D01*
X68850816Y-99750000D01*
X69149184Y-99750000D01*
X69424841Y-99635819D01*
X69550001Y-99510659D01*
X69550001Y-100489341D01*
X69424841Y-100364181D01*
X69149184Y-100250000D01*
X68850816Y-100250000D01*
X68575159Y-100364181D01*
X68364181Y-100575159D01*
X68250000Y-100850816D01*
X68250000Y-101149184D01*
X68364181Y-101424841D01*
X68575159Y-101635819D01*
X68850816Y-101750000D01*
X69149184Y-101750000D01*
X69424841Y-101635819D01*
X69550001Y-101510659D01*
X69550001Y-102489341D01*
X69424841Y-102364181D01*
X69149184Y-102250000D01*
X68850816Y-102250000D01*
X68575159Y-102364181D01*
X68364181Y-102575159D01*
X68250000Y-102850816D01*
X68250000Y-103149184D01*
X68364181Y-103424841D01*
X68575159Y-103635819D01*
X68850816Y-103750000D01*
X69149184Y-103750000D01*
X69424841Y-103635819D01*
X69550001Y-103510659D01*
X69550001Y-104489341D01*
X69424841Y-104364181D01*
X69149184Y-104250000D01*
X68850816Y-104250000D01*
X68575159Y-104364181D01*
X68364181Y-104575159D01*
X68250000Y-104850816D01*
X68250000Y-105149184D01*
X68364181Y-105424841D01*
X68575159Y-105635819D01*
X68850816Y-105750000D01*
X69149184Y-105750000D01*
X69424841Y-105635819D01*
X69550001Y-105510659D01*
X69550001Y-106489341D01*
X69424841Y-106364181D01*
X69149184Y-106250000D01*
X68850816Y-106250000D01*
X68575159Y-106364181D01*
X68364181Y-106575159D01*
X68250000Y-106850816D01*
X68250000Y-107149184D01*
X68364181Y-107424841D01*
X68575159Y-107635819D01*
X68850816Y-107750000D01*
X69149184Y-107750000D01*
X69424841Y-107635819D01*
X69550001Y-107510659D01*
X69550001Y-108489341D01*
X69424841Y-108364181D01*
X69149184Y-108250000D01*
X68850816Y-108250000D01*
X68575159Y-108364181D01*
X68364181Y-108575159D01*
X68250000Y-108850816D01*
X68250000Y-109149184D01*
X68364181Y-109424841D01*
X68575159Y-109635819D01*
X68850816Y-109750000D01*
X69149184Y-109750000D01*
X69424841Y-109635819D01*
X69550001Y-109510659D01*
X69550001Y-110489341D01*
X69424841Y-110364181D01*
X69149184Y-110250000D01*
X68850816Y-110250000D01*
X68575159Y-110364181D01*
X68364181Y-110575159D01*
X68250000Y-110850816D01*
X68250000Y-111149184D01*
X68364181Y-111424841D01*
X68575159Y-111635819D01*
X68850816Y-111750000D01*
X69149184Y-111750000D01*
X69424841Y-111635819D01*
X69550001Y-111510659D01*
X69550001Y-112489341D01*
X69424841Y-112364181D01*
X69149184Y-112250000D01*
X68850816Y-112250000D01*
X68575159Y-112364181D01*
X68364181Y-112575159D01*
X68250000Y-112850816D01*
X68250000Y-113149184D01*
X68364181Y-113424841D01*
X68575159Y-113635819D01*
X68850816Y-113750000D01*
X69149184Y-113750000D01*
X69424841Y-113635819D01*
X69550001Y-113510659D01*
X69550001Y-114489341D01*
X69424841Y-114364181D01*
X69149184Y-114250000D01*
X68850816Y-114250000D01*
X68575159Y-114364181D01*
X68364181Y-114575159D01*
X68250000Y-114850816D01*
X68250000Y-115149184D01*
X68364181Y-115424841D01*
X68575159Y-115635819D01*
X68850816Y-115750000D01*
X69149184Y-115750000D01*
X69424841Y-115635819D01*
X69550001Y-115510659D01*
X69550001Y-116489341D01*
X69424841Y-116364181D01*
X69149184Y-116250000D01*
X68850816Y-116250000D01*
X68575159Y-116364181D01*
X68364181Y-116575159D01*
X68250000Y-116850816D01*
X68250000Y-117149184D01*
X68364181Y-117424841D01*
X68575159Y-117635819D01*
X68850816Y-117750000D01*
X69149184Y-117750000D01*
X69424841Y-117635819D01*
X69550001Y-117510659D01*
X69550001Y-118489341D01*
X69424841Y-118364181D01*
X69149184Y-118250000D01*
X68850816Y-118250000D01*
X68575159Y-118364181D01*
X68364181Y-118575159D01*
X68250000Y-118850816D01*
X68250000Y-119149184D01*
X68364181Y-119424841D01*
X68489340Y-119550000D01*
X67510660Y-119550000D01*
X67635819Y-119424841D01*
X67750000Y-119149184D01*
X67750000Y-118850816D01*
X67635819Y-118575159D01*
X67424841Y-118364181D01*
X67149184Y-118250000D01*
X66850816Y-118250000D01*
X66575159Y-118364181D01*
X66364181Y-118575159D01*
X66250000Y-118850816D01*
X66250000Y-119149184D01*
X66364181Y-119424841D01*
X66489340Y-119550000D01*
X65510660Y-119550000D01*
X65635819Y-119424841D01*
X65750000Y-119149184D01*
X65750000Y-118850816D01*
X65635819Y-118575159D01*
X65424841Y-118364181D01*
X65149184Y-118250000D01*
X64850816Y-118250000D01*
X64575159Y-118364181D01*
X64364181Y-118575159D01*
X64250000Y-118850816D01*
X64250000Y-119149184D01*
X64364181Y-119424841D01*
X64489340Y-119550000D01*
X63510660Y-119550000D01*
X63635819Y-119424841D01*
X63750000Y-119149184D01*
X63750000Y-118850816D01*
X63635819Y-118575159D01*
X63424841Y-118364181D01*
X63149184Y-118250000D01*
X62850816Y-118250000D01*
X62575159Y-118364181D01*
X62364181Y-118575159D01*
X62250000Y-118850816D01*
X62250000Y-119149184D01*
X62364181Y-119424841D01*
X62489340Y-119550000D01*
X61510660Y-119550000D01*
X61635819Y-119424841D01*
X61750000Y-119149184D01*
X61750000Y-118850816D01*
X61635819Y-118575159D01*
X61424841Y-118364181D01*
X61149184Y-118250000D01*
X60850816Y-118250000D01*
X60575159Y-118364181D01*
X60364181Y-118575159D01*
X60250000Y-118850816D01*
X60250000Y-119149184D01*
X60364181Y-119424841D01*
X60489340Y-119550000D01*
X59510660Y-119550000D01*
X59635819Y-119424841D01*
X59750000Y-119149184D01*
X59750000Y-118850816D01*
X59635819Y-118575159D01*
X59424841Y-118364181D01*
X59149184Y-118250000D01*
X58850816Y-118250000D01*
X58575159Y-118364181D01*
X58364181Y-118575159D01*
X58250000Y-118850816D01*
X58250000Y-119149184D01*
X58364181Y-119424841D01*
X58489340Y-119550000D01*
X57510660Y-119550000D01*
X57635819Y-119424841D01*
X57750000Y-119149184D01*
X57750000Y-118850816D01*
X57635819Y-118575159D01*
X57424841Y-118364181D01*
X57149184Y-118250000D01*
X56850816Y-118250000D01*
X56575159Y-118364181D01*
X56364181Y-118575159D01*
X56250000Y-118850816D01*
X56250000Y-119149184D01*
X56364181Y-119424841D01*
X56489340Y-119550000D01*
X55510660Y-119550000D01*
X55635819Y-119424841D01*
X55750000Y-119149184D01*
X55750000Y-118850816D01*
X55635819Y-118575159D01*
X55424841Y-118364181D01*
X55149184Y-118250000D01*
X54850816Y-118250000D01*
X54575159Y-118364181D01*
X54364181Y-118575159D01*
X54250000Y-118850816D01*
X54250000Y-119149184D01*
X54364181Y-119424841D01*
X54489340Y-119550000D01*
X53510660Y-119550000D01*
X53635819Y-119424841D01*
X53750000Y-119149184D01*
X53750000Y-118850816D01*
X53635819Y-118575159D01*
X53424841Y-118364181D01*
X53149184Y-118250000D01*
X52850816Y-118250000D01*
X52575159Y-118364181D01*
X52364181Y-118575159D01*
X52250000Y-118850816D01*
X52250000Y-119149184D01*
X52364181Y-119424841D01*
X52489340Y-119550000D01*
X51510660Y-119550000D01*
X51635819Y-119424841D01*
X51750000Y-119149184D01*
X51750000Y-118850816D01*
X51635819Y-118575159D01*
X51424841Y-118364181D01*
X51149184Y-118250000D01*
X50850816Y-118250000D01*
X50575159Y-118364181D01*
X50450000Y-118489340D01*
X50450000Y-117510660D01*
X50575159Y-117635819D01*
X50850816Y-117750000D01*
X51149184Y-117750000D01*
X51424841Y-117635819D01*
X51635819Y-117424841D01*
X51750000Y-117149184D01*
X51750000Y-116850816D01*
X51635819Y-116575159D01*
X51424841Y-116364181D01*
X51149184Y-116250000D01*
X50850816Y-116250000D01*
X50575159Y-116364181D01*
X50450000Y-116489340D01*
X50450000Y-115510660D01*
X50575159Y-115635819D01*
X50850816Y-115750000D01*
X51149184Y-115750000D01*
X51424841Y-115635819D01*
X51635819Y-115424841D01*
X51750000Y-115149184D01*
X51750000Y-114892230D01*
X54650000Y-114892230D01*
X54650000Y-115707770D01*
X54962094Y-116461232D01*
X55538768Y-117037906D01*
X56292230Y-117350000D01*
X57107770Y-117350000D01*
X57861232Y-117037906D01*
X58437906Y-116461232D01*
X58750000Y-115707770D01*
X58750000Y-114892230D01*
X61250000Y-114892230D01*
X61250000Y-115707770D01*
X61562094Y-116461232D01*
X62138768Y-117037906D01*
X62892230Y-117350000D01*
X63707770Y-117350000D01*
X64461232Y-117037906D01*
X65037906Y-116461232D01*
X65350000Y-115707770D01*
X65350000Y-114892230D01*
X65037906Y-114138768D01*
X64461232Y-113562094D01*
X63707770Y-113250000D01*
X62892230Y-113250000D01*
X62138768Y-113562094D01*
X61562094Y-114138768D01*
X61250000Y-114892230D01*
X58750000Y-114892230D01*
X58437906Y-114138768D01*
X57861232Y-113562094D01*
X57107770Y-113250000D01*
X56292230Y-113250000D01*
X55538768Y-113562094D01*
X54962094Y-114138768D01*
X54650000Y-114892230D01*
X51750000Y-114892230D01*
X51750000Y-114850816D01*
X51635819Y-114575159D01*
X51424841Y-114364181D01*
X51149184Y-114250000D01*
X50850816Y-114250000D01*
X50575159Y-114364181D01*
X50450000Y-114489340D01*
X50450000Y-113510660D01*
X50575159Y-113635819D01*
X50850816Y-113750000D01*
X51149184Y-113750000D01*
X51424841Y-113635819D01*
X51635819Y-113424841D01*
X51750000Y-113149184D01*
X51750000Y-112850816D01*
X51635819Y-112575159D01*
X51424841Y-112364181D01*
X51149184Y-112250000D01*
X50850816Y-112250000D01*
X50575159Y-112364181D01*
X50450000Y-112489340D01*
X50450000Y-111510660D01*
X50575159Y-111635819D01*
X50850816Y-111750000D01*
X51149184Y-111750000D01*
X51241945Y-111711577D01*
X58550000Y-111711577D01*
X58550000Y-112288423D01*
X58770750Y-112821359D01*
X59178641Y-113229250D01*
X59711577Y-113450000D01*
X60288423Y-113450000D01*
X60821359Y-113229250D01*
X61229250Y-112821359D01*
X61450000Y-112288423D01*
X61450000Y-111711577D01*
X61229250Y-111178641D01*
X60821359Y-110770750D01*
X60288423Y-110550000D01*
X59711577Y-110550000D01*
X59178641Y-110770750D01*
X58770750Y-111178641D01*
X58550000Y-111711577D01*
X51241945Y-111711577D01*
X51424841Y-111635819D01*
X51635819Y-111424841D01*
X51750000Y-111149184D01*
X51750000Y-110850816D01*
X51635819Y-110575159D01*
X51424841Y-110364181D01*
X51149184Y-110250000D01*
X50850816Y-110250000D01*
X50575159Y-110364181D01*
X50450000Y-110489340D01*
X50450000Y-109510660D01*
X50575159Y-109635819D01*
X50850816Y-109750000D01*
X51149184Y-109750000D01*
X51424841Y-109635819D01*
X51635819Y-109424841D01*
X51750000Y-109149184D01*
X51750000Y-108850816D01*
X51635819Y-108575159D01*
X51424841Y-108364181D01*
X51251137Y-108292230D01*
X54650000Y-108292230D01*
X54650000Y-109107770D01*
X54962094Y-109861232D01*
X55538768Y-110437906D01*
X56292230Y-110750000D01*
X57107770Y-110750000D01*
X57861232Y-110437906D01*
X58437906Y-109861232D01*
X58750000Y-109107770D01*
X58750000Y-108292230D01*
X61250000Y-108292230D01*
X61250000Y-109107770D01*
X61562094Y-109861232D01*
X62138768Y-110437906D01*
X62892230Y-110750000D01*
X63707770Y-110750000D01*
X64461232Y-110437906D01*
X65037906Y-109861232D01*
X65350000Y-109107770D01*
X65350000Y-108292230D01*
X65037906Y-107538768D01*
X64461232Y-106962094D01*
X63707770Y-106650000D01*
X62892230Y-106650000D01*
X62138768Y-106962094D01*
X61562094Y-107538768D01*
X61250000Y-108292230D01*
X58750000Y-108292230D01*
X58437906Y-107538768D01*
X57861232Y-106962094D01*
X57107770Y-106650000D01*
X56292230Y-106650000D01*
X55538768Y-106962094D01*
X54962094Y-107538768D01*
X54650000Y-108292230D01*
X51251137Y-108292230D01*
X51149184Y-108250000D01*
X50850816Y-108250000D01*
X50575159Y-108364181D01*
X50450000Y-108489340D01*
X50450000Y-107510660D01*
X50575159Y-107635819D01*
X50850816Y-107750000D01*
X51149184Y-107750000D01*
X51424841Y-107635819D01*
X51635819Y-107424841D01*
X51750000Y-107149184D01*
X51750000Y-106850816D01*
X51635819Y-106575159D01*
X51424841Y-106364181D01*
X51149184Y-106250000D01*
X50850816Y-106250000D01*
X50575159Y-106364181D01*
X50450000Y-106489340D01*
X50450000Y-105510660D01*
X50575159Y-105635819D01*
X50850816Y-105750000D01*
X51149184Y-105750000D01*
X51424841Y-105635819D01*
X51635819Y-105424841D01*
X51750000Y-105149184D01*
X51750000Y-104850816D01*
X51635819Y-104575159D01*
X51424841Y-104364181D01*
X51149184Y-104250000D01*
X50850816Y-104250000D01*
X50575159Y-104364181D01*
X50450000Y-104489340D01*
X50450000Y-103510660D01*
X50575159Y-103635819D01*
X50850816Y-103750000D01*
X51149184Y-103750000D01*
X51424841Y-103635819D01*
X51635819Y-103424841D01*
X51750000Y-103149184D01*
X51750000Y-102850816D01*
X51635819Y-102575159D01*
X51424841Y-102364181D01*
X51149184Y-102250000D01*
X50850816Y-102250000D01*
X50575159Y-102364181D01*
X50450000Y-102489340D01*
X50450000Y-102150816D01*
X55950000Y-102150816D01*
X55950000Y-102449184D01*
X56064181Y-102724841D01*
X56275159Y-102935819D01*
X56550816Y-103050000D01*
X56849184Y-103050000D01*
X57124841Y-102935819D01*
X57209844Y-102850816D01*
X61250000Y-102850816D01*
X61250000Y-103149184D01*
X61364181Y-103424841D01*
X61575159Y-103635819D01*
X61850816Y-103750000D01*
X62149184Y-103750000D01*
X62424841Y-103635819D01*
X62635819Y-103424841D01*
X62750000Y-103149184D01*
X62750000Y-102850816D01*
X62635819Y-102575159D01*
X62424841Y-102364181D01*
X62149184Y-102250000D01*
X61850816Y-102250000D01*
X61575159Y-102364181D01*
X61364181Y-102575159D01*
X61250000Y-102850816D01*
X57209844Y-102850816D01*
X57335819Y-102724841D01*
X57450000Y-102449184D01*
X57450000Y-102150816D01*
X57335819Y-101875159D01*
X57124841Y-101664181D01*
X56849184Y-101550000D01*
X56550816Y-101550000D01*
X56275159Y-101664181D01*
X56064181Y-101875159D01*
X55950000Y-102150816D01*
X50450000Y-102150816D01*
X50450000Y-101510660D01*
X50575159Y-101635819D01*
X50850816Y-101750000D01*
X51149184Y-101750000D01*
X51424841Y-101635819D01*
X51635819Y-101424841D01*
X51750000Y-101149184D01*
X51750000Y-100850816D01*
X54250000Y-100850816D01*
X54250000Y-101149184D01*
X54364181Y-101424841D01*
X54575159Y-101635819D01*
X54850816Y-101750000D01*
X55149184Y-101750000D01*
X55424841Y-101635819D01*
X55635819Y-101424841D01*
X55750000Y-101149184D01*
X55750000Y-100850816D01*
X57250000Y-100850816D01*
X57250000Y-101149184D01*
X57364181Y-101424841D01*
X57575159Y-101635819D01*
X57850816Y-101750000D01*
X58149184Y-101750000D01*
X58424841Y-101635819D01*
X58635819Y-101424841D01*
X58750000Y-101149184D01*
X58750000Y-100850816D01*
X58635819Y-100575159D01*
X58611476Y-100550816D01*
X62650000Y-100550816D01*
X62650000Y-100849184D01*
X62764181Y-101124841D01*
X62975159Y-101335819D01*
X63250816Y-101450000D01*
X63549184Y-101450000D01*
X63824841Y-101335819D01*
X64035819Y-101124841D01*
X64150000Y-100849184D01*
X64150000Y-100550816D01*
X64035819Y-100275159D01*
X63824841Y-100064181D01*
X63549184Y-99950000D01*
X63250816Y-99950000D01*
X62975159Y-100064181D01*
X62764181Y-100275159D01*
X62650000Y-100550816D01*
X58611476Y-100550816D01*
X58424841Y-100364181D01*
X58149184Y-100250000D01*
X57850816Y-100250000D01*
X57575159Y-100364181D01*
X57364181Y-100575159D01*
X57250000Y-100850816D01*
X55750000Y-100850816D01*
X55635819Y-100575159D01*
X55424841Y-100364181D01*
X55149184Y-100250000D01*
X54850816Y-100250000D01*
X54575159Y-100364181D01*
X54364181Y-100575159D01*
X54250000Y-100850816D01*
X51750000Y-100850816D01*
X51635819Y-100575159D01*
X51424841Y-100364181D01*
X51149184Y-100250000D01*
X50850816Y-100250000D01*
X50575159Y-100364181D01*
X50450000Y-100489340D01*
X50450000Y-99510660D01*
X50575159Y-99635819D01*
X50850816Y-99750000D01*
X51149184Y-99750000D01*
X51424841Y-99635819D01*
X51635819Y-99424841D01*
X51750000Y-99149184D01*
X51750000Y-98850816D01*
X54250000Y-98850816D01*
X54250000Y-99149184D01*
X54364181Y-99424841D01*
X54575159Y-99635819D01*
X54850816Y-99750000D01*
X55149184Y-99750000D01*
X55424841Y-99635819D01*
X55635819Y-99424841D01*
X55750000Y-99149184D01*
X55750000Y-98850816D01*
X56250000Y-98850816D01*
X56250000Y-99149184D01*
X56364181Y-99424841D01*
X56575159Y-99635819D01*
X56850816Y-99750000D01*
X57149184Y-99750000D01*
X57424841Y-99635819D01*
X57635819Y-99424841D01*
X57750000Y-99149184D01*
X57750000Y-98850816D01*
X57635819Y-98575159D01*
X57424841Y-98364181D01*
X57149184Y-98250000D01*
X56850816Y-98250000D01*
X56575159Y-98364181D01*
X56364181Y-98575159D01*
X56250000Y-98850816D01*
X55750000Y-98850816D01*
X55635819Y-98575159D01*
X55424841Y-98364181D01*
X55149184Y-98250000D01*
X54850816Y-98250000D01*
X54575159Y-98364181D01*
X54364181Y-98575159D01*
X54250000Y-98850816D01*
X51750000Y-98850816D01*
X51635819Y-98575159D01*
X51424841Y-98364181D01*
X51149184Y-98250000D01*
X50850816Y-98250000D01*
X50575159Y-98364181D01*
X50450000Y-98489340D01*
X50450000Y-97510660D01*
X50575159Y-97635819D01*
X50850816Y-97750000D01*
X51149184Y-97750000D01*
X51424841Y-97635819D01*
X51635819Y-97424841D01*
X51750000Y-97149184D01*
X51750000Y-96850816D01*
X54250000Y-96850816D01*
X54250000Y-97149184D01*
X54364181Y-97424841D01*
X54575159Y-97635819D01*
X54850816Y-97750000D01*
X55149184Y-97750000D01*
X55424841Y-97635819D01*
X55635819Y-97424841D01*
X55750000Y-97149184D01*
X55750000Y-97051033D01*
X61055000Y-97051033D01*
X61055000Y-97428967D01*
X61199629Y-97778132D01*
X61466868Y-98045371D01*
X61816033Y-98190000D01*
X62193967Y-98190000D01*
X62543132Y-98045371D01*
X62810371Y-97778132D01*
X62955000Y-97428967D01*
X62955000Y-97051033D01*
X62810371Y-96701868D01*
X62543132Y-96434629D01*
X62193967Y-96290000D01*
X61816033Y-96290000D01*
X61466868Y-96434629D01*
X61199629Y-96701868D01*
X61055000Y-97051033D01*
X55750000Y-97051033D01*
X55750000Y-96850816D01*
X55635819Y-96575159D01*
X55424841Y-96364181D01*
X55149184Y-96250000D01*
X54850816Y-96250000D01*
X54575159Y-96364181D01*
X54364181Y-96575159D01*
X54250000Y-96850816D01*
X51750000Y-96850816D01*
X51635819Y-96575159D01*
X51424841Y-96364181D01*
X51149184Y-96250000D01*
X50850816Y-96250000D01*
X50575159Y-96364181D01*
X50450000Y-96489340D01*
X50450000Y-95510660D01*
X50575159Y-95635819D01*
X50850816Y-95750000D01*
X51149184Y-95750000D01*
X51424841Y-95635819D01*
X51635819Y-95424841D01*
X51750000Y-95149184D01*
X51750000Y-94850816D01*
X54250000Y-94850816D01*
X54250000Y-95149184D01*
X54364181Y-95424841D01*
X54575159Y-95635819D01*
X54850816Y-95750000D01*
X55149184Y-95750000D01*
X55424841Y-95635819D01*
X55635819Y-95424841D01*
X55750000Y-95149184D01*
X55750000Y-94850816D01*
X55635819Y-94575159D01*
X55424841Y-94364181D01*
X55149184Y-94250000D01*
X54850816Y-94250000D01*
X54575159Y-94364181D01*
X54364181Y-94575159D01*
X54250000Y-94850816D01*
X51750000Y-94850816D01*
X51635819Y-94575159D01*
X51424841Y-94364181D01*
X51149184Y-94250000D01*
X50850816Y-94250000D01*
X50575159Y-94364181D01*
X50450000Y-94489340D01*
X50450000Y-93510660D01*
X50575159Y-93635819D01*
X50850816Y-93750000D01*
X51149184Y-93750000D01*
X51424841Y-93635819D01*
X51635819Y-93424841D01*
X51750000Y-93149184D01*
X51750000Y-92850816D01*
X53100000Y-92850816D01*
X53100000Y-93149184D01*
X53214181Y-93424841D01*
X53425159Y-93635819D01*
X53700816Y-93750000D01*
X53999184Y-93750000D01*
X54274841Y-93635819D01*
X54309844Y-93600816D01*
X58750000Y-93600816D01*
X58750000Y-93899184D01*
X58864181Y-94174841D01*
X59075159Y-94385819D01*
X59350816Y-94500000D01*
X59649184Y-94500000D01*
X59924841Y-94385819D01*
X60135819Y-94174841D01*
X60250000Y-93899184D01*
X60250000Y-93600816D01*
X60135819Y-93325159D01*
X59924841Y-93114181D01*
X59649184Y-93000000D01*
X59350816Y-93000000D01*
X59075159Y-93114181D01*
X58864181Y-93325159D01*
X58750000Y-93600816D01*
X54309844Y-93600816D01*
X54485819Y-93424841D01*
X54600000Y-93149184D01*
X54600000Y-92850816D01*
X54485819Y-92575159D01*
X54274841Y-92364181D01*
X53999184Y-92250000D01*
X53700816Y-92250000D01*
X53425159Y-92364181D01*
X53214181Y-92575159D01*
X53100000Y-92850816D01*
X51750000Y-92850816D01*
X51635819Y-92575159D01*
X51424841Y-92364181D01*
X51149184Y-92250000D01*
X50850816Y-92250000D01*
X50575159Y-92364181D01*
X50450000Y-92489340D01*
X50450000Y-91510660D01*
X50575159Y-91635819D01*
X50850816Y-91750000D01*
X51149184Y-91750000D01*
X51424841Y-91635819D01*
X51635819Y-91424841D01*
X51750000Y-91149184D01*
X51750000Y-90850816D01*
X51721605Y-90782265D01*
X51875159Y-90935819D01*
X52150816Y-91050000D01*
X52449184Y-91050000D01*
X52724841Y-90935819D01*
X52935819Y-90724841D01*
X53050000Y-90449184D01*
X53050000Y-90150816D01*
X53029290Y-90100816D01*
X54400000Y-90100816D01*
X54400000Y-90399184D01*
X54514181Y-90674841D01*
X54725159Y-90885819D01*
X55000816Y-91000000D01*
X55299184Y-91000000D01*
X55574841Y-90885819D01*
X55785819Y-90674841D01*
X55900000Y-90399184D01*
X55900000Y-90350816D01*
X58750000Y-90350816D01*
X58750000Y-90649184D01*
X58864181Y-90924841D01*
X59075159Y-91135819D01*
X59350816Y-91250000D01*
X59075159Y-91364181D01*
X58864181Y-91575159D01*
X58750000Y-91850816D01*
X58750000Y-92149184D01*
X58864181Y-92424841D01*
X59075159Y-92635819D01*
X59350816Y-92750000D01*
X59649184Y-92750000D01*
X59924841Y-92635819D01*
X60089581Y-92471079D01*
X60183629Y-92698132D01*
X60450868Y-92965371D01*
X60800033Y-93110000D01*
X61177967Y-93110000D01*
X61527132Y-92965371D01*
X61794371Y-92698132D01*
X61939000Y-92348967D01*
X61939000Y-91971033D01*
X61794371Y-91621868D01*
X61527132Y-91354629D01*
X61177967Y-91210000D01*
X60800033Y-91210000D01*
X60450868Y-91354629D01*
X60183629Y-91621868D01*
X60169398Y-91656225D01*
X60135819Y-91575159D01*
X59924841Y-91364181D01*
X59649184Y-91250000D01*
X59924841Y-91135819D01*
X60135819Y-90924841D01*
X60250000Y-90649184D01*
X60250000Y-90350816D01*
X60135819Y-90075159D01*
X59924841Y-89864181D01*
X59649184Y-89750000D01*
X59350816Y-89750000D01*
X59075159Y-89864181D01*
X58864181Y-90075159D01*
X58750000Y-90350816D01*
X55900000Y-90350816D01*
X55900000Y-90100816D01*
X55785819Y-89825159D01*
X55574841Y-89614181D01*
X55299184Y-89500000D01*
X55000816Y-89500000D01*
X54725159Y-89614181D01*
X54514181Y-89825159D01*
X54400000Y-90100816D01*
X53029290Y-90100816D01*
X52935819Y-89875159D01*
X52724841Y-89664181D01*
X52449184Y-89550000D01*
X52150816Y-89550000D01*
X51875159Y-89664181D01*
X51664181Y-89875159D01*
X51550000Y-90150816D01*
X51550000Y-90449184D01*
X51578395Y-90517735D01*
X51424841Y-90364181D01*
X51149184Y-90250000D01*
X50850816Y-90250000D01*
X50575159Y-90364181D01*
X50450000Y-90489340D01*
X50450000Y-88250816D01*
X51050000Y-88250816D01*
X51050000Y-88549184D01*
X51164181Y-88824841D01*
X51375159Y-89035819D01*
X51650816Y-89150000D01*
X51949184Y-89150000D01*
X52224841Y-89035819D01*
X52435819Y-88824841D01*
X52550000Y-88549184D01*
X52550000Y-88250816D01*
X52535172Y-88215018D01*
X62846400Y-88215018D01*
X62846400Y-88484982D01*
X62949710Y-88734396D01*
X63140604Y-88925290D01*
X63390018Y-89028600D01*
X63659982Y-89028600D01*
X63909396Y-88925290D01*
X64100290Y-88734396D01*
X64203600Y-88484982D01*
X64203600Y-88215018D01*
X64100290Y-87965604D01*
X63909396Y-87774710D01*
X63659982Y-87671400D01*
X63390018Y-87671400D01*
X63140604Y-87774710D01*
X62949710Y-87965604D01*
X62846400Y-88215018D01*
X52535172Y-88215018D01*
X52435819Y-87975159D01*
X52224841Y-87764181D01*
X51949184Y-87650000D01*
X51650816Y-87650000D01*
X51375159Y-87764181D01*
X51164181Y-87975159D01*
X51050000Y-88250816D01*
X50450000Y-88250816D01*
X50450000Y-87615018D01*
X64371400Y-87615018D01*
X64371400Y-87884982D01*
X64474710Y-88134396D01*
X64665604Y-88325290D01*
X64770571Y-88368769D01*
X64764181Y-88375159D01*
X64650000Y-88650816D01*
X64650000Y-88949184D01*
X64764181Y-89224841D01*
X64975159Y-89435819D01*
X65250816Y-89550000D01*
X65549184Y-89550000D01*
X65824841Y-89435819D01*
X66035819Y-89224841D01*
X66150000Y-88949184D01*
X66150000Y-88710660D01*
X66175159Y-88735819D01*
X66450816Y-88850000D01*
X66491759Y-88850000D01*
X66564181Y-89024841D01*
X66775159Y-89235819D01*
X67050816Y-89350000D01*
X67349184Y-89350000D01*
X67624841Y-89235819D01*
X67835819Y-89024841D01*
X67950000Y-88749184D01*
X67950000Y-88450816D01*
X67907624Y-88348511D01*
X68084396Y-88275290D01*
X68275290Y-88084396D01*
X68378600Y-87834982D01*
X68378600Y-87565018D01*
X68275290Y-87315604D01*
X68210173Y-87250487D01*
X68335819Y-87124841D01*
X68450000Y-86849184D01*
X68450000Y-86780958D01*
X68565018Y-86828600D01*
X68834982Y-86828600D01*
X69084396Y-86725290D01*
X69275290Y-86534396D01*
X69378600Y-86284982D01*
X69378600Y-86015018D01*
X69275290Y-85765604D01*
X69084396Y-85574710D01*
X68834982Y-85471400D01*
X68565018Y-85471400D01*
X68315604Y-85574710D01*
X68124710Y-85765604D01*
X68021400Y-86015018D01*
X68021400Y-86021334D01*
X67849184Y-85950000D01*
X67708241Y-85950000D01*
X67635819Y-85775159D01*
X67424841Y-85564181D01*
X67149184Y-85450000D01*
X66850816Y-85450000D01*
X66575159Y-85564181D01*
X66364181Y-85775159D01*
X66250000Y-86050816D01*
X66250000Y-86349184D01*
X66364181Y-86624841D01*
X66575159Y-86835819D01*
X66850816Y-86950000D01*
X66991759Y-86950000D01*
X67064181Y-87124841D01*
X67189827Y-87250487D01*
X67124710Y-87315604D01*
X67051942Y-87491282D01*
X67024841Y-87464181D01*
X66749184Y-87350000D01*
X66450816Y-87350000D01*
X66175159Y-87464181D01*
X65964181Y-87675159D01*
X65850000Y-87950816D01*
X65850000Y-88189340D01*
X65824841Y-88164181D01*
X65643983Y-88089267D01*
X65728600Y-87884982D01*
X65728600Y-87615018D01*
X65625290Y-87365604D01*
X65434396Y-87174710D01*
X65184982Y-87071400D01*
X64915018Y-87071400D01*
X64665604Y-87174710D01*
X64474710Y-87365604D01*
X64371400Y-87615018D01*
X50450000Y-87615018D01*
X50450000Y-85865018D01*
X57321400Y-85865018D01*
X57321400Y-86134982D01*
X57424710Y-86384396D01*
X57615604Y-86575290D01*
X57865018Y-86678600D01*
X58134982Y-86678600D01*
X58384396Y-86575290D01*
X58575290Y-86384396D01*
X58678600Y-86134982D01*
X58678600Y-85865018D01*
X58575290Y-85615604D01*
X58384396Y-85424710D01*
X58134982Y-85321400D01*
X57865018Y-85321400D01*
X57615604Y-85424710D01*
X57424710Y-85615604D01*
X57321400Y-85865018D01*
X50450000Y-85865018D01*
X50450000Y-84650816D01*
X54450000Y-84650816D01*
X54450000Y-84949184D01*
X54564181Y-85224841D01*
X54775159Y-85435819D01*
X55050816Y-85550000D01*
X55349184Y-85550000D01*
X55624841Y-85435819D01*
X55835819Y-85224841D01*
X55950000Y-84949184D01*
X55950000Y-84650816D01*
X55835819Y-84375159D01*
X55624841Y-84164181D01*
X55349184Y-84050000D01*
X55050816Y-84050000D01*
X54775159Y-84164181D01*
X54564181Y-84375159D01*
X54450000Y-84650816D01*
X50450000Y-84650816D01*
X50450000Y-83708241D01*
X50550816Y-83750000D01*
X50849184Y-83750000D01*
X51124841Y-83635819D01*
X51295642Y-83465018D01*
X58921400Y-83465018D01*
X58921400Y-83734982D01*
X59024710Y-83984396D01*
X59040314Y-84000000D01*
X59024710Y-84015604D01*
X58921400Y-84265018D01*
X58921400Y-84534982D01*
X59024710Y-84784396D01*
X59040314Y-84800000D01*
X59024710Y-84815604D01*
X58921400Y-85065018D01*
X58921400Y-85334982D01*
X59024710Y-85584396D01*
X59215604Y-85775290D01*
X59465018Y-85878600D01*
X59734982Y-85878600D01*
X59767772Y-85865018D01*
X60521400Y-85865018D01*
X60521400Y-86134982D01*
X60624710Y-86384396D01*
X60815604Y-86575290D01*
X61065018Y-86678600D01*
X61334982Y-86678600D01*
X61584396Y-86575290D01*
X61775290Y-86384396D01*
X61878600Y-86134982D01*
X61878600Y-85865018D01*
X61775290Y-85615604D01*
X61584396Y-85424710D01*
X61334982Y-85321400D01*
X61065018Y-85321400D01*
X60815604Y-85424710D01*
X60624710Y-85615604D01*
X60521400Y-85865018D01*
X59767772Y-85865018D01*
X59984396Y-85775290D01*
X60175290Y-85584396D01*
X60278600Y-85334982D01*
X60278600Y-85165018D01*
X63021400Y-85165018D01*
X63021400Y-85434982D01*
X63124710Y-85684396D01*
X63315604Y-85875290D01*
X63565018Y-85978600D01*
X63834982Y-85978600D01*
X64084396Y-85875290D01*
X64199513Y-85760173D01*
X64375159Y-85935819D01*
X64650816Y-86050000D01*
X64949184Y-86050000D01*
X65224841Y-85935819D01*
X65435819Y-85724841D01*
X65550000Y-85449184D01*
X65550000Y-85150816D01*
X65435819Y-84875159D01*
X65224841Y-84664181D01*
X64949184Y-84550000D01*
X64650816Y-84550000D01*
X64375159Y-84664181D01*
X64199513Y-84839827D01*
X64084396Y-84724710D01*
X63834982Y-84621400D01*
X63565018Y-84621400D01*
X63315604Y-84724710D01*
X63124710Y-84915604D01*
X63021400Y-85165018D01*
X60278600Y-85165018D01*
X60278600Y-85078600D01*
X60534982Y-85078600D01*
X60784396Y-84975290D01*
X60975290Y-84784396D01*
X61078600Y-84534982D01*
X61078600Y-84265018D01*
X60975290Y-84015604D01*
X60959686Y-84000000D01*
X60975290Y-83984396D01*
X61078600Y-83734982D01*
X61078600Y-83465018D01*
X60975290Y-83215604D01*
X60784396Y-83024710D01*
X60534982Y-82921400D01*
X60265018Y-82921400D01*
X60015604Y-83024710D01*
X60000000Y-83040314D01*
X59984396Y-83024710D01*
X59734982Y-82921400D01*
X59465018Y-82921400D01*
X59215604Y-83024710D01*
X59024710Y-83215604D01*
X58921400Y-83465018D01*
X51295642Y-83465018D01*
X51335819Y-83424841D01*
X51450000Y-83149184D01*
X51450000Y-82850816D01*
X51335819Y-82575159D01*
X51124841Y-82364181D01*
X50849184Y-82250000D01*
X50550816Y-82250000D01*
X50450000Y-82291759D01*
X50450000Y-81865018D01*
X57321400Y-81865018D01*
X57321400Y-82134982D01*
X57424710Y-82384396D01*
X57615604Y-82575290D01*
X57865018Y-82678600D01*
X58134982Y-82678600D01*
X58167772Y-82665018D01*
X61321400Y-82665018D01*
X61321400Y-82934982D01*
X61424710Y-83184396D01*
X61615604Y-83375290D01*
X61865018Y-83478600D01*
X62134982Y-83478600D01*
X62384396Y-83375290D01*
X62575290Y-83184396D01*
X62678600Y-82934982D01*
X62678600Y-82665018D01*
X62575290Y-82415604D01*
X62384396Y-82224710D01*
X62205999Y-82150816D01*
X64150000Y-82150816D01*
X64150000Y-82449184D01*
X64253892Y-82700000D01*
X64150000Y-82950816D01*
X64150000Y-83249184D01*
X64264181Y-83524841D01*
X64475159Y-83735819D01*
X64750816Y-83850000D01*
X65049184Y-83850000D01*
X65324841Y-83735819D01*
X65535819Y-83524841D01*
X65650000Y-83249184D01*
X65650000Y-82950816D01*
X65546108Y-82700000D01*
X65650000Y-82449184D01*
X65650000Y-82150816D01*
X65535819Y-81875159D01*
X65324841Y-81664181D01*
X65049184Y-81550000D01*
X64750816Y-81550000D01*
X64475159Y-81664181D01*
X64264181Y-81875159D01*
X64150000Y-82150816D01*
X62205999Y-82150816D01*
X62134982Y-82121400D01*
X61865018Y-82121400D01*
X61615604Y-82224710D01*
X61424710Y-82415604D01*
X61321400Y-82665018D01*
X58167772Y-82665018D01*
X58384396Y-82575290D01*
X58575290Y-82384396D01*
X58678600Y-82134982D01*
X58678600Y-81865018D01*
X58575290Y-81615604D01*
X58384396Y-81424710D01*
X58134982Y-81321400D01*
X57865018Y-81321400D01*
X57615604Y-81424710D01*
X57424710Y-81615604D01*
X57321400Y-81865018D01*
X50450000Y-81865018D01*
X50450000Y-80050816D01*
X54150000Y-80050816D01*
X54150000Y-80349184D01*
X54264181Y-80624841D01*
X54475159Y-80835819D01*
X54750816Y-80950000D01*
X55049184Y-80950000D01*
X55324841Y-80835819D01*
X55535819Y-80624841D01*
X55650000Y-80349184D01*
X55650000Y-80050816D01*
X55535819Y-79775159D01*
X55324841Y-79564181D01*
X55049184Y-79450000D01*
X54750816Y-79450000D01*
X54475159Y-79564181D01*
X54264181Y-79775159D01*
X54150000Y-80050816D01*
X50450000Y-80050816D01*
X50450000Y-79050816D01*
X62450000Y-79050816D01*
X62450000Y-79349184D01*
X62564181Y-79624841D01*
X62775159Y-79835819D01*
X63050816Y-79950000D01*
X63349184Y-79950000D01*
X63600000Y-79846108D01*
X63850816Y-79950000D01*
X64149184Y-79950000D01*
X64200577Y-79928712D01*
X64150000Y-80050816D01*
X64150000Y-80349184D01*
X64264181Y-80624841D01*
X64475159Y-80835819D01*
X64750816Y-80950000D01*
X65049184Y-80950000D01*
X65324841Y-80835819D01*
X65535819Y-80624841D01*
X65650000Y-80349184D01*
X65650000Y-80050816D01*
X65535819Y-79775159D01*
X65324841Y-79564181D01*
X65049184Y-79450000D01*
X64750816Y-79450000D01*
X64699423Y-79471288D01*
X64750000Y-79349184D01*
X64750000Y-79050816D01*
X64635819Y-78775159D01*
X64424841Y-78564181D01*
X64149184Y-78450000D01*
X63850816Y-78450000D01*
X63600000Y-78553892D01*
X63349184Y-78450000D01*
X63050816Y-78450000D01*
X62775159Y-78564181D01*
X62564181Y-78775159D01*
X62450000Y-79050816D01*
X50450000Y-79050816D01*
X50450000Y-77510660D01*
X50575159Y-77635819D01*
X50850816Y-77750000D01*
X51149184Y-77750000D01*
X51388635Y-77650816D01*
X52650000Y-77650816D01*
X52650000Y-77949184D01*
X52764181Y-78224841D01*
X52975159Y-78435819D01*
X53250816Y-78550000D01*
X53549184Y-78550000D01*
X53824841Y-78435819D01*
X53850000Y-78410660D01*
X53875159Y-78435819D01*
X54150816Y-78550000D01*
X54449184Y-78550000D01*
X54724841Y-78435819D01*
X54935819Y-78224841D01*
X55050000Y-77949184D01*
X55050000Y-77650816D01*
X54935819Y-77375159D01*
X54911476Y-77350816D01*
X65250000Y-77350816D01*
X65250000Y-77649184D01*
X65364181Y-77924841D01*
X65575159Y-78135819D01*
X65850816Y-78250000D01*
X66149184Y-78250000D01*
X66424841Y-78135819D01*
X66635819Y-77924841D01*
X66750000Y-77649184D01*
X66750000Y-77350816D01*
X66635819Y-77075159D01*
X66424841Y-76864181D01*
X66149184Y-76750000D01*
X65850816Y-76750000D01*
X65575159Y-76864181D01*
X65364181Y-77075159D01*
X65250000Y-77350816D01*
X54911476Y-77350816D01*
X54724841Y-77164181D01*
X54449184Y-77050000D01*
X54150816Y-77050000D01*
X53875159Y-77164181D01*
X53850000Y-77189340D01*
X53824841Y-77164181D01*
X53549184Y-77050000D01*
X53250816Y-77050000D01*
X52975159Y-77164181D01*
X52764181Y-77375159D01*
X52650000Y-77650816D01*
X51388635Y-77650816D01*
X51424841Y-77635819D01*
X51635819Y-77424841D01*
X51750000Y-77149184D01*
X51750000Y-76850816D01*
X51635819Y-76575159D01*
X51424841Y-76364181D01*
X51149184Y-76250000D01*
X50850816Y-76250000D01*
X50575159Y-76364181D01*
X50450000Y-76489340D01*
X50450000Y-75510660D01*
X50575159Y-75635819D01*
X50850816Y-75750000D01*
X51149184Y-75750000D01*
X51424841Y-75635819D01*
X51635819Y-75424841D01*
X51750000Y-75149184D01*
X51750000Y-74850816D01*
X51635819Y-74575159D01*
X51424841Y-74364181D01*
X51149184Y-74250000D01*
X50850816Y-74250000D01*
X50575159Y-74364181D01*
X50450000Y-74489340D01*
X50450000Y-73650816D01*
X51750000Y-73650816D01*
X51750000Y-73949184D01*
X51864181Y-74224841D01*
X52075159Y-74435819D01*
X52350816Y-74550000D01*
X52389340Y-74550000D01*
X52364181Y-74575159D01*
X52250000Y-74850816D01*
X52250000Y-75149184D01*
X52364181Y-75424841D01*
X52575159Y-75635819D01*
X52850816Y-75750000D01*
X53149184Y-75750000D01*
X53424841Y-75635819D01*
X53635819Y-75424841D01*
X53687191Y-75300816D01*
X61300000Y-75300816D01*
X61300000Y-75599184D01*
X61414181Y-75874841D01*
X61625159Y-76085819D01*
X61900816Y-76200000D01*
X62199184Y-76200000D01*
X62474841Y-76085819D01*
X62685819Y-75874841D01*
X62800000Y-75599184D01*
X62800000Y-75300816D01*
X62779290Y-75250816D01*
X63950000Y-75250816D01*
X63950000Y-75549184D01*
X64064181Y-75824841D01*
X64275159Y-76035819D01*
X64550816Y-76150000D01*
X64650000Y-76150000D01*
X64650000Y-76249184D01*
X64764181Y-76524841D01*
X64975159Y-76735819D01*
X65250816Y-76850000D01*
X65549184Y-76850000D01*
X65824841Y-76735819D01*
X66035819Y-76524841D01*
X66150000Y-76249184D01*
X66150000Y-75950816D01*
X66035819Y-75675159D01*
X65824841Y-75464181D01*
X65549184Y-75350000D01*
X65450000Y-75350000D01*
X65450000Y-75250816D01*
X65421605Y-75182265D01*
X65575159Y-75335819D01*
X65850816Y-75450000D01*
X66149184Y-75450000D01*
X66424841Y-75335819D01*
X66635819Y-75124841D01*
X66750000Y-74849184D01*
X66750000Y-74550816D01*
X66635819Y-74275159D01*
X66424841Y-74064181D01*
X66149184Y-73950000D01*
X65850816Y-73950000D01*
X65575159Y-74064181D01*
X65364181Y-74275159D01*
X65250000Y-74550816D01*
X65250000Y-74849184D01*
X65278395Y-74917735D01*
X65124841Y-74764181D01*
X64849184Y-74650000D01*
X64550816Y-74650000D01*
X64275159Y-74764181D01*
X64064181Y-74975159D01*
X63950000Y-75250816D01*
X62779290Y-75250816D01*
X62685819Y-75025159D01*
X62474841Y-74814181D01*
X62199184Y-74700000D01*
X61900816Y-74700000D01*
X61625159Y-74814181D01*
X61414181Y-75025159D01*
X61300000Y-75300816D01*
X53687191Y-75300816D01*
X53750000Y-75149184D01*
X53750000Y-74850816D01*
X53635819Y-74575159D01*
X53424841Y-74364181D01*
X53149184Y-74250000D01*
X53110660Y-74250000D01*
X53135819Y-74224841D01*
X53250000Y-73949184D01*
X53250000Y-73650816D01*
X53135819Y-73375159D01*
X52924841Y-73164181D01*
X52649184Y-73050000D01*
X52350816Y-73050000D01*
X52075159Y-73164181D01*
X51864181Y-73375159D01*
X51750000Y-73650816D01*
X50450000Y-73650816D01*
X50450000Y-72350816D01*
X52750000Y-72350816D01*
X52750000Y-72649184D01*
X52864181Y-72924841D01*
X53075159Y-73135819D01*
X53350816Y-73250000D01*
X53649184Y-73250000D01*
X53924841Y-73135819D01*
X54135819Y-72924841D01*
X54187191Y-72800816D01*
X58850000Y-72800816D01*
X58850000Y-73099184D01*
X58959069Y-73362500D01*
X58850000Y-73625816D01*
X58850000Y-73924184D01*
X58917648Y-74087500D01*
X58850000Y-74250816D01*
X58850000Y-74549184D01*
X58964181Y-74824841D01*
X59175159Y-75035819D01*
X59450816Y-75150000D01*
X59749184Y-75150000D01*
X60024841Y-75035819D01*
X60235819Y-74824841D01*
X60350000Y-74549184D01*
X60350000Y-74250816D01*
X60282352Y-74087500D01*
X60350000Y-73924184D01*
X60350000Y-73625816D01*
X60240931Y-73362500D01*
X60350000Y-73099184D01*
X60350000Y-72800816D01*
X60950000Y-72800816D01*
X60950000Y-73099184D01*
X61064181Y-73374841D01*
X61275159Y-73585819D01*
X61550816Y-73700000D01*
X61849184Y-73700000D01*
X62124841Y-73585819D01*
X62335819Y-73374841D01*
X62343934Y-73355250D01*
X62414181Y-73524841D01*
X62625159Y-73735819D01*
X62900816Y-73850000D01*
X63199184Y-73850000D01*
X63474841Y-73735819D01*
X63685819Y-73524841D01*
X63800000Y-73249184D01*
X63800000Y-72950816D01*
X63685819Y-72675159D01*
X63474841Y-72464181D01*
X63199184Y-72350000D01*
X62900816Y-72350000D01*
X62625159Y-72464181D01*
X62414181Y-72675159D01*
X62406066Y-72694750D01*
X62335819Y-72525159D01*
X62124841Y-72314181D01*
X61849184Y-72200000D01*
X61550816Y-72200000D01*
X61275159Y-72314181D01*
X61064181Y-72525159D01*
X60950000Y-72800816D01*
X60350000Y-72800816D01*
X60235819Y-72525159D01*
X60024841Y-72314181D01*
X59749184Y-72200000D01*
X59450816Y-72200000D01*
X59175159Y-72314181D01*
X58964181Y-72525159D01*
X58850000Y-72800816D01*
X54187191Y-72800816D01*
X54250000Y-72649184D01*
X54250000Y-72350816D01*
X54135819Y-72075159D01*
X53924841Y-71864181D01*
X53649184Y-71750000D01*
X53350816Y-71750000D01*
X53075159Y-71864181D01*
X52864181Y-72075159D01*
X52750000Y-72350816D01*
X50450000Y-72350816D01*
X50450000Y-69878979D01*
X50600000Y-69908816D01*
X52500000Y-69908816D01*
X52503686Y-69908083D01*
X52562470Y-70050000D01*
X52350816Y-70050000D01*
X52075159Y-70164181D01*
X51864181Y-70375159D01*
X51750000Y-70650816D01*
X51750000Y-70949184D01*
X51864181Y-71224841D01*
X52075159Y-71435819D01*
X52350816Y-71550000D01*
X52649184Y-71550000D01*
X52924841Y-71435819D01*
X53135819Y-71224841D01*
X53250000Y-70949184D01*
X53250000Y-70650816D01*
X53187530Y-70500000D01*
X53399184Y-70500000D01*
X53674841Y-70385819D01*
X53885819Y-70174841D01*
X54000000Y-69899184D01*
X54000000Y-69600816D01*
X53937868Y-69450816D01*
X65450000Y-69450816D01*
X65450000Y-69749184D01*
X65564181Y-70024841D01*
X65775159Y-70235819D01*
X66050816Y-70350000D01*
X66349184Y-70350000D01*
X66624841Y-70235819D01*
X66835819Y-70024841D01*
X66950000Y-69749184D01*
X66950000Y-69450816D01*
X66835819Y-69175159D01*
X66624841Y-68964181D01*
X66349184Y-68850000D01*
X66050816Y-68850000D01*
X65775159Y-68964181D01*
X65564181Y-69175159D01*
X65450000Y-69450816D01*
X53937868Y-69450816D01*
X53885819Y-69325159D01*
X53674841Y-69114181D01*
X53399184Y-69000000D01*
X53100816Y-69000000D01*
X52958816Y-69058818D01*
X52958816Y-68191182D01*
X53100816Y-68250000D01*
X53399184Y-68250000D01*
X53674841Y-68135819D01*
X53709844Y-68100816D01*
X54700000Y-68100816D01*
X54700000Y-68399184D01*
X54814181Y-68674841D01*
X55025159Y-68885819D01*
X55300816Y-69000000D01*
X55599184Y-69000000D01*
X55874841Y-68885819D01*
X56085819Y-68674841D01*
X56200000Y-68399184D01*
X56200000Y-68100816D01*
X56085819Y-67825159D01*
X55874841Y-67614181D01*
X55599184Y-67500000D01*
X55300816Y-67500000D01*
X55025159Y-67614181D01*
X54814181Y-67825159D01*
X54700000Y-68100816D01*
X53709844Y-68100816D01*
X53885819Y-67924841D01*
X54000000Y-67649184D01*
X54000000Y-67350816D01*
X58150000Y-67350816D01*
X58150000Y-67649184D01*
X58264181Y-67924841D01*
X58475159Y-68135819D01*
X58750816Y-68250000D01*
X59049184Y-68250000D01*
X59324841Y-68135819D01*
X59535819Y-67924841D01*
X59650000Y-67649184D01*
X59650000Y-67350816D01*
X59608241Y-67250000D01*
X59849184Y-67250000D01*
X60124841Y-67135819D01*
X60335819Y-66924841D01*
X60450000Y-66649184D01*
X60450000Y-66350816D01*
X60441761Y-66330925D01*
X64850000Y-66330925D01*
X64850000Y-66669075D01*
X64979405Y-66981486D01*
X65218514Y-67220595D01*
X65530925Y-67350000D01*
X65869075Y-67350000D01*
X66181486Y-67220595D01*
X66420595Y-66981486D01*
X66550000Y-66669075D01*
X66550000Y-66330925D01*
X66516818Y-66250816D01*
X67750000Y-66250816D01*
X67750000Y-66549184D01*
X67864181Y-66824841D01*
X68075159Y-67035819D01*
X68350816Y-67150000D01*
X68649184Y-67150000D01*
X68924841Y-67035819D01*
X69135819Y-66824841D01*
X69250000Y-66549184D01*
X69250000Y-66250816D01*
X69135819Y-65975159D01*
X68924841Y-65764181D01*
X68649184Y-65650000D01*
X68350816Y-65650000D01*
X68075159Y-65764181D01*
X67864181Y-65975159D01*
X67750000Y-66250816D01*
X66516818Y-66250816D01*
X66420595Y-66018514D01*
X66181486Y-65779405D01*
X65869075Y-65650000D01*
X65530925Y-65650000D01*
X65218514Y-65779405D01*
X64979405Y-66018514D01*
X64850000Y-66330925D01*
X60441761Y-66330925D01*
X60335819Y-66075159D01*
X60124841Y-65864181D01*
X59849184Y-65750000D01*
X59550816Y-65750000D01*
X59275159Y-65864181D01*
X59064181Y-66075159D01*
X58950000Y-66350816D01*
X58950000Y-66649184D01*
X58991759Y-66750000D01*
X58750816Y-66750000D01*
X58475159Y-66864181D01*
X58264181Y-67075159D01*
X58150000Y-67350816D01*
X54000000Y-67350816D01*
X53885819Y-67075159D01*
X53674841Y-66864181D01*
X53399184Y-66750000D01*
X53100816Y-66750000D01*
X52825159Y-66864181D01*
X52614181Y-67075159D01*
X52599357Y-67110947D01*
X52500000Y-67091184D01*
X51770468Y-67091184D01*
X52024841Y-66985819D01*
X52235819Y-66774841D01*
X52350000Y-66499184D01*
X52350000Y-66200816D01*
X52235819Y-65925159D01*
X52024841Y-65714181D01*
X51749184Y-65600000D01*
X51450816Y-65600000D01*
X51175159Y-65714181D01*
X50964181Y-65925159D01*
X50850000Y-66200816D01*
X50850000Y-66499184D01*
X50964181Y-66774841D01*
X51175159Y-66985819D01*
X51429532Y-67091184D01*
X50600000Y-67091184D01*
X50450000Y-67121021D01*
X50450000Y-65010660D01*
X50575159Y-65135819D01*
X50850816Y-65250000D01*
X51149184Y-65250000D01*
X51424841Y-65135819D01*
X51635819Y-64924841D01*
X51750000Y-64649184D01*
X51750000Y-64350816D01*
X51635819Y-64075159D01*
X51475911Y-63915251D01*
X51992000Y-63915251D01*
X51992000Y-64372749D01*
X52167077Y-64795423D01*
X52490577Y-65118923D01*
X52913251Y-65294000D01*
X53370749Y-65294000D01*
X53793423Y-65118923D01*
X54116923Y-64795423D01*
X54285000Y-64389649D01*
X54453077Y-64795423D01*
X54776577Y-65118923D01*
X54810879Y-65133131D01*
X54700000Y-65400816D01*
X54700000Y-65699184D01*
X54814181Y-65974841D01*
X55025159Y-66185819D01*
X55300816Y-66300000D01*
X55599184Y-66300000D01*
X55874841Y-66185819D01*
X56085819Y-65974841D01*
X56200000Y-65699184D01*
X56200000Y-65400816D01*
X56085819Y-65125159D01*
X56079503Y-65118843D01*
X56402923Y-64795423D01*
X56462821Y-64650816D01*
X56650000Y-64650816D01*
X56650000Y-64949184D01*
X56764181Y-65224841D01*
X56975159Y-65435819D01*
X57250816Y-65550000D01*
X57549184Y-65550000D01*
X57824841Y-65435819D01*
X58035819Y-65224841D01*
X58150000Y-64949184D01*
X58150000Y-64730925D01*
X62050000Y-64730925D01*
X62050000Y-65069075D01*
X62179405Y-65381486D01*
X62418514Y-65620595D01*
X62730925Y-65750000D01*
X63069075Y-65750000D01*
X63381486Y-65620595D01*
X63620595Y-65381486D01*
X63750000Y-65069075D01*
X63750000Y-64948346D01*
X63920577Y-65118923D01*
X64343251Y-65294000D01*
X64800749Y-65294000D01*
X65223423Y-65118923D01*
X65546923Y-64795423D01*
X65715000Y-64389649D01*
X65883077Y-64795423D01*
X66206577Y-65118923D01*
X66629251Y-65294000D01*
X67086749Y-65294000D01*
X67509423Y-65118923D01*
X67832923Y-64795423D01*
X68008000Y-64372749D01*
X68008000Y-63915251D01*
X67832923Y-63492577D01*
X67509423Y-63169077D01*
X67086749Y-62994000D01*
X66629251Y-62994000D01*
X66206577Y-63169077D01*
X65883077Y-63492577D01*
X65715000Y-63898351D01*
X65546923Y-63492577D01*
X65223423Y-63169077D01*
X64800749Y-62994000D01*
X64343251Y-62994000D01*
X63924114Y-63167612D01*
X63885819Y-63075159D01*
X63674841Y-62864181D01*
X63399184Y-62750000D01*
X63100816Y-62750000D01*
X62825159Y-62864181D01*
X62614181Y-63075159D01*
X62500000Y-63350816D01*
X62500000Y-63649184D01*
X62614181Y-63924841D01*
X62739340Y-64050000D01*
X62730925Y-64050000D01*
X62418514Y-64179405D01*
X62179405Y-64418514D01*
X62050000Y-64730925D01*
X58150000Y-64730925D01*
X58150000Y-64650816D01*
X58035819Y-64375159D01*
X57824841Y-64164181D01*
X57549184Y-64050000D01*
X57250816Y-64050000D01*
X56975159Y-64164181D01*
X56764181Y-64375159D01*
X56650000Y-64650816D01*
X56462821Y-64650816D01*
X56578000Y-64372749D01*
X56578000Y-63915251D01*
X56402923Y-63492577D01*
X56079423Y-63169077D01*
X55656749Y-62994000D01*
X55199251Y-62994000D01*
X54776577Y-63169077D01*
X54453077Y-63492577D01*
X54285000Y-63898351D01*
X54116923Y-63492577D01*
X53793423Y-63169077D01*
X53370749Y-62994000D01*
X52913251Y-62994000D01*
X52490577Y-63169077D01*
X52167077Y-63492577D01*
X51992000Y-63915251D01*
X51475911Y-63915251D01*
X51424841Y-63864181D01*
X51149184Y-63750000D01*
X50850816Y-63750000D01*
X50575159Y-63864181D01*
X50450000Y-63989340D01*
X50450000Y-61510660D01*
X50575159Y-61635819D01*
X50850816Y-61750000D01*
X51149184Y-61750000D01*
X51424841Y-61635819D01*
X51459844Y-61600816D01*
X60750000Y-61600816D01*
X60750000Y-61899184D01*
X60864181Y-62174841D01*
X61075159Y-62385819D01*
X61350816Y-62500000D01*
X61649184Y-62500000D01*
X61924841Y-62385819D01*
X62135819Y-62174841D01*
X62250000Y-61899184D01*
X62250000Y-61600816D01*
X65000000Y-61600816D01*
X65000000Y-61899184D01*
X65114181Y-62174841D01*
X65325159Y-62385819D01*
X65600816Y-62500000D01*
X65899184Y-62500000D01*
X66174841Y-62385819D01*
X66385819Y-62174841D01*
X66500000Y-61899184D01*
X66500000Y-61600816D01*
X66385819Y-61325159D01*
X66174841Y-61114181D01*
X65899184Y-61000000D01*
X65600816Y-61000000D01*
X65325159Y-61114181D01*
X65114181Y-61325159D01*
X65000000Y-61600816D01*
X62250000Y-61600816D01*
X62135819Y-61325159D01*
X61924841Y-61114181D01*
X61649184Y-61000000D01*
X61350816Y-61000000D01*
X61075159Y-61114181D01*
X60864181Y-61325159D01*
X60750000Y-61600816D01*
X51459844Y-61600816D01*
X51635819Y-61424841D01*
X51750000Y-61149184D01*
X51750000Y-60850816D01*
X51635819Y-60575159D01*
X51424841Y-60364181D01*
X51149184Y-60250000D01*
X50850816Y-60250000D01*
X50575159Y-60364181D01*
X50450000Y-60489340D01*
X50450000Y-59439448D01*
X50897698Y-59887146D01*
X51529871Y-60149000D01*
X52214129Y-60149000D01*
X52846302Y-59887146D01*
X53330146Y-59403302D01*
X53592000Y-58771129D01*
X53592000Y-58246348D01*
X53600816Y-58250000D01*
X53899184Y-58250000D01*
X54174841Y-58135819D01*
X54385819Y-57924841D01*
X54500000Y-57649184D01*
X54500000Y-57350816D01*
X54385819Y-57075159D01*
X54291539Y-56980879D01*
X54825733Y-56759608D01*
X55409608Y-56175733D01*
X55523821Y-55900000D01*
X56833181Y-55900000D01*
X56750000Y-56100816D01*
X56750000Y-56100816D01*
G37*
X56750000Y-56100816D02*
X56750000Y-56399184D01*
X56761407Y-56426723D01*
X56672749Y-56390000D01*
X56215251Y-56390000D01*
X55792577Y-56565077D01*
X55469077Y-56888577D01*
X55294000Y-57311251D01*
X55294000Y-57768749D01*
X55389787Y-58000000D01*
X55100816Y-58000000D01*
X54825159Y-58114181D01*
X54614181Y-58325159D01*
X54500000Y-58600816D01*
X54500000Y-58899184D01*
X54614181Y-59174841D01*
X54825159Y-59385819D01*
X55100816Y-59500000D01*
X55399184Y-59500000D01*
X55674841Y-59385819D01*
X55885819Y-59174841D01*
X56000000Y-58899184D01*
X56000000Y-58600840D01*
X56215251Y-58690000D01*
X56475375Y-58690000D01*
X56310000Y-59089251D01*
X56310000Y-59546749D01*
X56485077Y-59969423D01*
X56808577Y-60292923D01*
X57231251Y-60468000D01*
X57688749Y-60468000D01*
X58111423Y-60292923D01*
X58434923Y-59969423D01*
X58476000Y-59870254D01*
X58517077Y-59969423D01*
X58840577Y-60292923D01*
X59263251Y-60468000D01*
X59720749Y-60468000D01*
X60143423Y-60292923D01*
X60466923Y-59969423D01*
X60508000Y-59870254D01*
X60549077Y-59969423D01*
X60872577Y-60292923D01*
X61295251Y-60468000D01*
X61752749Y-60468000D01*
X62175423Y-60292923D01*
X62498923Y-59969423D01*
X62540000Y-59870254D01*
X62581077Y-59969423D01*
X62904577Y-60292923D01*
X63327251Y-60468000D01*
X63784749Y-60468000D01*
X64207423Y-60292923D01*
X64530923Y-59969423D01*
X64706000Y-59546749D01*
X64706000Y-59089251D01*
X64530923Y-58666577D01*
X64207423Y-58343077D01*
X63784749Y-58168000D01*
X63524625Y-58168000D01*
X63690000Y-57768749D01*
X63690000Y-57311251D01*
X63514923Y-56888577D01*
X63191423Y-56565077D01*
X62768749Y-56390000D01*
X62311251Y-56390000D01*
X61888577Y-56565077D01*
X61565077Y-56888577D01*
X61524000Y-56987746D01*
X61482923Y-56888577D01*
X61159423Y-56565077D01*
X60736749Y-56390000D01*
X60279251Y-56390000D01*
X59856577Y-56565077D01*
X59533077Y-56888577D01*
X59492000Y-56987746D01*
X59450923Y-56888577D01*
X59127423Y-56565077D01*
X58704749Y-56390000D01*
X58250000Y-56390000D01*
X58250000Y-56100816D01*
X58166819Y-55900000D01*
X64476179Y-55900000D01*
X64590392Y-56175733D01*
X65174267Y-56759608D01*
X65572933Y-56924741D01*
X65500000Y-57100816D01*
X65500000Y-57399184D01*
X65614181Y-57674841D01*
X65825159Y-57885819D01*
X66100816Y-58000000D01*
X66399184Y-58000000D01*
X66453261Y-57977600D01*
X66408000Y-58086871D01*
X66408000Y-58357205D01*
X66149184Y-58250000D01*
X65850816Y-58250000D01*
X65575159Y-58364181D01*
X65364181Y-58575159D01*
X65250000Y-58850816D01*
X65250000Y-59149184D01*
X65364181Y-59424841D01*
X65575159Y-59635819D01*
X65850816Y-59750000D01*
X66149184Y-59750000D01*
X66424841Y-59635819D01*
X66635819Y-59424841D01*
X66657297Y-59372988D01*
X66669854Y-59403302D01*
X67153698Y-59887146D01*
X67785871Y-60149000D01*
X68470129Y-60149000D01*
X69102302Y-59887146D01*
X69550000Y-59439448D01*
X69550000Y-60489340D01*
X69424841Y-60364181D01*
X69149184Y-60250000D01*
X68850816Y-60250000D01*
X68575159Y-60364181D01*
X68364181Y-60575159D01*
X68250000Y-60850816D01*
X68250000Y-61149184D01*
X68364181Y-61424841D01*
X68575159Y-61635819D01*
X68850816Y-61750000D01*
X69149184Y-61750000D01*
X69424841Y-61635819D01*
X69550000Y-61510660D01*
X69550000Y-63989340D01*
X69424841Y-63864181D01*
X69149184Y-63750000D01*
X68850816Y-63750000D01*
X68575159Y-63864181D01*
X68364181Y-64075159D01*
X68250000Y-64350816D01*
X68250000Y-64649184D01*
X68364181Y-64924841D01*
X68575159Y-65135819D01*
X68850816Y-65250000D01*
X69149184Y-65250000D01*
X69424841Y-65135819D01*
X69550000Y-65010660D01*
X69550000Y-73312470D01*
X69399184Y-73250000D01*
X69100816Y-73250000D01*
X68825159Y-73364181D01*
X68614181Y-73575159D01*
X68500000Y-73850816D01*
X68500000Y-74149184D01*
X68614181Y-74424841D01*
X68825159Y-74635819D01*
X69100816Y-74750000D01*
X69399184Y-74750000D01*
X69550000Y-74687530D01*
X69550000Y-76562470D01*
X69399184Y-76500000D01*
X69100816Y-76500000D01*
X68825159Y-76614181D01*
X68614181Y-76825159D01*
X68500000Y-77100816D01*
X68500000Y-77399184D01*
X68614181Y-77674841D01*
X68825159Y-77885819D01*
X69100816Y-78000000D01*
X69399184Y-78000000D01*
X69550000Y-77937530D01*
X69550000Y-78691760D01*
X69449184Y-78650000D01*
X69150816Y-78650000D01*
X68875159Y-78764181D01*
X68664181Y-78975159D01*
X68550000Y-79250816D01*
X68550000Y-79549184D01*
X68664181Y-79824841D01*
X68875159Y-80035819D01*
X69150816Y-80150000D01*
X69449184Y-80150000D01*
X69550000Y-80108240D01*
X69550000Y-81291760D01*
X69449184Y-81250000D01*
X69150816Y-81250000D01*
X68875159Y-81364181D01*
X68664181Y-81575159D01*
X68550000Y-81850816D01*
X68550000Y-82149184D01*
X68664181Y-82424841D01*
X68875159Y-82635819D01*
X69150816Y-82750000D01*
X69449184Y-82750000D01*
X69550000Y-82708240D01*
X69550000Y-82950000D01*
X69350816Y-82950000D01*
X69075159Y-83064181D01*
X68864181Y-83275159D01*
X68750000Y-83550816D01*
X68750000Y-83849184D01*
X68864181Y-84124841D01*
X69075159Y-84335819D01*
X69350816Y-84450000D01*
X69550000Y-84450000D01*
X69550001Y-90650338D01*
X69549184Y-90650000D01*
X69250816Y-90650000D01*
X68975159Y-90764181D01*
X68764181Y-90975159D01*
X68650000Y-91250816D01*
X68650000Y-91549184D01*
X68764181Y-91824841D01*
X68975159Y-92035819D01*
X69250816Y-92150000D01*
X69549184Y-92150000D01*
X69550001Y-92149662D01*
X69550001Y-92489341D01*
X69424841Y-92364181D01*
X69149184Y-92250000D01*
X68850816Y-92250000D01*
X68575159Y-92364181D01*
X68364181Y-92575159D01*
X68250000Y-92850816D01*
X68250000Y-93136389D01*
X67925558Y-93002000D01*
X67544442Y-93002000D01*
X67192337Y-93147847D01*
X67100000Y-93240184D01*
X67007663Y-93147847D01*
X66655558Y-93002000D01*
X66274442Y-93002000D01*
X65922337Y-93147847D01*
X65711521Y-93358663D01*
X65449184Y-93250000D01*
X65150816Y-93250000D01*
X64875159Y-93364181D01*
X64850000Y-93389340D01*
X64850000Y-93250816D01*
X64735819Y-92975159D01*
X64524841Y-92764181D01*
X64249184Y-92650000D01*
X63950816Y-92650000D01*
X63820541Y-92703962D01*
X63826371Y-92698132D01*
X63971000Y-92348967D01*
X63971000Y-92031660D01*
X64075159Y-92135819D01*
X64350816Y-92250000D01*
X64649184Y-92250000D01*
X64924841Y-92135819D01*
X65135819Y-91924841D01*
X65250000Y-91649184D01*
X65250000Y-91350816D01*
X65135819Y-91075159D01*
X64924841Y-90864181D01*
X64649184Y-90750000D01*
X64449184Y-90750000D01*
X64724841Y-90635819D01*
X64935819Y-90424841D01*
X65050000Y-90149184D01*
X65050000Y-89850816D01*
X64935819Y-89575159D01*
X64724841Y-89364181D01*
X64449184Y-89250000D01*
X64150816Y-89250000D01*
X64051711Y-89291051D01*
X63924841Y-89164181D01*
X63649184Y-89050000D01*
X63350816Y-89050000D01*
X63075159Y-89164181D01*
X62864181Y-89375159D01*
X62750000Y-89650816D01*
X62750000Y-89791759D01*
X62649184Y-89750000D01*
X62350816Y-89750000D01*
X62075159Y-89864181D01*
X61864181Y-90075159D01*
X61750000Y-90350816D01*
X61750000Y-90649184D01*
X61864181Y-90924841D01*
X62075159Y-91135819D01*
X62350816Y-91250000D01*
X62649184Y-91250000D01*
X62924841Y-91135819D01*
X63135819Y-90924841D01*
X63250000Y-90649184D01*
X63250000Y-90508241D01*
X63350816Y-90550000D01*
X63649184Y-90550000D01*
X63748289Y-90508949D01*
X63875159Y-90635819D01*
X64150816Y-90750000D01*
X64350816Y-90750000D01*
X64075159Y-90864181D01*
X63864181Y-91075159D01*
X63750000Y-91350816D01*
X63750000Y-91545497D01*
X63559132Y-91354629D01*
X63209967Y-91210000D01*
X62832033Y-91210000D01*
X62482868Y-91354629D01*
X62215629Y-91621868D01*
X62071000Y-91971033D01*
X62071000Y-92348967D01*
X62215629Y-92698132D01*
X62482868Y-92965371D01*
X62832033Y-93110000D01*
X63209967Y-93110000D01*
X63449410Y-93010819D01*
X63350000Y-93250816D01*
X63350000Y-93549184D01*
X63464181Y-93824841D01*
X63675159Y-94035819D01*
X63730000Y-94058535D01*
X63730000Y-94249184D01*
X63844181Y-94524841D01*
X64055159Y-94735819D01*
X64330816Y-94850000D01*
X64629184Y-94850000D01*
X64904841Y-94735819D01*
X64966858Y-94673802D01*
X65150816Y-94750000D01*
X65449184Y-94750000D01*
X65689886Y-94650298D01*
X65652847Y-94687337D01*
X65507000Y-95039442D01*
X65507000Y-95420558D01*
X65652847Y-95772663D01*
X65745184Y-95865000D01*
X65652847Y-95957337D01*
X65507000Y-96309442D01*
X65507000Y-96690558D01*
X65652847Y-97042663D01*
X65745184Y-97135000D01*
X65652847Y-97227337D01*
X65507000Y-97579442D01*
X65507000Y-97960558D01*
X65652847Y-98312663D01*
X65745184Y-98405000D01*
X65652847Y-98497337D01*
X65507000Y-98849442D01*
X65507000Y-99230558D01*
X65652847Y-99582663D01*
X65922337Y-99852153D01*
X66274442Y-99998000D01*
X66655558Y-99998000D01*
X66918498Y-99889086D01*
X66972918Y-99943506D01*
X67089225Y-99827199D01*
X67124404Y-100050543D01*
X67557601Y-100207285D01*
X68017805Y-100186318D01*
X68345596Y-100050543D01*
X68380775Y-99827197D01*
X67735000Y-99181421D01*
X67720858Y-99195564D01*
X67579437Y-99054143D01*
X67593579Y-99040000D01*
X67579437Y-99025858D01*
X67720858Y-98884437D01*
X67735000Y-98898579D01*
X67749143Y-98884437D01*
X67890564Y-99025858D01*
X67876421Y-99040000D01*
X68522197Y-99685775D01*
X68647946Y-99665968D01*
X68850816Y-99750000D01*
X69149184Y-99750000D01*
X69424841Y-99635819D01*
X69550001Y-99510659D01*
X69550001Y-100489341D01*
X69424841Y-100364181D01*
X69149184Y-100250000D01*
X68850816Y-100250000D01*
X68575159Y-100364181D01*
X68364181Y-100575159D01*
X68250000Y-100850816D01*
X68250000Y-101149184D01*
X68364181Y-101424841D01*
X68575159Y-101635819D01*
X68850816Y-101750000D01*
X69149184Y-101750000D01*
X69424841Y-101635819D01*
X69550001Y-101510659D01*
X69550001Y-102489341D01*
X69424841Y-102364181D01*
X69149184Y-102250000D01*
X68850816Y-102250000D01*
X68575159Y-102364181D01*
X68364181Y-102575159D01*
X68250000Y-102850816D01*
X68250000Y-103149184D01*
X68364181Y-103424841D01*
X68575159Y-103635819D01*
X68850816Y-103750000D01*
X69149184Y-103750000D01*
X69424841Y-103635819D01*
X69550001Y-103510659D01*
X69550001Y-104489341D01*
X69424841Y-104364181D01*
X69149184Y-104250000D01*
X68850816Y-104250000D01*
X68575159Y-104364181D01*
X68364181Y-104575159D01*
X68250000Y-104850816D01*
X68250000Y-105149184D01*
X68364181Y-105424841D01*
X68575159Y-105635819D01*
X68850816Y-105750000D01*
X69149184Y-105750000D01*
X69424841Y-105635819D01*
X69550001Y-105510659D01*
X69550001Y-106489341D01*
X69424841Y-106364181D01*
X69149184Y-106250000D01*
X68850816Y-106250000D01*
X68575159Y-106364181D01*
X68364181Y-106575159D01*
X68250000Y-106850816D01*
X68250000Y-107149184D01*
X68364181Y-107424841D01*
X68575159Y-107635819D01*
X68850816Y-107750000D01*
X69149184Y-107750000D01*
X69424841Y-107635819D01*
X69550001Y-107510659D01*
X69550001Y-108489341D01*
X69424841Y-108364181D01*
X69149184Y-108250000D01*
X68850816Y-108250000D01*
X68575159Y-108364181D01*
X68364181Y-108575159D01*
X68250000Y-108850816D01*
X68250000Y-109149184D01*
X68364181Y-109424841D01*
X68575159Y-109635819D01*
X68850816Y-109750000D01*
X69149184Y-109750000D01*
X69424841Y-109635819D01*
X69550001Y-109510659D01*
X69550001Y-110489341D01*
X69424841Y-110364181D01*
X69149184Y-110250000D01*
X68850816Y-110250000D01*
X68575159Y-110364181D01*
X68364181Y-110575159D01*
X68250000Y-110850816D01*
X68250000Y-111149184D01*
X68364181Y-111424841D01*
X68575159Y-111635819D01*
X68850816Y-111750000D01*
X69149184Y-111750000D01*
X69424841Y-111635819D01*
X69550001Y-111510659D01*
X69550001Y-112489341D01*
X69424841Y-112364181D01*
X69149184Y-112250000D01*
X68850816Y-112250000D01*
X68575159Y-112364181D01*
X68364181Y-112575159D01*
X68250000Y-112850816D01*
X68250000Y-113149184D01*
X68364181Y-113424841D01*
X68575159Y-113635819D01*
X68850816Y-113750000D01*
X69149184Y-113750000D01*
X69424841Y-113635819D01*
X69550001Y-113510659D01*
X69550001Y-114489341D01*
X69424841Y-114364181D01*
X69149184Y-114250000D01*
X68850816Y-114250000D01*
X68575159Y-114364181D01*
X68364181Y-114575159D01*
X68250000Y-114850816D01*
X68250000Y-115149184D01*
X68364181Y-115424841D01*
X68575159Y-115635819D01*
X68850816Y-115750000D01*
X69149184Y-115750000D01*
X69424841Y-115635819D01*
X69550001Y-115510659D01*
X69550001Y-116489341D01*
X69424841Y-116364181D01*
X69149184Y-116250000D01*
X68850816Y-116250000D01*
X68575159Y-116364181D01*
X68364181Y-116575159D01*
X68250000Y-116850816D01*
X68250000Y-117149184D01*
X68364181Y-117424841D01*
X68575159Y-117635819D01*
X68850816Y-117750000D01*
X69149184Y-117750000D01*
X69424841Y-117635819D01*
X69550001Y-117510659D01*
X69550001Y-118489341D01*
X69424841Y-118364181D01*
X69149184Y-118250000D01*
X68850816Y-118250000D01*
X68575159Y-118364181D01*
X68364181Y-118575159D01*
X68250000Y-118850816D01*
X68250000Y-119149184D01*
X68364181Y-119424841D01*
X68489340Y-119550000D01*
X67510660Y-119550000D01*
X67635819Y-119424841D01*
X67750000Y-119149184D01*
X67750000Y-118850816D01*
X67635819Y-118575159D01*
X67424841Y-118364181D01*
X67149184Y-118250000D01*
X66850816Y-118250000D01*
X66575159Y-118364181D01*
X66364181Y-118575159D01*
X66250000Y-118850816D01*
X66250000Y-119149184D01*
X66364181Y-119424841D01*
X66489340Y-119550000D01*
X65510660Y-119550000D01*
X65635819Y-119424841D01*
X65750000Y-119149184D01*
X65750000Y-118850816D01*
X65635819Y-118575159D01*
X65424841Y-118364181D01*
X65149184Y-118250000D01*
X64850816Y-118250000D01*
X64575159Y-118364181D01*
X64364181Y-118575159D01*
X64250000Y-118850816D01*
X64250000Y-119149184D01*
X64364181Y-119424841D01*
X64489340Y-119550000D01*
X63510660Y-119550000D01*
X63635819Y-119424841D01*
X63750000Y-119149184D01*
X63750000Y-118850816D01*
X63635819Y-118575159D01*
X63424841Y-118364181D01*
X63149184Y-118250000D01*
X62850816Y-118250000D01*
X62575159Y-118364181D01*
X62364181Y-118575159D01*
X62250000Y-118850816D01*
X62250000Y-119149184D01*
X62364181Y-119424841D01*
X62489340Y-119550000D01*
X61510660Y-119550000D01*
X61635819Y-119424841D01*
X61750000Y-119149184D01*
X61750000Y-118850816D01*
X61635819Y-118575159D01*
X61424841Y-118364181D01*
X61149184Y-118250000D01*
X60850816Y-118250000D01*
X60575159Y-118364181D01*
X60364181Y-118575159D01*
X60250000Y-118850816D01*
X60250000Y-119149184D01*
X60364181Y-119424841D01*
X60489340Y-119550000D01*
X59510660Y-119550000D01*
X59635819Y-119424841D01*
X59750000Y-119149184D01*
X59750000Y-118850816D01*
X59635819Y-118575159D01*
X59424841Y-118364181D01*
X59149184Y-118250000D01*
X58850816Y-118250000D01*
X58575159Y-118364181D01*
X58364181Y-118575159D01*
X58250000Y-118850816D01*
X58250000Y-119149184D01*
X58364181Y-119424841D01*
X58489340Y-119550000D01*
X57510660Y-119550000D01*
X57635819Y-119424841D01*
X57750000Y-119149184D01*
X57750000Y-118850816D01*
X57635819Y-118575159D01*
X57424841Y-118364181D01*
X57149184Y-118250000D01*
X56850816Y-118250000D01*
X56575159Y-118364181D01*
X56364181Y-118575159D01*
X56250000Y-118850816D01*
X56250000Y-119149184D01*
X56364181Y-119424841D01*
X56489340Y-119550000D01*
X55510660Y-119550000D01*
X55635819Y-119424841D01*
X55750000Y-119149184D01*
X55750000Y-118850816D01*
X55635819Y-118575159D01*
X55424841Y-118364181D01*
X55149184Y-118250000D01*
X54850816Y-118250000D01*
X54575159Y-118364181D01*
X54364181Y-118575159D01*
X54250000Y-118850816D01*
X54250000Y-119149184D01*
X54364181Y-119424841D01*
X54489340Y-119550000D01*
X53510660Y-119550000D01*
X53635819Y-119424841D01*
X53750000Y-119149184D01*
X53750000Y-118850816D01*
X53635819Y-118575159D01*
X53424841Y-118364181D01*
X53149184Y-118250000D01*
X52850816Y-118250000D01*
X52575159Y-118364181D01*
X52364181Y-118575159D01*
X52250000Y-118850816D01*
X52250000Y-119149184D01*
X52364181Y-119424841D01*
X52489340Y-119550000D01*
X51510660Y-119550000D01*
X51635819Y-119424841D01*
X51750000Y-119149184D01*
X51750000Y-118850816D01*
X51635819Y-118575159D01*
X51424841Y-118364181D01*
X51149184Y-118250000D01*
X50850816Y-118250000D01*
X50575159Y-118364181D01*
X50450000Y-118489340D01*
X50450000Y-117510660D01*
X50575159Y-117635819D01*
X50850816Y-117750000D01*
X51149184Y-117750000D01*
X51424841Y-117635819D01*
X51635819Y-117424841D01*
X51750000Y-117149184D01*
X51750000Y-116850816D01*
X51635819Y-116575159D01*
X51424841Y-116364181D01*
X51149184Y-116250000D01*
X50850816Y-116250000D01*
X50575159Y-116364181D01*
X50450000Y-116489340D01*
X50450000Y-115510660D01*
X50575159Y-115635819D01*
X50850816Y-115750000D01*
X51149184Y-115750000D01*
X51424841Y-115635819D01*
X51635819Y-115424841D01*
X51750000Y-115149184D01*
X51750000Y-114892230D01*
X54650000Y-114892230D01*
X54650000Y-115707770D01*
X54962094Y-116461232D01*
X55538768Y-117037906D01*
X56292230Y-117350000D01*
X57107770Y-117350000D01*
X57861232Y-117037906D01*
X58437906Y-116461232D01*
X58750000Y-115707770D01*
X58750000Y-114892230D01*
X61250000Y-114892230D01*
X61250000Y-115707770D01*
X61562094Y-116461232D01*
X62138768Y-117037906D01*
X62892230Y-117350000D01*
X63707770Y-117350000D01*
X64461232Y-117037906D01*
X65037906Y-116461232D01*
X65350000Y-115707770D01*
X65350000Y-114892230D01*
X65037906Y-114138768D01*
X64461232Y-113562094D01*
X63707770Y-113250000D01*
X62892230Y-113250000D01*
X62138768Y-113562094D01*
X61562094Y-114138768D01*
X61250000Y-114892230D01*
X58750000Y-114892230D01*
X58437906Y-114138768D01*
X57861232Y-113562094D01*
X57107770Y-113250000D01*
X56292230Y-113250000D01*
X55538768Y-113562094D01*
X54962094Y-114138768D01*
X54650000Y-114892230D01*
X51750000Y-114892230D01*
X51750000Y-114850816D01*
X51635819Y-114575159D01*
X51424841Y-114364181D01*
X51149184Y-114250000D01*
X50850816Y-114250000D01*
X50575159Y-114364181D01*
X50450000Y-114489340D01*
X50450000Y-113510660D01*
X50575159Y-113635819D01*
X50850816Y-113750000D01*
X51149184Y-113750000D01*
X51424841Y-113635819D01*
X51635819Y-113424841D01*
X51750000Y-113149184D01*
X51750000Y-112850816D01*
X51635819Y-112575159D01*
X51424841Y-112364181D01*
X51149184Y-112250000D01*
X50850816Y-112250000D01*
X50575159Y-112364181D01*
X50450000Y-112489340D01*
X50450000Y-111510660D01*
X50575159Y-111635819D01*
X50850816Y-111750000D01*
X51149184Y-111750000D01*
X51241945Y-111711577D01*
X58550000Y-111711577D01*
X58550000Y-112288423D01*
X58770750Y-112821359D01*
X59178641Y-113229250D01*
X59711577Y-113450000D01*
X60288423Y-113450000D01*
X60821359Y-113229250D01*
X61229250Y-112821359D01*
X61450000Y-112288423D01*
X61450000Y-111711577D01*
X61229250Y-111178641D01*
X60821359Y-110770750D01*
X60288423Y-110550000D01*
X59711577Y-110550000D01*
X59178641Y-110770750D01*
X58770750Y-111178641D01*
X58550000Y-111711577D01*
X51241945Y-111711577D01*
X51424841Y-111635819D01*
X51635819Y-111424841D01*
X51750000Y-111149184D01*
X51750000Y-110850816D01*
X51635819Y-110575159D01*
X51424841Y-110364181D01*
X51149184Y-110250000D01*
X50850816Y-110250000D01*
X50575159Y-110364181D01*
X50450000Y-110489340D01*
X50450000Y-109510660D01*
X50575159Y-109635819D01*
X50850816Y-109750000D01*
X51149184Y-109750000D01*
X51424841Y-109635819D01*
X51635819Y-109424841D01*
X51750000Y-109149184D01*
X51750000Y-108850816D01*
X51635819Y-108575159D01*
X51424841Y-108364181D01*
X51251137Y-108292230D01*
X54650000Y-108292230D01*
X54650000Y-109107770D01*
X54962094Y-109861232D01*
X55538768Y-110437906D01*
X56292230Y-110750000D01*
X57107770Y-110750000D01*
X57861232Y-110437906D01*
X58437906Y-109861232D01*
X58750000Y-109107770D01*
X58750000Y-108292230D01*
X61250000Y-108292230D01*
X61250000Y-109107770D01*
X61562094Y-109861232D01*
X62138768Y-110437906D01*
X62892230Y-110750000D01*
X63707770Y-110750000D01*
X64461232Y-110437906D01*
X65037906Y-109861232D01*
X65350000Y-109107770D01*
X65350000Y-108292230D01*
X65037906Y-107538768D01*
X64461232Y-106962094D01*
X63707770Y-106650000D01*
X62892230Y-106650000D01*
X62138768Y-106962094D01*
X61562094Y-107538768D01*
X61250000Y-108292230D01*
X58750000Y-108292230D01*
X58437906Y-107538768D01*
X57861232Y-106962094D01*
X57107770Y-106650000D01*
X56292230Y-106650000D01*
X55538768Y-106962094D01*
X54962094Y-107538768D01*
X54650000Y-108292230D01*
X51251137Y-108292230D01*
X51149184Y-108250000D01*
X50850816Y-108250000D01*
X50575159Y-108364181D01*
X50450000Y-108489340D01*
X50450000Y-107510660D01*
X50575159Y-107635819D01*
X50850816Y-107750000D01*
X51149184Y-107750000D01*
X51424841Y-107635819D01*
X51635819Y-107424841D01*
X51750000Y-107149184D01*
X51750000Y-106850816D01*
X51635819Y-106575159D01*
X51424841Y-106364181D01*
X51149184Y-106250000D01*
X50850816Y-106250000D01*
X50575159Y-106364181D01*
X50450000Y-106489340D01*
X50450000Y-105510660D01*
X50575159Y-105635819D01*
X50850816Y-105750000D01*
X51149184Y-105750000D01*
X51424841Y-105635819D01*
X51635819Y-105424841D01*
X51750000Y-105149184D01*
X51750000Y-104850816D01*
X51635819Y-104575159D01*
X51424841Y-104364181D01*
X51149184Y-104250000D01*
X50850816Y-104250000D01*
X50575159Y-104364181D01*
X50450000Y-104489340D01*
X50450000Y-103510660D01*
X50575159Y-103635819D01*
X50850816Y-103750000D01*
X51149184Y-103750000D01*
X51424841Y-103635819D01*
X51635819Y-103424841D01*
X51750000Y-103149184D01*
X51750000Y-102850816D01*
X51635819Y-102575159D01*
X51424841Y-102364181D01*
X51149184Y-102250000D01*
X50850816Y-102250000D01*
X50575159Y-102364181D01*
X50450000Y-102489340D01*
X50450000Y-102150816D01*
X55950000Y-102150816D01*
X55950000Y-102449184D01*
X56064181Y-102724841D01*
X56275159Y-102935819D01*
X56550816Y-103050000D01*
X56849184Y-103050000D01*
X57124841Y-102935819D01*
X57209844Y-102850816D01*
X61250000Y-102850816D01*
X61250000Y-103149184D01*
X61364181Y-103424841D01*
X61575159Y-103635819D01*
X61850816Y-103750000D01*
X62149184Y-103750000D01*
X62424841Y-103635819D01*
X62635819Y-103424841D01*
X62750000Y-103149184D01*
X62750000Y-102850816D01*
X62635819Y-102575159D01*
X62424841Y-102364181D01*
X62149184Y-102250000D01*
X61850816Y-102250000D01*
X61575159Y-102364181D01*
X61364181Y-102575159D01*
X61250000Y-102850816D01*
X57209844Y-102850816D01*
X57335819Y-102724841D01*
X57450000Y-102449184D01*
X57450000Y-102150816D01*
X57335819Y-101875159D01*
X57124841Y-101664181D01*
X56849184Y-101550000D01*
X56550816Y-101550000D01*
X56275159Y-101664181D01*
X56064181Y-101875159D01*
X55950000Y-102150816D01*
X50450000Y-102150816D01*
X50450000Y-101510660D01*
X50575159Y-101635819D01*
X50850816Y-101750000D01*
X51149184Y-101750000D01*
X51424841Y-101635819D01*
X51635819Y-101424841D01*
X51750000Y-101149184D01*
X51750000Y-100850816D01*
X54250000Y-100850816D01*
X54250000Y-101149184D01*
X54364181Y-101424841D01*
X54575159Y-101635819D01*
X54850816Y-101750000D01*
X55149184Y-101750000D01*
X55424841Y-101635819D01*
X55635819Y-101424841D01*
X55750000Y-101149184D01*
X55750000Y-100850816D01*
X57250000Y-100850816D01*
X57250000Y-101149184D01*
X57364181Y-101424841D01*
X57575159Y-101635819D01*
X57850816Y-101750000D01*
X58149184Y-101750000D01*
X58424841Y-101635819D01*
X58635819Y-101424841D01*
X58750000Y-101149184D01*
X58750000Y-100850816D01*
X58635819Y-100575159D01*
X58611476Y-100550816D01*
X62650000Y-100550816D01*
X62650000Y-100849184D01*
X62764181Y-101124841D01*
X62975159Y-101335819D01*
X63250816Y-101450000D01*
X63549184Y-101450000D01*
X63824841Y-101335819D01*
X64035819Y-101124841D01*
X64150000Y-100849184D01*
X64150000Y-100550816D01*
X64035819Y-100275159D01*
X63824841Y-100064181D01*
X63549184Y-99950000D01*
X63250816Y-99950000D01*
X62975159Y-100064181D01*
X62764181Y-100275159D01*
X62650000Y-100550816D01*
X58611476Y-100550816D01*
X58424841Y-100364181D01*
X58149184Y-100250000D01*
X57850816Y-100250000D01*
X57575159Y-100364181D01*
X57364181Y-100575159D01*
X57250000Y-100850816D01*
X55750000Y-100850816D01*
X55635819Y-100575159D01*
X55424841Y-100364181D01*
X55149184Y-100250000D01*
X54850816Y-100250000D01*
X54575159Y-100364181D01*
X54364181Y-100575159D01*
X54250000Y-100850816D01*
X51750000Y-100850816D01*
X51635819Y-100575159D01*
X51424841Y-100364181D01*
X51149184Y-100250000D01*
X50850816Y-100250000D01*
X50575159Y-100364181D01*
X50450000Y-100489340D01*
X50450000Y-99510660D01*
X50575159Y-99635819D01*
X50850816Y-99750000D01*
X51149184Y-99750000D01*
X51424841Y-99635819D01*
X51635819Y-99424841D01*
X51750000Y-99149184D01*
X51750000Y-98850816D01*
X54250000Y-98850816D01*
X54250000Y-99149184D01*
X54364181Y-99424841D01*
X54575159Y-99635819D01*
X54850816Y-99750000D01*
X55149184Y-99750000D01*
X55424841Y-99635819D01*
X55635819Y-99424841D01*
X55750000Y-99149184D01*
X55750000Y-98850816D01*
X56250000Y-98850816D01*
X56250000Y-99149184D01*
X56364181Y-99424841D01*
X56575159Y-99635819D01*
X56850816Y-99750000D01*
X57149184Y-99750000D01*
X57424841Y-99635819D01*
X57635819Y-99424841D01*
X57750000Y-99149184D01*
X57750000Y-98850816D01*
X57635819Y-98575159D01*
X57424841Y-98364181D01*
X57149184Y-98250000D01*
X56850816Y-98250000D01*
X56575159Y-98364181D01*
X56364181Y-98575159D01*
X56250000Y-98850816D01*
X55750000Y-98850816D01*
X55635819Y-98575159D01*
X55424841Y-98364181D01*
X55149184Y-98250000D01*
X54850816Y-98250000D01*
X54575159Y-98364181D01*
X54364181Y-98575159D01*
X54250000Y-98850816D01*
X51750000Y-98850816D01*
X51635819Y-98575159D01*
X51424841Y-98364181D01*
X51149184Y-98250000D01*
X50850816Y-98250000D01*
X50575159Y-98364181D01*
X50450000Y-98489340D01*
X50450000Y-97510660D01*
X50575159Y-97635819D01*
X50850816Y-97750000D01*
X51149184Y-97750000D01*
X51424841Y-97635819D01*
X51635819Y-97424841D01*
X51750000Y-97149184D01*
X51750000Y-96850816D01*
X54250000Y-96850816D01*
X54250000Y-97149184D01*
X54364181Y-97424841D01*
X54575159Y-97635819D01*
X54850816Y-97750000D01*
X55149184Y-97750000D01*
X55424841Y-97635819D01*
X55635819Y-97424841D01*
X55750000Y-97149184D01*
X55750000Y-97051033D01*
X61055000Y-97051033D01*
X61055000Y-97428967D01*
X61199629Y-97778132D01*
X61466868Y-98045371D01*
X61816033Y-98190000D01*
X62193967Y-98190000D01*
X62543132Y-98045371D01*
X62810371Y-97778132D01*
X62955000Y-97428967D01*
X62955000Y-97051033D01*
X62810371Y-96701868D01*
X62543132Y-96434629D01*
X62193967Y-96290000D01*
X61816033Y-96290000D01*
X61466868Y-96434629D01*
X61199629Y-96701868D01*
X61055000Y-97051033D01*
X55750000Y-97051033D01*
X55750000Y-96850816D01*
X55635819Y-96575159D01*
X55424841Y-96364181D01*
X55149184Y-96250000D01*
X54850816Y-96250000D01*
X54575159Y-96364181D01*
X54364181Y-96575159D01*
X54250000Y-96850816D01*
X51750000Y-96850816D01*
X51635819Y-96575159D01*
X51424841Y-96364181D01*
X51149184Y-96250000D01*
X50850816Y-96250000D01*
X50575159Y-96364181D01*
X50450000Y-96489340D01*
X50450000Y-95510660D01*
X50575159Y-95635819D01*
X50850816Y-95750000D01*
X51149184Y-95750000D01*
X51424841Y-95635819D01*
X51635819Y-95424841D01*
X51750000Y-95149184D01*
X51750000Y-94850816D01*
X54250000Y-94850816D01*
X54250000Y-95149184D01*
X54364181Y-95424841D01*
X54575159Y-95635819D01*
X54850816Y-95750000D01*
X55149184Y-95750000D01*
X55424841Y-95635819D01*
X55635819Y-95424841D01*
X55750000Y-95149184D01*
X55750000Y-94850816D01*
X55635819Y-94575159D01*
X55424841Y-94364181D01*
X55149184Y-94250000D01*
X54850816Y-94250000D01*
X54575159Y-94364181D01*
X54364181Y-94575159D01*
X54250000Y-94850816D01*
X51750000Y-94850816D01*
X51635819Y-94575159D01*
X51424841Y-94364181D01*
X51149184Y-94250000D01*
X50850816Y-94250000D01*
X50575159Y-94364181D01*
X50450000Y-94489340D01*
X50450000Y-93510660D01*
X50575159Y-93635819D01*
X50850816Y-93750000D01*
X51149184Y-93750000D01*
X51424841Y-93635819D01*
X51635819Y-93424841D01*
X51750000Y-93149184D01*
X51750000Y-92850816D01*
X53100000Y-92850816D01*
X53100000Y-93149184D01*
X53214181Y-93424841D01*
X53425159Y-93635819D01*
X53700816Y-93750000D01*
X53999184Y-93750000D01*
X54274841Y-93635819D01*
X54309844Y-93600816D01*
X58750000Y-93600816D01*
X58750000Y-93899184D01*
X58864181Y-94174841D01*
X59075159Y-94385819D01*
X59350816Y-94500000D01*
X59649184Y-94500000D01*
X59924841Y-94385819D01*
X60135819Y-94174841D01*
X60250000Y-93899184D01*
X60250000Y-93600816D01*
X60135819Y-93325159D01*
X59924841Y-93114181D01*
X59649184Y-93000000D01*
X59350816Y-93000000D01*
X59075159Y-93114181D01*
X58864181Y-93325159D01*
X58750000Y-93600816D01*
X54309844Y-93600816D01*
X54485819Y-93424841D01*
X54600000Y-93149184D01*
X54600000Y-92850816D01*
X54485819Y-92575159D01*
X54274841Y-92364181D01*
X53999184Y-92250000D01*
X53700816Y-92250000D01*
X53425159Y-92364181D01*
X53214181Y-92575159D01*
X53100000Y-92850816D01*
X51750000Y-92850816D01*
X51635819Y-92575159D01*
X51424841Y-92364181D01*
X51149184Y-92250000D01*
X50850816Y-92250000D01*
X50575159Y-92364181D01*
X50450000Y-92489340D01*
X50450000Y-91510660D01*
X50575159Y-91635819D01*
X50850816Y-91750000D01*
X51149184Y-91750000D01*
X51424841Y-91635819D01*
X51635819Y-91424841D01*
X51750000Y-91149184D01*
X51750000Y-90850816D01*
X51721605Y-90782265D01*
X51875159Y-90935819D01*
X52150816Y-91050000D01*
X52449184Y-91050000D01*
X52724841Y-90935819D01*
X52935819Y-90724841D01*
X53050000Y-90449184D01*
X53050000Y-90150816D01*
X53029290Y-90100816D01*
X54400000Y-90100816D01*
X54400000Y-90399184D01*
X54514181Y-90674841D01*
X54725159Y-90885819D01*
X55000816Y-91000000D01*
X55299184Y-91000000D01*
X55574841Y-90885819D01*
X55785819Y-90674841D01*
X55900000Y-90399184D01*
X55900000Y-90350816D01*
X58750000Y-90350816D01*
X58750000Y-90649184D01*
X58864181Y-90924841D01*
X59075159Y-91135819D01*
X59350816Y-91250000D01*
X59075159Y-91364181D01*
X58864181Y-91575159D01*
X58750000Y-91850816D01*
X58750000Y-92149184D01*
X58864181Y-92424841D01*
X59075159Y-92635819D01*
X59350816Y-92750000D01*
X59649184Y-92750000D01*
X59924841Y-92635819D01*
X60089581Y-92471079D01*
X60183629Y-92698132D01*
X60450868Y-92965371D01*
X60800033Y-93110000D01*
X61177967Y-93110000D01*
X61527132Y-92965371D01*
X61794371Y-92698132D01*
X61939000Y-92348967D01*
X61939000Y-91971033D01*
X61794371Y-91621868D01*
X61527132Y-91354629D01*
X61177967Y-91210000D01*
X60800033Y-91210000D01*
X60450868Y-91354629D01*
X60183629Y-91621868D01*
X60169398Y-91656225D01*
X60135819Y-91575159D01*
X59924841Y-91364181D01*
X59649184Y-91250000D01*
X59924841Y-91135819D01*
X60135819Y-90924841D01*
X60250000Y-90649184D01*
X60250000Y-90350816D01*
X60135819Y-90075159D01*
X59924841Y-89864181D01*
X59649184Y-89750000D01*
X59350816Y-89750000D01*
X59075159Y-89864181D01*
X58864181Y-90075159D01*
X58750000Y-90350816D01*
X55900000Y-90350816D01*
X55900000Y-90100816D01*
X55785819Y-89825159D01*
X55574841Y-89614181D01*
X55299184Y-89500000D01*
X55000816Y-89500000D01*
X54725159Y-89614181D01*
X54514181Y-89825159D01*
X54400000Y-90100816D01*
X53029290Y-90100816D01*
X52935819Y-89875159D01*
X52724841Y-89664181D01*
X52449184Y-89550000D01*
X52150816Y-89550000D01*
X51875159Y-89664181D01*
X51664181Y-89875159D01*
X51550000Y-90150816D01*
X51550000Y-90449184D01*
X51578395Y-90517735D01*
X51424841Y-90364181D01*
X51149184Y-90250000D01*
X50850816Y-90250000D01*
X50575159Y-90364181D01*
X50450000Y-90489340D01*
X50450000Y-88250816D01*
X51050000Y-88250816D01*
X51050000Y-88549184D01*
X51164181Y-88824841D01*
X51375159Y-89035819D01*
X51650816Y-89150000D01*
X51949184Y-89150000D01*
X52224841Y-89035819D01*
X52435819Y-88824841D01*
X52550000Y-88549184D01*
X52550000Y-88250816D01*
X52535172Y-88215018D01*
X62846400Y-88215018D01*
X62846400Y-88484982D01*
X62949710Y-88734396D01*
X63140604Y-88925290D01*
X63390018Y-89028600D01*
X63659982Y-89028600D01*
X63909396Y-88925290D01*
X64100290Y-88734396D01*
X64203600Y-88484982D01*
X64203600Y-88215018D01*
X64100290Y-87965604D01*
X63909396Y-87774710D01*
X63659982Y-87671400D01*
X63390018Y-87671400D01*
X63140604Y-87774710D01*
X62949710Y-87965604D01*
X62846400Y-88215018D01*
X52535172Y-88215018D01*
X52435819Y-87975159D01*
X52224841Y-87764181D01*
X51949184Y-87650000D01*
X51650816Y-87650000D01*
X51375159Y-87764181D01*
X51164181Y-87975159D01*
X51050000Y-88250816D01*
X50450000Y-88250816D01*
X50450000Y-87615018D01*
X64371400Y-87615018D01*
X64371400Y-87884982D01*
X64474710Y-88134396D01*
X64665604Y-88325290D01*
X64770571Y-88368769D01*
X64764181Y-88375159D01*
X64650000Y-88650816D01*
X64650000Y-88949184D01*
X64764181Y-89224841D01*
X64975159Y-89435819D01*
X65250816Y-89550000D01*
X65549184Y-89550000D01*
X65824841Y-89435819D01*
X66035819Y-89224841D01*
X66150000Y-88949184D01*
X66150000Y-88710660D01*
X66175159Y-88735819D01*
X66450816Y-88850000D01*
X66491759Y-88850000D01*
X66564181Y-89024841D01*
X66775159Y-89235819D01*
X67050816Y-89350000D01*
X67349184Y-89350000D01*
X67624841Y-89235819D01*
X67835819Y-89024841D01*
X67950000Y-88749184D01*
X67950000Y-88450816D01*
X67907624Y-88348511D01*
X68084396Y-88275290D01*
X68275290Y-88084396D01*
X68378600Y-87834982D01*
X68378600Y-87565018D01*
X68275290Y-87315604D01*
X68210173Y-87250487D01*
X68335819Y-87124841D01*
X68450000Y-86849184D01*
X68450000Y-86780958D01*
X68565018Y-86828600D01*
X68834982Y-86828600D01*
X69084396Y-86725290D01*
X69275290Y-86534396D01*
X69378600Y-86284982D01*
X69378600Y-86015018D01*
X69275290Y-85765604D01*
X69084396Y-85574710D01*
X68834982Y-85471400D01*
X68565018Y-85471400D01*
X68315604Y-85574710D01*
X68124710Y-85765604D01*
X68021400Y-86015018D01*
X68021400Y-86021334D01*
X67849184Y-85950000D01*
X67708241Y-85950000D01*
X67635819Y-85775159D01*
X67424841Y-85564181D01*
X67149184Y-85450000D01*
X66850816Y-85450000D01*
X66575159Y-85564181D01*
X66364181Y-85775159D01*
X66250000Y-86050816D01*
X66250000Y-86349184D01*
X66364181Y-86624841D01*
X66575159Y-86835819D01*
X66850816Y-86950000D01*
X66991759Y-86950000D01*
X67064181Y-87124841D01*
X67189827Y-87250487D01*
X67124710Y-87315604D01*
X67051942Y-87491282D01*
X67024841Y-87464181D01*
X66749184Y-87350000D01*
X66450816Y-87350000D01*
X66175159Y-87464181D01*
X65964181Y-87675159D01*
X65850000Y-87950816D01*
X65850000Y-88189340D01*
X65824841Y-88164181D01*
X65643983Y-88089267D01*
X65728600Y-87884982D01*
X65728600Y-87615018D01*
X65625290Y-87365604D01*
X65434396Y-87174710D01*
X65184982Y-87071400D01*
X64915018Y-87071400D01*
X64665604Y-87174710D01*
X64474710Y-87365604D01*
X64371400Y-87615018D01*
X50450000Y-87615018D01*
X50450000Y-85865018D01*
X57321400Y-85865018D01*
X57321400Y-86134982D01*
X57424710Y-86384396D01*
X57615604Y-86575290D01*
X57865018Y-86678600D01*
X58134982Y-86678600D01*
X58384396Y-86575290D01*
X58575290Y-86384396D01*
X58678600Y-86134982D01*
X58678600Y-85865018D01*
X58575290Y-85615604D01*
X58384396Y-85424710D01*
X58134982Y-85321400D01*
X57865018Y-85321400D01*
X57615604Y-85424710D01*
X57424710Y-85615604D01*
X57321400Y-85865018D01*
X50450000Y-85865018D01*
X50450000Y-84650816D01*
X54450000Y-84650816D01*
X54450000Y-84949184D01*
X54564181Y-85224841D01*
X54775159Y-85435819D01*
X55050816Y-85550000D01*
X55349184Y-85550000D01*
X55624841Y-85435819D01*
X55835819Y-85224841D01*
X55950000Y-84949184D01*
X55950000Y-84650816D01*
X55835819Y-84375159D01*
X55624841Y-84164181D01*
X55349184Y-84050000D01*
X55050816Y-84050000D01*
X54775159Y-84164181D01*
X54564181Y-84375159D01*
X54450000Y-84650816D01*
X50450000Y-84650816D01*
X50450000Y-83708241D01*
X50550816Y-83750000D01*
X50849184Y-83750000D01*
X51124841Y-83635819D01*
X51295642Y-83465018D01*
X58921400Y-83465018D01*
X58921400Y-83734982D01*
X59024710Y-83984396D01*
X59040314Y-84000000D01*
X59024710Y-84015604D01*
X58921400Y-84265018D01*
X58921400Y-84534982D01*
X59024710Y-84784396D01*
X59040314Y-84800000D01*
X59024710Y-84815604D01*
X58921400Y-85065018D01*
X58921400Y-85334982D01*
X59024710Y-85584396D01*
X59215604Y-85775290D01*
X59465018Y-85878600D01*
X59734982Y-85878600D01*
X59767772Y-85865018D01*
X60521400Y-85865018D01*
X60521400Y-86134982D01*
X60624710Y-86384396D01*
X60815604Y-86575290D01*
X61065018Y-86678600D01*
X61334982Y-86678600D01*
X61584396Y-86575290D01*
X61775290Y-86384396D01*
X61878600Y-86134982D01*
X61878600Y-85865018D01*
X61775290Y-85615604D01*
X61584396Y-85424710D01*
X61334982Y-85321400D01*
X61065018Y-85321400D01*
X60815604Y-85424710D01*
X60624710Y-85615604D01*
X60521400Y-85865018D01*
X59767772Y-85865018D01*
X59984396Y-85775290D01*
X60175290Y-85584396D01*
X60278600Y-85334982D01*
X60278600Y-85165018D01*
X63021400Y-85165018D01*
X63021400Y-85434982D01*
X63124710Y-85684396D01*
X63315604Y-85875290D01*
X63565018Y-85978600D01*
X63834982Y-85978600D01*
X64084396Y-85875290D01*
X64199513Y-85760173D01*
X64375159Y-85935819D01*
X64650816Y-86050000D01*
X64949184Y-86050000D01*
X65224841Y-85935819D01*
X65435819Y-85724841D01*
X65550000Y-85449184D01*
X65550000Y-85150816D01*
X65435819Y-84875159D01*
X65224841Y-84664181D01*
X64949184Y-84550000D01*
X64650816Y-84550000D01*
X64375159Y-84664181D01*
X64199513Y-84839827D01*
X64084396Y-84724710D01*
X63834982Y-84621400D01*
X63565018Y-84621400D01*
X63315604Y-84724710D01*
X63124710Y-84915604D01*
X63021400Y-85165018D01*
X60278600Y-85165018D01*
X60278600Y-85078600D01*
X60534982Y-85078600D01*
X60784396Y-84975290D01*
X60975290Y-84784396D01*
X61078600Y-84534982D01*
X61078600Y-84265018D01*
X60975290Y-84015604D01*
X60959686Y-84000000D01*
X60975290Y-83984396D01*
X61078600Y-83734982D01*
X61078600Y-83465018D01*
X60975290Y-83215604D01*
X60784396Y-83024710D01*
X60534982Y-82921400D01*
X60265018Y-82921400D01*
X60015604Y-83024710D01*
X60000000Y-83040314D01*
X59984396Y-83024710D01*
X59734982Y-82921400D01*
X59465018Y-82921400D01*
X59215604Y-83024710D01*
X59024710Y-83215604D01*
X58921400Y-83465018D01*
X51295642Y-83465018D01*
X51335819Y-83424841D01*
X51450000Y-83149184D01*
X51450000Y-82850816D01*
X51335819Y-82575159D01*
X51124841Y-82364181D01*
X50849184Y-82250000D01*
X50550816Y-82250000D01*
X50450000Y-82291759D01*
X50450000Y-81865018D01*
X57321400Y-81865018D01*
X57321400Y-82134982D01*
X57424710Y-82384396D01*
X57615604Y-82575290D01*
X57865018Y-82678600D01*
X58134982Y-82678600D01*
X58167772Y-82665018D01*
X61321400Y-82665018D01*
X61321400Y-82934982D01*
X61424710Y-83184396D01*
X61615604Y-83375290D01*
X61865018Y-83478600D01*
X62134982Y-83478600D01*
X62384396Y-83375290D01*
X62575290Y-83184396D01*
X62678600Y-82934982D01*
X62678600Y-82665018D01*
X62575290Y-82415604D01*
X62384396Y-82224710D01*
X62205999Y-82150816D01*
X64150000Y-82150816D01*
X64150000Y-82449184D01*
X64253892Y-82700000D01*
X64150000Y-82950816D01*
X64150000Y-83249184D01*
X64264181Y-83524841D01*
X64475159Y-83735819D01*
X64750816Y-83850000D01*
X65049184Y-83850000D01*
X65324841Y-83735819D01*
X65535819Y-83524841D01*
X65650000Y-83249184D01*
X65650000Y-82950816D01*
X65546108Y-82700000D01*
X65650000Y-82449184D01*
X65650000Y-82150816D01*
X65535819Y-81875159D01*
X65324841Y-81664181D01*
X65049184Y-81550000D01*
X64750816Y-81550000D01*
X64475159Y-81664181D01*
X64264181Y-81875159D01*
X64150000Y-82150816D01*
X62205999Y-82150816D01*
X62134982Y-82121400D01*
X61865018Y-82121400D01*
X61615604Y-82224710D01*
X61424710Y-82415604D01*
X61321400Y-82665018D01*
X58167772Y-82665018D01*
X58384396Y-82575290D01*
X58575290Y-82384396D01*
X58678600Y-82134982D01*
X58678600Y-81865018D01*
X58575290Y-81615604D01*
X58384396Y-81424710D01*
X58134982Y-81321400D01*
X57865018Y-81321400D01*
X57615604Y-81424710D01*
X57424710Y-81615604D01*
X57321400Y-81865018D01*
X50450000Y-81865018D01*
X50450000Y-80050816D01*
X54150000Y-80050816D01*
X54150000Y-80349184D01*
X54264181Y-80624841D01*
X54475159Y-80835819D01*
X54750816Y-80950000D01*
X55049184Y-80950000D01*
X55324841Y-80835819D01*
X55535819Y-80624841D01*
X55650000Y-80349184D01*
X55650000Y-80050816D01*
X55535819Y-79775159D01*
X55324841Y-79564181D01*
X55049184Y-79450000D01*
X54750816Y-79450000D01*
X54475159Y-79564181D01*
X54264181Y-79775159D01*
X54150000Y-80050816D01*
X50450000Y-80050816D01*
X50450000Y-79050816D01*
X62450000Y-79050816D01*
X62450000Y-79349184D01*
X62564181Y-79624841D01*
X62775159Y-79835819D01*
X63050816Y-79950000D01*
X63349184Y-79950000D01*
X63600000Y-79846108D01*
X63850816Y-79950000D01*
X64149184Y-79950000D01*
X64200577Y-79928712D01*
X64150000Y-80050816D01*
X64150000Y-80349184D01*
X64264181Y-80624841D01*
X64475159Y-80835819D01*
X64750816Y-80950000D01*
X65049184Y-80950000D01*
X65324841Y-80835819D01*
X65535819Y-80624841D01*
X65650000Y-80349184D01*
X65650000Y-80050816D01*
X65535819Y-79775159D01*
X65324841Y-79564181D01*
X65049184Y-79450000D01*
X64750816Y-79450000D01*
X64699423Y-79471288D01*
X64750000Y-79349184D01*
X64750000Y-79050816D01*
X64635819Y-78775159D01*
X64424841Y-78564181D01*
X64149184Y-78450000D01*
X63850816Y-78450000D01*
X63600000Y-78553892D01*
X63349184Y-78450000D01*
X63050816Y-78450000D01*
X62775159Y-78564181D01*
X62564181Y-78775159D01*
X62450000Y-79050816D01*
X50450000Y-79050816D01*
X50450000Y-77510660D01*
X50575159Y-77635819D01*
X50850816Y-77750000D01*
X51149184Y-77750000D01*
X51388635Y-77650816D01*
X52650000Y-77650816D01*
X52650000Y-77949184D01*
X52764181Y-78224841D01*
X52975159Y-78435819D01*
X53250816Y-78550000D01*
X53549184Y-78550000D01*
X53824841Y-78435819D01*
X53850000Y-78410660D01*
X53875159Y-78435819D01*
X54150816Y-78550000D01*
X54449184Y-78550000D01*
X54724841Y-78435819D01*
X54935819Y-78224841D01*
X55050000Y-77949184D01*
X55050000Y-77650816D01*
X54935819Y-77375159D01*
X54911476Y-77350816D01*
X65250000Y-77350816D01*
X65250000Y-77649184D01*
X65364181Y-77924841D01*
X65575159Y-78135819D01*
X65850816Y-78250000D01*
X66149184Y-78250000D01*
X66424841Y-78135819D01*
X66635819Y-77924841D01*
X66750000Y-77649184D01*
X66750000Y-77350816D01*
X66635819Y-77075159D01*
X66424841Y-76864181D01*
X66149184Y-76750000D01*
X65850816Y-76750000D01*
X65575159Y-76864181D01*
X65364181Y-77075159D01*
X65250000Y-77350816D01*
X54911476Y-77350816D01*
X54724841Y-77164181D01*
X54449184Y-77050000D01*
X54150816Y-77050000D01*
X53875159Y-77164181D01*
X53850000Y-77189340D01*
X53824841Y-77164181D01*
X53549184Y-77050000D01*
X53250816Y-77050000D01*
X52975159Y-77164181D01*
X52764181Y-77375159D01*
X52650000Y-77650816D01*
X51388635Y-77650816D01*
X51424841Y-77635819D01*
X51635819Y-77424841D01*
X51750000Y-77149184D01*
X51750000Y-76850816D01*
X51635819Y-76575159D01*
X51424841Y-76364181D01*
X51149184Y-76250000D01*
X50850816Y-76250000D01*
X50575159Y-76364181D01*
X50450000Y-76489340D01*
X50450000Y-75510660D01*
X50575159Y-75635819D01*
X50850816Y-75750000D01*
X51149184Y-75750000D01*
X51424841Y-75635819D01*
X51635819Y-75424841D01*
X51750000Y-75149184D01*
X51750000Y-74850816D01*
X51635819Y-74575159D01*
X51424841Y-74364181D01*
X51149184Y-74250000D01*
X50850816Y-74250000D01*
X50575159Y-74364181D01*
X50450000Y-74489340D01*
X50450000Y-73650816D01*
X51750000Y-73650816D01*
X51750000Y-73949184D01*
X51864181Y-74224841D01*
X52075159Y-74435819D01*
X52350816Y-74550000D01*
X52389340Y-74550000D01*
X52364181Y-74575159D01*
X52250000Y-74850816D01*
X52250000Y-75149184D01*
X52364181Y-75424841D01*
X52575159Y-75635819D01*
X52850816Y-75750000D01*
X53149184Y-75750000D01*
X53424841Y-75635819D01*
X53635819Y-75424841D01*
X53687191Y-75300816D01*
X61300000Y-75300816D01*
X61300000Y-75599184D01*
X61414181Y-75874841D01*
X61625159Y-76085819D01*
X61900816Y-76200000D01*
X62199184Y-76200000D01*
X62474841Y-76085819D01*
X62685819Y-75874841D01*
X62800000Y-75599184D01*
X62800000Y-75300816D01*
X62779290Y-75250816D01*
X63950000Y-75250816D01*
X63950000Y-75549184D01*
X64064181Y-75824841D01*
X64275159Y-76035819D01*
X64550816Y-76150000D01*
X64650000Y-76150000D01*
X64650000Y-76249184D01*
X64764181Y-76524841D01*
X64975159Y-76735819D01*
X65250816Y-76850000D01*
X65549184Y-76850000D01*
X65824841Y-76735819D01*
X66035819Y-76524841D01*
X66150000Y-76249184D01*
X66150000Y-75950816D01*
X66035819Y-75675159D01*
X65824841Y-75464181D01*
X65549184Y-75350000D01*
X65450000Y-75350000D01*
X65450000Y-75250816D01*
X65421605Y-75182265D01*
X65575159Y-75335819D01*
X65850816Y-75450000D01*
X66149184Y-75450000D01*
X66424841Y-75335819D01*
X66635819Y-75124841D01*
X66750000Y-74849184D01*
X66750000Y-74550816D01*
X66635819Y-74275159D01*
X66424841Y-74064181D01*
X66149184Y-73950000D01*
X65850816Y-73950000D01*
X65575159Y-74064181D01*
X65364181Y-74275159D01*
X65250000Y-74550816D01*
X65250000Y-74849184D01*
X65278395Y-74917735D01*
X65124841Y-74764181D01*
X64849184Y-74650000D01*
X64550816Y-74650000D01*
X64275159Y-74764181D01*
X64064181Y-74975159D01*
X63950000Y-75250816D01*
X62779290Y-75250816D01*
X62685819Y-75025159D01*
X62474841Y-74814181D01*
X62199184Y-74700000D01*
X61900816Y-74700000D01*
X61625159Y-74814181D01*
X61414181Y-75025159D01*
X61300000Y-75300816D01*
X53687191Y-75300816D01*
X53750000Y-75149184D01*
X53750000Y-74850816D01*
X53635819Y-74575159D01*
X53424841Y-74364181D01*
X53149184Y-74250000D01*
X53110660Y-74250000D01*
X53135819Y-74224841D01*
X53250000Y-73949184D01*
X53250000Y-73650816D01*
X53135819Y-73375159D01*
X52924841Y-73164181D01*
X52649184Y-73050000D01*
X52350816Y-73050000D01*
X52075159Y-73164181D01*
X51864181Y-73375159D01*
X51750000Y-73650816D01*
X50450000Y-73650816D01*
X50450000Y-72350816D01*
X52750000Y-72350816D01*
X52750000Y-72649184D01*
X52864181Y-72924841D01*
X53075159Y-73135819D01*
X53350816Y-73250000D01*
X53649184Y-73250000D01*
X53924841Y-73135819D01*
X54135819Y-72924841D01*
X54187191Y-72800816D01*
X58850000Y-72800816D01*
X58850000Y-73099184D01*
X58959069Y-73362500D01*
X58850000Y-73625816D01*
X58850000Y-73924184D01*
X58917648Y-74087500D01*
X58850000Y-74250816D01*
X58850000Y-74549184D01*
X58964181Y-74824841D01*
X59175159Y-75035819D01*
X59450816Y-75150000D01*
X59749184Y-75150000D01*
X60024841Y-75035819D01*
X60235819Y-74824841D01*
X60350000Y-74549184D01*
X60350000Y-74250816D01*
X60282352Y-74087500D01*
X60350000Y-73924184D01*
X60350000Y-73625816D01*
X60240931Y-73362500D01*
X60350000Y-73099184D01*
X60350000Y-72800816D01*
X60950000Y-72800816D01*
X60950000Y-73099184D01*
X61064181Y-73374841D01*
X61275159Y-73585819D01*
X61550816Y-73700000D01*
X61849184Y-73700000D01*
X62124841Y-73585819D01*
X62335819Y-73374841D01*
X62343934Y-73355250D01*
X62414181Y-73524841D01*
X62625159Y-73735819D01*
X62900816Y-73850000D01*
X63199184Y-73850000D01*
X63474841Y-73735819D01*
X63685819Y-73524841D01*
X63800000Y-73249184D01*
X63800000Y-72950816D01*
X63685819Y-72675159D01*
X63474841Y-72464181D01*
X63199184Y-72350000D01*
X62900816Y-72350000D01*
X62625159Y-72464181D01*
X62414181Y-72675159D01*
X62406066Y-72694750D01*
X62335819Y-72525159D01*
X62124841Y-72314181D01*
X61849184Y-72200000D01*
X61550816Y-72200000D01*
X61275159Y-72314181D01*
X61064181Y-72525159D01*
X60950000Y-72800816D01*
X60350000Y-72800816D01*
X60235819Y-72525159D01*
X60024841Y-72314181D01*
X59749184Y-72200000D01*
X59450816Y-72200000D01*
X59175159Y-72314181D01*
X58964181Y-72525159D01*
X58850000Y-72800816D01*
X54187191Y-72800816D01*
X54250000Y-72649184D01*
X54250000Y-72350816D01*
X54135819Y-72075159D01*
X53924841Y-71864181D01*
X53649184Y-71750000D01*
X53350816Y-71750000D01*
X53075159Y-71864181D01*
X52864181Y-72075159D01*
X52750000Y-72350816D01*
X50450000Y-72350816D01*
X50450000Y-69878979D01*
X50600000Y-69908816D01*
X52500000Y-69908816D01*
X52503686Y-69908083D01*
X52562470Y-70050000D01*
X52350816Y-70050000D01*
X52075159Y-70164181D01*
X51864181Y-70375159D01*
X51750000Y-70650816D01*
X51750000Y-70949184D01*
X51864181Y-71224841D01*
X52075159Y-71435819D01*
X52350816Y-71550000D01*
X52649184Y-71550000D01*
X52924841Y-71435819D01*
X53135819Y-71224841D01*
X53250000Y-70949184D01*
X53250000Y-70650816D01*
X53187530Y-70500000D01*
X53399184Y-70500000D01*
X53674841Y-70385819D01*
X53885819Y-70174841D01*
X54000000Y-69899184D01*
X54000000Y-69600816D01*
X53937868Y-69450816D01*
X65450000Y-69450816D01*
X65450000Y-69749184D01*
X65564181Y-70024841D01*
X65775159Y-70235819D01*
X66050816Y-70350000D01*
X66349184Y-70350000D01*
X66624841Y-70235819D01*
X66835819Y-70024841D01*
X66950000Y-69749184D01*
X66950000Y-69450816D01*
X66835819Y-69175159D01*
X66624841Y-68964181D01*
X66349184Y-68850000D01*
X66050816Y-68850000D01*
X65775159Y-68964181D01*
X65564181Y-69175159D01*
X65450000Y-69450816D01*
X53937868Y-69450816D01*
X53885819Y-69325159D01*
X53674841Y-69114181D01*
X53399184Y-69000000D01*
X53100816Y-69000000D01*
X52958816Y-69058818D01*
X52958816Y-68191182D01*
X53100816Y-68250000D01*
X53399184Y-68250000D01*
X53674841Y-68135819D01*
X53709844Y-68100816D01*
X54700000Y-68100816D01*
X54700000Y-68399184D01*
X54814181Y-68674841D01*
X55025159Y-68885819D01*
X55300816Y-69000000D01*
X55599184Y-69000000D01*
X55874841Y-68885819D01*
X56085819Y-68674841D01*
X56200000Y-68399184D01*
X56200000Y-68100816D01*
X56085819Y-67825159D01*
X55874841Y-67614181D01*
X55599184Y-67500000D01*
X55300816Y-67500000D01*
X55025159Y-67614181D01*
X54814181Y-67825159D01*
X54700000Y-68100816D01*
X53709844Y-68100816D01*
X53885819Y-67924841D01*
X54000000Y-67649184D01*
X54000000Y-67350816D01*
X58150000Y-67350816D01*
X58150000Y-67649184D01*
X58264181Y-67924841D01*
X58475159Y-68135819D01*
X58750816Y-68250000D01*
X59049184Y-68250000D01*
X59324841Y-68135819D01*
X59535819Y-67924841D01*
X59650000Y-67649184D01*
X59650000Y-67350816D01*
X59608241Y-67250000D01*
X59849184Y-67250000D01*
X60124841Y-67135819D01*
X60335819Y-66924841D01*
X60450000Y-66649184D01*
X60450000Y-66350816D01*
X60441761Y-66330925D01*
X64850000Y-66330925D01*
X64850000Y-66669075D01*
X64979405Y-66981486D01*
X65218514Y-67220595D01*
X65530925Y-67350000D01*
X65869075Y-67350000D01*
X66181486Y-67220595D01*
X66420595Y-66981486D01*
X66550000Y-66669075D01*
X66550000Y-66330925D01*
X66516818Y-66250816D01*
X67750000Y-66250816D01*
X67750000Y-66549184D01*
X67864181Y-66824841D01*
X68075159Y-67035819D01*
X68350816Y-67150000D01*
X68649184Y-67150000D01*
X68924841Y-67035819D01*
X69135819Y-66824841D01*
X69250000Y-66549184D01*
X69250000Y-66250816D01*
X69135819Y-65975159D01*
X68924841Y-65764181D01*
X68649184Y-65650000D01*
X68350816Y-65650000D01*
X68075159Y-65764181D01*
X67864181Y-65975159D01*
X67750000Y-66250816D01*
X66516818Y-66250816D01*
X66420595Y-66018514D01*
X66181486Y-65779405D01*
X65869075Y-65650000D01*
X65530925Y-65650000D01*
X65218514Y-65779405D01*
X64979405Y-66018514D01*
X64850000Y-66330925D01*
X60441761Y-66330925D01*
X60335819Y-66075159D01*
X60124841Y-65864181D01*
X59849184Y-65750000D01*
X59550816Y-65750000D01*
X59275159Y-65864181D01*
X59064181Y-66075159D01*
X58950000Y-66350816D01*
X58950000Y-66649184D01*
X58991759Y-66750000D01*
X58750816Y-66750000D01*
X58475159Y-66864181D01*
X58264181Y-67075159D01*
X58150000Y-67350816D01*
X54000000Y-67350816D01*
X53885819Y-67075159D01*
X53674841Y-66864181D01*
X53399184Y-66750000D01*
X53100816Y-66750000D01*
X52825159Y-66864181D01*
X52614181Y-67075159D01*
X52599357Y-67110947D01*
X52500000Y-67091184D01*
X51770468Y-67091184D01*
X52024841Y-66985819D01*
X52235819Y-66774841D01*
X52350000Y-66499184D01*
X52350000Y-66200816D01*
X52235819Y-65925159D01*
X52024841Y-65714181D01*
X51749184Y-65600000D01*
X51450816Y-65600000D01*
X51175159Y-65714181D01*
X50964181Y-65925159D01*
X50850000Y-66200816D01*
X50850000Y-66499184D01*
X50964181Y-66774841D01*
X51175159Y-66985819D01*
X51429532Y-67091184D01*
X50600000Y-67091184D01*
X50450000Y-67121021D01*
X50450000Y-65010660D01*
X50575159Y-65135819D01*
X50850816Y-65250000D01*
X51149184Y-65250000D01*
X51424841Y-65135819D01*
X51635819Y-64924841D01*
X51750000Y-64649184D01*
X51750000Y-64350816D01*
X51635819Y-64075159D01*
X51475911Y-63915251D01*
X51992000Y-63915251D01*
X51992000Y-64372749D01*
X52167077Y-64795423D01*
X52490577Y-65118923D01*
X52913251Y-65294000D01*
X53370749Y-65294000D01*
X53793423Y-65118923D01*
X54116923Y-64795423D01*
X54285000Y-64389649D01*
X54453077Y-64795423D01*
X54776577Y-65118923D01*
X54810879Y-65133131D01*
X54700000Y-65400816D01*
X54700000Y-65699184D01*
X54814181Y-65974841D01*
X55025159Y-66185819D01*
X55300816Y-66300000D01*
X55599184Y-66300000D01*
X55874841Y-66185819D01*
X56085819Y-65974841D01*
X56200000Y-65699184D01*
X56200000Y-65400816D01*
X56085819Y-65125159D01*
X56079503Y-65118843D01*
X56402923Y-64795423D01*
X56462821Y-64650816D01*
X56650000Y-64650816D01*
X56650000Y-64949184D01*
X56764181Y-65224841D01*
X56975159Y-65435819D01*
X57250816Y-65550000D01*
X57549184Y-65550000D01*
X57824841Y-65435819D01*
X58035819Y-65224841D01*
X58150000Y-64949184D01*
X58150000Y-64730925D01*
X62050000Y-64730925D01*
X62050000Y-65069075D01*
X62179405Y-65381486D01*
X62418514Y-65620595D01*
X62730925Y-65750000D01*
X63069075Y-65750000D01*
X63381486Y-65620595D01*
X63620595Y-65381486D01*
X63750000Y-65069075D01*
X63750000Y-64948346D01*
X63920577Y-65118923D01*
X64343251Y-65294000D01*
X64800749Y-65294000D01*
X65223423Y-65118923D01*
X65546923Y-64795423D01*
X65715000Y-64389649D01*
X65883077Y-64795423D01*
X66206577Y-65118923D01*
X66629251Y-65294000D01*
X67086749Y-65294000D01*
X67509423Y-65118923D01*
X67832923Y-64795423D01*
X68008000Y-64372749D01*
X68008000Y-63915251D01*
X67832923Y-63492577D01*
X67509423Y-63169077D01*
X67086749Y-62994000D01*
X66629251Y-62994000D01*
X66206577Y-63169077D01*
X65883077Y-63492577D01*
X65715000Y-63898351D01*
X65546923Y-63492577D01*
X65223423Y-63169077D01*
X64800749Y-62994000D01*
X64343251Y-62994000D01*
X63924114Y-63167612D01*
X63885819Y-63075159D01*
X63674841Y-62864181D01*
X63399184Y-62750000D01*
X63100816Y-62750000D01*
X62825159Y-62864181D01*
X62614181Y-63075159D01*
X62500000Y-63350816D01*
X62500000Y-63649184D01*
X62614181Y-63924841D01*
X62739340Y-64050000D01*
X62730925Y-64050000D01*
X62418514Y-64179405D01*
X62179405Y-64418514D01*
X62050000Y-64730925D01*
X58150000Y-64730925D01*
X58150000Y-64650816D01*
X58035819Y-64375159D01*
X57824841Y-64164181D01*
X57549184Y-64050000D01*
X57250816Y-64050000D01*
X56975159Y-64164181D01*
X56764181Y-64375159D01*
X56650000Y-64650816D01*
X56462821Y-64650816D01*
X56578000Y-64372749D01*
X56578000Y-63915251D01*
X56402923Y-63492577D01*
X56079423Y-63169077D01*
X55656749Y-62994000D01*
X55199251Y-62994000D01*
X54776577Y-63169077D01*
X54453077Y-63492577D01*
X54285000Y-63898351D01*
X54116923Y-63492577D01*
X53793423Y-63169077D01*
X53370749Y-62994000D01*
X52913251Y-62994000D01*
X52490577Y-63169077D01*
X52167077Y-63492577D01*
X51992000Y-63915251D01*
X51475911Y-63915251D01*
X51424841Y-63864181D01*
X51149184Y-63750000D01*
X50850816Y-63750000D01*
X50575159Y-63864181D01*
X50450000Y-63989340D01*
X50450000Y-61510660D01*
X50575159Y-61635819D01*
X50850816Y-61750000D01*
X51149184Y-61750000D01*
X51424841Y-61635819D01*
X51459844Y-61600816D01*
X60750000Y-61600816D01*
X60750000Y-61899184D01*
X60864181Y-62174841D01*
X61075159Y-62385819D01*
X61350816Y-62500000D01*
X61649184Y-62500000D01*
X61924841Y-62385819D01*
X62135819Y-62174841D01*
X62250000Y-61899184D01*
X62250000Y-61600816D01*
X65000000Y-61600816D01*
X65000000Y-61899184D01*
X65114181Y-62174841D01*
X65325159Y-62385819D01*
X65600816Y-62500000D01*
X65899184Y-62500000D01*
X66174841Y-62385819D01*
X66385819Y-62174841D01*
X66500000Y-61899184D01*
X66500000Y-61600816D01*
X66385819Y-61325159D01*
X66174841Y-61114181D01*
X65899184Y-61000000D01*
X65600816Y-61000000D01*
X65325159Y-61114181D01*
X65114181Y-61325159D01*
X65000000Y-61600816D01*
X62250000Y-61600816D01*
X62135819Y-61325159D01*
X61924841Y-61114181D01*
X61649184Y-61000000D01*
X61350816Y-61000000D01*
X61075159Y-61114181D01*
X60864181Y-61325159D01*
X60750000Y-61600816D01*
X51459844Y-61600816D01*
X51635819Y-61424841D01*
X51750000Y-61149184D01*
X51750000Y-60850816D01*
X51635819Y-60575159D01*
X51424841Y-60364181D01*
X51149184Y-60250000D01*
X50850816Y-60250000D01*
X50575159Y-60364181D01*
X50450000Y-60489340D01*
X50450000Y-59439448D01*
X50897698Y-59887146D01*
X51529871Y-60149000D01*
X52214129Y-60149000D01*
X52846302Y-59887146D01*
X53330146Y-59403302D01*
X53592000Y-58771129D01*
X53592000Y-58246348D01*
X53600816Y-58250000D01*
X53899184Y-58250000D01*
X54174841Y-58135819D01*
X54385819Y-57924841D01*
X54500000Y-57649184D01*
X54500000Y-57350816D01*
X54385819Y-57075159D01*
X54291539Y-56980879D01*
X54825733Y-56759608D01*
X55409608Y-56175733D01*
X55523821Y-55900000D01*
X56833181Y-55900000D01*
X56750000Y-56100816D01*
G04 #@! TD*
M02*
