M48
;DRILL file {KiCad 6.0.0-rc1-unknown-106eaaa~84~ubuntu18.04.1} date Tue 27 Nov 2018 01:39:19 GMT
;FORMAT={-:-/ absolute / inch / decimal}
FMAT,2
INCH
T1C0.0236
T2C0.1280
T3C0.1299
%
G90
G05
T1
X7.3031Y-6.1417
X7.3307Y-6.0709
X7.3307Y-6.2126
X7.4016Y-6.0433
X7.4016Y-6.2402
X7.4724Y-6.0709
X7.4724Y-6.2126
X7.5Y-6.1417
X7.3031Y-4.8031
X7.3307Y-4.7323
X7.3307Y-4.874
X7.4016Y-4.7047
X7.4016Y-4.9016
X7.4724Y-4.7323
X7.4724Y-4.874
X7.5Y-4.8031
X3.2087Y-6.1417
X3.2362Y-6.0709
X3.2362Y-6.2126
X3.3071Y-6.0433
X3.3071Y-6.2402
X3.378Y-6.0709
X3.378Y-6.2126
X3.4055Y-6.1417
X3.2087Y-4.8031
X3.2362Y-4.7323
X3.2362Y-4.874
X3.3071Y-4.7047
X3.3071Y-4.9016
X3.378Y-4.7323
X3.378Y-4.874
X3.4055Y-4.8031
T2
X6.565Y-6.0827
X7.065Y-6.0827
X3.6035Y-6.0827
X5.9633Y-6.0827
T3
X7.4016Y-6.1417
X7.4016Y-4.8031
X3.3071Y-6.1417
X3.3071Y-4.8031
T0
M30
