M48
;DRILL file {KiCad 6.0.0-rc1-unknown-106eaaa~84~ubuntu18.04.1} date Tue 27 Nov 2018 01:39:19 GMT
;FORMAT={-:-/ absolute / inch / decimal}
FMAT,2
INCH
T1C0.0100
T2C0.0118
T3C0.0138
T4C0.0157
T5C0.0250
T6C0.0315
T7C0.0354
T8C0.0394
T9C0.0620
%
G90
G05
T1
X4.6732Y-5.0551
X4.6732Y-5.0866
X4.7047Y-4.8661
X4.7047Y-5.0551
X4.7047Y-5.0866
X4.7205Y-5.1909
X4.7362Y-4.9291
X4.7362Y-4.9606
X4.7362Y-5.0236
X4.7362Y-5.0866
X4.7362Y-5.1181
X4.7382Y-5.1732
X4.7677Y-4.9606
X4.7677Y-4.9921
X4.7677Y-5.0236
X4.7677Y-5.0551
X4.7677Y-5.0866
X4.7972Y-4.9272
X4.7992Y-4.8976
X4.7992Y-4.9606
X4.7992Y-4.9921
X4.7992Y-5.0236
X4.7992Y-5.0866
X4.8307Y-4.9291
X4.8307Y-4.9606
X4.8307Y-4.9921
X4.8307Y-5.0236
X4.8307Y-5.0866
X4.8622Y-5.1181
X4.8937Y-4.8661
X4.8937Y-5.0551
X4.8937Y-5.0866
X4.8957Y-4.8327
X4.9252Y-4.8976
X4.9646Y-4.815
X4.9862Y-4.7382
X4.9862Y-5.0925
X4.9941Y-5.1457
X5.0118Y-5.126
X5.0197Y-5.1693
X5.0453Y-4.7736
X5.0453Y-4.7992
X5.0512Y-5.1772
X5.0512Y-5.3504
X5.065Y-4.8307
X5.0827Y-5.2402
X5.0984Y-5.3504
X5.1201Y-4.685
X5.1496Y-4.8307
T2
X3.2677Y-5.7283
X3.4646Y-4.7717
X3.4783Y-4.8209
X3.4783Y-4.9272
X3.6102Y-5.0984
X3.6102Y-5.5039
X3.6398Y-5.5886
X3.6693Y-4.7244
X3.6693Y-4.9606
X3.874Y-5.5591
X3.874Y-5.6693
X4.0551Y-4.7441
X4.1122Y-4.878
X4.1476Y-4.878
X4.1614Y-5.0098
X4.1654Y-5.6063
X4.311Y-5.0394
X4.3346Y-4.878
X4.4035Y-4.8209
X4.4035Y-4.8583
X4.4094Y-4.9724
X4.4528Y-5.0394
X4.4705Y-4.7382
X4.5098Y-4.7244
X4.5472Y-5.0315
X4.5787Y-4.7559
X4.5984Y-5.5591
X4.5984Y-5.6654
X4.6358Y-4.6831
X4.6476Y-4.7894
X4.6496Y-4.7205
X4.6831Y-4.7894
X4.7303Y-4.7894
X4.7657Y-4.7894
X4.7874Y-5.6063
X4.813Y-4.7894
X4.8484Y-4.7894
X4.8858Y-4.7165
X4.9213Y-4.6949
X4.9488Y-4.7087
X4.9646Y-4.7559
X4.9685Y-5.5591
X4.9685Y-5.6654
X5.0394Y-5.5472
X5.1201Y-4.7441
X5.1594Y-4.8957
X5.189Y-4.7677
X5.189Y-4.8031
X5.2559Y-4.8996
X5.2953Y-4.9331
X5.3406Y-4.8839
X5.4055Y-5.6063
X5.437Y-4.9331
X5.6299Y-4.6969
X5.6299Y-4.9134
X5.7323Y-5.5591
X5.7323Y-5.6693
X5.9173Y-5.6339
X6.1457Y-5.1575
X6.3031Y-5.1654
X6.6732Y-4.815
X6.6732Y-5.063
X6.6969Y-5.1614
X6.7441Y-4.9449
X6.7441Y-5.0315
X6.7677Y-4.9213
X6.878Y-4.7992
X6.8799Y-4.8976
X6.9724Y-4.9882
X7.0Y-4.9724
X7.0Y-5.1339
X7.0197Y-4.8976
X7.0787Y-4.9134
X7.1024Y-4.9724
X7.1024Y-5.0197
X7.1102Y-5.0827
X7.2008Y-5.4724
X7.3425Y-5.0591
T3
X6.8268Y-4.9961
X6.8268Y-5.0433
X6.874Y-4.9961
X6.874Y-5.0433
T4
X3.189Y-5.0
X3.189Y-5.1969
X3.189Y-5.3937
X3.189Y-5.5906
X3.4252Y-4.685
X3.4646Y-6.2598
X3.5236Y-5.7913
X3.6614Y-6.2598
X3.748Y-4.748
X3.7953Y-5.5276
X3.8189Y-5.1575
X3.8583Y-6.2598
X3.8976Y-5.4173
X3.9567Y-5.5709
X4.0157Y-5.1575
X4.0551Y-6.0039
X4.0551Y-6.2598
X4.1102Y-5.4173
X4.2126Y-5.1575
X4.252Y-6.2598
X4.3071Y-4.748
X4.3228Y-5.4173
X4.4134Y-5.1417
X4.4134Y-5.315
X4.4488Y-6.2598
X4.4882Y-5.3346
X4.5236Y-5.5354
X4.6457Y-6.2598
X4.6772Y-6.0
X4.7638Y-5.4331
X4.8425Y-6.2598
X4.8937Y-5.5591
X5.0394Y-6.2598
X5.1339Y-5.4213
X5.2362Y-4.685
X5.2362Y-6.2598
X5.2953Y-5.1772
X5.2953Y-6.0039
X5.4331Y-4.685
X5.4331Y-6.2598
X5.5709Y-5.4213
X5.6299Y-6.2598
X5.6496Y-5.563
X5.7402Y-5.4488
X5.8268Y-4.685
X5.8268Y-6.2598
X6.0236Y-6.2598
X6.4449Y-5.7677
X6.4449Y-5.8504
X6.5394Y-5.0984
X6.6339Y-4.7717
X6.685Y-5.6417
X6.8937Y-4.7087
X6.937Y-5.6417
X7.0945Y-4.7087
X7.1024Y-5.1772
X7.189Y-5.5866
X7.189Y-5.689
X7.189Y-5.7992
X7.2047Y-4.7244
X7.2165Y-5.185
X7.2165Y-5.2992
X7.2402Y-5.9488
X7.4843Y-5.6299
X7.4843Y-5.7598
T5
X5.2917Y-4.7531
X5.2917Y-4.8031
X5.3417Y-4.7531
X5.3417Y-4.8031
X5.3917Y-4.7531
X5.3917Y-4.8031
X5.4417Y-4.7531
X5.4417Y-4.8031
X5.4917Y-4.7531
X5.4917Y-4.8031
T6
X5.7524Y-5.187
X5.8524Y-5.187
X5.9524Y-5.187
X6.0524Y-5.187
X6.2524Y-5.187
X6.3524Y-5.187
X6.4524Y-5.187
X5.7524Y-4.7933
X5.8524Y-4.7933
X5.9524Y-4.7933
X6.0524Y-4.7933
X6.2524Y-4.7933
X6.3524Y-4.7933
X6.4524Y-4.7933
T7
X6.545Y-5.7227
X6.635Y-5.7227
X6.675Y-5.9127
X6.715Y-5.9827
X6.755Y-5.9127
X6.795Y-5.9827
X6.835Y-5.9127
X6.875Y-5.9827
X6.915Y-5.9127
X6.955Y-5.9827
X6.995Y-5.7227
X7.085Y-5.7227
X3.5835Y-5.7227
X3.6735Y-5.7227
X3.7135Y-5.9127
X3.7535Y-5.9827
X3.7935Y-5.9127
X3.8335Y-5.9827
X3.8735Y-5.9127
X3.9135Y-5.9827
X3.9535Y-5.9127
X3.9935Y-5.9827
X4.0335Y-5.7227
X4.1235Y-5.7227
X4.2035Y-5.7227
X4.2935Y-5.7227
X4.3335Y-5.9127
X4.3735Y-5.9827
X4.4135Y-5.9127
X4.4535Y-5.9827
X4.4935Y-5.9127
X4.5335Y-5.9827
X4.5735Y-5.9127
X4.6135Y-5.9827
X4.6535Y-5.7227
X4.7435Y-5.7227
X4.8236Y-5.7227
X4.9136Y-5.7227
X4.9536Y-5.9127
X4.9936Y-5.9827
X5.0336Y-5.9127
X5.0736Y-5.9827
X5.1136Y-5.9127
X5.1536Y-5.9827
X5.1936Y-5.9127
X5.2336Y-5.9827
X5.2736Y-5.7227
X5.3636Y-5.7227
X5.4437Y-5.7227
X5.5337Y-5.7227
X5.5737Y-5.9127
X5.6137Y-5.9827
X5.6537Y-5.9127
X5.6937Y-5.9827
X5.7337Y-5.9127
X5.7737Y-5.9827
X5.8137Y-5.9127
X5.8537Y-5.9827
X5.8937Y-5.7227
X5.9837Y-5.7227
T8
X3.248Y-5.9252
T9
X6.495Y-5.9477
X7.135Y-5.9477
X3.5335Y-5.9477
X4.4735Y-5.6827
X5.0936Y-5.6827
X6.0335Y-5.9477
T0
M30
